<?xml version="1.0" encoding="utf-8" standalone="no"?>
<!DOCTYPE svg PUBLIC "-//W3C//DTD SVG 1.1//EN"
  "http://www.w3.org/Graphics/SVG/1.1/DTD/svg11.dtd">
<!-- Created with matplotlib (http://matplotlib.org/) -->
<svg height="345pt" version="1.1" viewBox="0 0 460 345" width="460pt" xmlns="http://www.w3.org/2000/svg" xmlns:xlink="http://www.w3.org/1999/xlink">
 <defs>
  <style type="text/css">
*{stroke-linecap:butt;stroke-linejoin:round;}
  </style>
 </defs>
 <g id="figure_1">
  <g id="patch_1">
   <path d="M 0 345.6 
L 460.8 345.6 
L 460.8 0 
L 0 0 
z
" style="fill:#ffffff;"/>
  </g>
  <g id="axes_1">
   <g id="patch_2">
    <path d="M 57.6 276.48 
L 414.72 276.48 
L 414.72 41.472 
L 57.6 41.472 
z
" style="fill:#e5e5e5;"/>
   </g>
   <g id="matplotlib.axis_1">
    <g id="xtick_1">
     <g id="line2d_1">
      <path clip-path="url(#pf1ffba926a)" d="M 102.171217 276.48 
L 102.171217 41.472 
" style="fill:none;stroke:#ffffff;stroke-linecap:square;stroke-width:0.8;"/>
     </g>
     <g id="line2d_2">
      <defs>
       <path d="M 0 0 
L 0 3.5 
" id="m2ec865e502" style="stroke:#555555;stroke-width:0.8;"/>
      </defs>
      <g>
       <use style="fill:#555555;stroke:#555555;stroke-width:0.8;" x="102.171217" xlink:href="#m2ec865e502" y="276.48"/>
      </g>
     </g>
     <g id="text_1">
      <!-- 2003 -->
      <defs>
       <path d="M 19.1875 8.296875 
L 53.609375 8.296875 
L 53.609375 0 
L 7.328125 0 
L 7.328125 8.296875 
Q 12.9375 14.109375 22.625 23.890625 
Q 32.328125 33.6875 34.8125 36.53125 
Q 39.546875 41.84375 41.421875 45.53125 
Q 43.3125 49.21875 43.3125 52.78125 
Q 43.3125 58.59375 39.234375 62.25 
Q 35.15625 65.921875 28.609375 65.921875 
Q 23.96875 65.921875 18.8125 64.3125 
Q 13.671875 62.703125 7.8125 59.421875 
L 7.8125 69.390625 
Q 13.765625 71.78125 18.9375 73 
Q 24.125 74.21875 28.421875 74.21875 
Q 39.75 74.21875 46.484375 68.546875 
Q 53.21875 62.890625 53.21875 53.421875 
Q 53.21875 48.921875 51.53125 44.890625 
Q 49.859375 40.875 45.40625 35.40625 
Q 44.1875 33.984375 37.640625 27.21875 
Q 31.109375 20.453125 19.1875 8.296875 
z
" id="DejaVuSans-32"/>
       <path d="M 31.78125 66.40625 
Q 24.171875 66.40625 20.328125 58.90625 
Q 16.5 51.421875 16.5 36.375 
Q 16.5 21.390625 20.328125 13.890625 
Q 24.171875 6.390625 31.78125 6.390625 
Q 39.453125 6.390625 43.28125 13.890625 
Q 47.125 21.390625 47.125 36.375 
Q 47.125 51.421875 43.28125 58.90625 
Q 39.453125 66.40625 31.78125 66.40625 
z
M 31.78125 74.21875 
Q 44.046875 74.21875 50.515625 64.515625 
Q 56.984375 54.828125 56.984375 36.375 
Q 56.984375 17.96875 50.515625 8.265625 
Q 44.046875 -1.421875 31.78125 -1.421875 
Q 19.53125 -1.421875 13.0625 8.265625 
Q 6.59375 17.96875 6.59375 36.375 
Q 6.59375 54.828125 13.0625 64.515625 
Q 19.53125 74.21875 31.78125 74.21875 
z
" id="DejaVuSans-30"/>
       <path d="M 40.578125 39.3125 
Q 47.65625 37.796875 51.625 33 
Q 55.609375 28.21875 55.609375 21.1875 
Q 55.609375 10.40625 48.1875 4.484375 
Q 40.765625 -1.421875 27.09375 -1.421875 
Q 22.515625 -1.421875 17.65625 -0.515625 
Q 12.796875 0.390625 7.625 2.203125 
L 7.625 11.71875 
Q 11.71875 9.328125 16.59375 8.109375 
Q 21.484375 6.890625 26.8125 6.890625 
Q 36.078125 6.890625 40.9375 10.546875 
Q 45.796875 14.203125 45.796875 21.1875 
Q 45.796875 27.640625 41.28125 31.265625 
Q 36.765625 34.90625 28.71875 34.90625 
L 20.21875 34.90625 
L 20.21875 43.015625 
L 29.109375 43.015625 
Q 36.375 43.015625 40.234375 45.921875 
Q 44.09375 48.828125 44.09375 54.296875 
Q 44.09375 59.90625 40.109375 62.90625 
Q 36.140625 65.921875 28.71875 65.921875 
Q 24.65625 65.921875 20.015625 65.03125 
Q 15.375 64.15625 9.8125 62.3125 
L 9.8125 71.09375 
Q 15.4375 72.65625 20.34375 73.4375 
Q 25.25 74.21875 29.59375 74.21875 
Q 40.828125 74.21875 47.359375 69.109375 
Q 53.90625 64.015625 53.90625 55.328125 
Q 53.90625 49.265625 50.4375 45.09375 
Q 46.96875 40.921875 40.578125 39.3125 
z
" id="DejaVuSans-33"/>
      </defs>
      <g style="fill:#555555;" transform="translate(79.091027 302.78544)rotate(-30)scale(0.1 -0.1)">
       <use xlink:href="#DejaVuSans-32"/>
       <use x="63.623047" xlink:href="#DejaVuSans-30"/>
       <use x="127.246094" xlink:href="#DejaVuSans-30"/>
       <use x="190.869141" xlink:href="#DejaVuSans-33"/>
      </g>
     </g>
    </g>
    <g id="xtick_2">
     <g id="line2d_3">
      <path clip-path="url(#pf1ffba926a)" d="M 146.864715 276.48 
L 146.864715 41.472 
" style="fill:none;stroke:#ffffff;stroke-linecap:square;stroke-width:0.8;"/>
     </g>
     <g id="line2d_4">
      <g>
       <use style="fill:#555555;stroke:#555555;stroke-width:0.8;" x="146.864715" xlink:href="#m2ec865e502" y="276.48"/>
      </g>
     </g>
     <g id="text_2">
      <!-- 2005 -->
      <defs>
       <path d="M 10.796875 72.90625 
L 49.515625 72.90625 
L 49.515625 64.59375 
L 19.828125 64.59375 
L 19.828125 46.734375 
Q 21.96875 47.46875 24.109375 47.828125 
Q 26.265625 48.1875 28.421875 48.1875 
Q 40.625 48.1875 47.75 41.5 
Q 54.890625 34.8125 54.890625 23.390625 
Q 54.890625 11.625 47.5625 5.09375 
Q 40.234375 -1.421875 26.90625 -1.421875 
Q 22.3125 -1.421875 17.546875 -0.640625 
Q 12.796875 0.140625 7.71875 1.703125 
L 7.71875 11.625 
Q 12.109375 9.234375 16.796875 8.0625 
Q 21.484375 6.890625 26.703125 6.890625 
Q 35.15625 6.890625 40.078125 11.328125 
Q 45.015625 15.765625 45.015625 23.390625 
Q 45.015625 31 40.078125 35.4375 
Q 35.15625 39.890625 26.703125 39.890625 
Q 22.75 39.890625 18.8125 39.015625 
Q 14.890625 38.140625 10.796875 36.28125 
z
" id="DejaVuSans-35"/>
      </defs>
      <g style="fill:#555555;" transform="translate(123.784525 302.78544)rotate(-30)scale(0.1 -0.1)">
       <use xlink:href="#DejaVuSans-32"/>
       <use x="63.623047" xlink:href="#DejaVuSans-30"/>
       <use x="127.246094" xlink:href="#DejaVuSans-30"/>
       <use x="190.869141" xlink:href="#DejaVuSans-35"/>
      </g>
     </g>
    </g>
    <g id="xtick_3">
     <g id="line2d_5">
      <path clip-path="url(#pf1ffba926a)" d="M 191.497072 276.48 
L 191.497072 41.472 
" style="fill:none;stroke:#ffffff;stroke-linecap:square;stroke-width:0.8;"/>
     </g>
     <g id="line2d_6">
      <g>
       <use style="fill:#555555;stroke:#555555;stroke-width:0.8;" x="191.497072" xlink:href="#m2ec865e502" y="276.48"/>
      </g>
     </g>
     <g id="text_3">
      <!-- 2007 -->
      <defs>
       <path d="M 8.203125 72.90625 
L 55.078125 72.90625 
L 55.078125 68.703125 
L 28.609375 0 
L 18.3125 0 
L 43.21875 64.59375 
L 8.203125 64.59375 
z
" id="DejaVuSans-37"/>
      </defs>
      <g style="fill:#555555;" transform="translate(168.416882 302.78544)rotate(-30)scale(0.1 -0.1)">
       <use xlink:href="#DejaVuSans-32"/>
       <use x="63.623047" xlink:href="#DejaVuSans-30"/>
       <use x="127.246094" xlink:href="#DejaVuSans-30"/>
       <use x="190.869141" xlink:href="#DejaVuSans-37"/>
      </g>
     </g>
    </g>
    <g id="xtick_4">
     <g id="line2d_7">
      <path clip-path="url(#pf1ffba926a)" d="M 236.19057 276.48 
L 236.19057 41.472 
" style="fill:none;stroke:#ffffff;stroke-linecap:square;stroke-width:0.8;"/>
     </g>
     <g id="line2d_8">
      <g>
       <use style="fill:#555555;stroke:#555555;stroke-width:0.8;" x="236.19057" xlink:href="#m2ec865e502" y="276.48"/>
      </g>
     </g>
     <g id="text_4">
      <!-- 2009 -->
      <defs>
       <path d="M 10.984375 1.515625 
L 10.984375 10.5 
Q 14.703125 8.734375 18.5 7.8125 
Q 22.3125 6.890625 25.984375 6.890625 
Q 35.75 6.890625 40.890625 13.453125 
Q 46.046875 20.015625 46.78125 33.40625 
Q 43.953125 29.203125 39.59375 26.953125 
Q 35.25 24.703125 29.984375 24.703125 
Q 19.046875 24.703125 12.671875 31.3125 
Q 6.296875 37.9375 6.296875 49.421875 
Q 6.296875 60.640625 12.9375 67.421875 
Q 19.578125 74.21875 30.609375 74.21875 
Q 43.265625 74.21875 49.921875 64.515625 
Q 56.59375 54.828125 56.59375 36.375 
Q 56.59375 19.140625 48.40625 8.859375 
Q 40.234375 -1.421875 26.421875 -1.421875 
Q 22.703125 -1.421875 18.890625 -0.6875 
Q 15.09375 0.046875 10.984375 1.515625 
z
M 30.609375 32.421875 
Q 37.25 32.421875 41.125 36.953125 
Q 45.015625 41.5 45.015625 49.421875 
Q 45.015625 57.28125 41.125 61.84375 
Q 37.25 66.40625 30.609375 66.40625 
Q 23.96875 66.40625 20.09375 61.84375 
Q 16.21875 57.28125 16.21875 49.421875 
Q 16.21875 41.5 20.09375 36.953125 
Q 23.96875 32.421875 30.609375 32.421875 
z
" id="DejaVuSans-39"/>
      </defs>
      <g style="fill:#555555;" transform="translate(213.11038 302.78544)rotate(-30)scale(0.1 -0.1)">
       <use xlink:href="#DejaVuSans-32"/>
       <use x="63.623047" xlink:href="#DejaVuSans-30"/>
       <use x="127.246094" xlink:href="#DejaVuSans-30"/>
       <use x="190.869141" xlink:href="#DejaVuSans-39"/>
      </g>
     </g>
    </g>
    <g id="xtick_5">
     <g id="line2d_9">
      <path clip-path="url(#pf1ffba926a)" d="M 280.822928 276.48 
L 280.822928 41.472 
" style="fill:none;stroke:#ffffff;stroke-linecap:square;stroke-width:0.8;"/>
     </g>
     <g id="line2d_10">
      <g>
       <use style="fill:#555555;stroke:#555555;stroke-width:0.8;" x="280.822928" xlink:href="#m2ec865e502" y="276.48"/>
      </g>
     </g>
     <g id="text_5">
      <!-- 2011 -->
      <defs>
       <path d="M 12.40625 8.296875 
L 28.515625 8.296875 
L 28.515625 63.921875 
L 10.984375 60.40625 
L 10.984375 69.390625 
L 28.421875 72.90625 
L 38.28125 72.90625 
L 38.28125 8.296875 
L 54.390625 8.296875 
L 54.390625 0 
L 12.40625 0 
z
" id="DejaVuSans-31"/>
      </defs>
      <g style="fill:#555555;" transform="translate(257.742737 302.78544)rotate(-30)scale(0.1 -0.1)">
       <use xlink:href="#DejaVuSans-32"/>
       <use x="63.623047" xlink:href="#DejaVuSans-30"/>
       <use x="127.246094" xlink:href="#DejaVuSans-31"/>
       <use x="190.869141" xlink:href="#DejaVuSans-31"/>
      </g>
     </g>
    </g>
    <g id="xtick_6">
     <g id="line2d_11">
      <path clip-path="url(#pf1ffba926a)" d="M 325.516425 276.48 
L 325.516425 41.472 
" style="fill:none;stroke:#ffffff;stroke-linecap:square;stroke-width:0.8;"/>
     </g>
     <g id="line2d_12">
      <g>
       <use style="fill:#555555;stroke:#555555;stroke-width:0.8;" x="325.516425" xlink:href="#m2ec865e502" y="276.48"/>
      </g>
     </g>
     <g id="text_6">
      <!-- 2013 -->
      <g style="fill:#555555;" transform="translate(302.436235 302.78544)rotate(-30)scale(0.1 -0.1)">
       <use xlink:href="#DejaVuSans-32"/>
       <use x="63.623047" xlink:href="#DejaVuSans-30"/>
       <use x="127.246094" xlink:href="#DejaVuSans-31"/>
       <use x="190.869141" xlink:href="#DejaVuSans-33"/>
      </g>
     </g>
    </g>
    <g id="xtick_7">
     <g id="line2d_13">
      <path clip-path="url(#pf1ffba926a)" d="M 370.148783 276.48 
L 370.148783 41.472 
" style="fill:none;stroke:#ffffff;stroke-linecap:square;stroke-width:0.8;"/>
     </g>
     <g id="line2d_14">
      <g>
       <use style="fill:#555555;stroke:#555555;stroke-width:0.8;" x="370.148783" xlink:href="#m2ec865e502" y="276.48"/>
      </g>
     </g>
     <g id="text_7">
      <!-- 2015 -->
      <g style="fill:#555555;" transform="translate(347.068592 302.78544)rotate(-30)scale(0.1 -0.1)">
       <use xlink:href="#DejaVuSans-32"/>
       <use x="63.623047" xlink:href="#DejaVuSans-30"/>
       <use x="127.246094" xlink:href="#DejaVuSans-31"/>
       <use x="190.869141" xlink:href="#DejaVuSans-35"/>
      </g>
     </g>
    </g>
    <g id="text_8">
     <!-- Date -->
     <defs>
      <path d="M 19.671875 64.796875 
L 19.671875 8.109375 
L 31.59375 8.109375 
Q 46.6875 8.109375 53.6875 14.9375 
Q 60.6875 21.78125 60.6875 36.53125 
Q 60.6875 51.171875 53.6875 57.984375 
Q 46.6875 64.796875 31.59375 64.796875 
z
M 9.8125 72.90625 
L 30.078125 72.90625 
Q 51.265625 72.90625 61.171875 64.09375 
Q 71.09375 55.28125 71.09375 36.53125 
Q 71.09375 17.671875 61.125 8.828125 
Q 51.171875 0 30.078125 0 
L 9.8125 0 
z
" id="DejaVuSans-44"/>
      <path d="M 34.28125 27.484375 
Q 23.390625 27.484375 19.1875 25 
Q 14.984375 22.515625 14.984375 16.5 
Q 14.984375 11.71875 18.140625 8.90625 
Q 21.296875 6.109375 26.703125 6.109375 
Q 34.1875 6.109375 38.703125 11.40625 
Q 43.21875 16.703125 43.21875 25.484375 
L 43.21875 27.484375 
z
M 52.203125 31.203125 
L 52.203125 0 
L 43.21875 0 
L 43.21875 8.296875 
Q 40.140625 3.328125 35.546875 0.953125 
Q 30.953125 -1.421875 24.3125 -1.421875 
Q 15.921875 -1.421875 10.953125 3.296875 
Q 6 8.015625 6 15.921875 
Q 6 25.140625 12.171875 29.828125 
Q 18.359375 34.515625 30.609375 34.515625 
L 43.21875 34.515625 
L 43.21875 35.40625 
Q 43.21875 41.609375 39.140625 45 
Q 35.0625 48.390625 27.6875 48.390625 
Q 23 48.390625 18.546875 47.265625 
Q 14.109375 46.140625 10.015625 43.890625 
L 10.015625 52.203125 
Q 14.9375 54.109375 19.578125 55.046875 
Q 24.21875 56 28.609375 56 
Q 40.484375 56 46.34375 49.84375 
Q 52.203125 43.703125 52.203125 31.203125 
z
" id="DejaVuSans-61"/>
      <path d="M 18.3125 70.21875 
L 18.3125 54.6875 
L 36.8125 54.6875 
L 36.8125 47.703125 
L 18.3125 47.703125 
L 18.3125 18.015625 
Q 18.3125 11.328125 20.140625 9.421875 
Q 21.96875 7.515625 27.59375 7.515625 
L 36.8125 7.515625 
L 36.8125 0 
L 27.59375 0 
Q 17.1875 0 13.234375 3.875 
Q 9.28125 7.765625 9.28125 18.015625 
L 9.28125 47.703125 
L 2.6875 47.703125 
L 2.6875 54.6875 
L 9.28125 54.6875 
L 9.28125 70.21875 
z
" id="DejaVuSans-74"/>
      <path d="M 56.203125 29.59375 
L 56.203125 25.203125 
L 14.890625 25.203125 
Q 15.484375 15.921875 20.484375 11.0625 
Q 25.484375 6.203125 34.421875 6.203125 
Q 39.59375 6.203125 44.453125 7.46875 
Q 49.3125 8.734375 54.109375 11.28125 
L 54.109375 2.78125 
Q 49.265625 0.734375 44.1875 -0.34375 
Q 39.109375 -1.421875 33.890625 -1.421875 
Q 20.796875 -1.421875 13.15625 6.1875 
Q 5.515625 13.8125 5.515625 26.8125 
Q 5.515625 40.234375 12.765625 48.109375 
Q 20.015625 56 32.328125 56 
Q 43.359375 56 49.78125 48.890625 
Q 56.203125 41.796875 56.203125 29.59375 
z
M 47.21875 32.234375 
Q 47.125 39.59375 43.09375 43.984375 
Q 39.0625 48.390625 32.421875 48.390625 
Q 24.90625 48.390625 20.390625 44.140625 
Q 15.875 39.890625 15.1875 32.171875 
z
" id="DejaVuSans-65"/>
     </defs>
     <g style="fill:#555555;" transform="translate(221.819063 317.704627)scale(0.12 -0.12)">
      <use xlink:href="#DejaVuSans-44"/>
      <use x="77.001953" xlink:href="#DejaVuSans-61"/>
      <use x="138.28125" xlink:href="#DejaVuSans-74"/>
      <use x="177.490234" xlink:href="#DejaVuSans-65"/>
     </g>
    </g>
   </g>
   <g id="matplotlib.axis_2">
    <g id="ytick_1">
     <g id="line2d_15">
      <path clip-path="url(#pf1ffba926a)" d="M 57.6 252.019158 
L 414.72 252.019158 
" style="fill:none;stroke:#ffffff;stroke-linecap:square;stroke-width:0.8;"/>
     </g>
     <g id="line2d_16">
      <defs>
       <path d="M 0 0 
L -3.5 0 
" id="ma0c9edd7f2" style="stroke:#555555;stroke-width:0.8;"/>
      </defs>
      <g>
       <use style="fill:#555555;stroke:#555555;stroke-width:0.8;" x="57.6" xlink:href="#ma0c9edd7f2" y="252.019158"/>
      </g>
     </g>
     <g id="text_9">
      <!-- 20 -->
      <g style="fill:#555555;" transform="translate(37.875 255.818377)scale(0.1 -0.1)">
       <use xlink:href="#DejaVuSans-32"/>
       <use x="63.623047" xlink:href="#DejaVuSans-30"/>
      </g>
     </g>
    </g>
    <g id="ytick_2">
     <g id="line2d_17">
      <path clip-path="url(#pf1ffba926a)" d="M 57.6 222.259634 
L 414.72 222.259634 
" style="fill:none;stroke:#ffffff;stroke-linecap:square;stroke-width:0.8;"/>
     </g>
     <g id="line2d_18">
      <g>
       <use style="fill:#555555;stroke:#555555;stroke-width:0.8;" x="57.6" xlink:href="#ma0c9edd7f2" y="222.259634"/>
      </g>
     </g>
     <g id="text_10">
      <!-- 30 -->
      <g style="fill:#555555;" transform="translate(37.875 226.058853)scale(0.1 -0.1)">
       <use xlink:href="#DejaVuSans-33"/>
       <use x="63.623047" xlink:href="#DejaVuSans-30"/>
      </g>
     </g>
    </g>
    <g id="ytick_3">
     <g id="line2d_19">
      <path clip-path="url(#pf1ffba926a)" d="M 57.6 192.50011 
L 414.72 192.50011 
" style="fill:none;stroke:#ffffff;stroke-linecap:square;stroke-width:0.8;"/>
     </g>
     <g id="line2d_20">
      <g>
       <use style="fill:#555555;stroke:#555555;stroke-width:0.8;" x="57.6" xlink:href="#ma0c9edd7f2" y="192.50011"/>
      </g>
     </g>
     <g id="text_11">
      <!-- 40 -->
      <defs>
       <path d="M 37.796875 64.3125 
L 12.890625 25.390625 
L 37.796875 25.390625 
z
M 35.203125 72.90625 
L 47.609375 72.90625 
L 47.609375 25.390625 
L 58.015625 25.390625 
L 58.015625 17.1875 
L 47.609375 17.1875 
L 47.609375 0 
L 37.796875 0 
L 37.796875 17.1875 
L 4.890625 17.1875 
L 4.890625 26.703125 
z
" id="DejaVuSans-34"/>
      </defs>
      <g style="fill:#555555;" transform="translate(37.875 196.299329)scale(0.1 -0.1)">
       <use xlink:href="#DejaVuSans-34"/>
       <use x="63.623047" xlink:href="#DejaVuSans-30"/>
      </g>
     </g>
    </g>
    <g id="ytick_4">
     <g id="line2d_21">
      <path clip-path="url(#pf1ffba926a)" d="M 57.6 162.740586 
L 414.72 162.740586 
" style="fill:none;stroke:#ffffff;stroke-linecap:square;stroke-width:0.8;"/>
     </g>
     <g id="line2d_22">
      <g>
       <use style="fill:#555555;stroke:#555555;stroke-width:0.8;" x="57.6" xlink:href="#ma0c9edd7f2" y="162.740586"/>
      </g>
     </g>
     <g id="text_12">
      <!-- 50 -->
      <g style="fill:#555555;" transform="translate(37.875 166.539805)scale(0.1 -0.1)">
       <use xlink:href="#DejaVuSans-35"/>
       <use x="63.623047" xlink:href="#DejaVuSans-30"/>
      </g>
     </g>
    </g>
    <g id="ytick_5">
     <g id="line2d_23">
      <path clip-path="url(#pf1ffba926a)" d="M 57.6 132.981062 
L 414.72 132.981062 
" style="fill:none;stroke:#ffffff;stroke-linecap:square;stroke-width:0.8;"/>
     </g>
     <g id="line2d_24">
      <g>
       <use style="fill:#555555;stroke:#555555;stroke-width:0.8;" x="57.6" xlink:href="#ma0c9edd7f2" y="132.981062"/>
      </g>
     </g>
     <g id="text_13">
      <!-- 60 -->
      <defs>
       <path d="M 33.015625 40.375 
Q 26.375 40.375 22.484375 35.828125 
Q 18.609375 31.296875 18.609375 23.390625 
Q 18.609375 15.53125 22.484375 10.953125 
Q 26.375 6.390625 33.015625 6.390625 
Q 39.65625 6.390625 43.53125 10.953125 
Q 47.40625 15.53125 47.40625 23.390625 
Q 47.40625 31.296875 43.53125 35.828125 
Q 39.65625 40.375 33.015625 40.375 
z
M 52.59375 71.296875 
L 52.59375 62.3125 
Q 48.875 64.0625 45.09375 64.984375 
Q 41.3125 65.921875 37.59375 65.921875 
Q 27.828125 65.921875 22.671875 59.328125 
Q 17.53125 52.734375 16.796875 39.40625 
Q 19.671875 43.65625 24.015625 45.921875 
Q 28.375 48.1875 33.59375 48.1875 
Q 44.578125 48.1875 50.953125 41.515625 
Q 57.328125 34.859375 57.328125 23.390625 
Q 57.328125 12.15625 50.6875 5.359375 
Q 44.046875 -1.421875 33.015625 -1.421875 
Q 20.359375 -1.421875 13.671875 8.265625 
Q 6.984375 17.96875 6.984375 36.375 
Q 6.984375 53.65625 15.1875 63.9375 
Q 23.390625 74.21875 37.203125 74.21875 
Q 40.921875 74.21875 44.703125 73.484375 
Q 48.484375 72.75 52.59375 71.296875 
z
" id="DejaVuSans-36"/>
      </defs>
      <g style="fill:#555555;" transform="translate(37.875 136.78028)scale(0.1 -0.1)">
       <use xlink:href="#DejaVuSans-36"/>
       <use x="63.623047" xlink:href="#DejaVuSans-30"/>
      </g>
     </g>
    </g>
    <g id="ytick_6">
     <g id="line2d_25">
      <path clip-path="url(#pf1ffba926a)" d="M 57.6 103.221537 
L 414.72 103.221537 
" style="fill:none;stroke:#ffffff;stroke-linecap:square;stroke-width:0.8;"/>
     </g>
     <g id="line2d_26">
      <g>
       <use style="fill:#555555;stroke:#555555;stroke-width:0.8;" x="57.6" xlink:href="#ma0c9edd7f2" y="103.221537"/>
      </g>
     </g>
     <g id="text_14">
      <!-- 70 -->
      <g style="fill:#555555;" transform="translate(37.875 107.020756)scale(0.1 -0.1)">
       <use xlink:href="#DejaVuSans-37"/>
       <use x="63.623047" xlink:href="#DejaVuSans-30"/>
      </g>
     </g>
    </g>
    <g id="ytick_7">
     <g id="line2d_27">
      <path clip-path="url(#pf1ffba926a)" d="M 57.6 73.462013 
L 414.72 73.462013 
" style="fill:none;stroke:#ffffff;stroke-linecap:square;stroke-width:0.8;"/>
     </g>
     <g id="line2d_28">
      <g>
       <use style="fill:#555555;stroke:#555555;stroke-width:0.8;" x="57.6" xlink:href="#ma0c9edd7f2" y="73.462013"/>
      </g>
     </g>
     <g id="text_15">
      <!-- 80 -->
      <defs>
       <path d="M 31.78125 34.625 
Q 24.75 34.625 20.71875 30.859375 
Q 16.703125 27.09375 16.703125 20.515625 
Q 16.703125 13.921875 20.71875 10.15625 
Q 24.75 6.390625 31.78125 6.390625 
Q 38.8125 6.390625 42.859375 10.171875 
Q 46.921875 13.96875 46.921875 20.515625 
Q 46.921875 27.09375 42.890625 30.859375 
Q 38.875 34.625 31.78125 34.625 
z
M 21.921875 38.8125 
Q 15.578125 40.375 12.03125 44.71875 
Q 8.5 49.078125 8.5 55.328125 
Q 8.5 64.0625 14.71875 69.140625 
Q 20.953125 74.21875 31.78125 74.21875 
Q 42.671875 74.21875 48.875 69.140625 
Q 55.078125 64.0625 55.078125 55.328125 
Q 55.078125 49.078125 51.53125 44.71875 
Q 48 40.375 41.703125 38.8125 
Q 48.828125 37.15625 52.796875 32.3125 
Q 56.78125 27.484375 56.78125 20.515625 
Q 56.78125 9.90625 50.3125 4.234375 
Q 43.84375 -1.421875 31.78125 -1.421875 
Q 19.734375 -1.421875 13.25 4.234375 
Q 6.78125 9.90625 6.78125 20.515625 
Q 6.78125 27.484375 10.78125 32.3125 
Q 14.796875 37.15625 21.921875 38.8125 
z
M 18.3125 54.390625 
Q 18.3125 48.734375 21.84375 45.5625 
Q 25.390625 42.390625 31.78125 42.390625 
Q 38.140625 42.390625 41.71875 45.5625 
Q 45.3125 48.734375 45.3125 54.390625 
Q 45.3125 60.0625 41.71875 63.234375 
Q 38.140625 66.40625 31.78125 66.40625 
Q 25.390625 66.40625 21.84375 63.234375 
Q 18.3125 60.0625 18.3125 54.390625 
z
" id="DejaVuSans-38"/>
      </defs>
      <g style="fill:#555555;" transform="translate(37.875 77.261232)scale(0.1 -0.1)">
       <use xlink:href="#DejaVuSans-38"/>
       <use x="63.623047" xlink:href="#DejaVuSans-30"/>
      </g>
     </g>
    </g>
    <g id="ytick_8">
     <g id="line2d_29">
      <path clip-path="url(#pf1ffba926a)" d="M 57.6 43.702489 
L 414.72 43.702489 
" style="fill:none;stroke:#ffffff;stroke-linecap:square;stroke-width:0.8;"/>
     </g>
     <g id="line2d_30">
      <g>
       <use style="fill:#555555;stroke:#555555;stroke-width:0.8;" x="57.6" xlink:href="#ma0c9edd7f2" y="43.702489"/>
      </g>
     </g>
     <g id="text_16">
      <!-- 90 -->
      <g style="fill:#555555;" transform="translate(37.875 47.501708)scale(0.1 -0.1)">
       <use xlink:href="#DejaVuSans-39"/>
       <use x="63.623047" xlink:href="#DejaVuSans-30"/>
      </g>
     </g>
    </g>
   </g>
   <g id="line2d_31">
    <path clip-path="url(#pf1ffba926a)" d="M 57.6 178.73633 
L 57.66114 182.270274 
L 57.72228 158.276657 
L 57.783421 160.508621 
L 57.966841 165.716538 
L 58.211402 150.836776 
L 58.455963 152.324752 
L 58.578243 158.276657 
L 58.639384 160.508621 
L 58.822804 161.066613 
L 58.883945 162.368592 
L 59.067365 152.510749 
L 59.250786 150.271348 
L 59.373066 143.426649 
L 59.434206 147.890577 
L 59.495347 147.860824 
L 59.678767 149.319046 
L 59.739908 150.807023 
L 59.923328 157.711229 
L 60.167889 155.181664 
L 60.35131 161.550199 
L 60.595871 156.818434 
L 60.779291 171.519648 
L 60.962712 168.692491 
L 61.023852 165.865333 
L 61.207273 175.834782 
L 61.390693 174.941985 
L 61.574114 161.996598 
L 61.879815 172.412431 
L 62.002096 177.917937 
L 62.063236 176.846606 
L 62.246656 179.405913 
L 62.307797 176.251413 
L 62.430077 192.351315 
L 62.491217 191.607327 
L 62.796918 184.465035 
L 62.858059 184.167446 
L 63.102619 179.108324 
L 63.16376 180.239189 
L 63.28604 188.631375 
L 63.34718 187.738592 
L 63.530601 192.797699 
L 63.714022 179.852312 
L 63.958582 176.519248 
L 64.019723 177.471553 
L 64.142003 165.716538 
L 64.203143 166.341485 
L 64.508844 170.150713 
L 64.569985 169.436479 
L 64.631125 164.317838 
L 64.814545 162.621545 
L 64.875686 167.234268 
L 64.936826 164.97255 
L 65.059106 167.948503 
L 65.242527 165.567744 
L 65.303667 166.460526 
L 65.364807 170.924455 
L 65.425948 168.692491 
L 65.670508 173.454009 
L 65.915069 166.311732 
L 66.09849 167.264033 
L 66.15963 163.186985 
L 66.22077 163.335779 
L 66.281911 165.865333 
L 66.343051 164.97255 
L 66.587612 165.716538 
L 66.648752 164.734468 
L 66.709892 167.05572 
L 66.771032 164.97255 
L 66.954453 166.460526 
L 67.015593 164.228562 
L 67.199014 177.173949 
L 67.443575 181.786687 
L 67.565855 181.637878 
L 67.871556 177.917937 
L 67.932696 178.959529 
L 68.054977 172.85883 
L 68.238398 174.644395 
L 68.299538 180.447506 
L 68.360678 180.001107 
L 68.482958 178.364336 
L 68.666379 178.215541 
L 68.727519 175.388384 
L 68.8498 175.239589 
L 69.216641 186.667246 
L 69.338921 185.685176 
L 69.522342 183.869842 
L 69.644622 189.524158 
L 69.705763 181.102206 
L 69.766903 182.233071 
L 69.950324 182.381866 
L 70.011464 184.286487 
L 70.072604 183.125854 
L 70.133744 184.465035 
L 70.194884 184.167446 
L 70.378305 181.786687 
L 70.439445 182.084277 
L 70.500586 182.977059 
L 70.561726 181.935482 
L 70.622866 182.054523 
L 70.806287 182.619948 
L 70.989707 186.399411 
L 71.050847 186.845794 
L 71.234268 187.113633 
L 71.417689 185.953012 
L 71.78453 190.41694 
L 71.84567 189.791993 
L 71.90681 191.607327 
L 72.151371 189.821747 
L 72.334792 195.148705 
L 72.579353 193.988086 
L 72.640493 192.50011 
L 72.762773 204.40392 
L 72.946194 203.511137 
L 73.374176 207.379872 
L 73.435316 207.082283 
L 73.496456 207.379872 
L 73.618737 224.491599 
L 73.924438 211.159332 
L 73.985578 214.819753 
L 74.046718 211.546211 
L 74.413559 206.933473 
L 74.71926 215.712536 
L 74.841541 211.695006 
L 74.902681 213.361531 
L 75.086102 216.01014 
L 75.208382 205.891896 
L 75.269522 208.42145 
L 75.330663 209.909426 
L 75.514083 210.712936 
L 75.636364 204.552714 
L 75.697504 203.957521 
L 75.758644 199.99951 
L 75.942065 201.130378 
L 76.003205 206.487089 
L 76.064345 204.374166 
L 76.431186 202.588586 
L 76.614607 196.071256 
L 76.798028 196.190297 
L 76.920308 192.797699 
L 77.042589 193.839292 
L 77.226009 193.690497 
L 77.287149 192.946509 
L 77.47057 196.666449 
L 77.715131 193.541687 
L 77.776271 194.01784 
L 77.837411 200.23758 
L 77.898552 197.529467 
L 78.081972 201.725557 
L 78.143112 201.427967 
L 78.326533 191.756122 
L 78.509954 193.184579 
L 78.754515 202.618354 
L 78.937935 204.10633 
L 79.060216 200.832774 
L 79.365917 205.118154 
L 79.610478 202.767149 
L 79.793898 203.064738 
L 79.977319 202.915943 
L 80.038459 198.392496 
L 80.22188 195.327268 
L 80.28302 195.476062 
L 80.34416 195.922461 
L 80.4053 197.261628 
L 80.466441 194.732074 
L 80.894422 203.957521 
L 81.138983 204.40392 
L 81.200123 206.338295 
L 81.261263 203.659932 
L 81.322404 206.040691 
L 81.505824 206.933473 
L 81.628105 217.736187 
L 81.689245 213.004419 
L 81.750385 210.20703 
L 81.994946 220.563341 
L 82.056086 224.432079 
L 82.117227 222.259634 
L 82.422928 217.49811 
L 82.484068 217.795706 
L 82.545208 222.259634 
L 82.606348 221.634687 
L 82.850909 224.342804 
L 82.912049 222.854828 
L 83.21775 228.806733 
L 83.340031 224.670153 
L 83.401171 225.205827 
L 83.462311 223.450015 
L 83.645732 221.515646 
L 83.829153 209.016643 
L 84.195994 204.40392 
L 84.257134 207.350119 
L 84.318274 207.022761 
L 84.501695 204.374166 
L 84.746256 207.975066 
L 84.990817 206.784679 
L 85.051957 206.784679 
L 85.113097 204.850319 
L 85.357658 205.445497 
L 85.602219 208.510737 
L 85.785639 208.748807 
L 85.90792 206.814444 
L 85.96906 207.975066 
L 86.0302 211.248607 
L 86.213621 205.891896 
L 86.274761 207.528667 
L 86.458182 199.939991 
L 86.641602 200.62446 
L 86.825023 206.189485 
L 86.886163 205.147908 
L 87.069584 206.189485 
L 87.130724 208.272655 
L 87.314145 203.511137 
L 87.497565 204.552714 
L 87.558706 207.558432 
L 87.619846 202.915943 
L 87.680986 203.659932 
L 87.925547 206.338295 
L 88.047827 200.713733 
L 88.108968 201.279173 
L 88.170108 198.452015 
L 88.353529 199.047208 
L 88.414669 198.690097 
L 88.475809 199.880472 
L 88.536949 199.761431 
L 88.598089 198.452015 
L 88.84265 199.196003 
L 89.026071 204.374166 
L 89.209492 204.40392 
L 89.331772 208.42145 
L 89.392912 207.766749 
L 89.454052 214.075765 
L 89.698613 210.415344 
L 89.882034 215.266152 
L 90.065455 211.546211 
L 90.126595 205.951415 
L 90.187735 208.272655 
L 90.248875 208.570259 
L 90.310015 213.92697 
L 90.493436 215.563741 
L 90.554576 212.438994 
L 90.615716 220.02767 
L 90.676857 216.158935 
L 90.921418 211.575965 
L 91.043698 220.146711 
L 91.349399 214.551917 
L 91.47168 217.49811 
L 91.53282 222.259634 
L 91.59396 220.02767 
L 91.838521 225.533182 
L 91.899661 225.205827 
L 92.021941 232.526673 
L 92.205362 234.282485 
L 92.327643 254.965351 
L 92.388783 240.859337 
L 92.449923 242.496108 
L 92.633344 240.859337 
L 92.816764 237.258437 
L 93.061325 243.448418 
L 93.122465 241.603325 
L 93.305886 235.353825 
L 93.489307 234.758637 
L 93.611587 238.924968 
L 93.672727 236.782279 
L 93.733867 237.764343 
L 93.917288 237.198915 
L 93.978428 231.157732 
L 94.039569 232.675468 
L 94.161849 233.270661 
L 94.34527 234.907432 
L 94.40641 231.187492 
L 94.46755 232.973063 
L 94.52869 234.461039 
L 94.589831 233.419456 
L 94.834391 235.205027 
L 94.956672 238.240502 
L 95.017812 237.020355 
L 95.201233 242.496108 
L 95.323513 240.085589 
L 95.445794 246.037494 
L 95.629214 247.257635 
L 95.690354 245.47206 
L 95.751495 254.816557 
L 95.812635 252.019158 
L 95.873775 251.662041 
L 96.240616 255.322469 
L 96.301757 254.191604 
L 96.485177 256.92948 
L 96.546317 254.548718 
L 96.607458 254.578481 
L 96.729738 259.072169 
L 96.913159 262.286197 
L 96.974299 260.203028 
L 97.096579 265.529982 
L 97.15772 262.613546 
L 97.34114 260.917256 
L 97.524561 253.209539 
L 97.585701 255.649817 
L 97.769122 255.947416 
L 97.952542 251.30493 
L 98.013683 253.447616 
L 98.197103 249.043206 
L 98.258243 249.638399 
L 98.319384 250.531182 
L 98.625085 245.02567 
L 98.686225 246.602925 
L 98.747365 243.240096 
L 98.869646 250.233587 
L 99.053066 251.364452 
L 99.114206 251.096616 
L 99.175347 250.531182 
L 99.297627 246.27557 
L 99.481048 245.353025 
L 99.542188 247.079077 
L 99.909029 237.139396 
L 99.970169 237.436992 
L 100.03131 238.478578 
L 100.337011 234.193203 
L 100.581572 243.210342 
L 100.764992 240.531979 
L 100.826133 242.287794 
L 100.948413 239.847513 
L 101.009553 240.264143 
L 101.192974 240.710542 
L 101.254114 237.73459 
L 101.315254 238.776167 
L 101.437535 240.710542 
L 101.682096 238.329777 
L 101.804376 239.520155 
L 101.865516 238.776167 
L 102.110077 240.145108 
L 102.293498 235.65142 
L 102.476918 234.163444 
L 102.538059 228.271058 
L 102.599199 230.443503 
L 102.721479 231.633884 
L 103.02718 229.550721 
L 103.149461 233.121861 
L 103.394022 232.615949 
L 103.577442 237.585789 
L 103.883143 242.496108 
L 103.944284 241.603325 
L 104.005424 243.835289 
L 104.249985 241.335489 
L 104.616826 246.067254 
L 104.677966 244.728072 
L 104.861387 248.150423 
L 105.228228 244.281682 
L 105.289368 244.311442 
L 105.472789 243.418659 
L 105.533929 246.067254 
L 105.595069 245.02567 
L 105.65621 244.876873 
L 105.90077 242.644908 
L 106.145331 246.989796 
L 106.328752 246.454124 
L 106.389892 247.406435 
L 106.451032 250.531182 
L 106.512173 248.299218 
L 106.573313 246.751723 
L 106.756733 248.299218 
L 106.817874 243.448418 
L 106.879014 243.537694 
L 106.940154 243.746008 
L 107.001294 240.442707 
L 107.184715 240.859337 
L 107.245855 241.395008 
L 107.429276 239.758232 
L 107.612696 240.859337 
L 108.040678 232.794509 
L 108.224099 234.966951 
L 108.285239 234.163444 
L 108.468659 234.222963 
L 108.59094 229.580474 
L 108.65208 232.675468 
L 108.957781 230.235187 
L 109.018921 225.979575 
L 109.080062 226.039094 
L 109.141202 225.979575 
L 109.324622 228.211539 
L 109.508043 224.194003 
L 109.569183 224.789194 
L 109.936025 220.920453 
L 109.997165 222.021558 
L 110.180586 222.021558 
L 110.241726 219.462236 
L 110.302866 220.087189 
L 110.364006 219.878875 
L 110.425146 219.164641 
L 110.608567 218.539694 
L 110.730847 221.962039 
L 110.853128 220.622863 
L 111.097689 220.176465 
L 111.219969 214.075765 
L 111.281109 214.551917 
L 111.52567 210.593907 
L 111.58681 211.397402 
L 111.709091 205.088389 
L 111.953652 210.355825 
L 112.014792 209.463042 
L 112.075932 207.409626 
L 112.137072 207.826271 
L 112.320493 207.528667 
L 112.381633 204.433673 
L 112.442773 205.594307 
L 112.565054 207.826271 
L 112.748475 208.719054 
L 112.809615 211.099813 
L 112.870755 209.463042 
L 112.931895 210.355825 
L 112.993035 209.165438 
L 113.176456 209.611836 
L 113.237596 210.831977 
L 113.298737 209.64159 
L 113.359877 210.951018 
L 113.604438 208.927367 
L 113.726718 205.951415 
L 113.787858 206.040691 
L 113.848998 206.754925 
L 114.093559 199.82095 
L 114.1547 197.678273 
L 114.27698 206.695403 
L 114.460401 207.082283 
L 114.521541 208.867848 
L 114.643821 206.338295 
L 114.704961 208.12386 
L 114.949522 205.653814 
L 115.010663 205.891896 
L 115.071803 205.445497 
L 115.438644 213.331777 
L 115.499784 214.046011 
L 115.560924 212.677064 
L 115.744345 213.361531 
L 115.866626 210.951018 
L 115.927766 212.052117 
L 115.988906 210.355825 
L 116.233467 209.909426 
L 116.355747 207.231077 
L 116.416888 207.885778 
L 116.722589 212.885378 
L 116.783729 212.558035 
L 116.844869 210.474866 
L 117.15057 208.272655 
L 117.21171 207.766749 
L 117.272851 208.897602 
L 117.456271 209.344001 
L 117.517411 208.867848 
L 117.700832 211.784282 
L 118.006533 208.570259 
L 118.128814 205.891896 
L 118.373374 207.409626 
L 118.434515 205.891896 
L 118.556795 208.808329 
L 118.740216 209.165438 
L 118.923636 206.933473 
L 118.984777 205.356224 
L 119.168197 206.784679 
L 119.290478 203.808726 
L 119.351618 204.255125 
L 119.412758 205.296702 
L 119.596179 205.713336 
L 119.718459 201.606527 
L 119.779599 202.767149 
L 119.84074 202.558832 
L 120.02416 203.957521 
L 120.0853 202.618354 
L 120.207581 208.272655 
L 120.268721 207.379872 
L 120.452142 206.635884 
L 120.513282 207.379872 
L 120.635562 203.957521 
L 120.696703 204.701509 
L 121.002404 202.737383 
L 121.063544 202.796902 
L 121.369245 205.743101 
L 121.430385 204.10633 
L 121.491525 204.969348 
L 121.736086 206.784679 
L 121.797227 206.129978 
L 121.919507 208.153614 
L 122.286348 206.487089 
L 122.408629 206.487089 
L 122.71433 204.969348 
L 122.77547 205.445497 
L 122.83661 206.873966 
L 123.020031 208.183379 
L 123.081171 206.010937 
L 123.142311 208.094107 
L 123.203451 207.915544 
L 123.264592 206.90372 
L 123.448012 205.891896 
L 123.509153 206.189485 
L 123.631433 205.177661 
L 123.875994 205.088389 
L 123.998274 203.868248 
L 124.120555 203.600413 
L 124.303975 203.600413 
L 124.426256 202.023161 
L 124.548536 202.737383 
L 124.731957 202.439791 
L 124.976518 197.261628 
L 125.159938 196.964039 
L 125.343359 192.946509 
L 125.404499 195.476062 
L 125.64906 194.285676 
L 125.7102 195.208227 
L 125.771341 192.381069 
L 125.832481 192.67867 
L 126.015901 194.136881 
L 126.077042 192.053711 
L 126.138182 192.50011 
L 126.260462 195.327268 
L 126.627304 195.148705 
L 126.688444 195.476062 
L 126.871864 192.946509 
L 126.933005 194.196403 
L 126.994145 193.750004 
L 127.116425 191.101409 
L 127.360986 191.250216 
L 127.544407 190.059829 
L 127.727827 190.774052 
L 127.788968 192.202521 
L 127.850108 191.309723 
L 127.911248 191.458533 
L 128.40037 184.76264 
L 128.58379 183.453212 
L 128.644931 183.750813 
L 128.828351 188.48258 
L 129.011772 188.690894 
L 129.072912 189.077759 
L 129.256333 186.488686 
L 129.623174 189.970556 
L 129.684314 188.631375 
L 129.867735 188.125457 
L 129.990015 186.280369 
L 130.051156 186.697 
L 130.112296 185.060229 
L 130.295716 188.690894 
L 130.356857 187.738592 
L 130.417997 188.036181 
L 130.479137 187.292193 
L 130.723698 189.048005 
L 130.784838 187.619551 
L 130.968259 195.416543 
L 131.21282 194.226168 
L 131.3351 199.344798 
L 131.39624 197.261628 
L 131.579661 197.529467 
L 131.640801 196.785479 
L 131.701941 196.815244 
L 131.824222 199.047208 
L 132.007643 198.422261 
L 132.068783 198.660332 
L 132.129923 197.529467 
L 132.557904 206.487089 
L 132.680185 205.207427 
L 132.863606 207.201312 
L 132.985886 204.40392 
L 133.047026 205.147908 
L 133.108166 204.761031 
L 133.291587 203.600413 
L 133.352727 204.136084 
L 133.475008 201.457721 
L 133.536148 201.814844 
L 133.780709 201.90412 
L 133.964129 200.535185 
L 134.14755 199.850715 
L 134.20869 198.30322 
L 134.269831 198.481768 
L 134.330971 199.315044 
L 134.575532 199.255522 
L 134.758952 200.594704 
L 134.820092 200.207827 
L 135.064653 201.427967 
L 135.125794 201.130378 
L 135.248074 199.106727 
L 135.431495 198.184179 
L 135.492635 198.600809 
L 135.614915 196.725956 
L 135.676055 197.916343 
L 135.920616 198.452015 
L 136.042897 201.666049 
L 136.104037 201.308926 
L 136.287458 201.427967 
L 136.532018 203.659932 
L 136.776579 204.612236 
L 136.83772 200.683979 
L 136.89886 202.826668 
L 136.96 202.618354 
L 137.143421 203.094504 
L 137.326841 200.683979 
L 137.387982 201.427967 
L 137.632542 200.088786 
L 137.815963 203.957521 
L 137.999384 204.22536 
L 138.060524 203.808726 
L 138.182804 201.725557 
L 138.243945 201.963639 
L 138.427365 201.576762 
L 138.610786 197.49971 
L 138.671926 198.54129 
L 138.916487 196.220051 
L 138.977627 196.666449 
L 139.099908 193.839292 
L 139.283328 193.48218 
L 139.344468 195.148705 
L 139.405609 193.928567 
L 139.466749 194.136881 
L 139.527889 193.244098 
L 139.77245 192.946509 
L 139.89473 193.958333 
L 139.955871 193.630975 
L 140.139291 193.422658 
L 140.200431 194.58328 
L 140.261572 194.374963 
L 140.322712 194.553514 
L 140.383852 193.452415 
L 140.567273 193.511934 
L 140.689553 193.988086 
L 140.750693 193.244098 
L 140.811834 194.077362 
L 140.995254 193.630975 
L 141.056394 195.059432 
L 141.117535 194.345198 
L 141.423236 191.51804 
L 141.545516 194.553514 
L 141.606656 193.928567 
L 141.667797 193.869045 
L 141.851217 193.988086 
L 141.912357 195.327268 
L 141.973498 193.690497 
L 142.034638 194.761828 
L 142.095778 196.874763 
L 142.279199 196.815244 
L 142.340339 196.220051 
L 142.401479 202.32075 
L 142.462619 201.189885 
L 142.52376 199.047208 
L 142.70718 200.029267 
L 142.76832 201.368448 
L 142.829461 200.38639 
L 142.951741 197.202121 
L 143.135162 196.160531 
L 143.196302 196.964039 
L 143.379723 193.571456 
L 143.685424 194.940391 
L 143.746564 194.880869 
L 143.807704 195.684379 
L 143.991125 195.476062 
L 144.235686 198.749604 
L 144.419106 200.178073 
L 144.541387 199.106727 
L 144.663667 199.344798 
L 144.847088 199.374563 
L 144.908228 200.892296 
L 145.091649 197.32115 
L 145.275069 198.600809 
L 145.33621 197.856821 
L 145.45849 200.683979 
L 145.51963 199.463839 
L 145.764191 197.49971 
L 145.886471 196.071256 
L 145.947612 197.856821 
L 146.314453 195.118951 
L 146.559014 194.880869 
L 146.620154 195.565338 
L 146.681294 195.446309 
L 146.742435 194.99991 
L 146.803575 195.23798 
L 146.986995 194.047605 
L 147.109276 196.666449 
L 147.170416 196.160531 
L 147.231556 196.398611 
L 147.659538 199.106727 
L 147.904099 199.315044 
L 147.965239 198.422261 
L 148.026379 199.047208 
L 148.087519 200.683979 
L 148.27094 201.844598 
L 148.33208 201.457721 
L 148.454361 202.558832 
L 148.760062 199.939991 
L 148.882342 200.029267 
L 148.943482 200.118551 
L 149.188043 198.690097 
L 149.371464 200.535185 
L 149.616025 199.434085 
L 149.799445 202.469545 
L 150.044006 202.88619 
L 150.105146 203.868248 
L 150.227427 202.380272 
L 150.838829 199.910237 
L 151.08339 203.630178 
L 151.26681 204.076562 
L 151.327951 202.88619 
L 151.389091 203.659932 
L 151.511371 203.927767 
L 151.694792 204.761031 
L 151.755932 204.40392 
L 151.817072 207.201312 
L 151.878213 207.082283 
L 152.122773 207.588189 
L 152.245054 208.808329 
L 152.306194 207.677461 
L 152.367334 208.004819 
L 152.550755 211.337895 
L 152.795316 207.796502 
L 153.039877 208.510737 
L 153.101017 207.231077 
L 153.223297 209.611836 
L 153.406718 209.611836 
L 153.528998 205.505019 
L 153.590139 207.320353 
L 153.651279 208.064341 
L 154.01812 206.487089 
L 154.07926 207.290597 
L 154.323821 205.653814 
L 154.384961 205.862142 
L 154.446102 203.957521 
L 154.507242 204.40392 
L 155.179784 208.838095 
L 155.363205 203.838492 
L 155.668906 205.028867 
L 155.730046 204.284879 
L 155.791186 204.552714 
L 156.035747 204.909826 
L 156.158028 206.635884 
L 156.219168 205.534785 
L 156.402589 205.981172 
L 156.524869 205.743101 
L 156.586009 205.832377 
L 156.647149 205.594307 
L 156.83057 206.516843 
L 157.075131 203.838492 
L 157.258552 204.701509 
L 157.441972 203.154026 
L 157.503112 204.701509 
L 157.686533 205.653814 
L 157.808814 204.463439 
L 157.931094 206.72516 
L 158.236795 207.379872 
L 158.297935 208.570259 
L 158.359076 208.540491 
L 158.603636 207.498913 
L 158.787057 205.326468 
L 158.970478 205.38599 
L 159.092758 206.72516 
L 159.153898 205.296702 
L 159.215039 206.189485 
L 159.459599 205.475266 
L 159.58188 206.308526 
L 159.64302 206.040691 
L 159.826441 206.427567 
L 159.948721 205.713336 
L 160.071002 206.338295 
L 160.254422 206.457324 
L 160.498983 208.451218 
L 160.682404 209.552317 
L 160.743544 208.391696 
L 160.804684 208.42145 
L 160.865824 208.986889 
L 160.926965 207.975066 
L 161.171525 208.838095 
L 161.538367 212.052117 
L 161.599507 211.189088 
L 161.660647 211.575965 
L 161.721787 211.099813 
L 161.782928 209.522561 
L 162.027488 209.611836 
L 162.149769 207.558432 
L 162.210909 208.480972 
L 162.39433 208.004819 
L 162.51661 209.165438 
L 162.638891 209.671355 
L 162.822311 207.736983 
L 163.005732 210.653414 
L 163.066872 209.701112 
L 163.250293 209.611836 
L 163.433713 210.802223 
L 163.494854 209.671355 
L 163.678274 209.790397 
L 163.739414 209.998713 
L 163.861695 211.814047 
L 163.922835 210.712936 
L 164.106256 210.355825 
L 164.289676 213.391296 
L 164.350817 210.415344 
L 164.534237 209.730878 
L 164.595378 210.415344 
L 164.656518 209.909426 
L 164.717658 207.70723 
L 164.778798 208.064341 
L 165.084499 205.266949 
L 165.20678 203.749207 
L 165.3902 202.915943 
L 165.573621 200.654226 
L 165.634761 201.130378 
L 165.818182 200.059032 
L 165.879322 200.118551 
L 165.940462 200.38639 
L 166.062743 197.946109 
L 166.429584 199.344798 
L 166.490724 198.452015 
L 166.674145 198.452015 
L 166.735285 199.434085 
L 166.918706 195.535581 
L 167.102126 195.476062 
L 167.163267 195.892693 
L 167.224407 195.416543 
L 167.346687 197.291396 
L 167.591248 195.029664 
L 167.713529 197.053314 
L 167.774669 196.487886 
L 168.20265 193.303617 
L 168.508351 193.511934 
L 168.630632 192.142999 
L 168.875193 191.309723 
L 169.058613 193.363139 
L 169.303174 193.006016 
L 169.364314 193.154823 
L 169.425455 193.660728 
L 169.486595 192.738192 
L 169.670015 192.857221 
L 169.792296 190.327665 
L 169.914576 193.154823 
L 170.159137 194.047605 
L 170.342558 196.04149 
L 170.525978 198.035384 
L 170.587119 197.648508 
L 170.648259 197.975862 
L 170.770539 194.732074 
L 170.95396 193.928567 
L 171.0151 192.410834 
L 171.07624 192.857221 
L 171.137381 192.857221 
L 171.198521 194.136881 
L 171.381941 194.285676 
L 171.443082 194.880869 
L 171.504222 194.642799 
L 171.626502 193.630975 
L 171.809923 193.184579 
L 171.871063 193.511934 
L 172.054484 190.535981 
L 172.299045 190.625257 
L 172.421325 188.750416 
L 172.482465 189.702718 
L 172.727026 187.768346 
L 172.788166 189.048005 
L 172.849307 187.649305 
L 172.910447 188.036181 
L 173.093867 188.0957 
L 173.155008 189.464639 
L 173.277288 188.036181 
L 173.338428 189.345597 
L 173.521849 188.184976 
L 173.644129 189.048005 
L 173.70527 188.274264 
L 173.76641 188.48258 
L 174.010971 188.72065 
L 174.072111 188.95873 
L 174.133251 186.399411 
L 174.194391 186.577959 
L 174.377812 186.964836 
L 174.438952 186.756522 
L 174.561233 187.91714 
L 174.622373 187.202918 
L 174.805794 186.697 
L 174.866934 187.738592 
L 174.989214 185.387587 
L 175.233775 186.756522 
L 175.294915 186.548205 
L 175.356055 187.054111 
L 175.417196 186.667246 
L 175.845177 185.060229 
L 175.906317 183.929364 
L 176.212018 185.387587 
L 176.273159 184.584077 
L 176.334299 180.298711 
L 176.51772 176.489483 
L 176.57886 177.620348 
L 176.76228 174.912231 
L 176.945701 172.85883 
L 177.067982 175.418137 
L 177.129122 174.882478 
L 177.190262 177.769143 
L 177.373683 179.61423 
L 177.434823 178.810735 
L 177.618243 183.869842 
L 177.862804 184.345994 
L 177.923945 186.250616 
L 178.046225 183.274663 
L 178.290786 183.869842 
L 178.351926 184.584077 
L 178.413066 184.316241 
L 178.474206 181.191494 
L 178.657627 181.608124 
L 178.841048 186.548205 
L 178.902188 185.506628 
L 179.085609 186.250616 
L 179.269029 192.202521 
L 179.330169 190.714544 
L 179.635871 192.113233 
L 179.697011 189.167046 
L 179.758151 190.030064 
L 179.941572 190.506228 
L 180.002712 190.446706 
L 180.186133 183.780569 
L 180.369553 186.399411 
L 180.491834 183.95913 
L 180.552974 185.357818 
L 180.614114 185.209024 
L 180.797535 184.941188 
L 180.858675 185.476859 
L 180.919815 183.929364 
L 181.042096 188.780169 
L 181.225516 190.089586 
L 181.286656 189.672952 
L 181.470077 183.066347 
L 181.653498 182.381866 
L 181.836918 178.572653 
L 181.898059 177.977459 
L 182.081479 177.322759 
L 182.20376 174.941985 
L 182.2649 177.173949 
L 182.32604 174.763437 
L 182.509461 177.620348 
L 182.570601 176.191891 
L 182.631741 177.263237 
L 182.754022 180.447506 
L 182.937442 179.703518 
L 182.998582 180.149901 
L 183.182003 175.5967 
L 183.487704 177.025154 
L 183.548844 175.537178 
L 183.609985 175.5967 
L 183.793405 176.429961 
L 183.915686 174.971753 
L 183.976826 175.537178 
L 184.037966 175.090794 
L 184.282527 175.715741 
L 184.343667 175.685973 
L 184.404807 174.971753 
L 184.465948 177.620348 
L 184.649368 175.864536 
L 184.710508 176.459729 
L 184.893929 172.085073 
L 185.07735 172.561226 
L 185.13849 172.47195 
L 185.26077 171.430361 
L 185.321911 172.561226 
L 185.505331 171.341085 
L 185.627612 172.29339 
L 185.749892 171.222044 
L 185.994453 171.817238 
L 186.116733 170.805414 
L 186.177874 171.370854 
L 186.361294 172.085073 
L 186.605855 168.632972 
L 186.789276 168.75201 
L 186.850416 171.519648 
L 186.911556 169.168643 
L 186.972696 171.043496 
L 187.033837 172.025554 
L 187.217257 172.174349 
L 187.461818 169.97215 
L 187.645239 170.656619 
L 187.706379 169.347203 
L 187.767519 169.436479 
L 187.828659 171.87676 
L 187.8898 171.222044 
L 188.07322 171.132772 
L 188.256641 169.734068 
L 188.317781 170.329261 
L 188.501202 170.478056 
L 188.623482 169.97215 
L 188.684622 170.180467 
L 188.745763 168.722244 
L 188.929183 169.704314 
L 188.990324 169.347203 
L 189.173744 171.013731 
L 189.357165 171.251813 
L 189.479445 174.019448 
L 189.540586 172.501707 
L 189.601726 173.156419 
L 189.785146 173.811132 
L 189.968567 171.430361 
L 190.029707 172.680267 
L 190.213128 172.561226 
L 190.335408 169.347203 
L 190.396549 169.853109 
L 190.457689 168.097297 
L 190.641109 167.799708 
L 190.70225 168.603215 
L 190.88567 166.787884 
L 191.130231 168.75201 
L 191.252512 166.311732 
L 191.313652 166.460526 
L 191.619353 168.692491 
L 191.680493 168.543696 
L 191.741633 168.186585 
L 191.925054 169.97215 
L 191.986194 168.99008 
L 192.047334 170.269742 
L 192.169615 168.394901 
L 192.414176 168.216338 
L 192.475316 166.758116 
L 192.536456 168.543696 
L 192.597596 167.799708 
L 192.781017 166.103415 
L 192.964438 162.026351 
L 193.208998 164.020245 
L 193.270139 163.633369 
L 193.453559 159.109921 
L 193.63698 160.330061 
L 193.69812 160.211032 
L 193.75926 160.240786 
L 193.820401 159.586073 
L 193.881541 159.705114 
L 194.126102 161.699008 
L 194.187242 159.496798 
L 194.248382 159.615839 
L 194.309522 159.288481 
L 194.554083 159.318235 
L 194.676364 157.383874 
L 194.737504 158.127862 
L 194.920924 159.258727 
L 195.348906 169.882878 
L 195.593467 165.359427 
L 195.838028 167.353309 
L 195.899168 172.501707 
L 195.960308 171.251813 
L 196.021448 169.823356 
L 196.204869 171.07325 
L 196.327149 169.257919 
L 196.38829 165.537978 
L 196.44943 166.936679 
L 196.632851 167.05572 
L 196.693991 166.936679 
L 196.816271 167.978256 
L 196.877411 166.877157 
L 197.121972 167.948503 
L 197.183112 167.025954 
L 197.244253 167.650913 
L 197.611094 165.418949 
L 197.672234 164.169043 
L 197.733374 164.377357 
L 197.916795 164.317838 
L 197.977935 162.829861 
L 198.161356 154.854306 
L 198.344777 155.747104 
L 198.405917 156.610121 
L 198.467057 156.074446 
L 198.589337 154.497198 
L 198.833898 155.598294 
L 198.895039 156.788681 
L 198.956179 154.318634 
L 199.017319 154.407922 
L 199.20074 154.378156 
L 199.26188 155.360224 
L 199.32302 155.15191 
L 199.38416 154.437676 
L 199.4453 156.43157 
L 199.628721 156.788681 
L 199.689861 156.520845 
L 199.812142 154.467441 
L 199.873282 154.943593 
L 200.056703 155.657816 
L 200.117843 155.122145 
L 200.301263 158.187382 
L 200.545824 157.830258 
L 200.606965 158.484974 
L 200.668105 156.044693 
L 200.729245 157.026763 
L 201.034946 159.080164 
L 201.157227 163.246492 
L 201.340647 161.520445 
L 201.401787 162.085873 
L 201.462928 163.841685 
L 201.524068 162.948902 
L 201.585208 160.835979 
L 201.768629 160.270539 
L 201.829769 161.43117 
L 201.890909 160.032469 
L 202.01319 164.050002 
L 202.318891 167.918749 
L 202.380031 164.97255 
L 202.441171 165.032069 
L 202.624592 166.014127 
L 202.685732 165.15111 
L 202.808012 165.418949 
L 202.869153 166.847403 
L 203.052573 165.091591 
L 203.174854 170.120948 
L 203.297134 163.692891 
L 203.541695 162.88938 
L 203.602835 166.281966 
L 203.663975 164.228562 
L 204.153097 180.328465 
L 204.397658 177.412031 
L 204.458798 181.489083 
L 204.519938 179.37616 
L 204.581079 178.810735 
L 204.764499 181.310535 
L 204.88678 175.388384 
L 205.00906 182.500907 
L 205.192481 176.935879 
L 205.375901 184.316241 
L 205.437042 168.454408 
L 205.620462 171.162537 
L 205.681602 174.287284 
L 205.742743 172.650513 
L 205.803883 173.305214 
L 205.865023 176.132372 
L 206.048444 175.388384 
L 206.231864 181.667646 
L 206.293005 177.620348 
L 206.537565 179.405913 
L 206.598706 178.126254 
L 206.720986 182.768746 
L 206.965547 180.715341 
L 207.148968 176.935879 
L 207.332388 176.459729 
L 207.393529 175.5967 
L 207.454669 168.781766 
L 207.515809 169.823356 
L 207.76037 171.07325 
L 207.82151 173.900407 
L 207.88265 173.870654 
L 208.004931 174.495601 
L 208.188351 176.221647 
L 208.249492 171.698197 
L 208.310632 172.531472 
L 208.432912 170.329261 
L 208.616333 170.745895 
L 208.677473 169.912631 
L 208.738613 170.269742 
L 208.860894 172.650513 
L 209.044314 172.352912 
L 209.105455 174.644395 
L 209.166595 171.549402 
L 209.288875 175.269342 
L 209.472296 177.917937 
L 209.533436 174.882478 
L 209.594576 175.447903 
L 209.900277 170.507825 
L 210.144838 179.257119 
L 210.389399 184.494801 
L 210.450539 183.780569 
L 210.57282 188.333771 
L 210.75624 186.220847 
L 210.878521 174.941985 
L 210.939661 178.810735 
L 211.306502 190.089586 
L 211.428783 188.036181 
L 211.612203 186.935082 
L 211.673344 189.76224 
L 211.856764 176.489483 
L 212.040185 174.941985 
L 212.101325 179.643996 
L 212.162465 178.989283 
L 212.223606 177.977459 
L 212.284746 174.019448 
L 212.529307 171.341085 
L 212.590447 171.579167 
L 212.712727 176.906113 
L 212.957288 178.304817 
L 213.018428 180.89389 
L 213.079569 179.61423 
L 213.140709 180.834382 
L 213.324129 180.17967 
L 213.44641 178.453612 
L 213.50755 178.810735 
L 213.752111 183.363936 
L 213.874391 181.935482 
L 213.996672 188.304017 
L 214.180092 189.226568 
L 214.241233 188.155222 
L 214.302373 193.72025 
L 214.363513 193.184579 
L 214.424653 189.881269 
L 214.608074 188.72065 
L 214.730354 191.131175 
L 214.791495 187.827865 
L 214.852635 191.785875 
L 215.097196 199.463839 
L 215.219476 175.150301 
L 215.280616 175.626466 
L 215.464037 181.221247 
L 215.586317 171.370854 
L 215.647458 173.424255 
L 215.708598 170.894701 
L 215.892018 169.198397 
L 216.075439 182.411634 
L 216.136579 177.739389 
L 216.44228 181.935482 
L 216.503421 180.447506 
L 216.564561 185.328065 
L 216.809122 181.965235 
L 216.870262 185.447106 
L 216.931402 183.155622 
L 216.992542 183.393693 
L 217.237103 181.399807 
L 217.298243 183.363936 
L 217.359384 180.5963 
L 217.420524 186.905316 
L 217.726225 194.404717 
L 217.848505 201.755325 
L 218.093066 197.023558 
L 218.154206 195.922461 
L 218.215347 198.928167 
L 218.276487 196.071256 
L 218.459908 201.427967 
L 218.582188 182.798511 
L 218.643328 183.840088 
L 218.949029 174.584876 
L 219.315871 184.435282 
L 219.438151 171.430361 
L 219.499291 176.519248 
L 219.560431 175.090794 
L 219.743852 173.364736 
L 219.988413 182.619948 
L 220.232974 186.012534 
L 220.416394 173.662325 
L 220.660955 177.739389 
L 220.722096 176.400207 
L 220.783236 176.519248 
L 220.844376 170.805414 
L 221.027797 169.674561 
L 221.150077 170.924455 
L 221.211217 169.644795 
L 221.272357 163.038175 
L 221.700339 175.388384 
L 221.9449 171.549402 
L 222.00604 174.644395 
L 222.06718 174.495601 
L 222.12832 170.716138 
L 222.311741 173.007625 
L 222.495162 185.357818 
L 222.556302 184.405516 
L 222.800863 185.357818 
L 222.984284 180.715341 
L 223.289985 187.321947 
L 223.351125 186.845794 
L 223.412265 187.173152 
L 223.595686 191.547805 
L 223.656826 200.743498 
L 223.717966 196.964039 
L 223.779106 199.315044 
L 224.084807 191.428764 
L 224.268228 199.374563 
L 224.451649 198.481768 
L 224.512789 201.993395 
L 224.573929 198.630575 
L 224.635069 200.951815 
L 224.94077 211.278373 
L 225.063051 207.022761 
L 225.307612 205.891896 
L 225.368752 209.463042 
L 225.429892 205.177661 
L 225.552173 212.200912 
L 225.735593 209.790397 
L 225.796733 220.087189 
L 225.857874 215.414947 
L 225.980154 188.928964 
L 226.163575 191.488286 
L 226.224715 197.975862 
L 226.346995 186.369645 
L 226.408136 194.970156 
L 226.591556 194.255922 
L 226.652696 198.630575 
L 226.713837 188.304017 
L 226.774977 190.625257 
L 226.836117 189.1968 
L 227.019538 192.08348 
L 227.141818 188.48258 
L 227.264099 193.958333 
L 227.508659 189.553911 
L 227.63094 202.648108 
L 227.69208 198.30322 
L 227.875501 198.690097 
L 227.997781 205.832377 
L 228.120062 200.773255 
L 228.303482 200.23758 
L 228.364622 203.898014 
L 228.425763 202.767149 
L 228.548043 196.934285 
L 228.792604 193.809526 
L 228.976025 199.939991 
L 229.159445 185.387587 
L 229.342866 197.708027 
L 229.404006 190.00031 
L 229.587427 197.291396 
L 229.648567 205.653814 
L 229.831988 171.668443 
L 230.015408 175.566944 
L 230.076549 190.863339 
L 230.137689 188.036181 
L 230.198829 185.804217 
L 230.259969 190.863339 
L 230.44339 172.918337 
L 230.50453 178.721447 
L 230.687951 161.818038 
L 230.871371 182.11403 
L 230.932512 176.340688 
L 231.115932 207.290597 
L 231.299353 180.864136 
L 231.360493 182.590182 
L 231.482773 195.416543 
L 231.543914 193.601209 
L 231.727334 192.470356 
L 231.788475 192.738192 
L 231.910755 200.356621 
L 231.971895 207.022761 
L 232.155316 207.082283 
L 232.216456 207.528667 
L 232.277596 201.10061 
L 232.338737 201.755325 
L 232.399877 200.564938 
L 232.705578 187.351712 
L 232.827858 197.767546 
L 233.011279 197.618751 
L 233.1947 208.42145 
L 233.25584 203.421849 
L 233.561541 217.230272 
L 233.683821 240.889096 
L 233.867242 240.353425 
L 233.928382 223.36074 
L 233.989522 225.949815 
L 234.111803 221.188288 
L 234.295223 220.265746 
L 234.356364 232.556427 
L 234.417504 229.878069 
L 234.539784 221.039494 
L 234.784345 205.38599 
L 234.845485 209.165438 
L 234.967766 226.902117 
L 235.151186 224.223763 
L 235.212327 225.205827 
L 235.334607 215.831577 
L 235.395747 221.932276 
L 235.579168 220.355028 
L 235.640308 221.575165 
L 235.701448 226.27717 
L 235.823729 222.11084 
L 236.007149 222.289394 
L 236.06829 222.586992 
L 236.25171 218.718248 
L 236.435131 220.087189 
L 236.679692 229.550721 
L 236.924253 236.514449 
L 236.985393 235.383584 
L 237.046533 232.556427 
L 237.413374 254.132082 
L 237.474515 244.995908 
L 237.535655 246.30533 
L 237.841356 230.622058 
L 237.902496 231.961239 
L 237.963636 234.728878 
L 238.330478 240.889096 
L 238.391618 235.621661 
L 238.636179 231.604122 
L 238.697319 236.395408 
L 238.758459 236.097813 
L 238.819599 236.395408 
L 239.186441 245.858937 
L 239.247581 252.882188 
L 239.431002 249.340801 
L 239.492142 251.632288 
L 239.553282 249.549118 
L 239.614422 242.138996 
L 239.675562 247.168359 
L 239.981263 246.841001 
L 240.103544 260.381582 
L 240.286965 265.797818 
L 240.531525 241.335489 
L 240.714946 239.192806 
L 240.776086 242.198518 
L 240.898367 230.443503 
L 240.959507 238.15122 
L 241.142928 236.246614 
L 241.326348 225.086792 
L 241.69319 236.276367 
L 241.75433 223.509534 
L 241.81547 228.271058 
L 241.998891 227.408032 
L 242.060031 230.354222 
L 242.121171 229.84831 
L 242.182311 220.950212 
L 242.488012 213.212736 
L 242.549153 220.414541 
L 242.610293 210.326071 
L 242.671433 212.2902 
L 242.854854 216.962436 
L 242.915994 225.02727 
L 243.099414 211.367648 
L 243.343975 215.266152 
L 243.466256 207.350119 
L 243.527396 213.778176 
L 243.710817 213.153217 
L 243.894237 196.964039 
L 243.955378 202.023161 
L 244.138798 200.38639 
L 244.322219 209.998713 
L 244.383359 206.040691 
L 244.56678 205.266949 
L 244.62792 200.535185 
L 244.68906 202.588586 
L 244.7502 209.790397 
L 244.811341 206.60613 
L 245.055901 209.998713 
L 245.117042 202.915943 
L 245.178182 206.963242 
L 245.239322 203.362342 
L 245.422743 200.23758 
L 245.606163 209.165438 
L 245.667304 205.237183 
L 245.850724 208.719054 
L 245.911864 205.237183 
L 245.973005 205.683579 
L 246.095285 207.796502 
L 246.278706 207.736983 
L 246.462126 213.778176 
L 246.523267 208.42145 
L 246.706687 208.30242 
L 246.767827 213.004419 
L 246.828968 211.010537 
L 246.890108 211.90332 
L 247.134669 208.719054 
L 247.195809 208.570259 
L 247.56265 216.218454 
L 247.62379 214.432876 
L 247.807211 212.409229 
L 247.990632 213.718654 
L 248.174052 205.891896 
L 248.235193 203.154026 
L 248.479753 200.832774 
L 248.540894 203.213533 
L 248.602034 201.576762 
L 248.663174 198.30322 
L 248.846595 198.54129 
L 248.907735 199.225757 
L 248.968875 199.076962 
L 249.396857 191.488286 
L 249.457997 185.714941 
L 249.519137 188.690894 
L 249.763698 185.714941 
L 249.824838 188.95873 
L 249.885978 184.37576 
L 249.947119 184.673352 
L 250.19168 189.226568 
L 250.25282 189.077759 
L 250.31396 187.946906 
L 250.3751 183.988883 
L 250.558521 181.012931 
L 250.741941 183.423458 
L 250.803082 181.161728 
L 250.986502 185.238789 
L 251.047643 183.334171 
L 251.169923 188.839689 
L 251.231063 185.566135 
L 251.475624 184.1972 
L 251.536764 184.76264 
L 251.597904 184.37576 
L 251.659045 183.185376 
L 251.842465 186.310123 
L 252.025886 179.733271 
L 252.087026 176.906113 
L 252.270447 178.989283 
L 252.331587 178.185776 
L 252.392727 173.454009 
L 252.453867 176.995401 
L 252.515008 180.149901 
L 252.698428 180.685576 
L 252.759569 177.947706 
L 252.820709 178.215541 
L 252.942989 190.059829 
L 253.12641 185.119748 
L 253.309831 174.525354 
L 253.370971 176.251413 
L 253.554391 173.543296 
L 253.615532 175.685973 
L 253.676672 171.103015 
L 253.737812 173.57305 
L 253.798952 172.561226 
L 253.982373 173.394501 
L 254.165794 177.85843 
L 254.226934 175.537178 
L 254.410354 177.263237 
L 254.593775 182.91754 
L 254.654915 180.745095 
L 254.899476 186.280369 
L 254.960616 182.947306 
L 255.021757 184.76264 
L 255.266317 180.804617 
L 255.388598 179.584476 
L 255.449738 180.358218 
L 255.510878 183.0961 
L 255.694299 182.828265 
L 255.755439 183.810335 
L 255.816579 183.155622 
L 255.87772 183.274663 
L 255.93886 185.149505 
L 256.183421 182.798511 
L 256.366841 189.583677 
L 256.550262 187.857621 
L 256.611402 184.732871 
L 256.672542 186.101806 
L 256.733683 185.655422 
L 256.794823 185.804217 
L 256.978243 187.649305 
L 257.039384 189.494404 
L 257.100524 188.780169 
L 257.161664 188.452812 
L 257.222804 189.553911 
L 257.406225 189.494404 
L 257.467365 188.036181 
L 257.528505 189.018252 
L 257.589646 189.345597 
L 257.650786 190.922858 
L 257.895347 186.548205 
L 257.956487 187.024358 
L 258.017627 187.50051 
L 258.262188 186.994604 
L 258.323328 187.351712 
L 258.384468 188.72065 
L 258.445609 187.67907 
L 258.690169 187.173152 
L 258.93473 179.495201 
L 259.118151 177.263237 
L 259.240431 181.935482 
L 259.362712 179.703518 
L 259.668413 183.542499 
L 259.729553 183.453212 
L 259.790693 190.565735 
L 260.035254 195.476062 
L 260.096394 197.410437 
L 260.157535 193.452415 
L 260.218675 193.541687 
L 260.402096 195.178473 
L 260.524376 190.774052 
L 260.646656 196.547408 
L 260.891217 197.886587 
L 261.013498 195.952215 
L 261.074638 196.458133 
L 261.319199 194.493992 
L 261.380339 191.726368 
L 261.441479 192.67867 
L 261.74718 189.821747 
L 261.80832 192.351315 
L 261.869461 192.023958 
L 262.114022 186.45893 
L 262.175162 186.607724 
L 262.236302 187.589783 
L 262.297442 186.816041 
L 262.542003 184.018652 
L 262.603143 185.387587 
L 262.786564 182.560429 
L 262.969985 183.810335 
L 263.153405 181.340288 
L 263.397966 183.363936 
L 263.642527 177.501307 
L 263.825948 176.87636 
L 263.948228 179.673752 
L 264.009368 177.531072 
L 264.253929 176.787084 
L 264.315069 176.935879 
L 264.37621 175.150301 
L 264.43735 177.144195 
L 264.49849 175.001507 
L 264.743051 174.525354 
L 264.926471 169.674561 
L 265.109892 176.935879 
L 265.171032 175.328865 
L 265.232173 174.525354 
L 265.354453 178.423855 
L 265.537874 178.27506 
L 265.660154 184.048405 
L 265.782435 180.536781 
L 266.088136 186.220847 
L 266.149276 184.673352 
L 266.210416 189.434882 
L 266.393837 185.5959 
L 266.454977 188.155222 
L 266.516117 187.321947 
L 266.577257 188.214741 
L 266.638398 192.202521 
L 266.821818 192.708427 
L 266.882958 190.655022 
L 267.066379 201.368448 
L 267.2498 192.023958 
L 267.31094 199.434085 
L 267.37208 194.910634 
L 267.494361 191.51804 
L 267.800062 194.970156 
L 267.861202 192.91674 
L 267.922342 196.993792 
L 268.105763 199.076962 
L 268.166903 201.844598 
L 268.228043 198.005616 
L 268.289183 199.40432 
L 268.533744 198.54129 
L 268.594884 199.791196 
L 268.961726 193.839292 
L 269.084006 197.588986 
L 269.145146 196.815244 
L 269.389707 193.839292 
L 269.573128 202.796902 
L 269.634268 203.481371 
L 269.878829 202.350515 
L 269.939969 202.499313 
L 270.001109 196.130775 
L 270.06225 199.196003 
L 270.367951 192.053711 
L 270.429091 190.357421 
L 270.490231 191.666846 
L 270.734792 197.49971 
L 270.795932 191.756122 
L 270.857072 195.595103 
L 271.101633 193.095303 
L 271.162773 190.297899 
L 271.223914 191.190694 
L 271.285054 190.387187 
L 271.346194 193.333374 
L 271.590755 188.036181 
L 271.651895 188.869445 
L 271.774176 190.297899 
L 271.957596 190.863339 
L 272.141017 200.356621 
L 272.202157 199.047208 
L 272.385578 200.475662 
L 272.446718 198.54129 
L 272.630139 201.10061 
L 272.813559 200.80302 
L 272.93584 204.552714 
L 272.99698 203.332574 
L 273.05812 204.790796 
L 273.241541 203.213533 
L 273.302681 204.58248 
L 273.486102 197.053314 
L 273.730663 196.27957 
L 273.791803 197.440191 
L 273.852943 192.708427 
L 273.914083 192.738192 
L 274.158644 189.613433 
L 274.219784 190.98238 
L 274.280924 190.357421 
L 274.342065 189.434882 
L 274.525485 191.785875 
L 274.586626 188.601609 
L 274.770046 193.958333 
L 274.953467 193.869045 
L 275.014607 194.404717 
L 275.198028 197.440191 
L 275.503729 193.809526 
L 275.564869 192.172752 
L 275.626009 193.48218 
L 275.87057 194.077362 
L 275.93171 190.535981 
L 276.053991 195.862939 
L 276.237411 200.981568 
L 276.420832 197.886587 
L 276.481972 199.939991 
L 276.665393 198.54129 
L 276.726533 201.487486 
L 276.787673 201.249407 
L 276.848814 199.344798 
L 276.909954 200.088786 
L 277.093374 199.612633 
L 277.154515 199.850715 
L 277.215655 201.487486 
L 277.521356 189.940788 
L 277.765917 192.91674 
L 277.949337 193.035781 
L 278.193898 194.255922 
L 278.377319 195.297502 
L 278.499599 198.957921 
L 278.8053 200.029267 
L 278.866441 199.969745 
L 279.294422 191.458533 
L 279.355562 194.404717 
L 279.477843 189.851515 
L 279.661263 187.827865 
L 279.722404 188.214741 
L 279.905824 192.32155 
L 280.089245 193.006016 
L 280.150385 192.023958 
L 280.272666 186.101806 
L 280.517227 187.083877 
L 280.578367 184.465035 
L 280.639507 184.822147 
L 280.761787 186.220847 
L 281.189769 178.989283 
L 281.37319 182.768746 
L 281.55661 177.798908 
L 281.61775 179.078571 
L 281.862311 177.560829 
L 281.984592 181.102206 
L 282.045732 177.471553 
L 282.229153 176.995401 
L 282.290293 178.156019 
L 282.351433 177.025154 
L 282.412573 177.679867 
L 282.473713 177.471553 
L 282.657134 179.37616 
L 282.779414 175.269342 
L 282.840555 176.191891 
L 282.901695 177.620348 
L 283.085116 178.364336 
L 283.146256 176.162125 
L 283.207396 176.549002 
L 283.268536 177.322759 
L 283.635378 171.222044 
L 283.757658 169.228162 
L 284.002219 171.07325 
L 284.124499 175.745495 
L 284.185639 173.900407 
L 284.36906 172.233871 
L 284.4302 173.245695 
L 284.491341 176.459729 
L 284.552481 175.477659 
L 284.613621 174.703915 
L 284.858182 176.489483 
L 284.919322 173.662325 
L 284.980462 174.406313 
L 285.041602 176.787084 
L 285.225023 176.370454 
L 285.286163 178.959529 
L 285.347304 178.691694 
L 285.408444 179.227365 
L 285.653005 173.811132 
L 285.775285 176.757319 
L 285.897565 175.537178 
L 286.080986 174.346806 
L 286.142126 175.150301 
L 286.203267 173.067144 
L 286.264407 174.495601 
L 286.325547 173.007625 
L 286.508968 174.287284 
L 286.570108 174.138489 
L 286.692388 169.763836 
L 286.753529 170.120948 
L 286.998089 173.007625 
L 287.05923 170.954209 
L 287.18151 176.906113 
L 287.426071 179.822559 
L 287.487211 177.917937 
L 287.548351 178.572653 
L 287.792912 178.661925 
L 288.220894 174.822956 
L 288.282034 177.769143 
L 288.343174 174.703915 
L 288.404314 176.906113 
L 288.465455 176.221647 
L 288.648875 178.364336 
L 288.710015 177.441788 
L 288.771156 177.560829 
L 288.893436 180.41774 
L 289.137997 184.524558 
L 289.260277 179.643996 
L 289.504838 185.357818 
L 289.565978 184.256722 
L 289.627119 186.220847 
L 289.688259 186.191094 
L 289.749399 184.465035 
L 289.99396 182.858018 
L 290.11624 186.756522 
L 290.177381 189.256322 
L 290.360801 189.226568 
L 290.483082 190.774052 
L 290.605362 190.744298 
L 290.788783 188.661128 
L 290.849923 186.161328 
L 290.972203 190.625257 
L 291.033344 189.970556 
L 291.216764 191.012134 
L 291.277904 190.476462 
L 291.339045 190.506228 
L 291.461325 192.351315 
L 291.644746 194.285676 
L 291.828166 190.357421 
L 291.889307 190.089586 
L 292.133867 188.006428 
L 292.195008 190.744298 
L 292.256148 188.95873 
L 292.317288 190.41694 
L 292.500709 191.934682 
L 292.561849 194.761828 
L 292.622989 193.48218 
L 292.684129 188.988486 
L 292.74527 190.684776 
L 292.92869 193.125057 
L 292.989831 192.738192 
L 293.173251 185.744698 
L 293.601233 191.785875 
L 293.784653 189.048005 
L 294.029214 197.559232 
L 294.396055 208.480972 
L 294.457196 201.04109 
L 294.701757 203.600413 
L 294.762897 203.034985 
L 294.885177 208.094107 
L 295.068598 207.022761 
L 295.129738 212.468748 
L 295.252018 199.076962 
L 295.313159 206.546608 
L 295.68 199.58288 
L 295.74114 207.201312 
L 295.985701 213.004419 
L 296.107982 209.046408 
L 296.352542 218.242098 
L 296.535963 212.230678 
L 296.597103 210.20703 
L 296.902804 215.62326 
L 297.025085 225.354628 
L 297.208505 222.08108 
L 297.269646 214.462642 
L 297.330786 217.438588 
L 297.391926 217.557629 
L 297.453066 220.057429 
L 297.636487 222.170353 
L 297.697627 227.467551 
L 297.881048 214.581671 
L 298.064468 217.49811 
L 298.186749 214.046011 
L 298.247889 214.968548 
L 298.309029 216.6946 
L 298.49245 217.379075 
L 298.55359 218.212336 
L 298.737011 211.90332 
L 298.920431 211.516443 
L 298.981572 209.820153 
L 299.042712 210.028467 
L 299.164992 202.588586 
L 299.348413 204.612236 
L 299.409553 214.909029 
L 299.470693 211.218854 
L 299.531834 209.998713 
L 299.592974 210.385578 
L 299.776394 210.266549 
L 299.837535 208.778573 
L 299.959815 213.569859 
L 300.020955 212.498513 
L 300.204376 213.480572 
L 300.448937 220.265746 
L 300.693498 222.557229 
L 300.876918 227.378269 
L 301.060339 223.122663 
L 301.121479 225.295106 
L 301.3049 219.640799 
L 301.48832 211.42717 
L 301.549461 212.558035 
L 301.610601 213.867448 
L 301.671741 211.695006 
L 301.732881 215.236384 
L 301.916302 214.670959 
L 301.977442 215.20663 
L 302.038582 219.640799 
L 302.160863 215.831577 
L 302.344284 216.6946 
L 302.405424 218.093301 
L 302.588844 211.486689 
L 302.894545 213.361531 
L 302.955686 214.194806 
L 303.322527 209.046408 
L 303.383667 208.242901 
L 303.444807 205.326468 
L 303.628228 206.070456 
L 303.811649 201.963639 
L 303.872789 206.60613 
L 304.11735 207.826271 
L 304.17849 208.748807 
L 304.23963 201.90412 
L 304.30077 202.08268 
L 304.667612 198.809126 
L 304.728752 200.743498 
L 304.912173 202.439791 
L 305.034453 198.779373 
L 305.095593 199.374563 
L 305.156733 197.648508 
L 305.401294 198.868645 
L 305.462435 198.30322 
L 305.523575 196.666449 
L 305.584715 200.773255 
L 305.829276 197.767546 
L 305.890416 198.213933 
L 305.951556 200.981568 
L 306.012696 196.666449 
L 306.257257 196.51764 
L 306.379538 198.273455 
L 306.440678 196.487886 
L 306.624099 198.243698 
L 306.868659 191.22045 
L 307.05208 190.41694 
L 307.11322 194.136881 
L 307.174361 194.107127 
L 307.296641 190.268146 
L 307.480062 189.940788 
L 307.541202 189.464639 
L 307.724622 178.007225 
L 307.908043 179.286884 
L 307.969183 179.019048 
L 308.030324 176.043096 
L 308.091464 178.453612 
L 308.152604 179.257119 
L 308.519445 174.882478 
L 308.580586 174.406313 
L 308.825146 175.418137 
L 308.947427 180.209424 
L 309.191988 183.006825 
L 309.436549 177.769143 
L 309.619969 182.441388 
L 309.681109 181.518849 
L 309.80339 182.262837 
L 309.86453 182.054523 
L 310.047951 186.786287 
L 310.170231 181.637878 
L 310.231371 182.91754 
L 310.292512 180.77486 
L 310.537072 183.572253 
L 310.598213 182.203318 
L 310.659353 182.441388 
L 310.720493 185.566135 
L 311.026194 190.357421 
L 311.087334 188.839689 
L 311.148475 201.011337 
L 311.331895 204.10633 
L 311.393035 203.838492 
L 311.454176 202.052914 
L 311.576456 210.385578 
L 311.821017 212.379472 
L 311.943297 209.046408 
L 312.004438 210.355825 
L 312.248998 210.415344 
L 312.432419 215.087589 
L 312.61584 215.831577 
L 312.67698 219.61104 
L 312.79926 211.040294 
L 312.860401 214.016246 
L 313.043821 209.254725 
L 313.104961 213.688888 
L 313.166102 211.278373 
L 313.288382 207.70723 
L 313.471803 208.242901 
L 313.532943 207.409626 
L 313.655223 202.945697 
L 313.899784 206.60613 
L 313.960924 204.22536 
L 314.022065 205.475266 
L 314.083205 206.427567 
L 314.144345 202.32075 
L 314.511186 205.564538 
L 314.572327 210.593907 
L 314.755747 210.921253 
L 315.000308 207.201312 
L 315.183729 205.118154 
L 315.61171 212.617542 
L 315.795131 205.058632 
L 316.039692 202.915943 
L 316.223112 205.534785 
L 316.589954 201.874366 
L 316.651094 202.261231 
L 316.895655 201.814844 
L 316.956795 200.178073 
L 317.017935 201.219651 
L 317.140216 200.832774 
L 317.323636 201.666049 
L 317.445917 198.809126 
L 317.507057 199.017443 
L 317.568197 201.606527 
L 317.751618 200.505419 
L 317.812758 201.130378 
L 317.873898 200.475662 
L 317.935039 201.249407 
L 317.996179 201.011337 
L 318.24074 201.487486 
L 318.30188 201.189885 
L 318.36302 199.701909 
L 318.42416 195.357021 
L 318.607581 194.791593 
L 318.668721 196.071256 
L 318.852142 186.667246 
L 319.035562 189.524158 
L 319.096703 189.375363 
L 319.157843 188.542087 
L 319.218983 189.643199 
L 319.280123 187.946906 
L 319.463544 190.684776 
L 319.524684 187.887387 
L 319.585824 192.053711 
L 319.646965 191.309723 
L 319.708105 191.250216 
L 319.952666 189.107527 
L 320.013806 190.030064 
L 320.136086 186.429164 
L 320.319507 188.542087 
L 320.502928 185.447106 
L 320.564068 187.738592 
L 320.747488 186.816041 
L 320.930909 183.304417 
L 321.23661 188.125457 
L 321.29775 187.50051 
L 321.358891 185.833971 
L 321.420031 188.274264 
L 321.725732 188.184976 
L 321.786872 187.440988 
L 321.848012 183.453212 
L 322.031433 185.566135 
L 322.092573 184.851912 
L 322.275994 191.577562 
L 322.459414 189.970556 
L 322.642835 195.297502 
L 323.009676 189.702718 
L 323.131957 189.226568 
L 323.437658 191.041887 
L 323.498798 189.077759 
L 323.559938 189.553911 
L 323.743359 188.72065 
L 323.865639 190.446706 
L 324.171341 184.941188 
L 324.232481 184.76264 
L 324.293621 183.572253 
L 324.354761 184.61383 
L 324.415901 184.256722 
L 324.599322 183.572253 
L 324.721602 180.626054 
L 324.782743 181.518849 
L 324.843883 181.131972 
L 325.027304 181.429564 
L 325.210724 180.715341 
L 325.271864 183.274663 
L 325.455285 183.274663 
L 325.577565 177.679867 
L 325.638706 178.39409 
L 325.699846 179.257119 
L 326.127827 174.733671 
L 326.311248 174.971753 
L 326.372388 176.162125 
L 326.494669 173.454009 
L 326.555809 173.513531 
L 326.92265 173.930161 
L 326.98379 172.442185 
L 327.167211 172.144595 
L 327.228351 173.811132 
L 327.411772 170.478056 
L 327.595193 170.061426 
L 327.778613 166.758116 
L 327.839753 167.71042 
L 328.023174 167.174761 
L 328.145455 164.674961 
L 328.206595 167.502104 
L 328.267735 164.674961 
L 328.512296 165.359427 
L 328.573436 164.674961 
L 328.634576 167.47235 
L 328.695716 166.817638 
L 328.879137 165.418949 
L 329.001418 169.138889 
L 329.062558 165.240386 
L 329.123698 166.906925 
L 329.307119 166.520045 
L 329.55168 160.984774 
L 329.7351 162.056117 
L 329.79624 161.699008 
L 329.857381 161.877557 
L 329.918521 161.996598 
L 330.163082 165.15111 
L 330.224222 163.782163 
L 330.285362 164.020245 
L 330.407643 166.817638 
L 330.591063 165.597497 
L 330.774484 169.168643 
L 331.019045 170.031672 
L 331.141325 168.603215 
L 331.263606 172.29339 
L 331.630447 165.091591 
L 331.691587 166.014127 
L 331.997288 168.365133 
L 332.058428 172.263636 
L 332.119569 171.222044 
L 332.302989 170.478056 
L 332.42527 167.740186 
L 332.48641 165.657019 
L 332.54755 166.133169 
L 332.730971 165.478456 
L 332.853251 166.430773 
L 332.914391 167.948503 
L 332.975532 166.817638 
L 333.158952 169.55552 
L 333.342373 163.633369 
L 333.403513 165.567744 
L 333.586934 166.192691 
L 333.831495 158.990892 
L 334.137196 152.533069 
L 334.198336 154.3484 
L 334.259476 154.110318 
L 334.504037 149.17024 
L 334.565177 150.56894 
L 334.687458 145.7479 
L 335.054299 154.288881 
L 335.115439 151.521245 
L 335.29886 148.932169 
L 335.48228 153.812728 
L 335.543421 150.717735 
L 335.726841 151.729559 
L 335.787982 150.7475 
L 335.849122 150.86653 
L 336.154823 160.121745 
L 336.399384 153.455617 
L 336.582804 153.158016 
L 336.705085 155.866133 
L 337.071926 147.652507 
L 337.133066 148.545293 
L 337.194206 145.361024 
L 337.255347 146.343094 
L 337.438767 146.402601 
L 337.499908 148.158413 
L 337.561048 147.712029 
L 337.683328 143.367141 
L 337.866749 144.378965 
L 337.989029 142.147001 
L 338.11131 144.706311 
L 338.29473 144.94439 
L 338.417011 146.134765 
L 338.478151 143.813525 
L 338.539291 144.081364 
L 338.722712 143.902801 
L 339.150693 150.717735 
L 339.211834 150.182064 
L 339.272974 149.854706 
L 339.395254 153.604412 
L 339.578675 154.140086 
L 339.639815 157.443393 
L 339.700955 157.026763 
L 339.762096 156.788681 
L 339.823236 155.985174 
L 340.006656 156.312529 
L 340.128937 161.758516 
L 340.190077 160.984774 
L 340.251217 160.300305 
L 340.495778 159.020645 
L 340.556918 159.288481 
L 340.679199 155.56854 
L 340.862619 154.467441 
L 340.92376 151.342682 
L 340.9849 152.711629 
L 341.04604 152.533069 
L 341.10718 155.925652 
L 341.290601 152.473547 
L 341.351741 153.247301 
L 341.412881 154.735277 
L 341.474022 151.937875 
L 341.535162 153.961523 
L 341.718582 156.550599 
L 341.840863 162.085873 
L 341.902003 156.996998 
L 341.963143 158.276657 
L 342.146564 157.592188 
L 342.207704 157.860027 
L 342.268844 158.812329 
L 342.391125 156.580364 
L 342.574545 155.925652 
L 342.696826 159.258727 
L 342.819106 153.93177 
L 343.002527 156.967241 
L 343.247088 150.063034 
L 343.430508 150.033269 
L 343.491649 148.902401 
L 343.675069 156.312529 
L 343.98077 153.812728 
L 344.041911 154.854306 
L 344.103051 158.425452 
L 344.286471 154.58647 
L 344.347612 157.23508 
L 344.408752 156.014939 
L 344.531032 157.294587 
L 344.775593 151.045093 
L 344.836733 152.265233 
L 344.959014 150.033269 
L 345.386995 141.164931 
L 345.631556 140.034066 
L 345.692696 140.18286 
L 345.814977 140.18286 
L 346.059538 142.236277 
L 346.120678 143.575455 
L 346.181818 142.771948 
L 346.426379 144.051608 
L 346.548659 143.277854 
L 346.6098 144.736077 
L 346.67094 143.783772 
L 346.854361 143.873047 
L 346.915501 142.920743 
L 346.976641 145.361024 
L 347.098921 141.283972 
L 347.465763 137.891389 
L 347.526903 138.42706 
L 347.710324 138.516336 
L 347.893744 138.010418 
L 347.954884 138.069937 
L 348.199445 135.093985 
L 348.260586 137.325949 
L 348.321726 136.016533 
L 348.382866 136.939084 
L 348.566287 137.415237 
L 348.688567 139.736474 
L 348.810847 135.332067 
L 349.055408 138.665131 
L 349.116549 137.950896 
L 349.238829 144.884871 
L 349.42225 147.622742 
L 349.48339 146.700205 
L 349.54453 147.979865 
L 349.60567 144.676555 
L 349.66681 146.372847 
L 349.850231 146.372847 
L 349.911371 148.694087 
L 349.972512 147.563234 
L 350.033652 146.819246 
L 350.094792 142.950496 
L 350.278213 142.593388 
L 350.339353 143.069537 
L 350.522773 139.260324 
L 350.767334 138.873447 
L 350.828475 137.861621 
L 350.889615 140.331667 
L 350.950755 140.153107 
L 351.134176 140.063831 
L 351.195316 139.230556 
L 351.378737 143.188578 
L 351.562157 143.992088 
L 351.806718 134.915437 
L 351.990139 135.540384 
L 352.051279 134.70712 
L 352.2347 141.581561 
L 352.41812 141.283972 
L 352.601541 137.861621 
L 352.662681 130.12415 
L 352.846102 131.879962 
L 352.968382 129.290875 
L 353.029522 133.159622 
L 353.090663 132.356115 
L 353.335223 130.153904 
L 353.396364 131.879962 
L 353.457504 131.046687 
L 353.518644 129.94559 
L 353.763205 136.552207 
L 353.824345 135.659425 
L 353.885485 134.915437 
L 353.946626 147.325152 
L 354.130046 145.33127 
L 354.252327 147.860824 
L 354.313467 146.849 
L 354.558028 147.087082 
L 354.619168 147.741783 
L 354.802589 143.962323 
L 354.986009 145.985971 
L 355.047149 145.688378 
L 355.10829 144.170637 
L 355.16943 145.122953 
L 355.23057 145.390777 
L 355.536271 152.175958 
L 355.658552 150.182064 
L 355.841972 150.033269 
L 355.903112 148.634565 
L 355.964253 148.932169 
L 356.269954 153.574646 
L 356.514515 149.200005 
L 356.759076 148.604812 
L 356.881356 145.628859 
L 356.942496 146.134765 
L 357.125917 145.926449 
L 357.187057 147.592988 
L 357.248197 146.313328 
L 357.615039 140.510218 
L 357.676179 140.480462 
L 357.798459 141.819643 
L 358.04302 142.533866 
L 358.226441 139.855515 
L 358.409861 140.301902 
L 358.471002 139.290078 
L 358.532142 141.254206 
L 358.593282 140.897095 
L 358.654422 140.926849 
L 358.837843 140.599503 
L 358.898983 141.46252 
L 358.960123 141.105412 
L 359.021263 141.22445 
L 359.265824 142.236277 
L 359.449245 147.682264 
L 359.510385 146.997794 
L 359.693806 143.307619 
L 359.877227 137.26643 
L 359.938367 137.950896 
L 360.121787 138.575855 
L 360.305208 135.748697 
L 360.366348 136.195096 
L 360.549769 136.135574 
L 360.610909 135.570137 
L 360.672049 135.897495 
L 360.73319 136.998591 
L 360.79433 140.7483 
L 360.97775 142.176755 
L 361.100031 145.212229 
L 361.161171 143.010018 
L 361.222311 145.212229 
L 361.405732 143.277854 
L 361.466872 144.200402 
L 361.650293 141.194684 
L 361.833713 142.325549 
L 361.894854 140.123353 
L 361.955994 140.659025 
L 362.017134 139.94479 
L 362.078274 137.62355 
L 362.261695 136.016533 
L 362.383975 133.42746 
L 362.445116 135.213026 
L 362.506256 134.94519 
L 362.750817 134.588079 
L 362.811957 132.921542 
L 362.873097 134.082161 
L 362.934237 134.111926 
L 363.117658 133.457214 
L 363.239938 135.510615 
L 363.301079 135.421343 
L 363.362219 133.576255 
L 363.545639 133.635774 
L 363.60678 133.844091 
L 363.72906 131.374044 
L 363.7902 127.802898 
L 364.034761 130.540781 
L 364.157042 128.546886 
L 364.218182 131.998991 
L 364.401602 132.891786 
L 364.462743 131.790675 
L 364.523883 132.266827 
L 364.585023 135.510615 
L 364.646163 135.213026 
L 364.829584 130.659822 
L 364.951864 134.885668 
L 365.013005 131.998991 
L 365.074145 135.867738 
L 365.257565 137.44499 
L 365.440986 148.604812 
L 365.502126 145.688378 
L 365.685547 144.587282 
L 365.868968 138.575855 
L 365.930108 138.932966 
L 366.174669 136.343891 
L 366.235809 134.111926 
L 366.296949 136.135574 
L 366.358089 132.62395 
L 366.54151 130.630056 
L 366.60265 132.266827 
L 366.724931 129.767027 
L 366.786071 129.796792 
L 366.969492 129.261121 
L 367.030632 127.892186 
L 367.091772 131.731167 
L 367.152912 131.493085 
L 367.214052 132.237073 
L 367.397473 132.981062 
L 367.519753 131.64188 
L 367.580894 132.385868 
L 367.642034 129.796792 
L 367.825455 130.897892 
L 367.886595 129.528957 
L 368.070015 131.790675 
L 368.253436 133.040581 
L 368.314576 132.951308 
L 368.497997 126.999403 
L 368.681418 125.243591 
L 368.925978 131.40381 
L 369.109399 130.778851 
L 369.170539 137.683072 
L 369.23168 137.236674 
L 369.35396 128.814722 
L 369.659661 124.826946 
L 369.781941 125.035275 
L 369.965362 125.779263 
L 370.087643 123.160422 
L 370.209923 126.493485 
L 370.393344 126.850597 
L 370.515624 133.308419 
L 370.576764 133.070337 
L 370.637904 130.838373 
L 370.882465 135.183272 
L 371.065886 148.872647 
L 371.310447 144.76583 
L 371.371587 146.521642 
L 371.493867 139.76623 
L 371.738428 144.736077 
L 371.799569 143.039784 
L 371.921849 147.890577 
L 372.10527 149.259524 
L 372.349831 139.676954 
L 372.533251 140.659025 
L 372.716672 136.165331 
L 372.777812 134.588079 
L 373.022373 134.885668 
L 373.083513 132.683472 
L 373.205794 136.076055 
L 373.389214 134.469038 
L 373.572635 129.915834 
L 373.878336 128.070734 
L 373.939476 128.100503 
L 374.000616 126.433963 
L 374.061757 126.553004 
L 374.367458 132.594185 
L 374.489738 128.814722 
L 374.673159 128.517133 
L 374.734299 128.993285 
L 374.795439 128.844491 
L 374.856579 128.308816 
L 374.91772 129.052804 
L 375.10114 127.773145 
L 375.284561 134.588079 
L 375.345701 134.498791 
L 375.529122 130.36222 
L 375.590262 130.838373 
L 375.712542 132.772745 
L 375.957103 133.219144 
L 376.018243 129.55871 
L 376.079384 129.826549 
L 376.201664 128.963532 
L 376.385085 128.100503 
L 376.568505 120.83917 
L 376.629646 123.309216 
L 376.813066 123.398492 
L 376.874206 123.071134 
L 376.935347 125.094782 
L 376.996487 124.678151 
L 377.057627 125.154304 
L 377.241048 124.945987 
L 377.302188 125.570934 
L 377.363328 125.36262 
L 377.485609 121.970035 
L 377.669029 122.029557 
L 377.79131 119.5 
L 377.85245 122.059322 
L 377.91359 118.190575 
L 378.219291 116.851405 
L 378.341572 114.738482 
L 378.524992 115.720529 
L 378.647273 112.298201 
L 378.708413 114.708717 
L 378.769553 113.250506 
L 379.075254 115.274154 
L 379.136394 114.054001 
L 379.197535 114.589676 
L 379.442096 115.631253 
L 379.625516 111.048283 
L 379.808937 110.780459 
L 379.870077 112.298201 
L 379.992357 108.102096 
L 380.053498 108.250903 
L 380.236918 110.423336 
L 380.298059 109.85792 
L 380.359199 107.95329 
L 380.420339 108.131865 
L 380.6649 106.584355 
L 380.78718 104.679748 
L 380.909461 106.376041 
L 381.092881 110.125747 
L 381.154022 109.5008 
L 381.215162 108.816319 
L 381.276302 109.322249 
L 381.643143 115.125347 
L 381.704284 113.667136 
L 381.765424 111.494682 
L 382.009985 109.232952 
L 382.132265 104.322649 
L 382.193405 105.155912 
L 382.376826 104.709514 
L 382.437966 105.721325 
L 382.499106 105.364226 
L 382.560247 102.6561 
L 382.804807 108.727043 
L 382.988228 106.405806 
L 383.049368 106.167724 
L 383.293929 107.774742 
L 383.355069 106.048683 
L 383.41621 106.941478 
L 383.47735 108.191372 
L 383.721911 108.488964 
L 383.844191 111.405406 
L 384.149892 109.232952 
L 384.211032 109.381759 
L 384.333313 117.833476 
L 384.516733 135.093985 
L 384.700154 121.136771 
L 384.761294 120.214223 
L 384.944715 122.23787 
L 385.066995 125.184069 
L 385.128136 124.410316 
L 385.189276 127.62435 
L 385.433837 124.737673 
L 385.494977 121.255812 
L 385.556117 127.445787 
L 385.617257 125.898292 
L 385.861818 124.767439 
L 385.984099 120.660621 
L 386.045239 127.535063 
L 386.228659 128.457614 
L 386.41208 132.951308 
L 386.47322 129.201602 
L 386.656641 130.243191 
L 386.717781 133.040581 
L 386.778921 130.897892 
L 386.840062 129.647998 
L 386.901202 134.201202 
L 387.206903 125.392386 
L 387.268043 127.475556 
L 387.329183 125.868538 
L 387.573744 128.844491 
L 387.696025 131.582361 
L 387.757165 125.749497 
L 387.940586 127.029157 
L 388.062866 124.410316 
L 388.124006 125.779263 
L 388.185146 122.178351 
L 388.368567 121.553404 
L 388.429707 122.475952 
L 388.490847 121.970035 
L 388.613128 117.208505 
L 388.796549 119.738082 
L 389.041109 108.072331 
L 389.22453 107.090284 
L 389.407951 112.566025 
L 389.469091 115.601511 
L 389.652512 116.732364 
L 389.835932 110.423336 
L 389.897072 109.203208 
L 390.080493 111.226855 
L 390.141633 114.619441 
L 390.202773 112.357711 
L 390.325054 112.149395 
L 390.569615 111.137583 
L 390.630755 109.679348 
L 390.753035 114.827758 
L 390.936456 110.185254 
L 391.119877 116.494282 
L 391.181017 118.696481 
L 391.364438 120.392774 
L 391.547858 109.471031 
L 391.608998 115.214623 
L 391.792419 118.041789 
L 391.97584 113.280248 
L 392.220401 114.262318 
L 392.342681 112.030354 
L 392.648382 121.226046 
L 392.709522 121.970035 
L 393.076364 136.46292 
L 393.198644 134.588079 
L 393.320924 143.54569 
L 393.565485 139.736474 
L 393.626626 145.985971 
L 393.687766 145.658613 
L 393.748906 143.575455 
L 393.932327 143.456414 
L 393.993467 145.33127 
L 394.176888 139.438872 
L 394.360308 135.480862 
L 394.543729 141.730359 
L 394.604869 137.206908 
L 394.97171 151.134365 
L 395.032851 145.926449 
L 395.338552 136.403413 
L 395.399692 136.433166 
L 395.460832 140.420943 
L 395.644253 137.415237 
L 395.705393 139.230556 
L 395.766533 147.26563 
L 395.827673 144.497994 
L 395.888814 140.004312 
L 396.072234 140.688778 
L 396.133374 142.623153 
L 396.316795 132.683472 
L 396.622496 135.510615 
L 396.683636 134.201202 
L 396.744777 134.796395 
L 396.928197 135.510615 
L 396.989337 137.325949 
L 397.050478 136.016533 
L 397.111618 136.641483 
L 397.172758 132.832267 
L 397.356179 132.326349 
L 397.417319 133.010815 
L 397.478459 131.969238 
L 397.539599 135.064231 
L 397.78416 134.379762 
L 397.8453 134.974944 
L 397.906441 134.588079 
L 397.967581 134.617832 
L 398.028721 135.897495 
L 398.212142 134.647598 
L 398.334422 138.397295 
L 398.395562 138.159225 
L 398.456703 139.795996 
L 398.640123 139.200802 
L 398.701263 137.921143 
L 398.884684 124.410316 
L 399.068105 128.100503 
L 399.251525 120.303498 
L 399.312666 122.148598 
L 399.496086 122.267639 
L 399.618367 121.493882 
L 399.740647 123.785369 
L 399.924068 121.9998 
L 400.168629 130.897892 
L 400.53547 126.22565 
L 400.59661 127.921939 
L 400.780031 129.380162 
L 400.902311 127.921939 
L 401.024592 121.493882 
L 401.208012 122.714023 
L 401.391433 116.405007 
L 401.452573 117.476352 
L 401.697134 115.928845 
L 401.880555 120.333264 
L 402.063975 119.172645 
L 402.125116 116.76213 
L 402.186256 118.309616 
L 402.247396 118.726246 
L 402.308536 121.285569 
L 402.491957 122.624747 
L 402.675378 128.665928 
L 402.919938 122.714023 
L 402.981079 124.856711 
L 403.042219 124.201999 
L 403.103359 121.970035 
L 403.164499 131.552604 
L 403.34792 136.820043 
L 403.40906 135.391586 
L 403.592481 128.040981 
L 403.837042 131.64188 
L 403.898182 135.92726 
L 404.020462 129.023039 
L 404.326163 123.815122 
L 404.448444 118.845288 
L 404.693005 122.23787 
L 404.754145 120.749894 
L 404.815285 121.077252 
L 404.876425 121.374841 
L 405.182126 120.83917 
L 405.243267 121.077252 
L 405.304407 121.672445 
L 405.487827 120.630853 
L 405.548968 122.297392 
L 405.610108 121.9998 
L 405.732388 117.684669 
L 405.976949 114.589676 
L 406.16037 118.190575 
L 406.34379 116.434772 
L 406.404931 117.029954 
L 406.466071 115.720529 
L 406.527211 116.2562 
L 406.588351 115.958611 
L 406.771772 115.869335 
L 406.832912 114.91703 
L 406.894052 115.155112 
L 406.955193 115.393171 
L 407.016333 114.143277 
L 407.199753 113.667136 
L 407.383174 110.244788 
L 407.444314 110.959008 
L 407.688875 110.661418 
L 407.872296 112.060119 
L 408.116857 114.797989 
L 408.239137 114.262318 
L 408.300277 114.857523 
L 408.483698 114.678948 
L 408.667119 112.17916 
L 408.728259 110.988776 
L 408.91168 113.339781 
L 408.97282 116.881147 
L 409.0951 113.042189 
L 409.15624 114.887265 
L 409.339661 114.08377 
L 409.400801 114.5004 
L 409.584222 109.798389 
L 409.828783 107.685466 
L 409.889923 108.399689 
L 409.951063 110.780459 
L 410.012203 106.792671 
L 410.195624 110.899501 
L 410.379045 108.93536 
L 410.440185 109.738879 
L 410.623606 106.286765 
L 410.684746 106.554613 
L 410.745886 108.072331 
L 410.868166 104.620238 
L 411.051587 104.91783 
L 411.112727 104.769024 
L 411.296148 107.715231 
L 411.479569 105.959408 
L 411.540709 104.114332 
L 411.90755 81.645882 
L 411.96869 78.312807 
L 412.029831 78.759205 
L 412.090971 79.622235 
L 412.152111 79.532959 
L 412.335532 79.413918 
L 412.580092 76.140376 
L 412.763513 78.878246 
L 412.824653 78.253299 
L 413.008074 68.10529 
L 413.191495 66.617314 
L 413.374915 60.873725 
L 413.436055 58.522741 
L 413.619476 57.510905 
L 413.680616 58.641761 
L 413.741757 61.915327 
L 413.864037 54.743269 
L 414.047458 59.177433 
L 414.292018 52.630346 
L 414.536579 52.48154 
L 414.59772 52.154182 
L 414.72 55.308709 
L 414.72 55.308709 
" style="fill:none;stroke:#e24a33;stroke-linecap:square;stroke-width:1.5;"/>
   </g>
   <g id="patch_3">
    <path d="M 57.6 276.48 
L 57.6 41.472 
" style="fill:none;stroke:#ffffff;stroke-linecap:square;stroke-linejoin:miter;"/>
   </g>
   <g id="patch_4">
    <path d="M 414.72 276.48 
L 414.72 41.472 
" style="fill:none;stroke:#ffffff;stroke-linecap:square;stroke-linejoin:miter;"/>
   </g>
   <g id="patch_5">
    <path d="M 57.6 276.48 
L 414.72 276.48 
" style="fill:none;stroke:#ffffff;stroke-linecap:square;stroke-linejoin:miter;"/>
   </g>
   <g id="patch_6">
    <path d="M 57.6 41.472 
L 414.72 41.472 
" style="fill:none;stroke:#ffffff;stroke-linecap:square;stroke-linejoin:miter;"/>
   </g>
  </g>
 </g>
 <defs>
  <clipPath id="pf1ffba926a">
   <rect height="235.008" width="357.12" x="57.6" y="41.472"/>
  </clipPath>
 </defs>
</svg>
