<?xml version="1.0" encoding="utf-8" standalone="no"?>
<!DOCTYPE svg PUBLIC "-//W3C//DTD SVG 1.1//EN"
  "http://www.w3.org/Graphics/SVG/1.1/DTD/svg11.dtd">
<!-- Created with matplotlib (http://matplotlib.org/) -->
<svg height="345pt" version="1.1" viewBox="0 0 460 345" width="460pt" xmlns="http://www.w3.org/2000/svg" xmlns:xlink="http://www.w3.org/1999/xlink">
 <defs>
  <style type="text/css">
*{stroke-linecap:butt;stroke-linejoin:round;}
  </style>
 </defs>
 <g id="figure_1">
  <g id="patch_1">
   <path d="M 0 345.6 
L 460.8 345.6 
L 460.8 0 
L 0 0 
z
" style="fill:#ffffff;"/>
  </g>
  <g id="axes_1">
   <g id="patch_2">
    <path d="M 57.6 276.48 
L 414.72 276.48 
L 414.72 41.472 
L 57.6 41.472 
z
" style="fill:#e5e5e5;"/>
   </g>
   <g id="matplotlib.axis_1">
    <g id="xtick_1">
     <g id="line2d_1">
      <path clip-path="url(#p5fb68abe52)" d="M 102.171217 276.48 
L 102.171217 41.472 
" style="fill:none;stroke:#ffffff;stroke-linecap:square;stroke-width:0.8;"/>
     </g>
     <g id="line2d_2">
      <defs>
       <path d="M 0 0 
L 0 3.5 
" id="md2888bfa8b" style="stroke:#555555;stroke-width:0.8;"/>
      </defs>
      <g>
       <use style="fill:#555555;stroke:#555555;stroke-width:0.8;" x="102.171217" xlink:href="#md2888bfa8b" y="276.48"/>
      </g>
     </g>
     <g id="text_1">
      <!-- 2003 -->
      <defs>
       <path d="M 19.1875 8.296875 
L 53.609375 8.296875 
L 53.609375 0 
L 7.328125 0 
L 7.328125 8.296875 
Q 12.9375 14.109375 22.625 23.890625 
Q 32.328125 33.6875 34.8125 36.53125 
Q 39.546875 41.84375 41.421875 45.53125 
Q 43.3125 49.21875 43.3125 52.78125 
Q 43.3125 58.59375 39.234375 62.25 
Q 35.15625 65.921875 28.609375 65.921875 
Q 23.96875 65.921875 18.8125 64.3125 
Q 13.671875 62.703125 7.8125 59.421875 
L 7.8125 69.390625 
Q 13.765625 71.78125 18.9375 73 
Q 24.125 74.21875 28.421875 74.21875 
Q 39.75 74.21875 46.484375 68.546875 
Q 53.21875 62.890625 53.21875 53.421875 
Q 53.21875 48.921875 51.53125 44.890625 
Q 49.859375 40.875 45.40625 35.40625 
Q 44.1875 33.984375 37.640625 27.21875 
Q 31.109375 20.453125 19.1875 8.296875 
z
" id="DejaVuSans-32"/>
       <path d="M 31.78125 66.40625 
Q 24.171875 66.40625 20.328125 58.90625 
Q 16.5 51.421875 16.5 36.375 
Q 16.5 21.390625 20.328125 13.890625 
Q 24.171875 6.390625 31.78125 6.390625 
Q 39.453125 6.390625 43.28125 13.890625 
Q 47.125 21.390625 47.125 36.375 
Q 47.125 51.421875 43.28125 58.90625 
Q 39.453125 66.40625 31.78125 66.40625 
z
M 31.78125 74.21875 
Q 44.046875 74.21875 50.515625 64.515625 
Q 56.984375 54.828125 56.984375 36.375 
Q 56.984375 17.96875 50.515625 8.265625 
Q 44.046875 -1.421875 31.78125 -1.421875 
Q 19.53125 -1.421875 13.0625 8.265625 
Q 6.59375 17.96875 6.59375 36.375 
Q 6.59375 54.828125 13.0625 64.515625 
Q 19.53125 74.21875 31.78125 74.21875 
z
" id="DejaVuSans-30"/>
       <path d="M 40.578125 39.3125 
Q 47.65625 37.796875 51.625 33 
Q 55.609375 28.21875 55.609375 21.1875 
Q 55.609375 10.40625 48.1875 4.484375 
Q 40.765625 -1.421875 27.09375 -1.421875 
Q 22.515625 -1.421875 17.65625 -0.515625 
Q 12.796875 0.390625 7.625 2.203125 
L 7.625 11.71875 
Q 11.71875 9.328125 16.59375 8.109375 
Q 21.484375 6.890625 26.8125 6.890625 
Q 36.078125 6.890625 40.9375 10.546875 
Q 45.796875 14.203125 45.796875 21.1875 
Q 45.796875 27.640625 41.28125 31.265625 
Q 36.765625 34.90625 28.71875 34.90625 
L 20.21875 34.90625 
L 20.21875 43.015625 
L 29.109375 43.015625 
Q 36.375 43.015625 40.234375 45.921875 
Q 44.09375 48.828125 44.09375 54.296875 
Q 44.09375 59.90625 40.109375 62.90625 
Q 36.140625 65.921875 28.71875 65.921875 
Q 24.65625 65.921875 20.015625 65.03125 
Q 15.375 64.15625 9.8125 62.3125 
L 9.8125 71.09375 
Q 15.4375 72.65625 20.34375 73.4375 
Q 25.25 74.21875 29.59375 74.21875 
Q 40.828125 74.21875 47.359375 69.109375 
Q 53.90625 64.015625 53.90625 55.328125 
Q 53.90625 49.265625 50.4375 45.09375 
Q 46.96875 40.921875 40.578125 39.3125 
z
" id="DejaVuSans-33"/>
      </defs>
      <g style="fill:#555555;" transform="translate(79.091027 302.78544)rotate(-30)scale(0.1 -0.1)">
       <use xlink:href="#DejaVuSans-32"/>
       <use x="63.623047" xlink:href="#DejaVuSans-30"/>
       <use x="127.246094" xlink:href="#DejaVuSans-30"/>
       <use x="190.869141" xlink:href="#DejaVuSans-33"/>
      </g>
     </g>
    </g>
    <g id="xtick_2">
     <g id="line2d_3">
      <path clip-path="url(#p5fb68abe52)" d="M 146.864715 276.48 
L 146.864715 41.472 
" style="fill:none;stroke:#ffffff;stroke-linecap:square;stroke-width:0.8;"/>
     </g>
     <g id="line2d_4">
      <g>
       <use style="fill:#555555;stroke:#555555;stroke-width:0.8;" x="146.864715" xlink:href="#md2888bfa8b" y="276.48"/>
      </g>
     </g>
     <g id="text_2">
      <!-- 2005 -->
      <defs>
       <path d="M 10.796875 72.90625 
L 49.515625 72.90625 
L 49.515625 64.59375 
L 19.828125 64.59375 
L 19.828125 46.734375 
Q 21.96875 47.46875 24.109375 47.828125 
Q 26.265625 48.1875 28.421875 48.1875 
Q 40.625 48.1875 47.75 41.5 
Q 54.890625 34.8125 54.890625 23.390625 
Q 54.890625 11.625 47.5625 5.09375 
Q 40.234375 -1.421875 26.90625 -1.421875 
Q 22.3125 -1.421875 17.546875 -0.640625 
Q 12.796875 0.140625 7.71875 1.703125 
L 7.71875 11.625 
Q 12.109375 9.234375 16.796875 8.0625 
Q 21.484375 6.890625 26.703125 6.890625 
Q 35.15625 6.890625 40.078125 11.328125 
Q 45.015625 15.765625 45.015625 23.390625 
Q 45.015625 31 40.078125 35.4375 
Q 35.15625 39.890625 26.703125 39.890625 
Q 22.75 39.890625 18.8125 39.015625 
Q 14.890625 38.140625 10.796875 36.28125 
z
" id="DejaVuSans-35"/>
      </defs>
      <g style="fill:#555555;" transform="translate(123.784525 302.78544)rotate(-30)scale(0.1 -0.1)">
       <use xlink:href="#DejaVuSans-32"/>
       <use x="63.623047" xlink:href="#DejaVuSans-30"/>
       <use x="127.246094" xlink:href="#DejaVuSans-30"/>
       <use x="190.869141" xlink:href="#DejaVuSans-35"/>
      </g>
     </g>
    </g>
    <g id="xtick_3">
     <g id="line2d_5">
      <path clip-path="url(#p5fb68abe52)" d="M 191.497072 276.48 
L 191.497072 41.472 
" style="fill:none;stroke:#ffffff;stroke-linecap:square;stroke-width:0.8;"/>
     </g>
     <g id="line2d_6">
      <g>
       <use style="fill:#555555;stroke:#555555;stroke-width:0.8;" x="191.497072" xlink:href="#md2888bfa8b" y="276.48"/>
      </g>
     </g>
     <g id="text_3">
      <!-- 2007 -->
      <defs>
       <path d="M 8.203125 72.90625 
L 55.078125 72.90625 
L 55.078125 68.703125 
L 28.609375 0 
L 18.3125 0 
L 43.21875 64.59375 
L 8.203125 64.59375 
z
" id="DejaVuSans-37"/>
      </defs>
      <g style="fill:#555555;" transform="translate(168.416882 302.78544)rotate(-30)scale(0.1 -0.1)">
       <use xlink:href="#DejaVuSans-32"/>
       <use x="63.623047" xlink:href="#DejaVuSans-30"/>
       <use x="127.246094" xlink:href="#DejaVuSans-30"/>
       <use x="190.869141" xlink:href="#DejaVuSans-37"/>
      </g>
     </g>
    </g>
    <g id="xtick_4">
     <g id="line2d_7">
      <path clip-path="url(#p5fb68abe52)" d="M 236.19057 276.48 
L 236.19057 41.472 
" style="fill:none;stroke:#ffffff;stroke-linecap:square;stroke-width:0.8;"/>
     </g>
     <g id="line2d_8">
      <g>
       <use style="fill:#555555;stroke:#555555;stroke-width:0.8;" x="236.19057" xlink:href="#md2888bfa8b" y="276.48"/>
      </g>
     </g>
     <g id="text_4">
      <!-- 2009 -->
      <defs>
       <path d="M 10.984375 1.515625 
L 10.984375 10.5 
Q 14.703125 8.734375 18.5 7.8125 
Q 22.3125 6.890625 25.984375 6.890625 
Q 35.75 6.890625 40.890625 13.453125 
Q 46.046875 20.015625 46.78125 33.40625 
Q 43.953125 29.203125 39.59375 26.953125 
Q 35.25 24.703125 29.984375 24.703125 
Q 19.046875 24.703125 12.671875 31.3125 
Q 6.296875 37.9375 6.296875 49.421875 
Q 6.296875 60.640625 12.9375 67.421875 
Q 19.578125 74.21875 30.609375 74.21875 
Q 43.265625 74.21875 49.921875 64.515625 
Q 56.59375 54.828125 56.59375 36.375 
Q 56.59375 19.140625 48.40625 8.859375 
Q 40.234375 -1.421875 26.421875 -1.421875 
Q 22.703125 -1.421875 18.890625 -0.6875 
Q 15.09375 0.046875 10.984375 1.515625 
z
M 30.609375 32.421875 
Q 37.25 32.421875 41.125 36.953125 
Q 45.015625 41.5 45.015625 49.421875 
Q 45.015625 57.28125 41.125 61.84375 
Q 37.25 66.40625 30.609375 66.40625 
Q 23.96875 66.40625 20.09375 61.84375 
Q 16.21875 57.28125 16.21875 49.421875 
Q 16.21875 41.5 20.09375 36.953125 
Q 23.96875 32.421875 30.609375 32.421875 
z
" id="DejaVuSans-39"/>
      </defs>
      <g style="fill:#555555;" transform="translate(213.11038 302.78544)rotate(-30)scale(0.1 -0.1)">
       <use xlink:href="#DejaVuSans-32"/>
       <use x="63.623047" xlink:href="#DejaVuSans-30"/>
       <use x="127.246094" xlink:href="#DejaVuSans-30"/>
       <use x="190.869141" xlink:href="#DejaVuSans-39"/>
      </g>
     </g>
    </g>
    <g id="xtick_5">
     <g id="line2d_9">
      <path clip-path="url(#p5fb68abe52)" d="M 280.822928 276.48 
L 280.822928 41.472 
" style="fill:none;stroke:#ffffff;stroke-linecap:square;stroke-width:0.8;"/>
     </g>
     <g id="line2d_10">
      <g>
       <use style="fill:#555555;stroke:#555555;stroke-width:0.8;" x="280.822928" xlink:href="#md2888bfa8b" y="276.48"/>
      </g>
     </g>
     <g id="text_5">
      <!-- 2011 -->
      <defs>
       <path d="M 12.40625 8.296875 
L 28.515625 8.296875 
L 28.515625 63.921875 
L 10.984375 60.40625 
L 10.984375 69.390625 
L 28.421875 72.90625 
L 38.28125 72.90625 
L 38.28125 8.296875 
L 54.390625 8.296875 
L 54.390625 0 
L 12.40625 0 
z
" id="DejaVuSans-31"/>
      </defs>
      <g style="fill:#555555;" transform="translate(257.742737 302.78544)rotate(-30)scale(0.1 -0.1)">
       <use xlink:href="#DejaVuSans-32"/>
       <use x="63.623047" xlink:href="#DejaVuSans-30"/>
       <use x="127.246094" xlink:href="#DejaVuSans-31"/>
       <use x="190.869141" xlink:href="#DejaVuSans-31"/>
      </g>
     </g>
    </g>
    <g id="xtick_6">
     <g id="line2d_11">
      <path clip-path="url(#p5fb68abe52)" d="M 325.516425 276.48 
L 325.516425 41.472 
" style="fill:none;stroke:#ffffff;stroke-linecap:square;stroke-width:0.8;"/>
     </g>
     <g id="line2d_12">
      <g>
       <use style="fill:#555555;stroke:#555555;stroke-width:0.8;" x="325.516425" xlink:href="#md2888bfa8b" y="276.48"/>
      </g>
     </g>
     <g id="text_6">
      <!-- 2013 -->
      <g style="fill:#555555;" transform="translate(302.436235 302.78544)rotate(-30)scale(0.1 -0.1)">
       <use xlink:href="#DejaVuSans-32"/>
       <use x="63.623047" xlink:href="#DejaVuSans-30"/>
       <use x="127.246094" xlink:href="#DejaVuSans-31"/>
       <use x="190.869141" xlink:href="#DejaVuSans-33"/>
      </g>
     </g>
    </g>
    <g id="xtick_7">
     <g id="line2d_13">
      <path clip-path="url(#p5fb68abe52)" d="M 370.148783 276.48 
L 370.148783 41.472 
" style="fill:none;stroke:#ffffff;stroke-linecap:square;stroke-width:0.8;"/>
     </g>
     <g id="line2d_14">
      <g>
       <use style="fill:#555555;stroke:#555555;stroke-width:0.8;" x="370.148783" xlink:href="#md2888bfa8b" y="276.48"/>
      </g>
     </g>
     <g id="text_7">
      <!-- 2015 -->
      <g style="fill:#555555;" transform="translate(347.068592 302.78544)rotate(-30)scale(0.1 -0.1)">
       <use xlink:href="#DejaVuSans-32"/>
       <use x="63.623047" xlink:href="#DejaVuSans-30"/>
       <use x="127.246094" xlink:href="#DejaVuSans-31"/>
       <use x="190.869141" xlink:href="#DejaVuSans-35"/>
      </g>
     </g>
    </g>
    <g id="text_8">
     <!-- Date -->
     <defs>
      <path d="M 19.671875 64.796875 
L 19.671875 8.109375 
L 31.59375 8.109375 
Q 46.6875 8.109375 53.6875 14.9375 
Q 60.6875 21.78125 60.6875 36.53125 
Q 60.6875 51.171875 53.6875 57.984375 
Q 46.6875 64.796875 31.59375 64.796875 
z
M 9.8125 72.90625 
L 30.078125 72.90625 
Q 51.265625 72.90625 61.171875 64.09375 
Q 71.09375 55.28125 71.09375 36.53125 
Q 71.09375 17.671875 61.125 8.828125 
Q 51.171875 0 30.078125 0 
L 9.8125 0 
z
" id="DejaVuSans-44"/>
      <path d="M 34.28125 27.484375 
Q 23.390625 27.484375 19.1875 25 
Q 14.984375 22.515625 14.984375 16.5 
Q 14.984375 11.71875 18.140625 8.90625 
Q 21.296875 6.109375 26.703125 6.109375 
Q 34.1875 6.109375 38.703125 11.40625 
Q 43.21875 16.703125 43.21875 25.484375 
L 43.21875 27.484375 
z
M 52.203125 31.203125 
L 52.203125 0 
L 43.21875 0 
L 43.21875 8.296875 
Q 40.140625 3.328125 35.546875 0.953125 
Q 30.953125 -1.421875 24.3125 -1.421875 
Q 15.921875 -1.421875 10.953125 3.296875 
Q 6 8.015625 6 15.921875 
Q 6 25.140625 12.171875 29.828125 
Q 18.359375 34.515625 30.609375 34.515625 
L 43.21875 34.515625 
L 43.21875 35.40625 
Q 43.21875 41.609375 39.140625 45 
Q 35.0625 48.390625 27.6875 48.390625 
Q 23 48.390625 18.546875 47.265625 
Q 14.109375 46.140625 10.015625 43.890625 
L 10.015625 52.203125 
Q 14.9375 54.109375 19.578125 55.046875 
Q 24.21875 56 28.609375 56 
Q 40.484375 56 46.34375 49.84375 
Q 52.203125 43.703125 52.203125 31.203125 
z
" id="DejaVuSans-61"/>
      <path d="M 18.3125 70.21875 
L 18.3125 54.6875 
L 36.8125 54.6875 
L 36.8125 47.703125 
L 18.3125 47.703125 
L 18.3125 18.015625 
Q 18.3125 11.328125 20.140625 9.421875 
Q 21.96875 7.515625 27.59375 7.515625 
L 36.8125 7.515625 
L 36.8125 0 
L 27.59375 0 
Q 17.1875 0 13.234375 3.875 
Q 9.28125 7.765625 9.28125 18.015625 
L 9.28125 47.703125 
L 2.6875 47.703125 
L 2.6875 54.6875 
L 9.28125 54.6875 
L 9.28125 70.21875 
z
" id="DejaVuSans-74"/>
      <path d="M 56.203125 29.59375 
L 56.203125 25.203125 
L 14.890625 25.203125 
Q 15.484375 15.921875 20.484375 11.0625 
Q 25.484375 6.203125 34.421875 6.203125 
Q 39.59375 6.203125 44.453125 7.46875 
Q 49.3125 8.734375 54.109375 11.28125 
L 54.109375 2.78125 
Q 49.265625 0.734375 44.1875 -0.34375 
Q 39.109375 -1.421875 33.890625 -1.421875 
Q 20.796875 -1.421875 13.15625 6.1875 
Q 5.515625 13.8125 5.515625 26.8125 
Q 5.515625 40.234375 12.765625 48.109375 
Q 20.015625 56 32.328125 56 
Q 43.359375 56 49.78125 48.890625 
Q 56.203125 41.796875 56.203125 29.59375 
z
M 47.21875 32.234375 
Q 47.125 39.59375 43.09375 43.984375 
Q 39.0625 48.390625 32.421875 48.390625 
Q 24.90625 48.390625 20.390625 44.140625 
Q 15.875 39.890625 15.1875 32.171875 
z
" id="DejaVuSans-65"/>
     </defs>
     <g style="fill:#555555;" transform="translate(221.819063 317.704627)scale(0.12 -0.12)">
      <use xlink:href="#DejaVuSans-44"/>
      <use x="77.001953" xlink:href="#DejaVuSans-61"/>
      <use x="138.28125" xlink:href="#DejaVuSans-74"/>
      <use x="177.490234" xlink:href="#DejaVuSans-65"/>
     </g>
    </g>
   </g>
   <g id="matplotlib.axis_2">
    <g id="ytick_1">
     <g id="line2d_15">
      <path clip-path="url(#p5fb68abe52)" d="M 57.6 269.597504 
L 414.72 269.597504 
" style="fill:none;stroke:#ffffff;stroke-linecap:square;stroke-width:0.8;"/>
     </g>
     <g id="line2d_16">
      <defs>
       <path d="M 0 0 
L -3.5 0 
" id="mca725ce420" style="stroke:#555555;stroke-width:0.8;"/>
      </defs>
      <g>
       <use style="fill:#555555;stroke:#555555;stroke-width:0.8;" x="57.6" xlink:href="#mca725ce420" y="269.597504"/>
      </g>
     </g>
     <g id="text_9">
      <!-- 40 -->
      <defs>
       <path d="M 37.796875 64.3125 
L 12.890625 25.390625 
L 37.796875 25.390625 
z
M 35.203125 72.90625 
L 47.609375 72.90625 
L 47.609375 25.390625 
L 58.015625 25.390625 
L 58.015625 17.1875 
L 47.609375 17.1875 
L 47.609375 0 
L 37.796875 0 
L 37.796875 17.1875 
L 4.890625 17.1875 
L 4.890625 26.703125 
z
" id="DejaVuSans-34"/>
      </defs>
      <g style="fill:#555555;" transform="translate(37.875 273.396722)scale(0.1 -0.1)">
       <use xlink:href="#DejaVuSans-34"/>
       <use x="63.623047" xlink:href="#DejaVuSans-30"/>
      </g>
     </g>
    </g>
    <g id="ytick_2">
     <g id="line2d_17">
      <path clip-path="url(#p5fb68abe52)" d="M 57.6 218.935031 
L 414.72 218.935031 
" style="fill:none;stroke:#ffffff;stroke-linecap:square;stroke-width:0.8;"/>
     </g>
     <g id="line2d_18">
      <g>
       <use style="fill:#555555;stroke:#555555;stroke-width:0.8;" x="57.6" xlink:href="#mca725ce420" y="218.935031"/>
      </g>
     </g>
     <g id="text_10">
      <!-- 60 -->
      <defs>
       <path d="M 33.015625 40.375 
Q 26.375 40.375 22.484375 35.828125 
Q 18.609375 31.296875 18.609375 23.390625 
Q 18.609375 15.53125 22.484375 10.953125 
Q 26.375 6.390625 33.015625 6.390625 
Q 39.65625 6.390625 43.53125 10.953125 
Q 47.40625 15.53125 47.40625 23.390625 
Q 47.40625 31.296875 43.53125 35.828125 
Q 39.65625 40.375 33.015625 40.375 
z
M 52.59375 71.296875 
L 52.59375 62.3125 
Q 48.875 64.0625 45.09375 64.984375 
Q 41.3125 65.921875 37.59375 65.921875 
Q 27.828125 65.921875 22.671875 59.328125 
Q 17.53125 52.734375 16.796875 39.40625 
Q 19.671875 43.65625 24.015625 45.921875 
Q 28.375 48.1875 33.59375 48.1875 
Q 44.578125 48.1875 50.953125 41.515625 
Q 57.328125 34.859375 57.328125 23.390625 
Q 57.328125 12.15625 50.6875 5.359375 
Q 44.046875 -1.421875 33.015625 -1.421875 
Q 20.359375 -1.421875 13.671875 8.265625 
Q 6.984375 17.96875 6.984375 36.375 
Q 6.984375 53.65625 15.1875 63.9375 
Q 23.390625 74.21875 37.203125 74.21875 
Q 40.921875 74.21875 44.703125 73.484375 
Q 48.484375 72.75 52.59375 71.296875 
z
" id="DejaVuSans-36"/>
      </defs>
      <g style="fill:#555555;" transform="translate(37.875 222.73425)scale(0.1 -0.1)">
       <use xlink:href="#DejaVuSans-36"/>
       <use x="63.623047" xlink:href="#DejaVuSans-30"/>
      </g>
     </g>
    </g>
    <g id="ytick_3">
     <g id="line2d_19">
      <path clip-path="url(#p5fb68abe52)" d="M 57.6 168.272559 
L 414.72 168.272559 
" style="fill:none;stroke:#ffffff;stroke-linecap:square;stroke-width:0.8;"/>
     </g>
     <g id="line2d_20">
      <g>
       <use style="fill:#555555;stroke:#555555;stroke-width:0.8;" x="57.6" xlink:href="#mca725ce420" y="168.272559"/>
      </g>
     </g>
     <g id="text_11">
      <!-- 80 -->
      <defs>
       <path d="M 31.78125 34.625 
Q 24.75 34.625 20.71875 30.859375 
Q 16.703125 27.09375 16.703125 20.515625 
Q 16.703125 13.921875 20.71875 10.15625 
Q 24.75 6.390625 31.78125 6.390625 
Q 38.8125 6.390625 42.859375 10.171875 
Q 46.921875 13.96875 46.921875 20.515625 
Q 46.921875 27.09375 42.890625 30.859375 
Q 38.875 34.625 31.78125 34.625 
z
M 21.921875 38.8125 
Q 15.578125 40.375 12.03125 44.71875 
Q 8.5 49.078125 8.5 55.328125 
Q 8.5 64.0625 14.71875 69.140625 
Q 20.953125 74.21875 31.78125 74.21875 
Q 42.671875 74.21875 48.875 69.140625 
Q 55.078125 64.0625 55.078125 55.328125 
Q 55.078125 49.078125 51.53125 44.71875 
Q 48 40.375 41.703125 38.8125 
Q 48.828125 37.15625 52.796875 32.3125 
Q 56.78125 27.484375 56.78125 20.515625 
Q 56.78125 9.90625 50.3125 4.234375 
Q 43.84375 -1.421875 31.78125 -1.421875 
Q 19.734375 -1.421875 13.25 4.234375 
Q 6.78125 9.90625 6.78125 20.515625 
Q 6.78125 27.484375 10.78125 32.3125 
Q 14.796875 37.15625 21.921875 38.8125 
z
M 18.3125 54.390625 
Q 18.3125 48.734375 21.84375 45.5625 
Q 25.390625 42.390625 31.78125 42.390625 
Q 38.140625 42.390625 41.71875 45.5625 
Q 45.3125 48.734375 45.3125 54.390625 
Q 45.3125 60.0625 41.71875 63.234375 
Q 38.140625 66.40625 31.78125 66.40625 
Q 25.390625 66.40625 21.84375 63.234375 
Q 18.3125 60.0625 18.3125 54.390625 
z
" id="DejaVuSans-38"/>
      </defs>
      <g style="fill:#555555;" transform="translate(37.875 172.071777)scale(0.1 -0.1)">
       <use xlink:href="#DejaVuSans-38"/>
       <use x="63.623047" xlink:href="#DejaVuSans-30"/>
      </g>
     </g>
    </g>
    <g id="ytick_4">
     <g id="line2d_21">
      <path clip-path="url(#p5fb68abe52)" d="M 57.6 117.610086 
L 414.72 117.610086 
" style="fill:none;stroke:#ffffff;stroke-linecap:square;stroke-width:0.8;"/>
     </g>
     <g id="line2d_22">
      <g>
       <use style="fill:#555555;stroke:#555555;stroke-width:0.8;" x="57.6" xlink:href="#mca725ce420" y="117.610086"/>
      </g>
     </g>
     <g id="text_12">
      <!-- 100 -->
      <g style="fill:#555555;" transform="translate(31.5125 121.409305)scale(0.1 -0.1)">
       <use xlink:href="#DejaVuSans-31"/>
       <use x="63.623047" xlink:href="#DejaVuSans-30"/>
       <use x="127.246094" xlink:href="#DejaVuSans-30"/>
      </g>
     </g>
    </g>
    <g id="ytick_5">
     <g id="line2d_23">
      <path clip-path="url(#p5fb68abe52)" d="M 57.6 66.947614 
L 414.72 66.947614 
" style="fill:none;stroke:#ffffff;stroke-linecap:square;stroke-width:0.8;"/>
     </g>
     <g id="line2d_24">
      <g>
       <use style="fill:#555555;stroke:#555555;stroke-width:0.8;" x="57.6" xlink:href="#mca725ce420" y="66.947614"/>
      </g>
     </g>
     <g id="text_13">
      <!-- 120 -->
      <g style="fill:#555555;" transform="translate(31.5125 70.746832)scale(0.1 -0.1)">
       <use xlink:href="#DejaVuSans-31"/>
       <use x="63.623047" xlink:href="#DejaVuSans-32"/>
       <use x="127.246094" xlink:href="#DejaVuSans-30"/>
      </g>
     </g>
    </g>
   </g>
   <g id="line2d_25">
    <path clip-path="url(#p5fb68abe52)" d="M 57.6 239.20002 
L 57.66114 240.466582 
L 57.783421 247.511832 
L 57.966841 247.828472 
L 58.089122 245.611989 
L 58.211402 253.1322 
L 58.455963 251.628158 
L 58.517103 251.786478 
L 58.578243 253.607161 
L 58.639384 253.29052 
L 58.822804 250.282436 
L 58.945085 254.794562 
L 59.006225 256.140284 
L 59.067365 253.448841 
L 59.250786 253.765481 
L 59.311926 254.398762 
L 59.495347 251.232357 
L 59.678767 250.155782 
L 59.739908 251.954298 
L 59.801048 251.612331 
L 60.167889 247.432672 
L 60.229029 248.192606 
L 60.35131 252.498919 
L 60.595871 251.105704 
L 60.718151 248.16728 
L 60.779291 250.345769 
L 61.023852 249.649155 
L 61.084992 249.142528 
L 61.207273 245.152856 
L 61.451834 246.482751 
L 61.574114 250.852384 
L 61.635254 246.799391 
L 61.818675 248.445926 
L 62.002096 253.1322 
L 62.063236 253.1322 
L 62.246656 255.412016 
L 62.307797 254.588749 
L 62.368937 256.298605 
L 62.430077 261.871479 
L 62.491217 259.908303 
L 62.674638 260.09829 
L 62.735778 265.797818 
L 62.796918 265.164537 
L 62.919199 258.198447 
L 63.2249 261.846143 
L 63.28604 260.845556 
L 63.530601 255.85531 
L 63.591741 253.892135 
L 63.652881 255.019375 
L 63.714022 256.741899 
L 63.958582 255.032043 
L 64.080863 251.29569 
L 64.142003 252.802891 
L 64.203143 254.500089 
L 64.508844 253.740155 
L 64.631125 249.902462 
L 64.814545 249.459168 
L 64.997966 247.154026 
L 65.059106 248.357267 
L 65.242527 246.546084 
L 65.303667 246.672737 
L 65.364807 246.862724 
L 65.425948 246.482751 
L 65.487088 247.407346 
L 65.670508 247.496005 
L 65.731649 247.065369 
L 65.792789 247.432672 
L 65.915069 241.733144 
L 66.587612 247.749312 
L 66.709892 246.926045 
L 66.771032 248.116615 
L 66.954453 246.799391 
L 67.137874 240.339928 
L 67.504715 242.873052 
L 67.565855 241.403835 
L 67.626995 241.75847 
L 67.810416 240.466582 
L 67.932696 235.147027 
L 67.993837 235.906962 
L 68.054977 239.20002 
L 68.238398 239.833301 
L 68.421818 243.506333 
L 68.482958 239.174694 
L 68.666379 244.01296 
L 68.727519 241.226516 
L 68.8498 242.974379 
L 68.91094 242.797051 
L 69.094361 241.733144 
L 69.277781 235.425661 
L 69.338921 237.680151 
L 69.583482 236.514907 
L 69.644622 232.157939 
L 69.705763 232.360584 
L 69.766903 234.463081 
L 69.950324 233.525818 
L 70.133744 238.946713 
L 70.194884 236.160269 
L 70.439445 236.869551 
L 70.500586 233.880466 
L 70.561726 234.6404 
L 70.622866 235.906962 
L 70.806287 234.893707 
L 70.867427 237.553485 
L 70.928567 236.160269 
L 71.295408 229.067526 
L 71.356549 226.154428 
L 71.417689 227.623645 
L 71.478829 231.777968 
L 71.72339 234.133773 
L 71.78453 233.171183 
L 71.84567 234.007119 
L 71.90681 233.348502 
L 72.090231 232.867211 
L 72.334792 236.160269 
L 72.701633 227.800964 
L 72.762773 229.574153 
L 72.946194 229.82746 
L 73.374176 226.534402 
L 73.618737 242.999706 
L 73.802157 235.020361 
L 73.863297 238.161439 
L 74.046718 231.094022 
L 74.230139 230.587395 
L 74.352419 233.880466 
L 74.413559 231.600649 
L 74.4747 232.613904 
L 74.71926 229.700807 
L 74.902681 232.867211 
L 75.086102 231.220676 
L 75.330663 223.798623 
L 75.514083 223.469325 
L 75.575223 221.518817 
L 75.636364 221.82279 
L 75.758644 221.974782 
L 75.942065 223.621305 
L 76.003205 221.949446 
L 76.125485 225.065185 
L 76.186626 221.797463 
L 76.370046 221.164182 
L 76.431186 222.152098 
L 76.492327 221.468155 
L 76.553467 220.530902 
L 76.614607 221.468155 
L 76.859168 221.214847 
L 76.981448 218.30175 
L 77.042589 218.935031 
L 77.226009 219.416322 
L 77.287149 220.4549 
L 77.34829 217.668469 
L 77.47057 217.921777 
L 77.653991 217.136516 
L 77.898552 223.41866 
L 78.204253 225.318503 
L 78.326533 230.536742 
L 78.509954 227.800964 
L 78.571094 229.320833 
L 78.632234 229.067526 
L 78.693374 228.915536 
L 78.754515 227.67431 
L 78.937935 227.67431 
L 79.182496 221.82279 
L 79.365917 219.66964 
L 79.488197 221.316165 
L 79.610478 218.884369 
L 79.793898 219.694966 
L 80.038459 222.278754 
L 80.4053 227.370338 
L 80.466441 223.798623 
L 80.894422 219.365657 
L 81.138983 219.66964 
L 81.261263 224.001278 
L 81.322404 223.874625 
L 81.505824 225.242514 
L 81.566965 224.254586 
L 81.628105 226.027775 
L 81.689245 226.002449 
L 81.750385 225.875795 
L 81.933806 225.141187 
L 82.056086 230.334087 
L 82.361787 226.838374 
L 82.422928 226.407748 
L 82.484068 223.494651 
L 82.545208 224.001278 
L 82.606348 224.761213 
L 82.912049 225.293166 
L 83.21775 219.036359 
L 83.278891 219.694966 
L 83.645732 212.602222 
L 83.768012 214.400737 
L 83.890293 207.789282 
L 84.073713 209.663799 
L 84.134854 209.283828 
L 84.195994 209.689125 
L 84.257134 209.055844 
L 84.318274 206.77603 
L 84.501695 207.029358 
L 84.562835 206.902694 
L 84.623975 205.028187 
L 84.685116 208.042592 
L 84.746256 207.409311 
L 84.929676 206.649387 
L 84.990817 207.409311 
L 85.113097 205.914778 
L 85.357658 208.29592 
L 85.479938 207.029358 
L 85.602219 210.119761 
L 85.785639 211.842288 
L 85.84678 209.461144 
L 86.0302 212.095595 
L 86.213621 211.082353 
L 86.274761 211.33566 
L 86.397042 212.55156 
L 86.458182 207.029358 
L 86.641602 208.270583 
L 86.763883 210.854369 
L 86.825023 210.195752 
L 86.886163 210.727706 
L 87.069584 210.575726 
L 87.130724 211.538315 
L 87.191864 208.878528 
L 87.253005 209.435818 
L 87.314145 208.599882 
L 87.497565 209.689125 
L 87.619846 217.465814 
L 87.680986 217.035188 
L 87.925547 214.451402 
L 88.170108 219.694966 
L 88.353529 215.211337 
L 88.414669 217.288496 
L 88.536949 213.868784 
L 88.598089 214.502065 
L 88.84265 215.515319 
L 88.90379 215.236673 
L 88.964931 217.288496 
L 89.026071 214.806037 
L 89.209492 216.1486 
L 89.331772 221.012192 
L 89.392912 219.289666 
L 89.454052 224.254586 
L 89.698613 222.101436 
L 89.820894 227.42099 
L 89.882034 226.534402 
L 90.065455 227.015693 
L 90.126595 226.534402 
L 90.493436 236.413589 
L 90.554576 232.765884 
L 90.615716 238.946713 
L 90.676857 233.779138 
L 90.737997 234.513746 
L 90.982558 240.846556 
L 91.349399 232.613904 
L 91.47168 238.946713 
L 91.53282 246.546084 
L 91.59396 240.770554 
L 91.838521 245.786136 
L 91.899661 239.959955 
L 91.960801 242.189106 
L 92.021941 265.797818 
L 92.205362 265.544511 
L 92.633344 244.266267 
L 92.755624 242.113117 
L 92.816764 236.666896 
L 92.877904 238.946713 
L 93.061325 237.933458 
L 93.122465 242.366425 
L 93.183606 240.466582 
L 93.305886 233.880466 
L 93.489307 234.38708 
L 93.550447 233.880466 
L 93.611587 235.425661 
L 93.672727 229.067526 
L 93.733867 229.092852 
L 93.917288 231.575323 
L 93.978428 230.587395 
L 94.039569 230.866041 
L 94.100709 231.347342 
L 94.161849 228.560898 
L 94.34527 231.625975 
L 94.40641 229.219516 
L 94.589831 235.223016 
L 94.834391 234.437745 
L 94.895532 236.033616 
L 95.017812 231.347342 
L 95.201233 233.500492 
L 95.323513 228.434245 
L 95.445794 235.273681 
L 95.629214 233.779138 
L 95.690354 231.853957 
L 95.873775 239.301348 
L 96.057196 240.466582 
L 96.118336 239.453327 
L 96.301757 230.866041 
L 96.485177 233.500492 
L 96.546317 231.727303 
L 96.668598 222.86137 
L 96.729738 224.051941 
L 96.913159 226.661056 
L 97.035439 225.26784 
L 97.096579 230.334087 
L 97.15772 226.458411 
L 97.34114 227.26901 
L 97.524561 220.201593 
L 97.585701 220.4549 
L 97.769122 220.201593 
L 97.830262 217.237843 
L 98.013683 224.71055 
L 98.197103 224.051941 
L 98.319384 227.243674 
L 98.625085 220.201593 
L 98.686225 222.177427 
L 98.808505 218.225759 
L 98.869646 218.681724 
L 99.053066 218.251088 
L 99.175347 218.935031 
L 99.236487 217.997778 
L 99.297627 218.30175 
L 99.481048 219.188338 
L 99.603328 222.481409 
L 99.664468 218.935031 
L 99.725609 220.252255 
L 100.03131 226.914376 
L 100.15359 224.659885 
L 100.398151 229.82746 
L 100.459291 229.498152 
L 100.520431 226.686392 
L 100.581572 231.600649 
L 100.764992 231.397994 
L 100.948413 228.611563 
L 101.009553 231.448659 
L 101.192974 232.183268 
L 101.254114 231.727303 
L 101.376394 236.210934 
L 101.437535 234.260427 
L 101.620955 231.879295 
L 101.682096 233.500492 
L 101.804376 231.701977 
L 101.865516 234.767054 
L 102.048937 236.160269 
L 102.538059 226.281095 
L 102.599199 228.915536 
L 102.660339 228.130272 
L 102.721479 226.914376 
L 102.9049 226.027775 
L 102.96604 230.08078 
L 103.02718 227.547657 
L 103.149461 232.38592 
L 103.394022 230.840715 
L 103.455162 234.159099 
L 103.516302 232.993865 
L 103.577442 232.08194 
L 103.883143 238.566739 
L 103.944284 238.516077 
L 104.005424 238.946713 
L 104.188844 235.400335 
L 104.372265 238.921374 
L 104.433405 239.959955 
L 104.616826 240.694563 
L 104.677966 237.958784 
L 104.739106 239.706647 
L 104.800247 244.291594 
L 104.861387 240.947873 
L 105.228228 236.413589 
L 105.289368 237.984121 
L 105.472789 235.425661 
L 105.533929 239.554655 
L 105.595069 237.274851 
L 105.65621 239.225346 
L 105.71735 237.857467 
L 105.90077 236.261597 
L 106.023051 240.415919 
L 106.084191 237.680151 
L 106.145331 237.806805 
L 106.328752 232.740557 
L 106.389892 232.841885 
L 106.451032 232.867211 
L 106.512173 232.411249 
L 106.573313 229.928788 
L 106.756733 232.993865 
L 106.940154 226.103776 
L 107.001294 223.545316 
L 107.245855 227.800964 
L 107.306995 226.306421 
L 107.429276 229.067526 
L 107.612696 227.167683 
L 107.734977 223.317335 
L 107.857257 225.242514 
L 108.040678 224.406578 
L 108.162958 226.48374 
L 108.285239 224.71055 
L 108.468659 225.546486 
L 108.65208 232.867211 
L 108.896641 230.283425 
L 108.957781 232.23393 
L 109.141202 225.26784 
L 109.324622 228.307591 
L 109.385763 226.914376 
L 109.569183 229.194179 
L 109.752604 228.408919 
L 109.936025 226.509076 
L 109.997165 230.08078 
L 110.180586 228.839544 
L 110.241726 229.067526 
L 110.302866 229.396834 
L 110.425146 231.068696 
L 110.608567 229.82746 
L 110.853128 235.982953 
L 111.097689 237.426831 
L 111.219969 234.361754 
L 111.281109 235.273681 
L 111.46453 233.247185 
L 111.647951 237.933458 
L 111.709091 236.033616 
L 111.892512 237.933458 
L 112.137072 235.526988 
L 112.320493 236.666896 
L 112.503914 230.334087 
L 112.565054 231.980623 
L 112.748475 233.880466 
L 112.993035 241.099863 
L 113.176456 238.997365 
L 113.237596 239.959955 
L 113.359877 236.920204 
L 113.604438 236.084278 
L 113.787858 240.719889 
L 113.848998 240.593236 
L 114.093559 234.260427 
L 114.1547 238.440086 
L 114.21584 237.04687 
L 114.27698 238.060112 
L 114.460401 237.477496 
L 114.521541 240.973209 
L 114.582681 239.276011 
L 114.643821 237.933458 
L 114.704961 241.099863 
L 114.888382 239.807975 
L 115.010663 241.859797 
L 115.071803 240.213275 
L 115.132943 241.859797 
L 115.316364 243.177024 
L 115.377504 242.391751 
L 115.438644 244.291594 
L 115.499784 244.088949 
L 115.560924 239.20002 
L 115.988906 241.60649 
L 116.172327 242.062452 
L 116.233467 241.986451 
L 116.416888 245.558155 
L 116.600308 245.000876 
L 116.661448 245.102203 
L 116.844869 246.444756 
L 117.15057 244.266267 
L 117.272851 242.062452 
L 117.456271 241.783806 
L 117.578552 241.099863 
L 117.639692 238.440086 
L 117.700832 239.124029 
L 118.067673 243.75964 
L 118.128814 242.391751 
L 118.312234 244.01296 
L 118.373374 243.379679 
L 118.495655 245.634157 
L 118.556795 245.456838 
L 118.740216 246.343429 
L 118.984777 242.417087 
L 119.229337 244.16494 
L 119.290478 244.114277 
L 119.351618 243.75964 
L 119.412758 245.811475 
L 119.596179 245.026202 
L 119.718459 241.479836 
L 119.779599 242.999706 
L 119.84074 242.087779 
L 120.02416 242.746398 
L 120.0853 242.645071 
L 120.207581 244.392921 
L 120.268721 243.480997 
L 120.452142 243.379679 
L 120.513282 244.291594 
L 120.574422 242.999706 
L 120.635562 245.583492 
L 120.696703 245.279522 
L 120.880123 244.063612 
L 121.002404 246.926045 
L 121.063544 246.546084 
L 121.308105 247.306018 
L 121.369245 247.457998 
L 121.552666 242.543743 
L 121.919507 239.073366 
L 122.164068 243.936959 
L 122.225208 241.150525 
L 122.286348 242.442416 
L 122.408629 246.16611 
L 122.592049 243.506333 
L 122.71433 246.292764 
L 122.77547 246.115448 
L 122.83661 245.330174 
L 123.020031 245.887464 
L 123.081171 243.886294 
L 123.142311 244.240941 
L 123.203451 244.519575 
L 123.264592 247.331344 
L 123.448012 244.01296 
L 123.570293 246.039456 
L 123.631433 246.292764 
L 123.692573 243.75964 
L 123.875994 244.063612 
L 124.120555 242.847716 
L 124.303975 242.113117 
L 124.426256 240.998535 
L 124.731957 239.20002 
L 124.854237 240.086608 
L 124.976518 239.453327 
L 125.159938 240.491908 
L 125.221079 238.186766 
L 125.282219 238.744058 
L 125.343359 239.022701 
L 125.404499 240.491908 
L 125.64906 242.239771 
L 125.832481 235.906962 
L 126.015901 236.666896 
L 126.138182 235.653642 
L 126.199322 236.160269 
L 126.260462 234.589735 
L 126.443883 235.628316 
L 126.627304 232.740557 
L 126.688444 232.892537 
L 126.933005 233.855127 
L 127.116425 232.563239 
L 127.360986 232.917874 
L 127.544407 234.767054 
L 127.727827 235.425661 
L 127.788968 235.375009 
L 127.850108 234.260427 
L 127.911248 234.944372 
L 128.155809 232.892537 
L 128.278089 237.426831 
L 128.33923 236.540243 
L 128.40037 237.122859 
L 128.58379 235.577653 
L 128.767211 240.086608 
L 128.828351 241.35317 
L 129.011772 242.467752 
L 129.072912 242.315762 
L 129.134052 240.973209 
L 129.195193 241.935799 
L 129.256333 241.75847 
L 129.562034 245.406176 
L 129.684314 242.999706 
L 129.867735 243.227687 
L 129.990015 242.873052 
L 130.051156 241.60649 
L 130.112296 244.519575 
L 130.479137 239.833301 
L 130.723698 242.087779 
L 130.968259 232.436585 
L 131.27396 236.540243 
L 131.39624 235.299007 
L 131.579661 234.919044 
L 131.701941 233.500492 
L 131.763082 233.753799 
L 131.824222 234.057782 
L 132.007643 233.576483 
L 132.068783 232.157939 
L 132.129923 232.867211 
L 132.191063 234.032445 
L 132.252203 231.549987 
L 132.435624 232.183268 
L 132.496764 229.346172 
L 132.557904 231.600649 
L 132.619045 230.992695 
L 132.680185 232.765884 
L 132.863606 233.677811 
L 132.924746 231.929958 
L 132.985886 232.132603 
L 133.047026 233.525818 
L 133.108166 232.411249 
L 133.291587 231.625975 
L 133.352727 233.753799 
L 133.475008 229.954114 
L 133.536148 230.08078 
L 133.780709 231.018031 
L 133.964129 227.598309 
L 134.14755 227.724973 
L 134.269831 226.635729 
L 134.330971 227.167683 
L 134.575532 227.066355 
L 134.636672 227.167683 
L 134.758952 230.511406 
L 134.820092 230.359414 
L 135.003513 231.67664 
L 135.186934 230.106106 
L 135.431495 232.23393 
L 135.492635 231.67664 
L 135.553775 229.726133 
L 135.614915 230.714061 
L 135.676055 230.891377 
L 135.920616 231.170023 
L 136.042897 232.563239 
L 136.104037 231.853957 
L 136.287458 231.980623 
L 136.470878 228.940872 
L 136.532018 229.751469 
L 136.715439 224.811878 
L 136.89886 229.574153 
L 136.96 228.560898 
L 137.204561 230.79005 
L 137.265701 230.207434 
L 137.326841 229.979453 
L 137.387982 231.094022 
L 137.571402 231.600649 
L 137.754823 229.82746 
L 137.815963 231.04336 
L 138.060524 232.917874 
L 138.121664 232.360584 
L 138.243945 228.434245 
L 138.427365 230.23276 
L 138.610786 227.294337 
L 138.671926 227.370338 
L 139.038767 224.86254 
L 139.099908 225.014533 
L 139.283328 224.963868 
L 139.344468 225.242514 
L 139.405609 224.001278 
L 139.466749 224.811878 
L 139.527889 224.507906 
L 139.77245 223.874625 
L 139.89473 223.317335 
L 139.955871 225.495821 
L 140.383852 223.089351 
L 140.750693 226.534402 
L 140.811834 227.927617 
L 140.995254 228.180937 
L 141.178675 225.977112 
L 141.239815 228.07961 
L 141.606656 224.887867 
L 141.667797 230.536742 
L 141.851217 231.119358 
L 141.912357 230.334087 
L 141.973498 226.737057 
L 142.034638 227.82629 
L 142.095778 227.218345 
L 142.279199 228.560898 
L 142.52376 224.558568 
L 142.829461 226.559728 
L 142.951741 224.178597 
L 143.135162 223.11469 
L 143.196302 224.482569 
L 143.318582 220.834874 
L 143.379723 221.088181 
L 143.563143 220.70822 
L 143.807704 217.415162 
L 144.052265 216.1486 
L 144.174545 216.655215 
L 144.235686 216.351245 
L 144.419106 217.541816 
L 144.480247 216.807207 
L 144.541387 217.237843 
L 144.663667 218.175097 
L 144.847088 217.693795 
L 144.908228 218.681724 
L 144.969368 218.099095 
L 145.091649 214.527391 
L 145.275069 214.730046 
L 145.39735 216.579226 
L 145.51963 215.160672 
L 145.703051 217.719132 
L 145.764191 217.668469 
L 146.131032 209.866443 
L 146.253313 213.108849 
L 146.314453 211.209007 
L 146.559014 209.359826 
L 146.620154 209.410491 
L 146.681294 209.815791 
L 146.742435 209.562471 
L 146.803575 209.562471 
L 147.048136 211.082353 
L 147.170416 211.968941 
L 147.231556 211.386323 
L 147.414977 212.019604 
L 147.598398 210.955687 
L 147.659538 212.728876 
L 147.904099 213.286165 
L 147.965239 211.259669 
L 148.026379 211.791623 
L 148.087519 212.956857 
L 148.27094 214.248757 
L 148.33208 214.122091 
L 148.515501 207.839957 
L 148.698921 206.446732 
L 148.760062 207.257329 
L 148.882342 204.293579 
L 148.943482 205.078842 
L 149.188043 202.571055 
L 149.249183 202.824362 
L 149.371464 203.761626 
L 149.554884 202.191081 
L 149.677165 204.546889 
L 149.738305 204.496234 
L 149.799445 205.154834 
L 150.044006 206.142749 
L 150.227427 204.090924 
L 150.410847 203.558971 
L 150.655408 200.721867 
L 150.961109 198.416735 
L 151.02225 198.999341 
L 151.08339 198.644706 
L 151.26681 199.708633 
L 151.327951 199.075352 
L 151.450231 201.633792 
L 151.694792 200.569885 
L 151.755932 202.089754 
L 151.817072 201.633792 
L 151.878213 198.163425 
L 152.122773 198.087416 
L 152.550755 201.32983 
L 152.795316 194.971684 
L 153.039877 197.96077 
L 153.101017 197.530144 
L 153.162157 197.150173 
L 153.223297 193.882441 
L 153.406718 195.376974 
L 153.467858 193.933093 
L 153.651279 197.834106 
L 153.8347 196.136919 
L 153.95698 199.075352 
L 154.01812 198.416735 
L 154.07926 199.126004 
L 154.323821 196.592881 
L 154.384961 198.290069 
L 154.446102 198.036761 
L 154.507242 196.466217 
L 154.812943 199.126004 
L 154.874083 198.467387 
L 154.935223 200.823192 
L 155.118644 200.92452 
L 155.179784 200.392566 
L 155.240924 198.670042 
L 155.302065 199.80994 
L 155.363205 199.55663 
L 155.607766 200.443221 
L 155.730046 198.670042 
L 155.791186 199.936604 
L 156.035747 199.480642 
L 156.219168 201.633792 
L 156.402589 202.241757 
L 156.524869 201.583139 
L 156.586009 202.92569 
L 156.647149 202.469728 
L 156.83057 203.103008 
L 156.952851 202.343064 
L 157.013991 203.305663 
L 157.075131 201.836447 
L 157.319692 202.849701 
L 157.380832 202.089754 
L 157.503112 204.496234 
L 157.686533 204.952196 
L 157.747673 207.713293 
L 157.808814 203.862953 
L 157.869954 204.698869 
L 157.931094 206.725375 
L 158.175655 207.789282 
L 158.236795 206.52272 
L 158.359076 209.055844 
L 158.542496 208.093265 
L 158.603636 206.801366 
L 158.664777 207.231992 
L 158.725917 207.029358 
L 158.787057 207.358656 
L 158.970478 206.649387 
L 159.031618 207.409311 
L 159.153898 206.598711 
L 159.215039 207.789282 
L 159.398459 208.169256 
L 159.459599 211.74096 
L 159.52074 211.082353 
L 159.64302 207.080013 
L 159.826441 208.169256 
L 160.009861 206.92803 
L 160.071002 208.751882 
L 160.254422 209.967771 
L 160.315562 209.765126 
L 160.376703 208.397227 
L 160.437843 209.18251 
L 160.498983 208.726545 
L 160.804684 210.778371 
L 161.110385 208.802537 
L 161.354946 212.982196 
L 161.538367 214.426074 
L 161.721787 210.879698 
L 161.782928 210.449072 
L 162.027488 210.702379 
L 162.149769 206.269413 
L 162.210909 207.915948 
L 162.39433 206.953349 
L 162.57775 207.839957 
L 162.822311 205.788114 
L 162.944592 208.92919 
L 163.005732 207.637302 
L 163.066872 206.52272 
L 163.311433 209.055844 
L 163.433713 211.462314 
L 163.494854 209.055844 
L 164.106256 215.692635 
L 164.228536 215.312664 
L 164.289676 214.375411 
L 164.350817 208.726545 
L 164.595378 209.790452 
L 164.656518 211.082353 
L 164.717658 207.789282 
L 164.778798 208.042592 
L 164.962219 208.29592 
L 165.20678 213.74213 
L 165.3902 211.563641 
L 165.818182 217.668469 
L 165.879322 216.528561 
L 165.940462 216.604562 
L 166.062743 215.768627 
L 166.246163 216.224589 
L 166.368444 209.359826 
L 166.490724 209.435818 
L 166.796425 215.261999 
L 167.102126 211.968941 
L 167.163267 211.842288 
L 167.346687 214.8567 
L 167.530108 214.882038 
L 167.774669 218.935031 
L 167.958089 218.555058 
L 168.01923 218.605723 
L 168.08037 217.921777 
L 168.14151 218.555058 
L 168.20265 218.099095 
L 168.386071 215.008692 
L 168.447211 216.604562 
L 168.508351 216.45257 
L 168.569492 216.503235 
L 168.630632 215.641973 
L 168.875193 216.097935 
L 169.058613 218.681724 
L 169.303174 216.224589 
L 169.425455 212.424903 
L 169.486595 212.956857 
L 169.731156 212.55156 
L 169.792296 211.436988 
L 169.914576 214.122091 
L 170.159137 215.616637 
L 170.281418 213.108849 
L 170.342558 215.793953 
L 170.525978 217.035188 
L 170.587119 218.45374 
L 170.648259 216.401908 
L 170.709399 222.101436 
L 170.770539 221.594808 
L 170.95396 222.202763 
L 171.07624 224.837214 
L 171.137381 223.11469 
L 171.198521 225.875795 
L 171.381941 225.26784 
L 171.443082 226.534402 
L 171.504222 226.407748 
L 171.565362 221.088181 
L 171.626502 222.228089 
L 171.809923 223.038689 
L 171.993344 220.328247 
L 172.054484 221.012192 
L 172.299045 221.138846 
L 172.482465 222.253426 
L 172.849307 225.26784 
L 172.910447 225.141187 
L 173.093867 225.090522 
L 173.155008 225.191849 
L 173.277288 221.594808 
L 173.338428 222.354743 
L 173.521849 220.581567 
L 173.644129 221.088181 
L 173.76641 217.921777 
L 173.949831 217.921777 
L 174.010971 216.959197 
L 174.072111 218.175097 
L 174.133251 216.984526 
L 174.194391 217.26317 
L 174.561233 220.910865 
L 174.622373 220.328247 
L 174.805794 220.226919 
L 174.866934 220.784211 
L 174.989214 222.988024 
L 175.050354 222.86137 
L 175.294915 224.735887 
L 175.356055 224.381252 
L 175.417196 224.406578 
L 175.661757 224.811878 
L 175.722897 224.761213 
L 175.906317 222.734717 
L 176.089738 222.70939 
L 176.273159 223.494651 
L 176.334299 222.354743 
L 176.57886 222.050773 
L 176.70114 222.886707 
L 177.006841 222.228089 
L 177.067982 222.988024 
L 177.129122 222.329417 
L 177.190262 222.988024 
L 177.373683 221.544146 
L 177.557103 218.175097 
L 177.801664 219.745631 
L 177.985085 216.629889 
L 178.046225 216.807207 
L 178.290786 217.719132 
L 178.351926 218.580396 
L 178.413066 218.30175 
L 178.474206 217.161842 
L 178.657627 218.048443 
L 178.718767 217.820459 
L 178.902188 215.312664 
L 179.085609 215.261999 
L 179.146749 215.008692 
L 179.269029 216.021934 
L 179.51359 214.882038 
L 179.941572 219.948286 
L 180.002712 218.377741 
L 180.124992 220.834874 
L 180.186133 218.580396 
L 180.369553 218.605723 
L 180.491834 219.441658 
L 180.797535 216.781881 
L 180.858675 216.528561 
L 181.042096 218.14976 
L 181.225516 217.541816 
L 181.470077 214.70472 
L 181.653498 214.70472 
L 181.714638 215.135346 
L 182.081479 212.171596 
L 182.142619 212.906194 
L 182.32604 210.702379 
L 182.509461 210.702379 
L 182.631741 209.613136 
L 182.692881 210.423733 
L 182.754022 209.917108 
L 182.998582 208.802537 
L 183.120863 207.130665 
L 183.182003 207.814621 
L 183.426564 208.194592 
L 183.487704 208.802537 
L 183.609985 206.953349 
L 183.793405 206.801366 
L 183.854545 207.535975 
L 183.915686 206.978685 
L 183.976826 207.130665 
L 184.037966 206.598711 
L 184.282527 207.282668 
L 184.465948 210.043772 
L 184.649368 209.689125 
L 184.710508 208.903864 
L 184.771649 208.92919 
L 184.893929 209.815791 
L 185.13849 208.397227 
L 185.19963 207.789282 
L 185.321911 208.701209 
L 185.566471 207.789282 
L 185.933313 206.269413 
L 185.994453 206.117431 
L 186.055593 204.901524 
L 186.116733 205.509468 
L 186.177874 206.244077 
L 186.422435 206.674723 
L 186.483575 206.548059 
L 186.605855 204.394907 
L 186.789276 206.142749 
L 186.911556 202.013765 
L 187.033837 197.656788 
L 187.217257 197.783454 
L 187.400678 196.719545 
L 187.706379 199.176659 
L 187.828659 200.823192 
L 187.8898 198.670042 
L 188.07322 198.087416 
L 188.134361 198.239416 
L 188.195501 198.594051 
L 188.256641 199.885949 
L 188.317781 203.736289 
L 188.501202 203.103008 
L 188.562342 205.205506 
L 188.623482 202.317745 
L 188.684622 202.469728 
L 188.745763 202.115093 
L 188.929183 199.733949 
L 189.051464 202.444391 
L 189.173744 202.469728 
L 189.357165 205.002851 
L 189.418305 204.876187 
L 189.540586 203.229672 
L 189.601726 203.96426 
L 189.785146 202.748374 
L 189.846287 202.849701 
L 190.029707 203.989597 
L 190.213128 203.837617 
L 190.274268 204.293579 
L 190.335408 204.242907 
L 190.396549 204.293579 
L 190.457689 202.723035 
L 190.641109 203.179 
L 190.76339 202.089754 
L 190.88567 204.293579 
L 191.130231 204.749544 
L 191.313652 203.305663 
L 191.619353 203.406991 
L 191.680493 203.989597 
L 191.741633 201.709783 
L 191.925054 202.444391 
L 191.986194 202.21642 
L 192.047334 202.317745 
L 192.108475 202.723035 
L 192.169615 202.596391 
L 192.414176 202.089754 
L 192.475316 202.21642 
L 192.536456 202.571055 
L 192.597596 198.670042 
L 192.781017 198.670042 
L 192.903297 202.697699 
L 192.964438 201.684464 
L 193.025578 202.013765 
L 193.270139 203.356316 
L 193.453559 201.203166 
L 193.820401 204.344234 
L 193.881541 204.090924 
L 194.064961 204.445561 
L 194.126102 205.230822 
L 194.187242 204.850869 
L 194.248382 204.36957 
L 194.309522 204.622878 
L 194.615223 205.610796 
L 195.043205 210.651717 
L 195.165485 213.108849 
L 195.348906 215.261999 
L 195.410046 213.48881 
L 195.471186 214.755372 
L 195.593467 213.412822 
L 195.776888 213.235503 
L 195.960308 217.161842 
L 196.021448 217.491151 
L 196.266009 217.26317 
L 196.44943 215.768627 
L 196.632851 216.908535 
L 196.755131 218.935031 
L 196.877411 217.845788 
L 197.060832 218.276424 
L 197.244253 215.540645 
L 197.488814 214.882038 
L 197.549954 215.034018 
L 197.611094 215.084683 
L 197.672234 215.008692 
L 197.733374 213.48881 
L 197.916795 212.627548 
L 197.977935 205.509468 
L 198.039076 207.662639 
L 198.161356 205.129515 
L 198.344777 206.269413 
L 198.405917 205.889439 
L 198.589337 208.7772 
L 198.772758 208.802537 
L 198.833898 207.459984 
L 198.895039 208.7772 
L 198.956179 207.308004 
L 199.017319 207.383992 
L 199.32302 209.714464 
L 199.38416 208.7772 
L 199.4453 213.108849 
L 199.628721 211.33566 
L 199.689861 213.89411 
L 199.751002 211.89295 
L 200.056703 209.18251 
L 200.117843 209.942445 
L 200.178983 209.385155 
L 200.240123 209.410491 
L 200.301263 209.866443 
L 200.668105 211.33566 
L 200.729245 210.449072 
L 200.912666 211.209007 
L 200.973806 210.322406 
L 201.034946 210.829033 
L 201.157227 213.74213 
L 201.340647 211.614306 
L 201.462928 214.096765 
L 201.768629 211.715634 
L 201.952049 214.096765 
L 202.01319 214.248757 
L 202.19661 216.401908 
L 202.380031 215.135346 
L 203.052573 212.956857 
L 203.113713 212.044932 
L 203.174854 213.362157 
L 203.297134 210.14509 
L 203.480555 210.398407 
L 203.663975 212.982196 
L 203.725116 212.880868 
L 204.030817 215.186008 
L 204.336518 219.11235 
L 204.397658 215.515319 
L 204.458798 217.643143 
L 204.581079 215.135346 
L 204.764499 218.14976 
L 204.88678 213.89411 
L 204.94792 213.868784 
L 205.00906 217.161842 
L 205.253621 215.11002 
L 205.375901 216.908535 
L 205.437042 212.627548 
L 205.681602 214.958027 
L 205.742743 214.628718 
L 205.803883 213.48881 
L 205.865023 214.476739 
L 206.109584 214.882038 
L 206.231864 215.515319 
L 206.293005 213.919446 
L 206.537565 214.806037 
L 206.598706 214.248757 
L 206.659846 214.628718 
L 206.720986 215.11002 
L 207.026687 213.868784 
L 207.148968 211.360986 
L 207.332388 211.284998 
L 207.393529 211.411651 
L 207.576949 206.52272 
L 207.76037 206.320068 
L 207.82151 206.77603 
L 208.004931 204.876187 
L 208.188351 204.597541 
L 208.249492 203.330979 
L 208.310632 204.065588 
L 208.432912 202.976345 
L 208.616333 203.103008 
L 208.677473 203.482982 
L 208.738613 203.052354 
L 208.799753 203.786944 
L 208.860894 203.305663 
L 209.105455 204.318915 
L 209.227735 205.661468 
L 209.288875 207.33332 
L 209.472296 208.042592 
L 209.655716 207.73863 
L 209.716857 208.346574 
L 209.900277 207.662639 
L 210.022558 206.700039 
L 210.144838 206.953349 
L 210.328259 208.7772 
L 210.389399 207.561311 
L 210.450539 208.549229 
L 210.57282 209.18251 
L 210.878521 200.696549 
L 210.939661 201.81111 
L 211.000801 200.696549 
L 211.184222 200.037931 
L 211.245362 199.100668 
L 211.306502 201.203166 
L 211.428783 200.189911 
L 211.612203 201.836447 
L 211.795624 198.695378 
L 211.856764 197.302153 
L 212.101325 200.088586 
L 212.162465 200.063268 
L 212.284746 197.40348 
L 212.468166 199.353978 
L 212.529307 199.201996 
L 212.590447 198.670042 
L 212.651587 199.936604 
L 212.712727 199.733949 
L 212.896148 200.113923 
L 212.957288 198.923349 
L 213.018428 199.708633 
L 213.079569 199.480642 
L 213.140709 200.316578 
L 213.324129 199.657958 
L 213.44641 198.720697 
L 213.50755 200.949858 
L 213.56869 199.303323 
L 213.752111 200.468557 
L 213.996672 204.445561 
L 214.180092 204.344234 
L 214.363513 200.113923 
L 214.424653 200.341914 
L 214.608074 197.935434 
L 214.730354 200.36723 
L 214.791495 197.732779 
L 214.852635 198.264732 
L 215.097196 207.105349 
L 215.158336 206.269413 
L 215.464037 212.196922 
L 215.525177 210.474398 
L 215.586317 211.411651 
L 215.647458 214.223419 
L 215.708598 210.449072 
L 215.892018 210.373071 
L 215.953159 209.511809 
L 216.075439 211.816951 
L 216.136579 211.715634 
L 216.32 213.539475 
L 216.38114 213.514149 
L 216.503421 210.575726 
L 216.564561 212.171596 
L 216.870262 209.663799 
L 216.931402 210.373071 
L 216.992542 211.943615 
L 217.237103 209.638472 
L 217.420524 212.095595 
L 217.603945 213.868784 
L 217.665085 213.615477 
L 217.787365 211.462314 
L 217.848505 213.716794 
L 218.031926 214.654055 
L 218.093066 214.476739 
L 218.276487 210.398407 
L 218.459908 214.780711 
L 218.582188 205.281497 
L 218.643328 206.345404 
L 218.887889 205.864103 
L 218.949029 206.446732 
L 219.010169 208.270583 
L 219.13245 206.674723 
L 219.315871 208.067928 
L 219.438151 204.116263 
L 219.499291 206.77603 
L 219.560431 205.661468 
L 219.804992 203.786944 
L 219.927273 203.077672 
L 220.171834 203.761626 
L 220.232974 204.673553 
L 220.294114 204.268243 
L 220.355254 204.648216 
L 220.416394 203.558971 
L 220.599815 203.103008 
L 220.660955 203.584307 
L 220.844376 199.759285 
L 221.088937 200.569885 
L 221.150077 200.063268 
L 221.211217 200.873867 
L 221.455778 198.568715 
L 221.700339 202.419073 
L 221.88376 202.241757 
L 221.9449 201.836447 
L 222.00604 202.267073 
L 222.06718 201.253821 
L 222.12832 201.431137 
L 222.434022 202.748374 
L 222.556302 205.433477 
L 222.800863 206.725375 
L 222.862003 205.788114 
L 222.923143 207.130665 
L 222.984284 202.495064 
L 223.228844 202.191081 
L 223.289985 201.96311 
L 223.351125 202.064418 
L 223.412265 202.267073 
L 223.595686 204.040272 
L 223.656826 205.73746 
L 223.717966 204.977515 
L 223.779106 205.661468 
L 223.840247 204.293579 
L 224.084807 203.634962 
L 224.268228 208.067928 
L 224.451649 208.29592 
L 224.512789 208.549229 
L 224.573929 206.700039 
L 224.635069 207.080013 
L 224.87963 209.967771 
L 224.94077 209.435818 
L 225.001911 206.421395 
L 225.063051 207.915948 
L 225.368752 205.889439 
L 225.429892 203.356316 
L 225.491032 203.584307 
L 225.552173 202.951026 
L 225.735593 202.62171 
L 225.919014 197.555463 
L 225.980154 199.303323 
L 226.163575 198.720697 
L 226.224715 201.152511 
L 226.408136 196.440901 
L 226.591556 196.238246 
L 226.774977 199.176659 
L 226.836117 197.40348 
L 227.019538 198.21408 
L 227.264099 191.653297 
L 227.5698 189.373483 
L 227.69208 191.526634 
L 227.875501 189.525463 
L 227.936641 191.957259 
L 227.997781 190.614709 
L 228.058921 191.881271 
L 228.120062 190.944007 
L 228.303482 190.43739 
L 228.425763 191.779943 
L 228.486903 189.854764 
L 228.548043 190.614709 
L 228.792604 190.8427 
L 228.853744 189.373483 
L 228.914884 189.829446 
L 228.976025 192.615879 
L 229.220586 188.765519 
L 229.281726 189.424136 
L 229.342866 191.273326 
L 229.404006 190.918689 
L 229.648567 194.566374 
L 229.709707 194.135748 
L 229.770847 193.097178 
L 229.831988 188.917521 
L 230.137689 198.036761 
L 230.198829 197.276817 
L 230.259969 196.719545 
L 230.44339 196.618217 
L 230.50453 199.936604 
L 230.56567 195.9596 
L 230.62681 198.77137 
L 230.687951 198.670042 
L 230.993652 214.780711 
L 231.054792 212.247587 
L 231.115932 230.587395 
L 231.299353 222.836044 
L 231.360493 202.469728 
L 231.421633 208.017273 
L 231.482773 217.060515 
L 231.543914 211.462314 
L 231.788475 209.537145 
L 231.971895 221.468155 
L 232.216456 215.287336 
L 232.277596 210.398407 
L 232.338737 212.982196 
L 232.399877 216.807207 
L 232.644438 214.29941 
L 232.705578 214.502065 
L 232.827858 222.836044 
L 233.011279 216.401908 
L 233.1947 222.988024 
L 233.25584 215.084683 
L 233.500401 222.025444 
L 233.561541 217.820459 
L 233.683821 227.851626 
L 233.928382 218.960357 
L 233.989522 224.963868 
L 234.111803 222.810708 
L 234.295223 224.86254 
L 234.417504 228.864871 
L 234.478644 225.470495 
L 234.539784 229.42216 
L 234.723205 221.290836 
L 234.784345 221.594808 
L 234.845485 221.924117 
L 234.967766 226.002449 
L 235.151186 224.685222 
L 235.395747 220.074939 
L 235.701448 221.974782 
L 235.823729 221.873455 
L 236.06829 222.785379 
L 236.25171 218.605723 
L 236.435131 217.871124 
L 236.496271 218.099095 
L 236.557411 220.8602 
L 236.618552 219.796293 
L 236.679692 221.11352 
L 236.863112 221.2655 
L 237.046533 223.773297 
L 237.107673 223.82396 
L 237.352234 227.775638 
L 237.413374 225.039859 
L 237.535655 228.687552 
L 237.719076 228.560898 
L 237.841356 223.41866 
L 237.963636 223.545316 
L 238.147057 225.901121 
L 238.269337 222.202763 
L 238.330478 224.178597 
L 238.391618 223.342671 
L 238.575039 222.836044 
L 238.697319 226.838374 
L 238.758459 226.737057 
L 238.819599 224.735887 
L 239.1253 229.82746 
L 239.186441 228.408919 
L 239.247581 231.575323 
L 239.431002 233.703147 
L 239.492142 232.613904 
L 239.553282 233.323173 
L 239.614422 232.892537 
L 239.675562 240.238601 
L 239.981263 249.889804 
L 240.042404 248.547244 
L 240.103544 250.345769 
L 240.286965 250.700404 
L 240.348105 251.28302 
L 240.531525 245.076867 
L 240.714946 241.403835 
L 240.837227 242.518415 
L 241.204068 236.692223 
L 241.265208 236.717559 
L 241.326348 236.464242 
L 241.387488 237.452167 
L 241.570909 237.832131 
L 241.632049 235.754969 
L 241.69319 238.440086 
L 241.75433 235.932288 
L 241.81547 236.666896 
L 242.121171 240.365254 
L 242.182311 239.225346 
L 242.426872 241.0492 
L 242.488012 239.225346 
L 242.549153 239.731974 
L 242.610293 239.428001 
L 242.671433 237.933458 
L 242.854854 236.236271 
L 243.038274 240.770554 
L 243.099414 239.807975 
L 243.282835 240.922544 
L 243.343975 242.290433 
L 243.405116 241.60649 
L 243.955378 231.423331 
L 244.199938 232.917874 
L 244.68906 228.510236 
L 244.811341 231.347342 
L 245.055901 232.38592 
L 245.117042 230.486077 
L 245.178182 233.500492 
L 245.239322 232.63923 
L 245.606163 228.155599 
L 245.667304 229.548817 
L 245.850724 229.776798 
L 245.911864 228.991534 
L 245.973005 229.016863 
L 246.034145 229.954114 
L 246.095285 229.371498 
L 246.278706 229.472825 
L 246.400986 232.411249 
L 246.523267 228.307591 
L 246.767827 230.23276 
L 246.828968 230.942042 
L 246.890108 230.815378 
L 246.951248 228.535572 
L 247.134669 227.522318 
L 247.195809 225.951784 
L 247.256949 226.990364 
L 247.318089 227.218345 
L 247.56265 228.788879 
L 247.746071 226.281095 
L 247.807211 228.206264 
L 247.990632 226.762383 
L 248.235193 220.049603 
L 248.418613 220.30292 
L 248.479753 220.632219 
L 248.540894 220.328247 
L 248.602034 220.809548 
L 248.846595 215.160672 
L 248.968875 217.060515 
L 249.091156 214.29941 
L 249.335716 216.021934 
L 249.396857 215.920617 
L 249.519137 219.036359 
L 249.702558 218.732376 
L 249.763698 217.212507 
L 249.824838 218.276424 
L 249.885978 217.187178 
L 249.947119 217.871124 
L 250.130539 219.948286 
L 250.3751 216.173926 
L 250.558521 215.945945 
L 250.619661 216.351245 
L 250.680801 215.7433 
L 250.741941 217.491151 
L 250.803082 217.035188 
L 250.986502 218.833704 
L 251.047643 218.048443 
L 251.108783 219.770967 
L 251.169923 219.340331 
L 251.231063 219.644303 
L 251.597904 216.30058 
L 251.659045 217.161842 
L 251.842465 218.073769 
L 251.903606 217.592478 
L 252.025886 218.428404 
L 252.087026 216.30058 
L 252.270447 217.795123 
L 252.392727 215.996608 
L 252.515008 217.491151 
L 252.698428 217.161842 
L 252.759569 215.692635 
L 252.820709 216.351245 
L 252.881849 216.579226 
L 252.942989 219.390993 
L 253.12641 219.441658 
L 253.554391 214.14743 
L 253.737812 217.845788 
L 253.798952 217.491151 
L 253.982373 217.389823 
L 254.043513 215.616637 
L 254.165794 218.555058 
L 254.226934 216.756542 
L 254.410354 217.187178 
L 254.654915 219.66964 
L 254.838336 221.088181 
L 254.899476 218.833704 
L 254.960616 221.138846 
L 255.021757 219.416322 
L 255.266317 217.871124 
L 255.388598 216.655215 
L 255.449738 217.313835 
L 255.510878 216.173926 
L 255.694299 215.261999 
L 255.87772 213.260829 
L 255.93886 214.324746 
L 256.183421 211.512979 
L 256.244561 210.373071 
L 256.366841 212.55156 
L 256.611402 211.462314 
L 256.794823 206.92803 
L 257.100524 207.789282 
L 257.406225 205.762796 
L 257.589646 207.687957 
L 257.650786 206.902694 
L 257.834206 207.18134 
L 257.895347 208.017273 
L 257.956487 207.434647 
L 258.017627 207.054676 
L 258.262188 206.52272 
L 258.323328 206.041442 
L 258.384468 206.826703 
L 258.445609 205.965431 
L 258.75131 207.33332 
L 258.81245 209.055844 
L 258.87359 208.169256 
L 258.93473 209.005192 
L 259.118151 206.902694 
L 259.179291 208.473238 
L 259.240431 207.434647 
L 259.301572 205.762796 
L 259.362712 205.914778 
L 259.607273 208.447902 
L 259.668413 205.078842 
L 259.729553 206.092094 
L 259.790693 209.030518 
L 259.974114 209.638472 
L 260.035254 212.247587 
L 260.096394 211.89295 
L 260.218675 208.92919 
L 260.463236 210.829033 
L 260.524376 209.131845 
L 260.585516 210.094425 
L 260.646656 212.120931 
L 260.830077 212.602222 
L 260.891217 212.475568 
L 260.952357 211.867614 
L 261.013498 212.29825 
L 261.074638 212.323576 
L 261.380339 209.73979 
L 261.502619 208.422563 
L 261.80832 209.942445 
L 261.869461 211.867614 
L 261.930601 210.170426 
L 262.114022 210.651717 
L 262.175162 210.550389 
L 262.358582 209.663799 
L 262.542003 208.599882 
L 262.603143 207.409311 
L 262.664284 207.561311 
L 262.725424 208.422563 
L 262.786564 208.143919 
L 262.969985 208.447902 
L 263.092265 206.978685 
L 263.153405 207.33332 
L 263.214545 205.990767 
L 263.397966 206.092094 
L 263.520247 205.48415 
L 263.642527 207.080013 
L 263.825948 207.637302 
L 264.009368 205.33215 
L 264.253929 204.318915 
L 264.315069 205.940115 
L 264.37621 205.661468 
L 264.43735 205.788114 
L 264.49849 206.573395 
L 264.681911 205.990767 
L 264.743051 206.117431 
L 264.804191 205.18017 
L 264.865331 205.534805 
L 264.926471 205.408161 
L 265.109892 206.117431 
L 265.171032 203.660298 
L 265.232173 203.786944 
L 265.354453 207.004021 
L 265.537874 206.294749 
L 265.660154 207.713293 
L 265.782435 205.940115 
L 265.965855 205.864103 
L 266.026995 206.092094 
L 266.088136 207.33332 
L 266.149276 206.168086 
L 266.210416 210.677053 
L 266.393837 206.497384 
L 266.454977 208.219911 
L 266.516117 206.649387 
L 266.577257 206.674723 
L 266.638398 207.004021 
L 266.821818 208.650554 
L 267.005239 214.324746 
L 267.066379 219.492321 
L 267.2498 217.364497 
L 267.31094 219.66964 
L 267.37208 216.832533 
L 267.494361 222.177427 
L 267.738921 223.469325 
L 267.861202 219.213677 
L 267.922342 221.569482 
L 268.166903 223.621305 
L 268.228043 221.974782 
L 268.289183 222.177427 
L 268.350324 223.570652 
L 268.717165 220.758883 
L 268.778305 221.012192 
L 268.961726 220.201593 
L 269.145146 221.392164 
L 269.206287 219.289666 
L 269.450847 221.518817 
L 269.573128 221.290836 
L 269.634268 220.404248 
L 269.878829 220.201593 
L 269.939969 220.632219 
L 270.06225 216.477899 
L 270.367951 218.529731 
L 270.429091 217.364497 
L 270.490231 218.935031 
L 270.673652 219.644303 
L 270.857072 225.445159 
L 270.918213 225.82513 
L 271.162773 224.127932 
L 271.223914 223.646644 
L 271.285054 223.747971 
L 271.346194 224.938532 
L 271.713035 220.125602 
L 271.774176 220.15093 
L 271.957596 218.935031 
L 272.141017 223.621305 
L 272.202157 222.760043 
L 272.385578 224.026605 
L 272.507858 220.30292 
L 272.568998 221.037529 
L 272.630139 222.228089 
L 272.813559 221.518817 
L 273.05812 225.394494 
L 273.241541 225.014533 
L 273.302681 225.901121 
L 273.486102 221.848128 
L 273.730663 221.974782 
L 273.791803 222.937372 
L 273.914083 219.087021 
L 274.097504 218.783041 
L 274.342065 214.907365 
L 274.525485 214.755372 
L 274.647766 213.919446 
L 274.708906 214.806037 
L 274.770046 213.919446 
L 274.953467 213.311494 
L 275.014607 213.970111 
L 275.136888 212.627548 
L 275.381448 215.034018 
L 275.626009 210.373071 
L 275.80943 210.677053 
L 275.87057 211.006352 
L 276.053991 208.853199 
L 276.237411 209.587807 
L 276.298552 211.614306 
L 276.359692 210.525061 
L 276.481972 208.599882 
L 276.665393 208.701209 
L 276.787673 209.866443 
L 276.848814 208.954527 
L 276.909954 209.714464 
L 277.215655 208.827863 
L 277.337935 206.902694 
L 277.582496 207.611966 
L 277.765917 209.587807 
L 277.949337 208.52389 
L 278.071618 211.006352 
L 278.132758 210.14509 
L 278.193898 209.081183 
L 278.377319 210.069098 
L 278.438459 211.360986 
L 278.499599 211.259669 
L 278.866441 215.186008 
L 279.049861 212.576896 
L 279.233282 213.083513 
L 279.294422 212.450232 
L 279.355562 213.311494 
L 279.416703 212.779541 
L 279.661263 214.29941 
L 279.722404 213.792793 
L 279.783544 211.512979 
L 279.844684 211.968941 
L 279.905824 213.235503 
L 280.150385 211.867614 
L 280.272666 213.818121 
L 280.517227 213.387493 
L 280.578367 213.716794 
L 280.639507 213.564812 
L 280.700647 213.615477 
L 280.761787 214.122091 
L 281.128629 210.246417 
L 281.189769 210.829033 
L 281.43433 213.311494 
L 281.61775 211.462314 
L 281.923451 213.74213 
L 282.045732 210.702379 
L 282.229153 212.450232 
L 282.290293 216.680554 
L 282.351433 215.945945 
L 282.412573 217.313835 
L 282.473713 216.629889 
L 282.718274 219.694966 
L 282.901695 216.553897 
L 283.085116 216.70588 
L 283.146256 216.553897 
L 283.207396 216.579226 
L 283.268536 217.313835 
L 283.329676 217.060515 
L 283.513097 217.187178 
L 283.696518 217.997778 
L 283.757658 216.680554 
L 284.002219 217.212507 
L 284.063359 217.009862 
L 284.185639 219.137686 
L 284.36906 219.11235 
L 284.4302 215.768627 
L 284.491341 217.668469 
L 284.613621 215.667299 
L 284.797042 216.173926 
L 285.041602 220.8602 
L 285.225023 220.226919 
L 285.408444 223.469325 
L 285.469584 222.582727 
L 285.653005 222.304091 
L 285.897565 221.442829 
L 286.142126 221.518817 
L 286.325547 219.872284 
L 286.508968 220.201593 
L 286.570108 219.568312 
L 286.631248 219.694966 
L 286.753529 219.618975 
L 286.936949 220.100265 
L 287.05923 219.796293 
L 287.12037 220.074939 
L 287.18151 218.327076 
L 287.364931 217.795123 
L 287.548351 209.283828 
L 287.792912 209.689125 
L 287.854052 208.625218 
L 287.915193 210.195752 
L 288.037473 204.77488 
L 288.282034 203.457643 
L 288.343174 203.736289 
L 288.465455 205.636132 
L 288.648875 205.990767 
L 288.893436 200.975195 
L 289.199137 203.305663 
L 289.260277 202.393736 
L 289.321418 203.103008 
L 289.504838 205.788114 
L 289.627119 203.001681 
L 289.688259 204.77488 
L 289.749399 204.268243 
L 289.99396 200.417902 
L 290.0551 201.152511 
L 290.177381 204.141599 
L 290.360801 204.065588 
L 290.421941 203.736289 
L 290.483082 205.028187 
L 290.605362 202.495064 
L 290.788783 202.92569 
L 290.911063 201.203166 
L 290.972203 204.496234 
L 291.033344 202.140429 
L 291.216764 203.533634 
L 291.277904 202.419073 
L 291.339045 202.545719 
L 291.400185 204.901524 
L 291.461325 204.825533 
L 291.644746 205.534805 
L 292.256148 199.126004 
L 292.317288 199.151341 
L 292.500709 201.507148 
L 292.561849 201.456473 
L 292.74527 199.353978 
L 293.112111 202.596391 
L 293.173251 201.988429 
L 293.478952 204.344234 
L 293.601233 206.92803 
L 293.784653 205.560141 
L 294.029214 213.564812 
L 294.334915 214.831373 
L 294.396055 218.479069 
L 294.457196 209.790452 
L 294.640616 209.18251 
L 294.701757 209.385155 
L 294.762897 207.383992 
L 294.885177 211.563641 
L 295.068598 208.827863 
L 295.129738 210.018436 
L 295.252018 205.028187 
L 295.313159 209.942445 
L 295.496579 207.18134 
L 295.61886 203.660298 
L 295.985701 210.905034 
L 296.046841 206.168086 
L 296.107982 206.37074 
L 296.352542 211.082353 
L 296.535963 208.093265 
L 296.597103 207.48532 
L 296.780524 208.675873 
L 296.841664 207.73863 
L 296.902804 208.321238 
L 297.025085 215.641973 
L 297.208505 213.74213 
L 297.391926 209.005192 
L 297.453066 210.778371 
L 297.636487 209.689125 
L 297.697627 215.008692 
L 297.758767 213.33683 
L 298.309029 207.054676 
L 298.49245 207.789282 
L 298.55359 209.410491 
L 298.61473 207.510639 
L 298.675871 211.436988 
L 298.737011 211.057014 
L 299.103852 206.294749 
L 299.164992 204.648216 
L 299.348413 205.838787 
L 299.409553 209.613136 
L 299.470693 207.814621 
L 299.592974 208.802537 
L 299.776394 208.903864 
L 300.265516 206.345404 
L 300.387797 208.371911 
L 300.448937 208.321238 
L 300.754638 212.374241 
L 300.876918 215.616637 
L 301.060339 214.172756 
L 301.3049 206.598711 
L 301.610601 209.89178 
L 301.732881 207.991937 
L 301.916302 209.131845 
L 301.977442 208.599882 
L 302.038582 210.373071 
L 302.099723 209.689125 
L 302.160863 207.89061 
L 302.405424 208.751882 
L 302.588844 205.686787 
L 302.833405 203.761626 
L 302.894545 203.812281 
L 302.955686 205.48415 
L 303.016826 204.77488 
L 303.261387 204.77488 
L 303.322527 204.36957 
L 303.383667 205.458813 
L 303.444807 205.154834 
L 303.628228 206.37074 
L 303.811649 205.560141 
L 303.872789 206.345404 
L 304.11735 204.901524 
L 304.23963 205.864103 
L 304.30077 205.560141 
L 304.484191 205.686787 
L 304.545331 207.941285 
L 304.606471 206.700039 
L 304.728752 204.698869 
L 304.912173 205.433477 
L 305.034453 203.812281 
L 305.156733 203.989597 
L 305.584715 207.004021 
L 305.768136 206.52272 
L 305.890416 207.510639 
L 305.951556 207.282668 
L 306.012696 205.712123 
L 306.257257 205.686787 
L 306.624099 208.143919 
L 306.746379 205.712123 
L 306.807519 205.990767 
L 306.868659 206.92803 
L 307.05208 207.054676 
L 307.174361 208.118601 
L 307.235501 206.396077 
L 307.296641 206.700039 
L 307.480062 207.409311 
L 307.541202 205.205506 
L 307.602342 205.73746 
L 307.663482 206.446732 
L 307.724622 205.762796 
L 307.908043 206.396077 
L 307.969183 206.269413 
L 308.030324 206.37074 
L 308.152604 207.561311 
L 308.336025 206.548059 
L 308.458305 205.256158 
L 308.519445 205.560141 
L 308.580586 204.673553 
L 308.825146 203.432307 
L 308.947427 205.610796 
L 309.314268 207.054676 
L 309.436549 208.954527 
L 309.619969 209.511809 
L 309.681109 208.219911 
L 309.74225 209.055844 
L 309.86453 210.778371 
L 310.109091 209.942445 
L 310.292512 206.396077 
L 310.475932 206.649387 
L 310.537072 206.497384 
L 310.659353 205.256158 
L 310.903914 207.33332 
L 310.965054 207.080013 
L 311.026194 207.308004 
L 311.087334 206.750712 
L 311.148475 207.713293 
L 311.393035 209.562471 
L 311.515316 209.537145 
L 311.576456 209.131845 
L 311.759877 210.677053 
L 311.821017 210.322406 
L 311.882157 210.322406 
L 312.004438 211.639633 
L 312.248998 211.74096 
L 312.432419 213.767456 
L 312.61584 213.767456 
L 312.67698 213.463484 
L 312.73812 213.640803 
L 312.79926 210.879698 
L 312.860401 212.500895 
L 313.043821 211.411651 
L 313.104961 213.463484 
L 313.288382 203.989597 
L 313.471803 204.192252 
L 313.594083 201.760455 
L 313.655223 202.343064 
L 313.716364 202.064418 
L 313.899784 203.077672 
L 314.144345 200.443221 
L 314.327766 200.139259 
L 314.388906 198.77137 
L 314.511186 198.872697 
L 314.572327 199.911268 
L 314.755747 199.328659 
L 314.878028 198.594051 
L 314.939168 199.632622 
L 315.000308 199.201996 
L 315.183729 197.479471 
L 315.244869 199.075352 
L 315.42829 195.25033 
L 315.733991 199.505978 
L 315.856271 196.263582 
L 316.039692 195.199655 
L 316.100832 195.503638 
L 316.161972 194.921012 
L 316.223112 196.618217 
L 316.284253 196.187573 
L 316.467673 195.680956 
L 316.712234 198.36606 
L 316.895655 197.682126 
L 316.956795 196.795536 
L 317.017935 197.378144 
L 317.079076 197.555463 
L 317.140216 198.36606 
L 317.445917 199.607305 
L 317.507057 199.176659 
L 317.568197 200.645876 
L 317.751618 199.835276 
L 317.935039 200.62054 
L 317.996179 200.063268 
L 318.24074 199.96194 
L 318.30188 200.088586 
L 318.42416 198.746033 
L 318.607581 198.695378 
L 318.729861 197.732779 
L 318.791002 198.644706 
L 318.852142 196.364889 
L 319.035562 197.428817 
L 319.096703 198.467387 
L 319.280123 196.010255 
L 319.463544 196.440901 
L 319.524684 196.111582 
L 319.585824 194.870357 
L 319.708105 196.719545 
L 319.891525 196.339573 
L 320.013806 195.65562 
L 320.074946 195.883611 
L 320.136086 194.971684 
L 320.319507 194.617049 
L 320.502928 198.138089 
L 320.564068 198.21408 
L 320.747488 198.21408 
L 320.992049 188.258902 
L 321.17547 189.069501 
L 321.29775 191.096008 
L 321.358891 191.045335 
L 321.420031 191.070671 
L 321.786872 190.817364 
L 321.848012 189.297492 
L 322.275994 194.718374 
L 322.459414 194.135748 
L 322.703975 196.466217 
L 322.887396 194.769029 
L 322.948536 195.478301 
L 323.009676 194.541058 
L 323.131957 195.934264 
L 323.315378 195.832936 
L 323.437658 196.871527 
L 323.498798 194.946348 
L 323.559938 195.149003 
L 323.743359 194.110412 
L 323.804499 194.667702 
L 323.92678 192.742543 
L 323.98792 193.502467 
L 324.171341 192.945178 
L 324.293621 190.538718 
L 324.415901 192.033251 
L 324.599322 191.475981 
L 324.660462 190.918689 
L 324.721602 191.298642 
L 325.149584 193.730459 
L 325.210724 193.274496 
L 325.455285 195.528974 
L 325.699846 190.462727 
L 325.883267 189.804109 
L 325.944407 190.285408 
L 326.127827 188.056249 
L 326.311248 187.017679 
L 326.372388 187.904267 
L 326.433529 187.87893 
L 326.555809 186.257731 
L 326.80037 186.207079 
L 326.86151 187.220331 
L 327.167211 183.572628 
L 327.228351 184.307236 
L 327.289492 182.331402 
L 327.350632 183.268645 
L 327.411772 183.116666 
L 327.595193 184.58588 
L 327.778613 181.394139 
L 327.839753 180.507551 
L 328.023174 180.228905 
L 328.145455 178.937007 
L 328.267735 179.114325 
L 328.512296 178.329062 
L 328.573436 176.403883 
L 328.634576 177.214482 
L 328.695716 177.417137 
L 328.879137 177.214482 
L 329.001418 179.215653 
L 329.062558 177.822427 
L 329.123698 178.937007 
L 329.55168 173.744116 
L 329.7351 173.541461 
L 329.918521 171.641618 
L 329.979661 171.768262 
L 330.163082 171.514954 
L 330.285362 170.34972 
L 330.346502 170.5017 
L 330.407643 170.527036 
L 330.713344 166.854014 
L 330.774484 164.802172 
L 331.019045 164.751519 
L 331.141325 161.331805 
L 331.202465 162.699694 
L 331.447026 165.055499 
L 331.508166 165.080818 
L 331.691587 162.57303 
L 331.875008 161.38246 
L 331.936148 162.370376 
L 332.058428 158.241392 
L 332.119569 159.38129 
L 332.42527 153.884416 
L 332.48641 156.772175 
L 332.54755 154.846996 
L 332.730971 155.556286 
L 332.792111 154.619025 
L 332.914391 157.025485 
L 332.975532 154.137724 
L 333.158952 153.631107 
L 333.220092 155.936239 
L 333.281233 154.391034 
L 333.342373 154.467042 
L 333.403513 154.872332 
L 333.648074 153.681761 
L 333.831495 149.350123 
L 334.137196 146.234391 
L 334.259476 151.04731 
L 334.504037 149.172804 
L 334.565177 150.338038 
L 334.687458 153.884416 
L 334.870878 157.430792 
L 334.932018 156.316213 
L 335.054299 159.178655 
L 335.115439 155.708268 
L 335.29886 155.581604 
L 335.36 156.214885 
L 335.42114 155.150978 
L 335.48228 159.153319 
L 335.543421 156.341549 
L 335.787982 153.707098 
L 335.849122 151.984574 
L 335.971402 160.673188 
L 336.154823 160.875843 
L 336.338243 149.19814 
L 336.582804 153.783089 
L 336.643945 151.427281 
L 336.705085 151.705928 
L 336.827365 149.071476 
L 337.010786 147.779599 
L 337.194206 143.422621 
L 337.255347 143.726586 
L 337.438767 143.169293 
L 337.499908 140.306871 
L 337.561048 141.472106 
L 337.683328 142.333378 
L 337.989029 136.22854 
L 338.050169 137.875075 
L 338.11131 137.064476 
L 338.29473 136.279215 
L 338.478151 132.403518 
L 338.539291 133.923407 
L 338.722712 132.682164 
L 338.844992 133.822082 
L 338.906133 132.124892 
L 339.150693 137.67242 
L 339.211834 138.153721 
L 339.272974 135.873905 
L 339.395254 145.145148 
L 339.578675 144.283875 
L 339.639815 141.548097 
L 339.823236 148.184888 
L 340.006656 147.095643 
L 340.128937 152.16189 
L 340.190077 152.035226 
L 340.251217 151.097983 
L 340.495778 150.819339 
L 340.556918 151.908583 
L 340.679199 149.983404 
L 340.862619 149.552778 
L 341.04604 144.714501 
L 341.10718 145.145148 
L 341.290601 144.385203 
L 341.412881 145.702417 
L 341.535162 142.434705 
L 341.779723 145.423791 
L 342.146564 152.237881 
L 342.329985 150.059395 
L 342.391125 150.996656 
L 342.635686 151.503273 
L 342.696826 153.251136 
L 343.247088 138.508356 
L 343.491649 139.065646 
L 343.613929 136.22854 
L 343.675069 137.773748 
L 343.85849 137.976403 
L 343.98077 134.658016 
L 344.103051 136.912496 
L 344.286471 134.176717 
L 344.347612 136.507186 
L 344.408752 135.26596 
L 344.469892 134.860653 
L 344.531032 136.279215 
L 344.775593 132.859483 
L 344.836733 134.430024 
L 344.897874 134.328697 
L 345.264715 130.427687 
L 345.325855 129.11047 
L 345.386995 131.820912 
L 345.631556 128.806487 
L 346.181818 134.278045 
L 346.242958 133.822082 
L 346.487519 131.339611 
L 346.548659 131.795573 
L 346.67094 139.242964 
L 346.854361 139.344292 
L 346.915501 139.648254 
L 346.976641 140.534863 
L 347.037781 136.861821 
L 347.098921 138.001739 
L 347.282342 136.456531 
L 347.465763 137.900411 
L 347.526903 135.924578 
L 347.710324 137.469765 
L 347.771464 137.444449 
L 347.893744 140.053564 
L 347.954884 139.67359 
L 348.138305 138.052394 
L 348.321726 130.427687 
L 348.382866 131.187631 
L 348.566287 131.871565 
L 348.688567 131.162292 
L 348.749707 131.288959 
L 348.810847 130.984976 
L 349.055408 130.453023 
L 349.42225 142.181378 
L 349.48339 141.472106 
L 349.66681 145.44911 
L 349.850231 146.107727 
L 349.972512 151.832591 
L 350.278213 142.333378 
L 350.400493 135.468615 
L 350.522773 136.355206 
L 350.767334 135.924578 
L 350.889615 138.660338 
L 350.950755 138.22971 
L 351.134176 139.268301 
L 351.195316 138.913666 
L 351.256456 140.129553 
L 351.317596 140.002889 
L 351.378737 139.344292 
L 351.562157 140.0789 
L 351.684438 134.658016 
L 351.745578 134.860653 
L 351.806718 134.404688 
L 351.990139 134.911326 
L 352.051279 133.543436 
L 352.112419 135.797914 
L 352.173559 133.188802 
L 352.2347 135.645934 
L 352.41812 134.683334 
L 352.47926 133.062135 
L 352.540401 133.087474 
L 352.601541 134.024735 
L 352.662681 130.85833 
L 352.907242 128.502525 
L 352.968382 123.917559 
L 353.029522 125.006802 
L 353.090663 123.917559 
L 353.335223 121.89107 
L 353.457504 122.752325 
L 353.518644 121.105789 
L 353.702065 121.688418 
L 353.763205 122.600342 
L 353.885485 120.497845 
L 353.946626 127.235964 
L 354.130046 124.500185 
L 354.252327 118.699329 
L 354.313467 120.928473 
L 354.558028 120.117873 
L 354.741448 117.002142 
L 354.802589 117.686077 
L 354.986009 116.191542 
L 355.047149 113.481102 
L 355.10829 115.482272 
L 355.16943 115.659589 
L 355.413991 119.408601 
L 355.597411 115.912898 
L 355.841972 114.469018 
L 356.025393 115.98889 
L 356.086533 116.166206 
L 356.269954 117.052796 
L 356.331094 115.558261 
L 356.392234 116.090217 
L 356.453374 116.140869 
L 356.514515 114.975635 
L 356.759076 114.823655 
L 356.881356 116.191542 
L 356.942496 115.836907 
L 357.309337 110.568005 
L 357.370478 109.377434 
L 357.553898 109.833397 
L 357.676179 107.95889 
L 357.798459 111.251941 
L 357.98188 111.226622 
L 358.10416 112.77181 
L 358.226441 106.540328 
L 358.409861 105.172439 
L 358.532142 106.894966 
L 358.593282 102.816654 
L 358.654422 103.753897 
L 358.837843 103.373924 
L 358.898983 104.564494 
L 359.021263 102.740643 
L 359.265824 103.880561 
L 359.326965 101.879391 
L 359.388105 102.411344 
L 359.449245 104.741813 
L 359.510385 102.816654 
L 359.754946 104.361842 
L 359.938367 115.912898 
L 360.182928 112.77181 
L 360.244068 110.517332 
L 360.305208 111.682587 
L 360.366348 111.859903 
L 360.549769 112.822485 
L 360.610909 111.403941 
L 360.672049 111.859903 
L 360.73319 113.126465 
L 360.79433 118.218031 
L 360.97775 117.635422 
L 361.100031 118.446022 
L 361.161171 114.848992 
L 361.222311 117.078133 
L 361.405732 113.506418 
L 361.466872 115.076963 
L 361.528012 114.696989 
L 361.650293 112.011885 
L 361.833713 112.746494 
L 362.017134 109.174779 
L 362.078274 108.414855 
L 362.261695 108.36418 
L 362.445116 110.264023 
L 362.506256 109.757408 
L 362.750817 109.250771 
L 362.873097 107.502928 
L 362.934237 107.680247 
L 363.117658 106.413685 
L 363.178798 106.464337 
L 363.239938 106.996293 
L 363.301079 105.501758 
L 363.362219 106.109702 
L 363.545639 105.983059 
L 363.60678 106.236366 
L 363.7902 97.623743 
L 363.973621 97.345097 
L 364.095901 98.105042 
L 364.157042 96.002544 
L 364.218182 98.83963 
L 364.523883 102.461999 
L 364.585023 107.325609 
L 364.646163 106.894966 
L 364.829584 103.221944 
L 364.951864 111.454596 
L 365.013005 105.881731 
L 365.074145 111.657251 
L 365.257565 113.911728 
L 365.318706 116.267533 
L 365.379846 127.615917 
L 365.440986 125.285448 
L 365.807827 114.823655 
L 365.930108 110.137379 
L 366.113529 109.833397 
L 366.358089 97.497079 
L 366.54151 97.775723 
L 366.60265 97.623743 
L 366.66379 94.68531 
L 366.724931 94.989292 
L 366.786071 94.811974 
L 366.969492 97.167778 
L 367.152912 94.68531 
L 367.214052 95.014628 
L 367.397473 97.345097 
L 367.458613 97.015799 
L 367.642034 95.495909 
L 367.825455 97.547752 
L 367.947735 100.460847 
L 368.070015 98.333013 
L 368.314576 97.421088 
L 368.375716 95.977208 
L 368.436857 97.117126 
L 368.497997 98.535668 
L 368.681418 96.28119 
L 368.742558 96.787807 
L 368.803698 98.333013 
L 368.864838 102.791318 
L 368.925978 100.764809 
L 369.23168 109.326779 
L 369.35396 100.815484 
L 369.537381 103.196608 
L 369.598521 100.739473 
L 369.659661 106.515012 
L 369.781941 104.767149 
L 369.965362 105.856395 
L 370.087643 103.39926 
L 370.515624 107.705563 
L 370.637904 101.144783 
L 370.943606 107.832226 
L 371.004746 107.477592 
L 371.065886 112.391857 
L 371.310447 113.683737 
L 371.371587 116.191542 
L 371.493867 110.162698 
L 371.677288 113.050456 
L 371.738428 112.974465 
L 371.799569 111.327932 
L 371.860709 113.785064 
L 371.921849 113.607746 
L 372.10527 116.368861 
L 372.22755 112.239856 
L 372.28869 113.633082 
L 372.349831 112.265193 
L 372.594391 117.128788 
L 372.716672 116.343524 
L 372.777812 121.561754 
L 373.022373 119.155294 
L 373.083513 115.836907 
L 373.144653 117.73675 
L 373.389214 115.73558 
L 373.450354 116.976805 
L 373.633775 109.909388 
L 373.817196 111.251941 
L 373.878336 109.757408 
L 374.000616 112.36652 
L 374.061757 112.315868 
L 374.428598 120.244537 
L 374.489738 117.99006 
L 374.673159 118.268703 
L 375.16228 110.441341 
L 375.284561 117.73675 
L 375.345701 116.900814 
L 375.529122 114.469018 
L 375.651402 116.444852 
L 375.712542 119.02863 
L 375.957103 120.54852 
L 376.201664 114.241027 
L 376.385085 113.709073 
L 376.629646 119.205946 
L 376.874206 115.938214 
L 376.935347 116.014226 
L 376.996487 116.343524 
L 377.057627 117.33144 
L 377.241048 114.671653 
L 377.424468 117.432767 
L 377.485609 118.572666 
L 377.669029 116.77415 
L 377.79131 118.572666 
L 377.85245 120.295192 
L 377.91359 116.394179 
L 378.097011 114.266363 
L 378.219291 115.887562 
L 378.280431 115.152954 
L 378.341572 112.594494 
L 378.524992 111.606576 
L 378.647273 106.413685 
L 378.769553 111.859903 
L 379.136394 115.051626 
L 379.197535 113.683737 
L 379.442096 117.812741 
L 379.503236 116.799487 
L 379.870077 121.561754 
L 379.931217 121.460426 
L 379.992357 119.636593 
L 380.053498 120.447192 
L 380.298059 123.942895 
L 380.481479 117.914069 
L 380.6649 116.090217 
L 380.909461 119.053967 
L 381.092881 120.193865 
L 381.215162 121.916389 
L 381.276302 120.523183 
L 381.520863 123.410942 
L 381.765424 118.167376 
L 381.948844 117.483422 
L 382.009985 119.484593 
L 382.071125 118.218031 
L 382.132265 115.203626 
L 382.193405 115.355609 
L 382.499106 116.571495 
L 382.560247 116.343524 
L 382.621387 118.243367 
L 382.865948 120.421856 
L 383.049368 116.748834 
L 383.232789 117.610086 
L 383.355069 116.166206 
L 383.41621 116.368861 
L 383.47735 120.092555 
L 383.66077 118.699329 
L 383.905331 121.840398 
L 384.088752 121.561754 
L 384.149892 119.535265 
L 384.211032 119.687248 
L 384.272173 120.269874 
L 384.516733 140.205544 
L 384.577874 128.527844 
L 384.639014 135.569923 
L 384.700154 127.489273 
L 384.761294 127.919899 
L 384.944715 130.579687 
L 385.005855 137.140467 
L 385.066995 134.911326 
L 385.128136 133.67008 
L 385.189276 138.938982 
L 385.433837 135.113981 
L 385.494977 130.301041 
L 385.556117 137.596429 
L 385.617257 136.760496 
L 385.800678 135.595259 
L 385.984099 131.466275 
L 386.045239 132.606173 
L 386.228659 133.138126 
L 386.2898 137.216458 
L 386.35094 134.809998 
L 386.656641 141.168143 
L 386.778921 132.479529 
L 386.840062 134.252708 
L 386.901202 137.52044 
L 387.145763 131.491611 
L 387.206903 132.150211 
L 387.329183 129.921069 
L 387.512604 130.098386 
L 387.573744 130.807658 
L 387.634884 129.743751 
L 387.696025 130.275704 
L 387.757165 123.005632 
L 387.940586 122.54967 
L 388.001726 122.802997 
L 388.062866 123.58826 
L 388.124006 123.056307 
L 388.185146 117.914069 
L 388.368567 117.483422 
L 388.429707 117.812741 
L 388.613128 113.73441 
L 388.796549 114.621 
L 388.979969 111.910558 
L 389.041109 113.633082 
L 389.22453 114.089047 
L 389.28567 115.076963 
L 389.34681 113.101129 
L 389.469091 117.508759 
L 389.713652 116.647507 
L 389.835932 110.871967 
L 389.897072 111.302613 
L 390.080493 111.555923 
L 390.141633 113.025137 
L 390.202773 112.113213 
L 390.508475 111.327932 
L 390.569615 113.227775 
L 390.630755 111.277277 
L 390.691895 111.859903 
L 390.753035 114.063708 
L 390.997596 110.06137 
L 391.058737 112.189204 
L 391.119877 111.783894 
L 391.181017 111.606576 
L 391.364438 113.430427 
L 391.547858 104.539158 
L 391.608998 109.80806 
L 391.853559 112.77181 
L 391.97584 109.706733 
L 392.220401 109.554753 
L 392.281541 109.149463 
L 392.342681 107.198946 
L 392.831803 119.357947 
L 392.892943 117.914069 
L 393.137504 122.70167 
L 393.198644 121.435108 
L 393.320924 126.805317 
L 393.565485 122.853652 
L 393.687766 128.325207 
L 393.748906 125.158802 
L 393.932327 125.918729 
L 393.993467 124.55084 
L 394.176888 110.289361 
L 394.360308 108.465507 
L 394.421448 109.250771 
L 394.482589 108.36418 
L 394.543729 108.465507 
L 394.78829 116.824823 
L 394.91057 112.417175 
L 394.97171 116.444852 
L 395.032851 112.999801 
L 395.399692 110.441341 
L 395.460832 108.541499 
L 395.705393 105.831056 
L 395.766533 109.149463 
L 395.888814 100.334183 
L 396.072234 104.235196 
L 396.194515 100.106192 
L 396.255655 100.334183 
L 396.500216 102.411344 
L 396.744777 98.611659 
L 396.928197 97.547752 
L 397.172758 99.903557 
L 397.356179 98.83963 
L 397.417319 99.168949 
L 397.478459 99.143612 
L 397.539599 96.787807 
L 397.78416 96.306506 
L 397.8453 96.585152 
L 397.906441 93.672075 
L 397.967581 95.166608 
L 398.028721 97.345097 
L 398.212142 95.267936 
L 398.273282 96.762471 
L 398.456703 93.87471 
L 398.701263 94.811974 
L 398.823544 92.27885 
L 398.884684 92.101531 
L 399.068105 92.27885 
L 399.251525 83.894216 
L 399.312666 83.590236 
L 399.496086 83.894216 
L 399.557227 83.539581 
L 399.740647 87.06062 
L 399.924068 86.655313 
L 399.985208 85.794058 
L 400.046348 87.111275 
L 400.107488 87.009948 
L 400.168629 85.743386 
L 400.352049 84.730134 
L 400.47433 80.702475 
L 400.53547 80.879794 
L 400.59661 82.399663 
L 400.780031 83.691563 
L 400.841171 80.778466 
L 400.902311 83.134271 
L 401.024592 86.705986 
L 401.208012 85.262105 
L 401.269153 85.895386 
L 401.330293 84.223517 
L 401.391433 84.400833 
L 401.452573 84.578152 
L 401.697134 84.020862 
L 401.758274 85.464742 
L 401.819414 85.008777 
L 401.880555 80.955785 
L 402.063975 79.689223 
L 402.125116 77.054772 
L 402.186256 78.296015 
L 402.247396 77.637398 
L 402.308536 75.205602 
L 402.491957 74.217686 
L 402.553097 75.94021 
L 402.614237 72.925788 
L 402.675378 77.865371 
L 402.736518 75.509564 
L 402.919938 75.560239 
L 402.981079 74.572321 
L 403.042219 75.712219 
L 403.103359 74.040367 
L 403.164499 79.435913 
L 403.34792 79.613232 
L 403.592481 63.654545 
L 403.837042 63.502563 
L 404.020462 59.348243 
L 404.265023 60.234831 
L 404.326163 60.158842 
L 404.448444 57.397745 
L 404.631864 59.348243 
L 404.754145 52.154182 
L 404.815285 53.750042 
L 404.876425 53.978013 
L 405.120986 54.206004 
L 405.182126 54.028688 
L 405.243267 54.33265 
L 405.304407 55.953867 
L 405.548968 52.63546 
L 405.671248 56.207175 
L 405.732388 55.85254 
L 406.34379 59.04426 
L 406.588351 67.175585 
L 406.771772 67.200921 
L 407.016333 69.886047 
L 407.199753 68.720793 
L 407.260894 65.250426 
L 407.383174 68.999439 
L 407.688875 67.504903 
L 407.750015 67.352924 
L 408.055716 72.621806 
L 408.116857 70.949954 
L 408.239137 72.495159 
L 408.300277 70.721963 
L 408.483698 71.101934 
L 408.605978 72.140525 
L 408.728259 68.442146 
L 408.97282 71.025945 
L 409.03396 69.354073 
L 409.0951 69.78472 
L 409.15624 72.571151 
L 409.339661 72.013861 
L 409.461941 68.923448 
L 409.523082 70.747299 
L 409.584222 69.050111 
L 409.767643 68.188839 
L 409.828783 68.442146 
L 409.951063 73.179095 
L 410.012203 70.747299 
L 410.256764 73.584405 
L 410.440185 81.867709 
L 410.623606 82.323674 
L 410.745886 83.058282 
L 410.868166 77.53607 
L 411.051587 78.90396 
L 411.112727 80.221176 
L 411.173867 78.296015 
L 411.235008 79.917214 
L 411.296148 79.511904 
L 411.540709 75.864201 
L 411.662989 64.997116 
L 411.724129 68.239512 
L 411.90755 70.544644 
L 411.96869 76.066854 
L 412.029831 75.433573 
L 412.090971 75.357584 
L 412.152111 77.612062 
L 412.335532 78.498652 
L 412.457812 86.579322 
L 412.580092 83.15961 
L 412.763513 82.678309 
L 412.946934 88.833799 
L 413.008074 87.921875 
L 413.191495 86.199348 
L 413.252635 86.604658 
L 413.313775 87.491249 
L 413.374915 90.910961 
L 413.436055 88.707135 
L 413.619476 85.464742 
L 413.741757 76.776126 
L 413.802897 78.777296 
L 413.864037 76.041517 
L 414.108598 77.130763 
L 414.169738 76.573491 
L 414.230878 79.613232 
L 414.292018 78.599977 
L 414.536579 77.358754 
L 414.59772 77.384091 
L 414.65886 79.030606 
L 414.72 77.586725 
L 414.72 77.586725 
" style="fill:none;stroke:#e24a33;stroke-linecap:square;stroke-width:1.5;"/>
   </g>
   <g id="patch_3">
    <path d="M 57.6 276.48 
L 57.6 41.472 
" style="fill:none;stroke:#ffffff;stroke-linecap:square;stroke-linejoin:miter;"/>
   </g>
   <g id="patch_4">
    <path d="M 414.72 276.48 
L 414.72 41.472 
" style="fill:none;stroke:#ffffff;stroke-linecap:square;stroke-linejoin:miter;"/>
   </g>
   <g id="patch_5">
    <path d="M 57.6 276.48 
L 414.72 276.48 
" style="fill:none;stroke:#ffffff;stroke-linecap:square;stroke-linejoin:miter;"/>
   </g>
   <g id="patch_6">
    <path d="M 57.6 41.472 
L 414.72 41.472 
" style="fill:none;stroke:#ffffff;stroke-linecap:square;stroke-linejoin:miter;"/>
   </g>
  </g>
 </g>
 <defs>
  <clipPath id="p5fb68abe52">
   <rect height="235.008" width="357.12" x="57.6" y="41.472"/>
  </clipPath>
 </defs>
</svg>
