<?xml version="1.0" encoding="utf-8" standalone="no"?>
<!DOCTYPE svg PUBLIC "-//W3C//DTD SVG 1.1//EN"
  "http://www.w3.org/Graphics/SVG/1.1/DTD/svg11.dtd">
<!-- Created with matplotlib (http://matplotlib.org/) -->
<svg height="345pt" version="1.1" viewBox="0 0 460 345" width="460pt" xmlns="http://www.w3.org/2000/svg" xmlns:xlink="http://www.w3.org/1999/xlink">
 <defs>
  <style type="text/css">
*{stroke-linecap:butt;stroke-linejoin:round;}
  </style>
 </defs>
 <g id="figure_1">
  <g id="patch_1">
   <path d="M 0 345.6 
L 460.8 345.6 
L 460.8 0 
L 0 0 
z
" style="fill:#ffffff;"/>
  </g>
  <g id="axes_1">
   <g id="patch_2">
    <path d="M 57.6 276.48 
L 414.72 276.48 
L 414.72 41.472 
L 57.6 41.472 
z
" style="fill:#e5e5e5;"/>
   </g>
   <g id="matplotlib.axis_1">
    <g id="xtick_1">
     <g id="line2d_1">
      <path clip-path="url(#pbed06b898d)" d="M 102.171217 276.48 
L 102.171217 41.472 
" style="fill:none;stroke:#ffffff;stroke-linecap:square;stroke-width:0.8;"/>
     </g>
     <g id="line2d_2">
      <defs>
       <path d="M 0 0 
L 0 3.5 
" id="m410aadcdc0" style="stroke:#555555;stroke-width:0.8;"/>
      </defs>
      <g>
       <use style="fill:#555555;stroke:#555555;stroke-width:0.8;" x="102.171217" xlink:href="#m410aadcdc0" y="276.48"/>
      </g>
     </g>
     <g id="text_1">
      <!-- 2003 -->
      <defs>
       <path d="M 19.1875 8.296875 
L 53.609375 8.296875 
L 53.609375 0 
L 7.328125 0 
L 7.328125 8.296875 
Q 12.9375 14.109375 22.625 23.890625 
Q 32.328125 33.6875 34.8125 36.53125 
Q 39.546875 41.84375 41.421875 45.53125 
Q 43.3125 49.21875 43.3125 52.78125 
Q 43.3125 58.59375 39.234375 62.25 
Q 35.15625 65.921875 28.609375 65.921875 
Q 23.96875 65.921875 18.8125 64.3125 
Q 13.671875 62.703125 7.8125 59.421875 
L 7.8125 69.390625 
Q 13.765625 71.78125 18.9375 73 
Q 24.125 74.21875 28.421875 74.21875 
Q 39.75 74.21875 46.484375 68.546875 
Q 53.21875 62.890625 53.21875 53.421875 
Q 53.21875 48.921875 51.53125 44.890625 
Q 49.859375 40.875 45.40625 35.40625 
Q 44.1875 33.984375 37.640625 27.21875 
Q 31.109375 20.453125 19.1875 8.296875 
z
" id="DejaVuSans-32"/>
       <path d="M 31.78125 66.40625 
Q 24.171875 66.40625 20.328125 58.90625 
Q 16.5 51.421875 16.5 36.375 
Q 16.5 21.390625 20.328125 13.890625 
Q 24.171875 6.390625 31.78125 6.390625 
Q 39.453125 6.390625 43.28125 13.890625 
Q 47.125 21.390625 47.125 36.375 
Q 47.125 51.421875 43.28125 58.90625 
Q 39.453125 66.40625 31.78125 66.40625 
z
M 31.78125 74.21875 
Q 44.046875 74.21875 50.515625 64.515625 
Q 56.984375 54.828125 56.984375 36.375 
Q 56.984375 17.96875 50.515625 8.265625 
Q 44.046875 -1.421875 31.78125 -1.421875 
Q 19.53125 -1.421875 13.0625 8.265625 
Q 6.59375 17.96875 6.59375 36.375 
Q 6.59375 54.828125 13.0625 64.515625 
Q 19.53125 74.21875 31.78125 74.21875 
z
" id="DejaVuSans-30"/>
       <path d="M 40.578125 39.3125 
Q 47.65625 37.796875 51.625 33 
Q 55.609375 28.21875 55.609375 21.1875 
Q 55.609375 10.40625 48.1875 4.484375 
Q 40.765625 -1.421875 27.09375 -1.421875 
Q 22.515625 -1.421875 17.65625 -0.515625 
Q 12.796875 0.390625 7.625 2.203125 
L 7.625 11.71875 
Q 11.71875 9.328125 16.59375 8.109375 
Q 21.484375 6.890625 26.8125 6.890625 
Q 36.078125 6.890625 40.9375 10.546875 
Q 45.796875 14.203125 45.796875 21.1875 
Q 45.796875 27.640625 41.28125 31.265625 
Q 36.765625 34.90625 28.71875 34.90625 
L 20.21875 34.90625 
L 20.21875 43.015625 
L 29.109375 43.015625 
Q 36.375 43.015625 40.234375 45.921875 
Q 44.09375 48.828125 44.09375 54.296875 
Q 44.09375 59.90625 40.109375 62.90625 
Q 36.140625 65.921875 28.71875 65.921875 
Q 24.65625 65.921875 20.015625 65.03125 
Q 15.375 64.15625 9.8125 62.3125 
L 9.8125 71.09375 
Q 15.4375 72.65625 20.34375 73.4375 
Q 25.25 74.21875 29.59375 74.21875 
Q 40.828125 74.21875 47.359375 69.109375 
Q 53.90625 64.015625 53.90625 55.328125 
Q 53.90625 49.265625 50.4375 45.09375 
Q 46.96875 40.921875 40.578125 39.3125 
z
" id="DejaVuSans-33"/>
      </defs>
      <g style="fill:#555555;" transform="translate(79.091027 302.78544)rotate(-30)scale(0.1 -0.1)">
       <use xlink:href="#DejaVuSans-32"/>
       <use x="63.623047" xlink:href="#DejaVuSans-30"/>
       <use x="127.246094" xlink:href="#DejaVuSans-30"/>
       <use x="190.869141" xlink:href="#DejaVuSans-33"/>
      </g>
     </g>
    </g>
    <g id="xtick_2">
     <g id="line2d_3">
      <path clip-path="url(#pbed06b898d)" d="M 146.864715 276.48 
L 146.864715 41.472 
" style="fill:none;stroke:#ffffff;stroke-linecap:square;stroke-width:0.8;"/>
     </g>
     <g id="line2d_4">
      <g>
       <use style="fill:#555555;stroke:#555555;stroke-width:0.8;" x="146.864715" xlink:href="#m410aadcdc0" y="276.48"/>
      </g>
     </g>
     <g id="text_2">
      <!-- 2005 -->
      <defs>
       <path d="M 10.796875 72.90625 
L 49.515625 72.90625 
L 49.515625 64.59375 
L 19.828125 64.59375 
L 19.828125 46.734375 
Q 21.96875 47.46875 24.109375 47.828125 
Q 26.265625 48.1875 28.421875 48.1875 
Q 40.625 48.1875 47.75 41.5 
Q 54.890625 34.8125 54.890625 23.390625 
Q 54.890625 11.625 47.5625 5.09375 
Q 40.234375 -1.421875 26.90625 -1.421875 
Q 22.3125 -1.421875 17.546875 -0.640625 
Q 12.796875 0.140625 7.71875 1.703125 
L 7.71875 11.625 
Q 12.109375 9.234375 16.796875 8.0625 
Q 21.484375 6.890625 26.703125 6.890625 
Q 35.15625 6.890625 40.078125 11.328125 
Q 45.015625 15.765625 45.015625 23.390625 
Q 45.015625 31 40.078125 35.4375 
Q 35.15625 39.890625 26.703125 39.890625 
Q 22.75 39.890625 18.8125 39.015625 
Q 14.890625 38.140625 10.796875 36.28125 
z
" id="DejaVuSans-35"/>
      </defs>
      <g style="fill:#555555;" transform="translate(123.784525 302.78544)rotate(-30)scale(0.1 -0.1)">
       <use xlink:href="#DejaVuSans-32"/>
       <use x="63.623047" xlink:href="#DejaVuSans-30"/>
       <use x="127.246094" xlink:href="#DejaVuSans-30"/>
       <use x="190.869141" xlink:href="#DejaVuSans-35"/>
      </g>
     </g>
    </g>
    <g id="xtick_3">
     <g id="line2d_5">
      <path clip-path="url(#pbed06b898d)" d="M 191.497072 276.48 
L 191.497072 41.472 
" style="fill:none;stroke:#ffffff;stroke-linecap:square;stroke-width:0.8;"/>
     </g>
     <g id="line2d_6">
      <g>
       <use style="fill:#555555;stroke:#555555;stroke-width:0.8;" x="191.497072" xlink:href="#m410aadcdc0" y="276.48"/>
      </g>
     </g>
     <g id="text_3">
      <!-- 2007 -->
      <defs>
       <path d="M 8.203125 72.90625 
L 55.078125 72.90625 
L 55.078125 68.703125 
L 28.609375 0 
L 18.3125 0 
L 43.21875 64.59375 
L 8.203125 64.59375 
z
" id="DejaVuSans-37"/>
      </defs>
      <g style="fill:#555555;" transform="translate(168.416882 302.78544)rotate(-30)scale(0.1 -0.1)">
       <use xlink:href="#DejaVuSans-32"/>
       <use x="63.623047" xlink:href="#DejaVuSans-30"/>
       <use x="127.246094" xlink:href="#DejaVuSans-30"/>
       <use x="190.869141" xlink:href="#DejaVuSans-37"/>
      </g>
     </g>
    </g>
    <g id="xtick_4">
     <g id="line2d_7">
      <path clip-path="url(#pbed06b898d)" d="M 236.19057 276.48 
L 236.19057 41.472 
" style="fill:none;stroke:#ffffff;stroke-linecap:square;stroke-width:0.8;"/>
     </g>
     <g id="line2d_8">
      <g>
       <use style="fill:#555555;stroke:#555555;stroke-width:0.8;" x="236.19057" xlink:href="#m410aadcdc0" y="276.48"/>
      </g>
     </g>
     <g id="text_4">
      <!-- 2009 -->
      <defs>
       <path d="M 10.984375 1.515625 
L 10.984375 10.5 
Q 14.703125 8.734375 18.5 7.8125 
Q 22.3125 6.890625 25.984375 6.890625 
Q 35.75 6.890625 40.890625 13.453125 
Q 46.046875 20.015625 46.78125 33.40625 
Q 43.953125 29.203125 39.59375 26.953125 
Q 35.25 24.703125 29.984375 24.703125 
Q 19.046875 24.703125 12.671875 31.3125 
Q 6.296875 37.9375 6.296875 49.421875 
Q 6.296875 60.640625 12.9375 67.421875 
Q 19.578125 74.21875 30.609375 74.21875 
Q 43.265625 74.21875 49.921875 64.515625 
Q 56.59375 54.828125 56.59375 36.375 
Q 56.59375 19.140625 48.40625 8.859375 
Q 40.234375 -1.421875 26.421875 -1.421875 
Q 22.703125 -1.421875 18.890625 -0.6875 
Q 15.09375 0.046875 10.984375 1.515625 
z
M 30.609375 32.421875 
Q 37.25 32.421875 41.125 36.953125 
Q 45.015625 41.5 45.015625 49.421875 
Q 45.015625 57.28125 41.125 61.84375 
Q 37.25 66.40625 30.609375 66.40625 
Q 23.96875 66.40625 20.09375 61.84375 
Q 16.21875 57.28125 16.21875 49.421875 
Q 16.21875 41.5 20.09375 36.953125 
Q 23.96875 32.421875 30.609375 32.421875 
z
" id="DejaVuSans-39"/>
      </defs>
      <g style="fill:#555555;" transform="translate(213.11038 302.78544)rotate(-30)scale(0.1 -0.1)">
       <use xlink:href="#DejaVuSans-32"/>
       <use x="63.623047" xlink:href="#DejaVuSans-30"/>
       <use x="127.246094" xlink:href="#DejaVuSans-30"/>
       <use x="190.869141" xlink:href="#DejaVuSans-39"/>
      </g>
     </g>
    </g>
    <g id="xtick_5">
     <g id="line2d_9">
      <path clip-path="url(#pbed06b898d)" d="M 280.822928 276.48 
L 280.822928 41.472 
" style="fill:none;stroke:#ffffff;stroke-linecap:square;stroke-width:0.8;"/>
     </g>
     <g id="line2d_10">
      <g>
       <use style="fill:#555555;stroke:#555555;stroke-width:0.8;" x="280.822928" xlink:href="#m410aadcdc0" y="276.48"/>
      </g>
     </g>
     <g id="text_5">
      <!-- 2011 -->
      <defs>
       <path d="M 12.40625 8.296875 
L 28.515625 8.296875 
L 28.515625 63.921875 
L 10.984375 60.40625 
L 10.984375 69.390625 
L 28.421875 72.90625 
L 38.28125 72.90625 
L 38.28125 8.296875 
L 54.390625 8.296875 
L 54.390625 0 
L 12.40625 0 
z
" id="DejaVuSans-31"/>
      </defs>
      <g style="fill:#555555;" transform="translate(257.742737 302.78544)rotate(-30)scale(0.1 -0.1)">
       <use xlink:href="#DejaVuSans-32"/>
       <use x="63.623047" xlink:href="#DejaVuSans-30"/>
       <use x="127.246094" xlink:href="#DejaVuSans-31"/>
       <use x="190.869141" xlink:href="#DejaVuSans-31"/>
      </g>
     </g>
    </g>
    <g id="xtick_6">
     <g id="line2d_11">
      <path clip-path="url(#pbed06b898d)" d="M 325.516425 276.48 
L 325.516425 41.472 
" style="fill:none;stroke:#ffffff;stroke-linecap:square;stroke-width:0.8;"/>
     </g>
     <g id="line2d_12">
      <g>
       <use style="fill:#555555;stroke:#555555;stroke-width:0.8;" x="325.516425" xlink:href="#m410aadcdc0" y="276.48"/>
      </g>
     </g>
     <g id="text_6">
      <!-- 2013 -->
      <g style="fill:#555555;" transform="translate(302.436235 302.78544)rotate(-30)scale(0.1 -0.1)">
       <use xlink:href="#DejaVuSans-32"/>
       <use x="63.623047" xlink:href="#DejaVuSans-30"/>
       <use x="127.246094" xlink:href="#DejaVuSans-31"/>
       <use x="190.869141" xlink:href="#DejaVuSans-33"/>
      </g>
     </g>
    </g>
    <g id="xtick_7">
     <g id="line2d_13">
      <path clip-path="url(#pbed06b898d)" d="M 370.148783 276.48 
L 370.148783 41.472 
" style="fill:none;stroke:#ffffff;stroke-linecap:square;stroke-width:0.8;"/>
     </g>
     <g id="line2d_14">
      <g>
       <use style="fill:#555555;stroke:#555555;stroke-width:0.8;" x="370.148783" xlink:href="#m410aadcdc0" y="276.48"/>
      </g>
     </g>
     <g id="text_7">
      <!-- 2015 -->
      <g style="fill:#555555;" transform="translate(347.068592 302.78544)rotate(-30)scale(0.1 -0.1)">
       <use xlink:href="#DejaVuSans-32"/>
       <use x="63.623047" xlink:href="#DejaVuSans-30"/>
       <use x="127.246094" xlink:href="#DejaVuSans-31"/>
       <use x="190.869141" xlink:href="#DejaVuSans-35"/>
      </g>
     </g>
    </g>
    <g id="text_8">
     <!-- Date -->
     <defs>
      <path d="M 19.671875 64.796875 
L 19.671875 8.109375 
L 31.59375 8.109375 
Q 46.6875 8.109375 53.6875 14.9375 
Q 60.6875 21.78125 60.6875 36.53125 
Q 60.6875 51.171875 53.6875 57.984375 
Q 46.6875 64.796875 31.59375 64.796875 
z
M 9.8125 72.90625 
L 30.078125 72.90625 
Q 51.265625 72.90625 61.171875 64.09375 
Q 71.09375 55.28125 71.09375 36.53125 
Q 71.09375 17.671875 61.125 8.828125 
Q 51.171875 0 30.078125 0 
L 9.8125 0 
z
" id="DejaVuSans-44"/>
      <path d="M 34.28125 27.484375 
Q 23.390625 27.484375 19.1875 25 
Q 14.984375 22.515625 14.984375 16.5 
Q 14.984375 11.71875 18.140625 8.90625 
Q 21.296875 6.109375 26.703125 6.109375 
Q 34.1875 6.109375 38.703125 11.40625 
Q 43.21875 16.703125 43.21875 25.484375 
L 43.21875 27.484375 
z
M 52.203125 31.203125 
L 52.203125 0 
L 43.21875 0 
L 43.21875 8.296875 
Q 40.140625 3.328125 35.546875 0.953125 
Q 30.953125 -1.421875 24.3125 -1.421875 
Q 15.921875 -1.421875 10.953125 3.296875 
Q 6 8.015625 6 15.921875 
Q 6 25.140625 12.171875 29.828125 
Q 18.359375 34.515625 30.609375 34.515625 
L 43.21875 34.515625 
L 43.21875 35.40625 
Q 43.21875 41.609375 39.140625 45 
Q 35.0625 48.390625 27.6875 48.390625 
Q 23 48.390625 18.546875 47.265625 
Q 14.109375 46.140625 10.015625 43.890625 
L 10.015625 52.203125 
Q 14.9375 54.109375 19.578125 55.046875 
Q 24.21875 56 28.609375 56 
Q 40.484375 56 46.34375 49.84375 
Q 52.203125 43.703125 52.203125 31.203125 
z
" id="DejaVuSans-61"/>
      <path d="M 18.3125 70.21875 
L 18.3125 54.6875 
L 36.8125 54.6875 
L 36.8125 47.703125 
L 18.3125 47.703125 
L 18.3125 18.015625 
Q 18.3125 11.328125 20.140625 9.421875 
Q 21.96875 7.515625 27.59375 7.515625 
L 36.8125 7.515625 
L 36.8125 0 
L 27.59375 0 
Q 17.1875 0 13.234375 3.875 
Q 9.28125 7.765625 9.28125 18.015625 
L 9.28125 47.703125 
L 2.6875 47.703125 
L 2.6875 54.6875 
L 9.28125 54.6875 
L 9.28125 70.21875 
z
" id="DejaVuSans-74"/>
      <path d="M 56.203125 29.59375 
L 56.203125 25.203125 
L 14.890625 25.203125 
Q 15.484375 15.921875 20.484375 11.0625 
Q 25.484375 6.203125 34.421875 6.203125 
Q 39.59375 6.203125 44.453125 7.46875 
Q 49.3125 8.734375 54.109375 11.28125 
L 54.109375 2.78125 
Q 49.265625 0.734375 44.1875 -0.34375 
Q 39.109375 -1.421875 33.890625 -1.421875 
Q 20.796875 -1.421875 13.15625 6.1875 
Q 5.515625 13.8125 5.515625 26.8125 
Q 5.515625 40.234375 12.765625 48.109375 
Q 20.015625 56 32.328125 56 
Q 43.359375 56 49.78125 48.890625 
Q 56.203125 41.796875 56.203125 29.59375 
z
M 47.21875 32.234375 
Q 47.125 39.59375 43.09375 43.984375 
Q 39.0625 48.390625 32.421875 48.390625 
Q 24.90625 48.390625 20.390625 44.140625 
Q 15.875 39.890625 15.1875 32.171875 
z
" id="DejaVuSans-65"/>
     </defs>
     <g style="fill:#555555;" transform="translate(221.819063 317.704627)scale(0.12 -0.12)">
      <use xlink:href="#DejaVuSans-44"/>
      <use x="77.001953" xlink:href="#DejaVuSans-61"/>
      <use x="138.28125" xlink:href="#DejaVuSans-74"/>
      <use x="177.490234" xlink:href="#DejaVuSans-65"/>
     </g>
    </g>
   </g>
   <g id="matplotlib.axis_2">
    <g id="ytick_1">
     <g id="line2d_15">
      <path clip-path="url(#pbed06b898d)" d="M 57.6 246.431385 
L 414.72 246.431385 
" style="fill:none;stroke:#ffffff;stroke-linecap:square;stroke-width:0.8;"/>
     </g>
     <g id="line2d_16">
      <defs>
       <path d="M 0 0 
L -3.5 0 
" id="md7774b67d3" style="stroke:#555555;stroke-width:0.8;"/>
      </defs>
      <g>
       <use style="fill:#555555;stroke:#555555;stroke-width:0.8;" x="57.6" xlink:href="#md7774b67d3" y="246.431385"/>
      </g>
     </g>
     <g id="text_9">
      <!-- 15 -->
      <g style="fill:#555555;" transform="translate(37.875 250.230603)scale(0.1 -0.1)">
       <use xlink:href="#DejaVuSans-31"/>
       <use x="63.623047" xlink:href="#DejaVuSans-35"/>
      </g>
     </g>
    </g>
    <g id="ytick_2">
     <g id="line2d_17">
      <path clip-path="url(#pbed06b898d)" d="M 57.6 215.788294 
L 414.72 215.788294 
" style="fill:none;stroke:#ffffff;stroke-linecap:square;stroke-width:0.8;"/>
     </g>
     <g id="line2d_18">
      <g>
       <use style="fill:#555555;stroke:#555555;stroke-width:0.8;" x="57.6" xlink:href="#md7774b67d3" y="215.788294"/>
      </g>
     </g>
     <g id="text_10">
      <!-- 20 -->
      <g style="fill:#555555;" transform="translate(37.875 219.587512)scale(0.1 -0.1)">
       <use xlink:href="#DejaVuSans-32"/>
       <use x="63.623047" xlink:href="#DejaVuSans-30"/>
      </g>
     </g>
    </g>
    <g id="ytick_3">
     <g id="line2d_19">
      <path clip-path="url(#pbed06b898d)" d="M 57.6 185.145203 
L 414.72 185.145203 
" style="fill:none;stroke:#ffffff;stroke-linecap:square;stroke-width:0.8;"/>
     </g>
     <g id="line2d_20">
      <g>
       <use style="fill:#555555;stroke:#555555;stroke-width:0.8;" x="57.6" xlink:href="#md7774b67d3" y="185.145203"/>
      </g>
     </g>
     <g id="text_11">
      <!-- 25 -->
      <g style="fill:#555555;" transform="translate(37.875 188.944422)scale(0.1 -0.1)">
       <use xlink:href="#DejaVuSans-32"/>
       <use x="63.623047" xlink:href="#DejaVuSans-35"/>
      </g>
     </g>
    </g>
    <g id="ytick_4">
     <g id="line2d_21">
      <path clip-path="url(#pbed06b898d)" d="M 57.6 154.502112 
L 414.72 154.502112 
" style="fill:none;stroke:#ffffff;stroke-linecap:square;stroke-width:0.8;"/>
     </g>
     <g id="line2d_22">
      <g>
       <use style="fill:#555555;stroke:#555555;stroke-width:0.8;" x="57.6" xlink:href="#md7774b67d3" y="154.502112"/>
      </g>
     </g>
     <g id="text_12">
      <!-- 30 -->
      <g style="fill:#555555;" transform="translate(37.875 158.301331)scale(0.1 -0.1)">
       <use xlink:href="#DejaVuSans-33"/>
       <use x="63.623047" xlink:href="#DejaVuSans-30"/>
      </g>
     </g>
    </g>
    <g id="ytick_5">
     <g id="line2d_23">
      <path clip-path="url(#pbed06b898d)" d="M 57.6 123.859021 
L 414.72 123.859021 
" style="fill:none;stroke:#ffffff;stroke-linecap:square;stroke-width:0.8;"/>
     </g>
     <g id="line2d_24">
      <g>
       <use style="fill:#555555;stroke:#555555;stroke-width:0.8;" x="57.6" xlink:href="#md7774b67d3" y="123.859021"/>
      </g>
     </g>
     <g id="text_13">
      <!-- 35 -->
      <g style="fill:#555555;" transform="translate(37.875 127.65824)scale(0.1 -0.1)">
       <use xlink:href="#DejaVuSans-33"/>
       <use x="63.623047" xlink:href="#DejaVuSans-35"/>
      </g>
     </g>
    </g>
    <g id="ytick_6">
     <g id="line2d_25">
      <path clip-path="url(#pbed06b898d)" d="M 57.6 93.21593 
L 414.72 93.21593 
" style="fill:none;stroke:#ffffff;stroke-linecap:square;stroke-width:0.8;"/>
     </g>
     <g id="line2d_26">
      <g>
       <use style="fill:#555555;stroke:#555555;stroke-width:0.8;" x="57.6" xlink:href="#md7774b67d3" y="93.21593"/>
      </g>
     </g>
     <g id="text_14">
      <!-- 40 -->
      <defs>
       <path d="M 37.796875 64.3125 
L 12.890625 25.390625 
L 37.796875 25.390625 
z
M 35.203125 72.90625 
L 47.609375 72.90625 
L 47.609375 25.390625 
L 58.015625 25.390625 
L 58.015625 17.1875 
L 47.609375 17.1875 
L 47.609375 0 
L 37.796875 0 
L 37.796875 17.1875 
L 4.890625 17.1875 
L 4.890625 26.703125 
z
" id="DejaVuSans-34"/>
      </defs>
      <g style="fill:#555555;" transform="translate(37.875 97.015149)scale(0.1 -0.1)">
       <use xlink:href="#DejaVuSans-34"/>
       <use x="63.623047" xlink:href="#DejaVuSans-30"/>
      </g>
     </g>
    </g>
    <g id="ytick_7">
     <g id="line2d_27">
      <path clip-path="url(#pbed06b898d)" d="M 57.6 62.572839 
L 414.72 62.572839 
" style="fill:none;stroke:#ffffff;stroke-linecap:square;stroke-width:0.8;"/>
     </g>
     <g id="line2d_28">
      <g>
       <use style="fill:#555555;stroke:#555555;stroke-width:0.8;" x="57.6" xlink:href="#md7774b67d3" y="62.572839"/>
      </g>
     </g>
     <g id="text_15">
      <!-- 45 -->
      <g style="fill:#555555;" transform="translate(37.875 66.372058)scale(0.1 -0.1)">
       <use xlink:href="#DejaVuSans-34"/>
       <use x="63.623047" xlink:href="#DejaVuSans-35"/>
      </g>
     </g>
    </g>
   </g>
   <g id="line2d_29">
    <path clip-path="url(#pbed06b898d)" d="M 57.6 59.125491 
L 57.66114 56.444221 
L 57.783421 77.894384 
L 57.966841 74.830075 
L 58.027982 79.426539 
L 58.089122 74.063998 
L 58.211402 87.087312 
L 58.455963 87.087312 
L 58.517103 84.78908 
L 58.578243 86.321234 
L 58.639384 87.087312 
L 58.883945 82.490848 
L 59.067365 62.955878 
L 59.250786 66.740299 
L 59.311926 71.459341 
L 59.495347 61.408408 
L 59.678767 63.185688 
L 59.739908 52.154182 
L 59.801048 57.363526 
L 59.862188 64.411418 
L 59.923328 63.492144 
L 60.167889 60.795533 
L 60.35131 69.007882 
L 60.718151 56.750645 
L 60.779291 62.021263 
L 60.962712 67.169303 
L 61.084992 61.040684 
L 61.390693 71.520615 
L 61.451834 65.821 
L 61.574114 81.203844 
L 61.635254 78.691111 
L 61.818675 82.797273 
L 62.063236 105.350594 
L 62.246656 111.29536 
L 62.307797 105.473166 
L 62.368937 109.45678 
L 62.430077 118.281978 
L 62.491217 113.440364 
L 62.919199 91.377351 
L 63.102619 88.619466 
L 63.2249 100.75413 
L 63.28604 90.458046 
L 63.34718 91.9902 
L 63.591741 80.958693 
L 63.652881 98.057544 
L 63.714022 93.21593 
L 63.958582 84.881003 
L 64.019723 91.070926 
L 64.080863 84.023003 
L 64.203143 94.748084 
L 64.447704 87.087312 
L 64.508844 89.845196 
L 64.875686 72.991496 
L 64.936826 73.297921 
L 64.997966 72.991496 
L 65.059106 79.916841 
L 65.364807 68.456306 
L 65.425948 68.701457 
L 65.731649 76.055805 
L 65.792789 75.688076 
L 65.915069 63.001842 
L 66.09849 63.798569 
L 66.343051 77.771812 
L 66.587612 76.484802 
L 66.648752 72.194769 
L 66.709892 73.91077 
L 66.771032 77.894384 
L 66.954453 73.114068 
L 67.015593 74.094647 
L 67.137874 76.607381 
L 67.199014 70.846461 
L 67.382435 69.620762 
L 67.626995 78.997536 
L 67.871556 74.891349 
L 67.932696 65.024298 
L 67.993837 68.395032 
L 68.299538 80.836121 
L 68.360678 79.916841 
L 68.421818 80.652269 
L 68.666379 90.151621 
L 68.727519 87.700161 
L 68.8498 89.232316 
L 68.91094 92.296625 
L 69.094361 91.745049 
L 69.155501 87.393736 
L 69.338921 107.61817 
L 69.522342 102.83786 
L 69.583482 105.779591 
L 69.766903 86.903459 
L 69.950324 84.452006 
L 70.072604 93.21593 
L 70.133744 91.683775 
L 70.194884 91.9902 
L 70.378305 93.21593 
L 70.500586 85.73901 
L 70.622866 88.68074 
L 70.806287 87.271164 
L 70.928567 91.9902 
L 70.989707 89.171042 
L 71.050847 90.151621 
L 71.234268 90.090347 
L 71.356549 84.942308 
L 71.417689 86.903459 
L 71.478829 86.045459 
L 71.66225 82.490848 
L 71.72339 84.635852 
L 71.84567 91.9902 
L 72.090231 85.064855 
L 72.151371 85.861582 
L 72.334792 102.408857 
L 72.579353 102.715282 
L 72.701633 99.896124 
L 72.946194 114.666094 
L 73.374176 93.828779 
L 73.618737 129.987639 
L 74.046718 93.461081 
L 74.230139 91.806348 
L 74.352419 84.023003 
L 74.4747 86.964739 
L 74.65812 83.103698 
L 74.780401 88.68074 
L 74.841541 83.716578 
L 74.902681 90.76447 
L 75.086102 87.700161 
L 75.147242 82.797273 
L 75.208382 84.023003 
L 75.269522 84.023003 
L 75.575223 75.381651 
L 75.697504 80.652269 
L 75.758644 78.997536 
L 75.942065 77.771812 
L 76.003205 77.955658 
L 76.064345 78.507234 
L 76.125485 80.958693 
L 76.186626 76.423504 
L 76.370046 77.58796 
L 76.431186 81.571543 
L 76.492327 80.468392 
L 76.553467 78.568538 
L 76.614607 79.120114 
L 76.798028 80.161967 
L 76.859168 79.732964 
L 77.042589 75.565503 
L 77.226009 74.830075 
L 77.47057 70.846461 
L 77.776271 71.704492 
L 77.837411 73.726924 
L 77.898552 70.846461 
L 78.204253 72.991496 
L 78.265393 70.417464 
L 78.326533 73.05277 
L 78.509954 75.442925 
L 78.693374 93.21593 
L 78.754515 98.180117 
L 78.937935 95.483512 
L 79.121356 81.387697 
L 79.365917 89.845196 
L 79.549337 89.845196 
L 79.793898 90.76447 
L 80.038459 95.667389 
L 80.22188 96.586664 
L 80.466441 85.555157 
L 80.649861 89.232316 
L 80.711002 87.700161 
L 80.772142 88.925891 
L 80.833282 88.435614 
L 80.894422 92.60308 
L 81.138983 90.76447 
L 81.261263 81.142546 
L 81.322404 81.448995 
L 81.689245 86.474462 
L 81.750385 81.571543 
L 81.933806 81.877998 
L 81.994946 86.168007 
L 82.056086 83.410153 
L 82.117227 85.555157 
L 82.178367 95.667389 
L 82.484068 85.248732 
L 82.545208 86.535736 
L 82.606348 86.658308 
L 82.850909 86.351884 
L 82.912049 88.925891 
L 82.97319 85.861582 
L 83.03433 91.070926 
L 83.21775 87.577613 
L 83.278891 88.619466 
L 83.340031 85.248732 
L 83.401171 86.780887 
L 83.645732 83.103698 
L 83.706872 84.819729 
L 83.890293 93.21593 
L 84.073713 91.9902 
L 84.257134 95.054509 
L 84.318274 90.703196 
L 84.501695 85.861582 
L 84.685116 92.60308 
L 84.746256 90.76447 
L 84.929676 88.925891 
L 85.113097 93.828779 
L 85.357658 95.360934 
L 85.418798 92.541776 
L 85.479938 92.970779 
L 85.785639 108.231051 
L 85.96906 98.363969 
L 86.0302 100.508979 
L 86.213621 99.650973 
L 86.274761 98.302695 
L 86.335901 98.731698 
L 86.458182 105.166741 
L 86.641602 105.473166 
L 86.763883 113.37909 
L 86.825023 103.021707 
L 86.886163 107.61817 
L 87.130724 114.053244 
L 87.191864 113.440364 
L 87.253005 108.537475 
L 87.314145 109.763205 
L 87.558706 112.214634 
L 87.619846 118.956132 
L 87.680986 112.521089 
L 87.742126 114.666094 
L 87.925547 115.830525 
L 87.986687 111.785637 
L 88.047827 111.908209 
L 88.108968 122.326866 
L 88.170108 121.407561 
L 88.353529 113.440364 
L 88.414669 113.562942 
L 88.536949 117.240101 
L 88.598089 116.198248 
L 88.84265 120.855986 
L 88.964931 124.962172 
L 89.026071 122.326866 
L 89.209492 124.900874 
L 89.270632 132.255222 
L 89.331772 126.862056 
L 89.392912 123.552596 
L 89.454052 129.068334 
L 89.637473 126.92333 
L 89.698613 122.020441 
L 89.759753 128.026481 
L 89.820894 125.6976 
L 89.882034 123.859021 
L 90.065455 122.020441 
L 90.187735 118.036827 
L 90.493436 131.826218 
L 90.554576 128.210334 
L 90.615716 135.687254 
L 90.737997 113.133939 
L 91.043698 137.341987 
L 91.349399 126.065329 
L 91.410539 129.987639 
L 91.53282 148.128343 
L 91.59396 139.486991 
L 91.777381 166.452923 
L 91.838521 164.920769 
L 91.960801 159.037289 
L 92.021941 169.701085 
L 92.205362 173.010539 
L 92.327643 178.403723 
L 92.449923 163.695039 
L 92.816764 140.46757 
L 92.877904 145.615609 
L 93.122465 151.437803 
L 93.305886 137.035562 
L 93.550447 139.793416 
L 93.611587 143.593165 
L 93.733867 132.561646 
L 93.917288 133.480951 
L 94.161849 125.207323 
L 94.34527 125.575028 
L 94.40641 126.371754 
L 94.52869 139.486991 
L 94.589831 138.874142 
L 94.895532 143.470605 
L 94.956672 141.019146 
L 95.017812 142.673879 
L 95.262373 150.702362 
L 95.323513 140.712721 
L 95.445794 156.034266 
L 95.629214 155.114974 
L 95.690354 149.599223 
L 95.812635 160.937155 
L 95.873775 160.324305 
L 96.118336 162.775746 
L 96.179476 166.698062 
L 96.240616 154.808537 
L 96.301757 155.114974 
L 96.485177 163.878904 
L 96.607458 151.437803 
L 96.668598 154.502112 
L 96.729738 154.992401 
L 96.974299 164.859483 
L 97.15772 150.824941 
L 97.34114 152.663532 
L 97.524561 139.180566 
L 97.585701 138.077415 
L 97.830262 141.264296 
L 98.013683 150.947513 
L 98.197103 139.977293 
L 98.258243 147.454201 
L 98.319384 146.841339 
L 98.380524 141.938451 
L 98.441664 143.77703 
L 98.747365 138.445138 
L 98.808505 132.745523 
L 98.869646 133.051948 
L 99.053066 130.784366 
L 99.297627 139.486991 
L 99.481048 135.809832 
L 99.542188 136.54526 
L 99.603328 136.116257 
L 99.664468 132.132643 
L 99.909029 141.999725 
L 99.970169 144.573744 
L 100.15359 139.793416 
L 100.337011 142.244875 
L 100.459291 147.883204 
L 100.520431 146.841339 
L 100.581572 150.212073 
L 100.764992 150.273359 
L 100.948413 144.573744 
L 101.009553 150.51851 
L 101.192974 150.702362 
L 101.254114 149.905648 
L 101.315254 158.117997 
L 101.376394 153.88925 
L 101.620955 149.108934 
L 101.804376 146.044625 
L 101.865516 154.379539 
L 102.048937 153.88925 
L 102.110077 149.537937 
L 102.232357 149.966934 
L 102.293498 145.247898 
L 102.538059 142.244875 
L 102.660339 148.986355 
L 102.721479 147.638053 
L 102.9049 148.802497 
L 103.149461 155.114974 
L 103.577442 148.373494 
L 103.760863 154.502112 
L 103.822003 153.88925 
L 103.883143 154.440826 
L 103.944284 151.437803 
L 104.005424 157.259996 
L 104.188844 147.147764 
L 104.372265 156.401977 
L 104.433405 155.298826 
L 104.616826 158.363135 
L 104.677966 156.401977 
L 104.739106 164.859483 
L 104.800247 162.101598 
L 104.861387 163.20475 
L 105.167088 158.179283 
L 105.289368 162.837039 
L 105.472789 160.937155 
L 105.595069 162.530595 
L 105.90077 154.379539 
L 106.023051 162.101598 
L 106.084191 159.159862 
L 106.145331 162.162885 
L 106.328752 159.28244 
L 106.389892 159.834016 
L 106.451032 160.998441 
L 106.512173 157.566421 
L 106.573313 158.914711 
L 106.756733 161.85646 
L 107.001294 146.841339 
L 107.184715 146.412336 
L 107.245855 148.863783 
L 107.306995 142.183601 
L 107.368136 143.77703 
L 107.429276 144.083455 
L 107.673837 146.718767 
L 107.796117 138.261261 
L 107.857257 138.567717 
L 108.040678 133.664798 
L 108.101818 139.180566 
L 108.162958 134.093801 
L 108.224099 144.696323 
L 108.285239 142.490026 
L 108.468659 145.00276 
L 108.59094 140.099871 
L 108.65208 143.409319 
L 108.957781 144.696323 
L 109.018921 143.470605 
L 109.080062 148.373494 
L 109.141202 146.841339 
L 109.324622 151.253938 
L 109.385763 148.986355 
L 109.446903 149.537937 
L 109.508043 149.231494 
L 109.569183 149.905648 
L 109.813744 141.32557 
L 109.874884 142.244875 
L 109.997165 146.534914 
L 110.302866 132.132643 
L 110.364006 133.17452 
L 110.425146 133.297099 
L 110.608567 134.584103 
L 110.730847 148.373494 
L 110.791988 145.247898 
L 110.853128 142.735165 
L 111.097689 143.470605 
L 111.158829 142.673879 
L 111.219969 143.77703 
L 111.281109 147.20905 
L 111.46453 145.676895 
L 111.52567 148.312207 
L 111.709091 136.116257 
L 111.892512 135.993685 
L 111.953652 133.051948 
L 112.014792 134.584103 
L 112.137072 133.358373 
L 112.320493 131.887517 
L 112.442773 117.730403 
L 112.503914 117.914255 
L 112.748475 122.633291 
L 112.809615 121.101136 
L 112.870755 120.488287 
L 112.931895 122.020441 
L 112.993035 119.262557 
L 113.176456 123.859021 
L 113.237596 129.987639 
L 113.298737 126.739477 
L 113.359877 127.536179 
L 113.604438 124.778326 
L 113.848998 131.213369 
L 114.032419 127.107182 
L 114.093559 127.903909 
L 114.27698 135.503408 
L 114.460401 130.600489 
L 114.582681 138.935415 
L 114.643821 134.277678 
L 114.704961 141.632026 
L 114.888382 134.951826 
L 114.949522 136.729107 
L 115.010663 137.954837 
L 115.071803 133.051948 
L 115.132943 135.319531 
L 115.316364 138.077415 
L 115.377504 135.196952 
L 115.499784 140.528868 
L 115.560924 136.30011 
L 115.744345 136.974258 
L 115.805485 135.503408 
L 115.988906 146.534914 
L 116.172327 144.696323 
L 116.233467 145.370471 
L 116.600308 157.566421 
L 116.722589 152.847385 
L 116.783729 154.808537 
L 116.844869 155.605263 
L 117.08943 153.582819 
L 117.15057 150.51851 
L 117.21171 151.744227 
L 117.456271 149.108934 
L 117.639692 142.122303 
L 117.700832 142.42874 
L 117.884253 142.490026 
L 117.945393 143.102876 
L 118.128814 142.061023 
L 118.312234 148.189629 
L 118.373374 147.147764 
L 118.434515 143.470605 
L 118.556795 152.357095 
L 118.740216 150.824941 
L 118.801356 149.047648 
L 118.862496 152.295803 
L 118.923636 150.395938 
L 118.984777 145.922046 
L 119.229337 151.376517 
L 119.351618 149.292786 
L 119.412758 149.783076 
L 119.596179 149.599223 
L 119.657319 151.437803 
L 119.718459 149.108934 
L 119.779599 150.51851 
L 119.84074 149.108934 
L 120.02416 151.070092 
L 120.146441 148.373494 
L 120.207581 150.824941 
L 120.268721 148.312207 
L 120.452142 148.250921 
L 120.513282 148.496066 
L 120.574422 146.044625 
L 120.635562 150.150799 
L 120.696703 148.373494 
L 120.880123 144.389892 
L 121.002404 148.250921 
L 121.124684 142.612586 
L 121.308105 143.654458 
L 121.369245 146.412336 
L 121.552666 131.335941 
L 121.736086 137.525839 
L 121.797227 128.761909 
L 121.858367 129.803787 
L 121.919507 129.374789 
L 121.980647 132.132643 
L 122.164068 133.17452 
L 122.225208 132.745523 
L 122.286348 131.213369 
L 122.408629 133.358373 
L 122.592049 129.497337 
L 122.65319 130.723067 
L 122.83661 127.658758 
L 123.020031 129.987639 
L 123.081171 126.92333 
L 123.142311 128.455484 
L 123.203451 129.129639 
L 123.264592 125.820179 
L 123.692573 127.291053 
L 123.875994 129.681214 
L 124.120555 125.575028 
L 124.303975 125.329901 
L 124.548536 121.223715 
L 124.731957 117.914255 
L 124.793097 112.827514 
L 124.854237 116.3821 
L 124.915378 112.827514 
L 124.976518 116.933676 
L 125.159938 117.730403 
L 125.282219 125.391175 
L 125.404499 124.47187 
L 125.64906 123.736448 
L 125.7102 125.084751 
L 125.832481 114.788666 
L 126.015901 116.811098 
L 126.077042 112.582363 
L 126.199322 118.036827 
L 126.260462 114.543521 
L 126.443883 112.275939 
L 126.627304 102.715282 
L 126.688444 103.941012 
L 126.871864 102.408857 
L 126.994145 106.086016 
L 127.055285 105.473166 
L 127.116425 107.61817 
L 127.360986 107.066595 
L 127.544407 109.885777 
L 127.727827 109.947058 
L 127.788968 113.440364 
L 127.850108 111.172781 
L 127.972388 111.356634 
L 128.155809 110.743784 
L 128.278089 113.746789 
L 128.40037 110.06963 
L 128.58379 109.150325 
L 128.644931 106.76017 
L 129.011772 122.38814 
L 129.072912 122.633291 
L 129.134052 121.407561 
L 129.256333 126.31048 
L 129.439753 130.294064 
L 129.500894 129.865067 
L 129.623174 126.739477 
L 129.684314 129.987639 
L 129.867735 126.800758 
L 130.112296 117.117553 
L 130.295716 116.994975 
L 130.356857 119.262557 
L 130.417997 119.139985 
L 130.479137 117.791677 
L 130.723698 120.181862 
L 130.784838 118.465831 
L 130.845978 121.407561 
L 130.907119 118.281978 
L 130.968259 109.211629 
L 131.15168 107.311746 
L 131.39624 114.849946 
L 131.579661 115.156395 
L 131.640801 113.808093 
L 131.824222 120.488287 
L 132.007643 118.404557 
L 132.191063 113.869367 
L 132.252203 115.769245 
L 132.435624 116.504673 
L 132.680185 122.510719 
L 132.863606 123.246171 
L 132.985886 118.956132 
L 133.108166 124.226744 
L 133.291587 125.268603 
L 133.352727 128.332912 
L 133.413867 126.187902 
L 133.536148 120.120558 
L 133.780709 122.939716 
L 133.964129 119.262557 
L 134.14755 117.730403 
L 134.20869 118.649708 
L 134.269831 117.117553 
L 134.330971 118.159406 
L 134.697812 123.307445 
L 134.758952 123.246171 
L 135.003513 122.326866 
L 135.064653 122.817168 
L 135.431495 129.129639 
L 135.492635 128.884488 
L 135.553775 127.352333 
L 135.676055 130.23279 
L 135.920616 130.600489 
L 136.042897 131.703646 
L 136.104037 129.987639 
L 136.287458 130.416642 
L 136.348598 131.213369 
L 136.470878 129.803787 
L 136.532018 138.567717 
L 136.715439 139.119292 
L 136.776579 141.570721 
L 136.83772 138.322566 
L 136.89886 142.244875 
L 136.96 139.303139 
L 137.143421 140.712721 
L 137.204561 143.838316 
L 137.265701 143.593165 
L 137.387982 143.28674 
L 137.571402 143.654458 
L 137.693683 139.85472 
L 137.754823 140.099871 
L 137.815963 146.534914 
L 138.060524 147.025204 
L 138.121664 147.699339 
L 138.182804 145.00276 
L 138.243945 145.738188 
L 138.427365 147.147764 
L 138.488505 145.615609 
L 138.549646 147.025204 
L 138.610786 143.77703 
L 138.671926 145.983339 
L 138.855347 144.696323 
L 138.916487 142.612586 
L 138.977627 144.880181 
L 139.099908 139.303139 
L 139.344468 140.283718 
L 139.527889 137.893563 
L 139.77245 136.974258 
L 139.83359 137.709686 
L 139.89473 137.403261 
L 139.955871 140.712721 
L 140.139291 142.244875 
L 140.200431 140.222419 
L 140.261572 141.509447 
L 140.322712 144.267319 
L 140.383852 143.102876 
L 140.628413 148.43478 
L 140.995254 156.034266 
L 141.056394 155.850402 
L 141.178675 146.841339 
L 141.239815 148.067069 
L 141.545516 145.615609 
L 141.667797 156.279417 
L 141.851217 155.97298 
L 141.912357 154.502112 
L 141.973498 155.298826 
L 142.279199 165.411058 
L 142.340339 160.017868 
L 142.401479 164.675618 
L 142.462619 164.001464 
L 142.52376 164.246615 
L 142.70718 168.291503 
L 142.76832 168.046352 
L 142.890601 160.385579 
L 142.951741 162.162885 
L 143.135162 160.937155 
L 143.196302 161.243592 
L 143.257442 152.050665 
L 143.318582 154.502112 
L 143.563143 166.146486 
L 143.624284 166.330345 
L 143.807704 171.662237 
L 144.052265 168.904365 
L 144.113405 170.926809 
L 144.174545 166.023908 
L 144.235686 168.107638 
L 144.663667 174.358835 
L 144.969368 166.698062 
L 145.091649 163.143463 
L 145.39735 171.662237 
L 145.45849 169.639793 
L 145.51963 171.600963 
L 145.703051 172.397677 
L 145.825331 170.130082 
L 145.886471 165.227194 
L 145.947612 184.532341 
L 146.131032 182.387318 
L 146.192173 186.370933 
L 146.314453 177.116719 
L 146.559014 177.178005 
L 146.803575 171.355812 
L 146.986995 170.988101 
L 147.048136 176.503851 
L 147.109276 176.074848 
L 147.170416 176.565137 
L 147.231556 175.707125 
L 147.537257 177.913433 
L 147.659538 183.061473 
L 147.904099 183.551762 
L 147.965239 182.080894 
L 148.026379 185.880643 
L 148.087519 185.145203 
L 148.27094 186.738643 
L 148.33208 188.761087 
L 148.39322 186.79993 
L 148.454361 187.290219 
L 148.515501 187.290219 
L 148.698921 187.474072 
L 148.821202 190.967396 
L 148.882342 190.415821 
L 148.943482 191.273821 
L 149.126903 187.719222 
L 149.249183 181.222893 
L 149.310324 184.22591 
L 149.371464 183.306623 
L 149.554884 183.858199 
L 149.616025 182.264758 
L 149.738305 185.145203 
L 149.799445 184.777492 
L 150.044006 172.949253 
L 150.105146 175.032983 
L 150.166287 176.565137 
L 150.227427 175.952275 
L 150.410847 173.255677 
L 150.471988 175.768411 
L 150.533128 174.726546 
L 150.655408 173.56212 
L 150.838829 173.010539 
L 150.899969 171.233239 
L 150.961109 174.05241 
L 151.02225 173.991118 
L 151.08339 173.807259 
L 151.26681 175.768411 
L 151.327951 174.420121 
L 151.450231 179.323009 
L 151.511371 178.955298 
L 151.694792 180.242314 
L 151.755932 179.752025 
L 151.817072 182.571183 
L 151.878213 177.48443 
L 152.122773 177.178005 
L 152.245054 179.629446 
L 152.306194 176.503851 
L 152.367334 176.74899 
L 152.550755 178.097292 
L 152.673035 172.336391 
L 152.734176 178.71016 
L 152.795316 175.829703 
L 152.978737 175.278121 
L 153.039877 176.565137 
L 153.223297 166.759348 
L 153.590139 172.887966 
L 153.651279 171.417098 
L 153.8347 171.846101 
L 154.01812 173.745967 
L 154.07926 174.236256 
L 154.507242 167.188351 
L 154.690663 169.455946 
L 154.751803 167.801213 
L 154.812943 169.884943 
L 154.874083 168.291503 
L 154.935223 167.494788 
L 155.118644 166.759348 
L 155.363205 162.469309 
L 155.546626 163.633753 
L 155.791186 162.162885 
L 156.096888 167.188351 
L 156.158028 165.533618 
L 156.219168 166.146486 
L 156.402589 166.575483 
L 156.524869 166.146486 
L 156.586009 169.394654 
L 156.647149 168.475367 
L 156.83057 169.149503 
L 157.075131 161.304884 
L 157.258552 163.082177 
L 157.319692 162.653174 
L 157.503112 161.550023 
L 157.869954 169.149503 
L 157.931094 173.807259 
L 158.236795 172.458963 
L 158.297935 176.565137 
L 158.359076 174.113696 
L 158.542496 171.539676 
L 158.664777 172.887966 
L 158.787057 169.517232 
L 158.970478 170.375233 
L 159.031618 171.355812 
L 159.092758 169.210795 
L 159.215039 174.420121 
L 159.398459 175.952275 
L 159.459599 175.4007 
L 159.52074 176.565137 
L 159.64302 174.236256 
L 159.826441 173.010539 
L 159.948721 173.56212 
L 160.009861 173.500828 
L 160.071002 175.890989 
L 160.315562 176.74899 
L 160.376703 174.542693 
L 160.437843 176.319986 
L 160.498983 176.074848 
L 160.804684 178.71016 
L 160.865824 178.036006 
L 161.354946 185.329067 
L 161.538367 186.493493 
L 161.721787 182.326045 
L 161.782928 182.693755 
L 162.027488 182.571183 
L 162.210909 175.032983 
L 163.066872 184.532341 
L 163.250293 184.900052 
L 163.311433 183.551762 
L 163.372573 185.635492 
L 163.433713 185.390354 
L 163.494854 185.451628 
L 163.678274 184.042051 
L 163.739414 182.387318 
L 163.800555 182.693755 
L 163.922835 187.106361 
L 164.106256 189.067512 
L 164.167396 188.515937 
L 164.228536 182.264758 
L 164.289676 186.309646 
L 164.350817 188.577223 
L 164.534237 189.067512 
L 164.656518 190.783531 
L 164.778798 203.531057 
L 165.023359 208.250093 
L 165.084499 207.821096 
L 165.145639 209.230672 
L 165.20678 208.679097 
L 165.3902 204.756787 
L 165.451341 205.063212 
L 165.512481 206.53408 
L 165.573621 205.369637 
L 165.634761 203.102054 
L 165.818182 201.386041 
L 165.940462 203.714922 
L 166.001602 202.550478 
L 166.062743 201.386041 
L 166.246163 200.037745 
L 166.429584 206.901791 
L 166.490724 205.369637 
L 166.674145 205.247077 
L 166.735285 205.369637 
L 166.796425 207.208228 
L 166.918706 205.369637 
L 167.102126 204.756787 
L 167.285547 208.004949 
L 167.346687 207.453367 
L 167.530108 207.88237 
L 167.591248 207.085656 
L 167.774669 209.720962 
L 167.958089 211.92727 
L 168.08037 201.631192 
L 168.386071 184.22591 
L 168.569492 191.089956 
L 168.630632 191.273821 
L 168.875193 191.518972 
L 169.058613 194.521995 
L 169.303174 193.418837 
L 169.486595 186.983782 
L 169.670015 185.267775 
L 169.792296 187.59665 
L 169.853436 186.554785 
L 169.914576 187.045068 
L 170.159137 188.148226 
L 170.220277 190.109377 
L 170.342558 185.329067 
L 170.525978 186.370933 
L 170.587119 185.145203 
L 170.648259 186.861222 
L 170.95396 178.097292 
L 171.0151 178.894012 
L 171.07624 180.548739 
L 171.137381 178.403723 
L 171.443082 184.838778 
L 171.565362 176.74899 
L 171.626502 179.016585 
L 171.809923 182.693755 
L 171.871063 181.897029 
L 171.932203 182.264758 
L 172.054484 180.242314 
L 172.360185 180.91645 
L 172.421325 177.668295 
L 172.482465 178.34243 
L 172.727026 175.339414 
L 172.910447 179.752025 
L 173.093867 178.036006 
L 173.155008 178.771434 
L 173.216148 178.403723 
L 173.338428 176.932854 
L 173.582989 179.629446 
L 174.010971 175.952275 
L 174.194391 177.545716 
L 174.377812 179.016585 
L 174.622373 183.674334 
L 174.805794 184.593627 
L 174.866934 183.735621 
L 174.989214 185.02263 
L 175.050354 184.532341 
L 175.417196 189.741666 
L 175.722897 188.699801 
L 175.784037 184.716199 
L 175.845177 186.79993 
L 175.906317 185.696778 
L 176.212018 187.290219 
L 176.273159 185.329067 
L 176.334299 185.758065 
L 176.51772 182.080894 
L 176.57886 184.838778 
L 176.64 183.490476 
L 177.006841 182.080894 
L 177.373683 188.086939 
L 177.495963 186.922508 
L 177.618243 191.273821 
L 177.862804 192.98984 
L 178.046225 191.02867 
L 178.290786 191.886683 
L 178.351926 193.357551 
L 178.413066 192.315686 
L 178.657627 189.435242 
L 178.902188 193.418837 
L 179.085609 194.031705 
L 179.207889 197.341153 
L 179.330169 194.950992 
L 179.51359 194.33813 
L 179.758151 199.241018 
L 179.941572 194.644555 
L 180.063852 197.831442 
L 180.124992 197.402439 
L 180.186133 195.56386 
L 180.369553 194.092979 
L 180.491834 194.154265 
L 180.614114 192.499551 
L 180.797535 192.193114 
L 180.858675 192.683403 
L 181.042096 198.199153 
L 181.225516 201.07961 
L 181.347797 199.302305 
L 181.470077 192.499551 
L 181.653498 191.212535 
L 181.898059 180.855164 
L 182.081479 176.2587 
L 182.2649 181.590604 
L 182.32604 179.752025 
L 182.509461 179.261735 
L 182.631741 178.21987 
L 182.754022 180.05845 
L 182.937442 179.752025 
L 183.182003 172.949253 
L 183.426564 175.094275 
L 183.548844 171.662237 
L 183.609985 172.152526 
L 183.793405 171.968674 
L 183.976826 168.414075 
L 184.037966 168.046352 
L 184.343667 167.433502 
L 184.465948 170.436519 
L 184.649368 169.823657 
L 184.771649 165.962634 
L 184.832789 166.391637 
L 184.893929 165.349766 
L 185.07735 166.881921 
L 185.26077 163.878904 
L 185.321911 165.472344 
L 185.505331 164.982043 
L 185.566471 165.104621 
L 185.627612 165.227194 
L 185.749892 164.369193 
L 185.933313 165.533618 
L 186.055593 164.246615 
L 186.544715 171.110661 
L 186.605855 169.578506 
L 186.789276 169.210795 
L 186.850416 170.068808 
L 186.972696 164.185329 
L 187.033837 168.230217 
L 187.217257 169.517232 
L 187.339538 171.846101 
L 187.400678 171.171947 
L 187.461818 171.907387 
L 187.645239 172.152526 
L 187.828659 175.890989 
L 187.8898 174.849124 
L 188.07322 175.523272 
L 188.134361 172.887966 
L 188.195501 174.787832 
L 188.501202 181.40674 
L 188.745763 174.726546 
L 188.929183 171.968674 
L 188.990324 173.071831 
L 189.051464 172.887966 
L 189.173744 173.439542 
L 189.357165 173.56212 
L 189.540586 170.436519 
L 189.601726 169.149503 
L 189.785146 193.418837 
L 189.846287 185.206489 
L 189.907427 185.758065 
L 189.968567 185.267775 
L 190.029707 185.941917 
L 190.213128 183.490476 
L 190.274268 184.838778 
L 190.335408 183.796913 
L 190.457689 181.713183 
L 190.641109 181.161601 
L 190.82453 177.545716 
L 190.88567 179.016585 
L 191.130231 180.242314 
L 191.313652 178.526295 
L 191.619353 178.097292 
L 191.741633 175.645851 
L 192.047334 178.403723 
L 192.108475 180.364874 
L 192.169615 176.687716 
L 192.536456 173.868545 
L 192.597596 171.539676 
L 192.781017 171.478384 
L 192.903297 176.932854 
L 192.964438 173.991118 
L 193.025578 176.994141 
L 193.208998 177.545716 
L 193.331279 178.955298 
L 193.453559 174.91041 
L 193.69812 174.297549 
L 193.820401 176.871568 
L 193.881541 176.503851 
L 194.064961 176.442565 
L 194.126102 177.668295 
L 194.187242 177.055427 
L 194.248382 175.461986 
L 194.309522 176.442565 
L 194.676364 178.465009 
L 194.737504 179.629446 
L 194.982065 181.774469 
L 195.104345 186.064495 
L 195.165485 185.267775 
L 195.348906 186.493493 
L 195.532327 182.509897 
L 195.593467 182.816334 
L 195.776888 182.632469 
L 195.838028 183.061473 
L 195.960308 186.493493 
L 196.021448 184.716199 
L 196.204869 184.838778 
L 196.38829 181.039029 
L 196.44943 181.345453 
L 196.755131 182.387318 
L 196.816271 184.042051 
L 196.877411 183.000186 
L 197.060832 183.735621 
L 197.244253 180.610025 
L 197.549954 179.261735 
L 197.611094 179.384296 
L 197.672234 179.200449 
L 197.733374 174.113696 
L 197.916795 173.807259 
L 197.977935 173.255677 
L 198.100216 175.216835 
L 198.161356 172.581542 
L 198.467057 177.913433 
L 198.528197 176.442565 
L 198.589337 175.278121 
L 198.772758 175.645851 
L 198.833898 176.810276 
L 199.017319 174.05241 
L 199.20074 172.581542 
L 199.26188 171.171947 
L 199.32302 172.152526 
L 199.38416 172.336391 
L 199.4453 174.17497 
L 200.056703 170.313947 
L 200.240123 171.110661 
L 200.301263 171.171947 
L 200.545824 169.701085 
L 200.668105 170.74295 
L 200.729245 169.639793 
L 200.912666 169.517232 
L 200.973806 170.068808 
L 201.157227 177.729581 
L 201.340647 175.952275 
L 201.462928 177.790855 
L 201.524068 177.423144 
L 201.585208 175.890989 
L 201.768629 175.952275 
L 201.952049 180.610025 
L 202.01319 180.426167 
L 202.25775 182.203466 
L 202.380031 181.897029 
L 202.441171 180.426167 
L 202.624592 180.855164 
L 202.808012 180.181028 
L 202.869153 179.813299 
L 203.052573 179.56816 
L 203.174854 182.019607 
L 203.235994 181.774469 
L 203.297134 179.200449 
L 203.480555 180.181028 
L 203.541695 178.771434 
L 203.602835 184.042051 
L 203.663975 183.796913 
L 203.725116 184.716199 
L 204.030817 185.574206 
L 204.458798 194.276844 
L 204.519938 193.1124 
L 204.581079 191.641532 
L 204.764499 193.173686 
L 204.88678 189.312663 
L 204.94792 189.741666 
L 205.00906 191.273821 
L 205.192481 190.048091 
L 205.375901 195.19613 
L 205.437042 192.683403 
L 205.620462 191.76411 
L 205.803883 186.738643 
L 205.865023 188.086939 
L 206.048444 186.79993 
L 206.231864 188.761087 
L 206.293005 187.106361 
L 206.537565 186.493493 
L 206.598706 185.758065 
L 206.904407 189.128805 
L 206.965547 190.967396 
L 207.026687 190.599667 
L 207.087827 189.373955 
L 207.148968 190.048091 
L 207.332388 190.293242 
L 207.393529 190.231956 
L 207.515809 185.635492 
L 207.576949 186.309646 
L 207.76037 187.228933 
L 207.82151 189.128805 
L 207.88265 188.883666 
L 208.004931 186.616071 
L 208.188351 188.515937 
L 208.432912 182.080894 
L 208.616333 181.713183 
L 208.677473 182.509897 
L 208.799753 181.65189 
L 209.472296 191.273821 
L 209.533436 190.477107 
L 209.594576 191.089956 
L 209.716857 189.373955 
L 209.900277 189.496516 
L 210.083698 187.719222 
L 210.144838 191.089956 
L 210.328259 193.725268 
L 210.389399 193.173686 
L 210.450539 193.541416 
L 210.75624 198.444304 
L 210.878521 193.1124 
L 210.939661 193.970419 
L 211.184222 195.257423 
L 211.306502 200.466748 
L 211.428783 198.321732 
L 211.612203 197.708864 
L 211.673344 199.915173 
L 211.856764 192.2544 
L 212.040185 193.60269 
L 212.101325 195.19613 
L 212.162465 193.970419 
L 212.284746 190.231956 
L 212.468166 188.883666 
L 212.529307 189.067512 
L 212.712727 195.012284 
L 212.896148 197.096014 
L 213.018428 195.379995 
L 213.079569 196.789577 
L 213.140709 195.134844 
L 213.324129 196.605725 
L 213.50755 195.870285 
L 213.56869 197.096014 
L 213.752111 197.831442 
L 213.874391 198.873308 
L 213.996672 196.299288 
L 214.180092 197.892729 
L 214.363513 191.396393 
L 214.424653 191.580246 
L 214.608074 189.802953 
L 214.852635 197.586304 
L 215.097196 205.492215 
L 215.280616 196.360574 
L 215.464037 199.302305 
L 215.525177 196.544439 
L 215.586317 196.605725 
L 215.647458 197.218574 
L 215.708598 194.950992 
L 215.892018 194.031705 
L 215.953159 194.33813 
L 216.075439 199.853886 
L 216.136579 199.547456 
L 216.38114 201.692478 
L 216.503421 199.057166 
L 216.564561 200.895752 
L 216.809122 200.466748 
L 216.870262 201.508613 
L 216.931402 199.424883 
L 216.992542 200.466748 
L 217.175963 200.466748 
L 217.298243 198.689443 
L 217.359384 198.934594 
L 217.665085 202.611765 
L 217.726225 200.957038 
L 217.848505 206.840517 
L 218.093066 207.575945 
L 218.154206 204.94064 
L 218.215347 208.679097 
L 218.276487 207.698518 
L 218.459908 213.459425 
L 218.582188 210.578968 
L 218.643328 211.498255 
L 218.887889 210.762827 
L 218.949029 211.620833 
L 219.010169 211.375695 
L 219.07131 211.130544 
L 219.13245 211.620833 
L 219.315871 211.559541 
L 219.499291 207.146942 
L 219.560431 207.637232 
L 219.743852 207.02437 
L 219.804992 207.514659 
L 219.988413 210.517676 
L 220.171834 212.478834 
L 220.232974 212.111123 
L 220.294114 210.701541 
L 220.355254 212.723985 
L 220.416394 212.172409 
L 220.660955 214.378712 
L 220.722096 216.523734 
L 220.783236 216.094719 
L 221.027797 212.785271 
L 221.211217 214.746429 
L 221.272357 212.846557 
L 221.455778 212.111123 
L 221.516918 212.601412 
L 221.700339 216.339869 
L 221.88376 216.707586 
L 222.12832 215.052853 
L 222.311741 215.481869 
L 222.372881 214.685142 
L 222.434022 215.11414 
L 222.556302 217.443021 
L 222.800863 218.362313 
L 222.923143 219.833182 
L 222.984284 219.036467 
L 223.167704 219.281606 
L 223.412265 224.73607 
L 223.779106 230.374399 
L 223.840247 229.332534 
L 224.023667 228.597106 
L 224.084807 228.964823 
L 224.145948 224.981221 
L 224.268228 229.761549 
L 224.512789 231.783993 
L 224.635069 229.516398 
L 224.69621 232.580708 
L 224.87963 232.396843 
L 224.94077 231.538842 
L 225.001911 229.026109 
L 225.063051 229.455112 
L 225.307612 229.27126 
L 225.368752 231.293704 
L 225.429892 226.023086 
L 225.491032 227.126237 
L 225.552173 228.413241 
L 225.735593 227.922958 
L 225.796733 230.987267 
L 225.857874 230.496977 
L 225.980154 225.532797 
L 226.163575 225.410224 
L 226.224715 228.168102 
L 226.346995 220.752468 
L 226.408136 222.591066 
L 226.591556 222.713626 
L 226.652696 225.47151 
L 226.713837 224.061928 
L 226.836117 223.081355 
L 227.019538 224.245781 
L 227.141818 219.342892 
L 227.202958 220.017046 
L 227.264099 220.629908 
L 227.508659 216.830159 
L 227.63094 217.749452 
L 227.69208 216.585008 
L 227.875501 215.298004 
L 228.058921 220.997619 
L 228.120062 218.975175 
L 228.303482 218.239741 
L 228.364622 218.484892 
L 228.486903 220.875047 
L 228.548043 220.446044 
L 228.792604 220.078333 
L 228.853744 220.875047 
L 228.914884 220.691182 
L 228.976025 224.245781 
L 229.159445 222.897491 
L 229.220586 221.610487 
L 229.342866 228.04553 
L 229.404006 226.268225 
L 229.587427 227.371376 
L 229.770847 231.600129 
L 229.831988 222.529774 
L 230.137689 227.064951 
L 230.198829 227.432668 
L 230.259969 226.145665 
L 230.44339 226.329511 
L 230.50453 228.474533 
L 230.687951 222.345915 
L 230.871371 224.981221 
L 230.932512 222.529774 
L 231.115932 247.47325 
L 231.360493 231.783993 
L 231.421633 232.396843 
L 231.543914 237.667461 
L 231.788475 230.067974 
L 231.971895 240.854342 
L 232.155316 238.464187 
L 232.338737 229.087395 
L 232.399877 229.516398 
L 232.583297 228.964823 
L 232.644438 227.31009 
L 232.705578 227.493954 
L 232.827858 237.299744 
L 233.011279 232.948419 
L 233.1947 241.038201 
L 233.25584 237.544882 
L 233.500401 240.609197 
L 233.561541 239.383474 
L 233.683821 246.492671 
L 233.928382 238.219036 
L 233.989522 242.570355 
L 234.111803 240.180194 
L 234.295223 239.199615 
L 234.356364 242.263924 
L 234.417504 241.405918 
L 234.478644 238.096458 
L 234.539784 239.996342 
L 234.723205 234.970863 
L 234.906626 237.790033 
L 235.151186 234.725724 
L 235.212327 235.706303 
L 235.395747 232.029132 
L 235.579168 231.84528 
L 235.640308 232.090418 
L 235.701448 233.561286 
L 235.823729 233.745145 
L 236.007149 233.438708 
L 236.25171 228.78097 
L 236.435131 225.594083 
L 236.496271 226.084372 
L 236.618552 231.722701 
L 236.679692 229.761549 
L 236.863112 230.067974 
L 237.046533 232.825858 
L 237.107673 229.455112 
L 237.352234 232.70328 
L 237.413374 232.274283 
L 237.474515 232.519421 
L 237.535655 235.645017 
L 237.719076 237.422322 
L 237.902496 244.654085 
L 238.208197 250.108556 
L 238.269337 246.18624 
L 238.330478 249.250549 
L 238.391618 249.250549 
L 238.575039 245.695951 
L 238.636179 254.153444 
L 238.697319 251.456852 
L 238.819599 249.373121 
L 239.1253 251.885855 
L 239.186441 250.721417 
L 239.247581 253.601868 
L 239.431002 254.398588 
L 239.675562 261.936789 
L 239.920123 265.797818 
L 240.103544 260.772351 
L 240.286965 262.488364 
L 240.714946 248.698973 
L 240.776086 251.885855 
L 240.837227 251.272993 
L 240.898367 250.966562 
L 240.959507 254.398588 
L 241.326348 250.84399 
L 241.387488 251.211707 
L 241.69319 255.072736 
L 241.75433 252.192286 
L 241.81547 255.072736 
L 241.998891 255.256595 
L 242.060031 254.888878 
L 242.121171 255.379167 
L 242.182311 254.888878 
L 242.488012 255.50174 
L 242.549153 256.604891 
L 242.671433 252.498717 
L 242.854854 252.743861 
L 243.038274 258.014473 
L 243.099414 256.788749 
L 243.282835 256.482319 
L 243.343975 254.766305 
L 243.405116 256.543605 
L 243.466256 255.134023 
L 243.527396 256.29846 
L 243.771957 252.621289 
L 243.833097 251.518138 
L 243.894237 252.437431 
L 243.955378 250.537559 
L 244.138798 251.947141 
L 244.199938 251.089135 
L 244.322219 244.837944 
L 244.56678 246.308812 
L 244.62792 245.266947 
L 244.68906 245.512092 
L 244.811341 247.411964 
L 245.055901 247.044247 
L 245.117042 246.431385 
L 245.178182 247.902253 
L 245.239322 247.657108 
L 245.422743 244.225082 
L 245.545023 247.350677 
L 245.606163 246.799102 
L 246.034145 252.008427 
L 246.095285 249.066691 
L 246.278706 248.26997 
L 246.339846 251.272993 
L 246.400986 251.150421 
L 246.523267 245.512092 
L 246.890108 248.637687 
L 246.951248 245.021803 
L 247.195809 244.776658 
L 247.318089 247.840967 
L 247.56265 250.108556 
L 247.684931 248.024825 
L 247.746071 248.76026 
L 247.807211 251.150421 
L 247.990632 251.272993 
L 248.174052 246.615243 
L 248.235193 245.941095 
L 248.418613 246.247526 
L 248.663174 239.996342 
L 248.907735 237.299744 
L 249.030015 240.547911 
L 249.091156 239.628612 
L 249.274576 239.567326 
L 249.457997 241.038201 
L 249.519137 240.854342 
L 249.763698 241.52849 
L 249.824838 241.222059 
L 249.885978 241.038201 
L 249.947119 241.099487 
L 250.130539 242.938072 
L 250.3751 237.299744 
L 250.680801 235.461152 
L 250.741941 236.257878 
L 250.803082 234.970863 
L 251.108783 238.15775 
L 251.231063 240.302766 
L 251.475624 237.912612 
L 251.597904 238.954477 
L 251.659045 237.851319 
L 251.842465 239.015763 
L 251.903606 237.912612 
L 251.964746 238.096458 
L 252.025886 238.096458 
L 252.087026 237.422322 
L 252.270447 236.993307 
L 252.392727 235.032149 
L 252.515008 237.667461 
L 252.698428 237.606168 
L 252.820709 234.909589 
L 252.942989 238.096458 
L 253.12641 239.260901 
L 253.309831 234.664438 
L 253.370971 236.074014 
L 253.554391 234.664438 
L 253.615532 234.848302 
L 253.676672 234.970863 
L 253.798952 230.313125 
L 253.982373 230.190546 
L 254.043513 226.329511 
L 254.104653 228.04553 
L 254.165794 231.84528 
L 254.226934 231.171125 
L 254.410354 231.661415 
L 254.532635 232.887145 
L 254.593775 232.70328 
L 254.654915 231.35499 
L 254.899476 234.78701 
L 254.960616 234.603152 
L 255.021757 233.499994 
L 255.082897 234.112862 
L 255.266317 233.561286 
L 255.510878 229.761549 
L 255.694299 230.190546 
L 255.93886 227.126237 
L 256.183421 224.307067 
L 256.366841 227.555241 
L 256.550262 226.145665 
L 256.672542 222.284623 
L 256.794823 222.958777 
L 256.978243 225.042507 
L 257.100524 227.861665 
L 257.161664 225.165086 
L 257.222804 225.777935 
L 257.406225 225.165086 
L 257.467365 226.452089 
L 257.528505 225.777935 
L 257.589646 225.716661 
L 257.650786 225.900514 
L 257.834206 225.594083 
L 257.895347 223.142642 
L 257.956487 223.38778 
L 258.017627 223.939356 
L 258.262188 223.87807 
L 258.690169 226.390803 
L 258.75131 222.407201 
L 258.81245 224.000642 
L 258.93473 224.245781 
L 259.240431 222.713626 
L 259.362712 219.281606 
L 259.607273 218.668738 
L 259.668413 215.481869 
L 259.729553 215.543143 
L 259.790693 220.323471 
L 259.974114 220.446044 
L 260.035254 223.632931 
L 260.096394 223.265202 
L 260.157535 221.487909 
L 260.218675 223.755491 
L 260.463236 222.713626 
L 260.585516 225.900514 
L 260.646656 228.597106 
L 260.830077 228.597106 
L 260.891217 228.842244 
L 260.952357 228.53582 
L 261.013498 229.577685 
L 261.074638 228.964823 
L 261.319199 228.290681 
L 261.441479 230.006688 
L 261.502619 229.148681 
L 261.68604 228.168102 
L 261.869461 230.680836 
L 261.930601 229.945396 
L 262.114022 230.435685 
L 262.175162 228.842244 
L 262.297442 232.029132 
L 262.358582 231.84528 
L 262.542003 230.558264 
L 262.725424 233.438708 
L 262.786564 233.009705 
L 262.969985 233.990284 
L 263.031125 232.21299 
L 263.092265 232.580708 
L 263.153405 232.090418 
L 263.214545 234.725724 
L 263.397966 234.174148 
L 263.581387 229.638971 
L 263.642527 231.96784 
L 263.825948 232.948419 
L 263.887088 232.21299 
L 263.948228 233.070997 
L 264.009368 232.887145 
L 264.253929 233.316148 
L 264.315069 234.541859 
L 264.37621 234.051576 
L 264.681911 232.21299 
L 265.109892 235.767589 
L 265.171032 235.216013 
L 265.232173 235.706303 
L 265.354453 237.667461 
L 265.537874 235.032149 
L 265.660154 237.422322 
L 265.721294 236.441743 
L 265.782435 234.235434 
L 265.965855 235.399878 
L 266.026995 233.254856 
L 266.088136 234.358013 
L 266.149276 233.193569 
L 266.210416 236.012728 
L 266.516117 234.296721 
L 266.944099 241.834921 
L 267.066379 246.492671 
L 267.2498 244.715372 
L 267.31094 246.737816 
L 267.37208 245.757237 
L 267.43322 244.347655 
L 267.494361 244.408941 
L 267.800062 245.695951 
L 267.861202 244.960516 
L 267.922342 246.370099 
L 268.105763 247.411964 
L 268.166903 249.311835 
L 268.228043 248.637687 
L 268.289183 248.576401 
L 268.350324 245.021803 
L 268.533744 242.999359 
L 268.594884 243.979937 
L 268.656025 243.857365 
L 268.717165 243.796079 
L 268.778305 243.428362 
L 268.961726 244.225082 
L 269.206287 249.55698 
L 269.389707 248.331256 
L 269.511988 251.211707 
L 269.573128 250.782704 
L 269.634268 250.782704 
L 269.878829 250.537559 
L 269.939969 250.660131 
L 270.06225 247.350677 
L 270.24567 248.086112 
L 270.30681 246.431385 
L 270.367951 248.086112 
L 270.429091 247.350677 
L 270.490231 247.47325 
L 270.795932 249.189263 
L 270.918213 247.963539 
L 271.101633 248.698973 
L 271.223914 244.715372 
L 271.346194 246.308812 
L 271.529615 245.450806 
L 271.713035 237.912612 
L 271.774176 239.935056 
L 272.018737 238.525461 
L 272.079877 238.464187 
L 272.141017 240.915628 
L 272.202157 239.322188 
L 272.385578 240.425339 
L 272.446718 238.893184 
L 272.507858 239.015763 
L 272.630139 240.854342 
L 272.813559 239.077037 
L 272.93584 241.712349 
L 272.99698 239.812477 
L 273.05812 240.425339 
L 273.241541 239.996342 
L 273.302681 240.976914 
L 273.486102 237.422322 
L 273.730663 237.606168 
L 273.791803 238.15775 
L 273.914083 235.154727 
L 274.097504 234.112862 
L 274.158644 234.603152 
L 274.280924 232.580708 
L 274.342065 232.887145 
L 274.525485 233.683859 
L 274.586626 232.70328 
L 274.647766 233.438708 
L 274.708906 233.438708 
L 274.953467 231.600129 
L 275.014607 232.948419 
L 275.136888 231.232412 
L 275.198028 232.641994 
L 275.381448 233.561286 
L 275.442589 233.499994 
L 275.626009 231.538842 
L 275.87057 231.171125 
L 276.053991 229.332534 
L 276.237411 229.700257 
L 276.359692 231.35499 
L 276.420832 230.313125 
L 276.726533 230.680836 
L 276.787673 231.722701 
L 276.848814 231.661415 
L 276.909954 230.680836 
L 277.154515 230.251839 
L 277.521356 233.806437 
L 277.582496 233.745145 
L 277.704777 236.503017 
L 277.765917 235.154727 
L 277.949337 234.358013 
L 278.071618 237.238457 
L 278.132758 236.932033 
L 278.193898 235.951454 
L 278.377319 236.257878 
L 278.438459 237.115885 
L 278.499599 236.748168 
L 278.62188 236.809454 
L 278.8053 237.790033 
L 278.866441 237.606168 
L 278.927581 237.299744 
L 278.988721 235.461152 
L 279.049861 235.890168 
L 279.233282 236.012728 
L 279.294422 234.603152 
L 279.355562 235.706303 
L 279.416703 235.522438 
L 279.477843 235.645017 
L 279.722404 232.519421 
L 279.783544 233.867724 
L 279.844684 233.745145 
L 279.905824 233.561286 
L 280.089245 234.112862 
L 280.272666 230.803414 
L 280.578367 231.232412 
L 280.639507 229.945396 
L 280.761787 231.47755 
L 281.067488 228.597106 
L 281.128629 226.268225 
L 281.189769 226.881087 
L 281.37319 226.69724 
L 281.43433 226.942379 
L 281.55661 225.9618 
L 281.61775 226.881087 
L 281.923451 225.410224 
L 282.045732 226.513376 
L 282.229153 226.023086 
L 282.290293 224.307067 
L 282.351433 224.368359 
L 282.412573 225.777935 
L 282.473713 224.797356 
L 282.657134 226.881087 
L 282.901695 221.365336 
L 283.085116 220.262185 
L 283.146256 221.916912 
L 283.207396 221.426622 
L 283.268536 221.855626 
L 283.329676 223.694217 
L 283.513097 223.020063 
L 283.757658 219.649317 
L 284.063359 223.265202 
L 284.124499 223.081355 
L 284.185639 222.468488 
L 284.36906 222.223337 
L 284.4302 219.771896 
L 284.491341 220.813761 
L 284.613621 217.504313 
L 284.980462 218.546178 
L 285.041602 219.833182 
L 285.225023 219.159028 
L 285.286163 219.649317 
L 285.469584 214.562564 
L 285.653005 213.827136 
L 285.775285 216.523734 
L 285.836425 215.788294 
L 285.897565 213.643277 
L 286.080986 213.214274 
L 286.142126 215.11414 
L 286.203267 212.785271 
L 286.264407 214.133567 
L 286.508968 212.41756 
L 286.692388 214.072274 
L 286.753529 213.704564 
L 286.998089 212.172409 
L 287.12037 213.091696 
L 287.18151 212.41756 
L 287.426071 213.888428 
L 287.487211 211.620833 
L 287.548351 212.907849 
L 287.792912 216.094719 
L 288.220894 208.801675 
L 288.282034 209.84354 
L 288.343174 213.152988 
L 288.404314 212.04983 
L 288.465455 212.785271 
L 288.648875 212.54012 
L 288.771156 211.069258 
L 288.832296 211.620833 
L 288.893436 209.9661 
L 289.076857 210.640254 
L 289.260277 208.188807 
L 289.504838 212.785271 
L 289.565978 212.723985 
L 289.627119 213.643277 
L 289.749399 209.904826 
L 289.99396 209.659676 
L 290.0551 207.575945 
L 290.177381 211.743406 
L 290.421941 210.027386 
L 290.483082 210.45639 
L 290.788783 215.298004 
L 290.849923 212.41756 
L 290.911063 213.336846 
L 290.972203 214.746429 
L 291.033344 213.520699 
L 291.216764 215.236718 
L 291.400185 210.149965 
L 291.644746 215.175432 
L 291.705886 214.807715 
L 291.828166 211.620833 
L 291.889307 212.723985 
L 292.195008 211.007965 
L 292.256148 211.865984 
L 292.317288 214.991579 
L 292.500709 215.788294 
L 292.561849 215.727008 
L 292.622989 215.236718 
L 292.92869 218.4236 
L 292.989831 217.93331 
L 293.173251 215.236718 
L 293.417812 216.707586 
L 293.601233 220.629908 
L 293.784653 219.220314 
L 294.029214 231.109839 
L 294.273775 234.051576 
L 294.457196 228.53582 
L 294.762897 225.47151 
L 294.885177 231.109839 
L 295.190878 226.574662 
L 295.252018 226.8198 
L 295.313159 229.087395 
L 295.61886 222.039484 
L 295.68 222.468488 
L 295.74114 224.245781 
L 295.985701 226.635948 
L 296.046841 221.978198 
L 296.107982 222.652352 
L 296.352542 228.842244 
L 296.535963 225.042507 
L 296.597103 224.368359 
L 296.780524 228.413241 
L 296.841664 227.064951 
L 296.902804 227.493954 
L 297.025085 231.661415 
L 297.208505 231.722701 
L 297.269646 227.984244 
L 297.330786 229.516398 
L 297.391926 229.332534 
L 297.636487 229.945396 
L 297.697627 232.887145 
L 297.758767 230.864688 
L 297.881048 225.839221 
L 298.186749 222.591066 
L 298.247889 223.632931 
L 298.309029 221.916912 
L 298.49245 222.284623 
L 298.55359 224.307067 
L 298.61473 222.100777 
L 298.675871 223.265202 
L 298.737011 222.529774 
L 298.920431 222.162063 
L 299.164992 216.585008 
L 299.348413 218.362313 
L 299.409553 220.997619 
L 299.592974 217.320448 
L 299.776394 218.301027 
L 299.837535 215.788294 
L 299.959815 219.036467 
L 300.020955 216.217297 
L 300.204376 218.117163 
L 300.265516 217.136584 
L 300.326656 217.93331 
L 300.632357 220.691182 
L 300.876918 225.716661 
L 301.121479 221.487909 
L 301.3049 214.991579 
L 301.48832 215.052853 
L 301.549461 215.236718 
L 301.610601 215.052853 
L 301.671741 213.827136 
L 301.732881 213.949714 
L 301.916302 213.459425 
L 302.160863 207.637232 
L 302.344284 208.862961 
L 302.588844 205.001926 
L 302.894545 205.001926 
L 303.016826 206.656653 
L 303.322527 204.021347 
L 303.444807 205.247077 
L 303.628228 206.227655 
L 303.689368 203.898768 
L 303.750508 204.205211 
L 303.811649 203.837482 
L 303.872789 203.898768 
L 304.11735 203.592344 
L 304.30077 204.205211 
L 304.484191 203.898768 
L 304.606471 206.53408 
L 304.667612 204.94064 
L 304.728752 205.982505 
L 304.912173 207.269521 
L 304.973313 205.185784 
L 305.095593 208.250093 
L 305.340154 208.862961 
L 305.401294 210.45639 
L 305.462435 209.659676 
L 305.523575 209.353251 
L 305.584715 209.659676 
L 305.890416 207.698518 
L 305.951556 208.61781 
L 306.012696 206.717939 
L 306.318398 208.679097 
L 306.379538 208.004949 
L 306.624099 211.130544 
L 306.746379 208.556524 
L 306.807519 209.230672 
L 306.868659 207.146942 
L 307.05208 207.453367 
L 307.11322 207.146942 
L 307.174361 207.514659 
L 307.235501 206.53408 
L 307.296641 206.840517 
L 307.480062 206.779231 
L 307.602342 203.65363 
L 307.724622 203.898768 
L 307.908043 204.45035 
L 308.091464 205.185784 
L 308.336025 203.837482 
L 308.458305 200.099037 
L 308.519445 201.937617 
L 308.580586 200.773173 
L 308.825146 200.160323 
L 308.947427 201.87633 
L 309.253128 203.347193 
L 309.314268 203.102054 
L 309.375408 203.224633 
L 309.436549 204.634209 
L 309.619969 204.511636 
L 309.80339 200.282884 
L 309.86453 201.631192 
L 310.109091 201.140902 
L 310.292512 196.544439 
L 310.475932 197.279867 
L 310.537072 199.670034 
L 310.598213 199.302305 
L 310.659353 199.424883 
L 310.903914 202.060189 
L 310.965054 201.324749 
L 311.026194 203.102054 
L 311.148475 198.99588 
L 311.331895 200.711899 
L 311.393035 200.099037 
L 311.454176 201.5699 
L 311.515316 199.731308 
L 311.576456 199.792594 
L 311.759877 200.160323 
L 311.882157 201.202189 
L 312.004438 202.611765 
L 312.248998 202.427906 
L 312.61584 206.350216 
L 312.67698 205.921212 
L 313.043821 201.998903 
L 313.104961 202.550478 
L 313.166102 202.489192 
L 313.227242 202.611765 
L 313.288382 198.50559 
L 313.471803 200.037745 
L 313.655223 198.873308 
L 313.716364 199.486169 
L 313.899784 203.224633 
L 314.083205 199.670034 
L 314.144345 198.444304 
L 314.327766 198.321732 
L 314.388906 197.77015 
L 314.511186 198.566883 
L 314.572327 200.037745 
L 314.755747 200.160323 
L 314.816888 199.118458 
L 314.939168 201.631192 
L 315.000308 199.179745 
L 315.183729 199.118458 
L 315.42829 193.173686 
L 315.733991 195.012284 
L 315.856271 193.296265 
L 316.039692 192.683403 
L 316.161972 191.76411 
L 316.223112 192.438265 
L 316.284253 190.660959 
L 316.467673 189.802953 
L 316.589954 193.051126 
L 316.651094 192.315686 
L 316.712234 192.131821 
L 316.895655 192.438265 
L 316.956795 192.193114 
L 317.140216 190.844818 
L 317.323636 193.051126 
L 317.384777 191.886683 
L 317.445917 193.786554 
L 317.507057 192.683403 
L 317.568197 192.98984 
L 317.751618 191.76411 
L 317.812758 192.315686 
L 317.873898 191.825397 
L 317.935039 192.070535 
L 317.996179 192.009261 
L 318.24074 192.560825 
L 318.42416 189.373955 
L 318.607581 190.048091 
L 318.791002 191.02867 
L 318.852142 190.17067 
L 319.035562 193.234979 
L 319.280123 188.454663 
L 319.463544 188.515937 
L 319.585824 185.696778 
L 319.646965 185.941917 
L 319.708105 185.145203 
L 319.891525 186.370933 
L 320.074946 182.571183 
L 320.136086 182.326045 
L 320.319507 182.326045 
L 320.502928 183.429184 
L 320.564068 184.164624 
L 320.747488 184.103338 
L 320.869769 179.874585 
L 320.930909 180.91645 
L 320.992049 179.323009 
L 321.17547 180.977742 
L 321.29775 183.490476 
L 321.420031 182.203466 
L 321.725732 181.161601 
L 321.848012 186.922508 
L 322.031433 188.699801 
L 322.092573 187.535358 
L 322.153713 188.454663 
L 322.275994 190.90611 
L 322.459414 190.354528 
L 322.703975 193.541416 
L 323.131957 188.761087 
L 323.315378 189.190091 
L 323.437658 189.864239 
L 323.559938 185.696778 
L 323.865639 184.287202 
L 323.92678 181.774469 
L 323.98792 181.897029 
L 324.171341 182.571183 
L 324.293621 181.345453 
L 324.415901 183.796913 
L 324.599322 184.103338 
L 324.721602 181.284179 
L 324.782743 183.184045 
L 324.843883 182.755048 
L 325.027304 185.083917 
L 325.149584 184.838778 
L 325.210724 184.103338 
L 325.455285 187.167647 
L 325.638706 179.139157 
L 325.699846 179.935877 
L 325.883267 179.56816 
L 326.005547 177.668295 
L 326.127827 174.481407 
L 326.433529 175.768411 
L 326.494669 174.420121 
L 326.555809 175.461986 
L 326.80037 175.523272 
L 326.86151 175.829703 
L 326.98379 173.010539 
L 327.167211 172.275105 
L 327.228351 173.255677 
L 327.289492 169.639793 
L 327.350632 170.313947 
L 327.411772 169.333368 
L 327.656333 171.417098 
L 327.717473 170.313947 
L 327.778613 170.865522 
L 327.839753 173.133117 
L 328.023174 173.56212 
L 328.084314 172.029966 
L 328.145455 172.82668 
L 328.206595 173.439542 
L 328.267735 171.968674 
L 328.512296 170.436519 
L 328.573436 168.904365 
L 328.634576 170.375233 
L 328.695716 169.94623 
L 328.879137 171.600963 
L 328.940277 173.56212 
L 329.001418 173.31697 
L 329.062558 170.620372 
L 329.123698 171.784815 
L 329.307119 170.988101 
L 329.55168 164.736904 
L 329.7351 165.778769 
L 329.79624 165.349766 
L 329.979661 167.739927 
L 330.163082 168.352789 
L 330.346502 165.717483 
L 330.407643 166.023908 
L 330.591063 164.001464 
L 330.652203 165.165907 
L 330.774484 162.71446 
L 331.019045 162.162885 
L 331.141325 159.221148 
L 331.202465 159.527579 
L 331.263606 160.875881 
L 331.447026 160.753302 
L 331.508166 160.446865 
L 331.691587 151.744227 
L 331.875008 150.763649 
L 331.936148 151.192652 
L 332.058428 149.292786 
L 332.119569 150.028221 
L 332.302989 147.883204 
L 332.364129 148.496066 
L 332.42527 147.883204 
L 332.48641 150.51851 
L 332.54755 159.221148 
L 332.730971 153.766671 
L 332.853251 161.672595 
L 332.914391 160.446865 
L 332.975532 157.382556 
L 333.281233 161.304884 
L 333.403513 163.143463 
L 333.586934 162.162885 
L 333.709214 158.179283 
L 333.770354 157.750286 
L 333.831495 159.343726 
L 334.014915 160.814595 
L 334.076055 162.408035 
L 334.137196 157.259996 
L 334.198336 160.140441 
L 334.259476 161.48873 
L 334.504037 158.792151 
L 334.870878 171.049387 
L 334.932018 167.801213 
L 334.993159 168.414075 
L 335.054299 169.94623 
L 335.115439 165.28848 
L 335.29886 164.430479 
L 335.36 166.514197 
L 335.543421 160.508158 
L 335.726841 158.179283 
L 335.787982 159.834016 
L 335.849122 158.363135 
L 336.154823 165.778769 
L 336.277103 166.269059 
L 336.399384 163.449888 
L 336.705085 170.007522 
L 336.827365 166.452923 
L 337.133066 163.878904 
L 337.194206 161.611309 
L 337.255347 163.695039 
L 337.499908 161.611309 
L 337.622188 162.653174 
L 337.683328 163.633753 
L 337.989029 157.934132 
L 338.11131 161.121019 
L 338.29473 158.179283 
L 338.355871 155.176266 
L 338.539291 160.937155 
L 338.722712 158.792151 
L 338.783852 159.159862 
L 338.844992 158.976003 
L 339.150693 160.201727 
L 339.211834 159.098575 
L 339.272974 159.28244 
L 339.578675 165.104621 
L 339.639815 163.327328 
L 339.700955 163.695039 
L 339.823236 165.901348 
L 340.006656 164.736904 
L 340.067797 167.249638 
L 340.128937 167.065773 
L 340.190077 166.023908 
L 340.251217 166.452923 
L 340.495778 164.430479 
L 340.556918 165.594905 
L 340.618059 163.572467 
L 340.679199 165.043329 
L 340.862619 165.349766 
L 341.04604 162.837039 
L 341.10718 164.369193 
L 341.290601 162.224171 
L 341.351741 162.71446 
L 341.412881 162.285457 
L 341.474022 160.385579 
L 341.535162 160.814595 
L 341.963143 163.817611 
L 342.146564 162.408035 
L 342.207704 163.20475 
L 342.268844 162.530595 
L 342.329985 160.508158 
L 342.391125 161.672595 
L 342.574545 162.285457 
L 342.696826 165.227194 
L 342.819106 161.121019 
L 343.002527 163.327328 
L 343.247088 153.337668 
L 343.430508 151.621667 
L 343.491649 152.173243 
L 343.613929 150.334651 
L 343.675069 151.560375 
L 343.85849 151.744227 
L 343.98077 146.841339 
L 344.103051 150.212073 
L 344.408752 146.963911 
L 344.531032 149.108934 
L 344.836733 146.657474 
L 344.897874 142.612586 
L 344.959014 143.28674 
L 345.142435 141.754574 
L 345.264715 143.531879 
L 345.325855 143.164168 
L 345.570416 141.509447 
L 345.631556 140.590148 
L 345.814977 142.980316 
L 345.998398 144.63503 
L 346.059538 144.144741 
L 346.120678 147.699339 
L 346.181818 147.638053 
L 346.242958 145.00276 
L 346.426379 145.12532 
L 346.548659 146.473628 
L 346.67094 151.805514 
L 346.915501 153.398961 
L 346.976641 152.663532 
L 347.037781 149.721783 
L 347.098921 150.089513 
L 347.343482 151.805514 
L 347.465763 152.234517 
L 347.526903 149.844362 
L 347.710324 151.192652 
L 347.771464 150.702362 
L 347.954884 152.111957 
L 348.199445 149.231494 
L 348.260586 149.721783 
L 348.321726 147.883204 
L 348.382866 149.354073 
L 348.566287 149.231494 
L 348.627427 150.947513 
L 348.810847 146.841339 
L 349.055408 146.412336 
L 349.116549 146.473628 
L 349.42225 154.256961 
L 349.48339 151.805514 
L 349.54453 153.031243 
L 349.850231 148.189629 
L 349.911371 144.451184 
L 350.033652 150.150799 
L 350.094792 149.354073 
L 350.278213 146.780053 
L 350.400493 143.04159 
L 350.461633 145.309184 
L 350.522773 142.980316 
L 350.767334 143.409319 
L 350.828475 142.735165 
L 350.889615 146.289763 
L 350.950755 144.206033 
L 351.134176 142.306162 
L 351.195316 145.00276 
L 351.256456 143.838316 
L 351.378737 141.509447 
L 351.562157 145.186612 
L 351.745578 137.341987 
L 351.806718 139.119292 
L 352.051279 140.099871 
L 352.173559 142.306162 
L 352.2347 147.454201 
L 352.47926 145.493049 
L 352.662681 140.222419 
L 352.907242 143.654458 
L 353.029522 140.528868 
L 353.090663 141.019146 
L 353.396364 142.735165 
L 353.518644 139.057994 
L 353.824345 148.43478 
L 353.885485 146.044625 
L 353.946626 151.437803 
L 354.191186 154.685976 
L 354.313467 153.582819 
L 354.558028 151.192652 
L 354.680308 147.270342 
L 354.802589 150.028221 
L 355.047149 141.877152 
L 355.10829 143.715744 
L 355.23057 148.250921 
L 355.475131 154.502112 
L 355.597411 159.89529 
L 355.658552 160.017868 
L 355.841972 158.547 
L 355.903112 159.956576 
L 355.964253 159.77273 
L 356.086533 160.63073 
L 356.269954 157.076131 
L 356.331094 157.32127 
L 356.392234 159.098575 
L 356.514515 157.137418 
L 356.759076 154.931115 
L 356.942496 157.19871 
L 357.125917 157.014845 
L 357.187057 155.911694 
L 357.248197 156.892267 
L 357.309337 156.401977 
L 357.370478 155.666555 
L 357.615039 158.547 
L 357.676179 157.811572 
L 357.737319 158.301861 
L 357.798459 157.811572 
L 357.98188 157.566421 
L 358.226441 156.095553 
L 358.409861 155.666555 
L 358.532142 159.711437 
L 358.593282 156.218131 
L 358.654422 156.524556 
L 358.837843 155.97298 
L 358.898983 156.892267 
L 359.021263 150.763649 
L 359.326965 151.560375 
L 359.449245 155.97298 
L 359.510385 154.256961 
L 359.754946 153.276382 
L 359.877227 149.599223 
L 359.938367 151.253938 
L 360.121787 151.866806 
L 360.244068 150.273359 
L 360.366348 152.540954 
L 360.549769 155.789115 
L 360.610909 152.479668 
L 360.79433 162.469309 
L 360.97775 160.937155 
L 361.222311 166.269059 
L 361.405732 163.511174 
L 361.528012 165.227194 
L 361.589153 165.165907 
L 361.650293 161.48873 
L 361.833713 162.162885 
L 361.894854 160.814595 
L 361.955994 161.672595 
L 362.017134 161.121019 
L 362.078274 161.48873 
L 362.261695 161.059733 
L 362.322835 160.446865 
L 362.383975 157.750286 
L 362.445116 157.995424 
L 362.506256 157.811572 
L 362.750817 159.343726 
L 362.873097 157.382556 
L 362.934237 158.792151 
L 363.117658 157.076131 
L 363.239938 159.098575 
L 363.301079 158.240575 
L 363.362219 157.750286 
L 363.545639 157.934132 
L 363.7902 149.844362 
L 364.034761 155.543977 
L 364.095901 153.827958 
L 364.157042 152.479668 
L 364.218182 154.685976 
L 364.401602 156.524556 
L 364.462743 155.911694 
L 364.585023 159.650151 
L 364.646163 158.853425 
L 364.829584 158.485714 
L 364.951864 161.795174 
L 365.013005 158.179283 
L 365.074145 159.956576 
L 365.257565 159.650151 
L 365.502126 167.923792 
L 365.685547 167.556062 
L 365.930108 161.85646 
L 366.296949 158.240575 
L 366.358089 154.440826 
L 366.54151 155.114974 
L 366.66379 152.234517 
L 366.724931 154.011822 
L 366.786071 153.705398 
L 366.969492 154.747263 
L 367.152912 151.31523 
L 367.397473 155.053687 
L 367.458613 151.499089 
L 367.519753 151.928092 
L 367.580894 152.479668 
L 367.642034 149.905648 
L 367.825455 151.253938 
L 367.886595 153.215108 
L 368.070015 147.576779 
L 368.253436 149.108934 
L 368.436857 144.941474 
L 368.681418 143.593165 
L 368.742558 145.00276 
L 368.803698 142.244875 
L 368.864838 143.102876 
L 368.925978 146.289763 
L 369.109399 147.576779 
L 369.23168 150.212073 
L 369.35396 142.796451 
L 369.537381 143.102876 
L 369.598521 141.141724 
L 369.659661 145.676895 
L 369.781941 145.309184 
L 369.965362 145.554335 
L 370.087643 147.270342 
L 370.393344 146.228477 
L 370.454484 146.718767 
L 370.637904 139.303139 
L 370.821325 138.138713 
L 370.882465 136.851685 
L 370.943606 140.957872 
L 371.004746 139.303139 
L 371.065886 140.46757 
L 371.310447 136.30011 
L 371.371587 136.606559 
L 371.432727 138.138713 
L 371.493867 136.912984 
L 371.738428 140.161145 
L 371.799569 138.751563 
L 371.921849 144.267319 
L 372.10527 145.676895 
L 372.28869 135.871106 
L 372.349831 136.361408 
L 372.533251 136.23883 
L 372.777812 125.6976 
L 373.022373 126.678179 
L 373.083513 126.433028 
L 373.205794 128.332912 
L 373.389214 129.313485 
L 373.572635 127.107182 
L 373.633775 127.291053 
L 373.817196 128.026481 
L 373.878336 125.391175 
L 373.939476 126.984604 
L 374.000616 125.513748 
L 374.061757 128.455484 
L 374.306317 131.029492 
L 374.367458 130.110211 
L 374.428598 131.15207 
L 374.489738 130.477941 
L 374.734299 129.252211 
L 374.795439 129.803787 
L 374.856579 128.271632 
L 374.91772 129.190913 
L 375.10114 126.862056 
L 375.16228 124.226744 
L 375.223421 126.249176 
L 375.284561 129.313485 
L 375.345701 127.291053 
L 375.529122 126.31048 
L 375.590262 124.533175 
L 375.651402 124.8396 
L 375.712542 127.413632 
L 375.957103 127.413632 
L 376.018243 126.126603 
L 376.079384 126.862056 
L 376.385085 121.714017 
L 376.446225 123.552596 
L 376.507365 121.407561 
L 376.629646 123.859021 
L 376.813066 123.61387 
L 376.874206 123.246171 
L 376.935347 124.962172 
L 376.996487 124.533175 
L 377.057627 122.633291 
L 377.241048 121.775291 
L 377.485609 130.845639 
L 377.669029 129.313485 
L 377.730169 127.720056 
L 377.85245 133.419671 
L 377.91359 131.15207 
L 378.097011 129.436063 
L 378.280431 131.764944 
L 378.341572 129.987639 
L 378.524992 130.110211 
L 378.586133 130.784366 
L 378.647273 128.14906 
L 378.708413 128.578057 
L 378.769553 128.026481 
L 379.014114 128.884488 
L 379.075254 128.700635 
L 379.197535 127.045902 
L 379.380955 125.268603 
L 379.808937 130.171491 
L 379.992357 128.026481 
L 380.053498 128.14906 
L 380.298059 129.619916 
L 380.359199 129.681214 
L 380.420339 129.497337 
L 380.481479 128.578057 
L 380.72604 127.474906 
L 380.909461 128.945786 
L 381.215162 132.684225 
L 381.276302 131.581067 
L 381.520863 134.277678 
L 381.582003 134.032527 
L 382.132265 123.00102 
L 382.193405 123.797747 
L 382.437966 122.38814 
L 382.804807 128.945786 
L 383.049368 118.281978 
L 383.232789 115.953097 
L 383.293929 116.3821 
L 383.41621 117.975553 
L 383.47735 122.817168 
L 383.721911 122.572017 
L 383.783051 124.655747 
L 383.844191 121.53014 
L 383.905331 121.591438 
L 384.088752 123.184867 
L 384.149892 121.468866 
L 384.211032 121.591438 
L 384.333313 128.516758 
L 384.516733 142.42874 
L 384.577874 134.890527 
L 384.639014 141.754574 
L 384.700154 137.464559 
L 384.761294 134.277678 
L 384.944715 137.893563 
L 385.005855 145.554335 
L 385.066995 142.673879 
L 385.128136 140.590148 
L 385.189276 145.615609 
L 385.433837 143.28674 
L 385.494977 136.116257 
L 385.556117 142.306162 
L 385.617257 138.751563 
L 385.984099 135.074404 
L 386.045239 135.625955 
L 386.228659 135.503408 
L 386.2898 142.367448 
L 386.35094 140.896573 
L 386.41208 140.038567 
L 386.47322 136.361408 
L 386.717781 150.150799 
L 386.778921 145.615609 
L 386.840062 146.534914 
L 387.084622 133.358373 
L 387.145763 133.664798 
L 387.268043 136.729107 
L 387.329183 135.748534 
L 387.512604 134.706675 
L 387.634884 135.871106 
L 387.696025 136.54526 
L 387.757165 127.842635 
L 387.940586 127.474906 
L 388.001726 126.004025 
L 388.185146 133.297099 
L 388.368567 129.987639 
L 388.490847 122.449439 
L 388.551988 128.455484 
L 388.613128 125.268603 
L 388.796549 128.945786 
L 388.857689 123.920295 
L 388.918829 124.349323 
L 389.041109 130.477941 
L 389.22453 131.274643 
L 389.34681 130.477941 
L 389.469091 134.032527 
L 389.652512 134.338952 
L 389.774792 135.625955 
L 390.141633 146.044625 
L 390.325054 136.606559 
L 390.508475 136.667833 
L 390.569615 136.116257 
L 390.630755 132.010095 
L 390.753035 139.24184 
L 390.936456 137.709686 
L 390.997596 140.099871 
L 391.058737 139.670868 
L 391.119877 139.60957 
L 391.181017 141.570721 
L 391.364438 142.306162 
L 391.425578 138.445138 
L 391.486718 139.60957 
L 391.547858 138.812843 
L 391.608998 140.712721 
L 391.792419 141.203023 
L 391.853559 138.445138 
L 391.9147 138.690265 
L 391.97584 139.180566 
L 392.220401 138.567717 
L 392.281541 138.751563 
L 392.342681 137.709686 
L 392.648382 143.164168 
L 392.709522 141.141724 
L 392.831803 147.392915 
L 392.892943 145.00276 
L 393.076364 147.454201 
L 393.137504 146.044625 
L 393.320924 153.153822 
L 393.565485 147.638053 
L 393.626626 153.215108 
L 393.687766 150.763649 
L 393.748906 148.373494 
L 393.932327 149.415359 
L 393.993467 151.253938 
L 394.054607 150.150799 
L 394.115747 150.212073 
L 394.176888 152.173243 
L 394.360308 152.418382 
L 394.482589 155.053687 
L 394.604869 160.508158 
L 394.84943 163.878904 
L 394.91057 158.608286 
L 394.97171 160.569444 
L 395.032851 159.098575 
L 395.277411 157.259996 
L 395.338552 154.502112 
L 395.399692 155.605263 
L 395.460832 156.953559 
L 395.644253 156.034266 
L 395.705393 154.134401 
L 395.766533 155.666555 
L 395.888814 149.721783 
L 396.133374 155.789115 
L 396.194515 153.827958 
L 396.255655 155.237552 
L 396.316795 155.421405 
L 396.500216 157.259996 
L 396.683636 155.114974 
L 396.744777 155.850402 
L 396.928197 152.847385 
L 397.111618 159.89529 
L 397.172758 157.566421 
L 397.356179 157.872846 
L 397.478459 151.866806 
L 397.539599 153.766671 
L 397.78416 153.950536 
L 397.8453 155.605263 
L 397.906441 153.582819 
L 397.967581 154.134401 
L 398.028721 157.934132 
L 398.212142 153.950536 
L 398.456703 137.15811 
L 398.640123 139.057994 
L 398.701263 142.857737 
L 398.762404 142.490026 
L 398.884684 138.261261 
L 399.068105 139.180566 
L 399.312666 134.584103 
L 399.496086 135.319531 
L 399.557227 134.890527 
L 399.740647 136.912984 
L 399.924068 138.812843 
L 400.046348 132.010095 
L 400.107488 133.848675 
L 400.168629 133.787376 
L 400.352049 132.806797 
L 400.41319 131.029492 
L 400.53547 134.767955 
L 400.59661 134.093801 
L 400.780031 136.54526 
L 400.841171 134.46153 
L 400.902311 136.054983 
L 401.452573 127.658758 
L 401.880555 124.655747 
L 402.063975 125.6976 
L 402.308536 123.184867 
L 402.491957 123.736448 
L 402.553097 126.31048 
L 402.614237 123.797747 
L 402.675378 125.820179 
L 402.736518 125.207323 
L 402.919938 127.045902 
L 402.981079 126.862056 
L 403.042219 125.452449 
L 403.103359 125.6976 
L 403.164499 131.213369 
L 403.34792 131.213369 
L 403.592481 122.939716 
L 403.837042 120.549561 
L 404.020462 118.465831 
L 404.326163 116.014396 
L 404.448444 111.785637 
L 404.693005 113.624241 
L 404.754145 112.214634 
L 404.815285 113.624241 
L 404.876425 112.827514 
L 405.059846 112.827514 
L 405.120986 112.643637 
L 405.182126 113.133939 
L 405.243267 112.337212 
L 405.304407 113.562942 
L 405.487827 111.479212 
L 405.548968 113.072665 
L 405.732388 121.652712 
L 405.915809 122.143014 
L 405.976949 123.920295 
L 406.038089 122.817168 
L 406.16037 123.368719 
L 406.34379 123.552596 
L 406.466071 125.391175 
L 406.527211 123.00102 
L 406.588351 123.491298 
L 406.771772 125.084751 
L 406.894052 122.449439 
L 406.955193 125.329901 
L 407.016333 125.084751 
L 407.199753 124.226744 
L 407.260894 123.184867 
L 407.383174 125.513748 
L 407.444314 125.207323 
L 407.688875 124.594449 
L 408.055716 129.987639 
L 408.116857 127.291053 
L 408.177997 129.252211 
L 408.239137 130.661793 
L 408.300277 128.823208 
L 408.544838 130.968218 
L 408.605978 130.600489 
L 408.667119 127.965183 
L 408.728259 129.00706 
L 408.97282 131.335941 
L 409.03396 130.906944 
L 409.0951 130.355362 
L 409.15624 133.419671 
L 409.339661 131.642366 
L 409.400801 132.377794 
L 409.523082 131.335941 
L 409.584222 131.826218 
L 409.767643 132.132643 
L 409.828783 132.684225 
L 409.951063 138.751563 
L 410.012203 137.770984 
L 410.195624 138.690265 
L 410.317904 137.648412 
L 410.440185 139.670868 
L 410.623606 140.406296 
L 410.684746 142.122303 
L 410.807026 138.690265 
L 410.868166 139.057994 
L 411.051587 141.999725 
L 411.235008 150.212073 
L 411.296148 155.053687 
L 411.479569 153.09253 
L 411.540709 153.705398 
L 411.662989 134.155099 
L 411.96869 137.587138 
L 412.152111 142.5513 
L 412.335532 145.247898 
L 412.396672 142.673879 
L 412.457812 147.270342 
L 412.580092 144.696323 
L 412.763513 144.144741 
L 412.946934 140.712721 
L 413.008074 145.064034 
L 413.191495 143.838316 
L 413.252635 144.389892 
L 413.374915 149.354073 
L 413.436055 147.699339 
L 413.619476 144.083455 
L 413.741757 136.606559 
L 413.802897 138.38384 
L 413.864037 136.851685 
L 414.169738 137.770984 
L 414.230878 140.46757 
L 414.292018 139.732142 
L 414.536579 138.751563 
L 414.72 140.161145 
L 414.72 140.161145 
" style="fill:none;stroke:#e24a33;stroke-linecap:square;stroke-width:1.5;"/>
   </g>
   <g id="patch_3">
    <path d="M 57.6 276.48 
L 57.6 41.472 
" style="fill:none;stroke:#ffffff;stroke-linecap:square;stroke-linejoin:miter;"/>
   </g>
   <g id="patch_4">
    <path d="M 414.72 276.48 
L 414.72 41.472 
" style="fill:none;stroke:#ffffff;stroke-linecap:square;stroke-linejoin:miter;"/>
   </g>
   <g id="patch_5">
    <path d="M 57.6 276.48 
L 414.72 276.48 
" style="fill:none;stroke:#ffffff;stroke-linecap:square;stroke-linejoin:miter;"/>
   </g>
   <g id="patch_6">
    <path d="M 57.6 41.472 
L 414.72 41.472 
" style="fill:none;stroke:#ffffff;stroke-linecap:square;stroke-linejoin:miter;"/>
   </g>
  </g>
 </g>
 <defs>
  <clipPath id="pbed06b898d">
   <rect height="235.008" width="357.12" x="57.6" y="41.472"/>
  </clipPath>
 </defs>
</svg>
