<?xml version="1.0" encoding="utf-8" standalone="no"?>
<!DOCTYPE svg PUBLIC "-//W3C//DTD SVG 1.1//EN"
  "http://www.w3.org/Graphics/SVG/1.1/DTD/svg11.dtd">
<!-- Created with matplotlib (http://matplotlib.org/) -->
<svg height="345pt" version="1.1" viewBox="0 0 460 345" width="460pt" xmlns="http://www.w3.org/2000/svg" xmlns:xlink="http://www.w3.org/1999/xlink">
 <defs>
  <style type="text/css">
*{stroke-linecap:butt;stroke-linejoin:round;}
  </style>
 </defs>
 <g id="figure_1">
  <g id="patch_1">
   <path d="M 0 345.6 
L 460.8 345.6 
L 460.8 0 
L 0 0 
z
" style="fill:#ffffff;"/>
  </g>
  <g id="axes_1">
   <g id="patch_2">
    <path d="M 57.6 276.48 
L 414.72 276.48 
L 414.72 41.472 
L 57.6 41.472 
z
" style="fill:#e5e5e5;"/>
   </g>
   <g id="matplotlib.axis_1">
    <g id="xtick_1">
     <g id="line2d_1">
      <path clip-path="url(#p37ddaf05d2)" d="M 77.411486 276.48 
L 77.411486 41.472 
" style="fill:none;stroke:#ffffff;stroke-linecap:square;stroke-width:0.8;"/>
     </g>
     <g id="line2d_2">
      <defs>
       <path d="M 0 0 
L 0 3.5 
" id="mf3caa0ce3f" style="stroke:#555555;stroke-width:0.8;"/>
      </defs>
      <g>
       <use style="fill:#555555;stroke:#555555;stroke-width:0.8;" x="77.411486" xlink:href="#mf3caa0ce3f" y="276.48"/>
      </g>
     </g>
     <g id="text_1">
      <!-- 2008 -->
      <defs>
       <path d="M 19.1875 8.296875 
L 53.609375 8.296875 
L 53.609375 0 
L 7.328125 0 
L 7.328125 8.296875 
Q 12.9375 14.109375 22.625 23.890625 
Q 32.328125 33.6875 34.8125 36.53125 
Q 39.546875 41.84375 41.421875 45.53125 
Q 43.3125 49.21875 43.3125 52.78125 
Q 43.3125 58.59375 39.234375 62.25 
Q 35.15625 65.921875 28.609375 65.921875 
Q 23.96875 65.921875 18.8125 64.3125 
Q 13.671875 62.703125 7.8125 59.421875 
L 7.8125 69.390625 
Q 13.765625 71.78125 18.9375 73 
Q 24.125 74.21875 28.421875 74.21875 
Q 39.75 74.21875 46.484375 68.546875 
Q 53.21875 62.890625 53.21875 53.421875 
Q 53.21875 48.921875 51.53125 44.890625 
Q 49.859375 40.875 45.40625 35.40625 
Q 44.1875 33.984375 37.640625 27.21875 
Q 31.109375 20.453125 19.1875 8.296875 
z
" id="DejaVuSans-32"/>
       <path d="M 31.78125 66.40625 
Q 24.171875 66.40625 20.328125 58.90625 
Q 16.5 51.421875 16.5 36.375 
Q 16.5 21.390625 20.328125 13.890625 
Q 24.171875 6.390625 31.78125 6.390625 
Q 39.453125 6.390625 43.28125 13.890625 
Q 47.125 21.390625 47.125 36.375 
Q 47.125 51.421875 43.28125 58.90625 
Q 39.453125 66.40625 31.78125 66.40625 
z
M 31.78125 74.21875 
Q 44.046875 74.21875 50.515625 64.515625 
Q 56.984375 54.828125 56.984375 36.375 
Q 56.984375 17.96875 50.515625 8.265625 
Q 44.046875 -1.421875 31.78125 -1.421875 
Q 19.53125 -1.421875 13.0625 8.265625 
Q 6.59375 17.96875 6.59375 36.375 
Q 6.59375 54.828125 13.0625 64.515625 
Q 19.53125 74.21875 31.78125 74.21875 
z
" id="DejaVuSans-30"/>
       <path d="M 31.78125 34.625 
Q 24.75 34.625 20.71875 30.859375 
Q 16.703125 27.09375 16.703125 20.515625 
Q 16.703125 13.921875 20.71875 10.15625 
Q 24.75 6.390625 31.78125 6.390625 
Q 38.8125 6.390625 42.859375 10.171875 
Q 46.921875 13.96875 46.921875 20.515625 
Q 46.921875 27.09375 42.890625 30.859375 
Q 38.875 34.625 31.78125 34.625 
z
M 21.921875 38.8125 
Q 15.578125 40.375 12.03125 44.71875 
Q 8.5 49.078125 8.5 55.328125 
Q 8.5 64.0625 14.71875 69.140625 
Q 20.953125 74.21875 31.78125 74.21875 
Q 42.671875 74.21875 48.875 69.140625 
Q 55.078125 64.0625 55.078125 55.328125 
Q 55.078125 49.078125 51.53125 44.71875 
Q 48 40.375 41.703125 38.8125 
Q 48.828125 37.15625 52.796875 32.3125 
Q 56.78125 27.484375 56.78125 20.515625 
Q 56.78125 9.90625 50.3125 4.234375 
Q 43.84375 -1.421875 31.78125 -1.421875 
Q 19.734375 -1.421875 13.25 4.234375 
Q 6.78125 9.90625 6.78125 20.515625 
Q 6.78125 27.484375 10.78125 32.3125 
Q 14.796875 37.15625 21.921875 38.8125 
z
M 18.3125 54.390625 
Q 18.3125 48.734375 21.84375 45.5625 
Q 25.390625 42.390625 31.78125 42.390625 
Q 38.140625 42.390625 41.71875 45.5625 
Q 45.3125 48.734375 45.3125 54.390625 
Q 45.3125 60.0625 41.71875 63.234375 
Q 38.140625 66.40625 31.78125 66.40625 
Q 25.390625 66.40625 21.84375 63.234375 
Q 18.3125 60.0625 18.3125 54.390625 
z
" id="DejaVuSans-38"/>
      </defs>
      <g style="fill:#555555;" transform="translate(54.331296 302.78544)rotate(-30)scale(0.1 -0.1)">
       <use xlink:href="#DejaVuSans-32"/>
       <use x="63.623047" xlink:href="#DejaVuSans-30"/>
       <use x="127.246094" xlink:href="#DejaVuSans-30"/>
       <use x="190.869141" xlink:href="#DejaVuSans-38"/>
      </g>
     </g>
    </g>
    <g id="xtick_2">
     <g id="line2d_3">
      <path clip-path="url(#p37ddaf05d2)" d="M 114.981454 276.48 
L 114.981454 41.472 
" style="fill:none;stroke:#ffffff;stroke-linecap:square;stroke-width:0.8;"/>
     </g>
     <g id="line2d_4">
      <g>
       <use style="fill:#555555;stroke:#555555;stroke-width:0.8;" x="114.981454" xlink:href="#mf3caa0ce3f" y="276.48"/>
      </g>
     </g>
     <g id="text_2">
      <!-- 2009 -->
      <defs>
       <path d="M 10.984375 1.515625 
L 10.984375 10.5 
Q 14.703125 8.734375 18.5 7.8125 
Q 22.3125 6.890625 25.984375 6.890625 
Q 35.75 6.890625 40.890625 13.453125 
Q 46.046875 20.015625 46.78125 33.40625 
Q 43.953125 29.203125 39.59375 26.953125 
Q 35.25 24.703125 29.984375 24.703125 
Q 19.046875 24.703125 12.671875 31.3125 
Q 6.296875 37.9375 6.296875 49.421875 
Q 6.296875 60.640625 12.9375 67.421875 
Q 19.578125 74.21875 30.609375 74.21875 
Q 43.265625 74.21875 49.921875 64.515625 
Q 56.59375 54.828125 56.59375 36.375 
Q 56.59375 19.140625 48.40625 8.859375 
Q 40.234375 -1.421875 26.421875 -1.421875 
Q 22.703125 -1.421875 18.890625 -0.6875 
Q 15.09375 0.046875 10.984375 1.515625 
z
M 30.609375 32.421875 
Q 37.25 32.421875 41.125 36.953125 
Q 45.015625 41.5 45.015625 49.421875 
Q 45.015625 57.28125 41.125 61.84375 
Q 37.25 66.40625 30.609375 66.40625 
Q 23.96875 66.40625 20.09375 61.84375 
Q 16.21875 57.28125 16.21875 49.421875 
Q 16.21875 41.5 20.09375 36.953125 
Q 23.96875 32.421875 30.609375 32.421875 
z
" id="DejaVuSans-39"/>
      </defs>
      <g style="fill:#555555;" transform="translate(91.901264 302.78544)rotate(-30)scale(0.1 -0.1)">
       <use xlink:href="#DejaVuSans-32"/>
       <use x="63.623047" xlink:href="#DejaVuSans-30"/>
       <use x="127.246094" xlink:href="#DejaVuSans-30"/>
       <use x="190.869141" xlink:href="#DejaVuSans-39"/>
      </g>
     </g>
    </g>
    <g id="xtick_3">
     <g id="line2d_5">
      <path clip-path="url(#p37ddaf05d2)" d="M 152.448773 276.48 
L 152.448773 41.472 
" style="fill:none;stroke:#ffffff;stroke-linecap:square;stroke-width:0.8;"/>
     </g>
     <g id="line2d_6">
      <g>
       <use style="fill:#555555;stroke:#555555;stroke-width:0.8;" x="152.448773" xlink:href="#mf3caa0ce3f" y="276.48"/>
      </g>
     </g>
     <g id="text_3">
      <!-- 2010 -->
      <defs>
       <path d="M 12.40625 8.296875 
L 28.515625 8.296875 
L 28.515625 63.921875 
L 10.984375 60.40625 
L 10.984375 69.390625 
L 28.421875 72.90625 
L 38.28125 72.90625 
L 38.28125 8.296875 
L 54.390625 8.296875 
L 54.390625 0 
L 12.40625 0 
z
" id="DejaVuSans-31"/>
      </defs>
      <g style="fill:#555555;" transform="translate(129.368582 302.78544)rotate(-30)scale(0.1 -0.1)">
       <use xlink:href="#DejaVuSans-32"/>
       <use x="63.623047" xlink:href="#DejaVuSans-30"/>
       <use x="127.246094" xlink:href="#DejaVuSans-31"/>
       <use x="190.869141" xlink:href="#DejaVuSans-30"/>
      </g>
     </g>
    </g>
    <g id="xtick_4">
     <g id="line2d_7">
      <path clip-path="url(#p37ddaf05d2)" d="M 189.916091 276.48 
L 189.916091 41.472 
" style="fill:none;stroke:#ffffff;stroke-linecap:square;stroke-width:0.8;"/>
     </g>
     <g id="line2d_8">
      <g>
       <use style="fill:#555555;stroke:#555555;stroke-width:0.8;" x="189.916091" xlink:href="#mf3caa0ce3f" y="276.48"/>
      </g>
     </g>
     <g id="text_4">
      <!-- 2011 -->
      <g style="fill:#555555;" transform="translate(166.835901 302.78544)rotate(-30)scale(0.1 -0.1)">
       <use xlink:href="#DejaVuSans-32"/>
       <use x="63.623047" xlink:href="#DejaVuSans-30"/>
       <use x="127.246094" xlink:href="#DejaVuSans-31"/>
       <use x="190.869141" xlink:href="#DejaVuSans-31"/>
      </g>
     </g>
    </g>
    <g id="xtick_5">
     <g id="line2d_9">
      <path clip-path="url(#p37ddaf05d2)" d="M 227.383409 276.48 
L 227.383409 41.472 
" style="fill:none;stroke:#ffffff;stroke-linecap:square;stroke-width:0.8;"/>
     </g>
     <g id="line2d_10">
      <g>
       <use style="fill:#555555;stroke:#555555;stroke-width:0.8;" x="227.383409" xlink:href="#mf3caa0ce3f" y="276.48"/>
      </g>
     </g>
     <g id="text_5">
      <!-- 2012 -->
      <g style="fill:#555555;" transform="translate(204.303219 302.78544)rotate(-30)scale(0.1 -0.1)">
       <use xlink:href="#DejaVuSans-32"/>
       <use x="63.623047" xlink:href="#DejaVuSans-30"/>
       <use x="127.246094" xlink:href="#DejaVuSans-31"/>
       <use x="190.869141" xlink:href="#DejaVuSans-32"/>
      </g>
     </g>
    </g>
    <g id="xtick_6">
     <g id="line2d_11">
      <path clip-path="url(#p37ddaf05d2)" d="M 264.953377 276.48 
L 264.953377 41.472 
" style="fill:none;stroke:#ffffff;stroke-linecap:square;stroke-width:0.8;"/>
     </g>
     <g id="line2d_12">
      <g>
       <use style="fill:#555555;stroke:#555555;stroke-width:0.8;" x="264.953377" xlink:href="#mf3caa0ce3f" y="276.48"/>
      </g>
     </g>
     <g id="text_6">
      <!-- 2013 -->
      <defs>
       <path d="M 40.578125 39.3125 
Q 47.65625 37.796875 51.625 33 
Q 55.609375 28.21875 55.609375 21.1875 
Q 55.609375 10.40625 48.1875 4.484375 
Q 40.765625 -1.421875 27.09375 -1.421875 
Q 22.515625 -1.421875 17.65625 -0.515625 
Q 12.796875 0.390625 7.625 2.203125 
L 7.625 11.71875 
Q 11.71875 9.328125 16.59375 8.109375 
Q 21.484375 6.890625 26.8125 6.890625 
Q 36.078125 6.890625 40.9375 10.546875 
Q 45.796875 14.203125 45.796875 21.1875 
Q 45.796875 27.640625 41.28125 31.265625 
Q 36.765625 34.90625 28.71875 34.90625 
L 20.21875 34.90625 
L 20.21875 43.015625 
L 29.109375 43.015625 
Q 36.375 43.015625 40.234375 45.921875 
Q 44.09375 48.828125 44.09375 54.296875 
Q 44.09375 59.90625 40.109375 62.90625 
Q 36.140625 65.921875 28.71875 65.921875 
Q 24.65625 65.921875 20.015625 65.03125 
Q 15.375 64.15625 9.8125 62.3125 
L 9.8125 71.09375 
Q 15.4375 72.65625 20.34375 73.4375 
Q 25.25 74.21875 29.59375 74.21875 
Q 40.828125 74.21875 47.359375 69.109375 
Q 53.90625 64.015625 53.90625 55.328125 
Q 53.90625 49.265625 50.4375 45.09375 
Q 46.96875 40.921875 40.578125 39.3125 
z
" id="DejaVuSans-33"/>
      </defs>
      <g style="fill:#555555;" transform="translate(241.873187 302.78544)rotate(-30)scale(0.1 -0.1)">
       <use xlink:href="#DejaVuSans-32"/>
       <use x="63.623047" xlink:href="#DejaVuSans-30"/>
       <use x="127.246094" xlink:href="#DejaVuSans-31"/>
       <use x="190.869141" xlink:href="#DejaVuSans-33"/>
      </g>
     </g>
    </g>
    <g id="xtick_7">
     <g id="line2d_13">
      <path clip-path="url(#p37ddaf05d2)" d="M 302.420696 276.48 
L 302.420696 41.472 
" style="fill:none;stroke:#ffffff;stroke-linecap:square;stroke-width:0.8;"/>
     </g>
     <g id="line2d_14">
      <g>
       <use style="fill:#555555;stroke:#555555;stroke-width:0.8;" x="302.420696" xlink:href="#mf3caa0ce3f" y="276.48"/>
      </g>
     </g>
     <g id="text_7">
      <!-- 2014 -->
      <defs>
       <path d="M 37.796875 64.3125 
L 12.890625 25.390625 
L 37.796875 25.390625 
z
M 35.203125 72.90625 
L 47.609375 72.90625 
L 47.609375 25.390625 
L 58.015625 25.390625 
L 58.015625 17.1875 
L 47.609375 17.1875 
L 47.609375 0 
L 37.796875 0 
L 37.796875 17.1875 
L 4.890625 17.1875 
L 4.890625 26.703125 
z
" id="DejaVuSans-34"/>
      </defs>
      <g style="fill:#555555;" transform="translate(279.340505 302.78544)rotate(-30)scale(0.1 -0.1)">
       <use xlink:href="#DejaVuSans-32"/>
       <use x="63.623047" xlink:href="#DejaVuSans-30"/>
       <use x="127.246094" xlink:href="#DejaVuSans-31"/>
       <use x="190.869141" xlink:href="#DejaVuSans-34"/>
      </g>
     </g>
    </g>
    <g id="xtick_8">
     <g id="line2d_15">
      <path clip-path="url(#p37ddaf05d2)" d="M 339.888014 276.48 
L 339.888014 41.472 
" style="fill:none;stroke:#ffffff;stroke-linecap:square;stroke-width:0.8;"/>
     </g>
     <g id="line2d_16">
      <g>
       <use style="fill:#555555;stroke:#555555;stroke-width:0.8;" x="339.888014" xlink:href="#mf3caa0ce3f" y="276.48"/>
      </g>
     </g>
     <g id="text_8">
      <!-- 2015 -->
      <defs>
       <path d="M 10.796875 72.90625 
L 49.515625 72.90625 
L 49.515625 64.59375 
L 19.828125 64.59375 
L 19.828125 46.734375 
Q 21.96875 47.46875 24.109375 47.828125 
Q 26.265625 48.1875 28.421875 48.1875 
Q 40.625 48.1875 47.75 41.5 
Q 54.890625 34.8125 54.890625 23.390625 
Q 54.890625 11.625 47.5625 5.09375 
Q 40.234375 -1.421875 26.90625 -1.421875 
Q 22.3125 -1.421875 17.546875 -0.640625 
Q 12.796875 0.140625 7.71875 1.703125 
L 7.71875 11.625 
Q 12.109375 9.234375 16.796875 8.0625 
Q 21.484375 6.890625 26.703125 6.890625 
Q 35.15625 6.890625 40.078125 11.328125 
Q 45.015625 15.765625 45.015625 23.390625 
Q 45.015625 31 40.078125 35.4375 
Q 35.15625 39.890625 26.703125 39.890625 
Q 22.75 39.890625 18.8125 39.015625 
Q 14.890625 38.140625 10.796875 36.28125 
z
" id="DejaVuSans-35"/>
      </defs>
      <g style="fill:#555555;" transform="translate(316.807824 302.78544)rotate(-30)scale(0.1 -0.1)">
       <use xlink:href="#DejaVuSans-32"/>
       <use x="63.623047" xlink:href="#DejaVuSans-30"/>
       <use x="127.246094" xlink:href="#DejaVuSans-31"/>
       <use x="190.869141" xlink:href="#DejaVuSans-35"/>
      </g>
     </g>
    </g>
    <g id="xtick_9">
     <g id="line2d_17">
      <path clip-path="url(#p37ddaf05d2)" d="M 377.355332 276.48 
L 377.355332 41.472 
" style="fill:none;stroke:#ffffff;stroke-linecap:square;stroke-width:0.8;"/>
     </g>
     <g id="line2d_18">
      <g>
       <use style="fill:#555555;stroke:#555555;stroke-width:0.8;" x="377.355332" xlink:href="#mf3caa0ce3f" y="276.48"/>
      </g>
     </g>
     <g id="text_9">
      <!-- 2016 -->
      <defs>
       <path d="M 33.015625 40.375 
Q 26.375 40.375 22.484375 35.828125 
Q 18.609375 31.296875 18.609375 23.390625 
Q 18.609375 15.53125 22.484375 10.953125 
Q 26.375 6.390625 33.015625 6.390625 
Q 39.65625 6.390625 43.53125 10.953125 
Q 47.40625 15.53125 47.40625 23.390625 
Q 47.40625 31.296875 43.53125 35.828125 
Q 39.65625 40.375 33.015625 40.375 
z
M 52.59375 71.296875 
L 52.59375 62.3125 
Q 48.875 64.0625 45.09375 64.984375 
Q 41.3125 65.921875 37.59375 65.921875 
Q 27.828125 65.921875 22.671875 59.328125 
Q 17.53125 52.734375 16.796875 39.40625 
Q 19.671875 43.65625 24.015625 45.921875 
Q 28.375 48.1875 33.59375 48.1875 
Q 44.578125 48.1875 50.953125 41.515625 
Q 57.328125 34.859375 57.328125 23.390625 
Q 57.328125 12.15625 50.6875 5.359375 
Q 44.046875 -1.421875 33.015625 -1.421875 
Q 20.359375 -1.421875 13.671875 8.265625 
Q 6.984375 17.96875 6.984375 36.375 
Q 6.984375 53.65625 15.1875 63.9375 
Q 23.390625 74.21875 37.203125 74.21875 
Q 40.921875 74.21875 44.703125 73.484375 
Q 48.484375 72.75 52.59375 71.296875 
z
" id="DejaVuSans-36"/>
      </defs>
      <g style="fill:#555555;" transform="translate(354.275142 302.78544)rotate(-30)scale(0.1 -0.1)">
       <use xlink:href="#DejaVuSans-32"/>
       <use x="63.623047" xlink:href="#DejaVuSans-30"/>
       <use x="127.246094" xlink:href="#DejaVuSans-31"/>
       <use x="190.869141" xlink:href="#DejaVuSans-36"/>
      </g>
     </g>
    </g>
    <g id="text_10">
     <!-- Date -->
     <defs>
      <path d="M 19.671875 64.796875 
L 19.671875 8.109375 
L 31.59375 8.109375 
Q 46.6875 8.109375 53.6875 14.9375 
Q 60.6875 21.78125 60.6875 36.53125 
Q 60.6875 51.171875 53.6875 57.984375 
Q 46.6875 64.796875 31.59375 64.796875 
z
M 9.8125 72.90625 
L 30.078125 72.90625 
Q 51.265625 72.90625 61.171875 64.09375 
Q 71.09375 55.28125 71.09375 36.53125 
Q 71.09375 17.671875 61.125 8.828125 
Q 51.171875 0 30.078125 0 
L 9.8125 0 
z
" id="DejaVuSans-44"/>
      <path d="M 34.28125 27.484375 
Q 23.390625 27.484375 19.1875 25 
Q 14.984375 22.515625 14.984375 16.5 
Q 14.984375 11.71875 18.140625 8.90625 
Q 21.296875 6.109375 26.703125 6.109375 
Q 34.1875 6.109375 38.703125 11.40625 
Q 43.21875 16.703125 43.21875 25.484375 
L 43.21875 27.484375 
z
M 52.203125 31.203125 
L 52.203125 0 
L 43.21875 0 
L 43.21875 8.296875 
Q 40.140625 3.328125 35.546875 0.953125 
Q 30.953125 -1.421875 24.3125 -1.421875 
Q 15.921875 -1.421875 10.953125 3.296875 
Q 6 8.015625 6 15.921875 
Q 6 25.140625 12.171875 29.828125 
Q 18.359375 34.515625 30.609375 34.515625 
L 43.21875 34.515625 
L 43.21875 35.40625 
Q 43.21875 41.609375 39.140625 45 
Q 35.0625 48.390625 27.6875 48.390625 
Q 23 48.390625 18.546875 47.265625 
Q 14.109375 46.140625 10.015625 43.890625 
L 10.015625 52.203125 
Q 14.9375 54.109375 19.578125 55.046875 
Q 24.21875 56 28.609375 56 
Q 40.484375 56 46.34375 49.84375 
Q 52.203125 43.703125 52.203125 31.203125 
z
" id="DejaVuSans-61"/>
      <path d="M 18.3125 70.21875 
L 18.3125 54.6875 
L 36.8125 54.6875 
L 36.8125 47.703125 
L 18.3125 47.703125 
L 18.3125 18.015625 
Q 18.3125 11.328125 20.140625 9.421875 
Q 21.96875 7.515625 27.59375 7.515625 
L 36.8125 7.515625 
L 36.8125 0 
L 27.59375 0 
Q 17.1875 0 13.234375 3.875 
Q 9.28125 7.765625 9.28125 18.015625 
L 9.28125 47.703125 
L 2.6875 47.703125 
L 2.6875 54.6875 
L 9.28125 54.6875 
L 9.28125 70.21875 
z
" id="DejaVuSans-74"/>
      <path d="M 56.203125 29.59375 
L 56.203125 25.203125 
L 14.890625 25.203125 
Q 15.484375 15.921875 20.484375 11.0625 
Q 25.484375 6.203125 34.421875 6.203125 
Q 39.59375 6.203125 44.453125 7.46875 
Q 49.3125 8.734375 54.109375 11.28125 
L 54.109375 2.78125 
Q 49.265625 0.734375 44.1875 -0.34375 
Q 39.109375 -1.421875 33.890625 -1.421875 
Q 20.796875 -1.421875 13.15625 6.1875 
Q 5.515625 13.8125 5.515625 26.8125 
Q 5.515625 40.234375 12.765625 48.109375 
Q 20.015625 56 32.328125 56 
Q 43.359375 56 49.78125 48.890625 
Q 56.203125 41.796875 56.203125 29.59375 
z
M 47.21875 32.234375 
Q 47.125 39.59375 43.09375 43.984375 
Q 39.0625 48.390625 32.421875 48.390625 
Q 24.90625 48.390625 20.390625 44.140625 
Q 15.875 39.890625 15.1875 32.171875 
z
" id="DejaVuSans-65"/>
     </defs>
     <g style="fill:#555555;" transform="translate(221.819063 317.704627)scale(0.12 -0.12)">
      <use xlink:href="#DejaVuSans-44"/>
      <use x="77.001953" xlink:href="#DejaVuSans-61"/>
      <use x="138.28125" xlink:href="#DejaVuSans-74"/>
      <use x="177.490234" xlink:href="#DejaVuSans-65"/>
     </g>
    </g>
   </g>
   <g id="matplotlib.axis_2">
    <g id="ytick_1">
     <g id="line2d_19">
      <path clip-path="url(#p37ddaf05d2)" d="M 57.6 259.205506 
L 414.72 259.205506 
" style="fill:none;stroke:#ffffff;stroke-linecap:square;stroke-width:0.8;"/>
     </g>
     <g id="line2d_20">
      <defs>
       <path d="M 0 0 
L -3.5 0 
" id="mccc977861c" style="stroke:#555555;stroke-width:0.8;"/>
      </defs>
      <g>
       <use style="fill:#555555;stroke:#555555;stroke-width:0.8;" x="57.6" xlink:href="#mccc977861c" y="259.205506"/>
      </g>
     </g>
     <g id="text_11">
      <!-- 5 -->
      <g style="fill:#555555;" transform="translate(44.2375 263.004725)scale(0.1 -0.1)">
       <use xlink:href="#DejaVuSans-35"/>
      </g>
     </g>
    </g>
    <g id="ytick_2">
     <g id="line2d_21">
      <path clip-path="url(#p37ddaf05d2)" d="M 57.6 232.836258 
L 414.72 232.836258 
" style="fill:none;stroke:#ffffff;stroke-linecap:square;stroke-width:0.8;"/>
     </g>
     <g id="line2d_22">
      <g>
       <use style="fill:#555555;stroke:#555555;stroke-width:0.8;" x="57.6" xlink:href="#mccc977861c" y="232.836258"/>
      </g>
     </g>
     <g id="text_12">
      <!-- 10 -->
      <g style="fill:#555555;" transform="translate(37.875 236.635477)scale(0.1 -0.1)">
       <use xlink:href="#DejaVuSans-31"/>
       <use x="63.623047" xlink:href="#DejaVuSans-30"/>
      </g>
     </g>
    </g>
    <g id="ytick_3">
     <g id="line2d_23">
      <path clip-path="url(#p37ddaf05d2)" d="M 57.6 206.46701 
L 414.72 206.46701 
" style="fill:none;stroke:#ffffff;stroke-linecap:square;stroke-width:0.8;"/>
     </g>
     <g id="line2d_24">
      <g>
       <use style="fill:#555555;stroke:#555555;stroke-width:0.8;" x="57.6" xlink:href="#mccc977861c" y="206.46701"/>
      </g>
     </g>
     <g id="text_13">
      <!-- 15 -->
      <g style="fill:#555555;" transform="translate(37.875 210.266229)scale(0.1 -0.1)">
       <use xlink:href="#DejaVuSans-31"/>
       <use x="63.623047" xlink:href="#DejaVuSans-35"/>
      </g>
     </g>
    </g>
    <g id="ytick_4">
     <g id="line2d_25">
      <path clip-path="url(#p37ddaf05d2)" d="M 57.6 180.097762 
L 414.72 180.097762 
" style="fill:none;stroke:#ffffff;stroke-linecap:square;stroke-width:0.8;"/>
     </g>
     <g id="line2d_26">
      <g>
       <use style="fill:#555555;stroke:#555555;stroke-width:0.8;" x="57.6" xlink:href="#mccc977861c" y="180.097762"/>
      </g>
     </g>
     <g id="text_14">
      <!-- 20 -->
      <g style="fill:#555555;" transform="translate(37.875 183.896981)scale(0.1 -0.1)">
       <use xlink:href="#DejaVuSans-32"/>
       <use x="63.623047" xlink:href="#DejaVuSans-30"/>
      </g>
     </g>
    </g>
    <g id="ytick_5">
     <g id="line2d_27">
      <path clip-path="url(#p37ddaf05d2)" d="M 57.6 153.728514 
L 414.72 153.728514 
" style="fill:none;stroke:#ffffff;stroke-linecap:square;stroke-width:0.8;"/>
     </g>
     <g id="line2d_28">
      <g>
       <use style="fill:#555555;stroke:#555555;stroke-width:0.8;" x="57.6" xlink:href="#mccc977861c" y="153.728514"/>
      </g>
     </g>
     <g id="text_15">
      <!-- 25 -->
      <g style="fill:#555555;" transform="translate(37.875 157.527733)scale(0.1 -0.1)">
       <use xlink:href="#DejaVuSans-32"/>
       <use x="63.623047" xlink:href="#DejaVuSans-35"/>
      </g>
     </g>
    </g>
    <g id="ytick_6">
     <g id="line2d_29">
      <path clip-path="url(#p37ddaf05d2)" d="M 57.6 127.359266 
L 414.72 127.359266 
" style="fill:none;stroke:#ffffff;stroke-linecap:square;stroke-width:0.8;"/>
     </g>
     <g id="line2d_30">
      <g>
       <use style="fill:#555555;stroke:#555555;stroke-width:0.8;" x="57.6" xlink:href="#mccc977861c" y="127.359266"/>
      </g>
     </g>
     <g id="text_16">
      <!-- 30 -->
      <g style="fill:#555555;" transform="translate(37.875 131.158485)scale(0.1 -0.1)">
       <use xlink:href="#DejaVuSans-33"/>
       <use x="63.623047" xlink:href="#DejaVuSans-30"/>
      </g>
     </g>
    </g>
    <g id="ytick_7">
     <g id="line2d_31">
      <path clip-path="url(#p37ddaf05d2)" d="M 57.6 100.990018 
L 414.72 100.990018 
" style="fill:none;stroke:#ffffff;stroke-linecap:square;stroke-width:0.8;"/>
     </g>
     <g id="line2d_32">
      <g>
       <use style="fill:#555555;stroke:#555555;stroke-width:0.8;" x="57.6" xlink:href="#mccc977861c" y="100.990018"/>
      </g>
     </g>
     <g id="text_17">
      <!-- 35 -->
      <g style="fill:#555555;" transform="translate(37.875 104.789237)scale(0.1 -0.1)">
       <use xlink:href="#DejaVuSans-33"/>
       <use x="63.623047" xlink:href="#DejaVuSans-35"/>
      </g>
     </g>
    </g>
    <g id="ytick_8">
     <g id="line2d_33">
      <path clip-path="url(#p37ddaf05d2)" d="M 57.6 74.620771 
L 414.72 74.620771 
" style="fill:none;stroke:#ffffff;stroke-linecap:square;stroke-width:0.8;"/>
     </g>
     <g id="line2d_34">
      <g>
       <use style="fill:#555555;stroke:#555555;stroke-width:0.8;" x="57.6" xlink:href="#mccc977861c" y="74.620771"/>
      </g>
     </g>
     <g id="text_18">
      <!-- 40 -->
      <g style="fill:#555555;" transform="translate(37.875 78.419989)scale(0.1 -0.1)">
       <use xlink:href="#DejaVuSans-34"/>
       <use x="63.623047" xlink:href="#DejaVuSans-30"/>
      </g>
     </g>
    </g>
    <g id="ytick_9">
     <g id="line2d_35">
      <path clip-path="url(#p37ddaf05d2)" d="M 57.6 48.251523 
L 414.72 48.251523 
" style="fill:none;stroke:#ffffff;stroke-linecap:square;stroke-width:0.8;"/>
     </g>
     <g id="line2d_36">
      <g>
       <use style="fill:#555555;stroke:#555555;stroke-width:0.8;" x="57.6" xlink:href="#mccc977861c" y="48.251523"/>
      </g>
     </g>
     <g id="text_19">
      <!-- 45 -->
      <g style="fill:#555555;" transform="translate(37.875 52.050741)scale(0.1 -0.1)">
       <use xlink:href="#DejaVuSans-34"/>
       <use x="63.623047" xlink:href="#DejaVuSans-35"/>
      </g>
     </g>
    </g>
   </g>
   <g id="line2d_37">
    <path clip-path="url(#p37ddaf05d2)" d="M 57.6 93.342931 
L 57.907951 97.087359 
L 58.113251 125.249727 
L 58.215901 129.416062 
L 58.318551 127.359266 
L 58.626502 131.209177 
L 58.729152 129.996191 
L 58.934452 122.349104 
L 59.037103 122.612802 
L 59.345053 117.338952 
L 59.447703 120.608734 
L 59.653004 129.996191 
L 59.755654 127.992134 
L 60.063604 128.150344 
L 60.166255 128.994155 
L 60.782156 149.351219 
L 60.884806 148.929311 
L 60.987456 149.720389 
L 61.192757 155.521623 
L 61.500707 156.787347 
L 61.603357 153.886735 
L 61.706007 157.209255 
L 61.911308 151.671718 
L 62.321909 156.365439 
L 62.424559 150.353256 
L 62.629859 156.365439 
L 62.93781 141.809614 
L 63.24576 163.696085 
L 63.34841 155.257936 
L 63.656361 158.474979 
L 63.759011 161.639289 
L 63.861661 159.529749 
L 63.964312 152.515529 
L 64.374912 156.787347 
L 64.682863 165.647414 
L 64.785513 163.643346 
L 65.196114 163.801567 
L 65.298764 164.276214 
L 65.504064 171.184951 
L 65.812015 170.868526 
L 66.119966 161.692027 
L 66.222616 162.324884 
L 66.633216 159.898918 
L 66.941167 145.923217 
L 67.249118 151.671718 
L 67.351768 156.787347 
L 67.557068 153.728514 
L 67.659718 154.255899 
L 67.967669 155.205198 
L 68.37827 137.643278 
L 68.68622 130.04893 
L 68.78887 134.689912 
L 68.891521 134.584446 
L 68.994171 132.633116 
L 69.096821 137.326837 
L 69.404771 139.225428 
L 69.610072 145.870478 
L 69.815372 146.714294 
L 70.123323 151.09159 
L 70.328623 146.872515 
L 70.431273 146.661556 
L 70.533924 149.825866 
L 70.841874 149.773127 
L 71.252475 153.728514 
L 71.560425 161.322863 
L 71.663076 159.002364 
L 71.868376 163.959788 
L 71.971026 158.580456 
L 72.278977 170.604838 
L 72.381627 168.231601 
L 72.484277 162.008458 
L 72.586927 167.967914 
L 72.689577 163.643346 
L 72.997528 165.27825 
L 73.100178 167.335046 
L 73.202828 173.294491 
L 73.408129 171.659603 
L 73.716079 172.186988 
L 73.81873 176.406062 
L 74.02403 170.921264 
L 74.12668 166.227543 
L 74.537281 172.186988 
L 74.639931 170.604838 
L 74.742581 170.868526 
L 74.845231 171.606859 
L 75.153182 168.758986 
L 75.255832 159.582493 
L 75.461133 164.803599 
L 75.563783 159.055102 
L 76.077034 163.274177 
L 76.179684 159.266051 
L 76.282334 161.533812 
L 76.590285 161.79751 
L 76.898235 164.223475 
L 77.000885 163.326921 
L 77.308836 170.341141 
L 77.514136 167.598734 
L 77.719437 174.085579 
L 78.130037 180.73063 
L 78.232688 189.432476 
L 78.335338 188.74687 
L 78.437988 178.937521 
L 78.745938 175.773206 
L 79.053889 184.896965 
L 79.156539 184.896965 
L 79.56714 192.122145 
L 79.66979 188.008537 
L 79.875091 173.821876 
L 80.285691 184.264109 
L 80.593642 186.953762 
L 81.004243 187.428408 
L 81.209543 192.491309 
L 81.312193 191.542016 
L 81.620144 192.28035 
L 81.722794 190.909149 
L 81.928094 192.755001 
L 82.030744 196.763127 
L 82.441345 196.710389 
L 82.543995 200.929473 
L 82.646646 199.611011 
L 82.749296 200.876735 
L 83.057246 202.828054 
L 83.159897 201.615069 
L 83.365197 194.864536 
L 83.981098 201.351376 
L 84.186398 206.994395 
L 84.494349 209.684059 
L 84.699649 200.613032 
L 84.8023 201.140422 
L 84.90495 197.079553 
L 85.31555 207.52178 
L 85.418201 206.46701 
L 85.520851 208.57655 
L 86.136752 200.138386 
L 86.239402 200.454827 
L 86.342052 203.566393 
L 86.650003 203.67187 
L 87.368554 185.688038 
L 87.471204 185.42435 
L 87.779155 189.590686 
L 88.087105 191.963924 
L 88.189756 194.864536 
L 88.292406 191.436539 
L 88.395056 192.016662 
L 88.497706 184.580534 
L 88.805657 185.951741 
L 89.113607 189.643425 
L 89.216258 186.690074 
L 89.524208 184.316837 
L 89.729508 187.375669 
L 89.832159 187.955798 
L 89.934809 180.836096 
L 90.242759 179.939542 
L 90.34541 181.785394 
L 90.44806 180.88884 
L 90.65336 186.373649 
L 90.961311 186.320905 
L 91.063961 186.426387 
L 91.166611 184.316837 
L 91.269261 186.795551 
L 91.371911 175.931416 
L 91.782512 179.570377 
L 91.885162 178.568341 
L 92.090463 184.316837 
L 92.501064 187.53389 
L 92.603714 186.479115 
L 92.706364 187.270203 
L 92.809014 185.266135 
L 93.219615 182.207302 
L 93.424915 185.477089 
L 93.527565 185.951741 
L 93.835516 188.114014 
L 94.143467 195.655624 
L 94.246117 195.339182 
L 94.656717 188.694132 
L 94.759368 190.592723 
L 94.964668 189.063312 
L 95.272619 189.537958 
L 95.375269 190.645462 
L 95.580569 185.635299 
L 95.683219 187.955798 
L 95.99117 188.061275 
L 96.19647 193.282386 
L 96.29912 192.913217 
L 96.709721 194.600849 
L 96.812371 197.870641 
L 96.915022 195.391926 
L 97.120322 200.243868 
L 97.428272 202.458885 
L 97.530923 211.160736 
L 97.838873 195.391926 
L 98.146824 194.600849 
L 98.249474 197.185035 
L 98.454774 192.385832 
L 98.557425 196.077532 
L 98.865375 196.974086 
L 98.968025 196.235737 
L 99.070675 191.963924 
L 99.173326 193.967981 
L 99.275976 188.219496 
L 99.583926 191.278329 
L 99.686577 189.326999 
L 99.789227 191.172846 
L 99.891877 187.481152 
L 99.994527 188.324962 
L 100.302478 187.322942 
L 100.405128 185.79352 
L 100.610428 192.43857 
L 100.713078 191.805703 
L 101.021029 191.278329 
L 101.226329 196.815866 
L 101.32898 198.450759 
L 101.43163 195.444665 
L 101.842231 194.178941 
L 102.047531 196.657645 
L 102.150181 192.80774 
L 102.560782 190.856421 
L 102.868732 198.23981 
L 103.176683 195.919311 
L 103.279333 196.974086 
L 103.587284 204.990332 
L 103.895234 206.519749 
L 104.100535 196.974086 
L 104.203185 206.677964 
L 104.305835 186.690074 
L 104.613786 192.649519 
L 104.716436 199.874698 
L 104.819086 192.28035 
L 105.024386 201.140422 
L 105.332337 197.079553 
L 105.537637 204.673901 
L 105.742938 207.469042 
L 106.050888 208.787504 
L 106.256189 218.807818 
L 106.358839 217.647571 
L 106.461489 243.27848 
L 106.769439 237.529984 
L 106.87209 228.458963 
L 107.07739 235.684137 
L 107.18004 234.998537 
L 107.487991 226.665854 
L 107.898592 247.286606 
L 108.206542 246.44279 
L 108.309192 247.603037 
L 108.411842 246.020882 
L 108.514493 236.897122 
L 108.617143 241.379895 
L 108.925093 237.213553 
L 109.130394 237.951892 
L 109.335694 245.38802 
L 109.643645 245.493497 
L 109.746295 246.020882 
L 109.951595 248.763284 
L 110.054245 247.708514 
L 110.670147 255.302857 
L 110.772797 257.043228 
L 111.080747 259.732891 
L 111.183398 252.613194 
L 111.286048 255.882981 
L 111.491348 252.244025 
L 111.799299 253.931657 
L 112.004599 257.412397 
L 112.107249 254.828211 
L 112.209899 255.619288 
L 112.51785 251.505686 
L 112.6205 251.71664 
L 112.72315 247.813991 
L 112.928451 253.878918 
L 113.236401 253.509749 
L 113.339051 252.929625 
L 113.647002 254.986427 
L 114.057603 254.986427 
L 114.365553 254.353565 
L 114.673504 254.195349 
L 114.776154 251.294732 
L 114.878804 252.613194 
L 115.392055 247.919468 
L 115.597356 243.383957 
L 115.700006 246.706483 
L 115.802656 245.38802 
L 116.110606 247.286606 
L 116.315907 254.300826 
L 116.418557 255.672027 
L 116.521207 255.144642 
L 117.034458 259.047291 
L 117.239759 263.371847 
L 117.650359 260.998615 
L 117.85566 259.574676 
L 117.95831 261.367785 
L 118.26626 262.2116 
L 118.368911 263.213632 
L 118.984812 256.779535 
L 119.190112 261.631477 
L 119.292762 261.315046 
L 119.395412 259.838368 
L 119.806013 260.576707 
L 119.908663 261.104092 
L 120.113964 264.32114 
L 120.421914 263.477324 
L 120.524565 265.006741 
L 120.627215 263.108155 
L 120.729865 263.424586 
L 120.832515 265.797818 
L 121.243116 259.732891 
L 121.345766 252.876887 
L 121.551066 256.62132 
L 122.064317 253.667964 
L 122.166968 253.667964 
L 122.269618 253.351533 
L 122.577568 253.509749 
L 122.782869 254.195349 
L 122.988169 250.767347 
L 123.29612 249.659838 
L 123.50142 239.639524 
L 123.70672 245.968144 
L 124.014671 247.550299 
L 124.117321 248.921499 
L 124.219971 248.077684 
L 124.322621 244.175035 
L 124.425272 244.385989 
L 124.733222 244.649681 
L 124.938523 247.339345 
L 125.041173 244.70242 
L 125.451773 245.229805 
L 125.657074 242.540141 
L 125.759724 238.110108 
L 125.862374 238.268323 
L 126.170325 241.327156 
L 126.375625 246.495529 
L 126.580926 241.53811 
L 126.888876 240.48334 
L 126.991526 243.225742 
L 127.094176 241.749064 
L 127.299477 234.365675 
L 127.915378 212.901107 
L 128.018028 218.016741 
L 128.325979 215.168862 
L 128.633929 225.452869 
L 128.736579 225.40013 
L 129.04453 223.237852 
L 129.14718 220.759143 
L 129.352481 227.50967 
L 129.455131 227.087762 
L 129.865732 227.984317 
L 129.968382 225.40013 
L 130.071032 226.296685 
L 130.173682 226.191208 
L 130.481633 226.560377 
L 130.789583 230.357549 
L 130.892233 227.720624 
L 131.302834 226.085731 
L 131.405484 226.296685 
L 131.508135 227.667886 
L 131.610785 223.237852 
L 132.021385 225.663823 
L 132.226686 227.562409 
L 132.637287 223.501544 
L 132.842587 226.665854 
L 132.945237 226.771331 
L 133.047887 227.615147 
L 133.355838 227.667886 
L 133.663788 229.355518 
L 134.074389 229.091825 
L 134.48499 239.79774 
L 134.792941 239.217616 
L 135.203541 230.515764 
L 135.614142 229.724687 
L 135.716792 230.67398 
L 135.922093 225.030961 
L 136.230043 224.187145 
L 136.332693 225.136438 
L 136.435343 224.767268 
L 136.537994 226.771331 
L 136.640644 224.872745 
L 136.948594 224.71453 
L 137.051245 215.010647 
L 137.153895 216.012678 
L 137.256545 204.832117 
L 137.359195 209.103935 
L 137.667146 208.787504 
L 137.769796 207.943688 
L 137.872446 209.789536 
L 137.975096 207.152611 
L 138.077746 210.158705 
L 138.590997 217.278402 
L 138.796298 213.955877 
L 139.104248 212.004552 
L 139.309549 217.225663 
L 139.412199 217.067448 
L 139.514849 215.801724 
L 139.8228 217.067448 
L 139.92545 218.333172 
L 140.0281 221.022835 
L 140.13075 220.970097 
L 140.2334 220.86462 
L 140.644001 219.018772 
L 140.746651 217.489356 
L 140.849302 212.79563 
L 140.951952 213.164799 
L 141.259902 215.063385 
L 141.465203 210.369659 
L 141.670503 206.045102 
L 141.978454 207.52178 
L 142.081104 207.047134 
L 142.286404 208.892981 
L 142.389054 212.690153 
L 142.697005 212.584676 
L 142.902305 211.107998 
L 143.004955 210.738828 
L 143.107606 214.114092 
L 143.415556 215.327078 
L 143.620857 208.523812 
L 143.826157 207.047134 
L 144.134108 203.830085 
L 144.442058 195.444665 
L 144.544708 198.819923 
L 144.852659 199.083621 
L 145.160609 203.460916 
L 145.26326 199.980175 
L 145.57121 201.509592 
L 145.879161 214.852431 
L 145.981811 210.633351 
L 146.289761 214.166831 
L 146.392412 213.375753 
L 146.495062 211.266213 
L 146.597712 212.531937 
L 146.700362 211.477167 
L 147.110963 201.56233 
L 147.213613 202.880793 
L 147.418913 205.306763 
L 147.726864 203.935562 
L 147.829514 205.623194 
L 148.034815 204.410209 
L 148.137465 205.675933 
L 148.445415 205.148548 
L 148.548066 206.203318 
L 148.650716 210.68609 
L 148.856016 214.641477 
L 149.163967 214.377785 
L 149.266617 211.266213 
L 149.471917 213.586707 
L 149.574567 213.006584 
L 149.882518 213.375753 
L 150.087818 215.432555 
L 150.190469 215.063385 
L 150.293119 212.268245 
L 150.601069 213.006584 
L 150.90902 215.643509 
L 151.01167 215.538032 
L 151.319621 215.748986 
L 151.422271 214.430523 
L 151.627571 215.95994 
L 152.038172 216.276371 
L 152.140822 215.696247 
L 152.243472 216.487325 
L 152.346122 216.170894 
L 152.756723 215.696247 
L 152.962024 212.901107 
L 153.167324 211.37169 
L 153.475275 210.264182 
L 153.680575 213.48123 
L 153.783225 213.586707 
L 153.885875 212.953845 
L 154.296476 212.953845 
L 154.399126 214.430523 
L 154.501776 213.586707 
L 154.604427 215.379816 
L 155.117677 219.704373 
L 155.220328 217.858525 
L 155.322978 218.807818 
L 155.630928 220.073542 
L 155.836229 215.59077 
L 155.938879 216.487325 
L 156.041529 218.38591 
L 156.34948 217.964002 
L 156.45213 219.071511 
L 156.55478 218.333172 
L 156.76008 219.915327 
L 157.170681 216.856494 
L 157.273331 214.799693 
L 157.375982 215.274339 
L 157.478632 215.168862 
L 157.991883 212.057291 
L 158.094533 211.424429 
L 158.197183 212.162768 
L 158.607784 210.949782 
L 158.710434 209.209412 
L 158.813084 210.211443 
L 159.223685 206.203318 
L 159.326335 208.471073 
L 159.428985 206.941657 
L 159.531636 208.629289 
L 159.634286 206.941657 
L 159.942236 208.471073 
L 160.044886 209.63132 
L 160.250187 208.471073 
L 160.352837 211.951814 
L 160.660788 212.268245 
L 160.866088 210.422397 
L 161.071388 207.574519 
L 161.379339 208.840243 
L 161.584639 210.105967 
L 161.687289 211.160736 
L 162.09789 210.00049 
L 162.303191 208.049165 
L 162.405841 208.207381 
L 162.508491 208.101904 
L 162.816442 207.205349 
L 163.021742 204.146516 
L 163.534993 209.156674 
L 163.842943 205.834148 
L 163.945594 206.888918 
L 164.356194 206.677964 
L 164.561495 209.684059 
L 164.664145 209.262151 
L 164.972095 211.688121 
L 165.074746 210.738828 
L 165.382696 218.860557 
L 165.690647 217.278402 
L 165.793297 217.489356 
L 165.895947 216.540063 
L 165.998597 216.803755 
L 166.101247 218.38591 
L 166.511848 220.759143 
L 166.819799 229.355518 
L 167.127749 229.566471 
L 167.2304 232.572566 
L 167.4357 226.982285 
L 167.53835 226.982285 
L 168.051601 230.832195 
L 168.154251 230.199333 
L 168.256901 231.72875 
L 168.564852 231.886965 
L 168.667502 233.205428 
L 168.770152 232.256135 
L 168.872803 232.361612 
L 168.975453 231.095888 
L 169.283403 229.566471 
L 169.386053 230.568503 
L 169.591354 229.566471 
L 169.694004 230.568503 
L 170.001955 229.408256 
L 170.207255 232.361612 
L 170.720506 231.72875 
L 171.028456 235.684137 
L 171.131107 235.420445 
L 171.541707 235.314968 
L 171.644358 237.160815 
L 171.849658 232.308873 
L 172.362909 229.724687 
L 172.465559 230.515764 
L 172.568209 229.988379 
L 172.87616 231.939704 
L 172.97881 233.363643 
L 173.286761 228.195271 
L 173.697361 223.079636 
L 173.800011 225.716561 
L 173.902662 225.452869 
L 174.005312 227.035024 
L 174.415913 223.870714 
L 174.621213 225.083699 
L 174.723863 225.452869 
L 175.031814 225.7693 
L 175.134464 226.191208 
L 175.237114 229.566471 
L 175.339764 229.408256 
L 175.442414 227.140501 
L 175.750365 230.093856 
L 175.955665 229.513733 
L 176.160966 231.886965 
L 176.468916 231.781488 
L 176.571567 230.779457 
L 176.674217 231.306842 
L 176.776867 229.935641 
L 176.879517 231.465057 
L 177.187468 231.517796 
L 177.290118 232.519827 
L 177.495418 230.515764 
L 177.598068 230.515764 
L 178.008669 231.834227 
L 178.111319 231.781488 
L 178.31662 232.836258 
L 178.72722 229.777425 
L 178.829871 230.252072 
L 179.035171 228.617179 
L 179.343122 228.406225 
L 179.548422 225.927515 
L 179.753722 227.984317 
L 180.369623 220.126281 
L 180.472274 218.333172 
L 180.780224 220.548189 
L 181.190825 216.856494 
L 181.601426 215.327078 
L 181.704076 214.061354 
L 181.806726 214.483262 
L 181.909376 214.008615 
L 182.319977 215.696247 
L 182.627928 213.006584 
L 182.935878 213.586707 
L 183.141178 215.379816 
L 183.243829 213.586707 
L 183.346479 215.696247 
L 183.654429 214.008615 
L 183.75708 214.377785 
L 183.96238 211.37169 
L 184.06503 211.529906 
L 184.372981 210.791567 
L 184.475631 210.949782 
L 184.680931 214.061354 
L 184.783581 212.268245 
L 185.091532 213.323015 
L 185.399483 216.223632 
L 185.502133 216.487325 
L 185.810083 216.329109 
L 186.220684 217.542094 
L 186.528635 217.489356 
L 186.631285 217.172925 
L 186.733935 217.278402 
L 186.836585 216.223632 
L 186.939235 212.531937 
L 187.247186 213.006584 
L 187.349836 210.949782 
L 187.452486 212.110029 
L 187.555137 211.74086 
L 187.657787 212.79563 
L 188.068387 212.215506 
L 188.171038 212.531937 
L 188.376338 214.588739 
L 188.684289 214.694216 
L 188.786939 213.533969 
L 188.992239 210.158705 
L 189.40284 209.314889 
L 189.60814 211.055259 
L 189.71079 209.842274 
L 189.813441 210.897044 
L 190.121391 210.475136 
L 190.224041 206.83618 
L 190.326692 207.469042 
L 190.429342 206.256056 
L 190.531992 206.308795 
L 190.839943 207.258088 
L 191.147893 206.097841 
L 191.250543 203.302701 
L 191.661144 202.775316 
L 191.866444 206.308795 
L 191.969095 204.199255 
L 192.277045 201.667807 
L 192.482346 202.458885 
L 192.584996 202.406146 
L 192.687646 200.823991 
L 192.995596 204.041039 
L 193.200897 199.189103 
L 193.406197 193.018699 
L 193.919448 194.811808 
L 194.022098 198.398015 
L 194.124748 195.919311 
L 194.432699 194.337162 
L 194.637999 191.700237 
L 194.74065 192.965961 
L 194.8433 192.755001 
L 195.253901 193.862515 
L 195.356551 194.600849 
L 195.459201 197.079553 
L 195.561851 193.335125 
L 195.972452 190.909149 
L 196.075102 194.126202 
L 196.280402 188.694132 
L 196.588353 189.274261 
L 196.691003 193.071427 
L 196.896304 192.28035 
L 196.998954 196.393958 
L 197.306904 195.655624 
L 197.409554 201.826023 
L 197.512205 198.134328 
L 197.614855 199.663739 
L 197.717505 197.606943 
L 198.025456 195.76109 
L 198.436056 187.270203 
L 198.744007 186.004479 
L 198.846657 186.162689 
L 198.949307 187.322942 
L 199.154608 189.854384 
L 199.462558 189.326999 
L 199.667859 184.580534 
L 199.873159 185.898997 
L 200.28376 191.067369 
L 200.59171 187.90306 
L 200.899661 188.430445 
L 201.002311 190.012594 
L 201.207611 184.580534 
L 201.618212 183.209334 
L 201.720862 184.369575 
L 201.823513 182.945646 
L 201.926163 183.209334 
L 202.028813 184.686017 
L 202.336763 184.896965 
L 202.439414 188.008537 
L 202.542064 187.639367 
L 202.747364 190.645462 
L 203.055315 191.22559 
L 203.260615 188.95783 
L 203.465915 192.965961 
L 203.773866 194.653587 
L 203.876516 197.501461 
L 204.184467 194.864536 
L 204.492417 198.978144 
L 204.595068 198.292549 
L 204.697718 198.450759 
L 204.903018 196.024788 
L 205.313619 195.022757 
L 205.416269 195.497403 
L 205.621569 199.030882 
L 205.92952 199.29457 
L 206.03217 199.663739 
L 206.13482 200.718514 
L 206.340121 198.134328 
L 206.648071 198.187066 
L 206.750721 197.237774 
L 206.853372 197.34325 
L 206.956022 198.450759 
L 207.058672 196.024788 
L 207.469273 198.608974 
L 207.571923 198.767195 
L 207.674573 200.032919 
L 207.777223 199.45279 
L 208.085174 201.140422 
L 208.290474 198.450759 
L 208.393124 199.189103 
L 208.495775 197.71242 
L 208.906375 195.128234 
L 209.009026 196.393958 
L 209.111676 195.075495 
L 209.214326 196.974086 
L 209.522277 197.870641 
L 209.624927 199.136365 
L 209.727577 198.767195 
L 210.240828 202.300669 
L 210.343478 204.199255 
L 210.446128 202.775316 
L 210.651429 193.915254 
L 211.062029 194.284423 
L 211.16468 193.018699 
L 211.26733 194.073464 
L 211.36998 197.026814 
L 211.67793 196.024788 
L 212.396482 219.862588 
L 212.499132 219.757111 
L 212.601782 218.544126 
L 212.704432 220.49545 
L 212.807082 215.801724 
L 213.115033 216.223632 
L 213.320333 212.162768 
L 213.525634 222.552252 
L 213.833584 220.284496 
L 213.936235 223.976191 
L 214.038885 222.815944 
L 214.141535 219.387942 
L 214.244185 223.607021 
L 214.654786 216.961971 
L 214.757436 213.744923 
L 214.860086 213.797661 
L 214.962736 216.698278 
L 215.373337 220.970097 
L 215.578638 217.014709 
L 215.681288 220.49545 
L 215.989238 222.288559 
L 216.399839 213.059322 
L 216.70779 214.272308 
L 216.81044 214.114092 
L 216.91309 216.065417 
L 217.01574 221.602959 
L 217.11839 221.339266 
L 217.426341 222.235821 
L 217.528991 216.170894 
L 217.836942 221.602959 
L 218.144892 222.868683 
L 218.247542 227.826101 
L 218.555493 215.327078 
L 218.863444 216.64554 
L 219.274044 211.688121 
L 219.581995 214.272308 
L 219.684645 216.961971 
L 219.787295 212.479199 
L 219.889945 218.38591 
L 219.992596 213.270276 
L 220.403196 211.213475 
L 220.505847 210.791567 
L 220.711147 204.937594 
L 221.019097 207.996427 
L 221.224398 211.266213 
L 221.327048 209.63132 
L 221.429698 211.424429 
L 221.737649 211.529906 
L 221.840299 208.998458 
L 222.045599 213.48123 
L 222.148249 212.373722 
L 222.55885 210.31692 
L 222.866801 214.694216 
L 223.585352 219.598896 
L 223.893303 216.276371 
L 223.995953 217.067448 
L 224.201253 213.8504 
L 224.303903 209.420366 
L 224.611854 206.783441 
L 224.714504 207.785473 
L 224.817154 205.78141 
L 224.919805 207.838211 
L 225.022455 212.268245 
L 225.433055 211.213475 
L 225.535706 214.377785 
L 225.741006 208.734766 
L 226.151607 211.793598 
L 226.254257 211.951814 
L 226.356907 211.107998 
L 226.459557 208.94572 
L 226.870158 209.314889 
L 226.972808 210.211443 
L 227.075458 212.479199 
L 227.69136 208.840243 
L 227.79401 210.053228 
L 227.89666 208.998458 
L 228.204611 207.047134 
L 228.307261 204.35747 
L 228.409911 205.201286 
L 228.512561 202.669839 
L 228.615211 205.464979 
L 229.025812 205.570456 
L 229.333763 202.880793 
L 229.641713 201.667807 
L 229.744363 203.302701 
L 229.847014 201.351376 
L 229.949664 201.509592 
L 230.052314 203.830085 
L 230.360264 204.937594 
L 230.668215 196.341219 
L 230.770865 196.446696 
L 231.078816 197.34325 
L 231.181466 197.132297 
L 231.284116 197.448733 
L 231.489416 199.030882 
L 231.797367 199.663739 
L 232.105318 203.830085 
L 232.207968 200.665776 
L 232.618569 201.193161 
L 232.823869 203.039008 
L 232.926519 202.775316 
L 233.33712 202.036977 
L 233.64507 203.724609 
L 233.953021 204.884855 
L 234.158321 208.101904 
L 234.363622 205.148548 
L 234.774222 206.150579 
L 234.979523 204.621163 
L 235.082173 205.254025 
L 235.492774 205.148548 
L 235.595424 203.882824 
L 235.698074 204.884855 
L 235.800724 203.355439 
L 236.108675 204.041039 
L 236.211325 202.828054 
L 236.313975 203.830085 
L 236.827226 201.193161 
L 237.135177 204.990332 
L 237.545778 205.095809 
L 237.853728 208.049165 
L 237.956378 207.785473 
L 238.366979 208.523812 
L 238.469629 208.418335 
L 238.67493 211.160736 
L 239.290831 216.065417 
L 239.393481 215.801724 
L 239.701431 215.748986 
L 239.906732 213.797661 
L 240.112032 217.753048 
L 240.419983 218.122218 
L 240.522633 217.753048 
L 240.625283 218.596864 
L 240.727933 218.227695 
L 240.830584 220.073542 
L 241.138534 219.493419 
L 241.343834 221.022835 
L 241.446485 221.128312 
L 241.549135 224.34536 
L 241.857085 224.71453 
L 241.959736 224.398099 
L 242.062386 221.761174 
L 242.165036 221.866651 
L 242.267686 221.972128 
L 242.780937 220.231758 
L 242.883587 220.49545 
L 242.986237 223.237852 
L 243.396838 223.237852 
L 243.602139 218.649603 
L 243.704789 220.970097 
L 244.012739 220.442712 
L 244.21804 220.917358 
L 244.42334 220.284496 
L 244.731291 220.020804 
L 244.833941 220.548189 
L 244.936591 219.915327 
L 245.141891 221.761174 
L 245.449842 222.763206 
L 245.552492 222.183082 
L 245.655142 220.337235 
L 245.757792 220.653666 
L 245.860443 218.227695 
L 246.168393 216.592802 
L 246.271043 215.274339 
L 246.476344 214.483262 
L 246.578994 216.223632 
L 246.989595 217.067448 
L 247.194895 219.176988 
L 247.297545 219.071511 
L 247.708146 217.70031 
L 247.810796 218.069479 
L 247.913446 217.014709 
L 248.016097 217.067448 
L 248.324047 217.489356 
L 248.529348 212.004552 
L 248.631998 211.74086 
L 248.734648 211.160736 
L 249.042598 212.162768 
L 249.145249 211.107998 
L 249.350549 213.692184 
L 249.453199 212.637414 
L 249.76115 211.793598 
L 249.96645 213.533969 
L 250.0691 213.375753 
L 250.171751 212.004552 
L 250.582351 214.588739 
L 250.685001 214.430523 
L 250.890302 213.533969 
L 251.198252 214.008615 
L 251.403553 213.533969 
L 251.506203 213.586707 
L 251.608853 214.377785 
L 251.916804 214.272308 
L 252.019454 213.744923 
L 252.122104 212.531937 
L 252.224754 212.953845 
L 252.327404 212.79563 
L 252.738005 214.588739 
L 252.840655 216.065417 
L 252.943306 215.696247 
L 253.045956 213.639446 
L 253.353906 210.527874 
L 253.456556 212.584676 
L 253.764507 208.523812 
L 254.072458 205.306763 
L 254.175108 206.414272 
L 254.277758 205.043071 
L 254.483058 205.992364 
L 254.791009 205.570456 
L 255.20161 210.053228 
L 255.61221 210.105967 
L 255.714861 211.688121 
L 255.817511 211.424429 
L 255.920161 210.422397 
L 256.228112 211.477167 
L 256.330762 210.105967 
L 256.433412 210.633351 
L 256.536062 209.578582 
L 256.638712 207.310826 
L 256.946663 206.46701 
L 257.151963 204.093778 
L 257.254613 204.884855 
L 257.357264 202.564362 
L 257.665214 202.933531 
L 257.767864 203.249962 
L 257.973165 206.361533 
L 258.075815 205.095809 
L 258.589066 204.673901 
L 258.691716 204.410209 
L 258.794366 202.775316 
L 259.204967 205.095809 
L 259.410267 207.416303 
L 259.512918 209.103935 
L 259.820868 209.051197 
L 259.923518 210.738828 
L 260.026168 209.842274 
L 260.231469 213.744923 
L 260.64207 209.947751 
L 260.74472 207.943688 
L 260.95002 206.46701 
L 261.257971 206.730703 
L 261.463271 209.420366 
L 261.565921 207.943688 
L 261.668571 208.101904 
L 261.976522 207.258088 
L 262.079172 208.365596 
L 262.284473 207.996427 
L 262.387123 206.150579 
L 262.695073 205.939625 
L 262.797723 206.572487 
L 262.900374 205.992364 
L 263.003024 206.256056 
L 263.105674 207.785473 
L 263.413625 208.101904 
L 263.618925 204.515686 
L 263.721575 204.779378 
L 263.824225 206.097841 
L 264.132176 204.304732 
L 264.337476 204.937594 
L 264.440126 204.832117 
L 264.542777 205.306763 
L 264.850727 205.359502 
L 265.158678 200.771253 
L 265.979879 196.341219 
L 266.49313 196.446696 
L 266.698431 194.54811 
L 267.416982 188.799614 
L 267.724932 189.48522 
L 267.827583 191.172846 
L 267.930233 189.11604 
L 268.032883 190.381774 
L 268.135533 185.688038 
L 268.443484 185.371612 
L 268.546134 185.846258 
L 268.648784 185.79352 
L 268.854085 189.590686 
L 269.162035 190.381774 
L 269.264685 189.801646 
L 269.367335 186.637336 
L 269.469986 189.590686 
L 269.572636 187.217459 
L 269.983237 182.471 
L 270.188537 187.059244 
L 270.599138 184.527796 
L 270.804438 187.797577 
L 270.907088 185.951741 
L 271.009738 186.426387 
L 271.317689 186.742813 
L 271.420339 185.951741 
L 271.522989 184.264109 
L 271.62564 185.318873 
L 272.03624 181.785394 
L 272.13889 178.515613 
L 272.241541 179.464895 
L 272.446841 176.406062 
L 272.754792 176.722504 
L 273.165392 179.623116 
L 273.575993 181.099799 
L 273.781293 179.306685 
L 274.191894 180.88884 
L 274.294544 182.787426 
L 274.397195 182.365518 
L 274.602495 185.318873 
L 274.910446 182.734687 
L 275.218396 175.0876 
L 275.321046 174.296528 
L 275.628997 173.294491 
L 275.731647 174.454743 
L 275.834297 176.986191 
L 275.936947 175.984154 
L 276.039598 177.460838 
L 276.347548 179.359429 
L 276.552849 178.304653 
L 276.758149 177.566315 
L 277.066099 177.882746 
L 277.37405 177.355361 
L 277.4767 173.71641 
L 277.784651 168.917196 
L 277.887301 164.328952 
L 277.989951 167.282308 
L 278.092601 167.176826 
L 278.195252 169.180894 
L 278.503202 168.60077 
L 278.605852 168.126124 
L 279.221753 161.533812 
L 279.324404 161.42833 
L 279.427054 162.588582 
L 279.529704 172.819855 
L 279.632354 169.497325 
L 280.145605 163.748829 
L 280.248255 167.440523 
L 280.350905 167.229564 
L 280.761506 170.077448 
L 280.966807 175.667729 
L 281.069457 173.452712 
L 281.377407 170.604838 
L 281.582708 173.241763 
L 281.685358 176.195114 
L 281.788008 173.558189 
L 282.095959 173.663671 
L 282.301259 172.134249 
L 282.506559 176.406062 
L 282.81451 178.832038 
L 282.91716 178.7793 
L 283.12246 176.353334 
L 283.225111 175.878688 
L 283.533061 173.71641 
L 283.738362 176.564283 
L 283.943662 176.406062 
L 284.251613 175.351298 
L 284.354263 176.66976 
L 284.662213 170.815787 
L 284.970164 169.339104 
L 285.072814 168.231601 
L 285.175464 169.81375 
L 285.380765 162.008458 
L 285.791365 157.420214 
L 285.996666 162.061197 
L 286.099316 162.008458 
L 286.509917 163.643346 
L 286.612567 166.227543 
L 286.715217 165.067291 
L 286.817867 162.483105 
L 287.125818 163.748829 
L 287.228468 164.856342 
L 287.331118 163.959788 
L 287.433768 164.276214 
L 287.536419 164.117993 
L 287.844369 164.803599 
L 287.947019 162.746792 
L 288.049669 164.539901 
L 288.25497 170.974003 
L 288.56292 170.868526 
L 288.665571 172.345209 
L 288.870871 170.868526 
L 288.973521 170.710305 
L 289.281472 169.022678 
L 289.486772 172.978065 
L 289.692072 169.233637 
L 290.205323 169.022678 
L 290.307974 168.653509 
L 290.410624 169.075417 
L 290.821224 166.807661 
L 291.026525 164.539901 
L 291.129175 165.383717 
L 291.642426 160.584514 
L 291.745076 155.205198 
L 291.847726 156.365439 
L 292.258327 158.158548 
L 292.463627 153.728514 
L 292.566278 153.728514 
L 292.874228 156.15448 
L 292.976878 153.728514 
L 293.079529 154.519592 
L 293.284829 150.775164 
L 293.59278 148.718352 
L 293.69543 146.977982 
L 293.90073 153.201129 
L 294.00338 149.087532 
L 294.311331 147.39989 
L 294.516631 143.180815 
L 294.619281 143.971893 
L 294.721932 141.598666 
L 295.132532 138.539833 
L 295.235183 135.85017 
L 295.440483 143.497241 
L 295.748433 144.921186 
L 295.851084 146.028699 
L 295.953734 141.387706 
L 296.056384 147.39989 
L 296.159034 146.503335 
L 296.569635 140.860316 
L 296.774935 140.54389 
L 296.877586 148.401926 
L 297.185536 148.929311 
L 297.288186 145.81774 
L 297.390836 150.564205 
L 297.596137 140.069244 
L 297.904087 140.174721 
L 298.006738 141.387706 
L 298.212038 146.345125 
L 298.314688 142.389738 
L 298.622639 140.702111 
L 298.827939 136.746724 
L 299.033239 134.426225 
L 299.34119 133.687891 
L 299.44384 131.842039 
L 299.649141 137.379581 
L 299.751791 136.85219 
L 300.059741 136.008374 
L 300.162391 134.268004 
L 300.265042 130.523576 
L 300.470342 132.31669 
L 300.880943 131.314654 
L 301.086243 125.407937 
L 301.188893 126.251763 
L 301.496844 124.880562 
L 301.599494 122.507325 
L 301.907445 120.345046 
L 302.215395 119.448492 
L 302.318045 120.555995 
L 302.625996 119.132066 
L 302.933947 115.334895 
L 303.139247 118.28825 
L 303.241897 119.448492 
L 303.344547 115.862274 
L 303.652498 114.702017 
L 303.857798 116.389649 
L 304.063099 114.174642 
L 304.679 110.904861 
L 304.78165 119.975877 
L 305.0896 121.136124 
L 305.192251 123.720305 
L 305.294901 123.245658 
L 305.397551 112.539744 
L 305.500201 116.336921 
L 305.808152 110.219255 
L 305.910802 119.395754 
L 306.013452 117.127993 
L 306.218753 119.764918 
L 306.526703 118.499199 
L 306.629353 117.338952 
L 306.834654 119.923139 
L 306.937304 117.866342 
L 307.553205 119.817662 
L 307.655855 116.178711 
L 307.963806 114.543812 
L 308.066456 110.693902 
L 308.271756 113.330827 
L 308.374406 109.691881 
L 308.785007 110.74663 
L 308.887657 108.900793 
L 308.990308 102.51944 
L 309.092958 102.730399 
L 309.400908 101.939311 
L 309.503558 99.671556 
L 309.606209 105.84195 
L 309.708859 104.365277 
L 309.811509 110.113778 
L 310.11946 109.902819 
L 310.32476 105.209093 
L 310.42741 107.846018 
L 310.53006 106.685787 
L 310.838011 105.84195 
L 311.145961 116.969788 
L 311.248612 113.699996 
L 311.556562 109.269962 
L 311.659212 109.639127 
L 311.761863 107.160412 
L 311.864513 107.529603 
L 311.967163 105.736494 
L 312.275114 113.330827 
L 312.480414 121.927196 
L 312.583064 119.817662 
L 312.685714 129.099637 
L 312.993665 126.093543 
L 313.096315 129.152375 
L 313.301615 116.969788 
L 313.712216 118.499199 
L 313.814866 117.91907 
L 314.020167 111.221281 
L 314.122817 118.657415 
L 314.430767 121.97994 
L 314.533418 127.359266 
L 314.636068 127.253789 
L 314.841368 131.050966 
L 315.251969 130.259878 
L 315.354619 131.7893 
L 315.457269 135.902908 
L 315.55992 135.744687 
L 315.86787 134.742656 
L 316.07317 130.04893 
L 316.175821 130.259878 
L 316.278471 133.002285 
L 316.586421 131.578341 
L 316.894372 121.716247 
L 316.997022 120.608734 
L 317.407623 118.815625 
L 317.510273 122.296376 
L 317.612923 121.927196 
L 317.715573 121.08338 
L 318.023524 120.714216 
L 318.126174 121.030642 
L 318.228824 119.817662 
L 318.742075 107.318643 
L 318.844725 109.428167 
L 318.947376 109.16448 
L 319.050026 106.263868 
L 319.152676 108.953521 
L 319.460627 110.061045 
L 319.563277 111.537718 
L 319.768577 107.58233 
L 319.871227 107.846018 
L 320.281828 109.797337 
L 320.384478 113.383554 
L 320.487128 113.067139 
L 320.589779 110.957589 
L 321.10303 108.162459 
L 321.20568 106.000181 
L 321.616281 107.79329 
L 322.026881 115.334895 
L 322.334832 114.174642 
L 322.540132 108.162459 
L 322.745433 102.097522 
L 323.156033 96.770944 
L 323.771934 103.785153 
L 323.874585 103.310507 
L 323.977235 103.73242 
L 324.182535 113.22535 
L 324.593136 112.539744 
L 324.695786 115.440377 
L 324.798436 112.328806 
L 324.901087 113.172616 
L 325.311687 106.633038 
L 325.414337 109.53365 
L 325.619638 108.426146 
L 325.927588 109.691881 
L 326.132889 112.381534 
L 326.235539 111.906887 
L 326.338189 112.85618 
L 326.64614 113.910955 
L 326.85144 110.324732 
L 326.95409 111.379507 
L 327.05674 109.428167 
L 327.467341 108.109705 
L 327.672642 109.428167 
L 327.775292 112.223323 
L 328.083242 111.379507 
L 328.391193 114.543812 
L 328.493843 113.910955 
L 328.801794 115.176669 
L 328.904444 116.758839 
L 329.212394 109.639127 
L 329.520345 111.537718 
L 329.828295 118.710158 
L 329.930946 118.815625 
L 330.341546 118.024553 
L 330.546847 123.825787 
L 330.649497 123.403879 
L 330.957448 119.975877 
L 331.368048 127.622954 
L 331.675999 128.783206 
L 331.881299 132.422157 
L 331.983949 142.389738 
L 332.0866 130.470838 
L 332.39455 130.629058 
L 332.4972 128.255821 
L 332.599851 122.612802 
L 332.702501 123.878526 
L 332.805151 127.412005 
L 333.215752 124.880562 
L 333.318402 124.880562 
L 333.421052 124.669603 
L 333.523702 126.51545 
L 333.831653 126.620933 
L 334.036953 123.931264 
L 334.139603 126.040804 
L 334.242254 125.777117 
L 334.652854 117.971809 
L 334.755504 119.764918 
L 334.858155 117.286214 
L 335.268755 118.024553 
L 335.474056 113.594514 
L 335.576706 113.752724 
L 335.679356 110.219255 
L 336.192607 109.586399 
L 336.397907 108.900793 
L 336.705858 109.955568 
L 336.808508 111.010343 
L 336.911158 110.588425 
L 337.013809 110.693902 
L 337.116459 108.215187 
L 337.424409 106.474827 
L 337.527059 108.742583 
L 337.73236 106.263868 
L 337.83501 108.531623 
L 338.142961 110.799384 
L 338.245611 114.807499 
L 338.348261 112.592493 
L 338.553561 104.2598 
L 338.861512 104.365277 
L 338.964162 106.633038 
L 339.066812 106.474827 
L 339.272113 105.578262 
L 339.682713 107.213161 
L 339.785364 106.316596 
L 339.990664 106.369345 
L 340.298615 106.896725 
L 340.401265 107.79329 
L 340.503915 109.955568 
L 340.709215 107.265894 
L 341.017166 104.681718 
L 341.119816 102.466691 
L 341.222466 107.846018 
L 341.325116 105.47278 
L 341.427767 110.061045 
L 341.941018 106.527555 
L 342.146318 97.034631 
L 342.454268 95.188794 
L 342.556919 95.452482 
L 342.659569 91.602571 
L 342.762219 91.918992 
L 343.17282 85.801326 
L 343.27547 87.119789 
L 343.37812 86.223245 
L 343.583421 92.762808 
L 343.891371 95.874379 
L 344.096671 91.444345 
L 344.199322 92.604598 
L 344.301972 90.495047 
L 344.712573 87.488958 
L 344.917873 89.703986 
L 345.020523 87.805395 
L 345.328474 87.383476 
L 345.431124 87.594435 
L 345.636424 85.32668 
L 346.047025 87.014307 
L 346.457626 78.628886 
L 346.765576 80.369267 
L 346.868227 85.16847 
L 346.970877 84.852033 
L 347.073527 81.47677 
L 347.176177 81.635001 
L 347.484128 84.166444 
L 347.586778 83.955484 
L 347.792078 81.371293 
L 347.894728 80.843913 
L 348.202679 81.371293 
L 348.305329 83.217151 
L 348.407979 82.953463 
L 348.61328 87.067061 
L 349.02388 83.269879 
L 349.229181 79.89462 
L 349.742432 81.582252 
L 350.460983 72.669451 
L 350.563633 73.460518 
L 350.666283 63.018296 
L 350.768934 68.186669 
L 351.076884 60.275894 
L 351.179534 64.073071 
L 351.282185 63.598425 
L 351.384835 70.243465 
L 351.487485 68.503105 
L 351.795435 65.444262 
L 351.898086 66.077139 
L 352.000736 65.813452 
L 352.103386 66.815473 
L 352.206036 68.977751 
L 352.513987 59.643038 
L 352.616637 59.801248 
L 352.719287 60.80329 
L 352.821937 65.655221 
L 352.924588 59.959474 
L 353.232538 60.645059 
L 353.335188 60.539603 
L 353.540489 60.012207 
L 353.643139 58.271847 
L 353.951089 56.531466 
L 354.05374 52.154182 
L 354.25904 54.843835 
L 354.36169 55.582168 
L 354.772291 56.267774 
L 354.874941 58.060888 
L 355.080241 55.318481 
L 355.388192 53.472644 
L 355.490842 56.689671 
L 355.593492 54.843835 
L 355.798793 58.799222 
L 356.106743 61.963521 
L 356.312044 67.395602 
L 356.517344 62.227235 
L 356.825295 62.754609 
L 357.030595 63.545697 
L 357.133245 64.547718 
L 357.235895 63.914861 
L 357.543846 61.066977 
L 357.954447 68.925002 
L 358.262397 71.667409 
L 358.467698 66.709996 
L 358.570348 69.55788 
L 358.980949 69.399649 
L 359.083599 71.561927 
L 359.288899 78.417948 
L 359.391549 75.253627 
L 359.6995 74.620771 
L 359.9048 68.344895 
L 360.00745 66.973683 
L 360.110101 63.914861 
L 360.520701 66.02439 
L 360.623352 65.602493 
L 361.136602 86.117763 
L 361.444553 77.257695 
L 361.547203 77.310423 
L 361.855154 76.730321 
L 361.957804 80.949395 
L 362.060454 76.150192 
L 362.265755 83.480838 
L 362.573705 84.535613 
L 362.676355 82.004171 
L 362.779005 88.121831 
L 362.984306 84.430136 
L 363.292256 82.004171 
L 363.394907 82.742504 
L 364.010808 123.878526 
L 364.113458 96.823672 
L 364.216108 108.637106 
L 364.318758 97.720237 
L 364.421408 99.407869 
L 364.729359 98.353094 
L 364.934659 110.799384 
L 365.03731 112.223323 
L 365.13996 109.955568 
L 365.550561 103.415984 
L 365.653211 96.507257 
L 365.858511 106.685787 
L 366.166462 106.369345 
L 366.269112 105.789222 
L 366.474412 102.413958 
L 366.577062 101.148229 
L 366.885013 103.257774 
L 366.987663 107.79329 
L 367.090313 106.633038 
L 367.192963 111.695928 
L 367.295614 110.219255 
L 367.603564 114.069165 
L 367.808865 124.458654 
L 367.911515 118.024553 
L 368.014165 122.138155 
L 368.322116 117.338952 
L 368.527416 106.105658 
L 368.630066 103.94338 
L 368.732716 105.683739 
L 369.040667 105.209093 
L 369.245967 110.271983 
L 369.348617 108.478874 
L 369.451268 102.88861 
L 369.861868 106.633038 
L 370.067169 109.375439 
L 370.477769 103.996113 
L 370.58042 104.787195 
L 370.68307 106.685787 
L 370.78572 105.261842 
L 370.88837 107.107684 
L 371.196321 109.480922 
L 371.401621 103.73242 
L 371.606922 108.320664 
L 372.017522 116.811567 
L 372.120172 114.807499 
L 372.325473 122.085417 
L 372.633423 124.511382 
L 372.736074 119.184805 
L 372.838724 122.349104 
L 372.941374 118.13003 
L 373.454625 123.403879 
L 373.557275 123.825787 
L 373.762575 121.558032 
L 374.070526 121.505288 
L 374.275826 118.551938 
L 374.481127 124.77508 
L 374.789077 125.14425 
L 374.891728 128.308559 
L 374.994378 121.347083 
L 375.199678 127.359266 
L 375.610279 137.432319 
L 375.918229 125.460675 
L 376.22618 127.570226 
L 376.53413 123.667566 
L 376.944731 124.616865 
L 377.047381 124.564121 
L 377.252682 130.787269 
L 377.663283 134.584446 
L 377.765933 132.422157 
L 377.971233 144.868447 
L 378.073883 145.237611 
L 378.381834 149.034794 
L 378.484484 153.833991 
L 378.587134 151.671718 
L 378.792435 156.892824 
L 379.203035 154.361382 
L 379.305686 164.117993 
L 379.510986 153.412089 
L 379.818936 148.296444 
L 379.921587 153.517555 
L 380.024237 147.136202 
L 380.126887 153.359345 
L 380.229537 152.304575 
L 380.537488 147.39989 
L 380.640138 143.760944 
L 380.742788 145.184873 
L 380.845438 149.192998 
L 380.948089 147.188941 
L 381.256039 150.089553 
L 381.358689 160.479047 
L 381.461339 154.150422 
L 381.56399 161.375602 
L 381.66664 161.322863 
L 382.282541 143.760944 
L 382.385191 148.032757 
L 382.795792 145.81774 
L 382.898442 152.357313 
L 383.001092 149.66765 
L 383.103742 149.773127 
L 383.411693 150.564205 
L 383.822294 134.215266 
L 384.130244 134.215266 
L 384.232895 133.740619 
L 384.540845 138.698043 
L 384.848796 139.911023 
L 385.054096 143.128077 
L 385.259396 135.63921 
L 385.669997 139.330905 
L 385.772647 139.436387 
L 385.875297 145.290355 
L 386.285898 145.554053 
L 386.388548 147.39989 
L 386.491199 138.223391 
L 386.593849 138.909002 
L 386.696499 138.961741 
L 387.00445 137.326837 
L 387.1071 142.547948 
L 387.3124 141.071275 
L 387.825651 144.921186 
L 388.133602 133.055024 
L 388.441552 134.109799 
L 388.646853 130.312617 
L 388.749503 130.787269 
L 388.852153 138.170653 
L 389.365404 133.687891 
L 389.570704 139.278167 
L 389.981305 141.493183 
L 390.289256 145.81774 
L 390.699856 143.444502 
L 390.802506 144.552016 
L 390.905157 143.7082 
L 391.007807 147.821798 
L 391.315757 149.456701 
L 391.418408 149.351219 
L 391.521058 148.454665 
L 391.726358 154.308643 
L 392.136959 151.302549 
L 392.342259 144.710237 
L 392.444909 145.659519 
L 392.85551 143.971893 
L 392.95816 148.718352 
L 393.060811 147.874536 
L 393.163461 148.296444 
L 393.471411 147.716331 
L 393.676712 144.499278 
L 393.779362 143.971893 
L 393.882012 147.716331 
L 394.292613 150.089553 
L 394.497913 153.833991 
L 394.600563 153.992202 
L 394.908514 151.777185 
L 395.011164 150.142297 
L 395.113814 151.988144 
L 395.216465 151.460759 
L 395.319115 156.681865 
L 395.729715 159.107841 
L 395.832366 158.949625 
L 395.935016 154.255899 
L 396.037666 156.629126 
L 396.448267 157.525681 
L 396.550917 164.223475 
L 396.653567 163.221438 
L 396.756217 160.900955 
L 397.269468 155.838054 
L 397.474769 152.673739 
L 397.782719 153.728514 
L 397.885369 153.570294 
L 397.98802 152.146365 
L 398.19332 143.971893 
L 398.603921 139.489115 
L 398.706571 139.541854 
L 398.911871 143.813682 
L 399.219822 144.23559 
L 399.425122 148.718352 
L 399.630423 144.182852 
L 400.246324 138.170653 
L 400.348974 139.067207 
L 400.656924 139.911023 
L 400.759575 138.434351 
L 400.862225 138.961741 
L 400.964875 138.487094 
L 401.067525 136.746724 
L 401.375476 137.485058 
L 401.478126 136.008374 
L 401.786076 138.80352 
L 402.094027 140.54389 
L 402.299327 139.647336 
L 402.401978 140.069244 
L 402.504628 143.286292 
L 402.915229 143.444502 
L 403.53113 148.929311 
L 403.63378 148.085495 
L 403.83908 150.616943 
L 403.94173 149.614906 
L 404.249681 149.50944 
L 404.352331 148.349188 
L 404.454981 148.454665 
L 404.557632 145.81774 
L 404.660282 148.454665 
L 405.070882 151.882667 
L 405.276183 153.359345 
L 405.378833 152.357313 
L 405.686784 151.460759 
L 406.097384 154.836018 
L 406.405335 154.836018 
L 406.610635 157.314732 
L 406.815936 159.213323 
L 407.123886 160.426303 
L 407.226536 160.057139 
L 407.431837 160.320826 
L 407.534487 161.481068 
L 408.047738 153.201129 
L 408.150388 148.454665 
L 408.253038 151.197067 
L 408.560989 150.827902 
L 408.97159 160.584514 
L 409.27954 159.002364 
L 409.38219 159.84618 
L 409.587491 159.055102 
L 409.690141 155.890793 
L 409.998091 156.365439 
L 410.203392 149.456701 
L 410.306042 150.669682 
L 410.408692 148.454665 
L 410.716643 144.499278 
L 410.921943 146.925243 
L 411.127243 148.190978 
L 411.435194 146.397869 
L 411.537844 149.298481 
L 411.640494 147.39989 
L 411.743145 148.612886 
L 411.845795 148.296444 
L 412.153745 148.718352 
L 412.359046 145.132145 
L 412.564346 128.414042 
L 412.974947 130.629058 
L 413.180247 132.105731 
L 413.282897 129.416062 
L 413.590848 133.055024 
L 413.693498 132.211208 
L 414.001449 138.170653 
L 414.412049 137.06315 
L 414.72 142.49522 
L 414.72 142.49522 
" style="fill:none;stroke:#e24a33;stroke-linecap:square;stroke-width:1.5;"/>
   </g>
   <g id="patch_3">
    <path d="M 57.6 276.48 
L 57.6 41.472 
" style="fill:none;stroke:#ffffff;stroke-linecap:square;stroke-linejoin:miter;"/>
   </g>
   <g id="patch_4">
    <path d="M 414.72 276.48 
L 414.72 41.472 
" style="fill:none;stroke:#ffffff;stroke-linecap:square;stroke-linejoin:miter;"/>
   </g>
   <g id="patch_5">
    <path d="M 57.6 276.48 
L 414.72 276.48 
" style="fill:none;stroke:#ffffff;stroke-linecap:square;stroke-linejoin:miter;"/>
   </g>
   <g id="patch_6">
    <path d="M 57.6 41.472 
L 414.72 41.472 
" style="fill:none;stroke:#ffffff;stroke-linecap:square;stroke-linejoin:miter;"/>
   </g>
  </g>
 </g>
 <defs>
  <clipPath id="p37ddaf05d2">
   <rect height="235.008" width="357.12" x="57.6" y="41.472"/>
  </clipPath>
 </defs>
</svg>
