<?xml version="1.0" encoding="utf-8" standalone="no"?>
<!DOCTYPE svg PUBLIC "-//W3C//DTD SVG 1.1//EN"
  "http://www.w3.org/Graphics/SVG/1.1/DTD/svg11.dtd">
<!-- Created with matplotlib (http://matplotlib.org/) -->
<svg height="345pt" version="1.1" viewBox="0 0 460 345" width="460pt" xmlns="http://www.w3.org/2000/svg" xmlns:xlink="http://www.w3.org/1999/xlink">
 <defs>
  <style type="text/css">
*{stroke-linecap:butt;stroke-linejoin:round;}
  </style>
 </defs>
 <g id="figure_1">
  <g id="patch_1">
   <path d="M 0 345.6 
L 460.8 345.6 
L 460.8 0 
L 0 0 
z
" style="fill:#ffffff;"/>
  </g>
  <g id="axes_1">
   <g id="patch_2">
    <path d="M 57.6 276.48 
L 414.72 276.48 
L 414.72 41.472 
L 57.6 41.472 
z
" style="fill:#e5e5e5;"/>
   </g>
   <g id="matplotlib.axis_1">
    <g id="xtick_1">
     <g id="line2d_1">
      <path clip-path="url(#p0ec696b58f)" d="M 102.171217 276.48 
L 102.171217 41.472 
" style="fill:none;stroke:#ffffff;stroke-linecap:square;stroke-width:0.8;"/>
     </g>
     <g id="line2d_2">
      <defs>
       <path d="M 0 0 
L 0 3.5 
" id="ma2ceedb2b5" style="stroke:#555555;stroke-width:0.8;"/>
      </defs>
      <g>
       <use style="fill:#555555;stroke:#555555;stroke-width:0.8;" x="102.171217" xlink:href="#ma2ceedb2b5" y="276.48"/>
      </g>
     </g>
     <g id="text_1">
      <!-- 2003 -->
      <defs>
       <path d="M 19.1875 8.296875 
L 53.609375 8.296875 
L 53.609375 0 
L 7.328125 0 
L 7.328125 8.296875 
Q 12.9375 14.109375 22.625 23.890625 
Q 32.328125 33.6875 34.8125 36.53125 
Q 39.546875 41.84375 41.421875 45.53125 
Q 43.3125 49.21875 43.3125 52.78125 
Q 43.3125 58.59375 39.234375 62.25 
Q 35.15625 65.921875 28.609375 65.921875 
Q 23.96875 65.921875 18.8125 64.3125 
Q 13.671875 62.703125 7.8125 59.421875 
L 7.8125 69.390625 
Q 13.765625 71.78125 18.9375 73 
Q 24.125 74.21875 28.421875 74.21875 
Q 39.75 74.21875 46.484375 68.546875 
Q 53.21875 62.890625 53.21875 53.421875 
Q 53.21875 48.921875 51.53125 44.890625 
Q 49.859375 40.875 45.40625 35.40625 
Q 44.1875 33.984375 37.640625 27.21875 
Q 31.109375 20.453125 19.1875 8.296875 
z
" id="DejaVuSans-32"/>
       <path d="M 31.78125 66.40625 
Q 24.171875 66.40625 20.328125 58.90625 
Q 16.5 51.421875 16.5 36.375 
Q 16.5 21.390625 20.328125 13.890625 
Q 24.171875 6.390625 31.78125 6.390625 
Q 39.453125 6.390625 43.28125 13.890625 
Q 47.125 21.390625 47.125 36.375 
Q 47.125 51.421875 43.28125 58.90625 
Q 39.453125 66.40625 31.78125 66.40625 
z
M 31.78125 74.21875 
Q 44.046875 74.21875 50.515625 64.515625 
Q 56.984375 54.828125 56.984375 36.375 
Q 56.984375 17.96875 50.515625 8.265625 
Q 44.046875 -1.421875 31.78125 -1.421875 
Q 19.53125 -1.421875 13.0625 8.265625 
Q 6.59375 17.96875 6.59375 36.375 
Q 6.59375 54.828125 13.0625 64.515625 
Q 19.53125 74.21875 31.78125 74.21875 
z
" id="DejaVuSans-30"/>
       <path d="M 40.578125 39.3125 
Q 47.65625 37.796875 51.625 33 
Q 55.609375 28.21875 55.609375 21.1875 
Q 55.609375 10.40625 48.1875 4.484375 
Q 40.765625 -1.421875 27.09375 -1.421875 
Q 22.515625 -1.421875 17.65625 -0.515625 
Q 12.796875 0.390625 7.625 2.203125 
L 7.625 11.71875 
Q 11.71875 9.328125 16.59375 8.109375 
Q 21.484375 6.890625 26.8125 6.890625 
Q 36.078125 6.890625 40.9375 10.546875 
Q 45.796875 14.203125 45.796875 21.1875 
Q 45.796875 27.640625 41.28125 31.265625 
Q 36.765625 34.90625 28.71875 34.90625 
L 20.21875 34.90625 
L 20.21875 43.015625 
L 29.109375 43.015625 
Q 36.375 43.015625 40.234375 45.921875 
Q 44.09375 48.828125 44.09375 54.296875 
Q 44.09375 59.90625 40.109375 62.90625 
Q 36.140625 65.921875 28.71875 65.921875 
Q 24.65625 65.921875 20.015625 65.03125 
Q 15.375 64.15625 9.8125 62.3125 
L 9.8125 71.09375 
Q 15.4375 72.65625 20.34375 73.4375 
Q 25.25 74.21875 29.59375 74.21875 
Q 40.828125 74.21875 47.359375 69.109375 
Q 53.90625 64.015625 53.90625 55.328125 
Q 53.90625 49.265625 50.4375 45.09375 
Q 46.96875 40.921875 40.578125 39.3125 
z
" id="DejaVuSans-33"/>
      </defs>
      <g style="fill:#555555;" transform="translate(79.091027 302.78544)rotate(-30)scale(0.1 -0.1)">
       <use xlink:href="#DejaVuSans-32"/>
       <use x="63.623047" xlink:href="#DejaVuSans-30"/>
       <use x="127.246094" xlink:href="#DejaVuSans-30"/>
       <use x="190.869141" xlink:href="#DejaVuSans-33"/>
      </g>
     </g>
    </g>
    <g id="xtick_2">
     <g id="line2d_3">
      <path clip-path="url(#p0ec696b58f)" d="M 146.864715 276.48 
L 146.864715 41.472 
" style="fill:none;stroke:#ffffff;stroke-linecap:square;stroke-width:0.8;"/>
     </g>
     <g id="line2d_4">
      <g>
       <use style="fill:#555555;stroke:#555555;stroke-width:0.8;" x="146.864715" xlink:href="#ma2ceedb2b5" y="276.48"/>
      </g>
     </g>
     <g id="text_2">
      <!-- 2005 -->
      <defs>
       <path d="M 10.796875 72.90625 
L 49.515625 72.90625 
L 49.515625 64.59375 
L 19.828125 64.59375 
L 19.828125 46.734375 
Q 21.96875 47.46875 24.109375 47.828125 
Q 26.265625 48.1875 28.421875 48.1875 
Q 40.625 48.1875 47.75 41.5 
Q 54.890625 34.8125 54.890625 23.390625 
Q 54.890625 11.625 47.5625 5.09375 
Q 40.234375 -1.421875 26.90625 -1.421875 
Q 22.3125 -1.421875 17.546875 -0.640625 
Q 12.796875 0.140625 7.71875 1.703125 
L 7.71875 11.625 
Q 12.109375 9.234375 16.796875 8.0625 
Q 21.484375 6.890625 26.703125 6.890625 
Q 35.15625 6.890625 40.078125 11.328125 
Q 45.015625 15.765625 45.015625 23.390625 
Q 45.015625 31 40.078125 35.4375 
Q 35.15625 39.890625 26.703125 39.890625 
Q 22.75 39.890625 18.8125 39.015625 
Q 14.890625 38.140625 10.796875 36.28125 
z
" id="DejaVuSans-35"/>
      </defs>
      <g style="fill:#555555;" transform="translate(123.784525 302.78544)rotate(-30)scale(0.1 -0.1)">
       <use xlink:href="#DejaVuSans-32"/>
       <use x="63.623047" xlink:href="#DejaVuSans-30"/>
       <use x="127.246094" xlink:href="#DejaVuSans-30"/>
       <use x="190.869141" xlink:href="#DejaVuSans-35"/>
      </g>
     </g>
    </g>
    <g id="xtick_3">
     <g id="line2d_5">
      <path clip-path="url(#p0ec696b58f)" d="M 191.497072 276.48 
L 191.497072 41.472 
" style="fill:none;stroke:#ffffff;stroke-linecap:square;stroke-width:0.8;"/>
     </g>
     <g id="line2d_6">
      <g>
       <use style="fill:#555555;stroke:#555555;stroke-width:0.8;" x="191.497072" xlink:href="#ma2ceedb2b5" y="276.48"/>
      </g>
     </g>
     <g id="text_3">
      <!-- 2007 -->
      <defs>
       <path d="M 8.203125 72.90625 
L 55.078125 72.90625 
L 55.078125 68.703125 
L 28.609375 0 
L 18.3125 0 
L 43.21875 64.59375 
L 8.203125 64.59375 
z
" id="DejaVuSans-37"/>
      </defs>
      <g style="fill:#555555;" transform="translate(168.416882 302.78544)rotate(-30)scale(0.1 -0.1)">
       <use xlink:href="#DejaVuSans-32"/>
       <use x="63.623047" xlink:href="#DejaVuSans-30"/>
       <use x="127.246094" xlink:href="#DejaVuSans-30"/>
       <use x="190.869141" xlink:href="#DejaVuSans-37"/>
      </g>
     </g>
    </g>
    <g id="xtick_4">
     <g id="line2d_7">
      <path clip-path="url(#p0ec696b58f)" d="M 236.19057 276.48 
L 236.19057 41.472 
" style="fill:none;stroke:#ffffff;stroke-linecap:square;stroke-width:0.8;"/>
     </g>
     <g id="line2d_8">
      <g>
       <use style="fill:#555555;stroke:#555555;stroke-width:0.8;" x="236.19057" xlink:href="#ma2ceedb2b5" y="276.48"/>
      </g>
     </g>
     <g id="text_4">
      <!-- 2009 -->
      <defs>
       <path d="M 10.984375 1.515625 
L 10.984375 10.5 
Q 14.703125 8.734375 18.5 7.8125 
Q 22.3125 6.890625 25.984375 6.890625 
Q 35.75 6.890625 40.890625 13.453125 
Q 46.046875 20.015625 46.78125 33.40625 
Q 43.953125 29.203125 39.59375 26.953125 
Q 35.25 24.703125 29.984375 24.703125 
Q 19.046875 24.703125 12.671875 31.3125 
Q 6.296875 37.9375 6.296875 49.421875 
Q 6.296875 60.640625 12.9375 67.421875 
Q 19.578125 74.21875 30.609375 74.21875 
Q 43.265625 74.21875 49.921875 64.515625 
Q 56.59375 54.828125 56.59375 36.375 
Q 56.59375 19.140625 48.40625 8.859375 
Q 40.234375 -1.421875 26.421875 -1.421875 
Q 22.703125 -1.421875 18.890625 -0.6875 
Q 15.09375 0.046875 10.984375 1.515625 
z
M 30.609375 32.421875 
Q 37.25 32.421875 41.125 36.953125 
Q 45.015625 41.5 45.015625 49.421875 
Q 45.015625 57.28125 41.125 61.84375 
Q 37.25 66.40625 30.609375 66.40625 
Q 23.96875 66.40625 20.09375 61.84375 
Q 16.21875 57.28125 16.21875 49.421875 
Q 16.21875 41.5 20.09375 36.953125 
Q 23.96875 32.421875 30.609375 32.421875 
z
" id="DejaVuSans-39"/>
      </defs>
      <g style="fill:#555555;" transform="translate(213.11038 302.78544)rotate(-30)scale(0.1 -0.1)">
       <use xlink:href="#DejaVuSans-32"/>
       <use x="63.623047" xlink:href="#DejaVuSans-30"/>
       <use x="127.246094" xlink:href="#DejaVuSans-30"/>
       <use x="190.869141" xlink:href="#DejaVuSans-39"/>
      </g>
     </g>
    </g>
    <g id="xtick_5">
     <g id="line2d_9">
      <path clip-path="url(#p0ec696b58f)" d="M 280.822928 276.48 
L 280.822928 41.472 
" style="fill:none;stroke:#ffffff;stroke-linecap:square;stroke-width:0.8;"/>
     </g>
     <g id="line2d_10">
      <g>
       <use style="fill:#555555;stroke:#555555;stroke-width:0.8;" x="280.822928" xlink:href="#ma2ceedb2b5" y="276.48"/>
      </g>
     </g>
     <g id="text_5">
      <!-- 2011 -->
      <defs>
       <path d="M 12.40625 8.296875 
L 28.515625 8.296875 
L 28.515625 63.921875 
L 10.984375 60.40625 
L 10.984375 69.390625 
L 28.421875 72.90625 
L 38.28125 72.90625 
L 38.28125 8.296875 
L 54.390625 8.296875 
L 54.390625 0 
L 12.40625 0 
z
" id="DejaVuSans-31"/>
      </defs>
      <g style="fill:#555555;" transform="translate(257.742737 302.78544)rotate(-30)scale(0.1 -0.1)">
       <use xlink:href="#DejaVuSans-32"/>
       <use x="63.623047" xlink:href="#DejaVuSans-30"/>
       <use x="127.246094" xlink:href="#DejaVuSans-31"/>
       <use x="190.869141" xlink:href="#DejaVuSans-31"/>
      </g>
     </g>
    </g>
    <g id="xtick_6">
     <g id="line2d_11">
      <path clip-path="url(#p0ec696b58f)" d="M 325.516425 276.48 
L 325.516425 41.472 
" style="fill:none;stroke:#ffffff;stroke-linecap:square;stroke-width:0.8;"/>
     </g>
     <g id="line2d_12">
      <g>
       <use style="fill:#555555;stroke:#555555;stroke-width:0.8;" x="325.516425" xlink:href="#ma2ceedb2b5" y="276.48"/>
      </g>
     </g>
     <g id="text_6">
      <!-- 2013 -->
      <g style="fill:#555555;" transform="translate(302.436235 302.78544)rotate(-30)scale(0.1 -0.1)">
       <use xlink:href="#DejaVuSans-32"/>
       <use x="63.623047" xlink:href="#DejaVuSans-30"/>
       <use x="127.246094" xlink:href="#DejaVuSans-31"/>
       <use x="190.869141" xlink:href="#DejaVuSans-33"/>
      </g>
     </g>
    </g>
    <g id="xtick_7">
     <g id="line2d_13">
      <path clip-path="url(#p0ec696b58f)" d="M 370.148783 276.48 
L 370.148783 41.472 
" style="fill:none;stroke:#ffffff;stroke-linecap:square;stroke-width:0.8;"/>
     </g>
     <g id="line2d_14">
      <g>
       <use style="fill:#555555;stroke:#555555;stroke-width:0.8;" x="370.148783" xlink:href="#ma2ceedb2b5" y="276.48"/>
      </g>
     </g>
     <g id="text_7">
      <!-- 2015 -->
      <g style="fill:#555555;" transform="translate(347.068592 302.78544)rotate(-30)scale(0.1 -0.1)">
       <use xlink:href="#DejaVuSans-32"/>
       <use x="63.623047" xlink:href="#DejaVuSans-30"/>
       <use x="127.246094" xlink:href="#DejaVuSans-31"/>
       <use x="190.869141" xlink:href="#DejaVuSans-35"/>
      </g>
     </g>
    </g>
    <g id="text_8">
     <!-- Date -->
     <defs>
      <path d="M 19.671875 64.796875 
L 19.671875 8.109375 
L 31.59375 8.109375 
Q 46.6875 8.109375 53.6875 14.9375 
Q 60.6875 21.78125 60.6875 36.53125 
Q 60.6875 51.171875 53.6875 57.984375 
Q 46.6875 64.796875 31.59375 64.796875 
z
M 9.8125 72.90625 
L 30.078125 72.90625 
Q 51.265625 72.90625 61.171875 64.09375 
Q 71.09375 55.28125 71.09375 36.53125 
Q 71.09375 17.671875 61.125 8.828125 
Q 51.171875 0 30.078125 0 
L 9.8125 0 
z
" id="DejaVuSans-44"/>
      <path d="M 34.28125 27.484375 
Q 23.390625 27.484375 19.1875 25 
Q 14.984375 22.515625 14.984375 16.5 
Q 14.984375 11.71875 18.140625 8.90625 
Q 21.296875 6.109375 26.703125 6.109375 
Q 34.1875 6.109375 38.703125 11.40625 
Q 43.21875 16.703125 43.21875 25.484375 
L 43.21875 27.484375 
z
M 52.203125 31.203125 
L 52.203125 0 
L 43.21875 0 
L 43.21875 8.296875 
Q 40.140625 3.328125 35.546875 0.953125 
Q 30.953125 -1.421875 24.3125 -1.421875 
Q 15.921875 -1.421875 10.953125 3.296875 
Q 6 8.015625 6 15.921875 
Q 6 25.140625 12.171875 29.828125 
Q 18.359375 34.515625 30.609375 34.515625 
L 43.21875 34.515625 
L 43.21875 35.40625 
Q 43.21875 41.609375 39.140625 45 
Q 35.0625 48.390625 27.6875 48.390625 
Q 23 48.390625 18.546875 47.265625 
Q 14.109375 46.140625 10.015625 43.890625 
L 10.015625 52.203125 
Q 14.9375 54.109375 19.578125 55.046875 
Q 24.21875 56 28.609375 56 
Q 40.484375 56 46.34375 49.84375 
Q 52.203125 43.703125 52.203125 31.203125 
z
" id="DejaVuSans-61"/>
      <path d="M 18.3125 70.21875 
L 18.3125 54.6875 
L 36.8125 54.6875 
L 36.8125 47.703125 
L 18.3125 47.703125 
L 18.3125 18.015625 
Q 18.3125 11.328125 20.140625 9.421875 
Q 21.96875 7.515625 27.59375 7.515625 
L 36.8125 7.515625 
L 36.8125 0 
L 27.59375 0 
Q 17.1875 0 13.234375 3.875 
Q 9.28125 7.765625 9.28125 18.015625 
L 9.28125 47.703125 
L 2.6875 47.703125 
L 2.6875 54.6875 
L 9.28125 54.6875 
L 9.28125 70.21875 
z
" id="DejaVuSans-74"/>
      <path d="M 56.203125 29.59375 
L 56.203125 25.203125 
L 14.890625 25.203125 
Q 15.484375 15.921875 20.484375 11.0625 
Q 25.484375 6.203125 34.421875 6.203125 
Q 39.59375 6.203125 44.453125 7.46875 
Q 49.3125 8.734375 54.109375 11.28125 
L 54.109375 2.78125 
Q 49.265625 0.734375 44.1875 -0.34375 
Q 39.109375 -1.421875 33.890625 -1.421875 
Q 20.796875 -1.421875 13.15625 6.1875 
Q 5.515625 13.8125 5.515625 26.8125 
Q 5.515625 40.234375 12.765625 48.109375 
Q 20.015625 56 32.328125 56 
Q 43.359375 56 49.78125 48.890625 
Q 56.203125 41.796875 56.203125 29.59375 
z
M 47.21875 32.234375 
Q 47.125 39.59375 43.09375 43.984375 
Q 39.0625 48.390625 32.421875 48.390625 
Q 24.90625 48.390625 20.390625 44.140625 
Q 15.875 39.890625 15.1875 32.171875 
z
" id="DejaVuSans-65"/>
     </defs>
     <g style="fill:#555555;" transform="translate(221.819063 317.704627)scale(0.12 -0.12)">
      <use xlink:href="#DejaVuSans-44"/>
      <use x="77.001953" xlink:href="#DejaVuSans-61"/>
      <use x="138.28125" xlink:href="#DejaVuSans-74"/>
      <use x="177.490234" xlink:href="#DejaVuSans-65"/>
     </g>
    </g>
   </g>
   <g id="matplotlib.axis_2">
    <g id="ytick_1">
     <g id="line2d_15">
      <path clip-path="url(#p0ec696b58f)" d="M 57.6 260.76227 
L 414.72 260.76227 
" style="fill:none;stroke:#ffffff;stroke-linecap:square;stroke-width:0.8;"/>
     </g>
     <g id="line2d_16">
      <defs>
       <path d="M 0 0 
L -3.5 0 
" id="mc736d93a0b" style="stroke:#555555;stroke-width:0.8;"/>
      </defs>
      <g>
       <use style="fill:#555555;stroke:#555555;stroke-width:0.8;" x="57.6" xlink:href="#mc736d93a0b" y="260.76227"/>
      </g>
     </g>
     <g id="text_9">
      <!-- 20 -->
      <g style="fill:#555555;" transform="translate(37.875 264.561489)scale(0.1 -0.1)">
       <use xlink:href="#DejaVuSans-32"/>
       <use x="63.623047" xlink:href="#DejaVuSans-30"/>
      </g>
     </g>
    </g>
    <g id="ytick_2">
     <g id="line2d_17">
      <path clip-path="url(#p0ec696b58f)" d="M 57.6 227.995744 
L 414.72 227.995744 
" style="fill:none;stroke:#ffffff;stroke-linecap:square;stroke-width:0.8;"/>
     </g>
     <g id="line2d_18">
      <g>
       <use style="fill:#555555;stroke:#555555;stroke-width:0.8;" x="57.6" xlink:href="#mc736d93a0b" y="227.995744"/>
      </g>
     </g>
     <g id="text_10">
      <!-- 40 -->
      <defs>
       <path d="M 37.796875 64.3125 
L 12.890625 25.390625 
L 37.796875 25.390625 
z
M 35.203125 72.90625 
L 47.609375 72.90625 
L 47.609375 25.390625 
L 58.015625 25.390625 
L 58.015625 17.1875 
L 47.609375 17.1875 
L 47.609375 0 
L 37.796875 0 
L 37.796875 17.1875 
L 4.890625 17.1875 
L 4.890625 26.703125 
z
" id="DejaVuSans-34"/>
      </defs>
      <g style="fill:#555555;" transform="translate(37.875 231.794963)scale(0.1 -0.1)">
       <use xlink:href="#DejaVuSans-34"/>
       <use x="63.623047" xlink:href="#DejaVuSans-30"/>
      </g>
     </g>
    </g>
    <g id="ytick_3">
     <g id="line2d_19">
      <path clip-path="url(#p0ec696b58f)" d="M 57.6 195.229219 
L 414.72 195.229219 
" style="fill:none;stroke:#ffffff;stroke-linecap:square;stroke-width:0.8;"/>
     </g>
     <g id="line2d_20">
      <g>
       <use style="fill:#555555;stroke:#555555;stroke-width:0.8;" x="57.6" xlink:href="#mc736d93a0b" y="195.229219"/>
      </g>
     </g>
     <g id="text_11">
      <!-- 60 -->
      <defs>
       <path d="M 33.015625 40.375 
Q 26.375 40.375 22.484375 35.828125 
Q 18.609375 31.296875 18.609375 23.390625 
Q 18.609375 15.53125 22.484375 10.953125 
Q 26.375 6.390625 33.015625 6.390625 
Q 39.65625 6.390625 43.53125 10.953125 
Q 47.40625 15.53125 47.40625 23.390625 
Q 47.40625 31.296875 43.53125 35.828125 
Q 39.65625 40.375 33.015625 40.375 
z
M 52.59375 71.296875 
L 52.59375 62.3125 
Q 48.875 64.0625 45.09375 64.984375 
Q 41.3125 65.921875 37.59375 65.921875 
Q 27.828125 65.921875 22.671875 59.328125 
Q 17.53125 52.734375 16.796875 39.40625 
Q 19.671875 43.65625 24.015625 45.921875 
Q 28.375 48.1875 33.59375 48.1875 
Q 44.578125 48.1875 50.953125 41.515625 
Q 57.328125 34.859375 57.328125 23.390625 
Q 57.328125 12.15625 50.6875 5.359375 
Q 44.046875 -1.421875 33.015625 -1.421875 
Q 20.359375 -1.421875 13.671875 8.265625 
Q 6.984375 17.96875 6.984375 36.375 
Q 6.984375 53.65625 15.1875 63.9375 
Q 23.390625 74.21875 37.203125 74.21875 
Q 40.921875 74.21875 44.703125 73.484375 
Q 48.484375 72.75 52.59375 71.296875 
z
" id="DejaVuSans-36"/>
      </defs>
      <g style="fill:#555555;" transform="translate(37.875 199.028438)scale(0.1 -0.1)">
       <use xlink:href="#DejaVuSans-36"/>
       <use x="63.623047" xlink:href="#DejaVuSans-30"/>
      </g>
     </g>
    </g>
    <g id="ytick_4">
     <g id="line2d_21">
      <path clip-path="url(#p0ec696b58f)" d="M 57.6 162.462693 
L 414.72 162.462693 
" style="fill:none;stroke:#ffffff;stroke-linecap:square;stroke-width:0.8;"/>
     </g>
     <g id="line2d_22">
      <g>
       <use style="fill:#555555;stroke:#555555;stroke-width:0.8;" x="57.6" xlink:href="#mc736d93a0b" y="162.462693"/>
      </g>
     </g>
     <g id="text_12">
      <!-- 80 -->
      <defs>
       <path d="M 31.78125 34.625 
Q 24.75 34.625 20.71875 30.859375 
Q 16.703125 27.09375 16.703125 20.515625 
Q 16.703125 13.921875 20.71875 10.15625 
Q 24.75 6.390625 31.78125 6.390625 
Q 38.8125 6.390625 42.859375 10.171875 
Q 46.921875 13.96875 46.921875 20.515625 
Q 46.921875 27.09375 42.890625 30.859375 
Q 38.875 34.625 31.78125 34.625 
z
M 21.921875 38.8125 
Q 15.578125 40.375 12.03125 44.71875 
Q 8.5 49.078125 8.5 55.328125 
Q 8.5 64.0625 14.71875 69.140625 
Q 20.953125 74.21875 31.78125 74.21875 
Q 42.671875 74.21875 48.875 69.140625 
Q 55.078125 64.0625 55.078125 55.328125 
Q 55.078125 49.078125 51.53125 44.71875 
Q 48 40.375 41.703125 38.8125 
Q 48.828125 37.15625 52.796875 32.3125 
Q 56.78125 27.484375 56.78125 20.515625 
Q 56.78125 9.90625 50.3125 4.234375 
Q 43.84375 -1.421875 31.78125 -1.421875 
Q 19.734375 -1.421875 13.25 4.234375 
Q 6.78125 9.90625 6.78125 20.515625 
Q 6.78125 27.484375 10.78125 32.3125 
Q 14.796875 37.15625 21.921875 38.8125 
z
M 18.3125 54.390625 
Q 18.3125 48.734375 21.84375 45.5625 
Q 25.390625 42.390625 31.78125 42.390625 
Q 38.140625 42.390625 41.71875 45.5625 
Q 45.3125 48.734375 45.3125 54.390625 
Q 45.3125 60.0625 41.71875 63.234375 
Q 38.140625 66.40625 31.78125 66.40625 
Q 25.390625 66.40625 21.84375 63.234375 
Q 18.3125 60.0625 18.3125 54.390625 
z
" id="DejaVuSans-38"/>
      </defs>
      <g style="fill:#555555;" transform="translate(37.875 166.261912)scale(0.1 -0.1)">
       <use xlink:href="#DejaVuSans-38"/>
       <use x="63.623047" xlink:href="#DejaVuSans-30"/>
      </g>
     </g>
    </g>
    <g id="ytick_5">
     <g id="line2d_23">
      <path clip-path="url(#p0ec696b58f)" d="M 57.6 129.696168 
L 414.72 129.696168 
" style="fill:none;stroke:#ffffff;stroke-linecap:square;stroke-width:0.8;"/>
     </g>
     <g id="line2d_24">
      <g>
       <use style="fill:#555555;stroke:#555555;stroke-width:0.8;" x="57.6" xlink:href="#mc736d93a0b" y="129.696168"/>
      </g>
     </g>
     <g id="text_13">
      <!-- 100 -->
      <g style="fill:#555555;" transform="translate(31.5125 133.495387)scale(0.1 -0.1)">
       <use xlink:href="#DejaVuSans-31"/>
       <use x="63.623047" xlink:href="#DejaVuSans-30"/>
       <use x="127.246094" xlink:href="#DejaVuSans-30"/>
      </g>
     </g>
    </g>
    <g id="ytick_6">
     <g id="line2d_25">
      <path clip-path="url(#p0ec696b58f)" d="M 57.6 96.929642 
L 414.72 96.929642 
" style="fill:none;stroke:#ffffff;stroke-linecap:square;stroke-width:0.8;"/>
     </g>
     <g id="line2d_26">
      <g>
       <use style="fill:#555555;stroke:#555555;stroke-width:0.8;" x="57.6" xlink:href="#mc736d93a0b" y="96.929642"/>
      </g>
     </g>
     <g id="text_14">
      <!-- 120 -->
      <g style="fill:#555555;" transform="translate(31.5125 100.728861)scale(0.1 -0.1)">
       <use xlink:href="#DejaVuSans-31"/>
       <use x="63.623047" xlink:href="#DejaVuSans-32"/>
       <use x="127.246094" xlink:href="#DejaVuSans-30"/>
      </g>
     </g>
    </g>
    <g id="ytick_7">
     <g id="line2d_27">
      <path clip-path="url(#p0ec696b58f)" d="M 57.6 64.163117 
L 414.72 64.163117 
" style="fill:none;stroke:#ffffff;stroke-linecap:square;stroke-width:0.8;"/>
     </g>
     <g id="line2d_28">
      <g>
       <use style="fill:#555555;stroke:#555555;stroke-width:0.8;" x="57.6" xlink:href="#mc736d93a0b" y="64.163117"/>
      </g>
     </g>
     <g id="text_15">
      <!-- 140 -->
      <g style="fill:#555555;" transform="translate(31.5125 67.962335)scale(0.1 -0.1)">
       <use xlink:href="#DejaVuSans-31"/>
       <use x="63.623047" xlink:href="#DejaVuSans-34"/>
       <use x="127.246094" xlink:href="#DejaVuSans-30"/>
      </g>
     </g>
    </g>
   </g>
   <g id="line2d_29">
    <path clip-path="url(#p0ec696b58f)" d="M 57.6 244.148508 
L 57.66114 243.261967 
L 57.783421 247.783323 
L 58.027982 244.325816 
L 58.089122 246.320529 
L 58.150262 245.832932 
L 58.211402 246.364859 
L 58.517103 247.871975 
L 58.639384 251.817079 
L 59.067365 248.049282 
L 59.495347 252.570639 
L 59.862188 249.024476 
L 59.923328 249.911017 
L 60.106749 249.052847 
L 60.167889 249.556402 
L 60.229029 248.173399 
L 60.290169 250.123787 
L 60.35131 249.485477 
L 60.595871 249.520942 
L 60.657011 248.137939 
L 60.779291 249.840096 
L 60.962712 250.946495 
L 61.084992 250.194712 
L 61.146133 251.684098 
L 61.207273 251.010328 
L 61.451834 248.847169 
L 61.635254 244.946394 
L 61.879815 247.215936 
L 62.063236 249.769171 
L 62.246656 249.911017 
L 62.307797 249.414555 
L 62.430077 250.868482 
L 62.491217 251.684098 
L 62.674638 250.797558 
L 62.796918 252.393331 
L 62.919199 254.166411 
L 63.102619 252.677025 
L 63.2249 256.36503 
L 63.34718 254.698336 
L 63.591741 252.180563 
L 63.714022 250.974866 
L 63.958582 250.230172 
L 64.080863 248.811707 
L 64.203143 250.194712 
L 64.386564 249.911017 
L 64.569985 247.201752 
L 64.631125 246.506705 
L 64.814545 247.145015 
L 65.059106 252.712485 
L 65.364807 251.662821 
L 65.425948 250.974866 
L 65.487088 251.684098 
L 65.670508 251.896869 
L 65.792789 249.485477 
L 65.853929 250.194712 
L 66.09849 247.215936 
L 66.22077 248.584753 
L 66.343051 251.003234 
L 66.587612 250.762098 
L 66.648752 252.109638 
L 66.709892 251.684098 
L 66.954453 250.762098 
L 67.015593 250.974866 
L 67.199014 254.946566 
L 67.504715 253.145116 
L 67.626995 254.86855 
L 67.932696 256.010414 
L 68.054977 257.003338 
L 68.299538 256.294109 
L 68.482958 258.98919 
L 68.666379 257.570727 
L 68.727519 258.514006 
L 68.8498 258.244495 
L 68.91094 257.209017 
L 69.094361 257.287033 
L 69.338921 259.691331 
L 69.522342 259.308346 
L 69.705763 261.081424 
L 69.766903 260.017575 
L 69.950324 259.131038 
L 70.072604 259.698421 
L 70.194884 256.5778 
L 70.378305 255.868568 
L 70.439445 255.93949 
L 70.500586 256.116801 
L 70.561726 257.393419 
L 70.622866 256.712555 
L 70.806287 257.357954 
L 70.867427 256.435955 
L 70.989707 259.414727 
L 71.050847 258.634572 
L 71.295408 257.4998 
L 71.356549 256.882769 
L 71.417689 254.95366 
L 71.478829 255.762182 
L 71.84567 257.854419 
L 71.90681 258.95373 
L 72.090231 259.131038 
L 72.212512 258.634572 
L 72.334792 260.123962 
L 72.579353 259.840267 
L 72.640493 260.336729 
L 72.701633 260.081406 
L 72.762773 259.840267 
L 72.946194 259.6275 
L 73.374176 258.067189 
L 73.557596 264.308432 
L 73.618737 263.691398 
L 73.802157 263.51409 
L 73.924438 265.797818 
L 73.985578 265.514126 
L 74.046718 264.343894 
L 74.230139 263.66303 
L 74.291279 264.272969 
L 74.4747 261.258732 
L 74.65812 261.322563 
L 74.902681 258.98919 
L 75.086102 259.131038 
L 75.147242 259.875729 
L 75.208382 258.315418 
L 75.269522 259.485652 
L 75.330663 260.478576 
L 75.758644 257.357954 
L 76.003205 255.90403 
L 76.186626 257.067171 
L 76.370046 257.641648 
L 76.431186 259.379267 
L 76.492327 258.599111 
L 76.614607 257.0388 
L 76.798028 257.145186 
L 76.859168 256.974972 
L 77.042589 262.038888 
L 77.226009 261.86158 
L 77.34829 259.953745 
L 77.47057 261.187811 
L 77.653991 261.081424 
L 77.715131 261.43604 
L 77.776271 261.22327 
L 77.898552 260.76227 
L 78.081972 261.542426 
L 78.204253 258.528189 
L 78.265393 258.797696 
L 78.509954 258.797696 
L 78.693374 260.726808 
L 78.754515 260.599147 
L 78.999076 259.946654 
L 79.182496 256.826032 
L 79.365917 256.684184 
L 79.549337 255.340188 
L 79.610478 254.614647 
L 79.793898 254.130949 
L 80.038459 256.081338 
L 80.28302 254.723866 
L 80.466441 256.120344 
L 80.649861 257.953712 
L 80.833282 256.861492 
L 80.894422 257.532428 
L 81.138983 257.407602 
L 81.200123 257.914705 
L 81.322404 255.379197 
L 81.505824 255.605443 
L 81.628105 258.421803 
L 81.689245 256.627447 
L 81.750385 255.769276 
L 81.933806 255.394802 
L 81.994946 257.05653 
L 82.056086 255.418204 
L 82.117227 255.69126 
L 82.178367 255.987719 
L 82.361787 255.925307 
L 82.545208 253.935912 
L 82.606348 253.974919 
L 82.850909 254.443011 
L 82.912049 254.013927 
L 82.97319 254.443011 
L 83.03433 253.428809 
L 83.21775 253.077742 
L 83.278891 252.063536 
L 83.340031 252.180563 
L 83.401171 252.648654 
L 83.462311 252.258578 
L 83.645732 252.258578 
L 83.829153 250.425209 
L 83.890293 250.191165 
L 84.073713 250.074142 
L 84.134854 250.698266 
L 84.195994 250.308187 
L 84.257134 250.534433 
L 84.318274 250.050737 
L 84.501695 249.676263 
L 84.623975 248.981926 
L 84.685116 249.044335 
L 84.929676 250.222373 
L 84.990817 249.996127 
L 85.051957 249.76208 
L 85.113097 248.786883 
L 85.357658 248.591845 
L 85.479938 247.733675 
L 85.602219 249.816691 
L 85.785639 249.520232 
L 85.84678 249.840096 
L 85.90792 250.877702 
L 86.0302 249.918111 
L 86.213621 250.635854 
L 86.458182 248.864899 
L 86.641602 248.529433 
L 86.702743 248.974123 
L 86.763883 248.287585 
L 86.825023 248.864899 
L 86.886163 247.874103 
L 87.069584 247.889706 
L 87.130724 248.045735 
L 87.191864 248.630854 
L 87.314145 247.257781 
L 87.497565 247.811691 
L 87.558706 249.528032 
L 87.619846 249.075543 
L 87.680986 248.474823 
L 87.925547 249.840096 
L 88.047827 248.90391 
L 88.170108 249.528032 
L 88.414669 250.191165 
L 88.536949 249.301789 
L 88.598089 249.372002 
L 88.84265 249.450017 
L 88.964931 251.525229 
L 89.026071 250.230172 
L 89.209492 250.222373 
L 89.331772 251.595445 
L 89.392912 251.12735 
L 89.454052 251.478422 
L 89.637473 250.620252 
L 89.759753 251.868498 
L 90.065455 250.542237 
L 90.126595 249.457819 
L 90.187735 249.894706 
L 90.248875 249.76208 
L 90.310015 250.089744 
L 90.493436 250.386202 
L 90.554576 248.669861 
L 90.615716 249.645055 
L 90.737997 248.911709 
L 90.982558 248.786883 
L 91.043698 249.395407 
L 91.165978 248.552838 
L 91.349399 248.669861 
L 91.838521 253.350795 
L 91.899661 252.102544 
L 92.021941 253.600443 
L 92.205362 255.262174 
L 92.327643 257.914705 
L 92.449923 255.69126 
L 92.633344 254.950113 
L 92.694484 252.960714 
L 92.755624 253.350795 
L 92.816764 253.350795 
L 92.877904 255.535231 
L 93.122465 256.74447 
L 93.305886 253.272779 
L 93.489307 252.765676 
L 93.733867 250.152156 
L 93.917288 249.395407 
L 93.978428 249.504627 
L 94.039569 250.596845 
L 94.100709 250.035134 
L 94.161849 249.559239 
L 94.40641 249.05994 
L 94.589831 251.220971 
L 94.834391 251.002524 
L 94.895532 251.852896 
L 94.956672 251.837294 
L 95.017812 250.308187 
L 95.262373 250.074142 
L 95.323513 248.833695 
L 95.384653 249.348596 
L 95.445794 249.645055 
L 95.690354 248.646456 
L 95.751495 249.567039 
L 95.812635 249.395407 
L 96.057196 249.176964 
L 96.118336 249.254979 
L 96.179476 249.918111 
L 96.301757 247.382606 
L 96.546317 247.686865 
L 96.607458 247.577644 
L 96.668598 247.788286 
L 96.729738 248.474823 
L 96.913159 249.06774 
L 97.096579 251.868498 
L 97.15772 251.439415 
L 97.34114 251.478422 
L 97.524561 248.474823 
L 97.585701 248.747876 
L 97.769122 248.747876 
L 97.830262 248.958519 
L 97.891402 250.877702 
L 97.952542 249.76208 
L 98.013683 250.76068 
L 98.258243 251.946513 
L 98.319384 252.648654 
L 98.380524 250.557838 
L 98.441664 251.353596 
L 98.625085 249.980523 
L 98.686225 250.916711 
L 98.747365 250.901107 
L 98.808505 250.971319 
L 99.053066 252.406806 
L 99.114206 252.250775 
L 99.297627 254.482018 
L 99.603328 253.740871 
L 99.725609 252.102544 
L 99.970169 252.21957 
L 100.03131 252.648654 
L 100.337011 250.932312 
L 100.398151 251.080543 
L 100.581572 249.996127 
L 100.764992 249.137955 
L 100.826133 249.450017 
L 100.887273 249.16916 
L 100.948413 249.231574 
L 101.009553 247.616653 
L 101.192974 247.538637 
L 101.254114 247.304591 
L 101.437535 248.942917 
L 101.620955 248.279785 
L 101.682096 247.421613 
L 101.804376 247.515232 
L 102.110077 249.05994 
L 102.232357 248.529433 
L 102.293498 247.382606 
L 102.476918 247.429413 
L 102.599199 249.801089 
L 102.660339 249.395407 
L 102.9049 249.254979 
L 103.08832 245.65066 
L 103.149461 245.74428 
L 103.394022 244.815893 
L 103.760863 246.25138 
L 103.822003 247.65566 
L 103.883143 247.3436 
L 103.944284 245.939318 
L 104.005424 246.516633 
L 104.188844 244.831497 
L 104.249985 245.385408 
L 104.311125 244.535038 
L 104.372265 245.276186 
L 104.433405 245.065545 
L 104.616826 245.549239 
L 104.677966 244.808095 
L 104.739106 245.237177 
L 104.800247 246.235776 
L 104.861387 245.978327 
L 105.167088 244.300992 
L 105.289368 243.013734 
L 105.472789 242.256985 
L 105.533929 241.188173 
L 105.71735 243.130757 
L 105.961911 242.303795 
L 106.023051 242.662665 
L 106.084191 242.475428 
L 106.145331 241.570449 
L 106.328752 241.102355 
L 106.451032 242.068967 
L 106.573313 244.338049 
L 106.756733 243.854743 
L 106.817874 244.575608 
L 107.001294 242.142692 
L 107.184715 244.911465 
L 107.245855 244.288899 
L 107.306995 243.985809 
L 107.368136 244.379007 
L 107.429276 243.355053 
L 107.612696 244.19879 
L 107.734977 242.69153 
L 107.857257 243.797401 
L 108.040678 243.510693 
L 108.162958 245.124446 
L 108.285239 243.887511 
L 108.468659 243.895701 
L 108.65208 245.394771 
L 109.018921 242.740681 
L 109.446903 246.869263 
L 109.508043 246.230314 
L 109.569183 246.467873 
L 109.813744 245.378388 
L 109.874884 246.648089 
L 109.936025 246.590748 
L 110.425146 242.822596 
L 110.608567 242.89632 
L 110.730847 244.03496 
L 110.853128 240.938525 
L 111.097689 240.520749 
L 111.158829 239.341152 
L 111.219969 240.070207 
L 111.281109 240.856602 
L 111.58681 238.235284 
L 111.709091 239.627858 
L 111.892512 239.87361 
L 111.953652 239.627858 
L 112.075932 237.702826 
L 112.137072 239.41488 
L 112.381633 240.979479 
L 112.442773 241.82322 
L 112.503914 241.552894 
L 112.565054 240.57809 
L 112.809615 240.569897 
L 112.931895 239.586905 
L 112.993035 240.356913 
L 113.176456 239.988293 
L 113.237596 240.234043 
L 113.359877 241.593851 
L 113.604438 241.503746 
L 113.665578 240.676393 
L 113.726718 241.38906 
L 113.787858 240.258618 
L 113.848998 240.897564 
L 114.032419 240.586284 
L 114.21584 242.552273 
L 114.460401 240.496176 
L 114.582681 241.233421 
L 114.704961 242.167267 
L 114.949522 241.946091 
L 115.071803 242.945472 
L 115.132943 242.765254 
L 115.316364 242.945472 
L 115.377504 243.412395 
L 115.438644 243.068348 
L 115.560924 239.955525 
L 115.744345 240.635432 
L 115.927766 238.644865 
L 115.988906 239.480408 
L 116.233467 238.694013 
L 116.294607 239.259238 
L 116.355747 238.906997 
L 116.416888 238.087834 
L 116.600308 239.013485 
L 116.661448 238.661245 
L 116.722589 238.972532 
L 116.844869 237.06388 
L 117.08943 237.022919 
L 117.15057 237.498035 
L 117.21171 237.21133 
L 117.272851 237.317819 
L 117.456271 238.603904 
L 117.517411 237.784741 
L 117.639692 238.808695 
L 117.700832 238.72678 
L 117.884253 238.251664 
L 117.945393 238.612099 
L 118.006533 238.128794 
L 118.067673 238.988912 
L 118.128814 238.833276 
L 118.373374 238.120601 
L 118.434515 236.687065 
L 118.495655 236.932818 
L 118.556795 237.375159 
L 118.740216 237.506228 
L 118.862496 236.605151 
L 119.229337 233.811801 
L 119.290478 234.016592 
L 119.412758 235.433747 
L 119.596179 234.794802 
L 119.657319 234.958631 
L 119.779599 236.392167 
L 119.84074 235.532042 
L 120.02416 236.023546 
L 120.0853 236.719834 
L 120.146441 236.187376 
L 120.207581 235.663111 
L 120.268721 236.539616 
L 120.452142 236.801748 
L 120.513282 237.293244 
L 120.635562 236.228337 
L 120.696703 236.785368 
L 120.880123 236.080886 
L 121.002404 237.743787 
L 121.124684 236.269291 
L 121.369245 236.220142 
L 121.736086 234.467135 
L 121.980647 236.080886 
L 122.164068 236.269291 
L 122.286348 234.573623 
L 122.408629 234.614584 
L 122.592049 234.696499 
L 122.83661 230.739939 
L 123.020031 231.149521 
L 123.081171 229.789713 
L 123.142311 230.412272 
L 123.203451 230.698986 
L 123.264592 230.658025 
L 123.509153 231.149521 
L 123.692573 227.176581 
L 123.875994 227.414139 
L 123.998274 228.012124 
L 124.120555 226.685085 
L 124.303975 226.988171 
L 124.426256 226.111666 
L 124.731957 227.627124 
L 124.793097 226.316457 
L 124.854237 226.439333 
L 124.976518 226.767 
L 125.343359 224.620791 
L 125.404499 226.554016 
L 125.7102 223.736099 
L 125.771341 223.818014 
L 126.015901 225.046759 
L 126.077042 224.407812 
L 126.199322 227.176581 
L 126.260462 230.453234 
L 126.443883 230.338551 
L 126.566163 230.617063 
L 126.688444 232.124327 
L 126.871864 232.058794 
L 127.055285 228.077659 
L 127.116425 228.208729 
L 127.360986 227.831915 
L 127.483267 229.142574 
L 127.544407 230.125567 
L 127.727827 230.043652 
L 127.850108 229.634071 
L 127.972388 226.881683 
L 128.155809 225.554635 
L 128.216949 223.195448 
L 128.278089 224.915689 
L 128.33923 223.850781 
L 128.40037 225.145053 
L 128.58379 223.916309 
L 128.644931 224.063758 
L 128.828351 227.700846 
L 129.011772 225.489107 
L 129.072912 222.589269 
L 129.134052 223.834394 
L 129.256333 222.884168 
L 129.439753 225.374426 
L 129.500894 224.522494 
L 129.562034 224.882921 
L 129.623174 226.767 
L 129.684314 226.554016 
L 129.928875 224.555263 
L 129.990015 222.753099 
L 130.051156 222.802253 
L 130.112296 224.555263 
L 130.295716 224.555263 
L 130.417997 224.391425 
L 130.479137 222.753099 
L 130.723698 223.473967 
L 130.784838 222.179688 
L 130.845978 223.392046 
L 130.968259 219.804113 
L 131.15168 219.017716 
L 131.27396 221.688192 
L 131.3351 223.080766 
L 131.39624 221.475206 
L 131.579661 223.490347 
L 131.701941 221.000091 
L 131.763082 222.589269 
L 131.824222 225.095907 
L 132.007643 224.686325 
L 132.068783 222.835013 
L 132.129923 223.981843 
L 132.191063 223.195448 
L 132.252203 223.736099 
L 132.496764 227.995744 
L 132.557904 227.176581 
L 132.619045 227.749992 
L 132.680185 227.831915 
L 132.863606 226.357418 
L 132.924746 226.521248 
L 133.108166 228.847674 
L 133.291587 229.634071 
L 133.413867 224.407812 
L 133.536148 227.749992 
L 133.780709 226.898069 
L 133.902989 224.751858 
L 133.964129 225.996985 
L 134.14755 226.209969 
L 134.20869 225.62017 
L 134.269831 226.78338 
L 134.330971 226.521248 
L 134.575532 225.702084 
L 134.636672 225.865922 
L 134.820092 221.852021 
L 135.003513 221.606269 
L 135.064653 222.261602 
L 135.186934 220.787106 
L 135.248074 221.573509 
L 135.431495 221.852021 
L 135.492635 223.818014 
L 135.553775 222.835013 
L 135.676055 221.524354 
L 135.920616 220.869028 
L 136.042897 218.165787 
L 136.104037 219.328997 
L 136.409738 218.821121 
L 136.715439 216.527461 
L 136.83772 217.346624 
L 136.89886 219.394531 
L 136.96 218.739198 
L 137.143421 218.542602 
L 137.204561 219.607516 
L 137.387982 217.264709 
L 137.571402 217.641522 
L 137.693683 217.100871 
L 137.815963 221.426059 
L 137.999384 223.16268 
L 138.060524 221.475206 
L 138.121664 222.097773 
L 138.243945 223.408433 
L 138.427365 221.491587 
L 138.488505 221.966704 
L 138.549646 223.621417 
L 138.671926 221.360525 
L 138.855347 220.885408 
L 139.038767 222.638418 
L 139.099908 221.704572 
L 139.283328 221.196687 
L 139.344468 221.27861 
L 139.466749 217.82174 
L 139.527889 218.165787 
L 139.83359 218.493454 
L 139.89473 217.969189 
L 139.955871 216.445546 
L 140.139291 216.54384 
L 140.261572 216.150645 
L 140.322712 217.215554 
L 140.383852 215.790212 
L 140.628413 214.528701 
L 140.689553 212.513559 
L 140.750693 213.578475 
L 140.811834 213.906142 
L 141.117535 211.252048 
L 141.178675 211.2029 
L 141.239815 211.432264 
L 141.423236 210.908001 
L 141.606656 207.385597 
L 141.667797 207.516666 
L 141.851217 207.516666 
L 142.034638 210.301822 
L 142.095778 207.270914 
L 142.279199 208.04093 
L 142.340339 209.941389 
L 142.401479 208.827325 
L 142.52376 206.042169 
L 142.70718 206.451751 
L 142.829461 204.977262 
L 142.951741 211.612482 
L 143.135162 209.810326 
L 143.196302 209.990535 
L 143.318582 211.268435 
L 143.379723 210.301822 
L 143.563143 209.712023 
L 143.685424 214.430405 
L 143.746564 212.431645 
L 143.807704 212.972296 
L 143.991125 210.957148 
L 144.113405 213.51294 
L 144.235686 210.236288 
L 144.663667 206.042169 
L 144.847088 205.567059 
L 144.908228 205.89472 
L 144.969368 204.829813 
L 145.091649 212.759312 
L 145.275069 209.892241 
L 145.39735 212.841226 
L 145.45849 211.448652 
L 145.51963 208.663496 
L 145.703051 212.431645 
L 145.764191 209.646489 
L 145.825331 209.679257 
L 145.886471 209.154992 
L 145.947612 212.022063 
L 146.253313 209.679257 
L 146.314453 211.071831 
L 146.559014 210.760552 
L 146.620154 212.333344 
L 146.803575 210.727784 
L 146.986995 210.678636 
L 147.170416 215.544468 
L 147.231556 214.069971 
L 147.414977 213.250808 
L 147.476117 213.97167 
L 147.598398 211.628862 
L 147.659538 208.991163 
L 147.904099 207.008783 
L 148.026379 209.073078 
L 148.087519 208.090077 
L 148.27094 208.172 
L 148.39322 207.287302 
L 148.515501 204.846193 
L 148.698921 205.288541 
L 148.943482 202.634454 
L 149.126903 203.191486 
L 149.188043 205.059177 
L 149.249183 203.781284 
L 149.616025 198.751624 
L 149.677165 198.489491 
L 149.738305 196.130297 
L 149.799445 198.997368 
L 150.044006 195.393048 
L 150.105146 196.703716 
L 150.410847 190.412541 
L 150.471988 191.133403 
L 150.533128 194.786871 
L 150.655408 188.675914 
L 150.838829 187.037588 
L 150.899969 188.266332 
L 150.961109 187.660147 
L 151.08339 195.6388 
L 151.327951 191.444684 
L 151.389091 193.050242 
L 151.450231 191.788737 
L 151.511371 190.756588 
L 151.694792 190.494458 
L 151.755932 190.183171 
L 151.878213 195.212839 
L 152.183914 196.048382 
L 152.245054 196.621793 
L 152.550755 189.003581 
L 152.611895 190.183171 
L 152.673035 191.510218 
L 152.734176 188.675914 
L 152.795316 191.805117 
L 153.406718 202.437858 
L 153.528998 197.178826 
L 153.590139 199.2595 
L 153.651279 196.670948 
L 153.89584 195.229219 
L 154.01812 201.372942 
L 154.07926 200.045897 
L 154.262681 201.766144 
L 154.323821 200.013128 
L 154.384961 203.257021 
L 154.446102 201.045276 
L 154.507242 199.750996 
L 154.690663 200.193346 
L 154.751803 199.718236 
L 154.935223 205.567059 
L 155.118644 207.02517 
L 155.179784 206.287921 
L 155.240924 203.338936 
L 155.302065 205.02641 
L 155.363205 203.076803 
L 155.546626 203.388084 
L 155.791186 198.358422 
L 156.035747 197.670328 
L 156.158028 195.442203 
L 156.219168 195.6388 
L 156.463729 194.082389 
L 156.524869 195.212839 
L 156.647149 191.657668 
L 156.83057 191.952566 
L 157.319692 182.958158 
L 157.380832 185.530331 
L 157.441972 185.284578 
L 157.503112 184.432655 
L 157.686533 185.481182 
L 157.747673 184.334346 
L 157.808814 187.742068 
L 157.869954 187.545465 
L 157.931094 186.873758 
L 158.175655 182.548577 
L 158.236795 179.435755 
L 158.297935 182.188143 
L 158.359076 179.353834 
L 158.542496 180.353213 
L 158.664777 178.092328 
L 158.725917 179.255538 
L 158.787057 183.433275 
L 159.031618 184.907758 
L 159.215039 182.53219 
L 159.52074 178.845956 
L 159.58188 178.354453 
L 159.826441 180.074701 
L 159.948721 178.436375 
L 160.071002 180.484282 
L 160.376703 178.518296 
L 160.498983 174.340559 
L 160.682404 175.12696 
L 160.804684 179.74704 
L 160.865824 183.121989 
L 160.926965 182.20453 
L 161.354946 177.53529 
L 161.538367 179.058934 
L 161.599507 178.780421 
L 161.721787 175.536542 
L 161.782928 176.961878 
L 162.088629 178.272545 
L 162.149769 178.190622 
L 162.210909 176.863583 
L 162.39433 176.388467 
L 162.51661 177.928497 
L 163.005732 166.542123 
L 163.066872 170.195595 
L 163.250293 172.522015 
L 163.494854 167.934697 
L 163.678274 169.835162 
L 163.800555 175.6676 
L 163.922835 184.580098 
L 164.167396 184.334346 
L 164.228536 182.597725 
L 164.350817 189.495077 
L 164.534237 186.382254 
L 164.595378 187.053974 
L 164.778798 194.819637 
L 164.962219 195.737102 
L 165.084499 187.578238 
L 165.20678 194.278986 
L 165.512481 185.890764 
L 165.634761 182.20453 
L 165.818182 184.088595 
L 165.879322 186.136503 
L 165.940462 184.268813 
L 166.062743 188.02058 
L 166.246163 186.972053 
L 166.307304 187.692921 
L 166.429584 182.69602 
L 166.490724 183.760935 
L 166.674145 183.924764 
L 166.735285 179.828949 
L 166.796425 180.254918 
L 167.102126 180.074701 
L 167.224407 186.087355 
L 167.285547 185.399261 
L 167.346687 180.123849 
L 167.591248 181.221524 
L 167.652388 178.436375 
L 167.713529 178.927877 
L 168.01923 174.340559 
L 168.08037 175.290791 
L 168.14151 173.373953 
L 168.20265 177.20763 
L 168.386071 178.108714 
L 168.447211 179.828949 
L 168.569492 177.043801 
L 168.875193 179.173616 
L 168.936333 182.777942 
L 168.997473 181.303446 
L 169.058613 182.138995 
L 169.486595 177.53529 
L 169.731156 178.403613 
L 169.792296 177.781041 
L 169.853436 175.978885 
L 169.914576 178.665739 
L 170.220277 173.652465 
L 170.281418 176.388467 
L 170.342558 170.981985 
L 170.525978 172.489255 
L 170.709399 177.944872 
L 170.770539 176.863583 
L 170.95396 175.978885 
L 171.07624 169.867923 
L 171.137381 174.17673 
L 171.198521 173.701613 
L 171.381941 170.981985 
L 171.626502 178.518296 
L 171.809923 180.009166 
L 171.871063 182.892624 
L 171.932203 180.811943 
L 171.993344 180.074701 
L 172.054484 177.53529 
L 172.299045 177.125709 
L 172.421325 181.287059 
L 172.482465 179.828949 
L 172.665886 181.057693 
L 172.727026 183.924764 
L 172.788166 183.466036 
L 172.910447 180.811943 
L 173.093867 180.746421 
L 173.338428 189.331248 
L 173.76641 184.023074 
L 173.949831 185.31734 
L 174.072111 190.035728 
L 174.133251 185.907139 
L 174.194391 187.52909 
L 174.561233 183.760935 
L 174.622373 186.054595 
L 174.805794 184.973293 
L 174.866934 187.447169 
L 174.989214 181.696641 
L 175.050354 182.499429 
L 175.233775 182.286438 
L 175.294915 179.697881 
L 175.356055 180.910251 
L 175.417196 182.958158 
L 175.661757 179.419367 
L 175.722897 179.583198 
L 175.906317 171.080293 
L 176.089738 170.293891 
L 176.150878 170.490495 
L 176.273159 178.059555 
L 176.334299 177.289551 
L 176.51772 176.978266 
L 176.64 174.635458 
L 176.70114 176.798048 
L 176.76228 175.602065 
L 177.006841 176.666979 
L 177.067982 176.388467 
L 177.129122 173.521396 
L 177.190262 175.733133 
L 177.373683 183.482423 
L 177.434823 182.614111 
L 177.495963 183.040068 
L 177.618243 188.102503 
L 177.801664 189.658906 
L 177.862804 185.399261 
L 177.923945 189.822744 
L 177.985085 189.658906 
L 178.046225 188.02058 
L 178.290786 186.546085 
L 178.413066 188.823363 
L 178.474206 185.481182 
L 178.657627 184.678394 
L 178.841048 195.06539 
L 178.902188 192.083636 
L 179.085609 192.771729 
L 179.207889 199.374183 
L 179.330169 192.6079 
L 179.51359 193.590893 
L 179.635871 196.376049 
L 179.758151 191.297233 
L 179.941572 190.789356 
L 180.186133 183.924764 
L 180.369553 180.648112 
L 180.491834 180.762795 
L 180.552974 181.467275 
L 180.614114 179.845337 
L 180.797535 182.401121 
L 180.858675 181.975166 
L 180.919815 180.189384 
L 180.980955 180.582579 
L 181.042096 182.220905 
L 181.225516 183.072841 
L 181.653498 190.33062 
L 181.836918 178.927877 
L 181.898059 181.778562 
L 182.142619 177.91211 
L 182.20376 178.026793 
L 182.2649 181.303446 
L 182.32604 178.845956 
L 182.509461 179.861723 
L 182.631741 175.765908 
L 182.692881 177.699133 
L 182.754022 179.091708 
L 182.937442 180.484282 
L 183.120863 183.334967 
L 183.182003 183.351353 
L 183.487704 181.024933 
L 183.548844 183.482423 
L 183.609985 181.205149 
L 184.037966 186.333107 
L 184.343667 185.071601 
L 184.465948 186.873758 
L 184.649368 187.856751 
L 184.710508 191.133403 
L 184.771649 190.117643 
L 184.832789 187.840364 
L 184.893929 189.560612 
L 185.07735 189.937425 
L 185.13849 188.839743 
L 185.26077 193.590893 
L 185.321911 192.263847 
L 185.505331 194.901552 
L 185.688752 189.495077 
L 185.749892 190.478069 
L 185.933313 189.986573 
L 186.055593 193.754722 
L 186.177874 189.085495 
L 186.361294 188.266332 
L 186.422435 190.084876 
L 186.483575 187.889512 
L 186.544715 189.576992 
L 186.605855 187.971433 
L 186.789276 187.28334 
L 186.850416 185.071601 
L 186.911556 186.333107 
L 186.972696 186.054595 
L 187.033837 183.351353 
L 187.217257 186.791835 
L 187.278398 185.972672 
L 187.339538 185.350113 
L 187.400678 179.04256 
L 187.461818 183.105601 
L 187.828659 189.46231 
L 187.8898 186.791835 
L 188.134361 185.808843 
L 188.195501 187.742068 
L 188.256641 184.82585 
L 188.317781 185.628625 
L 188.501202 188.233571 
L 188.684622 185.382875 
L 188.745763 189.003581 
L 189.051464 185.890764 
L 189.173744 186.85737 
L 189.357165 184.98968 
L 189.418305 185.874377 
L 189.479445 184.580098 
L 189.601726 180.484282 
L 189.785146 179.681506 
L 189.907427 180.648112 
L 189.968567 179.648733 
L 190.029707 179.665119 
L 190.213128 181.287059 
L 190.274268 178.977026 
L 190.335408 181.188763 
L 190.396549 178.862343 
L 190.457689 178.993399 
L 190.641109 181.696641 
L 190.70225 184.465415 
L 190.76339 182.368361 
L 190.88567 183.760935 
L 191.130231 184.285199 
L 191.191371 185.31734 
L 191.252512 184.98968 
L 191.313652 184.85861 
L 191.619353 181.729414 
L 191.741633 188.610379 
L 191.925054 185.956286 
L 192.108475 189.478697 
L 192.169615 189.773589 
L 192.414176 188.217184 
L 192.964438 178.125089 
L 193.025578 179.20639 
L 193.208998 179.386607 
L 193.392419 174.438855 
L 193.453559 178.387226 
L 193.63698 177.273165 
L 193.820401 180.009166 
L 193.881541 177.256778 
L 194.126102 180.648112 
L 194.187242 179.517676 
L 194.248382 180.058314 
L 194.309522 180.943012 
L 194.554083 181.303446 
L 194.615223 181.942391 
L 194.737504 177.125709 
L 194.920924 177.846575 
L 195.348906 184.776702 
L 195.532327 180.140236 
L 195.776888 182.53219 
L 195.838028 182.630487 
L 195.899168 183.482423 
L 195.960308 181.811323 
L 196.021448 182.548577 
L 196.204869 182.368361 
L 196.632851 177.781041 
L 196.693991 179.157241 
L 196.877411 176.388467 
L 197.060832 177.781041 
L 197.244253 175.896964 
L 197.549954 175.323551 
L 197.733374 171.244124 
L 197.916795 170.572404 
L 197.977935 170.818154 
L 198.161356 172.079674 
L 198.528197 168.671952 
L 198.589337 172.866062 
L 198.772758 173.406713 
L 198.833898 174.91397 
L 199.017319 170.424961 
L 199.20074 171.555409 
L 199.26188 170.785394 
L 199.4453 172.931597 
L 199.628721 172.702233 
L 199.689861 174.553536 
L 200.117843 164.264849 
L 200.301263 166.050631 
L 200.545824 166.64043 
L 200.606965 165.591903 
L 200.729245 159.874135 
L 200.912666 160.48032 
L 201.034946 156.64663 
L 201.157227 161.512461 
L 201.524068 154.598722 
L 201.585208 150.552066 
L 201.768629 150.502907 
L 201.829769 151.076331 
L 201.890909 150.175246 
L 201.952049 152.812953 
L 202.01319 152.436132 
L 202.19661 156.286208 
L 202.25775 155.909388 
L 202.318891 163.167174 
L 202.380031 159.235189 
L 202.624592 159.530088 
L 202.808012 156.204287 
L 202.869153 155.94215 
L 203.052573 155.647249 
L 203.174854 157.859 
L 203.297134 152.059325 
L 203.541695 151.600595 
L 203.602835 153.058704 
L 203.725116 147.717757 
L 203.908536 150.044177 
L 204.153097 160.807981 
L 204.336518 160.906288 
L 204.397658 157.531328 
L 204.581079 162.446307 
L 204.825639 167.951083 
L 205.00906 160.64415 
L 205.192481 159.513701 
L 205.253621 159.726692 
L 205.375901 170.818154 
L 205.437042 165.821267 
L 205.865023 170.605177 
L 206.048444 168.737486 
L 206.170724 172.21073 
L 206.293005 166.951704 
L 206.537565 166.755113 
L 206.720986 163.429299 
L 206.904407 165.116787 
L 207.026687 160.169033 
L 207.087827 158.596242 
L 207.148968 160.529468 
L 207.332388 157.170895 
L 207.576949 146.505399 
L 207.76037 148.20926 
L 207.82151 150.994409 
L 208.004931 144.883447 
L 208.188351 147.013277 
L 208.249492 144.293661 
L 208.310632 144.948982 
L 208.371772 148.029042 
L 208.432912 147.635836 
L 208.616333 145.915601 
L 208.677473 147.422858 
L 208.860894 139.919321 
L 209.166595 134.201565 
L 209.227735 137.232465 
L 209.288875 134.987967 
L 209.594576 145.718997 
L 209.716857 134.840511 
L 209.900277 132.64516 
L 210.083698 124.945018 
L 210.144838 126.665267 
L 210.389399 124.633746 
L 210.450539 119.505777 
L 210.51168 121.86497 
L 210.817381 130.908526 
L 210.878521 128.057842 
L 210.939661 131.13789 
L 211.000801 130.43341 
L 211.184222 130.515331 
L 211.245362 129.94192 
L 211.306502 127.566339 
L 211.428783 128.631252 
L 211.612203 126.829097 
L 211.673344 134.856899 
L 211.734484 134.185179 
L 211.795624 133.546231 
L 211.856764 131.367256 
L 212.040185 136.249473 
L 212.284746 129.565098 
L 212.468166 129.827237 
L 212.712727 122.19263 
L 212.896148 122.766043 
L 213.018428 124.142243 
L 213.140709 120.881977 
L 213.324129 116.573171 
L 213.50755 118.522783 
L 213.56869 116.130828 
L 213.752111 116.769775 
L 213.874391 115.721246 
L 213.935532 112.559277 
L 213.996672 116.278272 
L 214.180092 116.147214 
L 214.302373 125.583966 
L 214.363513 121.439002 
L 214.424653 121.7339 
L 214.669214 116.818922 
L 214.852635 139.624422 
L 215.097196 148.356702 
L 215.280616 137.412683 
L 215.464037 141.950853 
L 215.525177 137.986095 
L 215.586317 140.181459 
L 215.647458 139.804638 
L 215.708598 135.446696 
L 215.892018 132.170044 
L 216.014299 136.249473 
L 216.136579 131.776837 
L 216.32 127.730181 
L 216.503421 115.131449 
L 216.564561 120.275792 
L 216.809122 115.164209 
L 216.870262 116.589558 
L 216.931402 109.92157 
L 216.992542 114.066533 
L 217.175963 113.329292 
L 217.298243 105.858516 
L 217.359384 107.283864 
L 217.420524 98.354991 
L 217.603945 106.022358 
L 217.665085 101.861008 
L 217.726225 103.564869 
L 217.787365 102.778467 
L 217.848505 104.990204 
L 218.154206 98.158387 
L 218.215347 102.13952 
L 218.276487 96.094093 
L 218.459908 105.92405 
L 218.582188 100.746946 
L 218.643328 117.392334 
L 218.887889 116.556796 
L 219.13245 97.191781 
L 219.315871 97.339224 
L 219.866133 77.269727 
L 219.927273 73.10839 
L 219.988413 76.630781 
L 220.171834 78.793359 
L 220.232974 66.653379 
L 220.294114 68.586593 
L 220.599815 58.789408 
L 220.783236 68.635741 
L 220.844376 73.812857 
L 221.027797 65.834216 
L 221.272357 85.363062 
L 221.455778 81.988115 
L 221.578059 65.44101 
L 221.700339 67.292326 
L 221.88376 74.648395 
L 221.9449 72.338373 
L 222.00604 64.589073 
L 222.06718 69.389381 
L 222.434022 52.154182 
L 222.862003 72.354748 
L 222.923143 67.210405 
L 222.984284 73.993074 
L 223.167704 74.746716 
L 223.228844 69.995555 
L 223.289985 81.2017 
L 223.351125 79.137417 
L 223.412265 68.422775 
L 223.595686 71.601107 
L 223.656826 62.52479 
L 223.717966 66.604231 
L 223.779106 64.605471 
L 223.840247 67.931272 
L 224.023667 63.360329 
L 224.084807 67.685508 
L 224.145948 60.902839 
L 224.207088 63.409475 
L 224.268228 64.572698 
L 224.451649 70.601728 
L 224.512789 60.44411 
L 224.573929 68.258932 
L 224.635069 73.43605 
L 224.69621 70.372362 
L 224.94077 65.146122 
L 225.001911 60.067301 
L 225.063051 72.960921 
L 225.307612 79.104644 
L 225.491032 100.206295 
L 225.552173 91.375718 
L 225.735593 86.444351 
L 225.796733 90.081438 
L 225.980154 111.674579 
L 226.163575 109.970718 
L 226.285855 106.415553 
L 226.408136 114.951231 
L 226.591556 109.413693 
L 226.652696 111.346918 
L 226.713837 118.096814 
L 226.774977 96.569209 
L 226.836117 107.365786 
L 227.019538 106.546622 
L 227.080678 121.275172 
L 227.141818 116.982753 
L 227.202958 109.069647 
L 227.264099 118.948751 
L 227.5698 122.028801 
L 227.63094 111.592658 
L 227.69208 114.132068 
L 227.875501 116.999139 
L 227.936641 119.86621 
L 228.058921 101.861008 
L 228.120062 105.711073 
L 228.303482 111.232236 
L 228.486903 99.845861 
L 228.548043 103.794233 
L 228.792604 111.674579 
L 228.853744 120.128349 
L 228.914884 117.621698 
L 229.159445 108.037493 
L 229.281726 126.10823 
L 229.342866 122.520304 
L 229.404006 114.000999 
L 229.587427 118.506396 
L 229.648567 128.877005 
L 229.831988 96.913256 
L 230.015408 95.455145 
L 230.259969 112.608425 
L 230.62681 132.97282 
L 230.687951 143.392577 
L 230.871371 150.978023 
L 230.932512 148.520533 
L 231.115932 181.385367 
L 231.299353 178.813195 
L 231.360493 154.959156 
L 231.421633 167.017239 
L 231.482773 184.563712 
L 231.543914 175.028653 
L 231.788475 163.904416 
L 231.971895 187.758454 
L 232.155316 180.648112 
L 232.216456 183.744548 
L 232.338737 166.214462 
L 232.399877 166.525747 
L 232.644438 158.661776 
L 232.827858 169.556649 
L 233.011279 162.348011 
L 233.1947 176.617831 
L 233.25584 165.706584 
L 233.43926 170.080914 
L 233.500401 170.015379 
L 233.561541 169.261751 
L 233.683821 188.921666 
L 234.111803 167.344911 
L 234.356364 175.847816 
L 234.539784 189.937425 
L 234.723205 185.235432 
L 234.784345 185.677773 
L 234.906626 170.13006 
L 234.967766 179.009785 
L 235.151186 171.899456 
L 235.212327 173.980125 
L 235.273467 172.980745 
L 235.334607 173.390326 
L 235.395747 180.107462 
L 235.579168 172.980745 
L 235.701448 180.402361 
L 235.823729 175.58569 
L 236.007149 172.833302 
L 236.12943 175.3727 
L 236.435131 164.264849 
L 236.496271 154.303824 
L 236.557411 156.31897 
L 236.679692 158.940289 
L 236.863112 163.740586 
L 237.046533 174.07842 
L 237.107673 169.638558 
L 237.535655 175.815056 
L 237.841356 165.411686 
L 237.902496 167.705333 
L 237.963636 164.10102 
L 238.147057 174.602698 
L 238.208197 171.817535 
L 238.391618 167.869175 
L 238.575039 166.738727 
L 238.636179 162.446307 
L 238.758459 176.306545 
L 238.819599 174.537163 
L 239.06416 176.437615 
L 239.247581 186.480563 
L 239.431002 186.791835 
L 239.492142 195.737102 
L 239.553282 194.917939 
L 239.614422 194.262606 
L 239.675562 198.292887 
L 239.858983 198.538638 
L 239.920123 206.337069 
L 239.981263 204.190865 
L 240.042404 203.240633 
L 240.103544 203.535533 
L 240.348105 207.975396 
L 240.714946 193.885791 
L 240.959507 182.581338 
L 241.142928 184.104982 
L 241.204068 181.057693 
L 241.265208 181.254297 
L 241.326348 181.156003 
L 241.570909 188.741448 
L 241.632049 188.135263 
L 241.69319 191.755969 
L 241.75433 181.303446 
L 241.81547 182.368361 
L 241.998891 183.82647 
L 242.121171 190.478069 
L 242.182311 182.941772 
L 242.426872 183.187524 
L 242.488012 180.615352 
L 242.549153 182.777942 
L 242.610293 182.483042 
L 242.671433 182.106222 
L 242.854854 183.056455 
L 242.915994 187.889512 
L 242.977134 187.021201 
L 243.099414 181.975166 
L 243.282835 183.302205 
L 243.343975 183.253057 
L 243.771957 163.707825 
L 243.894237 156.450039 
L 243.955378 158.366878 
L 244.199938 156.69579 
L 244.322219 166.869794 
L 244.383359 165.477207 
L 244.56678 165.542742 
L 244.68906 161.283097 
L 244.7502 163.26547 
L 244.811341 164.77274 
L 245.055901 167.623424 
L 245.239322 154.533201 
L 245.422743 152.894874 
L 245.483883 153.320829 
L 245.850724 160.382024 
L 245.973005 153.976163 
L 246.034145 155.40151 
L 246.095285 155.368737 
L 246.278706 157.121746 
L 246.339846 156.859621 
L 246.462126 164.166554 
L 246.523267 164.150168 
L 246.767827 176.437615 
L 246.828968 176.028033 
L 246.890108 176.683365 
L 246.951248 173.947364 
L 247.134669 173.226497 
L 247.684931 184.481802 
L 247.746071 182.220905 
L 247.807211 182.827089 
L 247.990632 181.958779 
L 248.235193 170.375813 
L 248.418613 168.688338 
L 248.479753 165.313378 
L 248.540894 167.80364 
L 248.602034 168.311518 
L 248.663174 164.969331 
L 248.846595 162.462693 
L 248.968875 167.59065 
L 249.091156 160.119887 
L 249.396857 150.060563 
L 249.457997 150.07695 
L 249.519137 150.093325 
L 249.702558 151.223773 
L 249.763698 149.110331 
L 249.824838 152.944021 
L 249.885978 148.897353 
L 249.947119 149.962269 
L 250.25282 155.565341 
L 250.3751 151.223773 
L 250.558521 146.259648 
L 250.741941 154.598722 
L 250.803082 151.043558 
L 250.986502 152.960396 
L 251.108783 157.187281 
L 251.169923 156.548334 
L 251.231063 158.006444 
L 251.597904 149.716517 
L 251.659045 144.75239 
L 251.842465 145.50602 
L 252.087026 138.412064 
L 252.270447 143.933226 
L 252.331587 140.181459 
L 252.392727 140.902313 
L 252.453867 143.261508 
L 252.515008 141.541272 
L 252.698428 143.04853 
L 252.759569 142.147444 
L 252.820709 142.311275 
L 252.881849 143.638328 
L 252.942989 148.520533 
L 253.12641 146.783911 
L 253.370971 129.368507 
L 253.554391 127.549964 
L 253.615532 131.793224 
L 253.676672 131.023209 
L 253.737812 130.482569 
L 253.798952 126.009934 
L 253.982373 125.567591 
L 254.043513 122.3237 
L 254.104653 124.273311 
L 254.165794 127.828477 
L 254.226934 125.583966 
L 254.532635 134.316248 
L 254.593775 140.705722 
L 254.654915 135.069876 
L 254.899476 139.100157 
L 254.960616 131.596633 
L 255.021757 131.744076 
L 255.082897 133.988588 
L 255.388598 127.615498 
L 255.510878 133.398788 
L 255.755439 130.662774 
L 255.816579 127.173144 
L 255.93886 135.594139 
L 256.12228 132.514091 
L 256.366841 138.149938 
L 256.550262 137.527366 
L 256.672542 134.217952 
L 257.039384 141.426591 
L 257.100524 141.279135 
L 257.161664 140.197846 
L 257.222804 136.790124 
L 257.406225 134.709443 
L 257.650786 127.402508 
L 257.834206 129.466804 
L 258.017627 121.914118 
L 258.323328 120.652612 
L 258.384468 123.339467 
L 258.445609 122.880724 
L 258.690169 121.602833 
L 258.87359 116.065293 
L 258.93473 119.685993 
L 259.118151 117.490642 
L 259.240431 122.290938 
L 259.362712 118.03128 
L 259.607273 118.096814 
L 259.668413 118.653852 
L 259.729553 117.703619 
L 259.790693 122.569452 
L 260.035254 126.468663 
L 260.096394 126.042695 
L 260.157535 124.715654 
L 260.218675 124.895872 
L 260.402096 130.564479 
L 260.524376 122.209017 
L 260.646656 131.236198 
L 260.830077 132.530477 
L 260.891217 132.071736 
L 260.952357 132.923672 
L 261.074638 131.97344 
L 261.380339 123.208397 
L 261.441479 126.632493 
L 261.502619 124.633746 
L 261.68604 120.898351 
L 261.869461 128.303594 
L 261.930601 123.749048 
L 262.114022 123.126476 
L 262.236302 119.276411 
L 262.297442 119.440242 
L 262.358582 120.472396 
L 262.542003 117.670859 
L 262.603143 121.078568 
L 262.664284 119.19449 
L 262.725424 119.456629 
L 262.786564 117.687233 
L 263.031125 122.061561 
L 263.153405 120.521544 
L 263.214545 126.94378 
L 263.397966 128.664027 
L 263.581387 123.945639 
L 263.642527 130.826616 
L 263.825948 131.367256 
L 264.009368 125.108849 
L 264.253929 122.766043 
L 264.37621 119.86621 
L 264.43735 121.86497 
L 264.49849 118.83407 
L 264.743051 118.227884 
L 264.804191 117.179357 
L 264.865331 123.241159 
L 264.926471 120.488769 
L 265.109892 122.99542 
L 265.232173 116.40934 
L 265.293313 118.342567 
L 265.537874 113.542269 
L 265.599014 115.000379 
L 265.782435 125.141622 
L 265.965855 126.616119 
L 266.026995 126.304832 
L 266.210416 136.315008 
L 266.577257 132.514091 
L 266.638398 136.560758 
L 266.821818 138.199084 
L 266.882958 135.774357 
L 267.066379 152.518053 
L 267.2498 146.505399 
L 267.31094 154.615109 
L 267.494361 142.278514 
L 267.800062 152.436132 
L 267.861202 145.866453 
L 267.922342 150.568441 
L 268.105763 148.438624 
L 268.166903 151.584209 
L 268.350324 142.016376 
L 268.961726 130.367888 
L 269.206287 144.981755 
L 269.389707 145.522406 
L 269.573128 156.302583 
L 269.634268 155.843854 
L 269.878829 154.942782 
L 269.939969 156.761313 
L 270.001109 148.91374 
L 270.06225 150.339076 
L 270.30681 151.977402 
L 270.367951 151.961015 
L 270.429091 151.207387 
L 270.673652 156.056831 
L 270.734792 155.15576 
L 270.918213 147.357323 
L 271.162773 136.13479 
L 271.346194 139.411443 
L 271.590755 132.677922 
L 271.651895 132.727068 
L 271.774176 135.692449 
L 271.957596 135.741595 
L 272.141017 144.015136 
L 272.202157 143.327042 
L 272.385578 144.768765 
L 272.507858 141.91808 
L 272.568998 142.000001 
L 272.630139 144.490252 
L 272.813559 144.604934 
L 272.93584 151.240162 
L 272.99698 150.37185 
L 273.363821 144.047909 
L 273.424961 141.754251 
L 273.486102 142.098298 
L 273.730663 142.737243 
L 273.791803 145.50602 
L 273.852943 140.361675 
L 273.914083 140.492731 
L 274.097504 138.362915 
L 274.158644 138.821645 
L 274.280924 140.08315 
L 274.342065 138.313767 
L 274.525485 138.051629 
L 274.647766 135.905426 
L 274.708906 138.674201 
L 274.770046 135.872653 
L 274.953467 132.710682 
L 275.014607 133.071117 
L 275.075747 134.955194 
L 275.198028 131.367256 
L 275.381448 133.644541 
L 275.80943 127.107609 
L 275.87057 127.386121 
L 276.053991 122.979033 
L 276.237411 122.389234 
L 276.298552 123.060941 
L 276.359692 126.616119 
L 276.420832 123.683514 
L 276.481972 124.551825 
L 276.665393 126.157376 
L 276.787673 130.662774 
L 276.848814 127.664646 
L 276.909954 129.810851 
L 277.276795 121.209638 
L 277.337935 117.801916 
L 277.521356 116.37658 
L 277.643636 113.116301 
L 277.765917 114.820162 
L 277.949337 113.083541 
L 278.071618 121.619219 
L 278.193898 116.229124 
L 278.377319 115.491882 
L 278.499599 118.784908 
L 278.62188 118.490023 
L 278.8053 118.637465 
L 278.866441 117.900224 
L 279.049861 106.153414 
L 279.233282 105.055739 
L 279.294422 101.566109 
L 279.355562 103.253583 
L 279.416703 106.481088 
L 279.477843 105.334251 
L 279.661263 103.646777 
L 279.722404 101.43504 
L 279.783544 104.564249 
L 279.844684 102.729319 
L 279.905824 103.663165 
L 280.089245 102.876762 
L 280.211525 99.993317 
L 280.272666 100.189908 
L 280.639507 98.912015 
L 280.700647 97.208154 
L 280.761787 98.043704 
L 281.006348 94.013423 
L 281.067488 94.472153 
L 281.128629 88.475872 
L 281.189769 92.342324 
L 281.37319 91.555934 
L 281.55661 85.576041 
L 281.61775 88.967375 
L 281.923451 85.313916 
L 281.984592 90.392724 
L 282.045732 88.328429 
L 282.229153 89.016523 
L 282.657134 105.612776 
L 282.718274 96.68389 
L 282.779414 99.059471 
L 282.840555 96.241548 
L 282.901695 99.124993 
L 283.085116 100.009691 
L 283.268536 103.695925 
L 283.329676 99.927783 
L 283.574237 94.963656 
L 283.696518 99.370745 
L 283.757658 95.242168 
L 284.002219 97.191781 
L 284.063359 100.058852 
L 284.124499 94.783438 
L 284.185639 95.307703 
L 284.4302 88.082677 
L 284.491341 95.471534 
L 284.552481 94.914496 
L 284.613621 90.245268 
L 284.797042 91.408478 
L 285.041602 103.97445 
L 285.225023 100.779706 
L 285.286163 104.416793 
L 285.469584 97.601363 
L 285.653005 95.373237 
L 285.836425 87.116071 
L 285.897565 87.984382 
L 286.080986 87.132446 
L 286.142126 87.460118 
L 286.325547 78.08889 
L 286.570108 80.366162 
L 286.631248 77.990594 
L 286.692388 81.234473 
L 286.753529 80.431685 
L 286.936949 80.546379 
L 287.12037 93.997037 
L 287.18151 93.014044 
L 287.364931 96.143241 
L 287.426071 95.356851 
L 287.548351 89.819313 
L 287.854052 92.03105 
L 288.037473 80.185946 
L 288.220894 74.550099 
L 288.465455 89.376956 
L 288.648875 88.819932 
L 288.710015 83.462599 
L 288.771156 84.740491 
L 288.832296 91.949129 
L 288.893436 89.983142 
L 289.076857 91.228262 
L 289.137997 94.603222 
L 289.199137 93.538307 
L 289.260277 90.376337 
L 289.321418 93.030431 
L 289.504838 96.061331 
L 289.749399 89.409731 
L 289.99396 89.32781 
L 290.0551 90.409099 
L 290.177381 98.420526 
L 290.360801 98.404139 
L 290.483082 99.845861 
L 290.544222 96.831346 
L 290.605362 98.174774 
L 290.972203 101.549722 
L 291.033344 100.091612 
L 291.216764 102.10676 
L 291.339045 99.43628 
L 291.400185 102.778467 
L 291.461325 101.238435 
L 291.644746 105.006591 
L 291.889307 92.11296 
L 292.133867 91.621468 
L 292.195008 91.801686 
L 292.256148 88.262895 
L 292.317288 89.852073 
L 292.500709 92.473393 
L 292.561849 95.913875 
L 292.622989 94.390232 
L 292.684129 93.554693 
L 292.74527 94.423005 
L 292.989831 90.687622 
L 293.173251 83.986861 
L 293.356672 85.674336 
L 293.417812 83.41345 
L 293.601233 93.390851 
L 293.784653 87.591187 
L 294.334915 129.909145 
L 294.396055 129.859997 
L 294.457196 121.570071 
L 294.640616 122.487529 
L 294.762897 121.111341 
L 294.885177 135.43031 
L 295.068598 129.696168 
L 295.129738 135.954574 
L 295.252018 128.090603 
L 295.313159 133.218573 
L 295.68 123.699887 
L 295.74114 130.318727 
L 295.985701 136.937567 
L 296.107982 130.842991 
L 296.352542 140.525506 
L 296.597103 131.744076 
L 296.902804 139.018248 
L 297.025085 157.695157 
L 297.208505 156.597482 
L 297.269646 149.405231 
L 297.330786 153.501047 
L 297.391926 155.041077 
L 297.453066 160.496707 
L 297.636487 163.855267 
L 297.697627 170.572404 
L 297.881048 150.961648 
L 298.064468 151.453139 
L 298.186749 149.061184 
L 298.247889 150.748657 
L 298.49245 145.40771 
L 298.55359 148.880967 
L 298.61473 146.194113 
L 298.675871 145.653462 
L 298.920431 136.151177 
L 298.981572 134.709443 
L 299.042712 135.626914 
L 299.164992 126.419515 
L 299.348413 124.633746 
L 299.409553 137.314388 
L 299.470693 134.561998 
L 299.531834 126.02632 
L 299.592974 128.074228 
L 299.776394 129.18829 
L 299.837535 124.338846 
L 299.898675 128.02508 
L 300.020955 124.797576 
L 300.204376 123.405001 
L 300.326656 125.731421 
L 300.387797 125.600352 
L 300.448937 131.711314 
L 300.693498 138.690576 
L 300.876918 149.945882 
L 301.121479 143.654703 
L 301.3049 129.696168 
L 301.48832 131.989828 
L 301.732881 138.821645 
L 301.916302 136.626293 
L 301.977442 138.543133 
L 302.099723 147.422858 
L 302.160863 147.127958 
L 302.344284 147.259027 
L 302.405424 149.388845 
L 302.466564 148.749897 
L 302.588844 145.014515 
L 302.894545 144.441104 
L 302.955686 148.061804 
L 303.016826 146.91498 
L 303.444807 133.841132 
L 303.628228 133.89028 
L 303.689368 127.664646 
L 303.872789 141.13169 
L 304.11735 139.542512 
L 304.484191 133.579006 
L 304.545331 133.80837 
L 304.606471 133.710062 
L 304.667612 128.385502 
L 304.728752 134.234327 
L 304.912173 134.545612 
L 304.973313 129.171903 
L 305.034453 129.368507 
L 305.095593 130.449796 
L 305.156733 127.304213 
L 305.340154 128.614866 
L 305.523575 120.308553 
L 305.584715 121.570071 
L 306.012696 114.033772 
L 306.257257 113.493123 
L 306.318398 111.985864 
L 306.379538 112.329913 
L 306.440678 112.329913 
L 306.624099 111.903943 
L 306.685239 112.21523 
L 307.174361 123.126476 
L 307.296641 116.37658 
L 307.541202 118.211497 
L 307.602342 117.015526 
L 307.663482 117.769154 
L 307.724622 117.621698 
L 307.908043 116.737 
L 308.030324 120.357713 
L 308.152604 127.517191 
L 308.336025 125.731421 
L 308.519445 132.448556 
L 308.580586 130.318727 
L 308.825146 128.745935 
L 308.947427 134.578385 
L 309.191988 139.051009 
L 309.253128 139.034623 
L 309.314268 138.379302 
L 309.375408 140.75487 
L 309.436549 138.395677 
L 309.619969 139.263987 
L 309.681109 140.853166 
L 309.74225 139.411443 
L 310.047951 145.096438 
L 310.231371 141.541272 
L 310.292512 138.018869 
L 310.475932 138.297381 
L 310.598213 134.807751 
L 310.720493 144.883447 
L 310.903914 147.455618 
L 311.026194 152.485293 
L 311.087334 148.602455 
L 311.148475 151.191013 
L 311.331895 152.141233 
L 311.454176 159.186041 
L 311.576456 158.973063 
L 311.759877 161.152027 
L 311.943297 156.548334 
L 312.004438 158.891142 
L 312.248998 156.941529 
L 312.371279 160.1035 
L 312.432419 164.756353 
L 312.67698 163.691438 
L 312.79926 154.516814 
L 312.860401 158.137514 
L 313.043821 155.548955 
L 313.104961 158.563482 
L 313.166102 157.760692 
L 313.227242 157.170895 
L 313.288382 151.600595 
L 313.471803 150.83058 
L 313.716364 159.513701 
L 313.899784 161.397778 
L 314.083205 155.712784 
L 314.144345 149.945882 
L 314.327766 150.15886 
L 314.388906 149.650982 
L 314.511186 146.489012 
L 314.572327 151.616968 
L 314.755747 153.501047 
L 314.816888 152.485293 
L 314.939168 157.334737 
L 315.000308 157.269202 
L 315.183729 157.269202 
L 315.367149 152.8621 
L 315.42829 153.353603 
L 315.61171 157.760692 
L 315.856271 153.304456 
L 316.039692 149.863961 
L 316.100832 150.650363 
L 316.161972 151.469526 
L 316.223112 158.416026 
L 316.284253 155.090225 
L 316.467673 153.763184 
L 316.651094 149.339697 
L 316.895655 149.863961 
L 316.956795 148.53692 
L 317.017935 148.946502 
L 317.079076 149.290548 
L 317.140216 147.930734 
L 317.323636 148.225635 
L 317.384777 147.226254 
L 317.568197 150.420998 
L 317.751618 150.060563 
L 317.996179 153.140614 
L 318.24074 152.796565 
L 318.30188 155.15576 
L 318.36302 153.632116 
L 318.607581 146.112192 
L 318.668721 146.177727 
L 318.729861 145.866453 
L 318.791002 144.899834 
L 318.852142 140.853166 
L 319.096703 142.950221 
L 319.218983 148.99565 
L 319.280123 146.505399 
L 319.524684 150.552066 
L 319.585824 154.729792 
L 319.646965 152.714657 
L 319.708105 151.518674 
L 319.952666 151.027171 
L 320.013806 151.731651 
L 320.074946 151.092706 
L 320.136086 151.158239 
L 320.319507 153.927015 
L 320.441787 151.387604 
L 320.747488 154.156379 
L 320.992049 148.1601 
L 321.17547 151.53506 
L 321.358891 157.383885 
L 321.420031 157.826227 
L 321.725732 159.038598 
L 321.786872 158.121125 
L 321.848012 158.416026 
L 322.031433 160.627763 
L 322.092573 160.267343 
L 322.153713 159.513701 
L 322.275994 165.198695 
L 322.459414 164.330384 
L 322.703975 168.901316 
L 322.887396 168.491734 
L 322.948536 167.361286 
L 323.009676 169.343659 
L 323.131957 168.016618 
L 323.376518 168.639179 
L 323.437658 168.180449 
L 323.498798 165.280616 
L 323.559938 167.475968 
L 323.743359 166.198076 
L 323.804499 168.524496 
L 323.865639 168.065766 
L 323.92678 167.115533 
L 324.232481 169.998991 
L 324.354761 166.787873 
L 324.415901 167.443207 
L 324.660462 166.509361 
L 324.782743 162.200555 
L 324.843883 164.690819 
L 325.027304 163.511221 
L 325.149584 163.855267 
L 325.271864 166.42744 
L 325.455285 167.918323 
L 325.699846 158.85838 
L 325.883267 159.513701 
L 325.944407 162.184181 
L 326.005547 161.758213 
L 326.066687 162.135033 
L 326.127827 161.479701 
L 326.311248 161.872894 
L 326.372388 162.773979 
L 326.433529 162.151408 
L 326.555809 160.283716 
L 326.80037 159.530088 
L 326.98379 156.712165 
L 327.167211 155.172146 
L 327.228351 156.351731 
L 327.289492 153.599342 
L 327.350632 155.696411 
L 327.411772 154.926396 
L 327.595193 154.664257 
L 327.656333 155.991309 
L 327.717473 155.02469 
L 327.778613 154.107233 
L 327.839753 155.696411 
L 328.023174 154.582347 
L 328.206595 156.368118 
L 328.267735 162.331624 
L 328.634576 170.326664 
L 328.695716 169.966231 
L 328.879137 168.950464 
L 329.001418 173.357566 
L 329.062558 171.866683 
L 329.123698 173.013518 
L 329.307119 173.193735 
L 329.368259 173.58693 
L 329.429399 173.308418 
L 329.55168 168.917702 
L 329.857381 170.359426 
L 329.918521 169.917083 
L 330.163082 171.178589 
L 330.224222 169.376432 
L 330.285362 170.211982 
L 330.407643 171.506249 
L 330.591063 171.227736 
L 330.652203 170.572404 
L 330.713344 172.276264 
L 330.774484 169.130681 
L 331.019045 167.033625 
L 331.141325 168.901316 
L 331.263606 172.128822 
L 331.447026 171.964991 
L 331.508166 171.309659 
L 331.630447 169.196216 
L 331.691587 169.09792 
L 331.936148 173.308418 
L 332.058428 178.551057 
L 332.119569 176.798048 
L 332.302989 180.287678 
L 332.364129 179.665119 
L 332.54755 174.635458 
L 332.730971 174.537163 
L 332.792111 173.029893 
L 332.853251 173.193735 
L 332.975532 171.801148 
L 333.158952 170.244743 
L 333.648074 156.875994 
L 333.831495 160.775219 
L 334.014915 160.332864 
L 334.137196 155.368737 
L 334.198336 160.382024 
L 334.259476 160.087125 
L 334.504037 158.022831 
L 334.565177 159.661157 
L 334.687458 155.254054 
L 334.870878 158.022831 
L 335.054299 154.271062 
L 335.115439 153.042317 
L 335.36 154.959156 
L 335.42114 154.271062 
L 335.48228 155.680024 
L 335.543421 153.550195 
L 335.726841 153.714038 
L 335.849122 150.617589 
L 335.971402 153.353603 
L 336.215963 157.760692 
L 336.277103 157.203668 
L 336.399384 156.548334 
L 336.582804 155.565341 
L 336.827365 159.562861 
L 337.010786 158.334116 
L 337.194206 160.906288 
L 337.499908 157.613249 
L 337.561048 159.087745 
L 337.622188 158.350491 
L 337.683328 153.86148 
L 337.866749 154.434891 
L 338.11131 158.710925 
L 338.29473 159.513701 
L 338.417011 161.201187 
L 338.478151 159.431793 
L 338.539291 160.414786 
L 338.783852 158.710925 
L 338.844992 158.989437 
L 338.906133 159.186041 
L 338.967273 157.48218 
L 339.150693 158.268581 
L 339.211834 157.760692 
L 339.272974 158.51432 
L 339.395254 162.380772 
L 339.578675 165.051252 
L 339.639815 169.343659 
L 339.700955 168.213222 
L 340.006656 162.544615 
L 340.067797 165.378912 
L 340.128937 164.559749 
L 340.190077 164.248462 
L 340.251217 154.500426 
L 340.495778 151.813573 
L 340.556918 154.991929 
L 340.618059 152.665497 
L 340.679199 152.32145 
L 340.862619 152.534439 
L 340.92376 149.929494 
L 340.9849 151.616968 
L 341.10718 150.86334 
L 341.412881 149.274162 
L 341.474022 147.717757 
L 341.535162 148.471385 
L 342.207704 154.664257 
L 342.329985 152.501666 
L 342.391125 153.353603 
L 342.574545 152.567201 
L 342.635686 150.928875 
L 342.696826 151.944642 
L 343.002527 150.601214 
L 343.247088 144.817924 
L 343.430508 145.096438 
L 343.613929 148.1601 
L 343.675069 145.899213 
L 343.98077 145.030903 
L 344.103051 147.897974 
L 344.347612 145.931988 
L 344.531032 148.07819 
L 344.714453 146.079431 
L 344.775593 146.341569 
L 344.836733 147.504779 
L 344.959014 142.37681 
L 345.142435 143.753011 
L 345.203575 143.08129 
L 345.386995 139.542512 
L 345.570416 139.771878 
L 345.814977 142.901074 
L 346.120678 145.014515 
L 346.181818 146.865832 
L 346.242958 144.539401 
L 346.548659 149.552687 
L 346.6098 153.025931 
L 346.67094 152.993169 
L 346.854361 152.419758 
L 346.976641 153.697651 
L 347.037781 153.386364 
L 347.098921 151.911869 
L 347.282342 150.928875 
L 347.343482 152.468906 
L 347.710324 150.732271 
L 347.893744 152.927634 
L 348.138305 153.025931 
L 348.260586 150.07695 
L 348.382866 152.714657 
L 348.566287 152.714657 
L 348.627427 155.090225 
L 348.688567 152.878488 
L 348.749707 155.499807 
L 348.810847 152.796565 
L 349.177689 155.630876 
L 349.48339 160.791605 
L 349.60567 159.693919 
L 349.66681 161.971191 
L 349.850231 162.036725 
L 350.033652 165.198695 
L 350.094792 161.709065 
L 350.278213 160.070739 
L 350.339353 162.331624 
L 350.400493 159.546474 
L 350.461633 163.232708 
L 350.522773 160.578615 
L 350.950755 154.418505 
L 351.134176 154.254675 
L 351.256456 157.531328 
L 351.317596 163.101639 
L 351.378737 162.93781 
L 351.562157 164.10102 
L 351.623297 162.069498 
L 351.684438 162.184181 
L 351.745578 164.035485 
L 351.806718 162.495455 
L 351.990139 162.708446 
L 352.051279 161.659917 
L 352.112419 164.199316 
L 352.173559 163.740586 
L 352.2347 164.051871 
L 352.41812 163.281856 
L 352.47926 163.527609 
L 352.540401 162.200555 
L 352.601541 163.560369 
L 352.662681 161.381391 
L 352.846102 161.004585 
L 353.274083 156.171527 
L 353.335223 157.891761 
L 353.396364 156.7777 
L 353.518644 152.878488 
L 353.763205 155.204908 
L 353.824345 154.877248 
L 353.946626 158.481561 
L 354.130046 157.678784 
L 354.191186 158.121125 
L 354.252327 155.761945 
L 354.313467 155.958536 
L 354.619168 153.648503 
L 354.741448 149.70013 
L 354.802589 150.240781 
L 354.986009 150.388224 
L 355.047149 150.175246 
L 355.16943 151.371229 
L 355.23057 150.994409 
L 355.413991 151.764424 
L 355.903112 145.571553 
L 355.964253 145.997509 
L 356.025393 146.308795 
L 356.086533 147.979896 
L 356.269954 148.799059 
L 356.514515 145.53878 
L 356.759076 145.489631 
L 356.820216 145.063663 
L 356.942496 141.836172 
L 357.125917 141.017009 
L 357.248197 142.917461 
L 357.370478 141.410204 
L 358.471002 127.042074 
L 358.532142 131.170665 
L 358.593282 130.335113 
L 358.654422 130.564479 
L 358.837843 130.007453 
L 358.898983 128.139763 
L 359.021263 129.94192 
L 359.265824 128.942539 
L 359.388105 132.153657 
L 359.449245 132.284727 
L 359.510385 131.793224 
L 359.693806 133.087503 
L 359.754946 132.989207 
L 359.816086 132.153657 
L 359.877227 129.696168 
L 359.938367 131.268959 
L 360.121787 132.284727 
L 360.182928 123.601592 
L 360.244068 124.813951 
L 360.305208 124.19139 
L 360.366348 126.02632 
L 360.610909 128.074228 
L 360.73319 124.65012 
L 360.97775 129.892772 
L 361.038891 126.894632 
L 361.100031 131.481937 
L 361.161171 128.975301 
L 361.222311 131.350881 
L 361.405732 129.040834 
L 361.650293 132.251954 
L 361.833713 130.826616 
L 361.894854 131.613006 
L 362.078274 128.139763 
L 362.261695 129.499564 
L 362.383975 126.97654 
L 362.445116 127.3206 
L 362.506256 128.369127 
L 362.750817 126.714414 
L 362.873097 129.352121 
L 362.934237 132.546852 
L 363.117658 131.662154 
L 363.301079 136.085644 
L 363.362219 134.201565 
L 363.545639 136.380542 
L 363.66792 132.530477 
L 363.72906 133.169424 
L 363.973621 136.10203 
L 364.095901 138.88718 
L 364.157042 137.838651 
L 364.218182 140.574653 
L 364.401602 140.623801 
L 364.462743 138.854405 
L 364.523883 140.197846 
L 364.646163 148.094577 
L 364.829584 150.322689 
L 365.074145 160.037966 
L 365.257565 162.626523 
L 365.440986 177.486142 
L 365.502126 171.637317 
L 365.685547 173.849056 
L 365.746687 172.931597 
L 365.930108 169.278137 
L 366.174669 172.997131 
L 366.235809 169.081533 
L 366.296949 170.080914 
L 366.54151 165.706584 
L 366.724931 172.325413 
L 366.786071 169.343659 
L 366.969492 167.09916 
L 367.214052 175.061426 
L 367.397473 173.930977 
L 367.458613 175.91335 
L 367.519753 174.91397 
L 367.580894 175.176109 
L 367.642034 169.343659 
L 367.825455 169.917083 
L 367.886595 169.015998 
L 368.253436 189.642526 
L 368.314576 190.904039 
L 368.375716 189.347628 
L 368.436857 189.724441 
L 368.681418 193.820257 
L 368.742558 199.980368 
L 368.803698 199.456104 
L 368.864838 199.210352 
L 368.925978 201.618695 
L 369.109399 200.127818 
L 369.170539 204.502146 
L 369.35396 190.510838 
L 369.781941 187.643773 
L 369.965362 187.922285 
L 370.087643 191.411915 
L 370.209923 191.657668 
L 370.393344 191.674054 
L 370.454484 195.65518 
L 370.515624 194.721336 
L 370.576764 196.2286 
L 370.637904 193.050242 
L 370.943606 199.390569 
L 371.004746 193.558126 
L 371.065886 194.246226 
L 371.310447 193.590893 
L 371.371587 193.78749 
L 371.493867 189.593378 
L 371.677288 189.593378 
L 371.799569 188.610379 
L 371.921849 194.737723 
L 372.349831 181.090468 
L 372.533251 180.975785 
L 372.655532 187.447169 
L 372.716672 185.432023 
L 372.777812 185.628625 
L 373.022373 184.580098 
L 373.083513 185.726922 
L 373.144653 189.445929 
L 373.205794 184.285199 
L 373.389214 186.595244 
L 373.511495 183.679014 
L 373.572635 183.44965 
L 373.633775 185.399261 
L 373.817196 186.283959 
L 374.000616 184.317959 
L 374.061757 187.512704 
L 374.245177 190.265092 
L 374.367458 194.917939 
L 374.428598 192.722581 
L 374.489738 196.113917 
L 374.673159 197.277127 
L 374.734299 196.015616 
L 374.795439 197.440956 
L 374.91772 194.967087 
L 375.10114 195.933699 
L 375.16228 197.014995 
L 375.284561 193.623659 
L 375.345701 196.376049 
L 375.529122 194.737723 
L 375.590262 195.458583 
L 375.651402 193.705575 
L 375.712542 194.852404 
L 375.957103 192.198319 
L 376.079384 185.432023 
L 376.140524 186.267573 
L 376.201664 184.088595 
L 376.385085 182.073461 
L 376.446225 182.122609 
L 376.568505 177.436994 
L 376.629646 178.485523 
L 376.813066 178.190622 
L 376.874206 177.748281 
L 377.057627 182.302826 
L 377.302188 184.268813 
L 377.363328 184.203278 
L 377.424468 180.631725 
L 377.485609 181.401742 
L 377.669029 181.303446 
L 377.730169 180.058314 
L 378.158151 189.511457 
L 378.219291 188.381015 
L 378.341572 191.395535 
L 378.524992 189.85551 
L 378.586133 190.183171 
L 378.769553 192.591512 
L 379.014114 192.558745 
L 379.625516 198.636941 
L 379.931217 196.032002 
L 380.236918 199.226733 
L 380.298059 198.866305 
L 380.359199 195.76987 
L 380.481479 200.029515 
L 380.6649 200.553779 
L 380.78718 197.031375 
L 380.84832 197.227979 
L 380.909461 198.784384 
L 381.092881 199.439717 
L 381.154022 198.849918 
L 381.215162 199.095671 
L 381.276302 201.454857 
L 381.520863 202.339555 
L 381.948844 206.861332 
L 382.009985 206.697503 
L 382.071125 204.862579 
L 382.132265 205.304929 
L 382.376826 211.120985 
L 382.621387 216.199794 
L 382.804807 220.98371 
L 382.865948 220.13178 
L 382.988228 217.215554 
L 383.049368 217.395772 
L 383.232789 219.722198 
L 383.355069 218.13302 
L 383.41621 220.803494 
L 383.47735 217.936423 
L 383.721911 216.54384 
L 383.844191 213.398257 
L 383.905331 214.971049 
L 384.088752 216.838741 
L 384.149892 215.462545 
L 384.211032 215.544468 
L 384.516733 226.898069 
L 384.577874 224.211209 
L 384.639014 227.651698 
L 384.700154 226.881683 
L 384.761294 223.621417 
L 384.944715 221.29499 
L 385.005855 222.409052 
L 385.066995 222.048618 
L 385.128136 222.474587 
L 385.189276 224.047378 
L 385.433837 222.900548 
L 385.494977 221.901169 
L 385.617257 227.537015 
L 385.800678 227.831915 
L 385.922958 226.701465 
L 385.984099 222.966083 
L 386.045239 226.193589 
L 386.228659 227.962978 
L 386.41208 232.861575 
L 386.47322 230.813667 
L 386.656641 231.878576 
L 386.717781 233.533289 
L 386.778921 232.140708 
L 386.840062 228.126814 
L 386.901202 229.32279 
L 387.329183 215.773832 
L 387.512604 217.248322 
L 387.573744 220.754346 
L 387.634884 220.606896 
L 387.757165 216.576609 
L 388.001726 219.68943 
L 388.062866 218.657283 
L 388.124006 219.132399 
L 388.185146 218.935802 
L 388.368567 217.592376 
L 388.490847 221.082006 
L 388.613128 216.773213 
L 388.796549 216.953422 
L 388.918829 211.497799 
L 388.979969 214.348483 
L 389.041109 213.431025 
L 389.28567 205.41961 
L 389.407951 214.381251 
L 389.469091 213.562088 
L 389.652512 213.086979 
L 389.774792 210.793319 
L 389.897072 212.202281 
L 390.080493 213.49656 
L 390.141633 213.005056 
L 390.202773 210.924388 
L 390.325054 212.103978 
L 390.508475 212.005683 
L 390.691895 215.315096 
L 390.753035 219.869648 
L 390.936456 220.246461 
L 390.997596 222.392672 
L 391.058737 219.771347 
L 391.119877 220.475827 
L 391.181017 219.394531 
L 391.364438 223.899929 
L 391.486718 219.951562 
L 391.547858 220.295609 
L 391.608998 223.408433 
L 391.792419 223.621417 
L 391.853559 223.228215 
L 391.97584 218.067486 
L 392.220401 220.279229 
L 392.281541 218.313236 
L 392.403821 220.623276 
L 392.648382 221.032858 
L 392.770663 224.555263 
L 392.892943 233.140087 
L 393.076364 233.451374 
L 393.137504 235.286298 
L 393.198644 234.647351 
L 393.259784 234.745647 
L 393.320924 235.794174 
L 393.565485 235.368213 
L 393.626626 239.02168 
L 393.687766 237.285051 
L 393.748906 229.650451 
L 394.054607 231.813048 
L 394.176888 226.390185 
L 394.360308 225.91507 
L 394.421448 228.814908 
L 394.482589 228.438093 
L 394.543729 224.620791 
L 394.604869 227.504248 
L 394.84943 233.680738 
L 394.97171 237.252291 
L 395.032851 236.236524 
L 395.338552 230.911964 
L 395.399692 226.734233 
L 395.460832 231.436226 
L 395.644253 230.715366 
L 395.705393 229.814288 
L 395.766533 232.992638 
L 395.827673 231.38708 
L 395.888814 229.486621 
L 396.072234 228.831288 
L 396.194515 230.731746 
L 396.316795 218.771966 
L 396.500216 214.839986 
L 396.561356 211.088217 
L 396.683636 218.329616 
L 396.744777 215.904895 
L 396.928197 215.347864 
L 396.989337 216.478312 
L 397.172758 209.531807 
L 397.417319 213.152507 
L 397.478459 212.792078 
L 397.539599 216.511081 
L 397.78416 213.283574 
L 397.8453 215.741064 
L 397.906441 212.841226 
L 397.967581 214.315723 
L 398.028721 215.773832 
L 398.212142 215.642763 
L 398.273282 217.510453 
L 398.456703 210.383737 
L 398.640123 209.679257 
L 398.701263 210.645869 
L 398.762404 206.533673 
L 398.823544 206.959635 
L 399.068105 211.170134 
L 399.251525 203.519152 
L 399.496086 202.339555 
L 399.557227 203.601068 
L 399.679507 200.340795 
L 400.046348 207.926248 
L 400.107488 208.483278 
L 400.168629 205.141091 
L 400.352049 205.960254 
L 400.41319 207.336448 
L 400.47433 206.566433 
L 400.53547 203.469998 
L 400.59661 205.74727 
L 400.841171 203.650214 
L 400.902311 199.030136 
L 400.963451 202.077423 
L 401.024592 199.865686 
L 401.208012 200.537399 
L 401.330293 197.178826 
L 401.391433 197.703088 
L 401.452573 199.062902 
L 401.697134 198.07991 
L 401.819414 202.585307 
L 401.880555 201.913593 
L 402.063975 202.650835 
L 402.125116 201.422091 
L 402.186256 196.867545 
L 402.308536 203.158718 
L 402.491957 206.648355 
L 402.614237 204.551294 
L 402.675378 205.681742 
L 402.736518 205.435992 
L 402.919938 203.43723 
L 402.981079 203.715749 
L 403.103359 199.914834 
L 403.164499 202.601687 
L 403.40906 206.009409 
L 403.531341 202.077423 
L 403.592481 202.175726 
L 403.837042 202.749137 
L 403.898182 204.420231 
L 403.959322 201.831672 
L 404.020462 202.27402 
L 404.203883 202.536152 
L 404.326163 199.2595 
L 404.448444 199.390569 
L 404.631864 200.291647 
L 404.876425 205.223006 
L 405.059846 206.631968 
L 405.120986 208.843712 
L 405.182126 206.992402 
L 405.304407 209.728403 
L 405.487827 208.630728 
L 405.610108 211.366729 
L 405.671248 209.679257 
L 405.732388 211.776311 
L 405.915809 211.366729 
L 405.976949 210.531186 
L 406.038089 210.957148 
L 406.09923 212.693777 
L 406.16037 212.103978 
L 406.34379 212.644629 
L 406.404931 212.153133 
L 406.588351 206.058557 
L 406.771772 207.385597 
L 406.832912 206.58282 
L 406.894052 206.746651 
L 406.955193 207.385597 
L 407.016333 207.04155 
L 407.199753 208.253914 
L 407.260894 206.533673 
L 407.383174 212.677397 
L 407.444314 211.055451 
L 407.688875 209.35159 
L 407.872296 197.703088 
L 408.055716 196.736476 
L 408.116857 197.522879 
L 408.177997 199.96398 
L 408.239137 199.800151 
L 408.483698 196.720096 
L 408.544838 199.193965 
L 408.605978 198.161825 
L 408.667119 192.657047 
L 408.728259 194.950707 
L 408.91168 193.410675 
L 408.97282 196.834779 
L 409.03396 195.114536 
L 409.15624 188.135263 
L 409.339661 189.118262 
L 409.461941 187.103122 
L 409.523082 187.28334 
L 409.584222 188.266332 
L 409.828783 188.839743 
L 409.951063 191.952566 
L 410.012203 190.936806 
L 410.195624 192.542365 
L 410.379045 189.478697 
L 410.745886 195.196452 
L 410.807026 191.968946 
L 410.868166 192.558745 
L 411.173867 196.572646 
L 411.235008 197.752243 
L 411.296148 203.093183 
L 411.479569 199.161205 
L 411.540709 200.242499 
L 411.601849 200.09505 
L 411.662989 198.440337 
L 411.724129 198.587786 
L 411.90755 199.275886 
L 412.090971 189.527843 
L 412.152111 192.6079 
L 412.335532 189.118262 
L 412.396672 189.396776 
L 412.457812 191.657668 
L 412.580092 190.084876 
L 412.763513 189.642526 
L 412.824653 195.62242 
L 412.946934 183.121989 
L 413.008074 186.890145 
L 413.191495 185.432023 
L 413.252635 186.02182 
L 413.436055 183.531571 
L 413.619476 181.713027 
L 413.802897 186.300346 
L 413.864037 183.597106 
L 414.047458 184.317959 
L 414.169738 183.089215 
L 414.292018 184.645633 
L 414.536579 184.514563 
L 414.59772 184.727541 
L 414.72 188.888898 
L 414.72 188.888898 
" style="fill:none;stroke:#e24a33;stroke-linecap:square;stroke-width:1.5;"/>
   </g>
   <g id="patch_3">
    <path d="M 57.6 276.48 
L 57.6 41.472 
" style="fill:none;stroke:#ffffff;stroke-linecap:square;stroke-linejoin:miter;"/>
   </g>
   <g id="patch_4">
    <path d="M 414.72 276.48 
L 414.72 41.472 
" style="fill:none;stroke:#ffffff;stroke-linecap:square;stroke-linejoin:miter;"/>
   </g>
   <g id="patch_5">
    <path d="M 57.6 276.48 
L 414.72 276.48 
" style="fill:none;stroke:#ffffff;stroke-linecap:square;stroke-linejoin:miter;"/>
   </g>
   <g id="patch_6">
    <path d="M 57.6 41.472 
L 414.72 41.472 
" style="fill:none;stroke:#ffffff;stroke-linecap:square;stroke-linejoin:miter;"/>
   </g>
  </g>
 </g>
 <defs>
  <clipPath id="p0ec696b58f">
   <rect height="235.008" width="357.12" x="57.6" y="41.472"/>
  </clipPath>
 </defs>
</svg>
