<?xml version="1.0" encoding="utf-8" standalone="no"?>
<!DOCTYPE svg PUBLIC "-//W3C//DTD SVG 1.1//EN"
  "http://www.w3.org/Graphics/SVG/1.1/DTD/svg11.dtd">
<!-- Created with matplotlib (http://matplotlib.org/) -->
<svg height="345pt" version="1.1" viewBox="0 0 460 345" width="460pt" xmlns="http://www.w3.org/2000/svg" xmlns:xlink="http://www.w3.org/1999/xlink">
 <defs>
  <style type="text/css">
*{stroke-linecap:butt;stroke-linejoin:round;}
  </style>
 </defs>
 <g id="figure_1">
  <g id="patch_1">
   <path d="M 0 345.6 
L 460.8 345.6 
L 460.8 0 
L 0 0 
z
" style="fill:#ffffff;"/>
  </g>
  <g id="axes_1">
   <g id="patch_2">
    <path d="M 57.6 276.48 
L 414.72 276.48 
L 414.72 41.472 
L 57.6 41.472 
z
" style="fill:#e5e5e5;"/>
   </g>
   <g id="matplotlib.axis_1">
    <g id="xtick_1">
     <g id="line2d_1">
      <path clip-path="url(#pa3bf493b73)" d="M 102.171217 276.48 
L 102.171217 41.472 
" style="fill:none;stroke:#ffffff;stroke-linecap:square;stroke-width:0.8;"/>
     </g>
     <g id="line2d_2">
      <defs>
       <path d="M 0 0 
L 0 3.5 
" id="m1a6004bb96" style="stroke:#555555;stroke-width:0.8;"/>
      </defs>
      <g>
       <use style="fill:#555555;stroke:#555555;stroke-width:0.8;" x="102.171217" xlink:href="#m1a6004bb96" y="276.48"/>
      </g>
     </g>
     <g id="text_1">
      <!-- 2003 -->
      <defs>
       <path d="M 19.1875 8.296875 
L 53.609375 8.296875 
L 53.609375 0 
L 7.328125 0 
L 7.328125 8.296875 
Q 12.9375 14.109375 22.625 23.890625 
Q 32.328125 33.6875 34.8125 36.53125 
Q 39.546875 41.84375 41.421875 45.53125 
Q 43.3125 49.21875 43.3125 52.78125 
Q 43.3125 58.59375 39.234375 62.25 
Q 35.15625 65.921875 28.609375 65.921875 
Q 23.96875 65.921875 18.8125 64.3125 
Q 13.671875 62.703125 7.8125 59.421875 
L 7.8125 69.390625 
Q 13.765625 71.78125 18.9375 73 
Q 24.125 74.21875 28.421875 74.21875 
Q 39.75 74.21875 46.484375 68.546875 
Q 53.21875 62.890625 53.21875 53.421875 
Q 53.21875 48.921875 51.53125 44.890625 
Q 49.859375 40.875 45.40625 35.40625 
Q 44.1875 33.984375 37.640625 27.21875 
Q 31.109375 20.453125 19.1875 8.296875 
z
" id="DejaVuSans-32"/>
       <path d="M 31.78125 66.40625 
Q 24.171875 66.40625 20.328125 58.90625 
Q 16.5 51.421875 16.5 36.375 
Q 16.5 21.390625 20.328125 13.890625 
Q 24.171875 6.390625 31.78125 6.390625 
Q 39.453125 6.390625 43.28125 13.890625 
Q 47.125 21.390625 47.125 36.375 
Q 47.125 51.421875 43.28125 58.90625 
Q 39.453125 66.40625 31.78125 66.40625 
z
M 31.78125 74.21875 
Q 44.046875 74.21875 50.515625 64.515625 
Q 56.984375 54.828125 56.984375 36.375 
Q 56.984375 17.96875 50.515625 8.265625 
Q 44.046875 -1.421875 31.78125 -1.421875 
Q 19.53125 -1.421875 13.0625 8.265625 
Q 6.59375 17.96875 6.59375 36.375 
Q 6.59375 54.828125 13.0625 64.515625 
Q 19.53125 74.21875 31.78125 74.21875 
z
" id="DejaVuSans-30"/>
       <path d="M 40.578125 39.3125 
Q 47.65625 37.796875 51.625 33 
Q 55.609375 28.21875 55.609375 21.1875 
Q 55.609375 10.40625 48.1875 4.484375 
Q 40.765625 -1.421875 27.09375 -1.421875 
Q 22.515625 -1.421875 17.65625 -0.515625 
Q 12.796875 0.390625 7.625 2.203125 
L 7.625 11.71875 
Q 11.71875 9.328125 16.59375 8.109375 
Q 21.484375 6.890625 26.8125 6.890625 
Q 36.078125 6.890625 40.9375 10.546875 
Q 45.796875 14.203125 45.796875 21.1875 
Q 45.796875 27.640625 41.28125 31.265625 
Q 36.765625 34.90625 28.71875 34.90625 
L 20.21875 34.90625 
L 20.21875 43.015625 
L 29.109375 43.015625 
Q 36.375 43.015625 40.234375 45.921875 
Q 44.09375 48.828125 44.09375 54.296875 
Q 44.09375 59.90625 40.109375 62.90625 
Q 36.140625 65.921875 28.71875 65.921875 
Q 24.65625 65.921875 20.015625 65.03125 
Q 15.375 64.15625 9.8125 62.3125 
L 9.8125 71.09375 
Q 15.4375 72.65625 20.34375 73.4375 
Q 25.25 74.21875 29.59375 74.21875 
Q 40.828125 74.21875 47.359375 69.109375 
Q 53.90625 64.015625 53.90625 55.328125 
Q 53.90625 49.265625 50.4375 45.09375 
Q 46.96875 40.921875 40.578125 39.3125 
z
" id="DejaVuSans-33"/>
      </defs>
      <g style="fill:#555555;" transform="translate(79.091027 302.78544)rotate(-30)scale(0.1 -0.1)">
       <use xlink:href="#DejaVuSans-32"/>
       <use x="63.623047" xlink:href="#DejaVuSans-30"/>
       <use x="127.246094" xlink:href="#DejaVuSans-30"/>
       <use x="190.869141" xlink:href="#DejaVuSans-33"/>
      </g>
     </g>
    </g>
    <g id="xtick_2">
     <g id="line2d_3">
      <path clip-path="url(#pa3bf493b73)" d="M 146.864715 276.48 
L 146.864715 41.472 
" style="fill:none;stroke:#ffffff;stroke-linecap:square;stroke-width:0.8;"/>
     </g>
     <g id="line2d_4">
      <g>
       <use style="fill:#555555;stroke:#555555;stroke-width:0.8;" x="146.864715" xlink:href="#m1a6004bb96" y="276.48"/>
      </g>
     </g>
     <g id="text_2">
      <!-- 2005 -->
      <defs>
       <path d="M 10.796875 72.90625 
L 49.515625 72.90625 
L 49.515625 64.59375 
L 19.828125 64.59375 
L 19.828125 46.734375 
Q 21.96875 47.46875 24.109375 47.828125 
Q 26.265625 48.1875 28.421875 48.1875 
Q 40.625 48.1875 47.75 41.5 
Q 54.890625 34.8125 54.890625 23.390625 
Q 54.890625 11.625 47.5625 5.09375 
Q 40.234375 -1.421875 26.90625 -1.421875 
Q 22.3125 -1.421875 17.546875 -0.640625 
Q 12.796875 0.140625 7.71875 1.703125 
L 7.71875 11.625 
Q 12.109375 9.234375 16.796875 8.0625 
Q 21.484375 6.890625 26.703125 6.890625 
Q 35.15625 6.890625 40.078125 11.328125 
Q 45.015625 15.765625 45.015625 23.390625 
Q 45.015625 31 40.078125 35.4375 
Q 35.15625 39.890625 26.703125 39.890625 
Q 22.75 39.890625 18.8125 39.015625 
Q 14.890625 38.140625 10.796875 36.28125 
z
" id="DejaVuSans-35"/>
      </defs>
      <g style="fill:#555555;" transform="translate(123.784525 302.78544)rotate(-30)scale(0.1 -0.1)">
       <use xlink:href="#DejaVuSans-32"/>
       <use x="63.623047" xlink:href="#DejaVuSans-30"/>
       <use x="127.246094" xlink:href="#DejaVuSans-30"/>
       <use x="190.869141" xlink:href="#DejaVuSans-35"/>
      </g>
     </g>
    </g>
    <g id="xtick_3">
     <g id="line2d_5">
      <path clip-path="url(#pa3bf493b73)" d="M 191.497072 276.48 
L 191.497072 41.472 
" style="fill:none;stroke:#ffffff;stroke-linecap:square;stroke-width:0.8;"/>
     </g>
     <g id="line2d_6">
      <g>
       <use style="fill:#555555;stroke:#555555;stroke-width:0.8;" x="191.497072" xlink:href="#m1a6004bb96" y="276.48"/>
      </g>
     </g>
     <g id="text_3">
      <!-- 2007 -->
      <defs>
       <path d="M 8.203125 72.90625 
L 55.078125 72.90625 
L 55.078125 68.703125 
L 28.609375 0 
L 18.3125 0 
L 43.21875 64.59375 
L 8.203125 64.59375 
z
" id="DejaVuSans-37"/>
      </defs>
      <g style="fill:#555555;" transform="translate(168.416882 302.78544)rotate(-30)scale(0.1 -0.1)">
       <use xlink:href="#DejaVuSans-32"/>
       <use x="63.623047" xlink:href="#DejaVuSans-30"/>
       <use x="127.246094" xlink:href="#DejaVuSans-30"/>
       <use x="190.869141" xlink:href="#DejaVuSans-37"/>
      </g>
     </g>
    </g>
    <g id="xtick_4">
     <g id="line2d_7">
      <path clip-path="url(#pa3bf493b73)" d="M 236.19057 276.48 
L 236.19057 41.472 
" style="fill:none;stroke:#ffffff;stroke-linecap:square;stroke-width:0.8;"/>
     </g>
     <g id="line2d_8">
      <g>
       <use style="fill:#555555;stroke:#555555;stroke-width:0.8;" x="236.19057" xlink:href="#m1a6004bb96" y="276.48"/>
      </g>
     </g>
     <g id="text_4">
      <!-- 2009 -->
      <defs>
       <path d="M 10.984375 1.515625 
L 10.984375 10.5 
Q 14.703125 8.734375 18.5 7.8125 
Q 22.3125 6.890625 25.984375 6.890625 
Q 35.75 6.890625 40.890625 13.453125 
Q 46.046875 20.015625 46.78125 33.40625 
Q 43.953125 29.203125 39.59375 26.953125 
Q 35.25 24.703125 29.984375 24.703125 
Q 19.046875 24.703125 12.671875 31.3125 
Q 6.296875 37.9375 6.296875 49.421875 
Q 6.296875 60.640625 12.9375 67.421875 
Q 19.578125 74.21875 30.609375 74.21875 
Q 43.265625 74.21875 49.921875 64.515625 
Q 56.59375 54.828125 56.59375 36.375 
Q 56.59375 19.140625 48.40625 8.859375 
Q 40.234375 -1.421875 26.421875 -1.421875 
Q 22.703125 -1.421875 18.890625 -0.6875 
Q 15.09375 0.046875 10.984375 1.515625 
z
M 30.609375 32.421875 
Q 37.25 32.421875 41.125 36.953125 
Q 45.015625 41.5 45.015625 49.421875 
Q 45.015625 57.28125 41.125 61.84375 
Q 37.25 66.40625 30.609375 66.40625 
Q 23.96875 66.40625 20.09375 61.84375 
Q 16.21875 57.28125 16.21875 49.421875 
Q 16.21875 41.5 20.09375 36.953125 
Q 23.96875 32.421875 30.609375 32.421875 
z
" id="DejaVuSans-39"/>
      </defs>
      <g style="fill:#555555;" transform="translate(213.11038 302.78544)rotate(-30)scale(0.1 -0.1)">
       <use xlink:href="#DejaVuSans-32"/>
       <use x="63.623047" xlink:href="#DejaVuSans-30"/>
       <use x="127.246094" xlink:href="#DejaVuSans-30"/>
       <use x="190.869141" xlink:href="#DejaVuSans-39"/>
      </g>
     </g>
    </g>
    <g id="xtick_5">
     <g id="line2d_9">
      <path clip-path="url(#pa3bf493b73)" d="M 280.822928 276.48 
L 280.822928 41.472 
" style="fill:none;stroke:#ffffff;stroke-linecap:square;stroke-width:0.8;"/>
     </g>
     <g id="line2d_10">
      <g>
       <use style="fill:#555555;stroke:#555555;stroke-width:0.8;" x="280.822928" xlink:href="#m1a6004bb96" y="276.48"/>
      </g>
     </g>
     <g id="text_5">
      <!-- 2011 -->
      <defs>
       <path d="M 12.40625 8.296875 
L 28.515625 8.296875 
L 28.515625 63.921875 
L 10.984375 60.40625 
L 10.984375 69.390625 
L 28.421875 72.90625 
L 38.28125 72.90625 
L 38.28125 8.296875 
L 54.390625 8.296875 
L 54.390625 0 
L 12.40625 0 
z
" id="DejaVuSans-31"/>
      </defs>
      <g style="fill:#555555;" transform="translate(257.742737 302.78544)rotate(-30)scale(0.1 -0.1)">
       <use xlink:href="#DejaVuSans-32"/>
       <use x="63.623047" xlink:href="#DejaVuSans-30"/>
       <use x="127.246094" xlink:href="#DejaVuSans-31"/>
       <use x="190.869141" xlink:href="#DejaVuSans-31"/>
      </g>
     </g>
    </g>
    <g id="xtick_6">
     <g id="line2d_11">
      <path clip-path="url(#pa3bf493b73)" d="M 325.516425 276.48 
L 325.516425 41.472 
" style="fill:none;stroke:#ffffff;stroke-linecap:square;stroke-width:0.8;"/>
     </g>
     <g id="line2d_12">
      <g>
       <use style="fill:#555555;stroke:#555555;stroke-width:0.8;" x="325.516425" xlink:href="#m1a6004bb96" y="276.48"/>
      </g>
     </g>
     <g id="text_6">
      <!-- 2013 -->
      <g style="fill:#555555;" transform="translate(302.436235 302.78544)rotate(-30)scale(0.1 -0.1)">
       <use xlink:href="#DejaVuSans-32"/>
       <use x="63.623047" xlink:href="#DejaVuSans-30"/>
       <use x="127.246094" xlink:href="#DejaVuSans-31"/>
       <use x="190.869141" xlink:href="#DejaVuSans-33"/>
      </g>
     </g>
    </g>
    <g id="xtick_7">
     <g id="line2d_13">
      <path clip-path="url(#pa3bf493b73)" d="M 370.148783 276.48 
L 370.148783 41.472 
" style="fill:none;stroke:#ffffff;stroke-linecap:square;stroke-width:0.8;"/>
     </g>
     <g id="line2d_14">
      <g>
       <use style="fill:#555555;stroke:#555555;stroke-width:0.8;" x="370.148783" xlink:href="#m1a6004bb96" y="276.48"/>
      </g>
     </g>
     <g id="text_7">
      <!-- 2015 -->
      <g style="fill:#555555;" transform="translate(347.068592 302.78544)rotate(-30)scale(0.1 -0.1)">
       <use xlink:href="#DejaVuSans-32"/>
       <use x="63.623047" xlink:href="#DejaVuSans-30"/>
       <use x="127.246094" xlink:href="#DejaVuSans-31"/>
       <use x="190.869141" xlink:href="#DejaVuSans-35"/>
      </g>
     </g>
    </g>
    <g id="text_8">
     <!-- Date -->
     <defs>
      <path d="M 19.671875 64.796875 
L 19.671875 8.109375 
L 31.59375 8.109375 
Q 46.6875 8.109375 53.6875 14.9375 
Q 60.6875 21.78125 60.6875 36.53125 
Q 60.6875 51.171875 53.6875 57.984375 
Q 46.6875 64.796875 31.59375 64.796875 
z
M 9.8125 72.90625 
L 30.078125 72.90625 
Q 51.265625 72.90625 61.171875 64.09375 
Q 71.09375 55.28125 71.09375 36.53125 
Q 71.09375 17.671875 61.125 8.828125 
Q 51.171875 0 30.078125 0 
L 9.8125 0 
z
" id="DejaVuSans-44"/>
      <path d="M 34.28125 27.484375 
Q 23.390625 27.484375 19.1875 25 
Q 14.984375 22.515625 14.984375 16.5 
Q 14.984375 11.71875 18.140625 8.90625 
Q 21.296875 6.109375 26.703125 6.109375 
Q 34.1875 6.109375 38.703125 11.40625 
Q 43.21875 16.703125 43.21875 25.484375 
L 43.21875 27.484375 
z
M 52.203125 31.203125 
L 52.203125 0 
L 43.21875 0 
L 43.21875 8.296875 
Q 40.140625 3.328125 35.546875 0.953125 
Q 30.953125 -1.421875 24.3125 -1.421875 
Q 15.921875 -1.421875 10.953125 3.296875 
Q 6 8.015625 6 15.921875 
Q 6 25.140625 12.171875 29.828125 
Q 18.359375 34.515625 30.609375 34.515625 
L 43.21875 34.515625 
L 43.21875 35.40625 
Q 43.21875 41.609375 39.140625 45 
Q 35.0625 48.390625 27.6875 48.390625 
Q 23 48.390625 18.546875 47.265625 
Q 14.109375 46.140625 10.015625 43.890625 
L 10.015625 52.203125 
Q 14.9375 54.109375 19.578125 55.046875 
Q 24.21875 56 28.609375 56 
Q 40.484375 56 46.34375 49.84375 
Q 52.203125 43.703125 52.203125 31.203125 
z
" id="DejaVuSans-61"/>
      <path d="M 18.3125 70.21875 
L 18.3125 54.6875 
L 36.8125 54.6875 
L 36.8125 47.703125 
L 18.3125 47.703125 
L 18.3125 18.015625 
Q 18.3125 11.328125 20.140625 9.421875 
Q 21.96875 7.515625 27.59375 7.515625 
L 36.8125 7.515625 
L 36.8125 0 
L 27.59375 0 
Q 17.1875 0 13.234375 3.875 
Q 9.28125 7.765625 9.28125 18.015625 
L 9.28125 47.703125 
L 2.6875 47.703125 
L 2.6875 54.6875 
L 9.28125 54.6875 
L 9.28125 70.21875 
z
" id="DejaVuSans-74"/>
      <path d="M 56.203125 29.59375 
L 56.203125 25.203125 
L 14.890625 25.203125 
Q 15.484375 15.921875 20.484375 11.0625 
Q 25.484375 6.203125 34.421875 6.203125 
Q 39.59375 6.203125 44.453125 7.46875 
Q 49.3125 8.734375 54.109375 11.28125 
L 54.109375 2.78125 
Q 49.265625 0.734375 44.1875 -0.34375 
Q 39.109375 -1.421875 33.890625 -1.421875 
Q 20.796875 -1.421875 13.15625 6.1875 
Q 5.515625 13.8125 5.515625 26.8125 
Q 5.515625 40.234375 12.765625 48.109375 
Q 20.015625 56 32.328125 56 
Q 43.359375 56 49.78125 48.890625 
Q 56.203125 41.796875 56.203125 29.59375 
z
M 47.21875 32.234375 
Q 47.125 39.59375 43.09375 43.984375 
Q 39.0625 48.390625 32.421875 48.390625 
Q 24.90625 48.390625 20.390625 44.140625 
Q 15.875 39.890625 15.1875 32.171875 
z
" id="DejaVuSans-65"/>
     </defs>
     <g style="fill:#555555;" transform="translate(221.819063 317.704627)scale(0.12 -0.12)">
      <use xlink:href="#DejaVuSans-44"/>
      <use x="77.001953" xlink:href="#DejaVuSans-61"/>
      <use x="138.28125" xlink:href="#DejaVuSans-74"/>
      <use x="177.490234" xlink:href="#DejaVuSans-65"/>
     </g>
    </g>
   </g>
   <g id="matplotlib.axis_2">
    <g id="ytick_1">
     <g id="line2d_15">
      <path clip-path="url(#pa3bf493b73)" d="M 57.6 267.82645 
L 414.72 267.82645 
" style="fill:none;stroke:#ffffff;stroke-linecap:square;stroke-width:0.8;"/>
     </g>
     <g id="line2d_16">
      <defs>
       <path d="M 0 0 
L -3.5 0 
" id="m05232712a8" style="stroke:#555555;stroke-width:0.8;"/>
      </defs>
      <g>
       <use style="fill:#555555;stroke:#555555;stroke-width:0.8;" x="57.6" xlink:href="#m05232712a8" y="267.82645"/>
      </g>
     </g>
     <g id="text_9">
      <!-- 30 -->
      <g style="fill:#555555;" transform="translate(37.875 271.625669)scale(0.1 -0.1)">
       <use xlink:href="#DejaVuSans-33"/>
       <use x="63.623047" xlink:href="#DejaVuSans-30"/>
      </g>
     </g>
    </g>
    <g id="ytick_2">
     <g id="line2d_17">
      <path clip-path="url(#pa3bf493b73)" d="M 57.6 238.846032 
L 414.72 238.846032 
" style="fill:none;stroke:#ffffff;stroke-linecap:square;stroke-width:0.8;"/>
     </g>
     <g id="line2d_18">
      <g>
       <use style="fill:#555555;stroke:#555555;stroke-width:0.8;" x="57.6" xlink:href="#m05232712a8" y="238.846032"/>
      </g>
     </g>
     <g id="text_10">
      <!-- 40 -->
      <defs>
       <path d="M 37.796875 64.3125 
L 12.890625 25.390625 
L 37.796875 25.390625 
z
M 35.203125 72.90625 
L 47.609375 72.90625 
L 47.609375 25.390625 
L 58.015625 25.390625 
L 58.015625 17.1875 
L 47.609375 17.1875 
L 47.609375 0 
L 37.796875 0 
L 37.796875 17.1875 
L 4.890625 17.1875 
L 4.890625 26.703125 
z
" id="DejaVuSans-34"/>
      </defs>
      <g style="fill:#555555;" transform="translate(37.875 242.645251)scale(0.1 -0.1)">
       <use xlink:href="#DejaVuSans-34"/>
       <use x="63.623047" xlink:href="#DejaVuSans-30"/>
      </g>
     </g>
    </g>
    <g id="ytick_3">
     <g id="line2d_19">
      <path clip-path="url(#pa3bf493b73)" d="M 57.6 209.865613 
L 414.72 209.865613 
" style="fill:none;stroke:#ffffff;stroke-linecap:square;stroke-width:0.8;"/>
     </g>
     <g id="line2d_20">
      <g>
       <use style="fill:#555555;stroke:#555555;stroke-width:0.8;" x="57.6" xlink:href="#m05232712a8" y="209.865613"/>
      </g>
     </g>
     <g id="text_11">
      <!-- 50 -->
      <g style="fill:#555555;" transform="translate(37.875 213.664832)scale(0.1 -0.1)">
       <use xlink:href="#DejaVuSans-35"/>
       <use x="63.623047" xlink:href="#DejaVuSans-30"/>
      </g>
     </g>
    </g>
    <g id="ytick_4">
     <g id="line2d_21">
      <path clip-path="url(#pa3bf493b73)" d="M 57.6 180.885195 
L 414.72 180.885195 
" style="fill:none;stroke:#ffffff;stroke-linecap:square;stroke-width:0.8;"/>
     </g>
     <g id="line2d_22">
      <g>
       <use style="fill:#555555;stroke:#555555;stroke-width:0.8;" x="57.6" xlink:href="#m05232712a8" y="180.885195"/>
      </g>
     </g>
     <g id="text_12">
      <!-- 60 -->
      <defs>
       <path d="M 33.015625 40.375 
Q 26.375 40.375 22.484375 35.828125 
Q 18.609375 31.296875 18.609375 23.390625 
Q 18.609375 15.53125 22.484375 10.953125 
Q 26.375 6.390625 33.015625 6.390625 
Q 39.65625 6.390625 43.53125 10.953125 
Q 47.40625 15.53125 47.40625 23.390625 
Q 47.40625 31.296875 43.53125 35.828125 
Q 39.65625 40.375 33.015625 40.375 
z
M 52.59375 71.296875 
L 52.59375 62.3125 
Q 48.875 64.0625 45.09375 64.984375 
Q 41.3125 65.921875 37.59375 65.921875 
Q 27.828125 65.921875 22.671875 59.328125 
Q 17.53125 52.734375 16.796875 39.40625 
Q 19.671875 43.65625 24.015625 45.921875 
Q 28.375 48.1875 33.59375 48.1875 
Q 44.578125 48.1875 50.953125 41.515625 
Q 57.328125 34.859375 57.328125 23.390625 
Q 57.328125 12.15625 50.6875 5.359375 
Q 44.046875 -1.421875 33.015625 -1.421875 
Q 20.359375 -1.421875 13.671875 8.265625 
Q 6.984375 17.96875 6.984375 36.375 
Q 6.984375 53.65625 15.1875 63.9375 
Q 23.390625 74.21875 37.203125 74.21875 
Q 40.921875 74.21875 44.703125 73.484375 
Q 48.484375 72.75 52.59375 71.296875 
z
" id="DejaVuSans-36"/>
      </defs>
      <g style="fill:#555555;" transform="translate(37.875 184.684414)scale(0.1 -0.1)">
       <use xlink:href="#DejaVuSans-36"/>
       <use x="63.623047" xlink:href="#DejaVuSans-30"/>
      </g>
     </g>
    </g>
    <g id="ytick_5">
     <g id="line2d_23">
      <path clip-path="url(#pa3bf493b73)" d="M 57.6 151.904776 
L 414.72 151.904776 
" style="fill:none;stroke:#ffffff;stroke-linecap:square;stroke-width:0.8;"/>
     </g>
     <g id="line2d_24">
      <g>
       <use style="fill:#555555;stroke:#555555;stroke-width:0.8;" x="57.6" xlink:href="#m05232712a8" y="151.904776"/>
      </g>
     </g>
     <g id="text_13">
      <!-- 70 -->
      <g style="fill:#555555;" transform="translate(37.875 155.703995)scale(0.1 -0.1)">
       <use xlink:href="#DejaVuSans-37"/>
       <use x="63.623047" xlink:href="#DejaVuSans-30"/>
      </g>
     </g>
    </g>
    <g id="ytick_6">
     <g id="line2d_25">
      <path clip-path="url(#pa3bf493b73)" d="M 57.6 122.924358 
L 414.72 122.924358 
" style="fill:none;stroke:#ffffff;stroke-linecap:square;stroke-width:0.8;"/>
     </g>
     <g id="line2d_26">
      <g>
       <use style="fill:#555555;stroke:#555555;stroke-width:0.8;" x="57.6" xlink:href="#m05232712a8" y="122.924358"/>
      </g>
     </g>
     <g id="text_14">
      <!-- 80 -->
      <defs>
       <path d="M 31.78125 34.625 
Q 24.75 34.625 20.71875 30.859375 
Q 16.703125 27.09375 16.703125 20.515625 
Q 16.703125 13.921875 20.71875 10.15625 
Q 24.75 6.390625 31.78125 6.390625 
Q 38.8125 6.390625 42.859375 10.171875 
Q 46.921875 13.96875 46.921875 20.515625 
Q 46.921875 27.09375 42.890625 30.859375 
Q 38.875 34.625 31.78125 34.625 
z
M 21.921875 38.8125 
Q 15.578125 40.375 12.03125 44.71875 
Q 8.5 49.078125 8.5 55.328125 
Q 8.5 64.0625 14.71875 69.140625 
Q 20.953125 74.21875 31.78125 74.21875 
Q 42.671875 74.21875 48.875 69.140625 
Q 55.078125 64.0625 55.078125 55.328125 
Q 55.078125 49.078125 51.53125 44.71875 
Q 48 40.375 41.703125 38.8125 
Q 48.828125 37.15625 52.796875 32.3125 
Q 56.78125 27.484375 56.78125 20.515625 
Q 56.78125 9.90625 50.3125 4.234375 
Q 43.84375 -1.421875 31.78125 -1.421875 
Q 19.734375 -1.421875 13.25 4.234375 
Q 6.78125 9.90625 6.78125 20.515625 
Q 6.78125 27.484375 10.78125 32.3125 
Q 14.796875 37.15625 21.921875 38.8125 
z
M 18.3125 54.390625 
Q 18.3125 48.734375 21.84375 45.5625 
Q 25.390625 42.390625 31.78125 42.390625 
Q 38.140625 42.390625 41.71875 45.5625 
Q 45.3125 48.734375 45.3125 54.390625 
Q 45.3125 60.0625 41.71875 63.234375 
Q 38.140625 66.40625 31.78125 66.40625 
Q 25.390625 66.40625 21.84375 63.234375 
Q 18.3125 60.0625 18.3125 54.390625 
z
" id="DejaVuSans-38"/>
      </defs>
      <g style="fill:#555555;" transform="translate(37.875 126.723577)scale(0.1 -0.1)">
       <use xlink:href="#DejaVuSans-38"/>
       <use x="63.623047" xlink:href="#DejaVuSans-30"/>
      </g>
     </g>
    </g>
    <g id="ytick_7">
     <g id="line2d_27">
      <path clip-path="url(#pa3bf493b73)" d="M 57.6 93.943939 
L 414.72 93.943939 
" style="fill:none;stroke:#ffffff;stroke-linecap:square;stroke-width:0.8;"/>
     </g>
     <g id="line2d_28">
      <g>
       <use style="fill:#555555;stroke:#555555;stroke-width:0.8;" x="57.6" xlink:href="#m05232712a8" y="93.943939"/>
      </g>
     </g>
     <g id="text_15">
      <!-- 90 -->
      <g style="fill:#555555;" transform="translate(37.875 97.743158)scale(0.1 -0.1)">
       <use xlink:href="#DejaVuSans-39"/>
       <use x="63.623047" xlink:href="#DejaVuSans-30"/>
      </g>
     </g>
    </g>
    <g id="ytick_8">
     <g id="line2d_29">
      <path clip-path="url(#pa3bf493b73)" d="M 57.6 64.963521 
L 414.72 64.963521 
" style="fill:none;stroke:#ffffff;stroke-linecap:square;stroke-width:0.8;"/>
     </g>
     <g id="line2d_30">
      <g>
       <use style="fill:#555555;stroke:#555555;stroke-width:0.8;" x="57.6" xlink:href="#m05232712a8" y="64.963521"/>
      </g>
     </g>
     <g id="text_16">
      <!-- 100 -->
      <g style="fill:#555555;" transform="translate(31.5125 68.76274)scale(0.1 -0.1)">
       <use xlink:href="#DejaVuSans-31"/>
       <use x="63.623047" xlink:href="#DejaVuSans-30"/>
       <use x="127.246094" xlink:href="#DejaVuSans-30"/>
      </g>
     </g>
    </g>
   </g>
   <g id="line2d_31">
    <path clip-path="url(#pa3bf493b73)" d="M 57.6 229.155704 
L 57.66114 225.623716 
L 57.783421 234.680097 
L 57.966841 233.774459 
L 58.150262 236.491373 
L 58.211402 236.310245 
L 58.455963 236.129118 
L 58.639384 240.47618 
L 58.883945 238.121521 
L 59.006225 235.495171 
L 59.067365 235.22348 
L 59.250786 238.773575 
L 59.434206 232.832592 
L 59.495347 233.339747 
L 59.678767 234.136714 
L 59.739908 231.673384 
L 59.801048 232.325438 
L 60.106749 230.354769 
L 60.35131 234.209171 
L 60.595871 233.629559 
L 60.657011 231.890726 
L 60.718151 233.049948 
L 60.779291 233.049948 
L 60.962712 234.716325 
L 61.023852 233.194847 
L 61.146133 237.686809 
L 61.207273 234.933681 
L 61.390693 234.571426 
L 61.512974 232.905049 
L 61.574114 232.745654 
L 61.635254 230.731518 
L 61.818675 230.166399 
L 61.940955 235.513278 
L 62.002096 233.412203 
L 62.063236 236.165346 
L 62.307797 236.962299 
L 62.430077 239.208287 
L 62.491217 243.55535 
L 62.674638 241.758567 
L 62.796918 239.280744 
L 62.858059 241.888973 
L 62.919199 240.222596 
L 63.102619 237.397011 
L 63.2249 241.888973 
L 63.34718 237.397011 
L 63.530601 235.803091 
L 63.591741 233.774459 
L 63.652881 234.426512 
L 63.714022 236.020447 
L 63.958582 235.774105 
L 64.080863 232.035639 
L 64.142003 232.252981 
L 64.203143 232.615236 
L 64.386564 230.224363 
L 64.569985 225.370131 
L 64.631125 225.659944 
L 64.875686 226.094642 
L 65.059106 229.992514 
L 65.425948 225.370131 
L 65.487088 227.108965 
L 65.670508 226.964066 
L 65.792789 225.15279 
L 65.915069 225.8773 
L 66.09849 223.703769 
L 66.281911 227.471221 
L 66.343051 227.645094 
L 66.587612 225.949743 
L 66.709892 226.819152 
L 66.771032 225.804844 
L 66.954453 224.645621 
L 67.015593 223.153132 
L 67.076733 223.558855 
L 67.199014 225.804844 
L 67.382435 225.080333 
L 67.443575 223.660287 
L 67.504715 223.819682 
L 67.626995 226.094642 
L 67.810416 225.486056 
L 67.993837 227.688577 
L 68.054977 226.529354 
L 68.238398 227.22489 
L 68.299538 226.674253 
L 68.360678 227.181408 
L 68.421818 229.644752 
L 68.482958 228.963709 
L 68.666379 226.891609 
L 68.8498 227.978375 
L 68.91094 227.833476 
L 69.094361 228.630429 
L 69.216641 230.876417 
L 69.277781 232.832592 
L 69.338921 230.948874 
L 69.583482 229.833119 
L 69.644622 232.325438 
L 69.705763 229.572295 
L 69.766903 229.717194 
L 69.950324 228.702885 
L 70.133744 235.07858 
L 70.194884 231.456028 
L 70.378305 231.890726 
L 70.439445 232.470337 
L 70.500586 231.745826 
L 70.561726 234.441008 
L 70.622866 233.339747 
L 70.867427 235.94799 
L 70.928567 233.774459 
L 70.989707 236.527601 
L 71.050847 235.07858 
L 71.356549 234.498969 
L 71.478829 235.107555 
L 71.66225 237.62886 
L 71.78453 236.382702 
L 71.84567 237.368036 
L 71.90681 235.542267 
L 72.090231 233.919358 
L 72.273652 236.556576 
L 72.334792 237.483949 
L 72.579353 237.107213 
L 72.701633 235.397365 
L 72.762773 237.454972 
L 73.374176 235.252454 
L 73.618737 251.88722 
L 73.802157 250.438199 
L 73.863297 251.568433 
L 74.046718 240.295053 
L 74.291279 241.512225 
L 74.4747 235.513278 
L 74.65812 237.715798 
L 74.841541 232.238499 
L 74.902681 232.789124 
L 75.086102 233.194847 
L 75.330663 238.005597 
L 75.575223 236.875363 
L 75.636364 237.397011 
L 75.697504 240.874664 
L 75.758644 237.686809 
L 75.942065 237.020263 
L 76.125485 240.439952 
L 76.186626 239.425643 
L 76.370046 238.846032 
L 76.431186 242.178786 
L 76.492327 241.744074 
L 76.614607 239.13583 
L 76.798028 240.584851 
L 76.859168 238.788071 
L 76.920308 239.13583 
L 77.042589 246.641762 
L 77.226009 246.380935 
L 77.34829 243.772706 
L 77.47057 245.366626 
L 77.653991 244.497216 
L 77.776271 247.105445 
L 77.837411 246.525849 
L 77.898552 245.714388 
L 78.081972 246.380935 
L 78.204253 242.178786 
L 78.265393 242.468584 
L 78.326533 246.091137 
L 78.509954 244.439253 
L 78.632234 247.105445 
L 78.693374 245.801338 
L 78.754515 248.583455 
L 78.937935 248.119769 
L 79.182496 242.903296 
L 79.488197 241.309362 
L 79.610478 238.990931 
L 79.793898 239.193794 
L 79.916179 240.874664 
L 79.977319 239.280744 
L 80.038459 239.715442 
L 80.22188 239.570542 
L 80.28302 239.13583 
L 80.649861 242.903296 
L 80.772142 241.744074 
L 80.833282 242.845333 
L 80.894422 242.787372 
L 81.138983 242.178786 
L 81.200123 243.193095 
L 81.261263 242.903296 
L 81.505824 240.439952 
L 81.628105 244.787015 
L 81.750385 241.309362 
L 81.933806 241.454275 
L 82.056086 243.656781 
L 82.117227 242.64247 
L 82.178367 244.497216 
L 82.361787 243.801681 
L 82.606348 241.222426 
L 82.912049 242.091836 
L 83.21775 236.382702 
L 83.401171 234.788768 
L 83.462311 233.774459 
L 83.768012 231.456028 
L 83.890293 228.702885 
L 84.073713 229.427396 
L 84.195994 227.398764 
L 84.257134 228.876771 
L 84.318274 228.702885 
L 84.562835 227.311825 
L 84.746256 228.702885 
L 84.929676 229.514334 
L 84.990817 230.296806 
L 85.113097 227.108965 
L 85.357658 226.674253 
L 85.418798 227.543663 
L 85.479938 226.152606 
L 85.541079 226.964066 
L 85.602219 229.862108 
L 85.785639 229.137597 
L 85.90792 231.600927 
L 85.96906 229.775158 
L 86.0302 233.194847 
L 86.213621 232.76015 
L 86.274761 233.078923 
L 86.397042 231.542966 
L 86.458182 231.716852 
L 86.641602 231.745826 
L 86.825023 238.556234 
L 86.886163 237.107213 
L 87.191864 239.13583 
L 87.314145 236.092889 
L 87.558706 240.324027 
L 87.619846 242.178786 
L 87.742126 239.425643 
L 87.925547 242.265721 
L 87.986687 237.483949 
L 88.047827 238.846032 
L 88.108968 238.990931 
L 88.170108 238.034583 
L 88.414669 239.454618 
L 88.475809 238.788071 
L 88.598089 235.94799 
L 89.026071 240.005254 
L 89.209492 238.846032 
L 89.331772 241.802035 
L 89.392912 238.903993 
L 89.454052 241.309362 
L 89.637473 240.526902 
L 89.698613 239.628503 
L 89.759753 241.164462 
L 89.820894 240.729765 
L 89.882034 240.874664 
L 90.065455 240.439952 
L 90.126595 238.846032 
L 90.187735 238.990931 
L 90.310015 241.744074 
L 90.493436 241.019563 
L 90.554576 238.121521 
L 90.615716 240.005254 
L 90.737997 238.556234 
L 90.982558 236.527601 
L 91.165978 238.990931 
L 91.410539 237.831723 
L 91.47168 238.121521 
L 91.59396 246.786672 
L 91.838521 253.307267 
L 91.899661 250.727998 
L 91.960801 251.133735 
L 92.021941 257.248592 
L 92.205362 260.871144 
L 92.266502 265.797818 
L 92.327643 265.218213 
L 92.449923 256.234283 
L 92.694484 249.365927 
L 92.877904 256.668995 
L 93.061325 257.248592 
L 93.122465 258.697613 
L 93.305886 251.104749 
L 93.550447 253.046443 
L 93.611587 252.177019 
L 93.733867 247.279334 
L 93.917288 248.844279 
L 93.978428 247.800981 
L 94.039569 249.62675 
L 94.100709 249.163064 
L 94.161849 248.119769 
L 94.34527 249.858588 
L 94.40641 246.236036 
L 94.589831 254.060752 
L 94.834391 255.509773 
L 94.956672 258.958439 
L 95.017812 254.176676 
L 95.201233 255.509773 
L 95.262373 255.10405 
L 95.323513 253.336241 
L 95.445794 257.42248 
L 95.629214 256.726944 
L 95.690354 255.07506 
L 95.812635 260.40746 
L 95.873775 260.320522 
L 96.057196 260.233584 
L 96.118336 260.581346 
L 96.301757 256.524081 
L 96.546317 261.508719 
L 96.729738 257.973102 
L 96.913159 259.132325 
L 96.974299 257.103693 
L 97.035439 261.740568 
L 97.096579 258.900476 
L 97.15772 256.205308 
L 97.34114 254.785262 
L 97.524561 249.42389 
L 97.585701 250.2933 
L 97.769122 251.16271 
L 97.830262 250.409225 
L 98.013683 255.654672 
L 98.197103 253.741964 
L 98.319384 257.828203 
L 98.380524 255.30691 
L 98.441664 256.813894 
L 98.747365 252.321932 
L 98.808505 253.48114 
L 98.869646 254.205651 
L 99.053066 254.35055 
L 99.236487 256.379182 
L 99.481048 253.307267 
L 99.542188 253.336241 
L 99.603328 253.62604 
L 99.664468 252.234982 
L 99.909029 255.944485 
L 99.970169 255.944485 
L 100.15359 253.394202 
L 100.337011 252.901529 
L 100.398151 255.364873 
L 100.459291 253.597065 
L 100.581572 255.07506 
L 100.764992 252.901529 
L 100.826133 255.364873 
L 100.887273 252.901529 
L 100.948413 253.336241 
L 101.009553 254.408514 
L 101.254114 250.727998 
L 101.376394 252.901529 
L 101.437535 251.452508 
L 101.620955 250.2933 
L 101.865516 252.321932 
L 102.110077 254.089726 
L 102.476918 252.032119 
L 102.538059 250.2933 
L 102.660339 253.046443 
L 102.721479 252.321932 
L 102.9049 252.785616 
L 102.96604 253.394202 
L 103.02718 252.177019 
L 103.08832 252.814594 
L 103.149461 253.075417 
L 103.394022 255.046086 
L 103.577442 258.552714 
L 103.822003 261.305856 
L 103.944284 254.988125 
L 104.005424 258.465775 
L 104.311125 253.394202 
L 104.372265 257.103693 
L 104.433405 256.668995 
L 104.616826 257.538405 
L 104.677966 256.668995 
L 104.800247 260.001734 
L 104.861387 258.987426 
L 105.228228 256.234283 
L 105.289368 256.379182 
L 105.472789 256.437146 
L 105.533929 257.248592 
L 105.71735 255.799571 
L 105.90077 255.10405 
L 105.961911 254.205651 
L 106.023051 255.567733 
L 106.084191 254.060752 
L 106.145331 255.944485 
L 106.328752 253.944827 
L 106.389892 254.060752 
L 106.512173 255.133024 
L 106.573313 254.640363 
L 106.756733 254.930161 
L 107.001294 250.438199 
L 107.184715 250.583098 
L 107.245855 251.452508 
L 107.306995 251.16271 
L 107.612696 252.032119 
L 107.673837 252.611731 
L 107.734977 250.583098 
L 107.796117 251.278634 
L 107.857257 252.582756 
L 108.040678 250.49616 
L 108.224099 254.814237 
L 108.285239 254.495464 
L 108.468659 255.480798 
L 108.59094 252.84358 
L 108.65208 254.8722 
L 108.896641 253.046443 
L 108.957781 254.234637 
L 109.018921 252.84358 
L 109.080062 253.191342 
L 109.324622 253.684003 
L 109.385763 252.611731 
L 109.446903 254.14769 
L 109.569183 251.945181 
L 109.752604 250.003487 
L 109.936025 252.75663 
L 109.997165 252.379882 
L 110.180586 252.263969 
L 110.241726 251.626396 
L 110.302866 251.684357 
L 110.425146 252.466831 
L 110.608567 252.84358 
L 110.669707 252.785616 
L 110.791988 251.481497 
L 110.853128 250.872911 
L 111.097689 251.017811 
L 111.158829 248.960204 
L 111.219969 249.134078 
L 111.281109 250.525138 
L 111.647951 246.670748 
L 111.709091 246.699722 
L 111.892512 246.786672 
L 112.075932 244.062504 
L 112.137072 244.091491 
L 112.320493 244.844979 
L 112.381633 243.74372 
L 112.565054 247.598118 
L 112.748475 248.032819 
L 112.809615 247.714043 
L 112.870755 248.003844 
L 112.931895 249.134078 
L 112.993035 248.61243 
L 113.176456 249.192041 
L 113.237596 250.583098 
L 113.298737 250.351261 
L 113.359877 250.148401 
L 113.604438 250.148401 
L 113.726718 251.452508 
L 113.787858 250.843922 
L 113.848998 252.408868 
L 114.032419 251.539458 
L 114.21584 253.56809 
L 114.27698 251.88722 
L 114.460401 251.017811 
L 114.521541 252.148044 
L 114.582681 251.249648 
L 114.643821 251.191684 
L 114.704961 252.611731 
L 114.949522 251.16271 
L 115.010663 251.365573 
L 115.071803 250.814948 
L 115.132943 251.684357 
L 115.316364 251.88722 
L 115.377504 251.307609 
L 115.438644 252.177019 
L 115.499784 251.568433 
L 115.560924 249.42389 
L 115.744345 248.989178 
L 115.866626 248.119769 
L 115.927766 248.264668 
L 115.988906 247.714043 
L 116.172327 247.94588 
L 116.233467 247.88792 
L 116.294607 248.989178 
L 116.416888 247.482197 
L 116.600308 249.42389 
L 116.844869 245.946237 
L 117.08943 245.250701 
L 117.21171 244.642116 
L 117.272851 244.642116 
L 117.456271 244.352317 
L 117.517411 243.917605 
L 117.700832 244.642116 
L 117.884253 245.511525 
L 118.067673 248.264668 
L 118.128814 247.97487 
L 118.312234 248.554466 
L 118.373374 248.119769 
L 118.434515 246.438899 
L 118.495655 247.250359 
L 118.801356 248.206707 
L 118.862496 247.772007 
L 118.984777 244.931914 
L 119.168197 245.047839 
L 119.229337 245.250701 
L 119.290478 243.859644 
L 119.351618 243.917605 
L 119.412758 244.352317 
L 119.657319 243.337994 
L 119.718459 242.468584 
L 119.779599 243.222069 
L 119.84074 242.004898 
L 120.0853 242.816346 
L 120.207581 247.250359 
L 120.268721 247.192395 
L 120.574422 244.642116 
L 120.696703 249.134078 
L 120.880123 247.772007 
L 121.124684 250.727998 
L 121.308105 251.713335 
L 121.369245 250.090437 
L 121.430385 250.148401 
L 121.491525 250.467174 
L 121.552666 249.42389 
L 121.858367 253.162356 
L 121.980647 251.481497 
L 122.164068 251.945181 
L 122.225208 251.88722 
L 122.408629 249.221028 
L 122.592049 248.989178 
L 122.65319 249.510826 
L 122.71433 249.134078 
L 122.77547 249.510826 
L 122.83661 247.163409 
L 123.020031 247.829956 
L 123.203451 244.729054 
L 123.448012 244.902939 
L 123.509153 244.787015 
L 123.692573 240.324027 
L 123.937134 241.019563 
L 124.120555 239.396657 
L 124.303975 238.556234 
L 124.426256 236.150853 
L 124.731957 235.658192 
L 124.793097 234.441008 
L 124.976518 237.54191 
L 125.221079 236.324738 
L 125.404499 237.831723 
L 125.64906 237.397011 
L 125.771341 234.701832 
L 125.832481 234.933681 
L 126.015901 235.803091 
L 126.077042 234.701832 
L 126.138182 234.788768 
L 126.199322 234.614894 
L 126.260462 235.513278 
L 126.443883 235.194505 
L 126.566163 238.701133 
L 126.688444 238.179482 
L 126.871864 237.947636 
L 126.994145 235.919015 
L 127.116425 233.368736 
L 127.360986 232.470337 
L 127.483267 233.339747 
L 127.544407 232.470337 
L 127.727827 232.383399 
L 127.911248 231.253165 
L 127.972388 231.716852 
L 128.155809 231.369078 
L 128.40037 233.861397 
L 128.706071 230.151906 
L 128.828351 234.643868 
L 129.072912 233.194847 
L 129.134052 232.354412 
L 129.195193 232.76015 
L 129.256333 232.441362 
L 129.623174 238.266421 
L 129.684314 237.831723 
L 129.867735 236.324738 
L 130.051156 233.339747 
L 130.112296 233.078923 
L 130.295716 233.136887 
L 130.723698 231.021316 
L 130.784838 229.021673 
L 130.845978 231.369078 
L 130.968259 228.00735 
L 131.15168 227.688577 
L 131.21282 228.065313 
L 131.27396 231.427042 
L 131.3351 231.050302 
L 131.39624 229.427396 
L 131.579661 229.427396 
L 131.640801 229.949043 
L 131.701941 228.181238 
L 131.763082 229.427396 
L 131.824222 230.441705 
L 132.007643 230.441705 
L 132.191063 227.543663 
L 132.496764 232.180539 
L 132.557904 232.267477 
L 132.680185 230.731518 
L 132.863606 229.282497 
L 133.047026 231.427042 
L 133.108166 230.209867 
L 133.291587 231.137241 
L 133.413867 227.891437 
L 133.475008 228.268173 
L 133.536148 229.862108 
L 133.780709 228.702885 
L 133.841849 227.688577 
L 133.902989 228.0943 
L 133.964129 228.702885 
L 134.14755 227.253864 
L 134.20869 227.282839 
L 134.269831 229.137597 
L 134.330971 228.268173 
L 134.636672 227.22489 
L 134.758952 224.935434 
L 134.820092 225.022372 
L 135.003513 224.67461 
L 135.064653 226.007707 
L 135.186934 223.457427 
L 135.248074 223.544374 
L 135.492635 226.529354 
L 135.614915 225.717905 
L 135.676055 226.094642 
L 135.920616 224.935434 
L 136.042897 222.935776 
L 136.104037 223.051701 
L 136.348598 224.066024 
L 136.409738 224.500722 
L 136.532018 222.32719 
L 136.715439 222.037392 
L 136.776579 222.211266 
L 136.83772 222.095353 
L 136.89886 224.037035 
L 136.96 223.573351 
L 137.143421 223.573351 
L 137.204561 223.428449 
L 137.265701 223.631312 
L 137.387982 221.081032 
L 137.632542 220.530407 
L 137.693683 218.965462 
L 137.815963 222.703939 
L 137.999384 223.660287 
L 138.060524 222.877827 
L 138.243945 225.630958 
L 138.427365 224.297862 
L 138.549646 226.094642 
L 138.671926 223.805198 
L 138.855347 223.051701 
L 138.977627 224.471747 
L 139.038767 224.355823 
L 139.099908 223.28355 
L 139.283328 223.341514 
L 139.344468 223.660287 
L 139.527889 218.6177 
L 139.77245 218.356876 
L 139.83359 218.559739 
L 139.955871 216.849894 
L 140.139291 217.02378 
L 140.200431 216.73397 
L 140.261572 216.965819 
L 140.322712 217.661343 
L 140.567273 214.560438 
L 140.628413 214.212676 
L 140.689553 212.184044 
L 140.811834 216.676006 
L 140.995254 216.676006 
L 141.117535 214.444525 
L 141.178675 215.226985 
L 141.239815 214.357575 
L 141.423236 213.488166 
L 141.667797 210.445225 
L 141.851217 209.865613 
L 142.034638 214.096752 
L 142.095778 212.908554 
L 142.279199 213.343267 
L 142.401479 214.792287 
L 142.52376 213.082443 
L 142.70718 213.922878 
L 142.76832 213.51714 
L 142.829461 211.749346 
L 142.951741 214.734324 
L 143.135162 211.604433 
L 143.196302 214.038791 
L 143.257442 212.763655 
L 143.379723 209.865613 
L 143.563143 208.851305 
L 143.685424 211.865259 
L 143.746564 211.169735 
L 143.807704 211.314634 
L 143.991125 209.488865 
L 144.052265 211.314634 
L 144.113405 211.024836 
L 144.174545 209.488865 
L 144.235686 209.575815 
L 144.419106 208.764355 
L 144.663667 205.257727 
L 144.847088 204.996903 
L 145.091649 210.735023 
L 145.275069 209.054165 
L 145.33621 209.45989 
L 145.39735 211.720357 
L 145.45849 210.155412 
L 145.51963 208.996204 
L 145.703051 208.561492 
L 145.764191 208.706391 
L 145.825331 208.271693 
L 145.886471 208.474553 
L 145.947612 210.879922 
L 146.131032 209.720714 
L 146.253313 205.46059 
L 146.314453 206.243061 
L 146.559014 204.649141 
L 146.681294 207.518197 
L 146.742435 206.590823 
L 146.803575 206.938597 
L 146.986995 206.909611 
L 147.170416 211.894246 
L 147.231556 209.517851 
L 147.476117 210.358275 
L 147.598398 208.155769 
L 147.659538 208.242707 
L 147.904099 207.112471 
L 147.965239 205.66345 
L 148.026379 207.98188 
L 148.087519 207.547183 
L 148.27094 207.141457 
L 148.39322 205.518551 
L 148.454361 206.272036 
L 148.515501 205.895299 
L 148.698921 205.518551 
L 148.821202 200.215128 
L 149.126903 195.027642 
L 149.188043 195.810116 
L 149.371464 191.492028 
L 149.554884 191.752852 
L 149.677165 189.81117 
L 149.738305 184.652646 
L 149.799445 186.30453 
L 150.044006 182.334216 
L 150.105146 185.232258 
L 150.410847 171.437584 
L 150.471988 172.278008 
L 150.533128 174.944212 
L 150.594268 173.060479 
L 150.655408 171.843307 
L 150.838829 170.510199 
L 150.961109 171.901271 
L 151.08339 179.812922 
L 151.327951 177.146718 
L 151.389091 180.885195 
L 151.450231 178.334915 
L 151.694792 173.205378 
L 151.878213 180.015785 
L 152.245054 184.797546 
L 152.367334 180.595397 
L 152.550755 178.132052 
L 152.673035 180.160684 
L 152.734176 176.972844 
L 152.795316 178.711664 
L 153.039877 181.05908 
L 153.101017 180.450483 
L 153.406718 193.491671 
L 153.528998 186.536379 
L 153.590139 187.9854 
L 153.651279 182.971788 
L 153.89584 181.001119 
L 154.01812 188.565012 
L 154.07926 191.028341 
L 154.323821 188.622961 
L 154.384961 190.014033 
L 154.507242 186.536379 
L 154.751803 188.043361 
L 155.179784 199.722467 
L 155.363205 195.868065 
L 155.546626 197.172187 
L 155.791186 191.31814 
L 156.035747 189.57932 
L 156.096888 191.173241 
L 156.219168 188.999709 
L 156.402589 188.709911 
L 156.463729 187.782537 
L 156.524869 188.536023 
L 156.586009 189.57932 
L 156.647149 186.101667 
L 156.89171 185.956768 
L 157.075131 178.595739 
L 157.258552 177.697355 
L 157.503112 183.435475 
L 157.686533 185.724919 
L 157.747673 182.768928 
L 157.808814 184.333862 
L 157.931094 187.405789 
L 158.175655 185.058372 
L 158.236795 179.436174 
L 158.297935 184.797546 
L 158.359076 181.812568 
L 158.542496 182.653003 
L 158.603636 180.972133 
L 158.664777 181.203982 
L 158.725917 181.203982 
L 158.787057 184.971434 
L 158.970478 186.623318 
L 159.153898 184.507747 
L 159.215039 186.101667 
L 159.398459 181.030094 
L 159.459599 181.319907 
L 159.52074 181.464806 
L 159.58188 181.406842 
L 159.64302 180.76927 
L 159.826441 183.116687 
L 159.887581 182.739939 
L 159.948721 180.624371 
L 160.071002 185.116333 
L 160.254422 184.797546 
L 160.498983 177.987153 
L 160.682404 178.132052 
L 160.804684 183.638338 
L 160.865824 186.246567 
L 160.926965 185.174297 
L 161.110385 182.218291 
L 161.293806 184.217949 
L 161.538367 183.087701 
L 161.599507 185.435121 
L 161.660647 184.362848 
L 161.782928 176.393233 
L 162.027488 179.088412 
L 162.39433 172.625781 
L 162.51661 175.060137 
L 162.638891 172.191069 
L 163.005732 165.496599 
L 163.250293 170.162437 
L 163.372573 167.409295 
L 163.433713 167.844007 
L 163.494854 167.525219 
L 163.678274 170.597149 
L 163.861695 184.652646 
L 163.922835 183.551388 
L 164.106256 182.044417 
L 164.350817 187.26089 
L 164.534237 183.638338 
L 164.778798 194.563955 
L 164.962219 194.477008 
L 165.084499 188.85481 
L 165.20678 192.332463 
L 165.3902 189.492382 
L 165.451341 192.216539 
L 165.512481 191.028341 
L 165.634761 185.029395 
L 165.818182 187.26089 
L 165.879322 190.129946 
L 165.940462 188.507048 
L 166.001602 188.709911 
L 166.062743 191.636927 
L 166.246163 190.100968 
L 166.368444 191.347129 
L 166.490724 186.39148 
L 166.674145 185.203283 
L 166.735285 182.189317 
L 166.796425 182.392177 
L 166.918706 180.33457 
L 167.163267 183.783237 
L 167.224407 186.072693 
L 167.285547 185.609006 
L 167.346687 182.566065 
L 167.530108 182.681978 
L 167.652388 181.261943 
L 167.713529 183.174651 
L 167.774669 183.087701 
L 167.958089 184.333862 
L 168.14151 181.290918 
L 168.20265 181.986454 
L 168.447211 187.637638 
L 168.508351 186.449429 
L 168.569492 187.318851 
L 168.630632 190.303831 
L 168.875193 189.57932 
L 168.936333 192.332463 
L 168.997473 191.752852 
L 169.058613 192.187564 
L 169.303174 191.260191 
L 169.364314 184.942459 
L 169.425455 185.029395 
L 169.486595 184.478773 
L 169.670015 181.464806 
L 169.731156 183.203626 
L 169.792296 181.812568 
L 169.853436 179.436174 
L 169.914576 182.305241 
L 170.220277 175.90056 
L 170.281418 178.914526 
L 170.342558 175.639736 
L 170.525978 179.349236 
L 170.648259 177.001819 
L 170.770539 179.841897 
L 170.95396 172.538832 
L 171.0151 172.91558 
L 171.07624 172.857619 
L 171.198521 176.10342 
L 171.381941 175.958521 
L 171.443082 176.277308 
L 171.504222 180.885195 
L 171.565362 179.291275 
L 171.809923 182.537079 
L 171.871063 183.029752 
L 172.054484 179.812922 
L 172.299045 177.987153 
L 172.421325 180.85622 
L 172.482465 179.899861 
L 172.665886 180.305584 
L 172.727026 182.276255 
L 172.788166 182.073392 
L 172.910447 178.479814 
L 173.093867 178.132052 
L 173.216148 182.479115 
L 173.277288 181.05908 
L 173.338428 184.015086 
L 173.521849 181.812568 
L 173.582989 182.189317 
L 173.76641 175.668722 
L 174.072111 179.059426 
L 174.194391 177.552441 
L 174.377812 177.668366 
L 174.438952 176.683031 
L 174.500092 178.132052 
L 174.561233 177.262643 
L 174.622373 178.276951 
L 174.805794 176.943855 
L 174.866934 179.001462 
L 174.928074 176.161384 
L 174.989214 176.248334 
L 175.050354 175.755661 
L 175.233775 175.37891 
L 175.294915 174.5095 
L 175.356055 174.944212 
L 175.417196 177.146718 
L 175.661757 175.262997 
L 175.906317 168.713428 
L 176.150878 166.829698 
L 176.212018 169.350988 
L 176.273159 176.538132 
L 176.334299 173.437227 
L 176.57886 169.814675 
L 176.64 167.554208 
L 176.70114 169.959577 
L 176.76228 169.582826 
L 177.067982 170.742048 
L 177.129122 169.003229 
L 177.373683 176.509158 
L 177.434823 174.770324 
L 177.618243 181.174993 
L 177.801664 181.030094 
L 177.862804 177.117743 
L 177.923945 180.885195 
L 177.985085 178.624725 
L 178.046225 176.451194 
L 178.290786 175.958521 
L 178.351926 180.276609 
L 178.413066 179.725972 
L 178.474206 176.538132 
L 178.657627 174.799313 
L 178.841048 185.58002 
L 178.902188 181.203982 
L 179.085609 183.638338 
L 179.207889 190.593629 
L 179.330169 183.928136 
L 179.51359 184.449786 
L 179.635871 188.565012 
L 179.758151 186.246567 
L 179.941572 186.39148 
L 180.186133 173.205378 
L 180.369553 175.668722 
L 180.491834 175.37891 
L 180.614114 170.162437 
L 180.797535 172.191069 
L 180.858675 171.611458 
L 181.042096 167.641144 
L 181.225516 167.844007 
L 181.286656 168.133805 
L 181.347797 167.496233 
L 181.408937 167.988917 
L 181.470077 167.641144 
L 181.653498 168.278719 
L 181.836918 159.439679 
L 181.898059 162.772433 
L 182.32604 155.962041 
L 182.570601 154.107294 
L 182.631741 152.803164 
L 182.692881 155.179555 
L 182.754022 153.788509 
L 182.937442 153.237873 
L 182.998582 152.194575 
L 183.120863 160.077254 
L 183.182003 156.541638 
L 183.609985 149.818183 
L 183.915686 153.55666 
L 184.037966 158.135572 
L 184.282527 158.628234 
L 184.343667 156.280825 
L 184.404807 160.598902 
L 184.465948 158.599247 
L 184.771649 166.916633 
L 184.893929 166.684784 
L 185.07735 166.684784 
L 185.13849 162.076909 
L 185.19963 164.916979 
L 185.26077 168.423606 
L 185.321911 165.583537 
L 185.505331 167.554208 
L 185.566471 166.221109 
L 185.749892 160.077254 
L 185.933313 159.758467 
L 186.055593 164.974951 
L 186.116733 159.845405 
L 186.177874 160.598902 
L 186.361294 158.396384 
L 186.422435 162.888358 
L 186.483575 161.033614 
L 186.544715 160.946676 
L 186.605855 157.469011 
L 186.789276 156.39675 
L 186.850416 152.397438 
L 186.911556 153.353797 
L 187.033837 151.87579 
L 187.217257 155.23753 
L 187.400678 146.108693 
L 187.461818 147.673638 
L 187.645239 148.572023 
L 187.706379 149.905122 
L 187.767519 147.325865 
L 187.828659 149.84717 
L 187.8898 147.73159 
L 188.07322 145.644994 
L 188.317781 138.718677 
L 188.501202 140.022811 
L 188.562342 139.066451 
L 188.623482 140.312609 
L 188.684622 137.559478 
L 188.745763 146.253604 
L 189.051464 143.152699 
L 189.173744 146.398491 
L 189.418305 144.22496 
L 189.601726 132.256056 
L 189.785146 131.038884 
L 189.846287 128.401654 
L 189.907427 129.242089 
L 190.029707 133.936926 
L 190.213128 136.690057 
L 190.274268 136.51618 
L 190.457689 125.967311 
L 190.641109 130.864987 
L 190.70225 136.545146 
L 190.76339 132.053196 
L 190.88567 134.516525 
L 191.130231 135.93656 
L 191.313652 131.589497 
L 191.619353 133.763029 
L 191.741633 144.804583 
L 191.925054 140.660383 
L 192.108475 149.035721 
L 192.169615 148.398149 
L 192.414176 144.659672 
L 192.475316 147.5867 
L 192.536456 144.167011 
L 192.597596 144.659672 
L 192.964438 138.515814 
L 193.025578 140.631397 
L 193.270139 141.906541 
L 193.453559 137.414567 
L 193.69812 134.922248 
L 193.820401 139.50116 
L 193.881541 136.081471 
L 194.126102 137.994167 
L 194.187242 134.806324 
L 194.248382 136.863933 
L 194.309522 136.661071 
L 194.676364 138.515814 
L 194.737504 136.574132 
L 194.920924 135.907594 
L 194.982065 137.733355 
L 195.104345 149.296533 
L 195.165485 149.151645 
L 195.348906 153.788509 
L 195.532327 145.673981 
L 195.593467 146.253604 
L 195.899168 151.614978 
L 196.021448 149.673293 
L 196.204869 151.557003 
L 196.632851 136.139423 
L 196.693991 136.342283 
L 196.755131 134.052827 
L 196.816271 135.009187 
L 196.877411 133.821001 
L 197.060832 136.400258 
L 197.244253 131.328685 
L 197.488814 132.285042 
L 197.549954 132.198083 
L 197.611094 129.879664 
L 197.672234 131.705422 
L 197.733374 130.169463 
L 197.916795 129.76374 
L 197.977935 127.937979 
L 198.039076 128.22778 
L 198.100216 128.923305 
L 198.344777 124.373379 
L 198.467057 126.286098 
L 198.589337 122.228834 
L 198.772758 122.054937 
L 198.833898 124.373379 
L 198.895039 123.417019 
L 198.956179 123.417019 
L 199.017319 120.026316 
L 199.20074 121.475337 
L 199.26188 121.272474 
L 199.32302 119.475682 
L 199.38416 119.852439 
L 199.4453 123.822745 
L 199.628721 119.41773 
L 199.689861 119.99733 
L 199.751002 120.490014 
L 200.056703 113.013061 
L 200.178983 113.882459 
L 200.240123 113.708585 
L 200.301263 115.215555 
L 200.545824 113.44777 
L 200.606965 116.606627 
L 200.668105 111.621989 
L 200.729245 112.607335 
L 201.034946 110.839529 
L 201.157227 117.794833 
L 201.401787 114.896791 
L 201.462928 116.200901 
L 201.768629 105.275295 
L 201.829769 104.985473 
L 201.890909 105.883881 
L 201.952049 113.186934 
L 202.01319 110.752591 
L 202.318891 119.098943 
L 202.441171 110.897478 
L 202.624592 109.88317 
L 202.869153 106.608391 
L 203.113713 102.782976 
L 203.174854 104.376884 
L 203.297134 94.813361 
L 203.480555 95.885622 
L 203.541695 93.451278 
L 203.602835 97.363629 
L 203.725116 88.11887 
L 203.908536 88.350719 
L 203.969676 86.640883 
L 204.336518 105.536107 
L 204.397658 103.304623 
L 204.581079 109.535396 
L 204.764499 117.273185 
L 204.88678 106.376542 
L 204.94792 106.434494 
L 205.00906 115.650267 
L 205.192481 107.738624 
L 205.375901 120.461028 
L 205.437042 116.287839 
L 205.681602 109.88317 
L 205.742743 112.114653 
L 205.803883 111.18728 
L 205.865023 112.056701 
L 206.048444 108.115361 
L 206.109584 108.839872 
L 206.170724 112.810198 
L 206.293005 103.971161 
L 206.537565 107.535762 
L 206.659846 100.696383 
L 206.720986 103.449514 
L 206.965547 107.883515 
L 207.148968 99.450225 
L 207.332388 98.291002 
L 207.576949 85.626551 
L 207.76037 87.916007 
L 207.82151 91.973271 
L 208.004931 84.873077 
L 208.188351 86.843746 
L 208.249492 84.322441 
L 208.432912 90.466298 
L 208.616333 92.20512 
L 208.738613 89.046243 
L 208.799753 83.510995 
L 208.860894 84.960016 
L 209.166595 79.221881 
L 209.227735 80.526014 
L 209.288875 80.323151 
L 209.594576 91.422634 
L 209.716857 86.003311 
L 209.900277 87.104558 
L 209.961418 85.452677 
L 210.144838 97.740369 
L 210.328259 102.580113 
L 210.450539 94.581512 
L 210.57282 97.015858 
L 210.817381 110.317882 
L 210.878521 101.304969 
L 210.939661 106.405528 
L 211.000801 107.97045 
L 211.184222 109.506433 
L 211.245362 108.492101 
L 211.306502 99.855948 
L 211.428783 102.493154 
L 211.612203 99.392249 
L 211.673344 107.76759 
L 211.734484 102.985839 
L 212.040185 96.92892 
L 212.101325 99.218376 
L 212.162465 97.537506 
L 212.284746 90.321387 
L 212.468166 88.872366 
L 212.529307 87.104558 
L 212.651587 90.205463 
L 212.712727 87.684157 
L 212.896148 92.060206 
L 212.957288 91.857346 
L 213.079569 89.538925 
L 213.140709 86.003311 
L 213.44641 83.279145 
L 213.50755 80.004364 
L 213.56869 82.206861 
L 213.752111 80.583964 
L 213.935532 82.757495 
L 214.302373 93.625152 
L 214.424653 91.016911 
L 214.608074 91.509596 
L 214.791495 101.275982 
L 214.852635 111.332191 
L 215.097196 122.924358 
L 215.158336 122.895372 
L 215.280616 103.507486 
L 215.464037 112.781211 
L 215.525177 107.796577 
L 215.586317 109.767245 
L 215.647458 110.694618 
L 215.708598 100.609444 
L 215.892018 105.420182 
L 216.075439 120.113254 
L 216.136579 117.128274 
L 216.32 117.562986 
L 216.503421 106.550416 
L 216.564561 107.883515 
L 216.931402 100.580458 
L 216.992542 101.304969 
L 217.175963 102.145404 
L 217.298243 95.682759 
L 217.359384 96.494208 
L 217.420524 97.50854 
L 217.603945 103.130726 
L 217.665085 101.275982 
L 217.726225 103.217665 
L 217.787365 102.840928 
L 217.848505 111.593003 
L 218.031926 114.954743 
L 218.276487 100.49352 
L 218.459908 111.679964 
L 218.582188 100.290657 
L 218.643328 110.810543 
L 218.887889 107.941487 
L 218.949029 104.78261 
L 219.010169 107.76759 
L 219.07131 103.159713 
L 219.13245 105.391196 
L 219.315871 106.434494 
L 219.377011 109.013748 
L 219.560431 98.348954 
L 219.743852 95.914608 
L 219.804992 97.624444 
L 219.866133 94.755388 
L 219.927273 95.306022 
L 219.988413 97.13178 
L 220.171834 97.595478 
L 220.416394 84.206516 
L 220.722096 81.569309 
L 220.844376 84.641228 
L 221.150077 87.423345 
L 221.272357 93.799029 
L 221.455778 94.813361 
L 221.516918 96.030533 
L 221.578059 93.741077 
L 221.639199 96.841981 
L 221.700339 95.769697 
L 221.88376 98.493865 
L 222.06718 92.98758 
L 222.12832 88.582568 
L 222.311741 85.510626 
L 222.434022 80.526014 
L 222.862003 96.465245 
L 222.923143 94.320676 
L 222.984284 95.161111 
L 223.228844 100.667397 
L 223.289985 107.564727 
L 223.351125 104.811596 
L 223.412265 94.552525 
L 223.595686 100.870257 
L 223.717966 97.421581 
L 223.840247 104.000148 
L 224.023667 98.319988 
L 224.084807 100.11676 
L 224.145948 99.508174 
L 224.207088 99.624099 
L 224.268228 104.666686 
L 224.451649 108.14435 
L 224.512789 101.102106 
L 224.573929 101.913555 
L 224.635069 100.63841 
L 224.69621 103.101763 
L 224.87963 103.188699 
L 225.001911 98.291002 
L 225.063051 99.826962 
L 225.307612 100.145746 
L 225.491032 110.462769 
L 225.552173 104.724658 
L 225.735593 105.536107 
L 225.796733 106.550416 
L 225.980154 121.0986 
L 226.285855 114.288185 
L 226.408136 119.99733 
L 226.591556 117.505011 
L 226.652696 120.518977 
L 226.713837 120.316114 
L 226.774977 117.649922 
L 226.836117 121.330426 
L 227.019538 123.996642 
L 227.080678 133.067504 
L 227.141818 127.271421 
L 227.202958 126.749773 
L 227.264099 131.908282 
L 227.508659 127.068558 
L 227.5698 132.169117 
L 227.63094 129.879664 
L 227.69208 131.357671 
L 227.875501 130.285387 
L 227.936641 133.415278 
L 228.120062 122.924358 
L 228.303482 122.141895 
L 228.364622 126.344047 
L 228.548043 118.577295 
L 228.976025 134.516525 
L 229.159445 132.314008 
L 229.220586 134.313662 
L 229.281726 140.660383 
L 229.342866 138.689711 
L 229.404006 135.907594 
L 229.587427 137.588444 
L 229.648567 146.137679 
L 229.831988 121.504323 
L 230.015408 122.344758 
L 230.137689 128.865352 
L 230.259969 125.735461 
L 230.44339 126.054249 
L 230.50453 135.617773 
L 230.56567 131.06785 
L 230.687951 129.155154 
L 230.871371 135.530834 
L 230.932512 128.720442 
L 230.993652 137.849279 
L 231.054792 129.879664 
L 231.115932 169.69875 
L 231.299353 166.684784 
L 231.360493 137.269656 
L 231.421633 149.702259 
L 231.482773 171.292674 
L 231.543914 160.453991 
L 231.788475 144.804583 
L 231.971895 169.264041 
L 232.216456 155.179555 
L 232.338737 137.414567 
L 232.583297 141.906541 
L 232.705578 133.792015 
L 232.827858 150.513708 
L 233.011279 137.124769 
L 233.1947 153.237873 
L 233.25584 140.892209 
L 233.500401 141.76163 
L 233.561541 133.936926 
L 233.683821 152.542349 
L 233.928382 127.590208 
L 233.989522 130.517236 
L 234.111803 123.330081 
L 234.295223 129.039229 
L 234.356364 135.704734 
L 234.417504 134.052827 
L 234.478644 130.053538 
L 234.539784 135.472885 
L 234.906626 121.967998 
L 234.967766 128.604517 
L 235.151186 119.098943 
L 235.212327 121.736149 
L 235.273467 115.47639 
L 235.579168 136.805981 
L 235.640308 135.965546 
L 235.701448 138.515814 
L 236.25171 122.750481 
L 236.496271 116.722551 
L 236.618552 128.981254 
L 236.679692 126.170174 
L 236.924253 133.183429 
L 236.985393 131.502559 
L 237.046533 138.283988 
L 237.107673 129.821689 
L 237.352234 131.386634 
L 237.413374 133.792015 
L 237.474515 129.618829 
L 237.535655 133.357303 
L 237.841356 124.750116 
L 237.902496 129.937613 
L 237.963636 127.995931 
L 238.147057 134.342649 
L 238.575039 121.794125 
L 238.697319 132.748717 
L 238.758459 141.558767 
L 238.819599 137.443553 
L 239.247581 149.180611 
L 239.431002 145.384182 
L 239.492142 152.716225 
L 239.553282 147.847512 
L 239.614422 146.775251 
L 239.858983 160.598902 
L 240.103544 172.24903 
L 240.286965 172.538832 
L 240.409245 159.497655 
L 240.470385 163.467958 
L 240.531525 159.468669 
L 240.776086 161.149536 
L 240.898367 150.745554 
L 240.959507 155.846116 
L 241.142928 160.627888 
L 241.326348 149.934108 
L 241.570909 156.135915 
L 241.632049 154.686894 
L 241.69319 160.482977 
L 241.75433 149.789197 
L 241.81547 152.600301 
L 241.998891 152.890099 
L 242.121171 156.048976 
L 242.182311 152.049687 
L 242.426872 155.846116 
L 242.488012 159.903378 
L 242.549153 158.889069 
L 242.610293 155.933052 
L 242.671433 158.164558 
L 242.915994 165.554551 
L 242.977134 164.540242 
L 243.038274 165.496599 
L 243.099414 162.888358 
L 243.282835 165.554551 
L 243.343975 165.351688 
L 243.466256 155.846116 
L 243.527396 160.222165 
L 243.710817 156.251839 
L 243.833097 157.584936 
L 243.955378 153.643596 
L 244.138798 153.41175 
L 244.261079 151.962729 
L 244.383359 153.904431 
L 244.56678 152.658273 
L 244.68906 149.006735 
L 244.811341 155.904065 
L 245.055901 156.570627 
L 245.117042 152.484376 
L 245.178182 156.135915 
L 245.239322 152.484376 
L 245.422743 150.57168 
L 245.667304 142.48614 
L 245.850724 144.717624 
L 246.034145 140.312609 
L 246.278706 144.253949 
L 246.339846 142.225328 
L 246.400986 148.832858 
L 246.462126 148.340176 
L 246.523267 146.543405 
L 246.890108 156.802473 
L 246.951248 152.861136 
L 247.134669 153.498708 
L 247.256949 149.963094 
L 247.318089 153.150934 
L 247.807211 166.105187 
L 247.990632 165.902324 
L 248.235193 156.831439 
L 248.540894 152.25255 
L 248.602034 152.426424 
L 248.663174 147.963437 
L 248.846595 144.920484 
L 249.030015 151.035355 
L 249.091156 150.861478 
L 249.274576 149.122659 
L 249.457997 151.87579 
L 249.519137 151.87579 
L 249.824838 157.034302 
L 249.885978 154.165246 
L 249.947119 156.193887 
L 250.25282 163.236132 
L 250.3751 153.498708 
L 250.558521 151.788852 
L 250.619661 146.978114 
L 250.680801 151.759866 
L 250.741941 148.803872 
L 250.803082 148.427135 
L 251.108783 156.686551 
L 251.169923 156.338778 
L 251.231063 157.063288 
L 251.659045 149.325522 
L 251.842465 154.484031 
L 251.903606 151.383129 
L 251.964746 152.310499 
L 252.025886 152.049687 
L 252.087026 151.122314 
L 252.270447 154.368106 
L 252.331587 151.817838 
L 252.392727 152.281513 
L 252.515008 155.208541 
L 252.698428 155.353452 
L 252.759569 153.75952 
L 252.820709 154.86077 
L 253.12641 161.207488 
L 253.309831 154.889757 
L 253.370971 154.918743 
L 253.554391 153.324811 
L 253.798952 143.993114 
L 254.043513 142.109404 
L 254.104653 144.22496 
L 254.165794 143.152699 
L 254.226934 139.356249 
L 254.410354 140.863243 
L 254.471495 142.34123 
L 254.532635 138.805636 
L 254.593775 144.456809 
L 254.654915 142.138367 
L 254.899476 148.079361 
L 254.960616 145.90583 
L 255.021757 146.253604 
L 255.082897 146.63034 
L 255.266317 143.326575 
L 255.327458 144.775596 
L 255.388598 143.094726 
L 255.449738 144.138024 
L 255.510878 145.963782 
L 255.816579 136.690057 
L 255.87772 138.081126 
L 255.93886 139.211362 
L 256.244561 134.516525 
L 256.366841 138.428876 
L 256.550262 138.892574 
L 256.611402 134.516525 
L 256.672542 134.603464 
L 257.406225 149.586334 
L 257.589646 156.657562 
L 257.650786 156.077962 
L 257.834206 156.338778 
L 257.956487 155.527329 
L 258.017627 156.686551 
L 258.323328 153.991369 
L 258.384468 155.643253 
L 258.445609 155.266517 
L 258.690169 155.614267 
L 258.87359 152.194575 
L 258.93473 152.803164 
L 259.118151 152.078653 
L 259.179291 152.716225 
L 259.240431 152.020701 
L 259.301572 153.237873 
L 259.362712 152.919085 
L 259.729553 157.353086 
L 259.790693 161.989971 
L 259.974114 161.903012 
L 260.035254 164.540242 
L 260.096394 164.482266 
L 260.157535 163.931656 
L 260.218675 165.960274 
L 260.402096 164.163502 
L 260.524376 160.946676 
L 260.646656 167.264407 
L 260.830077 166.655798 
L 260.891217 166.076198 
L 260.952357 166.163137 
L 261.074638 167.496233 
L 261.319199 165.119841 
L 261.380339 162.511621 
L 261.441479 164.076544 
L 261.502619 164.685153 
L 261.68604 163.207145 
L 261.869461 167.525219 
L 261.930601 165.641489 
L 262.114022 165.351688 
L 262.236302 164.163502 
L 262.297442 165.380677 
L 262.542003 161.26546 
L 262.603143 162.56957 
L 262.786564 158.918032 
L 263.031125 161.903012 
L 263.153405 159.149881 
L 263.214545 160.482977 
L 263.397966 162.076909 
L 263.459106 160.772779 
L 263.642527 162.2218 
L 263.825948 161.584225 
L 263.887088 160.048268 
L 263.948228 160.772779 
L 264.009368 159.816439 
L 264.315069 157.729846 
L 264.37621 158.193521 
L 264.43735 160.569916 
L 264.49849 157.382073 
L 264.681911 155.382418 
L 264.743051 156.338778 
L 264.804191 155.614267 
L 265.109892 158.425371 
L 265.232173 154.802818 
L 265.354453 156.251839 
L 265.537874 154.71588 
L 265.599014 154.773832 
L 265.660154 155.179555 
L 265.721294 156.39675 
L 265.782435 155.092617 
L 265.965855 157.382073 
L 266.210416 167.844007 
L 266.393837 165.177814 
L 266.454977 167.496233 
L 266.516117 167.438284 
L 266.577257 166.771722 
L 266.821818 170.046513 
L 266.882958 169.148117 
L 267.066379 183.31955 
L 267.2498 178.740638 
L 267.31094 183.812211 
L 267.37208 180.653346 
L 267.494361 177.378567 
L 267.738921 179.783936 
L 267.800062 182.305241 
L 267.861202 177.320603 
L 267.922342 178.740638 
L 268.166903 181.986454 
L 268.228043 176.306283 
L 268.289183 176.538132 
L 268.533744 174.915226 
L 268.594884 175.407899 
L 268.656025 175.17605 
L 268.961726 169.003229 
L 269.206287 180.450483 
L 269.389707 182.884841 
L 269.573128 189.637281 
L 269.634268 190.014033 
L 269.939969 188.507048 
L 270.001109 183.406488 
L 270.06225 184.478773 
L 270.24567 185.840844 
L 270.30681 182.044417 
L 270.367951 183.145665 
L 270.429091 182.739939 
L 270.490231 184.246923 
L 270.673652 185.724919 
L 270.734792 187.608652 
L 270.795932 183.406488 
L 270.857072 184.623672 
L 270.918213 183.029752 
L 271.101633 181.754605 
L 271.285054 176.769981 
L 271.346194 180.450483 
L 271.529615 179.030451 
L 271.651895 172.596792 
L 271.713035 174.277662 
L 271.774176 175.32096 
L 271.957596 173.466205 
L 272.141017 181.754605 
L 272.202157 181.001119 
L 272.385578 182.044417 
L 272.507858 178.943513 
L 272.630139 183.725276 
L 272.8747 183.899161 
L 272.93584 184.681633 
L 272.99698 182.739939 
L 273.05812 184.594686 
L 273.241541 182.16033 
L 273.302681 184.507747 
L 273.486102 177.407542 
L 273.730663 178.305941 
L 273.791803 178.972487 
L 273.852943 176.538132 
L 273.914083 176.885894 
L 274.097504 176.85692 
L 274.219784 178.682689 
L 274.280924 178.421865 
L 274.342065 177.436528 
L 274.525485 177.871229 
L 274.586626 176.10342 
L 274.647766 176.364247 
L 274.708906 178.016128 
L 274.770046 176.509158 
L 274.953467 175.118086 
L 275.014607 176.161384 
L 275.075747 175.755661 
L 275.503729 171.669422 
L 275.564869 169.408952 
L 275.626009 169.843653 
L 275.992851 166.250075 
L 276.053991 164.540242 
L 276.237411 165.844352 
L 276.481972 162.018937 
L 276.665393 161.526275 
L 276.787673 163.641855 
L 276.848814 162.250786 
L 276.909954 163.207145 
L 277.093374 161.410351 
L 277.337935 153.527674 
L 277.521356 153.382784 
L 277.765917 147.905487 
L 277.949337 148.977748 
L 278.071618 155.266517 
L 278.193898 151.325177 
L 278.377319 151.614978 
L 278.438459 155.382418 
L 278.499599 154.078308 
L 278.62188 153.933397 
L 278.866441 156.106928 
L 278.988721 148.456101 
L 279.049861 148.977748 
L 279.233282 148.427135 
L 279.416703 145.963782 
L 279.661263 144.920484 
L 279.783544 146.485429 
L 279.844684 146.340542 
L 279.905824 145.789905 
L 280.089245 145.413168 
L 280.272666 143.384528 
L 280.517227 143.761285 
L 280.639507 142.022442 
L 280.700647 142.370216 
L 280.761787 142.746953 
L 280.945208 141.124058 
L 281.128629 137.704366 
L 281.189769 136.805981 
L 281.37319 137.03783 
L 281.43433 137.356615 
L 281.61775 132.574843 
L 281.862311 129.329028 
L 281.923451 126.894684 
L 281.984592 128.778394 
L 282.229153 126.257112 
L 282.290293 128.08287 
L 282.351433 126.662835 
L 282.412573 123.388056 
L 282.473713 123.56193 
L 282.657134 123.156207 
L 282.779414 112.520399 
L 282.901695 113.505722 
L 283.146256 112.781211 
L 283.268536 118.055648 
L 283.329676 116.461716 
L 283.513097 116.925411 
L 283.574237 109.042735 
L 283.635378 114.056356 
L 283.696518 111.419129 
L 283.757658 111.593003 
L 284.002219 108.521087 
L 284.124499 102.058465 
L 284.185639 106.144693 
L 284.36906 105.912844 
L 284.4302 104.347898 
L 284.491341 109.622357 
L 284.552481 107.101052 
L 284.613621 105.767956 
L 284.797042 105.999805 
L 285.041602 119.968364 
L 285.225023 118.084634 
L 285.286163 122.431697 
L 285.347304 119.359758 
L 285.408444 121.823111 
L 285.469584 117.794833 
L 285.653005 117.505011 
L 285.714145 113.940434 
L 285.775285 115.244541 
L 285.897565 114.259219 
L 286.080986 111.737914 
L 286.142126 113.766534 
L 286.264407 108.955796 
L 286.325547 109.245598 
L 286.508968 110.578694 
L 286.753529 105.536107 
L 286.936949 105.681018 
L 287.12037 116.027027 
L 287.18151 111.91179 
L 287.426071 114.317171 
L 287.548351 106.202665 
L 287.854052 104.289949 
L 287.915193 101.246996 
L 287.976333 102.551127 
L 288.220894 99.450225 
L 288.465455 113.44777 
L 288.648875 114.201246 
L 288.710015 113.998383 
L 288.771156 115.650267 
L 288.832296 121.127563 
L 288.893436 119.185881 
L 289.137997 122.953344 
L 289.260277 116.345812 
L 289.321418 117.186226 
L 289.504838 122.286786 
L 289.749399 114.983729 
L 290.0551 112.636301 
L 290.177381 122.228834 
L 290.360801 120.229179 
L 290.483082 121.15655 
L 290.544222 119.330792 
L 290.605362 120.171227 
L 290.972203 127.010609 
L 291.033344 123.35907 
L 291.216764 126.836709 
L 291.277904 122.2578 
L 291.339045 122.46066 
L 291.461325 127.12651 
L 291.644746 131.966257 
L 291.889307 119.475682 
L 292.133867 119.156895 
L 292.195008 118.867094 
L 292.256148 116.345812 
L 292.317288 118.345446 
L 292.500709 119.156895 
L 292.561849 118.548309 
L 292.684129 114.085322 
L 292.74527 115.911102 
L 292.92869 116.287839 
L 293.173251 107.854549 
L 293.356672 110.752591 
L 293.417812 109.390508 
L 294.334915 149.760231 
L 294.396055 155.353452 
L 294.457196 145.065395 
L 294.701757 142.196342 
L 294.762897 139.472174 
L 294.885177 151.701914 
L 295.068598 145.673981 
L 295.129738 150.165957 
L 295.252018 141.355907 
L 295.313159 149.354508 
L 295.61886 139.269311 
L 295.68 139.877897 
L 295.74114 145.789905 
L 295.985701 151.499053 
L 296.107982 142.080417 
L 296.352542 150.919454 
L 296.597103 138.805636 
L 296.780524 143.471463 
L 296.902804 140.660383 
L 297.025085 156.367764 
L 297.208505 151.87579 
L 297.269646 142.254291 
L 297.330786 144.862535 
L 297.391926 142.862877 
L 297.453066 143.906175 
L 297.636487 145.963782 
L 297.697627 151.180266 
L 297.881048 138.950526 
L 298.064468 138.19703 
L 298.309029 131.328685 
L 298.49245 129.097178 
L 298.55359 129.9666 
L 298.737011 124.112567 
L 299.042712 122.46066 
L 299.103852 117.389086 
L 299.164992 120.055302 
L 299.348413 121.214525 
L 299.409553 135.038173 
L 299.470693 130.546199 
L 299.531834 128.169808 
L 299.592974 128.517579 
L 299.837535 125.097889 
L 299.898675 129.01024 
L 299.959815 127.184482 
L 300.020955 123.996642 
L 300.204376 124.286441 
L 300.387797 128.372668 
L 300.448937 128.08287 
L 300.876918 138.834602 
L 301.121479 133.328317 
L 301.3049 120.982676 
L 301.48832 120.37409 
L 301.610601 121.15655 
L 301.671741 120.750827 
L 301.732881 121.0986 
L 301.916302 120.808779 
L 301.977442 121.15655 
L 302.038582 124.112567 
L 302.099723 123.127221 
L 302.160863 120.779813 
L 302.344284 122.228834 
L 302.405424 121.011639 
L 302.588844 110.520742 
L 302.894545 107.999437 
L 302.955686 111.071378 
L 303.016826 107.97045 
L 303.261387 105.623045 
L 303.383667 106.579405 
L 303.444807 105.767956 
L 303.628228 108.434149 
L 303.689368 105.333244 
L 303.872789 110.868492 
L 304.11735 106.260617 
L 304.17849 107.564727 
L 304.30077 102.406216 
L 304.484191 101.189044 
L 304.606471 103.304623 
L 304.667612 100.783321 
L 304.728752 104.840583 
L 305.034453 110.665632 
L 305.156733 110.636666 
L 305.401294 107.796577 
L 305.462435 106.028768 
L 305.584715 111.274238 
L 305.829276 110.115019 
L 305.890416 108.839872 
L 305.951556 110.02808 
L 306.012696 105.333244 
L 306.257257 105.420182 
L 306.440678 101.565781 
L 306.624099 102.203353 
L 306.746379 101.333955 
L 306.807519 104.174024 
L 306.868659 103.623388 
L 307.174361 105.507121 
L 307.235501 108.434149 
L 307.296641 108.260272 
L 307.480062 109.88317 
L 307.602342 103.826274 
L 307.663482 105.854894 
L 307.724622 104.956507 
L 307.908043 105.304258 
L 308.030324 103.826274 
L 308.152604 107.390851 
L 308.336025 105.014459 
L 308.397165 102.232342 
L 308.458305 104.492809 
L 308.519445 107.506775 
L 308.580586 104.145038 
L 308.764006 103.797288 
L 308.825146 103.362575 
L 308.947427 109.709293 
L 309.253128 112.056701 
L 309.375408 115.244541 
L 309.436549 114.317171 
L 309.619969 113.534708 
L 309.80339 106.956142 
L 309.86453 106.840217 
L 310.047951 109.796231 
L 310.170231 103.652374 
L 310.231371 107.6227 
L 310.292512 104.087086 
L 310.475932 105.652031 
L 310.598213 103.913209 
L 310.659353 104.492809 
L 310.720493 108.115361 
L 310.965054 112.056701 
L 311.148475 115.12862 
L 311.454176 117.244199 
L 311.576456 116.05599 
L 311.759877 118.809144 
L 311.943297 116.287839 
L 312.004438 114.635955 
L 312.248998 115.27353 
L 312.432419 129.097178 
L 312.61584 128.459629 
L 312.67698 129.90865 
L 312.73812 127.648157 
L 312.79926 120.084268 
L 312.860401 122.692509 
L 313.043821 118.229521 
L 313.104961 120.779813 
L 313.166102 120.200193 
L 313.227242 120.432039 
L 313.288382 115.47639 
L 313.471803 115.650267 
L 313.655223 108.318224 
L 313.716364 115.157606 
L 313.899784 119.388744 
L 313.960924 118.548309 
L 314.144345 109.071721 
L 314.388906 106.434494 
L 314.511186 107.477789 
L 314.572327 110.578694 
L 314.755747 109.825217 
L 314.939168 113.042024 
L 315.000308 110.02808 
L 315.244869 107.912501 
L 315.306009 107.448826 
L 315.367149 105.478155 
L 315.42829 105.912844 
L 315.61171 109.013748 
L 316.100832 101.565781 
L 316.223112 105.246308 
L 316.284253 102.435202 
L 316.528814 100.087797 
L 316.651094 100.203721 
L 316.712234 100.696383 
L 317.017935 99.189389 
L 317.079076 99.189389 
L 317.140216 97.160769 
L 317.445917 102.058465 
L 317.507057 100.348609 
L 317.568197 102.174367 
L 317.751618 99.53716 
L 317.812758 100.986181 
L 317.873898 99.53716 
L 317.935039 101.536818 
L 317.996179 100.870257 
L 318.24074 101.681705 
L 318.36302 100.058811 
L 318.42416 96.059519 
L 318.607581 94.465587 
L 318.668721 94.66845 
L 318.729861 95.016224 
L 318.791002 94.784375 
L 318.852142 89.596877 
L 319.035562 88.379705 
L 319.218983 93.538217 
L 319.280123 88.060917 
L 319.463544 90.14751 
L 319.524684 87.829068 
L 319.585824 88.959305 
L 319.646965 88.640517 
L 319.708105 89.654829 
L 319.891525 88.756442 
L 319.952666 87.800082 
L 320.013806 89.162165 
L 320.136086 86.438023 
L 320.319507 87.713144 
L 320.380647 85.742475 
L 320.564068 89.56789 
L 320.747488 90.031589 
L 320.992049 83.59793 
L 321.29775 92.610843 
L 321.358891 92.118182 
L 321.420031 92.321042 
L 321.725732 90.958959 
L 321.786872 93.219429 
L 321.848012 88.84338 
L 322.031433 93.828015 
L 322.092573 91.451621 
L 322.153713 93.248415 
L 322.275994 103.768298 
L 322.459414 101.855602 
L 322.642835 105.275295 
L 322.703975 105.130384 
L 323.009676 100.290657 
L 323.131957 99.015513 
L 323.376518 98.580801 
L 323.437658 104.000148 
L 323.498798 98.667739 
L 323.559938 99.53716 
L 323.743359 98.146091 
L 323.865639 101.855602 
L 323.98792 99.247362 
L 324.354761 96.378283 
L 324.415901 99.740023 
L 324.599322 98.696725 
L 324.721602 95.277036 
L 324.843883 100.725346 
L 325.027304 102.261328 
L 325.149584 102.029479 
L 325.210724 102.493154 
L 325.271864 105.246308 
L 325.455285 108.318224 
L 325.699846 98.291002 
L 325.883267 98.841636 
L 325.944407 100.261671 
L 326.127827 96.92892 
L 326.311248 95.508885 
L 326.433529 96.378283 
L 326.555809 93.683127 
L 326.80037 93.161477 
L 326.92265 91.393671 
L 326.98379 89.394014 
L 327.167211 89.104215 
L 327.411772 92.668795 
L 327.595193 95.653773 
L 327.656333 94.291713 
L 327.839753 98.291002 
L 328.084314 99.015513 
L 328.267735 98.088139 
L 328.512296 98.175078 
L 328.573436 96.436258 
L 328.634576 97.450567 
L 328.879137 94.291713 
L 329.001418 98.291002 
L 329.062558 94.900299 
L 329.123698 96.639118 
L 329.307119 96.465245 
L 329.490539 95.016224 
L 329.55168 96.812995 
L 329.7351 96.812995 
L 329.79624 95.537871 
L 329.857381 96.784029 
L 329.918521 95.653773 
L 329.979661 96.262382 
L 330.163082 97.595478 
L 330.285362 96.986892 
L 330.346502 99.392249 
L 330.407643 98.580801 
L 330.591063 95.39296 
L 330.652203 95.653773 
L 330.713344 95.219084 
L 330.774484 92.089196 
L 331.019045 93.567203 
L 331.141325 92.060206 
L 331.263606 97.972215 
L 331.447026 96.523194 
L 331.569307 98.435913 
L 331.630447 96.986892 
L 331.691587 97.189755 
L 331.875008 98.899588 
L 331.997288 104.927521 
L 332.058428 104.724658 
L 332.119569 101.855602 
L 332.302989 100.870257 
L 332.42527 95.537871 
L 332.48641 97.160769 
L 332.54755 100.290657 
L 332.853251 98.23305 
L 332.914391 99.797975 
L 333.158952 93.219429 
L 333.342373 90.640175 
L 333.586934 94.523539 
L 333.648074 93.509227 
L 333.831495 90.843035 
L 334.014915 89.278089 
L 334.137196 85.742475 
L 334.259476 89.94465 
L 334.504037 85.423691 
L 334.565177 88.84338 
L 334.626317 88.234794 
L 334.687458 88.292767 
L 334.870878 92.40798 
L 334.932018 90.52425 
L 334.993159 91.973271 
L 335.054299 95.537871 
L 335.115439 91.364685 
L 335.29886 88.350719 
L 335.48228 95.016224 
L 335.543421 90.582199 
L 335.726841 91.132836 
L 335.849122 88.756442 
L 335.971402 94.639464 
L 336.154823 96.986892 
L 336.338243 93.248415 
L 336.399384 94.378652 
L 337.010786 88.26378 
L 337.194206 82.931372 
L 337.255347 84.525303 
L 337.499908 84.69918 
L 337.866749 79.830467 
L 337.927889 79.859453 
L 337.989029 78.555343 
L 338.050169 80.352117 
L 338.11131 80.120289 
L 338.29473 80.873765 
L 338.417011 82.554635 
L 338.539291 86.814759 
L 338.844992 90.52425 
L 338.906133 88.350719 
L 338.967273 90.466298 
L 339.211834 94.378652 
L 339.395254 99.711037 
L 339.578675 100.261671 
L 339.762096 103.855237 
L 339.823236 102.203353 
L 340.006656 101.189044 
L 340.067797 103.739312 
L 340.128937 101.826616 
L 340.190077 97.914266 
L 340.251217 101.507832 
L 340.495778 100.609444 
L 340.556918 102.609079 
L 340.618059 99.566146 
L 340.679199 101.21803 
L 340.862619 101.652742 
L 340.92376 98.580801 
L 340.9849 100.087797 
L 341.04604 98.03019 
L 341.10718 99.305311 
L 341.290601 97.189755 
L 341.351741 97.682416 
L 341.412881 97.102793 
L 341.474022 94.987237 
L 341.535162 95.306022 
L 342.146564 105.36223 
L 342.207704 105.565093 
L 342.268844 106.260617 
L 342.391125 104.63772 
L 342.574545 106.782265 
L 342.635686 105.94183 
L 342.696826 107.41984 
L 342.757966 106.927176 
L 343.124807 101.246996 
L 343.185948 102.261328 
L 343.247088 100.63841 
L 343.430508 101.189044 
L 343.491649 101.79763 
L 343.675069 99.073465 
L 343.85849 100.232684 
L 344.103051 94.697436 
L 344.286471 93.943939 
L 344.469892 86.293112 
L 344.531032 88.727455 
L 344.714453 85.684526 
L 344.775593 86.206174 
L 344.836733 87.510284 
L 344.897874 86.177187 
L 345.142435 76.613641 
L 345.325855 79.888442 
L 345.570416 78.845144 
L 345.814977 83.366081 
L 345.998398 84.467351 
L 346.426379 76.700599 
L 346.487519 76.845487 
L 346.6098 80.902751 
L 346.67094 79.076993 
L 346.976641 72.411489 
L 347.037781 66.412542 
L 347.098921 66.731329 
L 347.282342 67.861563 
L 347.343482 69.803245 
L 347.465763 66.644391 
L 347.526903 61.369955 
L 347.710324 60.52952 
L 347.771464 63.543486 
L 347.893744 63.224702 
L 347.954884 65.630079 
L 348.138305 65.137398 
L 348.199445 66.093754 
L 348.260586 61.514845 
L 348.321726 64.383921 
L 348.382866 64.992507 
L 348.566287 65.224333 
L 348.627427 68.441163 
L 348.688567 67.397865 
L 348.749707 68.470149 
L 348.810847 67.339915 
L 349.055408 69.107721 
L 349.116549 68.209337 
L 349.238829 76.034041 
L 349.60567 82.351772 
L 349.66681 85.684526 
L 349.850231 88.379705 
L 350.033652 95.363974 
L 350.094792 93.596166 
L 350.278213 92.639829 
L 350.339353 95.219084 
L 350.522773 88.69849 
L 350.767334 82.148909 
L 350.828475 82.931372 
L 350.889615 82.786484 
L 350.950755 78.062661 
L 351.134176 77.685922 
L 351.256456 74.932791 
L 351.317596 77.77286 
L 351.378737 76.671613 
L 351.562157 77.251213 
L 351.623297 74.845855 
L 351.745578 83.308132 
L 351.806718 81.279488 
L 352.051279 78.410432 
L 352.112419 83.39507 
L 352.173559 81.076628 
L 352.2347 83.568944 
L 352.41812 82.496683 
L 352.540401 80.468039 
L 352.601541 83.97467 
L 352.662681 79.163932 
L 352.846102 80.149254 
L 352.968382 77.830833 
L 353.029522 80.583964 
L 353.090663 75.193606 
L 353.274083 69.33957 
L 353.396364 72.121687 
L 353.518644 69.890183 
L 353.763205 73.62866 
L 353.824345 71.484115 
L 353.946626 75.077681 
L 354.191186 71.976776 
L 354.313467 65.861908 
L 354.558028 64.876583 
L 354.680308 63.253688 
L 354.741448 63.572452 
L 354.802589 64.992507 
L 354.986009 62.876928 
L 355.16943 59.283362 
L 355.23057 61.25403 
L 355.413991 60.065824 
L 355.536271 55.921622 
L 355.597411 56.008583 
L 355.658552 60.007872 
L 355.841972 58.211078 
L 355.903112 58.64579 
L 355.964253 58.124139 
L 356.025393 59.167437 
L 356.086533 63.253688 
L 356.269954 63.746349 
L 356.392234 62.500191 
L 356.453374 59.718071 
L 356.514515 60.471547 
L 356.759076 60.297671 
L 356.942496 62.645079 
L 357.125917 63.427562 
L 357.187057 66.15173 
L 357.248197 64.354935 
L 357.309337 64.673723 
L 357.553898 60.761369 
L 357.615039 60.67441 
L 357.676179 61.514845 
L 357.737319 57.834341 
L 357.798459 59.3703 
L 358.04302 57.486567 
L 358.10416 57.515553 
L 358.1653 57.399629 
L 358.409861 53.052566 
L 358.471002 52.849706 
L 358.654422 60.123797 
L 358.960123 61.630767 
L 359.021263 59.312348 
L 359.326965 58.211078 
L 359.388105 56.38532 
L 359.449245 56.617169 
L 359.510385 58.008215 
L 359.693806 58.674776 
L 359.877227 55.168148 
L 359.938367 57.167783 
L 360.121787 58.124139 
L 360.305208 52.154182 
L 360.549769 55.42896 
L 360.610909 52.762768 
L 360.672049 54.153816 
L 360.79433 68.96281 
L 360.97775 68.61506 
L 361.038891 66.470494 
L 361.100031 70.180005 
L 361.161171 65.630079 
L 361.222311 68.412197 
L 361.405732 67.050114 
L 361.466872 70.151019 
L 361.528012 68.38321 
L 361.650293 67.166039 
L 361.833713 67.050114 
L 362.017134 65.543121 
L 362.078274 68.18035 
L 362.261695 68.412197 
L 362.383975 65.601093 
L 362.445116 67.745638 
L 362.506256 66.760316 
L 362.750817 66.615405 
L 362.934237 68.61506 
L 363.117658 68.093412 
L 363.301079 75.628315 
L 363.362219 75.019729 
L 363.545639 77.338151 
L 363.60678 75.88913 
L 363.66792 71.020417 
L 363.72906 73.222934 
L 363.973621 73.947445 
L 364.218182 81.395412 
L 364.401602 80.294165 
L 364.585023 87.017622 
L 364.646163 83.510995 
L 364.890724 81.569309 
L 365.074145 86.872712 
L 365.257565 90.118524 
L 365.318706 89.625863 
L 365.440986 98.059153 
L 365.502126 90.669161 
L 365.685547 92.118182 
L 365.868968 81.453385 
L 366.113529 82.786484 
L 366.235809 78.236558 
L 366.296949 82.728509 
L 366.358089 79.482716 
L 366.54151 74.932791 
L 366.60265 80.902751 
L 366.66379 78.410432 
L 366.724931 78.932083 
L 366.969492 74.034383 
L 367.152912 79.569655 
L 367.214052 79.830467 
L 367.397473 79.888442 
L 367.580894 78.381446 
L 367.642034 73.078047 
L 367.886595 76.526702 
L 368.070015 89.596877 
L 368.253436 92.900642 
L 368.375716 80.41009 
L 368.436857 81.975035 
L 368.497997 82.496683 
L 368.681418 85.539612 
L 368.925978 97.682416 
L 369.109399 101.102106 
L 369.170539 104.43486 
L 369.23168 101.942541 
L 369.29282 92.871655 
L 369.35396 93.335354 
L 369.659661 81.7142 
L 369.781941 82.380758 
L 370.026502 85.916372 
L 370.209923 87.423345 
L 370.393344 87.858057 
L 370.454484 93.248415 
L 370.515624 92.060206 
L 370.637904 87.278435 
L 370.882465 91.393671 
L 370.943606 96.986892 
L 371.004746 94.697436 
L 371.065886 96.899933 
L 371.432727 87.249469 
L 371.493867 87.336407 
L 371.677288 92.176131 
L 371.738428 90.350373 
L 371.799569 91.393671 
L 371.921849 102.174367 
L 372.10527 100.174735 
L 372.28869 87.017622 
L 372.533251 89.886675 
L 372.594391 88.901352 
L 372.655532 93.885987 
L 372.777812 86.119235 
L 373.022373 85.974324 
L 373.083513 88.176842 
L 373.205794 95.682759 
L 373.389214 96.088485 
L 373.450354 95.885622 
L 373.511495 95.190097 
L 373.633775 97.160769 
L 373.878336 99.942886 
L 373.939476 99.855948 
L 374.061757 104.347898 
L 374.245177 105.188333 
L 374.428598 110.086033 
L 374.489738 111.621989 
L 374.673159 112.172626 
L 374.734299 109.767245 
L 374.795439 112.665287 
L 374.856579 107.883515 
L 374.91772 109.390508 
L 375.284561 107.564727 
L 375.345701 111.216266 
L 375.529122 110.549728 
L 375.651402 106.405528 
L 375.712542 111.071378 
L 376.079384 106.115707 
L 376.140524 111.332191 
L 376.201664 107.361865 
L 376.385085 105.767956 
L 376.446225 106.695329 
L 376.568505 100.087797 
L 376.629646 102.232342 
L 376.813066 102.261328 
L 376.874206 101.536818 
L 376.935347 102.52214 
L 376.996487 101.594767 
L 377.057627 102.087431 
L 377.241048 101.449856 
L 377.302188 102.000493 
L 377.363328 101.189044 
L 377.424468 97.798341 
L 377.485609 100.174735 
L 377.730169 94.030878 
L 377.79131 94.958248 
L 377.85245 99.740023 
L 377.91359 98.377941 
L 378.097011 98.204064 
L 378.158151 102.956853 
L 378.219291 101.826616 
L 378.341572 103.217665 
L 378.524992 101.739678 
L 378.586133 104.174024 
L 378.647273 101.507832 
L 378.708413 101.826616 
L 379.197535 108.14435 
L 379.380955 107.709638 
L 379.442096 108.086375 
L 379.503236 107.76759 
L 379.625516 110.955454 
L 379.808937 110.810543 
L 379.931217 105.999805 
L 380.236918 112.694273 
L 380.298059 111.882824 
L 380.359199 108.34721 
L 380.420339 109.013748 
L 380.6649 107.303915 
L 380.72604 107.796577 
L 381.092881 114.085322 
L 381.154022 112.085687 
L 381.215162 113.418784 
L 381.276302 114.838818 
L 381.582003 116.577641 
L 381.643143 116.403764 
L 381.704284 114.606969 
L 381.765424 116.867462 
L 381.948844 116.809487 
L 382.132265 113.708585 
L 382.193405 115.650267 
L 382.437966 117.331137 
L 382.499106 116.113965 
L 382.804807 125.155841 
L 382.865948 123.793779 
L 382.988228 113.708585 
L 383.293929 129.068215 
L 383.355069 129.097178 
L 383.41621 131.79236 
L 383.47735 130.024552 
L 383.721911 131.589497 
L 383.905331 126.865698 
L 384.088752 128.923305 
L 384.149892 127.184482 
L 384.333313 140.022811 
L 384.516733 157.729846 
L 384.700154 140.892209 
L 384.761294 138.255002 
L 384.944715 139.50116 
L 385.066995 143.036774 
L 385.128136 141.355907 
L 385.189276 143.413514 
L 385.433837 141.124058 
L 385.494977 139.240325 
L 385.617257 144.94947 
L 385.800678 145.210306 
L 385.861818 144.833549 
L 385.984099 139.1244 
L 386.045239 142.457154 
L 386.228659 142.920853 
L 386.41208 146.108693 
L 386.47322 142.370216 
L 386.656641 144.311898 
L 386.717781 144.22496 
L 386.840062 136.834968 
L 386.901202 142.080417 
L 387.329183 122.779447 
L 387.512604 124.112567 
L 387.573744 126.633849 
L 387.634884 125.909338 
L 387.757165 116.374778 
L 387.940586 117.099288 
L 388.001726 121.330426 
L 388.062866 120.432039 
L 388.124006 120.95369 
L 388.185146 115.940066 
L 388.368567 115.621301 
L 388.429707 121.272474 
L 388.490847 119.127929 
L 388.613128 115.766192 
L 388.796549 116.258853 
L 388.918829 103.304623 
L 389.041109 111.535053 
L 389.22453 112.607335 
L 389.469091 125.010951 
L 389.652512 128.894318 
L 389.713652 120.866751 
L 389.774792 123.243145 
L 389.897072 121.272474 
L 390.080493 124.08358 
L 390.202773 119.156895 
L 390.325054 121.243488 
L 390.569615 117.823799 
L 390.630755 119.127929 
L 390.753035 130.604175 
L 390.936456 130.662124 
L 391.058737 137.878265 
L 391.119877 135.096125 
L 391.181017 137.936215 
L 391.364438 139.443188 
L 391.486718 125.706475 
L 391.547858 125.764448 
L 391.608998 129.9666 
L 391.792419 129.329028 
L 391.853559 129.589863 
L 391.97584 122.141895 
L 392.220401 128.372668 
L 392.281541 122.953344 
L 392.403821 130.140476 
L 392.648382 130.169463 
L 393.076364 137.385581 
L 393.137504 139.964835 
L 393.320924 133.560166 
L 393.565485 128.923305 
L 393.687766 142.746953 
L 393.748906 133.299354 
L 393.932327 135.241036 
L 393.993467 138.081126 
L 394.115747 130.604175 
L 394.176888 132.400946 
L 394.360308 132.603806 
L 394.421448 139.761975 
L 394.482589 135.878608 
L 394.604869 124.663177 
L 394.78829 124.952979 
L 394.84943 122.98231 
L 394.91057 123.590916 
L 394.97171 127.735119 
L 395.032851 122.692509 
L 395.399692 114.520031 
L 395.460832 116.577641 
L 395.644253 115.679253 
L 395.705393 117.15726 
L 395.766533 123.18517 
L 395.827673 118.403418 
L 395.888814 114.54902 
L 396.072234 117.476048 
L 396.133374 121.30146 
L 396.194515 120.171227 
L 396.316795 115.215555 
L 396.500216 116.229887 
L 396.561356 111.332191 
L 396.622496 113.59266 
L 396.683636 115.911102 
L 396.744777 113.59266 
L 396.928197 118.635247 
L 396.989337 118.287497 
L 397.172758 109.622357 
L 397.356179 111.795889 
L 397.417319 113.998383 
L 397.478459 111.737914 
L 397.539599 114.404109 
L 397.78416 111.245252 
L 397.8453 112.28855 
L 397.906441 108.34721 
L 397.967581 111.129328 
L 398.028721 115.969052 
L 398.212142 114.056356 
L 398.273282 115.360466 
L 398.334422 115.12862 
L 398.395562 114.925757 
L 398.456703 113.360811 
L 398.640123 113.273873 
L 398.884684 107.564727 
L 399.068105 108.521087 
L 399.312666 101.942541 
L 399.496086 102.377253 
L 399.618367 99.884934 
L 399.679507 100.145746 
L 399.740647 97.769355 
L 399.924068 99.044499 
L 400.107488 97.537506 
L 400.168629 101.304969 
L 400.53547 94.523539 
L 400.59661 96.030533 
L 400.780031 96.262382 
L 400.841171 96.059519 
L 400.902311 94.523539 
L 400.963451 97.972215 
L 401.024592 92.813706 
L 401.208012 96.841981 
L 401.391433 93.219429 
L 401.452573 95.682759 
L 401.697134 93.943939 
L 401.819414 99.131437 
L 402.125116 94.66845 
L 402.186256 90.958959 
L 402.247396 93.422292 
L 402.308536 92.784717 
L 402.491957 94.175789 
L 402.553097 92.639829 
L 402.614237 93.277381 
L 402.675378 94.813361 
L 402.736518 89.625863 
L 402.919938 90.205463 
L 402.981079 91.857346 
L 403.103359 88.350719 
L 403.164499 94.291713 
L 403.34792 97.13178 
L 403.592481 84.206516 
L 403.837042 84.90204 
L 403.898182 84.235505 
L 403.959322 81.366449 
L 404.020462 84.119581 
L 404.203883 83.076283 
L 404.387304 79.308819 
L 404.448444 78.178586 
L 404.693005 80.149254 
L 404.815285 82.67056 
L 404.876425 82.032985 
L 405.059846 83.887731 
L 405.304407 100.870257 
L 405.487827 99.508174 
L 405.548968 104.231997 
L 405.610108 102.609079 
L 405.732388 100.522486 
L 405.915809 99.595112 
L 405.976949 97.943229 
L 406.09923 103.536452 
L 406.16037 102.75399 
L 406.34379 98.522851 
L 406.404931 100.232684 
L 406.466071 99.971872 
L 406.588351 97.914266 
L 406.771772 101.739678 
L 406.955193 99.682071 
L 407.199753 102.52214 
L 407.260894 100.11676 
L 407.383174 103.449514 
L 407.444314 101.420893 
L 407.688875 100.203721 
L 407.750015 97.85629 
L 407.811156 98.146091 
L 407.872296 97.827304 
L 408.300277 109.854183 
L 408.483698 109.65132 
L 408.605978 114.75188 
L 408.667119 110.520742 
L 408.728259 115.157606 
L 408.91168 112.723259 
L 408.97282 115.418441 
L 409.03396 112.897136 
L 409.0951 102.725003 
L 409.15624 103.101763 
L 409.339661 102.811942 
L 409.400801 101.536818 
L 409.461941 103.130726 
L 409.523082 101.913555 
L 409.584222 102.782976 
L 409.828783 99.508174 
L 409.951063 104.521798 
L 410.012203 102.087431 
L 410.195624 104.145038 
L 410.317904 102.087431 
L 410.440185 104.318935 
L 410.623606 103.391562 
L 410.684746 103.594425 
L 410.745886 104.811596 
L 410.807026 101.826616 
L 410.868166 107.6227 
L 411.173867 113.360811 
L 411.235008 112.259564 
L 411.296148 112.404475 
L 411.540709 109.216611 
L 411.601849 111.18728 
L 411.724129 104.000148 
L 411.90755 107.564727 
L 412.029831 103.391562 
L 412.090971 104.260963 
L 412.152111 107.825563 
L 412.396672 103.536452 
L 412.457812 103.971161 
L 412.763513 102.782976 
L 412.824653 107.216977 
L 412.946934 99.797975 
L 413.008074 102.087431 
L 413.191495 101.507832 
L 413.252635 101.855602 
L 413.436055 97.885279 
L 413.619476 93.538217 
L 413.741757 87.394359 
L 413.802897 93.654141 
L 413.864037 89.538925 
L 414.047458 89.94465 
L 414.230878 93.885987 
L 414.292018 91.364685 
L 414.536579 91.538559 
L 414.59772 91.973271 
L 414.72 93.857001 
L 414.72 93.857001 
" style="fill:none;stroke:#e24a33;stroke-linecap:square;stroke-width:1.5;"/>
   </g>
   <g id="patch_3">
    <path d="M 57.6 276.48 
L 57.6 41.472 
" style="fill:none;stroke:#ffffff;stroke-linecap:square;stroke-linejoin:miter;"/>
   </g>
   <g id="patch_4">
    <path d="M 414.72 276.48 
L 414.72 41.472 
" style="fill:none;stroke:#ffffff;stroke-linecap:square;stroke-linejoin:miter;"/>
   </g>
   <g id="patch_5">
    <path d="M 57.6 276.48 
L 414.72 276.48 
" style="fill:none;stroke:#ffffff;stroke-linecap:square;stroke-linejoin:miter;"/>
   </g>
   <g id="patch_6">
    <path d="M 57.6 41.472 
L 414.72 41.472 
" style="fill:none;stroke:#ffffff;stroke-linecap:square;stroke-linejoin:miter;"/>
   </g>
  </g>
 </g>
 <defs>
  <clipPath id="pa3bf493b73">
   <rect height="235.008" width="357.12" x="57.6" y="41.472"/>
  </clipPath>
 </defs>
</svg>
