<?xml version="1.0" encoding="utf-8" standalone="no"?>
<!DOCTYPE svg PUBLIC "-//W3C//DTD SVG 1.1//EN"
  "http://www.w3.org/Graphics/SVG/1.1/DTD/svg11.dtd">
<!-- Created with matplotlib (http://matplotlib.org/) -->
<svg height="345pt" version="1.1" viewBox="0 0 460 345" width="460pt" xmlns="http://www.w3.org/2000/svg" xmlns:xlink="http://www.w3.org/1999/xlink">
 <defs>
  <style type="text/css">
*{stroke-linecap:butt;stroke-linejoin:round;}
  </style>
 </defs>
 <g id="figure_1">
  <g id="patch_1">
   <path d="M 0 345.6 
L 460.8 345.6 
L 460.8 0 
L 0 0 
z
" style="fill:#ffffff;"/>
  </g>
  <g id="axes_1">
   <g id="patch_2">
    <path d="M 57.6 276.48 
L 414.72 276.48 
L 414.72 41.472 
L 57.6 41.472 
z
" style="fill:#e5e5e5;"/>
   </g>
   <g id="matplotlib.axis_1">
    <g id="xtick_1">
     <g id="line2d_1">
      <path clip-path="url(#p1400aa3c53)" d="M 102.171217 276.48 
L 102.171217 41.472 
" style="fill:none;stroke:#ffffff;stroke-linecap:square;stroke-width:0.8;"/>
     </g>
     <g id="line2d_2">
      <defs>
       <path d="M 0 0 
L 0 3.5 
" id="md854ae98a0" style="stroke:#555555;stroke-width:0.8;"/>
      </defs>
      <g>
       <use style="fill:#555555;stroke:#555555;stroke-width:0.8;" x="102.171217" xlink:href="#md854ae98a0" y="276.48"/>
      </g>
     </g>
     <g id="text_1">
      <!-- 2003 -->
      <defs>
       <path d="M 19.1875 8.296875 
L 53.609375 8.296875 
L 53.609375 0 
L 7.328125 0 
L 7.328125 8.296875 
Q 12.9375 14.109375 22.625 23.890625 
Q 32.328125 33.6875 34.8125 36.53125 
Q 39.546875 41.84375 41.421875 45.53125 
Q 43.3125 49.21875 43.3125 52.78125 
Q 43.3125 58.59375 39.234375 62.25 
Q 35.15625 65.921875 28.609375 65.921875 
Q 23.96875 65.921875 18.8125 64.3125 
Q 13.671875 62.703125 7.8125 59.421875 
L 7.8125 69.390625 
Q 13.765625 71.78125 18.9375 73 
Q 24.125 74.21875 28.421875 74.21875 
Q 39.75 74.21875 46.484375 68.546875 
Q 53.21875 62.890625 53.21875 53.421875 
Q 53.21875 48.921875 51.53125 44.890625 
Q 49.859375 40.875 45.40625 35.40625 
Q 44.1875 33.984375 37.640625 27.21875 
Q 31.109375 20.453125 19.1875 8.296875 
z
" id="DejaVuSans-32"/>
       <path d="M 31.78125 66.40625 
Q 24.171875 66.40625 20.328125 58.90625 
Q 16.5 51.421875 16.5 36.375 
Q 16.5 21.390625 20.328125 13.890625 
Q 24.171875 6.390625 31.78125 6.390625 
Q 39.453125 6.390625 43.28125 13.890625 
Q 47.125 21.390625 47.125 36.375 
Q 47.125 51.421875 43.28125 58.90625 
Q 39.453125 66.40625 31.78125 66.40625 
z
M 31.78125 74.21875 
Q 44.046875 74.21875 50.515625 64.515625 
Q 56.984375 54.828125 56.984375 36.375 
Q 56.984375 17.96875 50.515625 8.265625 
Q 44.046875 -1.421875 31.78125 -1.421875 
Q 19.53125 -1.421875 13.0625 8.265625 
Q 6.59375 17.96875 6.59375 36.375 
Q 6.59375 54.828125 13.0625 64.515625 
Q 19.53125 74.21875 31.78125 74.21875 
z
" id="DejaVuSans-30"/>
       <path d="M 40.578125 39.3125 
Q 47.65625 37.796875 51.625 33 
Q 55.609375 28.21875 55.609375 21.1875 
Q 55.609375 10.40625 48.1875 4.484375 
Q 40.765625 -1.421875 27.09375 -1.421875 
Q 22.515625 -1.421875 17.65625 -0.515625 
Q 12.796875 0.390625 7.625 2.203125 
L 7.625 11.71875 
Q 11.71875 9.328125 16.59375 8.109375 
Q 21.484375 6.890625 26.8125 6.890625 
Q 36.078125 6.890625 40.9375 10.546875 
Q 45.796875 14.203125 45.796875 21.1875 
Q 45.796875 27.640625 41.28125 31.265625 
Q 36.765625 34.90625 28.71875 34.90625 
L 20.21875 34.90625 
L 20.21875 43.015625 
L 29.109375 43.015625 
Q 36.375 43.015625 40.234375 45.921875 
Q 44.09375 48.828125 44.09375 54.296875 
Q 44.09375 59.90625 40.109375 62.90625 
Q 36.140625 65.921875 28.71875 65.921875 
Q 24.65625 65.921875 20.015625 65.03125 
Q 15.375 64.15625 9.8125 62.3125 
L 9.8125 71.09375 
Q 15.4375 72.65625 20.34375 73.4375 
Q 25.25 74.21875 29.59375 74.21875 
Q 40.828125 74.21875 47.359375 69.109375 
Q 53.90625 64.015625 53.90625 55.328125 
Q 53.90625 49.265625 50.4375 45.09375 
Q 46.96875 40.921875 40.578125 39.3125 
z
" id="DejaVuSans-33"/>
      </defs>
      <g style="fill:#555555;" transform="translate(79.091027 302.78544)rotate(-30)scale(0.1 -0.1)">
       <use xlink:href="#DejaVuSans-32"/>
       <use x="63.623047" xlink:href="#DejaVuSans-30"/>
       <use x="127.246094" xlink:href="#DejaVuSans-30"/>
       <use x="190.869141" xlink:href="#DejaVuSans-33"/>
      </g>
     </g>
    </g>
    <g id="xtick_2">
     <g id="line2d_3">
      <path clip-path="url(#p1400aa3c53)" d="M 146.864715 276.48 
L 146.864715 41.472 
" style="fill:none;stroke:#ffffff;stroke-linecap:square;stroke-width:0.8;"/>
     </g>
     <g id="line2d_4">
      <g>
       <use style="fill:#555555;stroke:#555555;stroke-width:0.8;" x="146.864715" xlink:href="#md854ae98a0" y="276.48"/>
      </g>
     </g>
     <g id="text_2">
      <!-- 2005 -->
      <defs>
       <path d="M 10.796875 72.90625 
L 49.515625 72.90625 
L 49.515625 64.59375 
L 19.828125 64.59375 
L 19.828125 46.734375 
Q 21.96875 47.46875 24.109375 47.828125 
Q 26.265625 48.1875 28.421875 48.1875 
Q 40.625 48.1875 47.75 41.5 
Q 54.890625 34.8125 54.890625 23.390625 
Q 54.890625 11.625 47.5625 5.09375 
Q 40.234375 -1.421875 26.90625 -1.421875 
Q 22.3125 -1.421875 17.546875 -0.640625 
Q 12.796875 0.140625 7.71875 1.703125 
L 7.71875 11.625 
Q 12.109375 9.234375 16.796875 8.0625 
Q 21.484375 6.890625 26.703125 6.890625 
Q 35.15625 6.890625 40.078125 11.328125 
Q 45.015625 15.765625 45.015625 23.390625 
Q 45.015625 31 40.078125 35.4375 
Q 35.15625 39.890625 26.703125 39.890625 
Q 22.75 39.890625 18.8125 39.015625 
Q 14.890625 38.140625 10.796875 36.28125 
z
" id="DejaVuSans-35"/>
      </defs>
      <g style="fill:#555555;" transform="translate(123.784525 302.78544)rotate(-30)scale(0.1 -0.1)">
       <use xlink:href="#DejaVuSans-32"/>
       <use x="63.623047" xlink:href="#DejaVuSans-30"/>
       <use x="127.246094" xlink:href="#DejaVuSans-30"/>
       <use x="190.869141" xlink:href="#DejaVuSans-35"/>
      </g>
     </g>
    </g>
    <g id="xtick_3">
     <g id="line2d_5">
      <path clip-path="url(#p1400aa3c53)" d="M 191.497072 276.48 
L 191.497072 41.472 
" style="fill:none;stroke:#ffffff;stroke-linecap:square;stroke-width:0.8;"/>
     </g>
     <g id="line2d_6">
      <g>
       <use style="fill:#555555;stroke:#555555;stroke-width:0.8;" x="191.497072" xlink:href="#md854ae98a0" y="276.48"/>
      </g>
     </g>
     <g id="text_3">
      <!-- 2007 -->
      <defs>
       <path d="M 8.203125 72.90625 
L 55.078125 72.90625 
L 55.078125 68.703125 
L 28.609375 0 
L 18.3125 0 
L 43.21875 64.59375 
L 8.203125 64.59375 
z
" id="DejaVuSans-37"/>
      </defs>
      <g style="fill:#555555;" transform="translate(168.416882 302.78544)rotate(-30)scale(0.1 -0.1)">
       <use xlink:href="#DejaVuSans-32"/>
       <use x="63.623047" xlink:href="#DejaVuSans-30"/>
       <use x="127.246094" xlink:href="#DejaVuSans-30"/>
       <use x="190.869141" xlink:href="#DejaVuSans-37"/>
      </g>
     </g>
    </g>
    <g id="xtick_4">
     <g id="line2d_7">
      <path clip-path="url(#p1400aa3c53)" d="M 236.19057 276.48 
L 236.19057 41.472 
" style="fill:none;stroke:#ffffff;stroke-linecap:square;stroke-width:0.8;"/>
     </g>
     <g id="line2d_8">
      <g>
       <use style="fill:#555555;stroke:#555555;stroke-width:0.8;" x="236.19057" xlink:href="#md854ae98a0" y="276.48"/>
      </g>
     </g>
     <g id="text_4">
      <!-- 2009 -->
      <defs>
       <path d="M 10.984375 1.515625 
L 10.984375 10.5 
Q 14.703125 8.734375 18.5 7.8125 
Q 22.3125 6.890625 25.984375 6.890625 
Q 35.75 6.890625 40.890625 13.453125 
Q 46.046875 20.015625 46.78125 33.40625 
Q 43.953125 29.203125 39.59375 26.953125 
Q 35.25 24.703125 29.984375 24.703125 
Q 19.046875 24.703125 12.671875 31.3125 
Q 6.296875 37.9375 6.296875 49.421875 
Q 6.296875 60.640625 12.9375 67.421875 
Q 19.578125 74.21875 30.609375 74.21875 
Q 43.265625 74.21875 49.921875 64.515625 
Q 56.59375 54.828125 56.59375 36.375 
Q 56.59375 19.140625 48.40625 8.859375 
Q 40.234375 -1.421875 26.421875 -1.421875 
Q 22.703125 -1.421875 18.890625 -0.6875 
Q 15.09375 0.046875 10.984375 1.515625 
z
M 30.609375 32.421875 
Q 37.25 32.421875 41.125 36.953125 
Q 45.015625 41.5 45.015625 49.421875 
Q 45.015625 57.28125 41.125 61.84375 
Q 37.25 66.40625 30.609375 66.40625 
Q 23.96875 66.40625 20.09375 61.84375 
Q 16.21875 57.28125 16.21875 49.421875 
Q 16.21875 41.5 20.09375 36.953125 
Q 23.96875 32.421875 30.609375 32.421875 
z
" id="DejaVuSans-39"/>
      </defs>
      <g style="fill:#555555;" transform="translate(213.11038 302.78544)rotate(-30)scale(0.1 -0.1)">
       <use xlink:href="#DejaVuSans-32"/>
       <use x="63.623047" xlink:href="#DejaVuSans-30"/>
       <use x="127.246094" xlink:href="#DejaVuSans-30"/>
       <use x="190.869141" xlink:href="#DejaVuSans-39"/>
      </g>
     </g>
    </g>
    <g id="xtick_5">
     <g id="line2d_9">
      <path clip-path="url(#p1400aa3c53)" d="M 280.822928 276.48 
L 280.822928 41.472 
" style="fill:none;stroke:#ffffff;stroke-linecap:square;stroke-width:0.8;"/>
     </g>
     <g id="line2d_10">
      <g>
       <use style="fill:#555555;stroke:#555555;stroke-width:0.8;" x="280.822928" xlink:href="#md854ae98a0" y="276.48"/>
      </g>
     </g>
     <g id="text_5">
      <!-- 2011 -->
      <defs>
       <path d="M 12.40625 8.296875 
L 28.515625 8.296875 
L 28.515625 63.921875 
L 10.984375 60.40625 
L 10.984375 69.390625 
L 28.421875 72.90625 
L 38.28125 72.90625 
L 38.28125 8.296875 
L 54.390625 8.296875 
L 54.390625 0 
L 12.40625 0 
z
" id="DejaVuSans-31"/>
      </defs>
      <g style="fill:#555555;" transform="translate(257.742737 302.78544)rotate(-30)scale(0.1 -0.1)">
       <use xlink:href="#DejaVuSans-32"/>
       <use x="63.623047" xlink:href="#DejaVuSans-30"/>
       <use x="127.246094" xlink:href="#DejaVuSans-31"/>
       <use x="190.869141" xlink:href="#DejaVuSans-31"/>
      </g>
     </g>
    </g>
    <g id="xtick_6">
     <g id="line2d_11">
      <path clip-path="url(#p1400aa3c53)" d="M 325.516425 276.48 
L 325.516425 41.472 
" style="fill:none;stroke:#ffffff;stroke-linecap:square;stroke-width:0.8;"/>
     </g>
     <g id="line2d_12">
      <g>
       <use style="fill:#555555;stroke:#555555;stroke-width:0.8;" x="325.516425" xlink:href="#md854ae98a0" y="276.48"/>
      </g>
     </g>
     <g id="text_6">
      <!-- 2013 -->
      <g style="fill:#555555;" transform="translate(302.436235 302.78544)rotate(-30)scale(0.1 -0.1)">
       <use xlink:href="#DejaVuSans-32"/>
       <use x="63.623047" xlink:href="#DejaVuSans-30"/>
       <use x="127.246094" xlink:href="#DejaVuSans-31"/>
       <use x="190.869141" xlink:href="#DejaVuSans-33"/>
      </g>
     </g>
    </g>
    <g id="xtick_7">
     <g id="line2d_13">
      <path clip-path="url(#p1400aa3c53)" d="M 370.148783 276.48 
L 370.148783 41.472 
" style="fill:none;stroke:#ffffff;stroke-linecap:square;stroke-width:0.8;"/>
     </g>
     <g id="line2d_14">
      <g>
       <use style="fill:#555555;stroke:#555555;stroke-width:0.8;" x="370.148783" xlink:href="#md854ae98a0" y="276.48"/>
      </g>
     </g>
     <g id="text_7">
      <!-- 2015 -->
      <g style="fill:#555555;" transform="translate(347.068592 302.78544)rotate(-30)scale(0.1 -0.1)">
       <use xlink:href="#DejaVuSans-32"/>
       <use x="63.623047" xlink:href="#DejaVuSans-30"/>
       <use x="127.246094" xlink:href="#DejaVuSans-31"/>
       <use x="190.869141" xlink:href="#DejaVuSans-35"/>
      </g>
     </g>
    </g>
    <g id="text_8">
     <!-- Date -->
     <defs>
      <path d="M 19.671875 64.796875 
L 19.671875 8.109375 
L 31.59375 8.109375 
Q 46.6875 8.109375 53.6875 14.9375 
Q 60.6875 21.78125 60.6875 36.53125 
Q 60.6875 51.171875 53.6875 57.984375 
Q 46.6875 64.796875 31.59375 64.796875 
z
M 9.8125 72.90625 
L 30.078125 72.90625 
Q 51.265625 72.90625 61.171875 64.09375 
Q 71.09375 55.28125 71.09375 36.53125 
Q 71.09375 17.671875 61.125 8.828125 
Q 51.171875 0 30.078125 0 
L 9.8125 0 
z
" id="DejaVuSans-44"/>
      <path d="M 34.28125 27.484375 
Q 23.390625 27.484375 19.1875 25 
Q 14.984375 22.515625 14.984375 16.5 
Q 14.984375 11.71875 18.140625 8.90625 
Q 21.296875 6.109375 26.703125 6.109375 
Q 34.1875 6.109375 38.703125 11.40625 
Q 43.21875 16.703125 43.21875 25.484375 
L 43.21875 27.484375 
z
M 52.203125 31.203125 
L 52.203125 0 
L 43.21875 0 
L 43.21875 8.296875 
Q 40.140625 3.328125 35.546875 0.953125 
Q 30.953125 -1.421875 24.3125 -1.421875 
Q 15.921875 -1.421875 10.953125 3.296875 
Q 6 8.015625 6 15.921875 
Q 6 25.140625 12.171875 29.828125 
Q 18.359375 34.515625 30.609375 34.515625 
L 43.21875 34.515625 
L 43.21875 35.40625 
Q 43.21875 41.609375 39.140625 45 
Q 35.0625 48.390625 27.6875 48.390625 
Q 23 48.390625 18.546875 47.265625 
Q 14.109375 46.140625 10.015625 43.890625 
L 10.015625 52.203125 
Q 14.9375 54.109375 19.578125 55.046875 
Q 24.21875 56 28.609375 56 
Q 40.484375 56 46.34375 49.84375 
Q 52.203125 43.703125 52.203125 31.203125 
z
" id="DejaVuSans-61"/>
      <path d="M 18.3125 70.21875 
L 18.3125 54.6875 
L 36.8125 54.6875 
L 36.8125 47.703125 
L 18.3125 47.703125 
L 18.3125 18.015625 
Q 18.3125 11.328125 20.140625 9.421875 
Q 21.96875 7.515625 27.59375 7.515625 
L 36.8125 7.515625 
L 36.8125 0 
L 27.59375 0 
Q 17.1875 0 13.234375 3.875 
Q 9.28125 7.765625 9.28125 18.015625 
L 9.28125 47.703125 
L 2.6875 47.703125 
L 2.6875 54.6875 
L 9.28125 54.6875 
L 9.28125 70.21875 
z
" id="DejaVuSans-74"/>
      <path d="M 56.203125 29.59375 
L 56.203125 25.203125 
L 14.890625 25.203125 
Q 15.484375 15.921875 20.484375 11.0625 
Q 25.484375 6.203125 34.421875 6.203125 
Q 39.59375 6.203125 44.453125 7.46875 
Q 49.3125 8.734375 54.109375 11.28125 
L 54.109375 2.78125 
Q 49.265625 0.734375 44.1875 -0.34375 
Q 39.109375 -1.421875 33.890625 -1.421875 
Q 20.796875 -1.421875 13.15625 6.1875 
Q 5.515625 13.8125 5.515625 26.8125 
Q 5.515625 40.234375 12.765625 48.109375 
Q 20.015625 56 32.328125 56 
Q 43.359375 56 49.78125 48.890625 
Q 56.203125 41.796875 56.203125 29.59375 
z
M 47.21875 32.234375 
Q 47.125 39.59375 43.09375 43.984375 
Q 39.0625 48.390625 32.421875 48.390625 
Q 24.90625 48.390625 20.390625 44.140625 
Q 15.875 39.890625 15.1875 32.171875 
z
" id="DejaVuSans-65"/>
     </defs>
     <g style="fill:#555555;" transform="translate(221.819063 317.704627)scale(0.12 -0.12)">
      <use xlink:href="#DejaVuSans-44"/>
      <use x="77.001953" xlink:href="#DejaVuSans-61"/>
      <use x="138.28125" xlink:href="#DejaVuSans-74"/>
      <use x="177.490234" xlink:href="#DejaVuSans-65"/>
     </g>
    </g>
   </g>
   <g id="matplotlib.axis_2">
    <g id="ytick_1">
     <g id="line2d_15">
      <path clip-path="url(#p1400aa3c53)" d="M 57.6 270.234798 
L 414.72 270.234798 
" style="fill:none;stroke:#ffffff;stroke-linecap:square;stroke-width:0.8;"/>
     </g>
     <g id="line2d_16">
      <defs>
       <path d="M 0 0 
L -3.5 0 
" id="m0f17a4612c" style="stroke:#555555;stroke-width:0.8;"/>
      </defs>
      <g>
       <use style="fill:#555555;stroke:#555555;stroke-width:0.8;" x="57.6" xlink:href="#m0f17a4612c" y="270.234798"/>
      </g>
     </g>
     <g id="text_9">
      <!-- 0 -->
      <g style="fill:#555555;" transform="translate(44.2375 274.034017)scale(0.1 -0.1)">
       <use xlink:href="#DejaVuSans-30"/>
      </g>
     </g>
    </g>
    <g id="ytick_2">
     <g id="line2d_17">
      <path clip-path="url(#p1400aa3c53)" d="M 57.6 233.766467 
L 414.72 233.766467 
" style="fill:none;stroke:#ffffff;stroke-linecap:square;stroke-width:0.8;"/>
     </g>
     <g id="line2d_18">
      <g>
       <use style="fill:#555555;stroke:#555555;stroke-width:0.8;" x="57.6" xlink:href="#m0f17a4612c" y="233.766467"/>
      </g>
     </g>
     <g id="text_10">
      <!-- 20 -->
      <g style="fill:#555555;" transform="translate(37.875 237.565686)scale(0.1 -0.1)">
       <use xlink:href="#DejaVuSans-32"/>
       <use x="63.623047" xlink:href="#DejaVuSans-30"/>
      </g>
     </g>
    </g>
    <g id="ytick_3">
     <g id="line2d_19">
      <path clip-path="url(#p1400aa3c53)" d="M 57.6 197.298136 
L 414.72 197.298136 
" style="fill:none;stroke:#ffffff;stroke-linecap:square;stroke-width:0.8;"/>
     </g>
     <g id="line2d_20">
      <g>
       <use style="fill:#555555;stroke:#555555;stroke-width:0.8;" x="57.6" xlink:href="#m0f17a4612c" y="197.298136"/>
      </g>
     </g>
     <g id="text_11">
      <!-- 40 -->
      <defs>
       <path d="M 37.796875 64.3125 
L 12.890625 25.390625 
L 37.796875 25.390625 
z
M 35.203125 72.90625 
L 47.609375 72.90625 
L 47.609375 25.390625 
L 58.015625 25.390625 
L 58.015625 17.1875 
L 47.609375 17.1875 
L 47.609375 0 
L 37.796875 0 
L 37.796875 17.1875 
L 4.890625 17.1875 
L 4.890625 26.703125 
z
" id="DejaVuSans-34"/>
      </defs>
      <g style="fill:#555555;" transform="translate(37.875 201.097355)scale(0.1 -0.1)">
       <use xlink:href="#DejaVuSans-34"/>
       <use x="63.623047" xlink:href="#DejaVuSans-30"/>
      </g>
     </g>
    </g>
    <g id="ytick_4">
     <g id="line2d_21">
      <path clip-path="url(#p1400aa3c53)" d="M 57.6 160.829805 
L 414.72 160.829805 
" style="fill:none;stroke:#ffffff;stroke-linecap:square;stroke-width:0.8;"/>
     </g>
     <g id="line2d_22">
      <g>
       <use style="fill:#555555;stroke:#555555;stroke-width:0.8;" x="57.6" xlink:href="#m0f17a4612c" y="160.829805"/>
      </g>
     </g>
     <g id="text_12">
      <!-- 60 -->
      <defs>
       <path d="M 33.015625 40.375 
Q 26.375 40.375 22.484375 35.828125 
Q 18.609375 31.296875 18.609375 23.390625 
Q 18.609375 15.53125 22.484375 10.953125 
Q 26.375 6.390625 33.015625 6.390625 
Q 39.65625 6.390625 43.53125 10.953125 
Q 47.40625 15.53125 47.40625 23.390625 
Q 47.40625 31.296875 43.53125 35.828125 
Q 39.65625 40.375 33.015625 40.375 
z
M 52.59375 71.296875 
L 52.59375 62.3125 
Q 48.875 64.0625 45.09375 64.984375 
Q 41.3125 65.921875 37.59375 65.921875 
Q 27.828125 65.921875 22.671875 59.328125 
Q 17.53125 52.734375 16.796875 39.40625 
Q 19.671875 43.65625 24.015625 45.921875 
Q 28.375 48.1875 33.59375 48.1875 
Q 44.578125 48.1875 50.953125 41.515625 
Q 57.328125 34.859375 57.328125 23.390625 
Q 57.328125 12.15625 50.6875 5.359375 
Q 44.046875 -1.421875 33.015625 -1.421875 
Q 20.359375 -1.421875 13.671875 8.265625 
Q 6.984375 17.96875 6.984375 36.375 
Q 6.984375 53.65625 15.1875 63.9375 
Q 23.390625 74.21875 37.203125 74.21875 
Q 40.921875 74.21875 44.703125 73.484375 
Q 48.484375 72.75 52.59375 71.296875 
z
" id="DejaVuSans-36"/>
      </defs>
      <g style="fill:#555555;" transform="translate(37.875 164.629023)scale(0.1 -0.1)">
       <use xlink:href="#DejaVuSans-36"/>
       <use x="63.623047" xlink:href="#DejaVuSans-30"/>
      </g>
     </g>
    </g>
    <g id="ytick_5">
     <g id="line2d_23">
      <path clip-path="url(#p1400aa3c53)" d="M 57.6 124.361474 
L 414.72 124.361474 
" style="fill:none;stroke:#ffffff;stroke-linecap:square;stroke-width:0.8;"/>
     </g>
     <g id="line2d_24">
      <g>
       <use style="fill:#555555;stroke:#555555;stroke-width:0.8;" x="57.6" xlink:href="#m0f17a4612c" y="124.361474"/>
      </g>
     </g>
     <g id="text_13">
      <!-- 80 -->
      <defs>
       <path d="M 31.78125 34.625 
Q 24.75 34.625 20.71875 30.859375 
Q 16.703125 27.09375 16.703125 20.515625 
Q 16.703125 13.921875 20.71875 10.15625 
Q 24.75 6.390625 31.78125 6.390625 
Q 38.8125 6.390625 42.859375 10.171875 
Q 46.921875 13.96875 46.921875 20.515625 
Q 46.921875 27.09375 42.890625 30.859375 
Q 38.875 34.625 31.78125 34.625 
z
M 21.921875 38.8125 
Q 15.578125 40.375 12.03125 44.71875 
Q 8.5 49.078125 8.5 55.328125 
Q 8.5 64.0625 14.71875 69.140625 
Q 20.953125 74.21875 31.78125 74.21875 
Q 42.671875 74.21875 48.875 69.140625 
Q 55.078125 64.0625 55.078125 55.328125 
Q 55.078125 49.078125 51.53125 44.71875 
Q 48 40.375 41.703125 38.8125 
Q 48.828125 37.15625 52.796875 32.3125 
Q 56.78125 27.484375 56.78125 20.515625 
Q 56.78125 9.90625 50.3125 4.234375 
Q 43.84375 -1.421875 31.78125 -1.421875 
Q 19.734375 -1.421875 13.25 4.234375 
Q 6.78125 9.90625 6.78125 20.515625 
Q 6.78125 27.484375 10.78125 32.3125 
Q 14.796875 37.15625 21.921875 38.8125 
z
M 18.3125 54.390625 
Q 18.3125 48.734375 21.84375 45.5625 
Q 25.390625 42.390625 31.78125 42.390625 
Q 38.140625 42.390625 41.71875 45.5625 
Q 45.3125 48.734375 45.3125 54.390625 
Q 45.3125 60.0625 41.71875 63.234375 
Q 38.140625 66.40625 31.78125 66.40625 
Q 25.390625 66.40625 21.84375 63.234375 
Q 18.3125 60.0625 18.3125 54.390625 
z
" id="DejaVuSans-38"/>
      </defs>
      <g style="fill:#555555;" transform="translate(37.875 128.160692)scale(0.1 -0.1)">
       <use xlink:href="#DejaVuSans-38"/>
       <use x="63.623047" xlink:href="#DejaVuSans-30"/>
      </g>
     </g>
    </g>
    <g id="ytick_6">
     <g id="line2d_25">
      <path clip-path="url(#p1400aa3c53)" d="M 57.6 87.893143 
L 414.72 87.893143 
" style="fill:none;stroke:#ffffff;stroke-linecap:square;stroke-width:0.8;"/>
     </g>
     <g id="line2d_26">
      <g>
       <use style="fill:#555555;stroke:#555555;stroke-width:0.8;" x="57.6" xlink:href="#m0f17a4612c" y="87.893143"/>
      </g>
     </g>
     <g id="text_14">
      <!-- 100 -->
      <g style="fill:#555555;" transform="translate(31.5125 91.692361)scale(0.1 -0.1)">
       <use xlink:href="#DejaVuSans-31"/>
       <use x="63.623047" xlink:href="#DejaVuSans-30"/>
       <use x="127.246094" xlink:href="#DejaVuSans-30"/>
      </g>
     </g>
    </g>
    <g id="ytick_7">
     <g id="line2d_27">
      <path clip-path="url(#p1400aa3c53)" d="M 57.6 51.424812 
L 414.72 51.424812 
" style="fill:none;stroke:#ffffff;stroke-linecap:square;stroke-width:0.8;"/>
     </g>
     <g id="line2d_28">
      <g>
       <use style="fill:#555555;stroke:#555555;stroke-width:0.8;" x="57.6" xlink:href="#m0f17a4612c" y="51.424812"/>
      </g>
     </g>
     <g id="text_15">
      <!-- 120 -->
      <g style="fill:#555555;" transform="translate(31.5125 55.22403)scale(0.1 -0.1)">
       <use xlink:href="#DejaVuSans-31"/>
       <use x="63.623047" xlink:href="#DejaVuSans-32"/>
       <use x="127.246094" xlink:href="#DejaVuSans-30"/>
      </g>
     </g>
    </g>
   </g>
   <g id="line2d_29">
    <path clip-path="url(#p1400aa3c53)" d="M 57.6 260.206007 
L 57.66114 261.421618 
L 57.783421 257.091004 
L 57.966841 259.275304 
L 58.211402 255.400544 
L 58.517103 256.065332 
L 58.578243 256.597161 
L 58.639384 253.520146 
L 58.883945 255.229599 
L 58.945085 253.53914 
L 59.006225 254.165939 
L 59.067365 256.10332 
L 59.250786 255.267588 
L 59.373066 254.355879 
L 59.434206 254.545817 
L 59.495347 254.450848 
L 59.739908 256.274265 
L 59.801048 256.027343 
L 59.923328 256.787101 
L 60.229029 256.901064 
L 60.290169 253.748073 
L 60.35131 253.957007 
L 60.595871 252.608437 
L 60.657011 254.564812 
L 60.718151 253.311213 
L 60.779291 252.589445 
L 61.084992 255.172617 
L 61.146133 256.825088 
L 61.207273 256.63515 
L 61.390693 257.508869 
L 61.574114 254.849721 
L 61.635254 254.716763 
L 61.818675 255.533502 
L 61.879815 255.381551 
L 61.940955 254.564812 
L 62.002096 251.829687 
L 62.063236 252.323528 
L 62.246656 252.209565 
L 62.307797 251.297857 
L 62.368937 252.817372 
L 62.491217 249.303495 
L 62.674638 249.873312 
L 62.735778 249.189531 
L 62.796918 250.120234 
L 62.858059 249.716621 
L 62.919199 249.379471 
L 63.16376 251.620754 
L 63.28604 251.563773 
L 63.530601 250.815412 
L 63.591741 251.675457 
L 63.652881 249.177376 
L 63.714022 249.590683 
L 63.958582 249.265507 
L 64.019723 249.712245 
L 64.203143 245.044298 
L 64.386564 244.381791 
L 64.508844 246.9133 
L 64.569985 245.375553 
L 64.631125 246.955848 
L 64.875686 244.828528 
L 64.936826 241.835085 
L 64.997966 244.00799 
L 65.059106 244.099161 
L 65.242527 243.04158 
L 65.303667 241.2911 
L 65.487088 245.925616 
L 65.670508 246.41794 
L 65.792789 245.992475 
L 65.915069 243.883389 
L 66.09849 244.065733 
L 66.22077 240.892986 
L 66.281911 242.427695 
L 66.343051 242.400344 
L 66.587612 242.524944 
L 66.648752 244.138669 
L 66.709892 243.798297 
L 66.771032 244.038379 
L 66.954453 242.758948 
L 67.015593 243.233038 
L 67.199014 240.139309 
L 67.382435 240.78966 
L 67.443575 242.290939 
L 67.504715 240.525265 
L 67.626995 242.123792 
L 67.810416 241.421779 
L 67.871556 241.968802 
L 67.932696 244.491196 
L 67.993837 242.989915 
L 68.054977 242.503672 
L 68.238398 242.178496 
L 68.299538 243.157062 
L 68.360678 241.88067 
L 68.421818 242.254471 
L 68.482958 242.199768 
L 68.727519 243.482237 
L 68.8498 243.278622 
L 68.91094 245.311733 
L 69.216641 246.408821 
L 69.277781 245.238797 
L 69.338921 245.296539 
L 69.522342 245.907383 
L 69.583482 247.989116 
L 69.644622 246.9133 
L 69.705763 246.837324 
L 69.766903 247.384349 
L 69.950324 247.442091 
L 70.011464 249.353639 
L 70.072604 248.274785 
L 70.133744 248.654663 
L 70.194884 246.272067 
L 70.378305 245.588285 
L 70.439445 246.171777 
L 70.622866 243.795258 
L 70.806287 243.925937 
L 70.867427 242.941292 
L 70.928567 243.573408 
L 71.050847 244.494234 
L 71.356549 243.555174 
L 71.417689 244.594523 
L 71.478829 243.704087 
L 71.78453 245.047336 
L 71.84567 244.555015 
L 71.90681 244.767748 
L 72.090231 244.898425 
L 72.151371 243.494394 
L 72.212512 243.69801 
L 72.273652 245.102038 
L 72.334792 244.874111 
L 72.579353 244.561093 
L 72.762773 247.138188 
L 72.946194 246.724881 
L 73.435316 249.174337 
L 73.618737 254.036781 
L 73.863297 251.94593 
L 74.046718 253.824049 
L 74.230139 253.550536 
L 74.352419 255.793339 
L 74.4747 250.906582 
L 74.65812 251.028142 
L 74.71926 249.733518 
L 74.780401 251.022065 
L 74.902681 247.745994 
L 75.147242 245.801016 
L 75.208382 242.713365 
L 75.269522 244.889308 
L 75.330663 244.196409 
L 75.514083 243.473122 
L 75.575223 242.281822 
L 75.636364 243.612916 
L 75.697504 242.579646 
L 75.758644 240.47056 
L 75.942065 242.306134 
L 76.003205 245.132431 
L 76.064345 243.75271 
L 76.125485 243.84996 
L 76.186626 242.087326 
L 76.370046 241.06621 
L 76.431186 241.515987 
L 76.614607 238.659299 
L 76.798028 238.021107 
L 76.859168 236.927057 
L 76.920308 237.060773 
L 76.981448 238.586364 
L 77.042589 238.021107 
L 77.226009 238.015027 
L 77.34829 240.41586 
L 77.47057 240.178814 
L 77.653991 239.364356 
L 77.837411 236.750793 
L 77.898552 237.662501 
L 78.081972 237.723281 
L 78.143112 237.364675 
L 78.265393 232.3442 
L 78.326533 232.927697 
L 78.509954 233.979199 
L 78.693374 231.699929 
L 78.754515 232.064614 
L 78.999076 229.809653 
L 79.182496 231.791098 
L 79.365917 231.000953 
L 79.610478 227.81605 
L 79.916179 229.396345 
L 79.977319 229.244394 
L 80.038459 226.071651 
L 80.711002 232.398904 
L 80.833282 230.806455 
L 80.894422 232.222642 
L 81.138983 231.092122 
L 81.200123 232.088924 
L 81.261263 231.335244 
L 81.566965 228.812851 
L 81.628105 230.72744 
L 81.689245 229.943371 
L 81.933806 231.341323 
L 81.994946 233.341002 
L 82.056086 232.483998 
L 82.117227 232.490073 
L 82.361787 235.206968 
L 82.484068 231.94305 
L 82.545208 232.599482 
L 82.606348 234.191932 
L 82.912049 238.264228 
L 82.97319 236.452967 
L 83.03433 238.963204 
L 83.21775 239.753351 
L 83.340031 236.045737 
L 83.462311 238.932815 
L 83.706872 234.890908 
L 83.768012 235.498714 
L 83.829153 235.061091 
L 83.890293 235.176575 
L 84.073713 235.194809 
L 84.318274 239.242796 
L 84.501695 237.577407 
L 84.562835 237.929934 
L 84.685116 241.479519 
L 84.746256 239.923537 
L 84.929676 240.85348 
L 84.990817 242.531021 
L 85.051957 242.10556 
L 85.113097 242.391227 
L 85.357658 244.767748 
L 85.418798 244.512468 
L 85.602219 243.880351 
L 85.785639 245.831407 
L 85.84678 243.527823 
L 85.90792 245.260069 
L 86.0302 247.356998 
L 86.213621 247.50895 
L 86.335901 245.746314 
L 86.397042 245.995514 
L 86.458182 246.968003 
L 86.641602 248.043818 
L 86.702743 247.50895 
L 86.825023 250.572288 
L 86.886163 249.502552 
L 87.069584 249.593722 
L 87.130724 248.189692 
L 87.191864 249.423538 
L 87.253005 248.590843 
L 87.497565 250.845802 
L 87.558706 250.663459 
L 87.680986 248.420658 
L 87.742126 248.858278 
L 87.925547 250.657382 
L 88.108968 247.192892 
L 88.170108 246.530383 
L 88.353529 246.627631 
L 88.414669 245.861796 
L 88.598089 248.931215 
L 88.84265 248.754951 
L 88.90379 250.116434 
L 88.964931 249.447849 
L 89.026071 249.204726 
L 89.270632 251.216563 
L 89.331772 250.086045 
L 89.392912 250.626992 
L 89.454052 252.024944 
L 89.637473 250.341323 
L 89.698613 250.444651 
L 89.882034 254.042859 
L 90.065455 252.723922 
L 90.187735 253.884831 
L 90.310015 255.94529 
L 90.493436 256.814452 
L 90.554576 255.951369 
L 90.737997 260.023665 
L 90.921418 259.841324 
L 90.982558 259.938572 
L 91.043698 260.534222 
L 91.165978 258.868835 
L 91.349399 258.826288 
L 91.410539 258.315731 
L 91.47168 258.656103 
L 91.53282 259.300378 
L 91.59396 257.470882 
L 91.777381 258.103 
L 91.838521 257.258149 
L 91.899661 257.56813 
L 92.021941 259.045098 
L 92.205362 259.263908 
L 92.449923 260.813812 
L 92.694484 261.087324 
L 92.877904 263.956167 
L 93.122465 264.764548 
L 93.183606 264.491036 
L 93.244746 264.807094 
L 93.305886 264.661221 
L 93.611587 264.655143 
L 93.672727 264.168898 
L 93.733867 264.314772 
L 93.917288 263.457766 
L 93.978428 262.485278 
L 94.039569 262.552137 
L 94.34527 263.117396 
L 94.40641 263.074848 
L 94.52869 264.089884 
L 94.589831 263.992636 
L 94.956672 264.563972 
L 95.017812 264.497113 
L 95.262373 264.642986 
L 95.323513 263.609718 
L 95.384653 263.658342 
L 95.629214 263.907542 
L 95.690354 263.950088 
L 95.873775 264.624752 
L 96.057196 264.72808 
L 96.118336 264.940812 
L 96.240616 264.430256 
L 96.301757 264.855719 
L 96.485177 265.050217 
L 96.546317 264.989436 
L 96.607458 264.709846 
L 96.668598 264.825328 
L 96.913159 265.354119 
L 96.974299 265.372353 
L 97.096579 265.797818 
L 97.15772 265.341964 
L 97.34114 265.038061 
L 97.40228 264.460645 
L 97.463421 264.88611 
L 97.524561 264.521427 
L 97.585701 264.606518 
L 97.769122 264.600441 
L 97.952542 263.403063 
L 98.013683 263.85284 
L 98.197103 263.178176 
L 98.319384 263.542859 
L 98.441664 263.111317 
L 98.686225 260.753032 
L 98.747365 260.795578 
L 98.808505 260.655782 
L 98.869646 262.75879 
L 99.114206 263.713044 
L 99.175347 263.463845 
L 99.297627 262.211765 
L 99.481048 261.391228 
L 99.542188 261.792379 
L 99.664468 260.825968 
L 99.725609 261.020467 
L 100.15359 259.579968 
L 100.337011 259.269987 
L 100.581572 262.029423 
L 100.764992 261.926096 
L 100.826133 262.132751 
L 100.948413 261.403384 
L 101.009553 262.011189 
L 101.192974 261.907862 
L 101.254114 261.561413 
L 101.376394 262.515668 
L 101.437535 262.302936 
L 101.620955 262.460966 
L 101.682096 262.345482 
L 101.865516 262.479198 
L 102.110077 263.299738 
L 102.293498 262.728399 
L 102.476918 262.570371 
L 102.538059 261.986876 
L 102.599199 262.375873 
L 102.721479 262.941132 
L 102.9049 262.430575 
L 103.149461 263.627952 
L 103.394022 263.579327 
L 103.455162 263.883231 
L 103.516302 263.688732 
L 103.577442 263.737357 
L 103.822003 264.223601 
L 103.883143 264.095962 
L 103.944284 263.670498 
L 104.005424 264.241835 
L 104.188844 263.846762 
L 104.249985 263.883231 
L 104.311125 263.992636 
L 104.372265 263.646187 
L 104.433405 263.901465 
L 104.739106 264.339085 
L 104.800247 264.205367 
L 104.861387 263.41522 
L 105.228228 262.394107 
L 105.533929 262.576448 
L 105.595069 262.473121 
L 105.71735 262.831727 
L 105.90077 262.473121 
L 106.023051 262.825647 
L 106.084191 262.691931 
L 106.145331 262.874272 
L 106.451032 262.740556 
L 106.573313 261.804536 
L 106.756733 262.211765 
L 106.817874 261.634349 
L 106.879014 261.652585 
L 106.940154 261.628272 
L 107.001294 261.251432 
L 107.184715 261.980798 
L 107.245855 261.926096 
L 107.306995 261.524944 
L 107.368136 261.591803 
L 107.612696 262.32117 
L 107.673837 262.242156 
L 107.796117 261.72552 
L 107.857257 261.743754 
L 108.040678 261.549258 
L 108.162958 262.059814 
L 108.224099 262.023344 
L 108.285239 261.999032 
L 108.468659 262.302936 
L 108.59094 261.895707 
L 108.65208 262.023344 
L 108.896641 261.926096 
L 109.080062 261.415539 
L 109.141202 261.731599 
L 109.324622 261.901784 
L 109.446903 261.537101 
L 109.508043 261.585726 
L 109.813744 260.382271 
L 109.874884 260.467363 
L 109.936025 260.601081 
L 109.997165 258.789819 
L 110.180586 257.215604 
L 110.241726 258.04222 
L 110.302866 257.805174 
L 110.425146 257.592444 
L 110.608567 257.483039 
L 110.669707 258.023984 
L 110.730847 257.951048 
L 110.853128 257.470882 
L 111.097689 257.683615 
L 111.281109 254.127952 
L 111.46453 253.91522 
L 111.52567 255.38003 
L 111.58681 254.94849 
L 111.647951 254.741835 
L 111.709091 253.453288 
L 111.953652 254.766146 
L 112.075932 254.419699 
L 112.137072 255.434733 
L 112.320493 255.799416 
L 112.503914 254.681055 
L 112.565054 255.531981 
L 112.748475 255.854119 
L 112.809615 256.437612 
L 112.870755 256.346441 
L 112.993035 256.109399 
L 113.237596 256.486237 
L 113.298737 255.604918 
L 113.359877 256.115476 
L 113.604438 255.750793 
L 113.726718 255.185534 
L 113.787858 255.313173 
L 113.848998 255.28886 
L 114.032419 255.00927 
L 114.1547 255.714325 
L 114.27698 257.124433 
L 114.582681 257.306774 
L 114.643821 256.887389 
L 114.704961 257.610678 
L 114.888382 257.331086 
L 114.949522 258.953929 
L 115.010663 258.686494 
L 115.071803 258.504152 
L 115.132943 258.625712 
L 115.316364 258.261029 
L 115.377504 257.476961 
L 115.438644 257.999673 
L 115.499784 258.370434 
L 115.560924 260.175616 
L 115.744345 260.661861 
L 115.866626 260.060133 
L 115.988906 260.449128 
L 116.172327 260.260709 
L 116.416888 258.552775 
L 116.600308 258.923538 
L 116.661448 259.336846 
L 116.722589 259.300378 
L 116.783729 258.935693 
L 116.844869 259.355078 
L 117.08943 258.996474 
L 117.21171 259.458406 
L 117.272851 259.379392 
L 117.578552 257.987516 
L 117.639692 258.333965 
L 117.700832 258.741196 
L 117.884253 258.376511 
L 117.945393 258.643946 
L 118.128814 257.938893 
L 118.434515 258.789819 
L 118.556795 259.610357 
L 118.801356 260.625393 
L 118.923636 260.50991 
L 118.984777 260.023665 
L 119.290478 260.023665 
L 119.351618 260.236398 
L 119.412758 260.084445 
L 119.596179 259.950728 
L 119.657319 260.07229 
L 119.718459 259.652904 
L 119.779599 259.896026 
L 119.84074 259.841324 
L 120.02416 260.102679 
L 120.0853 259.69545 
L 120.146441 259.731919 
L 120.268721 259.902103 
L 120.513282 259.640748 
L 120.574422 259.452329 
L 120.635562 258.838444 
L 120.696703 259.233519 
L 120.880123 259.543499 
L 120.941263 259.051177 
L 121.002404 259.47664 
L 121.063544 259.045098 
L 121.124684 257.06973 
L 121.308105 256.97248 
L 121.430385 257.422257 
L 121.552666 257.166979 
L 121.736086 258.206326 
L 121.797227 257.805174 
L 121.858367 258.194171 
L 121.919507 258.139469 
L 122.164068 258.109078 
L 122.286348 257.06973 
L 122.408629 257.276384 
L 122.71433 257.166979 
L 122.77547 257.294618 
L 122.83661 257.707926 
L 123.081171 257.750472 
L 123.142311 258.376511 
L 123.203451 258.121234 
L 123.264592 257.331086 
L 123.448012 257.19737 
L 123.509153 257.896345 
L 123.570293 257.756551 
L 123.631433 257.872034 
L 123.692573 257.300697 
L 123.875994 257.616755 
L 123.937134 257.458725 
L 123.998274 256.893466 
L 124.120555 256.881311 
L 124.426256 255.805495 
L 124.731957 255.993915 
L 124.854237 255.331407 
L 124.915378 254.839083 
L 124.976518 255.076127 
L 125.221079 254.656743 
L 125.343359 255.604918 
L 125.404499 255.31925 
L 125.7102 254.954567 
L 125.832481 255.951369 
L 126.015901 256.109399 
L 126.077042 255.939212 
L 126.260462 256.948169 
L 126.505023 256.528783 
L 126.627304 256.838764 
L 126.688444 256.534862 
L 126.871864 256.297818 
L 126.933005 256.455846 
L 127.055285 255.574529 
L 127.116425 256.316052 
L 127.727827 255.586684 
L 127.850108 256.553094 
L 127.911248 256.358598 
L 127.972388 256.437612 
L 128.155809 256.747593 
L 128.216949 256.492314 
L 128.40037 256.954248 
L 128.58379 256.741515 
L 128.767211 257.66538 
L 128.828351 257.422257 
L 129.072912 257.458725 
L 129.256333 256.674658 
L 129.439753 256.966403 
L 130.112296 254.127952 
L 130.295716 254.334606 
L 130.356857 254.006391 
L 130.417997 254.225201 
L 130.479137 254.079327 
L 130.723698 253.854438 
L 131.3351 256.619954 
L 131.39624 256.243115 
L 131.579661 256.079008 
L 131.824222 257.276384 
L 132.068783 257.744394 
L 132.252203 256.528783 
L 132.496764 257.173058 
L 132.557904 257.094044 
L 132.619045 257.312852 
L 132.680185 257.106199 
L 132.863606 257.34932 
L 132.924746 257.252072 
L 132.985886 256.869155 
L 133.108166 257.22776 
L 133.352727 257.337165 
L 133.475008 256.334286 
L 133.536148 256.346441 
L 133.780709 256.224881 
L 133.841849 255.647465 
L 133.902989 256.09724 
L 133.964129 256.510549 
L 134.269831 256.75975 
L 134.330971 257.258149 
L 135.064653 258.370434 
L 135.186934 257.56813 
L 135.248074 257.920657 
L 135.431495 257.750472 
L 135.553775 257.94497 
L 135.614915 257.653224 
L 135.676055 258.236717 
L 135.920616 258.668259 
L 136.104037 259.513109 
L 136.470878 260.564613 
L 136.532018 260.436974 
L 136.715439 260.983998 
L 136.776579 260.911062 
L 136.83772 260.57069 
L 136.89886 261.190652 
L 136.96 261.044778 
L 137.143421 261.233199 
L 137.204561 261.555335 
L 137.265701 261.330448 
L 137.326841 261.415539 
L 137.387982 261.081247 
L 137.632542 260.698329 
L 137.693683 261.330448 
L 137.754823 261.038699 
L 137.815963 264.089884 
L 137.999384 264.357319 
L 138.121664 263.858917 
L 138.243945 263.962245 
L 138.427365 263.925777 
L 138.549646 263.536782 
L 138.610786 263.166019 
L 138.671926 263.184253 
L 138.916487 262.454887 
L 138.977627 262.685853 
L 139.038767 262.546057 
L 139.283328 262.400184 
L 139.405609 262.75879 
L 139.527889 262.44273 
L 139.77245 262.394107 
L 139.89473 262.564293 
L 139.955871 262.138828 
L 140.200431 261.597881 
L 140.322712 261.828848 
L 140.383852 261.591803 
L 140.567273 261.482398 
L 140.628413 261.117715 
L 140.689553 261.324368 
L 141.056394 261.865316 
L 141.117535 261.731599 
L 141.239815 261.366916 
L 141.423236 260.965764 
L 141.484376 261.014388 
L 141.545516 261.014388 
L 141.606656 260.7895 
L 141.912357 261.701208 
L 141.973498 261.269666 
L 142.034638 261.50671 
L 142.095778 261.828848 
L 142.279199 262.126672 
L 142.340339 261.743754 
L 142.401479 262.011189 
L 142.52376 261.622194 
L 142.70718 262.229999 
L 142.76832 261.330448 
L 142.829461 261.585726 
L 142.890601 261.306134 
L 142.951741 261.366916 
L 143.196302 261.275745 
L 143.379723 259.41586 
L 143.563143 259.628591 
L 143.624284 259.561734 
L 143.746564 259.397626 
L 143.807704 259.081566 
L 143.991125 259.342924 
L 144.235686 257.896345 
L 144.419106 258.668259 
L 144.480247 258.479839 
L 144.663667 258.230639 
L 144.847088 258.072609 
L 144.969368 258.504152 
L 145.030508 258.431215 
L 145.091649 257.865956 
L 145.275069 257.57421 
L 145.39735 256.176256 
L 145.45849 256.455846 
L 145.51963 256.012149 
L 145.764191 256.443689 
L 145.947612 255.592763 
L 146.192173 256.370755 
L 146.253313 255.987835 
L 146.314453 256.328207 
L 146.559014 256.018226 
L 146.681294 256.449769 
L 146.986995 255.416499 
L 147.109276 256.723281 
L 147.231556 256.553094 
L 147.537257 257.112276 
L 147.598398 257.306774 
L 147.659538 256.960325 
L 147.904099 257.306774 
L 147.965239 256.893466 
L 148.026379 257.519507 
L 148.087519 257.209526 
L 148.27094 257.276384 
L 148.33208 257.671458 
L 148.39322 257.464803 
L 148.454361 257.318931 
L 148.515501 256.25527 
L 148.698921 256.212725 
L 148.760062 256.316052 
L 148.882342 255.410421 
L 148.943482 255.404344 
L 149.126903 254.541259 
L 149.188043 254.845162 
L 149.249183 254.553416 
L 149.310324 255.063972 
L 149.371464 254.887708 
L 149.554884 254.346762 
L 149.677165 254.583806 
L 149.738305 254.377151 
L 149.799445 253.53838 
L 150.105146 253.112916 
L 150.166287 253.629551 
L 150.227427 252.930575 
L 150.410847 252.790779 
L 150.471988 252.535501 
L 150.655408 253.356038 
L 150.899969 253.349961 
L 151.02225 254.535181 
L 151.08339 254.450088 
L 151.26681 254.626352 
L 151.327951 254.431854 
L 151.511371 255.22808 
L 151.694792 255.550217 
L 151.755932 255.027504 
L 151.817072 255.331407 
L 151.878213 254.94849 
L 152.122773 254.954567 
L 152.550755 256.012149 
L 152.734176 255.981758 
L 152.795316 255.732559 
L 152.978737 255.878432 
L 153.223297 256.960325 
L 153.406718 257.337165 
L 153.651279 256.674658 
L 153.89584 256.498394 
L 154.01812 257.130512 
L 154.07926 256.91778 
L 154.262681 256.747593 
L 154.384961 256.966403 
L 154.507242 256.176256 
L 154.751803 256.072929 
L 154.874083 256.680735 
L 154.935223 255.13083 
L 155.179784 254.875553 
L 155.302065 254.462245 
L 155.363205 254.547338 
L 155.791186 253.349961 
L 156.035747 253.580927 
L 156.096888 253.872674 
L 156.158028 253.672098 
L 156.219168 253.052136 
L 156.524869 253.568771 
L 156.586009 253.854438 
L 156.647149 253.052136 
L 156.83057 253.216244 
L 156.89171 252.845481 
L 156.952851 253.982079 
L 157.013991 253.933454 
L 157.075131 253.641707 
L 157.258552 253.878751 
L 157.380832 253.295258 
L 157.441972 253.520146 
L 157.503112 253.25879 
L 157.686533 253.872674 
L 157.747673 253.836206 
L 157.869954 253.842283 
L 157.931094 254.048936 
L 158.175655 253.860517 
L 158.359076 253.240556 
L 158.725917 252.766467 
L 158.787057 253.763267 
L 158.970478 253.939533 
L 159.092758 254.267746 
L 159.215039 254.036781 
L 159.398459 254.717523 
L 159.64302 253.726801 
L 159.826441 253.69033 
L 159.948721 253.313492 
L 160.009861 253.441131 
L 160.071002 253.514068 
L 160.254422 252.948809 
L 160.315562 252.9792 
L 160.376703 252.973122 
L 160.437843 253.301336 
L 160.498983 252.055335 
L 160.682404 251.970243 
L 160.743544 251.745354 
L 160.926965 252.328847 
L 161.232666 252.632749 
L 161.354946 252.365316 
L 161.538367 252.82117 
L 161.599507 252.657062 
L 161.782928 251.544778 
L 162.027488 251.818291 
L 162.088629 251.757511 
L 162.210909 250.712084 
L 162.39433 250.651304 
L 162.45547 250.827568 
L 162.638891 249.867235 
L 162.883451 250.158982 
L 162.944592 250.000953 
L 163.005732 250.049577 
L 163.066872 250.681695 
L 163.739414 248.736717 
L 163.922835 249.842923 
L 164.106256 250.03742 
L 164.228536 250.949128 
L 164.289676 250.706007 
L 164.350817 250.626992 
L 164.534237 250.754632 
L 164.595378 250.505431 
L 164.656518 251.149706 
L 164.717658 251.034222 
L 164.778798 250.602681 
L 164.962219 250.651304 
L 165.084499 250.158982 
L 165.20678 251.07069 
L 165.3902 250.450728 
L 165.573621 248.779264 
L 165.634761 249.162182 
L 165.879322 249.545099 
L 165.940462 249.964483 
L 166.001602 248.359877 
L 166.062743 249.703127 
L 166.246163 249.53902 
L 166.307304 248.979838 
L 166.368444 249.034541 
L 166.429584 248.955527 
L 166.490724 248.122833 
L 166.674145 248.214003 
L 166.796425 247.229358 
L 166.918706 247.211124 
L 167.102126 247.034862 
L 167.224407 248.82181 
L 167.346687 247.897945 
L 167.530108 247.94657 
L 167.591248 248.372033 
L 167.652388 248.232238 
L 167.774669 248.390268 
L 168.08037 247.703447 
L 168.14151 247.764227 
L 168.20265 247.952648 
L 168.386071 247.78854 
L 168.447211 248.232238 
L 168.508351 248.116755 
L 168.569492 248.280863 
L 168.630632 247.533262 
L 168.875193 247.442091 
L 168.997473 247.077408 
L 169.058613 247.709526 
L 169.303174 247.885788 
L 169.486595 245.533581 
L 169.670015 245.424176 
L 169.853436 243.795258 
L 169.914576 244.2268 
L 170.159137 244.749514 
L 170.220277 245.199289 
L 170.342558 242.798456 
L 170.587119 243.394106 
L 170.709399 243.169219 
L 170.770539 242.2879 
L 170.95396 242.00223 
L 171.07624 243.400185 
L 171.137381 242.640428 
L 171.198521 243.892506 
L 171.381941 243.552136 
L 171.443082 242.670817 
L 171.504222 243.625073 
L 171.565362 242.853161 
L 171.626502 243.302935 
L 171.809923 243.637228 
L 171.932203 243.467043 
L 172.054484 239.437294 
L 172.360185 242.397306 
L 172.482465 242.354759 
L 172.665886 242.269665 
L 172.849307 240.53134 
L 172.910447 240.731918 
L 173.093867 239.771585 
L 173.216148 240.920339 
L 173.277288 240.719763 
L 173.338428 240.95073 
L 173.521849 241.139147 
L 173.582989 241.060133 
L 173.70527 239.741196 
L 173.76641 240.968964 
L 173.949831 240.330766 
L 174.010971 239.364356 
L 174.072111 240.148425 
L 174.133251 240.148425 
L 174.622373 235.328528 
L 174.805794 235.249513 
L 174.866934 234.994235 
L 175.050354 233.182974 
L 175.233775 233.207285 
L 175.356055 234.422899 
L 175.417196 234.009588 
L 175.661757 234.31349 
L 175.784037 235.225198 
L 175.845177 235.10364 
L 175.906317 234.7268 
L 176.089738 235.893785 
L 176.212018 234.957767 
L 176.273159 235.46832 
L 176.334299 234.751114 
L 176.51772 234.471522 
L 176.57886 232.392825 
L 176.64 233.146505 
L 176.70114 233.219444 
L 176.76228 232.526544 
L 176.945701 232.307735 
L 177.006841 232.429293 
L 177.190262 236.452967 
L 177.373683 238.28854 
L 177.434823 237.583487 
L 177.618243 240.999353 
L 177.801664 240.817011 
L 177.862804 240.452326 
L 177.923945 241.120915 
L 177.985085 240.452326 
L 178.046225 241.047978 
L 178.290786 241.047978 
L 178.413066 241.983998 
L 178.474206 240.367237 
L 178.718767 242.129871 
L 178.841048 244.014068 
L 178.902188 243.85604 
L 179.085609 244.731278 
L 179.207889 245.946889 
L 179.330169 243.394106 
L 179.51359 243.612916 
L 179.57473 245.399864 
L 179.635871 245.205368 
L 179.697011 244.536781 
L 179.758151 245.606518 
L 180.002712 245.630831 
L 180.063852 246.372353 
L 180.124992 245.922578 
L 180.186133 243.85604 
L 180.369553 243.75879 
L 180.552974 245.156743 
L 180.858675 247.782461 
L 180.919815 247.040939 
L 180.980955 248.414581 
L 181.042096 248.244394 
L 181.225516 248.852201 
L 181.408937 245.983358 
L 181.470077 247.673058 
L 181.653498 247.831086 
L 181.836918 245.302616 
L 182.081479 242.968643 
L 182.20376 243.831726 
L 182.32604 239.893148 
L 182.509461 241.582846 
L 182.570601 241.181695 
L 182.631741 240.063331 
L 182.754022 243.005111 
L 182.998582 241.206006 
L 183.120863 237.401145 
L 183.182003 237.47408 
L 183.365424 237.47408 
L 183.426564 238.300695 
L 183.487704 238.008948 
L 183.609985 238.19129 
L 183.793405 237.510548 
L 183.976826 234.799739 
L 184.037966 235.371072 
L 184.282527 236.222 
L 184.343667 236.19769 
L 184.404807 237.863075 
L 184.465948 236.136906 
L 184.649368 237.316052 
L 184.893929 234.872673 
L 185.07735 234.204087 
L 185.26077 232.623792 
L 185.505331 233.450407 
L 185.566471 232.733195 
L 185.688752 235.030702 
L 185.749892 234.046059 
L 185.933313 234.435053 
L 185.994453 235.833005 
L 186.055593 235.784382 
L 186.116733 232.599482 
L 186.177874 233.462565 
L 186.361294 232.72104 
L 186.422435 230.423535 
L 186.483575 231.335244 
L 186.789276 229.049897 
L 186.972696 232.015989 
L 187.033837 230.836844 
L 187.278398 231.772863 
L 187.461818 229.098522 
L 187.645239 230.605877 
L 187.767519 228.40562 
L 187.8898 230.946249 
L 188.07322 230.496474 
L 188.256641 227.31157 
L 188.501202 228.284062 
L 188.623482 226.168899 
L 188.684622 226.582204 
L 188.745763 226.509269 
L 188.929183 226.630829 
L 188.990324 225.536779 
L 189.051464 226.205366 
L 189.357165 225.548937 
L 189.418305 227.457447 
L 189.479445 226.108115 
L 189.601726 225.767746 
L 189.785146 226.472801 
L 189.907427 225.597561 
L 189.968567 225.804214 
L 190.029707 227.19001 
L 190.213128 227.007669 
L 190.76339 223.433774 
L 190.82453 223.470241 
L 190.88567 224.199609 
L 191.191371 225.038379 
L 191.252512 224.588604 
L 191.313652 224.965444 
L 191.619353 225.172097 
L 191.741633 227.615476 
L 192.047334 230.241197 
L 192.108475 227.822129 
L 192.169615 228.612277 
L 192.414176 227.080607 
L 192.536456 228.600119 
L 192.597596 232.125392 
L 192.781017 231.116435 
L 192.842157 231.663458 
L 192.964438 229.900822 
L 193.025578 231.335244 
L 193.208998 232.149704 
L 193.270139 233.304533 
L 193.331279 233.024945 
L 193.392419 233.328847 
L 193.453559 232.295577 
L 193.63698 231.335244 
L 193.881541 228.235437 
L 194.064961 230.253352 
L 194.187242 228.539339 
L 194.248382 229.47536 
L 194.309522 229.378112 
L 194.615223 230.435694 
L 194.737504 230.071009 
L 194.920924 230.435694 
L 195.104345 233.365317 
L 195.165485 233.341002 
L 195.348906 234.678175 
L 195.410046 234.507988 
L 195.593467 232.246952 
L 196.021448 235.419697 
L 196.266009 235.711447 
L 196.44943 233.280224 
L 196.693991 233.426097 
L 196.877411 234.872673 
L 197.183112 235.46832 
L 197.244253 235.346762 
L 197.488814 232.672417 
L 197.672234 234.580927 
L 197.733374 233.486875 
L 197.916795 233.15866 
L 197.977935 232.31989 
L 198.039076 232.964162 
L 198.100216 232.745355 
L 198.161356 231.359557 
L 198.344777 231.651304 
L 198.405917 231.456807 
L 198.589337 229.621234 
L 198.833898 229.523986 
L 198.956179 229.925135 
L 199.017319 229.329489 
L 199.20074 228.660902 
L 199.26188 230.314132 
L 199.32302 230.058854 
L 199.628721 227.68841 
L 199.689861 227.822129 
L 199.751002 228.284062 
L 199.812142 227.907222 
L 199.873282 228.174654 
L 200.178983 227.275106 
L 200.301263 229.6577 
L 200.606965 229.365954 
L 200.729245 227.651944 
L 200.912666 228.223279 
L 201.096086 226.217524 
L 201.157227 226.849641 
L 201.524068 225.257191 
L 201.768629 221.671138 
L 201.829769 222.436973 
L 201.952049 220.844523 
L 202.01319 217.963525 
L 202.25775 218.741514 
L 202.318891 221.002551 
L 202.380031 219.531661 
L 202.441171 218.850919 
L 202.624592 219.300698 
L 202.685732 217.963525 
L 202.808012 217.829806 
L 202.869153 217.355718 
L 203.052573 216.833004 
L 203.297134 214.292378 
L 203.480555 214.426095 
L 203.541695 213.234796 
L 203.602835 214.523345 
L 203.663975 213.952006 
L 203.908536 215.60524 
L 203.969676 215.082526 
L 204.091957 217.149065 
L 204.153097 216.44401 
L 204.336518 216.249511 
L 204.397658 212.748551 
L 204.458798 215.410738 
L 204.519938 214.389626 
L 204.825639 218.085084 
L 204.94792 214.438251 
L 205.00906 218.753669 
L 205.314761 215.580926 
L 205.375901 218.133708 
L 205.437042 217.051816 
L 205.681602 215.325648 
L 205.803883 211.107478 
L 205.865023 212.055655 
L 206.048444 211.581563 
L 206.109584 210.062052 
L 206.170724 212.736397 
L 206.231864 211.289816 
L 206.293005 209.818926 
L 206.659846 205.819567 
L 206.720986 208.104917 
L 206.904407 207.326927 
L 206.965547 207.746313 
L 207.026687 206.506388 
L 207.148968 210.24439 
L 207.332388 211.338445 
L 207.393529 210.937292 
L 207.454669 205.831725 
L 207.515809 207.545735 
L 207.82151 206.123472 
L 207.94379 202.731917 
L 208.004931 202.768385 
L 208.188351 203.588925 
L 208.249492 201.528462 
L 208.371772 204.992955 
L 208.432912 203.588925 
L 208.677473 201.801976 
L 208.860894 205.211764 
L 209.105455 203.95361 
L 209.288875 198.355721 
L 209.472296 202.494869 
L 209.533436 197.899867 
L 209.594576 200.033261 
L 209.900277 209.660898 
L 210.144838 204.828848 
L 210.328259 203.807733 
L 210.450539 201.163777 
L 210.57282 207.235758 
L 210.75624 209.423859 
L 210.817381 214.584125 
L 210.878521 209.132113 
L 210.939661 211.958407 
L 211.000801 211.885468 
L 211.184222 211.903702 
L 211.306502 216.626351 
L 211.428783 215.678175 
L 211.612203 215.167616 
L 211.673344 215.641704 
L 211.856764 207.87395 
L 212.040185 211.885468 
L 212.101325 211.630192 
L 212.284746 207.418096 
L 212.468166 208.256866 
L 212.590447 205.065887 
L 212.712727 207.618673 
L 212.896148 206.962242 
L 212.957288 208.621551 
L 213.018428 208.220405 
L 213.140709 205.339403 
L 213.324129 205.649387 
L 213.50755 204.227117 
L 213.56869 206.269342 
L 213.874391 208.019827 
L 214.241233 220.911382 
L 214.363513 218.996793 
L 214.424653 219.872031 
L 214.608074 220.182012 
L 214.669214 219.634989 
L 214.852635 227.621551 
L 215.097196 229.26263 
L 215.158336 228.952649 
L 215.280616 221.257827 
L 215.464037 224.904661 
L 215.525177 224.485277 
L 215.586317 224.649384 
L 215.708598 225.488154 
L 215.892018 220.200246 
L 216.075439 227.183931 
L 216.32 224.284699 
L 216.38114 223.828845 
L 216.503421 222.406582 
L 216.564561 229.171457 
L 216.809122 228.87971 
L 216.870262 231.396027 
L 216.931402 230.119634 
L 216.992542 231.10428 
L 217.359384 228.934413 
L 217.420524 230.7943 
L 217.603945 231.286618 
L 218.093066 235.589883 
L 218.154206 235.188734 
L 218.215347 236.993914 
L 218.276487 234.131152 
L 218.459908 238.28854 
L 218.582188 236.446887 
L 218.643328 237.650342 
L 218.887889 235.717523 
L 218.949029 233.547655 
L 219.010169 233.675298 
L 219.07131 234.915217 
L 219.13245 234.240555 
L 219.315871 233.967044 
L 219.438151 231.833647 
L 219.560431 234.532302 
L 219.804992 235.589883 
L 219.927273 234.295259 
L 219.988413 234.678175 
L 220.232974 237.4133 
L 220.294114 235.936334 
L 220.355254 237.468004 
L 220.416394 235.316371 
L 220.599815 235.826926 
L 220.783236 232.745355 
L 220.844376 233.51119 
L 221.027797 233.657064 
L 221.088937 234.550536 
L 221.272357 229.955526 
L 221.455778 229.444968 
L 221.516918 230.301975 
L 221.578059 229.043818 
L 221.639199 229.791419 
L 221.700339 230.1014 
L 221.88376 228.624432 
L 222.00604 230.648426 
L 222.06718 230.083165 
L 222.12832 226.144586 
L 222.311741 225.706966 
L 222.372881 227.840363 
L 222.434022 227.676256 
L 222.556302 227.183931 
L 222.800863 228.022705 
L 222.984284 226.12635 
L 223.228844 224.868196 
L 223.289985 227.512148 
L 223.351125 224.503511 
L 223.412265 225.469923 
L 223.595686 226.618674 
L 223.840247 231.195449 
L 224.023667 231.797177 
L 224.084807 231.359557 
L 224.268228 234.824048 
L 224.451649 233.930574 
L 224.512789 235.152263 
L 224.573929 233.219444 
L 224.635069 234.678175 
L 224.69621 235.316371 
L 224.87963 235.48048 
L 224.94077 236.501592 
L 225.001911 236.209845 
L 225.063051 246.566851 
L 225.307612 247.113876 
L 225.552173 249.174337 
L 225.735593 248.791419 
L 225.796733 250.104279 
L 225.857874 249.630191 
L 225.919014 249.265507 
L 225.980154 249.666659 
L 226.163575 248.827888 
L 226.285855 249.338444 
L 226.346995 249.083166 
L 226.408136 249.921937 
L 226.652696 249.174337 
L 226.713837 248.572609 
L 226.836117 249.921937 
L 227.080678 250.578367 
L 227.264099 249.447849 
L 227.447519 250.031342 
L 227.63094 248.043818 
L 227.69208 246.110997 
L 227.936641 246.621553 
L 228.058921 245.016947 
L 228.364622 245.655143 
L 228.425763 246.9133 
L 228.486903 246.147465 
L 228.548043 246.603319 
L 228.792604 246.803895 
L 228.976025 249.447849 
L 229.159445 248.754951 
L 229.342866 251.635949 
L 229.404006 251.617715 
L 229.587427 252.310613 
L 229.648567 253.878751 
L 229.709707 253.149385 
L 229.831988 249.429615 
L 230.015408 249.593722 
L 230.137689 250.706007 
L 230.198829 249.721362 
L 230.259969 249.830767 
L 230.44339 249.484317 
L 230.50453 251.526544 
L 230.56567 250.997753 
L 230.62681 251.125392 
L 230.687951 252.948809 
L 230.932512 255.410421 
L 231.115932 258.710805 
L 231.360493 255.00927 
L 231.421633 255.97568 
L 231.482773 257.051496 
L 231.543914 256.595642 
L 231.727334 255.811573 
L 231.910755 257.634989 
L 231.971895 259.294299 
L 232.155316 258.254951 
L 232.338737 254.279903 
L 232.399877 254.991035 
L 232.583297 253.91522 
L 232.766718 255.629231 
L 232.827858 254.407542 
L 233.011279 253.732878 
L 233.1947 257.470882 
L 233.25584 256.340364 
L 233.561541 257.963204 
L 233.683821 259.130191 
L 234.111803 256.577408 
L 234.417504 257.598521 
L 234.478644 256.686813 
L 234.539784 257.72616 
L 234.723205 256.559174 
L 234.784345 257.416179 
L 234.906626 254.735757 
L 234.967766 255.738636 
L 235.151186 254.462245 
L 235.212327 254.918099 
L 235.334607 253.349961 
L 235.395747 254.608118 
L 235.579168 254.462245 
L 235.701448 256.10332 
L 236.007149 256.358598 
L 236.12943 255.793339 
L 236.25171 255.519826 
L 236.435131 254.535181 
L 236.496271 253.587005 
L 236.557411 253.896986 
L 236.679692 254.918099 
L 236.863112 255.775105 
L 236.924253 256.832686 
L 236.985393 256.777984 
L 237.046533 256.832686 
L 237.107673 256.048617 
L 237.352234 255.702168 
L 237.535655 257.087965 
L 237.780216 255.465124 
L 237.841356 254.298137 
L 237.902496 254.735757 
L 238.147057 255.957446 
L 238.269337 254.735757 
L 238.330478 254.753991 
L 238.391618 253.112916 
L 238.575039 252.310613 
L 238.636179 252.492955 
L 238.758459 255.702168 
L 238.819599 255.410421 
L 239.06416 255.647465 
L 239.1253 255.957446 
L 239.186441 255.282782 
L 239.247581 256.887389 
L 239.431002 256.121554 
L 239.492142 256.923857 
L 239.614422 255.136909 
L 239.675562 255.556295 
L 239.858983 255.501592 
L 239.920123 256.158022 
L 240.042404 255.027504 
L 240.103544 255.173377 
L 240.286965 255.045738 
L 240.714946 252.182974 
L 240.776086 253.003511 
L 240.837227 252.474721 
L 240.898367 251.50831 
L 240.959507 251.581247 
L 241.142928 252.310613 
L 241.387488 251.180095 
L 241.69319 252.474721 
L 241.81547 250.924817 
L 242.060031 249.940172 
L 242.121171 250.031342 
L 242.182311 248.900824 
L 242.426872 248.554375 
L 242.549153 249.611957 
L 242.671433 248.937293 
L 242.854854 249.611957 
L 242.915994 250.359557 
L 242.977134 250.323089 
L 243.038274 249.338444 
L 243.099414 249.666659 
L 243.282835 249.666659 
L 243.343975 250.396026 
L 243.405116 249.994874 
L 243.466256 250.013108 
L 243.527396 249.356678 
L 243.771957 248.299097 
L 243.833097 248.481438 
L 243.894237 248.682014 
L 243.955378 251.088924 
L 244.138798 253.641707 
L 244.199938 252.657062 
L 244.322219 254.936333 
L 244.383359 254.589884 
L 244.56678 253.896986 
L 244.68906 252.693531 
L 244.7502 252.711765 
L 244.811341 252.60236 
L 245.055901 252.492955 
L 245.178182 251.034222 
L 245.239322 251.052456 
L 245.422743 250.997753 
L 245.483883 250.286621 
L 245.545023 250.706007 
L 245.606163 251.015987 
L 245.667304 250.013108 
L 245.850724 250.63307 
L 245.911864 250.323089 
L 246.034145 248.809653 
L 246.095285 249.447849 
L 246.523267 249.867235 
L 246.706687 249.776064 
L 246.828968 250.85188 
L 246.890108 250.63307 
L 246.951248 249.502552 
L 247.134669 249.083166 
L 247.195809 249.210805 
L 247.318089 250.231918 
L 247.56265 250.377792 
L 247.684931 251.72712 
L 247.746071 251.490076 
L 248.051772 250.961285 
L 248.235193 248.846122 
L 248.479753 248.00735 
L 248.540894 248.846122 
L 248.663174 247.259749 
L 249.030015 246.530383 
L 249.091156 246.749193 
L 249.274576 246.092763 
L 249.335716 246.439212 
L 249.519137 245.016947 
L 249.702558 245.053415 
L 249.824838 246.603319 
L 249.947119 245.053415 
L 250.19168 246.785661 
L 250.3751 245.053415 
L 250.558521 244.980479 
L 250.619661 245.418099 
L 250.680801 245.38163 
L 250.986502 243.685853 
L 251.047643 243.777024 
L 251.108783 244.615795 
L 251.169923 244.28758 
L 251.659045 240.276064 
L 251.842465 240.91426 
L 251.964746 240.440171 
L 252.087026 242.172417 
L 252.270447 242.810613 
L 252.392727 242.391227 
L 252.453867 242.5371 
L 252.515008 243.503511 
L 252.698428 243.704087 
L 252.759569 243.029423 
L 252.820709 243.138828 
L 252.881849 242.920018 
L 252.942989 245.035181 
L 253.12641 244.706966 
L 253.18755 244.798137 
L 253.24869 244.871074 
L 253.309831 244.743434 
L 253.370971 244.871074 
L 253.554391 244.834605 
L 253.676672 243.795258 
L 253.798952 245.873953 
L 253.982373 245.928655 
L 254.043513 244.834605 
L 254.104653 245.326928 
L 254.165794 245.965124 
L 254.226934 245.345162 
L 254.471495 246.676256 
L 254.593775 247.970882 
L 254.654915 247.460325 
L 254.899476 248.937293 
L 255.082897 246.457446 
L 255.449738 245.399864 
L 255.510878 245.709845 
L 255.755439 245.144586 
L 255.87772 246.110997 
L 255.93886 247.113876 
L 256.12228 246.366275 
L 256.183421 246.639788 
L 256.244561 246.402744 
L 256.366841 247.259749 
L 256.550262 246.822129 
L 256.794823 244.542859 
L 256.978243 241.333645 
L 257.039384 241.370114 
L 257.100524 242.026544 
L 257.161664 241.424816 
L 257.222804 241.898905 
L 257.406225 242.09948 
L 257.467365 241.862436 
L 257.650786 239.291421 
L 257.834206 239.38259 
L 258.017627 237.085085 
L 258.262188 237.303897 
L 258.323328 237.887388 
L 258.445609 236.118676 
L 258.75131 236.647465 
L 258.87359 235.991033 
L 258.93473 236.756868 
L 259.118151 236.228079 
L 259.301572 237.978557 
L 259.607273 239.273185 
L 259.729553 238.598521 
L 259.790693 239.510229 
L 260.035254 239.856678 
L 260.096394 240.695448 
L 260.157535 239.637866 
L 260.402096 242.063012 
L 260.585516 239.729039 
L 260.646656 241.278943 
L 260.891217 240.239594 
L 260.952357 240.768386 
L 261.074638 239.236716 
L 261.380339 237.613878 
L 261.502619 239.966083 
L 261.74718 239.856678 
L 261.869461 240.750152 
L 261.930601 240.47664 
L 262.114022 240.677217 
L 262.175162 239.236716 
L 262.236302 239.34612 
L 262.358582 240.075486 
L 262.664284 238.325008 
L 262.725424 238.416177 
L 263.031125 238.963204 
L 263.153405 237.176258 
L 263.397966 239.182012 
L 263.520247 237.887388 
L 263.642527 238.343242 
L 263.825948 238.416177 
L 263.887088 237.85092 
L 263.948228 238.215605 
L 264.009368 238.361477 
L 264.315069 238.762628 
L 264.49849 239.528463 
L 264.681911 239.218482 
L 264.804191 237.340361 
L 264.865331 237.522703 
L 264.926471 238.726158 
L 265.109892 239.364356 
L 265.232173 238.999674 
L 265.293313 240.458406 
L 265.354453 239.929613 
L 265.599014 240.184893 
L 265.660154 240.841321 
L 265.721294 240.677217 
L 265.782435 240.239594 
L 266.026995 242.336525 
L 266.149276 243.977599 
L 266.210416 244.105239 
L 266.393837 243.248233 
L 266.454977 243.941131 
L 266.516117 243.795258 
L 266.577257 243.576448 
L 266.638398 245.326928 
L 267.066379 248.171458 
L 267.2498 247.095642 
L 267.31094 248.408502 
L 267.494361 245.655143 
L 268.105763 248.080287 
L 268.289183 249.940172 
L 268.350324 249.75783 
L 268.533744 248.754951 
L 268.594884 249.283742 
L 268.778305 247.825008 
L 268.961726 247.332686 
L 269.206287 249.830767 
L 269.389707 249.885469 
L 269.573128 251.563012 
L 269.634268 251.234797 
L 269.939969 251.672417 
L 270.001109 250.724241 
L 270.06225 251.344202 
L 270.24567 251.362437 
L 270.367951 249.447849 
L 270.429091 250.104279 
L 270.673652 251.654183 
L 270.734792 251.654183 
L 270.795932 250.505431 
L 270.857072 251.125392 
L 270.918213 251.034222 
L 271.101633 251.398905 
L 271.162773 250.943051 
L 271.223914 251.471842 
L 271.346194 253.714644 
L 271.529615 253.185853 
L 271.651895 253.787581 
L 271.774176 253.094682 
L 271.957596 252.638828 
L 272.079877 253.732878 
L 272.141017 254.334606 
L 272.202157 253.368195 
L 272.507858 253.386429 
L 272.813559 252.000632 
L 272.8747 252.912341 
L 272.93584 252.711765 
L 272.99698 251.909461 
L 273.05812 252.255911 
L 273.241541 252.000632 
L 273.363821 252.967043 
L 273.424961 253.03998 
L 273.486102 252.365316 
L 273.730663 252.237676 
L 273.791803 251.982398 
L 273.852943 251.180095 
L 273.914083 251.544778 
L 274.097504 251.544778 
L 274.158644 250.997753 
L 274.219784 251.198329 
L 274.280924 251.234797 
L 274.342065 250.778943 
L 274.525485 250.997753 
L 274.586626 250.815412 
L 274.770046 248.572609 
L 274.953467 247.715603 
L 275.075747 248.609078 
L 275.136888 248.299097 
L 275.381448 249.739596 
L 275.442589 249.301976 
L 275.503729 249.593722 
L 275.626009 250.797177 
L 275.80943 250.341323 
L 275.87057 250.687772 
L 275.992851 249.53902 
L 276.053991 249.557254 
L 276.237411 249.630191 
L 276.298552 249.97664 
L 276.420832 249.630191 
L 276.481972 249.885469 
L 276.665393 248.554375 
L 276.726533 248.773185 
L 276.787673 248.791419 
L 276.848814 247.989116 
L 276.909954 248.299097 
L 277.154515 248.189692 
L 277.276795 247.442091 
L 277.337935 247.460325 
L 277.643636 247.113876 
L 277.704777 247.551496 
L 277.765917 246.366275 
L 277.949337 245.946889 
L 278.071618 247.077408 
L 278.193898 246.001592 
L 278.377319 245.326928 
L 278.438459 245.436333 
L 278.499599 245.472801 
L 278.62188 245.144586 
L 278.866441 245.545738 
L 279.049861 244.141707 
L 279.355562 242.956486 
L 279.416703 243.339404 
L 279.477843 243.138828 
L 279.661263 242.865315 
L 279.905824 244.159941 
L 280.150385 243.886429 
L 280.272666 242.828847 
L 280.517227 243.10236 
L 280.578367 242.88355 
L 280.639507 243.011189 
L 280.700647 243.029423 
L 280.761787 242.88355 
L 281.067488 240.95073 
L 281.189769 235.389306 
L 281.37319 234.659941 
L 281.55661 228.113875 
L 281.61775 228.314451 
L 281.862311 227.803895 
L 281.923451 228.205048 
L 281.984592 229.773183 
L 282.045732 228.897945 
L 282.229153 227.858597 
L 282.412573 224.849962 
L 282.657134 226.837486 
L 282.779414 225.871073 
L 282.840555 223.518864 
L 282.901695 223.828845 
L 283.085116 224.065891 
L 283.329676 228.770305 
L 283.513097 226.928655 
L 283.696518 228.806776 
L 283.757658 223.664737 
L 284.002219 225.0323 
L 284.124499 229.718484 
L 284.185639 227.822129 
L 284.36906 227.384509 
L 284.613621 232.143628 
L 284.797042 232.107158 
L 284.858182 232.508308 
L 285.041602 237.285661 
L 285.225023 237.066849 
L 285.286163 238.671459 
L 285.347304 238.325008 
L 285.469584 237.158023 
L 285.653005 237.4133 
L 285.775285 238.470882 
L 285.897565 234.860517 
L 286.080986 235.462244 
L 286.203267 235.00639 
L 286.264407 236.53806 
L 286.325547 236.136906 
L 286.692388 238.325008 
L 286.753529 236.97568 
L 286.998089 238.963204 
L 287.05923 238.233839 
L 287.12037 238.142667 
L 287.18151 236.738634 
L 287.364931 236.920977 
L 287.426071 237.230958 
L 287.548351 236.009269 
L 287.792912 236.31925 
L 288.037473 234.422899 
L 288.220894 233.000632 
L 288.404314 236.501592 
L 288.465455 235.498714 
L 288.648875 234.896987 
L 288.710015 233.930574 
L 288.771156 233.985279 
L 288.832296 234.131152 
L 289.137997 238.069732 
L 289.199137 237.960323 
L 289.260277 237.085085 
L 289.321418 237.887388 
L 289.504838 237.723281 
L 289.99396 233.985279 
L 290.0551 233.857636 
L 290.177381 235.899864 
L 290.483082 237.468004 
L 290.605362 238.50735 
L 290.972203 239.637866 
L 291.216764 241.66186 
L 291.277904 241.643626 
L 291.339045 241.333645 
L 291.400185 241.898905 
L 291.461325 240.823091 
L 291.705886 242.135949 
L 291.767026 241.7895 
L 291.889307 241.169538 
L 292.133867 240.823091 
L 292.317288 241.953607 
L 292.684129 243.394106 
L 292.74527 244.415219 
L 292.989831 244.998713 
L 293.173251 243.19353 
L 293.356672 243.302935 
L 293.601233 245.272225 
L 293.968074 243.722321 
L 294.212635 247.770306 
L 294.273775 248.062053 
L 294.334915 247.35092 
L 294.396055 247.733838 
L 294.457196 243.175296 
L 294.640616 246.512149 
L 294.701757 246.129231 
L 294.762897 246.47568 
L 294.885177 248.827888 
L 295.129738 247.934413 
L 295.190878 246.165699 
L 295.252018 246.931534 
L 295.313159 247.56973 
L 295.61886 245.108118 
L 295.985701 247.442091 
L 296.046841 244.251112 
L 296.107982 244.50639 
L 296.169122 244.597561 
L 296.352542 245.272225 
L 296.535963 241.753031 
L 296.597103 241.917139 
L 296.780524 242.518866 
L 296.841664 242.281822 
L 297.025085 245.746314 
L 297.269646 244.396985 
L 297.636487 247.715603 
L 297.697627 249.229039 
L 297.881048 244.798137 
L 298.186749 243.065891 
L 298.247889 243.722321 
L 298.309029 241.552455 
L 298.49245 241.898905 
L 298.55359 243.138828 
L 298.61473 241.971841 
L 298.737011 243.63115 
L 298.920431 243.722321 
L 299.103852 242.591803 
L 299.164992 242.66474 
L 299.348413 242.701208 
L 299.531834 244.761669 
L 299.592974 243.75879 
L 299.776394 243.41234 
L 299.837535 243.011189 
L 299.959815 243.485277 
L 300.020955 243.10236 
L 300.204376 242.920018 
L 300.265516 243.704087 
L 300.326656 243.612916 
L 300.387797 243.704087 
L 300.448937 244.451688 
L 300.632357 245.235757 
L 300.754638 243.029423 
L 300.876918 244.251112 
L 301.060339 243.795258 
L 301.3049 241.078367 
L 301.48832 241.096601 
L 301.732881 243.649385 
L 301.916302 243.649385 
L 301.977442 243.394106 
L 302.160863 245.491035 
L 302.344284 245.491035 
L 302.405424 245.691611 
L 302.588844 244.014068 
L 302.955686 244.980479 
L 303.016826 244.852839 
L 303.261387 244.159941 
L 303.322527 244.615795 
L 303.383667 244.469922 
L 303.444807 243.430575 
L 303.628228 243.704087 
L 303.689368 243.32117 
L 303.872789 244.706966 
L 304.11735 244.816371 
L 304.17849 245.108118 
L 304.30077 244.105239 
L 304.484191 244.28758 
L 304.667612 242.75591 
L 304.728752 243.576448 
L 304.912173 243.521745 
L 305.340154 241.534221 
L 305.462435 241.534221 
L 305.523575 240.130191 
L 305.584715 240.804857 
L 305.768136 240.51311 
L 305.829276 240.786621 
L 305.890416 240.349002 
L 305.951556 242.774145 
L 306.012696 240.221363 
L 306.257257 241.35188 
L 306.318398 241.333645 
L 306.379538 241.333645 
L 306.440678 241.13307 
L 306.868659 242.518866 
L 307.05208 242.391227 
L 307.11322 243.448809 
L 307.174361 243.248233 
L 307.296641 243.065891 
L 307.480062 243.10236 
L 307.663482 243.959365 
L 307.724622 243.63115 
L 307.908043 243.467043 
L 308.091464 244.06877 
L 308.152604 243.977599 
L 308.519445 242.628271 
L 308.580586 242.22712 
L 308.764006 242.22712 
L 308.825146 242.081246 
L 308.947427 243.485277 
L 309.314268 244.06877 
L 309.375408 244.050536 
L 309.436549 243.704087 
L 309.74225 244.834605 
L 310.047951 246.238636 
L 310.109091 246.03806 
L 310.170231 246.512149 
L 310.231371 246.402744 
L 310.292512 246.402744 
L 310.537072 246.658022 
L 310.598213 246.202168 
L 310.720493 247.35092 
L 310.903914 247.478559 
L 311.026194 247.916179 
L 311.148475 245.709845 
L 311.882157 248.335565 
L 311.943297 247.423857 
L 312.004438 248.171458 
L 312.248998 247.259749 
L 312.310139 247.296218 
L 312.371279 247.314452 
L 312.432419 248.043818 
L 312.61584 248.280863 
L 312.67698 248.955527 
L 312.79926 247.314452 
L 312.860401 248.481438 
L 313.043821 247.423857 
L 313.104961 247.624433 
L 313.166102 247.442091 
L 313.288382 248.134989 
L 313.471803 247.989116 
L 313.655223 245.728079 
L 313.716364 246.530383 
L 313.899784 246.512149 
L 313.960924 247.150344 
L 314.022065 247.004471 
L 314.327766 244.907542 
L 314.388906 245.709845 
L 314.511186 245.235757 
L 315.000308 247.606198 
L 315.183729 247.478559 
L 315.244869 247.186813 
L 315.306009 247.733838 
L 315.367149 246.25687 
L 315.42829 246.329807 
L 315.61171 247.496793 
L 315.795131 245.928655 
L 315.856271 246.165699 
L 316.039692 245.655143 
L 316.100832 245.928655 
L 316.161972 245.399864 
L 316.223112 245.946889 
L 316.284253 245.345162 
L 316.467673 244.980479 
L 316.712234 242.701208 
L 316.895655 243.53998 
L 316.956795 243.138828 
L 317.079076 243.594682 
L 317.140216 243.284701 
L 317.323636 243.612916 
L 317.384777 243.430575 
L 317.568197 244.141707 
L 317.751618 243.63115 
L 317.812758 244.269346 
L 317.873898 244.196409 
L 317.935039 244.178175 
L 318.30188 245.928655 
L 318.42416 245.837484 
L 318.607581 245.855719 
L 318.668721 246.03806 
L 318.791002 245.235757 
L 318.852142 245.308694 
L 319.035562 244.94401 
L 319.096703 245.965124 
L 319.157843 245.472801 
L 319.218983 245.290459 
L 319.280123 245.38163 
L 319.463544 245.709845 
L 319.524684 244.998713 
L 319.646965 246.147465 
L 319.708105 246.129231 
L 319.891525 245.801016 
L 320.074946 246.402744 
L 320.136086 245.326928 
L 320.564068 247.168578 
L 320.747488 247.168578 
L 320.930909 246.47568 
L 321.23661 248.609078 
L 321.29775 247.606198 
L 321.358891 247.861477 
L 321.420031 247.989116 
L 321.786872 248.280863 
L 321.848012 247.113876 
L 322.031433 247.515028 
L 322.092573 246.439212 
L 322.153713 246.69449 
L 322.703975 249.1014 
L 322.948536 249.119634 
L 323.009676 249.283742 
L 323.131957 248.590843 
L 323.315378 248.499673 
L 323.498798 247.843243 
L 323.559938 248.299097 
L 323.743359 248.134989 
L 323.804499 248.773185 
L 323.865639 248.353799 
L 323.92678 248.481438 
L 323.98792 248.372033 
L 324.171341 248.426736 
L 324.293621 247.095642 
L 324.354761 247.442091 
L 324.415901 247.296218 
L 324.660462 247.369154 
L 324.782743 247.077408 
L 324.843883 247.496793 
L 325.149584 247.952648 
L 325.210724 247.879711 
L 325.271864 248.262628 
L 325.455285 248.244394 
L 325.699846 246.986237 
L 325.883267 246.275104 
L 326.127827 247.843243 
L 326.311248 247.825008 
L 326.433529 248.426736 
L 326.555809 247.897945 
L 326.92265 248.189692 
L 327.228351 247.332686 
L 327.350632 247.770306 
L 327.411772 247.697369 
L 327.656333 247.952648 
L 327.717473 248.098521 
L 327.839753 247.679135 
L 328.023174 247.496793 
L 328.206595 247.989116 
L 328.267735 247.077408 
L 328.512296 247.004471 
L 328.634576 247.697369 
L 328.695716 247.679135 
L 328.879137 247.35092 
L 328.940277 247.897945 
L 329.001418 247.679135 
L 329.123698 247.314452 
L 329.307119 247.223281 
L 329.429399 246.749193 
L 329.490539 246.785661 
L 329.7351 247.095642 
L 329.79624 247.113876 
L 329.918521 246.858598 
L 329.979661 246.986237 
L 330.224222 247.332686 
L 330.285362 247.277983 
L 330.346502 247.35092 
L 330.407643 247.515028 
L 330.591063 247.35092 
L 330.713344 247.533262 
L 330.774484 247.223281 
L 331.019045 246.895066 
L 331.202465 248.189692 
L 331.263606 248.22616 
L 331.691587 246.840363 
L 331.875008 246.439212 
L 332.119569 247.387388 
L 332.302989 247.332686 
L 332.42527 246.603319 
L 332.54755 245.709845 
L 332.730971 245.746314 
L 332.975532 244.889308 
L 333.220092 245.016947 
L 333.342373 245.345162 
L 333.403513 244.342283 
L 333.586934 243.904663 
L 333.648074 243.959365 
L 333.709214 244.014068 
L 333.831495 243.430575 
L 334.076055 243.157062 
L 334.137196 242.920018 
L 334.198336 244.28758 
L 334.259476 243.704087 
L 334.504037 243.521745 
L 334.626317 243.941131 
L 334.687458 243.704087 
L 334.993159 243.886429 
L 335.054299 244.415219 
L 335.115439 244.06877 
L 335.29886 243.959365 
L 335.48228 244.706966 
L 335.543421 243.941131 
L 335.726841 243.868195 
L 335.910262 243.394106 
L 336.154823 244.324049 
L 336.277103 244.014068 
L 336.399384 244.688732 
L 336.582804 244.451688 
L 336.705085 244.761669 
L 337.010786 244.196409 
L 337.071926 244.342283 
L 337.133066 244.269346 
L 337.255347 243.612916 
L 337.561048 243.448809 
L 337.866749 244.06877 
L 337.927889 243.959365 
L 338.11131 244.542859 
L 338.355871 244.305814 
L 338.783852 243.175296 
L 338.967273 244.488156 
L 339.150693 244.889308 
L 339.395254 242.701208 
L 339.578675 242.701208 
L 339.700955 243.138828 
L 339.762096 243.120594 
L 339.823236 242.920018 
L 340.006656 242.938252 
L 340.190077 243.339404 
L 340.251217 243.284701 
L 340.618059 243.175296 
L 340.679199 242.97472 
L 340.862619 242.88355 
L 341.10718 241.515987 
L 341.290601 241.187772 
L 341.351741 241.297177 
L 341.412881 241.297177 
L 341.474022 240.932494 
L 341.535162 241.114836 
L 341.779723 241.698329 
L 341.840863 241.66186 
L 341.902003 241.497753 
L 341.963143 241.88067 
L 342.146564 242.117715 
L 342.207704 241.825968 
L 342.391125 242.22712 
L 342.696826 241.862436 
L 342.819106 242.610037 
L 343.002527 242.482398 
L 343.124807 241.971841 
L 343.185948 242.00831 
L 343.430508 241.060133 
L 343.85849 242.482398 
L 343.91963 242.5371 
L 343.98077 242.372993 
L 344.041911 242.44593 
L 344.286471 242.31829 
L 344.347612 243.375872 
L 344.408752 243.248233 
L 344.531032 242.88355 
L 344.959014 240.549575 
L 345.325855 242.464164 
L 345.386995 242.245354 
L 345.570416 242.555335 
L 345.631556 241.643626 
L 345.692696 241.734797 
L 345.814977 241.607158 
L 345.998398 241.898905 
L 346.181818 241.078367 
L 346.426379 242.026544 
L 346.487519 242.500632 
L 346.548659 241.807734 
L 346.6098 242.22712 
L 346.67094 242.628271 
L 346.915501 242.828847 
L 347.465763 241.278943 
L 347.526903 241.515987 
L 347.710324 241.479519 
L 347.771464 241.060133 
L 348.138305 241.370114 
L 348.260586 240.695448 
L 348.321726 240.859555 
L 348.382866 241.424816 
L 348.566287 241.552455 
L 348.627427 242.081246 
L 348.810847 240.95073 
L 349.055408 241.041899 
L 349.116549 240.91426 
L 349.48339 242.09948 
L 349.54453 241.88067 
L 349.66681 241.971841 
L 349.850231 241.406582 
L 349.972512 242.026544 
L 350.033652 242.044778 
L 350.094792 241.643626 
L 350.339353 241.041899 
L 350.400493 240.51311 
L 350.461633 238.780862 
L 350.522773 238.872031 
L 350.950755 236.045737 
L 351.134176 236.31925 
L 351.195316 235.954568 
L 351.256456 236.136906 
L 351.317596 236.118676 
L 351.562157 237.468004 
L 351.745578 236.191611 
L 351.806718 236.57453 
L 352.112419 237.085085 
L 352.173559 236.756868 
L 352.2347 238.215605 
L 352.47926 237.613878 
L 352.662681 236.082206 
L 352.846102 236.410423 
L 352.907242 236.228079 
L 352.968382 236.28278 
L 353.090663 237.85092 
L 353.274083 237.540939 
L 353.396364 236.228079 
L 353.457504 236.373952 
L 353.518644 235.899864 
L 353.702065 237.121553 
L 353.763205 237.030384 
L 353.824345 235.681052 
L 353.885485 236.027503 
L 353.946626 236.97568 
L 354.130046 236.97568 
L 354.252327 236.428653 
L 354.313467 236.647465 
L 354.558028 236.373952 
L 354.802589 235.188734 
L 355.10829 236.209845 
L 355.16943 236.045737 
L 355.413991 236.665699 
L 355.475131 235.936334 
L 355.658552 237.522703 
L 355.841972 237.249192 
L 355.903112 236.811572 
L 355.964253 236.884507 
L 356.086533 237.668576 
L 356.269954 237.139787 
L 356.331094 236.57453 
L 356.392234 236.848043 
L 356.453374 237.048615 
L 356.514515 236.647465 
L 356.759076 236.31925 
L 356.881356 235.644588 
L 356.942496 235.681052 
L 357.125917 235.48048 
L 357.248197 235.936334 
L 357.309337 235.753991 
L 357.370478 235.498714 
L 357.615039 235.626352 
L 357.676179 235.44401 
L 357.798459 234.277025 
L 357.98188 234.769344 
L 358.04302 234.678175 
L 358.10416 234.568772 
L 358.226441 235.243432 
L 358.532142 236.556296 
L 358.593282 236.301014 
L 358.654422 236.793338 
L 358.837843 236.848043 
L 358.960123 236.173377 
L 359.021263 236.483357 
L 359.265824 235.808695 
L 359.326965 236.228079 
L 359.388105 236.118676 
L 359.449245 236.045737 
L 359.510385 235.535179 
L 359.693806 235.352841 
L 359.816086 234.769344 
L 360.121787 236.738634 
L 360.182928 236.155141 
L 360.244068 236.53806 
L 360.366348 237.322131 
L 360.610909 237.905622 
L 360.672049 237.613878 
L 360.73319 237.668576 
L 360.79433 238.325008 
L 360.97775 238.015027 
L 361.100031 238.25207 
L 361.405732 235.553415 
L 361.528012 235.717523 
L 361.589153 235.44401 
L 361.650293 235.84516 
L 361.955994 235.04286 
L 362.078274 235.498714 
L 362.322835 235.298137 
L 362.506256 234.751114 
L 362.750817 234.678175 
L 362.873097 234.404663 
L 362.934237 233.748233 
L 363.117658 233.857636 
L 363.301079 234.732879 
L 363.362219 234.623471 
L 363.545639 235.261668 
L 363.60678 235.936334 
L 363.66792 235.425776 
L 363.7902 234.678175 
L 363.973621 234.732879 
L 364.034761 235.972799 
L 364.095901 235.954568 
L 364.157042 235.772225 
L 364.218182 236.373952 
L 364.401602 236.683933 
L 364.462743 236.610995 
L 364.523883 236.53806 
L 364.585023 236.97568 
L 364.646163 236.866277 
L 364.829584 236.866277 
L 364.951864 237.577407 
L 365.013005 237.085085 
L 365.257565 239.309655 
L 365.318706 239.200248 
L 365.379846 239.364356 
L 365.502126 238.033262 
L 365.685547 238.470882 
L 365.930108 236.683933 
L 366.174669 236.610995 
L 366.358089 235.371072 
L 366.66379 233.310613 
L 366.724931 233.456486 
L 366.786071 232.945928 
L 367.091772 234.295259 
L 367.152912 234.277025 
L 367.214052 234.550536 
L 367.458613 234.295259 
L 367.642034 232.81829 
L 367.947735 232.945928 
L 368.070015 231.961284 
L 368.253436 232.161862 
L 368.314576 232.745355 
L 368.375716 232.471843 
L 368.436857 231.742473 
L 368.497997 232.015989 
L 368.681418 231.870112 
L 368.925978 233.784701 
L 369.109399 234.021743 
L 369.170539 234.587006 
L 369.23168 234.240555 
L 369.29282 233.055336 
L 369.35396 233.110035 
L 369.537381 233.0371 
L 369.598521 232.052453 
L 369.659661 232.490073 
L 369.781941 232.727119 
L 369.965362 232.800054 
L 370.209923 233.529424 
L 370.393344 233.529424 
L 370.515624 234.988156 
L 370.576764 234.933452 
L 370.637904 233.894106 
L 370.821325 233.784701 
L 370.943606 234.769344 
L 371.004746 233.985279 
L 371.065886 234.550536 
L 371.310447 233.584125 
L 371.371587 233.930574 
L 371.493867 232.544778 
L 371.677288 232.635947 
L 371.860709 235.00639 
L 371.921849 234.422899 
L 372.10527 235.00639 
L 372.349831 232.909463 
L 372.533251 233.255908 
L 372.594391 233.0371 
L 372.777812 229.66378 
L 373.022373 229.627311 
L 373.144653 229.390267 
L 373.205794 229.827887 
L 373.389214 229.517906 
L 373.450354 229.827887 
L 373.511495 229.718484 
L 373.817196 230.119634 
L 373.878336 229.335565 
L 373.939476 229.937292 
L 374.061757 228.78854 
L 374.245177 229.098522 
L 374.367458 228.296217 
L 374.489738 229.098522 
L 374.795439 227.840363 
L 374.856579 228.387386 
L 374.91772 227.548616 
L 375.223421 229.408503 
L 375.284561 232.654181 
L 375.345701 231.778943 
L 375.529122 231.06781 
L 375.590262 231.195449 
L 375.651402 231.924816 
L 375.712542 231.706008 
L 375.957103 231.997755 
L 376.201664 229.116756 
L 376.385085 228.82501 
L 376.507365 229.353799 
L 376.568505 229.207925 
L 376.629646 230.083165 
L 376.874206 229.463202 
L 376.996487 230.301975 
L 377.057627 229.736718 
L 377.241048 229.937292 
L 377.363328 229.846121 
L 377.424468 230.064929 
L 377.485609 229.426737 
L 377.669029 228.78854 
L 377.85245 230.1014 
L 377.91359 231.924816 
L 378.158151 232.891227 
L 378.341572 231.250154 
L 378.586133 231.578365 
L 378.769553 232.052453 
L 379.014114 232.38067 
L 379.075254 232.180093 
L 379.197535 229.864357 
L 379.380955 229.627311 
L 379.442096 229.682014 
L 379.564376 230.903703 
L 379.625516 230.083165 
L 379.808937 229.773183 
L 379.992357 231.086046 
L 380.053498 230.921939 
L 380.236918 231.94305 
L 380.298059 231.888346 
L 380.481479 230.229037 
L 380.6649 230.283741 
L 380.72604 230.447849 
L 380.909461 231.94305 
L 381.154022 233.328847 
L 381.215162 232.654181 
L 381.276302 233.055336 
L 381.520863 233.310613 
L 381.765424 234.386428 
L 381.948844 233.857636 
L 382.009985 233.930574 
L 382.071125 234.058213 
L 382.132265 234.003509 
L 382.193405 233.547655 
L 382.376826 233.638828 
L 382.560247 234.769344 
L 382.621387 234.149382 
L 382.804807 235.134029 
L 382.865948 234.933452 
L 383.049368 233.584125 
L 383.232789 233.565889 
L 383.293929 233.365317 
L 383.47735 229.280864 
L 383.66077 228.624432 
L 383.844191 226.928655 
L 383.905331 227.384509 
L 384.088752 227.384509 
L 384.333313 230.119634 
L 384.516733 233.274144 
L 384.700154 230.046695 
L 384.761294 228.970883 
L 384.944715 228.989114 
L 385.005855 230.429615 
L 385.066995 229.846121 
L 385.128136 229.134987 
L 385.189276 230.320211 
L 385.433837 229.609075 
L 385.494977 228.752071 
L 385.556117 229.937292 
L 385.617257 229.517906 
L 385.922958 228.478559 
L 385.984099 227.384509 
L 386.045239 228.314451 
L 386.228659 227.712724 
L 386.41208 228.551494 
L 386.47322 226.965123 
L 386.717781 227.29334 
L 386.840062 225.28758 
L 386.901202 226.399862 
L 387.329183 222.771263 
L 387.573744 222.570691 
L 387.634884 222.041898 
L 387.757165 220.054374 
L 387.940586 219.270303 
L 388.001726 219.744392 
L 388.062866 219.288538 
L 388.124006 219.671457 
L 388.185146 217.993914 
L 388.368567 218.066848 
L 388.429707 218.595641 
L 388.490847 218.048614 
L 388.613128 219.215603 
L 388.857689 218.212722 
L 388.979969 218.869154 
L 389.041109 214.711762 
L 389.22453 213.271265 
L 389.469091 214.748232 
L 389.652512 215.18585 
L 389.897072 213.070689 
L 390.080493 212.523664 
L 390.141633 213.854758 
L 390.202773 213.508307 
L 390.325054 213.362434 
L 390.508475 212.94305 
L 390.630755 210.426737 
L 390.691895 210.499675 
L 390.753035 211.101399 
L 390.936456 208.71272 
L 390.997596 210.609075 
L 391.058737 209.059174 
L 391.181017 210.700244 
L 391.364438 210.937292 
L 391.547858 209.660898 
L 391.608998 211.083167 
L 391.792419 210.99199 
L 391.853559 210.062052 
L 391.9147 210.09852 
L 392.220401 210.390267 
L 392.342681 208.876827 
L 392.403821 209.44209 
L 392.648382 211.356676 
L 392.709522 210.09852 
L 393.076364 216.152263 
L 393.198644 214.7847 
L 393.320924 220.054374 
L 393.565485 219.780862 
L 393.626626 221.349002 
L 393.748906 218.577407 
L 393.993467 218.303894 
L 394.054607 217.975679 
L 394.115747 218.103319 
L 394.176888 218.650342 
L 394.360308 216.88163 
L 394.421448 217.355718 
L 394.604869 219.142666 
L 394.97171 225.050534 
L 395.032851 223.372991 
L 395.277411 222.643626 
L 395.399692 215.65994 
L 395.460832 215.751113 
L 395.888814 211.81253 
L 396.133374 212.90658 
L 396.316795 210.24439 
L 396.683636 212.031341 
L 396.744777 211.611952 
L 396.928197 211.757829 
L 396.989337 211.648422 
L 397.050478 212.06781 
L 397.172758 209.679136 
L 397.417319 208.60332 
L 397.539599 208.019827 
L 397.78416 207.472804 
L 397.8453 206.998712 
L 397.967581 204.737679 
L 398.028721 205.667618 
L 398.212142 203.771263 
L 398.334422 205.868195 
L 398.456703 205.102357 
L 398.762404 204.591802 
L 398.884684 203.078363 
L 399.129245 202.567808 
L 399.190385 204.135948 
L 399.251525 203.753032 
L 399.312666 203.625393 
L 399.496086 204.081247 
L 399.679507 202.622508 
L 399.740647 204.500633 
L 399.924068 204.828848 
L 400.168629 206.579326 
L 400.47433 204.464163 
L 400.53547 204.008309 
L 400.59661 198.775105 
L 400.902311 193.651303 
L 401.024592 190.332685 
L 401.208012 189.056293 
L 401.269153 189.238638 
L 401.452573 186.90466 
L 401.697134 186.175298 
L 401.819414 184.424813 
L 401.880555 185.117713 
L 402.125116 185.40946 
L 402.247396 186.321168 
L 402.308536 184.862435 
L 402.491957 185.901782 
L 402.736518 183.421934 
L 402.919938 183.677212 
L 402.981079 183.148427 
L 403.34792 187.542861 
L 403.531341 185.026542 
L 403.592481 184.990074 
L 403.837042 185.628266 
L 403.959322 182.765504 
L 404.265023 174.323091 
L 404.387304 173.484314 
L 404.448444 174.250152 
L 404.631864 172.955528 
L 404.693005 173.703127 
L 404.815285 171.587966 
L 404.876425 172.84612 
L 405.120986 167.813494 
L 405.182126 166.081246 
L 405.243267 167.777024 
L 405.304407 167.41234 
L 405.487827 165.680093 
L 405.548968 166.300054 
L 405.610108 168.178172 
L 405.671248 167.284701 
L 405.732388 164.677215 
L 406.038089 161.90562 
L 406.09923 162.981436 
L 406.16037 157.36531 
L 406.34379 155.158977 
L 406.404931 155.560133 
L 406.466071 156.088925 
L 406.527211 158.896981 
L 406.588351 157.055332 
L 406.771772 156.362432 
L 406.894052 155.122509 
L 407.016333 157.748233 
L 407.199753 156.672417 
L 407.383174 158.295258 
L 407.444314 154.849 
L 407.688875 155.815409 
L 407.750015 155.505432 
L 408.055716 163.145544 
L 408.116857 159.735758 
L 408.177997 160.811574 
L 408.239137 159.918096 
L 408.300277 155.523663 
L 408.483698 154.447847 
L 408.544838 152.806768 
L 408.605978 154.849 
L 408.667119 151.275106 
L 408.728259 151.530384 
L 408.97282 153.372038 
L 409.15624 146.661864 
L 409.461941 144.637871 
L 409.523082 147.318281 
L 409.584222 146.625388 
L 409.828783 148.284704 
L 409.951063 150.527498 
L 410.012203 149.615789 
L 410.195624 149.925768 
L 410.440185 147.172418 
L 410.623606 146.242472 
L 410.807026 137.654182 
L 410.868166 140.73576 
L 411.051587 141.155138 
L 411.112727 140.006391 
L 411.296148 147.135943 
L 411.479569 143.416171 
L 411.540709 139.787576 
L 411.601849 143.999664 
L 411.662989 139.878752 
L 411.724129 125.254944 
L 411.90755 109.610041 
L 411.96869 116.539015 
L 412.029831 110.977603 
L 412.152111 101.769344 
L 412.335532 98.669542 
L 412.396672 100.110028 
L 412.457812 99.344197 
L 412.580092 98.067811 
L 412.885794 99.563012 
L 412.946934 102.298137 
L 413.008074 112.96512 
L 413.374915 96.663773 
L 413.436055 98.468964 
L 413.619476 106.400824 
L 413.680616 105.963208 
L 413.864037 88.20312 
L 414.047458 88.440173 
L 414.230878 75.457442 
L 414.292018 76.25975 
L 414.536579 65.902743 
L 414.59772 52.154182 
L 414.65886 78.958398 
L 414.72 67.197368 
" style="fill:none;stroke:#e24a33;stroke-linecap:square;stroke-width:1.5;"/>
   </g>
   <g id="patch_3">
    <path d="M 57.6 276.48 
L 57.6 41.472 
" style="fill:none;stroke:#ffffff;stroke-linecap:square;stroke-linejoin:miter;"/>
   </g>
   <g id="patch_4">
    <path d="M 414.72 276.48 
L 414.72 41.472 
" style="fill:none;stroke:#ffffff;stroke-linecap:square;stroke-linejoin:miter;"/>
   </g>
   <g id="patch_5">
    <path d="M 57.6 276.48 
L 414.72 276.48 
" style="fill:none;stroke:#ffffff;stroke-linecap:square;stroke-linejoin:miter;"/>
   </g>
   <g id="patch_6">
    <path d="M 57.6 41.472 
L 414.72 41.472 
" style="fill:none;stroke:#ffffff;stroke-linecap:square;stroke-linejoin:miter;"/>
   </g>
  </g>
 </g>
 <defs>
  <clipPath id="p1400aa3c53">
   <rect height="235.008" width="357.12" x="57.6" y="41.472"/>
  </clipPath>
 </defs>
</svg>
