<?xml version="1.0" encoding="utf-8" standalone="no"?>
<!DOCTYPE svg PUBLIC "-//W3C//DTD SVG 1.1//EN"
  "http://www.w3.org/Graphics/SVG/1.1/DTD/svg11.dtd">
<!-- Created with matplotlib (http://matplotlib.org/) -->
<svg height="345pt" version="1.1" viewBox="0 0 460 345" width="460pt" xmlns="http://www.w3.org/2000/svg" xmlns:xlink="http://www.w3.org/1999/xlink">
 <defs>
  <style type="text/css">
*{stroke-linecap:butt;stroke-linejoin:round;}
  </style>
 </defs>
 <g id="figure_1">
  <g id="patch_1">
   <path d="M 0 345.6 
L 460.8 345.6 
L 460.8 0 
L 0 0 
z
" style="fill:#ffffff;"/>
  </g>
  <g id="axes_1">
   <g id="patch_2">
    <path d="M 57.6 276.48 
L 414.72 276.48 
L 414.72 41.472 
L 57.6 41.472 
z
" style="fill:#e5e5e5;"/>
   </g>
   <g id="matplotlib.axis_1">
    <g id="xtick_1">
     <g id="line2d_1">
      <path clip-path="url(#p6ae516721f)" d="M 102.171217 276.48 
L 102.171217 41.472 
" style="fill:none;stroke:#ffffff;stroke-linecap:square;stroke-width:0.8;"/>
     </g>
     <g id="line2d_2">
      <defs>
       <path d="M 0 0 
L 0 3.5 
" id="m0824914e71" style="stroke:#555555;stroke-width:0.8;"/>
      </defs>
      <g>
       <use style="fill:#555555;stroke:#555555;stroke-width:0.8;" x="102.171217" xlink:href="#m0824914e71" y="276.48"/>
      </g>
     </g>
     <g id="text_1">
      <!-- 2003 -->
      <defs>
       <path d="M 19.1875 8.296875 
L 53.609375 8.296875 
L 53.609375 0 
L 7.328125 0 
L 7.328125 8.296875 
Q 12.9375 14.109375 22.625 23.890625 
Q 32.328125 33.6875 34.8125 36.53125 
Q 39.546875 41.84375 41.421875 45.53125 
Q 43.3125 49.21875 43.3125 52.78125 
Q 43.3125 58.59375 39.234375 62.25 
Q 35.15625 65.921875 28.609375 65.921875 
Q 23.96875 65.921875 18.8125 64.3125 
Q 13.671875 62.703125 7.8125 59.421875 
L 7.8125 69.390625 
Q 13.765625 71.78125 18.9375 73 
Q 24.125 74.21875 28.421875 74.21875 
Q 39.75 74.21875 46.484375 68.546875 
Q 53.21875 62.890625 53.21875 53.421875 
Q 53.21875 48.921875 51.53125 44.890625 
Q 49.859375 40.875 45.40625 35.40625 
Q 44.1875 33.984375 37.640625 27.21875 
Q 31.109375 20.453125 19.1875 8.296875 
z
" id="DejaVuSans-32"/>
       <path d="M 31.78125 66.40625 
Q 24.171875 66.40625 20.328125 58.90625 
Q 16.5 51.421875 16.5 36.375 
Q 16.5 21.390625 20.328125 13.890625 
Q 24.171875 6.390625 31.78125 6.390625 
Q 39.453125 6.390625 43.28125 13.890625 
Q 47.125 21.390625 47.125 36.375 
Q 47.125 51.421875 43.28125 58.90625 
Q 39.453125 66.40625 31.78125 66.40625 
z
M 31.78125 74.21875 
Q 44.046875 74.21875 50.515625 64.515625 
Q 56.984375 54.828125 56.984375 36.375 
Q 56.984375 17.96875 50.515625 8.265625 
Q 44.046875 -1.421875 31.78125 -1.421875 
Q 19.53125 -1.421875 13.0625 8.265625 
Q 6.59375 17.96875 6.59375 36.375 
Q 6.59375 54.828125 13.0625 64.515625 
Q 19.53125 74.21875 31.78125 74.21875 
z
" id="DejaVuSans-30"/>
       <path d="M 40.578125 39.3125 
Q 47.65625 37.796875 51.625 33 
Q 55.609375 28.21875 55.609375 21.1875 
Q 55.609375 10.40625 48.1875 4.484375 
Q 40.765625 -1.421875 27.09375 -1.421875 
Q 22.515625 -1.421875 17.65625 -0.515625 
Q 12.796875 0.390625 7.625 2.203125 
L 7.625 11.71875 
Q 11.71875 9.328125 16.59375 8.109375 
Q 21.484375 6.890625 26.8125 6.890625 
Q 36.078125 6.890625 40.9375 10.546875 
Q 45.796875 14.203125 45.796875 21.1875 
Q 45.796875 27.640625 41.28125 31.265625 
Q 36.765625 34.90625 28.71875 34.90625 
L 20.21875 34.90625 
L 20.21875 43.015625 
L 29.109375 43.015625 
Q 36.375 43.015625 40.234375 45.921875 
Q 44.09375 48.828125 44.09375 54.296875 
Q 44.09375 59.90625 40.109375 62.90625 
Q 36.140625 65.921875 28.71875 65.921875 
Q 24.65625 65.921875 20.015625 65.03125 
Q 15.375 64.15625 9.8125 62.3125 
L 9.8125 71.09375 
Q 15.4375 72.65625 20.34375 73.4375 
Q 25.25 74.21875 29.59375 74.21875 
Q 40.828125 74.21875 47.359375 69.109375 
Q 53.90625 64.015625 53.90625 55.328125 
Q 53.90625 49.265625 50.4375 45.09375 
Q 46.96875 40.921875 40.578125 39.3125 
z
" id="DejaVuSans-33"/>
      </defs>
      <g style="fill:#555555;" transform="translate(79.091027 302.78544)rotate(-30)scale(0.1 -0.1)">
       <use xlink:href="#DejaVuSans-32"/>
       <use x="63.623047" xlink:href="#DejaVuSans-30"/>
       <use x="127.246094" xlink:href="#DejaVuSans-30"/>
       <use x="190.869141" xlink:href="#DejaVuSans-33"/>
      </g>
     </g>
    </g>
    <g id="xtick_2">
     <g id="line2d_3">
      <path clip-path="url(#p6ae516721f)" d="M 146.864715 276.48 
L 146.864715 41.472 
" style="fill:none;stroke:#ffffff;stroke-linecap:square;stroke-width:0.8;"/>
     </g>
     <g id="line2d_4">
      <g>
       <use style="fill:#555555;stroke:#555555;stroke-width:0.8;" x="146.864715" xlink:href="#m0824914e71" y="276.48"/>
      </g>
     </g>
     <g id="text_2">
      <!-- 2005 -->
      <defs>
       <path d="M 10.796875 72.90625 
L 49.515625 72.90625 
L 49.515625 64.59375 
L 19.828125 64.59375 
L 19.828125 46.734375 
Q 21.96875 47.46875 24.109375 47.828125 
Q 26.265625 48.1875 28.421875 48.1875 
Q 40.625 48.1875 47.75 41.5 
Q 54.890625 34.8125 54.890625 23.390625 
Q 54.890625 11.625 47.5625 5.09375 
Q 40.234375 -1.421875 26.90625 -1.421875 
Q 22.3125 -1.421875 17.546875 -0.640625 
Q 12.796875 0.140625 7.71875 1.703125 
L 7.71875 11.625 
Q 12.109375 9.234375 16.796875 8.0625 
Q 21.484375 6.890625 26.703125 6.890625 
Q 35.15625 6.890625 40.078125 11.328125 
Q 45.015625 15.765625 45.015625 23.390625 
Q 45.015625 31 40.078125 35.4375 
Q 35.15625 39.890625 26.703125 39.890625 
Q 22.75 39.890625 18.8125 39.015625 
Q 14.890625 38.140625 10.796875 36.28125 
z
" id="DejaVuSans-35"/>
      </defs>
      <g style="fill:#555555;" transform="translate(123.784525 302.78544)rotate(-30)scale(0.1 -0.1)">
       <use xlink:href="#DejaVuSans-32"/>
       <use x="63.623047" xlink:href="#DejaVuSans-30"/>
       <use x="127.246094" xlink:href="#DejaVuSans-30"/>
       <use x="190.869141" xlink:href="#DejaVuSans-35"/>
      </g>
     </g>
    </g>
    <g id="xtick_3">
     <g id="line2d_5">
      <path clip-path="url(#p6ae516721f)" d="M 191.497072 276.48 
L 191.497072 41.472 
" style="fill:none;stroke:#ffffff;stroke-linecap:square;stroke-width:0.8;"/>
     </g>
     <g id="line2d_6">
      <g>
       <use style="fill:#555555;stroke:#555555;stroke-width:0.8;" x="191.497072" xlink:href="#m0824914e71" y="276.48"/>
      </g>
     </g>
     <g id="text_3">
      <!-- 2007 -->
      <defs>
       <path d="M 8.203125 72.90625 
L 55.078125 72.90625 
L 55.078125 68.703125 
L 28.609375 0 
L 18.3125 0 
L 43.21875 64.59375 
L 8.203125 64.59375 
z
" id="DejaVuSans-37"/>
      </defs>
      <g style="fill:#555555;" transform="translate(168.416882 302.78544)rotate(-30)scale(0.1 -0.1)">
       <use xlink:href="#DejaVuSans-32"/>
       <use x="63.623047" xlink:href="#DejaVuSans-30"/>
       <use x="127.246094" xlink:href="#DejaVuSans-30"/>
       <use x="190.869141" xlink:href="#DejaVuSans-37"/>
      </g>
     </g>
    </g>
    <g id="xtick_4">
     <g id="line2d_7">
      <path clip-path="url(#p6ae516721f)" d="M 236.19057 276.48 
L 236.19057 41.472 
" style="fill:none;stroke:#ffffff;stroke-linecap:square;stroke-width:0.8;"/>
     </g>
     <g id="line2d_8">
      <g>
       <use style="fill:#555555;stroke:#555555;stroke-width:0.8;" x="236.19057" xlink:href="#m0824914e71" y="276.48"/>
      </g>
     </g>
     <g id="text_4">
      <!-- 2009 -->
      <defs>
       <path d="M 10.984375 1.515625 
L 10.984375 10.5 
Q 14.703125 8.734375 18.5 7.8125 
Q 22.3125 6.890625 25.984375 6.890625 
Q 35.75 6.890625 40.890625 13.453125 
Q 46.046875 20.015625 46.78125 33.40625 
Q 43.953125 29.203125 39.59375 26.953125 
Q 35.25 24.703125 29.984375 24.703125 
Q 19.046875 24.703125 12.671875 31.3125 
Q 6.296875 37.9375 6.296875 49.421875 
Q 6.296875 60.640625 12.9375 67.421875 
Q 19.578125 74.21875 30.609375 74.21875 
Q 43.265625 74.21875 49.921875 64.515625 
Q 56.59375 54.828125 56.59375 36.375 
Q 56.59375 19.140625 48.40625 8.859375 
Q 40.234375 -1.421875 26.421875 -1.421875 
Q 22.703125 -1.421875 18.890625 -0.6875 
Q 15.09375 0.046875 10.984375 1.515625 
z
M 30.609375 32.421875 
Q 37.25 32.421875 41.125 36.953125 
Q 45.015625 41.5 45.015625 49.421875 
Q 45.015625 57.28125 41.125 61.84375 
Q 37.25 66.40625 30.609375 66.40625 
Q 23.96875 66.40625 20.09375 61.84375 
Q 16.21875 57.28125 16.21875 49.421875 
Q 16.21875 41.5 20.09375 36.953125 
Q 23.96875 32.421875 30.609375 32.421875 
z
" id="DejaVuSans-39"/>
      </defs>
      <g style="fill:#555555;" transform="translate(213.11038 302.78544)rotate(-30)scale(0.1 -0.1)">
       <use xlink:href="#DejaVuSans-32"/>
       <use x="63.623047" xlink:href="#DejaVuSans-30"/>
       <use x="127.246094" xlink:href="#DejaVuSans-30"/>
       <use x="190.869141" xlink:href="#DejaVuSans-39"/>
      </g>
     </g>
    </g>
    <g id="xtick_5">
     <g id="line2d_9">
      <path clip-path="url(#p6ae516721f)" d="M 280.822928 276.48 
L 280.822928 41.472 
" style="fill:none;stroke:#ffffff;stroke-linecap:square;stroke-width:0.8;"/>
     </g>
     <g id="line2d_10">
      <g>
       <use style="fill:#555555;stroke:#555555;stroke-width:0.8;" x="280.822928" xlink:href="#m0824914e71" y="276.48"/>
      </g>
     </g>
     <g id="text_5">
      <!-- 2011 -->
      <defs>
       <path d="M 12.40625 8.296875 
L 28.515625 8.296875 
L 28.515625 63.921875 
L 10.984375 60.40625 
L 10.984375 69.390625 
L 28.421875 72.90625 
L 38.28125 72.90625 
L 38.28125 8.296875 
L 54.390625 8.296875 
L 54.390625 0 
L 12.40625 0 
z
" id="DejaVuSans-31"/>
      </defs>
      <g style="fill:#555555;" transform="translate(257.742737 302.78544)rotate(-30)scale(0.1 -0.1)">
       <use xlink:href="#DejaVuSans-32"/>
       <use x="63.623047" xlink:href="#DejaVuSans-30"/>
       <use x="127.246094" xlink:href="#DejaVuSans-31"/>
       <use x="190.869141" xlink:href="#DejaVuSans-31"/>
      </g>
     </g>
    </g>
    <g id="xtick_6">
     <g id="line2d_11">
      <path clip-path="url(#p6ae516721f)" d="M 325.516425 276.48 
L 325.516425 41.472 
" style="fill:none;stroke:#ffffff;stroke-linecap:square;stroke-width:0.8;"/>
     </g>
     <g id="line2d_12">
      <g>
       <use style="fill:#555555;stroke:#555555;stroke-width:0.8;" x="325.516425" xlink:href="#m0824914e71" y="276.48"/>
      </g>
     </g>
     <g id="text_6">
      <!-- 2013 -->
      <g style="fill:#555555;" transform="translate(302.436235 302.78544)rotate(-30)scale(0.1 -0.1)">
       <use xlink:href="#DejaVuSans-32"/>
       <use x="63.623047" xlink:href="#DejaVuSans-30"/>
       <use x="127.246094" xlink:href="#DejaVuSans-31"/>
       <use x="190.869141" xlink:href="#DejaVuSans-33"/>
      </g>
     </g>
    </g>
    <g id="xtick_7">
     <g id="line2d_13">
      <path clip-path="url(#p6ae516721f)" d="M 370.148783 276.48 
L 370.148783 41.472 
" style="fill:none;stroke:#ffffff;stroke-linecap:square;stroke-width:0.8;"/>
     </g>
     <g id="line2d_14">
      <g>
       <use style="fill:#555555;stroke:#555555;stroke-width:0.8;" x="370.148783" xlink:href="#m0824914e71" y="276.48"/>
      </g>
     </g>
     <g id="text_7">
      <!-- 2015 -->
      <g style="fill:#555555;" transform="translate(347.068592 302.78544)rotate(-30)scale(0.1 -0.1)">
       <use xlink:href="#DejaVuSans-32"/>
       <use x="63.623047" xlink:href="#DejaVuSans-30"/>
       <use x="127.246094" xlink:href="#DejaVuSans-31"/>
       <use x="190.869141" xlink:href="#DejaVuSans-35"/>
      </g>
     </g>
    </g>
    <g id="text_8">
     <!-- Date -->
     <defs>
      <path d="M 19.671875 64.796875 
L 19.671875 8.109375 
L 31.59375 8.109375 
Q 46.6875 8.109375 53.6875 14.9375 
Q 60.6875 21.78125 60.6875 36.53125 
Q 60.6875 51.171875 53.6875 57.984375 
Q 46.6875 64.796875 31.59375 64.796875 
z
M 9.8125 72.90625 
L 30.078125 72.90625 
Q 51.265625 72.90625 61.171875 64.09375 
Q 71.09375 55.28125 71.09375 36.53125 
Q 71.09375 17.671875 61.125 8.828125 
Q 51.171875 0 30.078125 0 
L 9.8125 0 
z
" id="DejaVuSans-44"/>
      <path d="M 34.28125 27.484375 
Q 23.390625 27.484375 19.1875 25 
Q 14.984375 22.515625 14.984375 16.5 
Q 14.984375 11.71875 18.140625 8.90625 
Q 21.296875 6.109375 26.703125 6.109375 
Q 34.1875 6.109375 38.703125 11.40625 
Q 43.21875 16.703125 43.21875 25.484375 
L 43.21875 27.484375 
z
M 52.203125 31.203125 
L 52.203125 0 
L 43.21875 0 
L 43.21875 8.296875 
Q 40.140625 3.328125 35.546875 0.953125 
Q 30.953125 -1.421875 24.3125 -1.421875 
Q 15.921875 -1.421875 10.953125 3.296875 
Q 6 8.015625 6 15.921875 
Q 6 25.140625 12.171875 29.828125 
Q 18.359375 34.515625 30.609375 34.515625 
L 43.21875 34.515625 
L 43.21875 35.40625 
Q 43.21875 41.609375 39.140625 45 
Q 35.0625 48.390625 27.6875 48.390625 
Q 23 48.390625 18.546875 47.265625 
Q 14.109375 46.140625 10.015625 43.890625 
L 10.015625 52.203125 
Q 14.9375 54.109375 19.578125 55.046875 
Q 24.21875 56 28.609375 56 
Q 40.484375 56 46.34375 49.84375 
Q 52.203125 43.703125 52.203125 31.203125 
z
" id="DejaVuSans-61"/>
      <path d="M 18.3125 70.21875 
L 18.3125 54.6875 
L 36.8125 54.6875 
L 36.8125 47.703125 
L 18.3125 47.703125 
L 18.3125 18.015625 
Q 18.3125 11.328125 20.140625 9.421875 
Q 21.96875 7.515625 27.59375 7.515625 
L 36.8125 7.515625 
L 36.8125 0 
L 27.59375 0 
Q 17.1875 0 13.234375 3.875 
Q 9.28125 7.765625 9.28125 18.015625 
L 9.28125 47.703125 
L 2.6875 47.703125 
L 2.6875 54.6875 
L 9.28125 54.6875 
L 9.28125 70.21875 
z
" id="DejaVuSans-74"/>
      <path d="M 56.203125 29.59375 
L 56.203125 25.203125 
L 14.890625 25.203125 
Q 15.484375 15.921875 20.484375 11.0625 
Q 25.484375 6.203125 34.421875 6.203125 
Q 39.59375 6.203125 44.453125 7.46875 
Q 49.3125 8.734375 54.109375 11.28125 
L 54.109375 2.78125 
Q 49.265625 0.734375 44.1875 -0.34375 
Q 39.109375 -1.421875 33.890625 -1.421875 
Q 20.796875 -1.421875 13.15625 6.1875 
Q 5.515625 13.8125 5.515625 26.8125 
Q 5.515625 40.234375 12.765625 48.109375 
Q 20.015625 56 32.328125 56 
Q 43.359375 56 49.78125 48.890625 
Q 56.203125 41.796875 56.203125 29.59375 
z
M 47.21875 32.234375 
Q 47.125 39.59375 43.09375 43.984375 
Q 39.0625 48.390625 32.421875 48.390625 
Q 24.90625 48.390625 20.390625 44.140625 
Q 15.875 39.890625 15.1875 32.171875 
z
" id="DejaVuSans-65"/>
     </defs>
     <g style="fill:#555555;" transform="translate(221.819063 317.704627)scale(0.12 -0.12)">
      <use xlink:href="#DejaVuSans-44"/>
      <use x="77.001953" xlink:href="#DejaVuSans-61"/>
      <use x="138.28125" xlink:href="#DejaVuSans-74"/>
      <use x="177.490234" xlink:href="#DejaVuSans-65"/>
     </g>
    </g>
   </g>
   <g id="matplotlib.axis_2">
    <g id="ytick_1">
     <g id="line2d_15">
      <path clip-path="url(#p6ae516721f)" d="M 57.6 270.302929 
L 414.72 270.302929 
" style="fill:none;stroke:#ffffff;stroke-linecap:square;stroke-width:0.8;"/>
     </g>
     <g id="line2d_16">
      <defs>
       <path d="M 0 0 
L -3.5 0 
" id="m1362cf1b4d" style="stroke:#555555;stroke-width:0.8;"/>
      </defs>
      <g>
       <use style="fill:#555555;stroke:#555555;stroke-width:0.8;" x="57.6" xlink:href="#m1362cf1b4d" y="270.302929"/>
      </g>
     </g>
     <g id="text_9">
      <!-- 50 -->
      <g style="fill:#555555;" transform="translate(37.875 274.102148)scale(0.1 -0.1)">
       <use xlink:href="#DejaVuSans-35"/>
       <use x="63.623047" xlink:href="#DejaVuSans-30"/>
      </g>
     </g>
    </g>
    <g id="ytick_2">
     <g id="line2d_17">
      <path clip-path="url(#p6ae516721f)" d="M 57.6 242.145985 
L 414.72 242.145985 
" style="fill:none;stroke:#ffffff;stroke-linecap:square;stroke-width:0.8;"/>
     </g>
     <g id="line2d_18">
      <g>
       <use style="fill:#555555;stroke:#555555;stroke-width:0.8;" x="57.6" xlink:href="#m1362cf1b4d" y="242.145985"/>
      </g>
     </g>
     <g id="text_10">
      <!-- 75 -->
      <g style="fill:#555555;" transform="translate(37.875 245.945203)scale(0.1 -0.1)">
       <use xlink:href="#DejaVuSans-37"/>
       <use x="63.623047" xlink:href="#DejaVuSans-35"/>
      </g>
     </g>
    </g>
    <g id="ytick_3">
     <g id="line2d_19">
      <path clip-path="url(#p6ae516721f)" d="M 57.6 213.98904 
L 414.72 213.98904 
" style="fill:none;stroke:#ffffff;stroke-linecap:square;stroke-width:0.8;"/>
     </g>
     <g id="line2d_20">
      <g>
       <use style="fill:#555555;stroke:#555555;stroke-width:0.8;" x="57.6" xlink:href="#m1362cf1b4d" y="213.98904"/>
      </g>
     </g>
     <g id="text_11">
      <!-- 100 -->
      <g style="fill:#555555;" transform="translate(31.5125 217.788259)scale(0.1 -0.1)">
       <use xlink:href="#DejaVuSans-31"/>
       <use x="63.623047" xlink:href="#DejaVuSans-30"/>
       <use x="127.246094" xlink:href="#DejaVuSans-30"/>
      </g>
     </g>
    </g>
    <g id="ytick_4">
     <g id="line2d_21">
      <path clip-path="url(#p6ae516721f)" d="M 57.6 185.832095 
L 414.72 185.832095 
" style="fill:none;stroke:#ffffff;stroke-linecap:square;stroke-width:0.8;"/>
     </g>
     <g id="line2d_22">
      <g>
       <use style="fill:#555555;stroke:#555555;stroke-width:0.8;" x="57.6" xlink:href="#m1362cf1b4d" y="185.832095"/>
      </g>
     </g>
     <g id="text_12">
      <!-- 125 -->
      <g style="fill:#555555;" transform="translate(31.5125 189.631314)scale(0.1 -0.1)">
       <use xlink:href="#DejaVuSans-31"/>
       <use x="63.623047" xlink:href="#DejaVuSans-32"/>
       <use x="127.246094" xlink:href="#DejaVuSans-35"/>
      </g>
     </g>
    </g>
    <g id="ytick_5">
     <g id="line2d_23">
      <path clip-path="url(#p6ae516721f)" d="M 57.6 157.67515 
L 414.72 157.67515 
" style="fill:none;stroke:#ffffff;stroke-linecap:square;stroke-width:0.8;"/>
     </g>
     <g id="line2d_24">
      <g>
       <use style="fill:#555555;stroke:#555555;stroke-width:0.8;" x="57.6" xlink:href="#m1362cf1b4d" y="157.67515"/>
      </g>
     </g>
     <g id="text_13">
      <!-- 150 -->
      <g style="fill:#555555;" transform="translate(31.5125 161.474369)scale(0.1 -0.1)">
       <use xlink:href="#DejaVuSans-31"/>
       <use x="63.623047" xlink:href="#DejaVuSans-35"/>
       <use x="127.246094" xlink:href="#DejaVuSans-30"/>
      </g>
     </g>
    </g>
    <g id="ytick_6">
     <g id="line2d_25">
      <path clip-path="url(#p6ae516721f)" d="M 57.6 129.518206 
L 414.72 129.518206 
" style="fill:none;stroke:#ffffff;stroke-linecap:square;stroke-width:0.8;"/>
     </g>
     <g id="line2d_26">
      <g>
       <use style="fill:#555555;stroke:#555555;stroke-width:0.8;" x="57.6" xlink:href="#m1362cf1b4d" y="129.518206"/>
      </g>
     </g>
     <g id="text_14">
      <!-- 175 -->
      <g style="fill:#555555;" transform="translate(31.5125 133.317424)scale(0.1 -0.1)">
       <use xlink:href="#DejaVuSans-31"/>
       <use x="63.623047" xlink:href="#DejaVuSans-37"/>
       <use x="127.246094" xlink:href="#DejaVuSans-35"/>
      </g>
     </g>
    </g>
    <g id="ytick_7">
     <g id="line2d_27">
      <path clip-path="url(#p6ae516721f)" d="M 57.6 101.361261 
L 414.72 101.361261 
" style="fill:none;stroke:#ffffff;stroke-linecap:square;stroke-width:0.8;"/>
     </g>
     <g id="line2d_28">
      <g>
       <use style="fill:#555555;stroke:#555555;stroke-width:0.8;" x="57.6" xlink:href="#m1362cf1b4d" y="101.361261"/>
      </g>
     </g>
     <g id="text_15">
      <!-- 200 -->
      <g style="fill:#555555;" transform="translate(31.5125 105.160479)scale(0.1 -0.1)">
       <use xlink:href="#DejaVuSans-32"/>
       <use x="63.623047" xlink:href="#DejaVuSans-30"/>
       <use x="127.246094" xlink:href="#DejaVuSans-30"/>
      </g>
     </g>
    </g>
    <g id="ytick_8">
     <g id="line2d_29">
      <path clip-path="url(#p6ae516721f)" d="M 57.6 73.204316 
L 414.72 73.204316 
" style="fill:none;stroke:#ffffff;stroke-linecap:square;stroke-width:0.8;"/>
     </g>
     <g id="line2d_30">
      <g>
       <use style="fill:#555555;stroke:#555555;stroke-width:0.8;" x="57.6" xlink:href="#m1362cf1b4d" y="73.204316"/>
      </g>
     </g>
     <g id="text_16">
      <!-- 225 -->
      <g style="fill:#555555;" transform="translate(31.5125 77.003535)scale(0.1 -0.1)">
       <use xlink:href="#DejaVuSans-32"/>
       <use x="63.623047" xlink:href="#DejaVuSans-32"/>
       <use x="127.246094" xlink:href="#DejaVuSans-35"/>
      </g>
     </g>
    </g>
    <g id="ytick_9">
     <g id="line2d_31">
      <path clip-path="url(#p6ae516721f)" d="M 57.6 45.047371 
L 414.72 45.047371 
" style="fill:none;stroke:#ffffff;stroke-linecap:square;stroke-width:0.8;"/>
     </g>
     <g id="line2d_32">
      <g>
       <use style="fill:#555555;stroke:#555555;stroke-width:0.8;" x="57.6" xlink:href="#m1362cf1b4d" y="45.047371"/>
      </g>
     </g>
     <g id="text_17">
      <!-- 250 -->
      <g style="fill:#555555;" transform="translate(31.5125 48.84659)scale(0.1 -0.1)">
       <use xlink:href="#DejaVuSans-32"/>
       <use x="63.623047" xlink:href="#DejaVuSans-35"/>
       <use x="127.246094" xlink:href="#DejaVuSans-30"/>
      </g>
     </g>
    </g>
   </g>
   <g id="line2d_33">
    <path clip-path="url(#p6ae516721f)" d="M 57.6 209.061574 
L 57.66114 213.918647 
L 57.72228 198.50272 
L 57.783421 203.85254 
L 57.966841 206.668234 
L 58.027982 205.401172 
L 58.089122 211.454915 
L 58.211402 202.233515 
L 58.455963 204.063717 
L 58.517103 203.007831 
L 58.578243 203.289401 
L 58.639384 204.978817 
L 58.822804 201.670376 
L 59.006225 193.856824 
L 59.067365 199.347429 
L 59.250786 197.658012 
L 59.373066 193.017744 
L 59.434206 197.207498 
L 59.495347 194.166553 
L 59.801048 203.402026 
L 59.923328 208.245025 
L 60.167889 202.838887 
L 60.35131 208.92079 
L 60.595871 211.623859 
L 60.718151 220.284928 
L 60.779291 218.268899 
L 60.962712 218.325207 
L 61.023852 216.523165 
L 61.084992 217.255248 
L 61.146133 225.927582 
L 61.207273 224.913931 
L 61.390693 223.675027 
L 61.512974 219.496537 
L 61.574114 219.789373 
L 61.818675 229.700612 
L 61.879815 231.164776 
L 61.940955 230.995832 
L 62.002096 229.756929 
L 62.063236 224.688679 
L 62.246656 226.378096 
L 62.307797 222.999262 
L 62.430077 231.164776 
L 62.491217 228.067512 
L 62.674638 225.465813 
L 62.735778 227.785943 
L 62.796918 222.999262 
L 62.858059 228.99106 
L 62.919199 227.616999 
L 63.16376 231.896859 
L 63.28604 236.514596 
L 63.34718 232.009484 
L 63.530601 230.038498 
L 63.591741 230.207442 
L 63.652881 223.562401 
L 63.714022 225.702331 
L 63.958582 220.746707 
L 64.019723 224.350792 
L 64.142003 216.072651 
L 64.203143 219.05729 
L 64.447704 222.210871 
L 64.508844 225.251818 
L 64.569985 222.075714 
L 64.631125 222.999262 
L 64.814545 219.530324 
L 64.875686 225.251818 
L 64.997966 218.325207 
L 65.059106 220.746707 
L 65.242527 218.268899 
L 65.303667 218.381525 
L 65.364807 219.688003 
L 65.425948 218.595511 
L 65.670508 222.548749 
L 65.853929 214.833748 
L 65.915069 216.354221 
L 66.09849 216.523165 
L 66.15963 211.06072 
L 66.22077 211.409863 
L 66.281911 215.115318 
L 66.343051 214.101665 
L 66.587612 216.804734 
L 66.709892 220.12725 
L 66.771032 219.068555 
L 66.954453 218.268899 
L 67.015593 217.255248 
L 67.137874 219.012238 
L 67.199014 217.480499 
L 67.382435 219.395177 
L 67.565855 226.321778 
L 67.626995 228.912221 
L 67.871556 224.688679 
L 67.932696 227.954887 
L 67.993837 227.785943 
L 68.054977 222.548749 
L 68.238398 222.041928 
L 68.421818 227.391748 
L 68.482958 228.630651 
L 68.666379 229.813246 
L 68.8498 232.291054 
L 68.91094 232.291054 
L 69.216641 235.106748 
L 69.338921 229.756929 
L 69.522342 229.869554 
L 69.583482 233.248388 
L 69.644622 232.178428 
L 69.705763 230.883207 
L 69.766903 233.304706 
L 69.950324 232.291054 
L 70.011464 235.050431 
L 70.072604 234.318357 
L 70.194884 231.423823 
L 70.378305 232.178428 
L 70.439445 233.755218 
L 70.500586 232.572623 
L 70.622866 229.644303 
L 70.867427 232.369893 
L 70.928567 233.248388 
L 71.050847 236.728591 
L 71.234268 236.345652 
L 71.295408 234.036788 
L 71.356549 234.825179 
L 71.417689 235.050431 
L 71.66225 239.600595 
L 71.72339 238.958616 
L 71.78453 241.684206 
L 71.84567 239.589337 
L 72.151371 234.374666 
L 72.212512 235.332001 
L 72.334792 236.852482 
L 72.579353 236.570913 
L 72.640493 235.782513 
L 72.762773 239.780803 
L 72.946194 242.731646 
L 73.374176 245.186931 
L 73.557596 252.564054 
L 73.618737 252.552789 
L 73.924438 245.524818 
L 74.046718 248.227887 
L 74.230139 246.245635 
L 74.4747 237.629608 
L 74.71926 241.695471 
L 74.902681 233.304706 
L 75.086102 233.642584 
L 75.208382 230.207442 
L 75.330663 235.332001 
L 75.514083 236.796165 
L 75.636364 234.701287 
L 75.697504 236.852482 
L 75.758644 235.219374 
L 75.942065 233.000606 
L 76.125485 238.204012 
L 76.370046 232.291054 
L 76.492327 229.756929 
L 76.553467 227.84226 
L 76.614607 229.419042 
L 76.798028 228.788329 
L 76.920308 222.154554 
L 77.042589 226.828609 
L 77.226009 226.659665 
L 77.287149 225.1955 
L 77.34829 226.490721 
L 77.47057 226.603348 
L 77.715131 224.857623 
L 77.776271 225.702331 
L 77.837411 228.844646 
L 77.898552 226.659665 
L 78.081972 227.504373 
L 78.143112 228.630651 
L 78.326533 221.084593 
L 78.571094 223.720079 
L 78.632234 223.168206 
L 78.754515 224.012914 
L 78.999076 226.220418 
L 79.121356 220.746707 
L 79.182496 222.650118 
L 79.365917 222.650118 
L 79.488197 222.537484 
L 79.549337 223.224514 
L 79.610478 222.210871 
L 79.793898 221.839197 
L 79.916179 222.098237 
L 79.977319 224.0467 
L 80.038459 220.352512 
L 80.22188 217.086304 
L 80.34416 221.872984 
L 80.4053 221.028276 
L 80.894422 226.378096 
L 81.138983 226.096526 
L 81.322404 230.443959 
L 81.566965 226.603348 
L 81.628105 231.468868 
L 81.689245 229.19379 
L 81.750385 229.205055 
L 81.933806 231.784232 
L 82.056086 235.275692 
L 82.117227 234.26204 
L 82.178367 234.374666 
L 82.361787 233.023137 
L 82.545208 230.376385 
L 82.606348 230.759315 
L 82.850909 233.406067 
L 82.912049 238.204012 
L 82.97319 236.40197 
L 83.03433 237.100257 
L 83.21775 236.852482 
L 83.340031 234.205723 
L 83.401171 235.163066 
L 83.462311 234.825179 
L 83.645732 231.502663 
L 83.829153 223.675027 
L 83.890293 225.026566 
L 84.073713 224.925196 
L 84.257134 227.493108 
L 84.318274 226.434413 
L 84.562835 224.181857 
L 84.623975 224.744996 
L 84.685116 225.814957 
L 84.746256 225.1955 
L 84.929676 225.420762 
L 84.990817 227.448056 
L 85.051957 225.555909 
L 85.113097 226.26547 
L 85.357658 225.927582 
L 85.541079 229.644303 
L 85.602219 228.349082 
L 85.785639 230.826889 
L 85.84678 229.925873 
L 86.0302 234.543609 
L 86.213621 233.665114 
L 86.274761 233.867845 
L 86.397042 230.815632 
L 86.458182 230.883207 
L 86.641602 230.320068 
L 86.763883 234.036788 
L 86.886163 237.640873 
L 87.069584 237.460664 
L 87.130724 238.485582 
L 87.191864 238.147695 
L 87.314145 236.165452 
L 87.497565 237.866126 
L 87.558706 241.019707 
L 87.619846 240.377728 
L 87.680986 237.753499 
L 87.742126 238.046335 
L 87.925547 240.287624 
L 87.986687 236.68354 
L 88.047827 237.415621 
L 88.170108 235.726205 
L 88.353529 236.064082 
L 88.414669 235.861352 
L 88.536949 237.922443 
L 88.598089 237.866126 
L 88.84265 238.429264 
L 89.026071 241.864415 
L 89.209492 241.639163 
L 89.270632 243.497515 
L 89.331772 242.371237 
L 89.392912 241.526528 
L 89.454052 244.68011 
L 89.698613 242.145985 
L 89.882034 247.653482 
L 90.126595 242.145985 
L 90.187735 242.25861 
L 90.493436 247.101609 
L 90.554576 245.017996 
L 90.615716 248.509456 
L 90.737997 244.961679 
L 90.921418 243.553832 
L 91.043698 247.878734 
L 91.349399 243.553832 
L 91.53282 246.076692 
L 91.59396 244.68011 
L 91.777381 244.319701 
L 91.838521 246.05417 
L 91.899661 240.310155 
L 91.960801 242.720389 
L 92.021941 242.934376 
L 92.205362 242.709123 
L 92.327643 250.334021 
L 92.388783 247.889999 
L 92.449923 248.340512 
L 92.755624 243.373623 
L 92.816764 244.229596 
L 92.877904 246.087957 
L 93.061325 247.2255 
L 93.122465 248.509456 
L 93.305886 243.610149 
L 93.550447 241.886937 
L 93.611587 242.382502 
L 93.733867 237.471929 
L 93.917288 237.043947 
L 93.978428 235.106748 
L 94.039569 236.570913 
L 94.34527 237.809817 
L 94.40641 236.480808 
L 94.52869 241.301276 
L 94.589831 239.465447 
L 94.834391 240.952132 
L 94.956672 244.060653 
L 95.017812 243.272262 
L 95.201233 245.862705 
L 95.323513 242.427554 
L 95.445794 245.468501 
L 95.690354 243.891719 
L 95.873775 250.762012 
L 96.118336 252.654159 
L 96.301757 250.536751 
L 96.485177 252.338802 
L 96.546317 251.719346 
L 96.607458 249.511842 
L 96.729738 255.379749 
L 97.096579 259.862334 
L 97.15772 255.9992 
L 97.34114 254.985554 
L 97.524561 247.00024 
L 97.585701 246.82004 
L 97.769122 247.777374 
L 97.952542 242.968171 
L 98.013683 244.961679 
L 98.197103 242.25861 
L 98.441664 245.975331 
L 98.747365 240.186263 
L 98.808505 240.388993 
L 98.869646 243.159637 
L 99.053066 244.29718 
L 99.114206 245.7726 
L 99.175347 245.445979 
L 99.297627 242.15725 
L 99.481048 241.357594 
L 99.603328 242.044624 
L 99.725609 237.629608 
L 99.909029 237.505717 
L 99.970169 237.629608 
L 100.03131 239.442916 
L 100.15359 236.908791 
L 100.459291 238.192747 
L 100.581572 244.285915 
L 100.764992 242.697858 
L 100.826133 243.824136 
L 100.887273 243.260997 
L 100.948413 243.677723 
L 101.009553 243.001958 
L 101.192974 244.285915 
L 101.254114 242.934376 
L 101.315254 243.159637 
L 101.376394 243.610149 
L 101.437535 247.214235 
L 101.620955 246.617309 
L 102.110077 249.804677 
L 102.232357 249.917304 
L 102.293498 248.160303 
L 102.476918 247.754851 
L 102.599199 244.725162 
L 102.660339 244.961679 
L 102.9049 241.920732 
L 103.08832 243.891719 
L 103.149461 243.688989 
L 103.394022 244.39854 
L 103.516302 246.651096 
L 103.577442 246.200582 
L 103.822003 249.568151 
L 103.944284 248.31799 
L 104.005424 250.998529 
L 104.188844 249.917304 
L 104.249985 248.610817 
L 104.433405 251.539137 
L 104.616826 252.620371 
L 104.677966 251.944598 
L 104.800247 254.084527 
L 105.228228 249.579416 
L 105.289368 250.322764 
L 105.472789 249.455525 
L 105.533929 252.057233 
L 105.595069 251.617985 
L 105.65621 251.494094 
L 105.90077 248.39683 
L 106.145331 254.354831 
L 106.328752 251.505351 
L 106.451032 255.70637 
L 106.512173 255.323436 
L 106.573313 251.403989 
L 106.756733 251.584189 
L 106.940154 247.799896 
L 107.184715 245.412192 
L 107.245855 247.664748 
L 107.306995 247.00024 
L 107.368136 246.932665 
L 107.429276 247.12413 
L 107.612696 250.018664 
L 107.673837 249.489312 
L 107.857257 245.130623 
L 108.040678 243.835401 
L 108.224099 245.614922 
L 108.285239 244.837787 
L 108.468659 245.051784 
L 108.59094 240.400251 
L 108.65208 241.920732 
L 108.957781 240.625512 
L 109.080062 238.282852 
L 109.141202 239.634382 
L 109.569183 241.774311 
L 109.752604 240.343942 
L 109.813744 240.467833 
L 109.874884 240.546672 
L 109.936025 239.656912 
L 109.997165 243.204688 
L 110.180586 242.145985 
L 110.241726 242.652806 
L 110.608567 240.231316 
L 110.730847 242.821749 
L 110.853128 240.98592 
L 111.097689 240.850763 
L 111.219969 236.615956 
L 111.281109 236.68354 
L 111.46453 234.825179 
L 111.709091 227.222804 
L 111.892512 227.166487 
L 111.953652 227.616999 
L 112.137072 224.857623 
L 112.320493 225.251818 
L 112.381633 223.562401 
L 112.565054 228.912221 
L 112.809615 229.982181 
L 112.870755 229.903342 
L 113.176456 233.023137 
L 113.298737 230.534063 
L 113.359877 232.831671 
L 113.604438 230.094816 
L 113.787858 227.245326 
L 113.848998 228.641916 
L 114.032419 228.258977 
L 114.093559 225.308135 
L 114.1547 226.659665 
L 114.27698 229.261364 
L 114.460401 227.966152 
L 114.521541 229.813246 
L 114.582681 229.419042 
L 114.643821 228.777064 
L 114.704961 230.466481 
L 115.071803 227.560691 
L 115.316364 230.770581 
L 115.377504 231.052151 
L 115.438644 233.135762 
L 115.499784 231.94191 
L 115.560924 230.646689 
L 115.744345 229.970924 
L 115.805485 230.015976 
L 115.866626 227.616999 
L 115.927766 228.450442 
L 115.988906 227.549426 
L 116.172327 227.774678 
L 116.294607 227.05386 
L 116.355747 227.222804 
L 116.416888 226.26547 
L 116.722589 229.182525 
L 116.783729 229.250107 
L 117.08943 226.896182 
L 117.272851 223.832705 
L 117.456271 223.584923 
L 117.578552 223.900288 
L 117.639692 225.882531 
L 117.700832 225.47707 
L 117.884253 225.330657 
L 117.945393 225.837479 
L 118.128814 221.591415 
L 118.312234 221.98561 
L 118.495655 229.959659 
L 118.556795 229.734407 
L 118.801356 231.164776 
L 118.862496 232.12211 
L 118.984777 229.486624 
L 119.290478 228.799595 
L 119.351618 227.864782 
L 119.412758 228.619386 
L 119.657319 227.312908 
L 119.718459 225.871274 
L 119.84074 227.470586 
L 120.207581 229.509147 
L 120.268721 228.630651 
L 120.452142 228.067512 
L 120.635562 221.366163 
L 120.696703 221.388685 
L 120.880123 220.014624 
L 120.941263 218.268899 
L 121.002404 218.550468 
L 121.063544 219.091077 
L 121.124684 217.897225 
L 121.308105 217.390395 
L 121.430385 218.550468 
L 121.491525 217.694495 
L 121.552666 218.39279 
L 121.736086 220.960702 
L 121.797227 219.620429 
L 121.980647 222.605067 
L 122.164068 220.803024 
L 122.286348 217.942277 
L 122.408629 217.739547 
L 122.592049 218.235104 
L 122.77547 214.687335 
L 123.020031 216.466848 
L 123.081171 215.34057 
L 123.142311 216.016343 
L 123.203451 216.275383 
L 123.448012 214.067879 
L 123.631433 217.367873 
L 123.692573 217.255248 
L 123.875994 218.066169 
L 123.937134 215.858665 
L 123.998274 216.444325 
L 124.120555 216.748417 
L 124.303975 215.700979 
L 124.365116 214.101665 
L 124.426256 214.473339 
L 124.854237 217.638178 
L 124.976518 215.408152 
L 125.282219 216.804734 
L 125.404499 212.693818 
L 125.64906 212.671297 
L 125.7102 213.651153 
L 125.832481 212.772658 
L 126.015901 214.642283 
L 126.077042 211.522489 
L 126.138182 212.524875 
L 126.199322 214.833748 
L 126.260462 214.653539 
L 126.443883 214.85627 
L 126.566163 212.693818 
L 126.688444 214.788696 
L 126.994145 209.934442 
L 127.116425 205.7109 
L 127.360986 206.49929 
L 127.422126 205.924886 
L 127.483267 205.99247 
L 127.544407 206.837178 
L 127.727827 206.589395 
L 127.850108 208.84195 
L 127.972388 206.341612 
L 128.155809 205.767209 
L 128.278089 206.78086 
L 128.58379 203.784965 
L 128.767211 209.979493 
L 128.828351 209.314985 
L 129.011772 208.582903 
L 129.072912 210.047068 
L 129.134052 209.968228 
L 129.195193 209.652873 
L 129.439753 211.556275 
L 129.500894 210.328637 
L 129.623174 213.98904 
L 129.867735 209.269934 
L 129.928875 209.821815 
L 129.990015 209.179837 
L 130.051156 209.213624 
L 130.112296 206.105095 
L 130.417997 207.940925 
L 130.479137 206.78086 
L 130.723698 207.456625 
L 130.784838 207.434103 
L 130.907119 212.130679 
L 131.15168 210.328637 
L 131.21282 211.004401 
L 131.3351 213.977775 
L 131.39624 212.806445 
L 131.579661 212.862762 
L 131.824222 215.667191 
L 132.007643 217.42419 
L 132.068783 216.523165 
L 132.129923 216.804734 
L 132.252203 220.183568 
L 132.435624 224.407109 
L 132.680185 220.61155 
L 132.863606 222.098237 
L 132.924746 221.760359 
L 132.985886 219.901998 
L 133.108166 222.300967 
L 133.291587 222.492441 
L 133.352727 223.303354 
L 133.475008 220.521454 
L 133.536148 221.546363 
L 133.780709 220.971959 
L 133.964129 223.562401 
L 134.14755 222.605067 
L 134.269831 220.735442 
L 134.330971 221.861719 
L 134.575532 222.830318 
L 134.636672 222.796532 
L 134.820092 226.378096 
L 135.003513 225.375709 
L 135.064653 227.110178 
L 135.248074 221.647732 
L 135.431495 219.451485 
L 135.492635 221.872984 
L 135.553775 220.746707 
L 135.614915 220.555242 
L 135.920616 222.312232 
L 136.042897 225.364443 
L 136.104037 224.463427 
L 136.409738 225.747382 
L 136.470878 225.026566 
L 136.776579 228.349082 
L 136.83772 225.589704 
L 136.96 228.844646 
L 137.143421 227.81973 
L 137.204561 228.596864 
L 137.326841 225.646013 
L 137.387982 226.321778 
L 137.571402 227.752156 
L 137.632542 227.05386 
L 137.815963 230.883207 
L 137.999384 231.390028 
L 138.121664 231.108459 
L 138.182804 231.277402 
L 138.243945 232.167162 
L 138.427365 231.727915 
L 138.488505 228.450442 
L 138.549646 229.419042 
L 138.610786 228.281507 
L 138.671926 229.081164 
L 138.916487 227.335429 
L 138.977627 227.752156 
L 139.099908 223.990383 
L 139.466749 226.152843 
L 139.527889 224.057966 
L 139.77245 223.900288 
L 139.83359 222.67264 
L 139.89473 222.886637 
L 139.955871 223.145675 
L 140.261572 220.746707 
L 140.322712 222.267179 
L 140.383852 221.546363 
L 140.567273 224.12554 
L 140.689553 221.78288 
L 140.750693 222.436123 
L 140.811834 221.11838 
L 140.995254 221.332368 
L 141.056394 222.154554 
L 141.117535 221.80541 
L 141.484376 219.676746 
L 141.545516 220.667867 
L 141.606656 219.620429 
L 141.667797 219.789373 
L 141.851217 219.845681 
L 141.912357 221.591415 
L 141.973498 219.620429 
L 142.034638 220.746707 
L 142.095778 221.084593 
L 142.340339 220.465137 
L 142.462619 222.999262 
L 142.52376 221.850462 
L 142.70718 223.280832 
L 143.257442 213.977775 
L 143.318582 214.698591 
L 143.379723 213.425901 
L 143.563143 213.538526 
L 143.624284 213.741258 
L 143.991125 208.526595 
L 144.052265 208.774377 
L 144.113405 209.427611 
L 144.174545 208.470276 
L 144.235686 208.616698 
L 144.419106 210.891776 
L 144.663667 208.413968 
L 144.847088 207.873351 
L 144.908228 208.864472 
L 144.969368 208.076081 
L 145.091649 206.555609 
L 145.275069 206.048778 
L 145.33621 205.294174 
L 145.39735 206.634447 
L 145.45849 206.454239 
L 145.51963 204.415679 
L 145.764191 202.21944 
L 145.825331 203.120457 
L 145.947612 209.483929 
L 146.131032 209.754233 
L 146.314453 208.751846 
L 146.559014 208.413968 
L 146.620154 209.258676 
L 146.742435 208.470276 
L 146.986995 208.470276 
L 147.048136 208.582903 
L 147.109276 209.765498 
L 147.170416 209.528981 
L 147.231556 208.098604 
L 147.598398 210.835459 
L 147.659538 210.497581 
L 147.904099 209.934442 
L 147.965239 209.112255 
L 148.087519 210.384954 
L 148.27094 210.238533 
L 148.33208 209.371303 
L 148.39322 210.407476 
L 148.454361 210.19348 
L 148.760062 205.373012 
L 149.126903 202.70374 
L 149.188043 202.760049 
L 149.371464 199.595211 
L 149.554884 199.595211 
L 149.677165 200.079511 
L 149.738305 199.797942 
L 149.799445 201.994179 
L 150.044006 204.9225 
L 150.227427 204.156631 
L 150.410847 202.726262 
L 150.471988 204.53957 
L 150.533128 203.57097 
L 150.594268 202.275749 
L 150.655408 202.50101 
L 150.899969 199.572681 
L 150.961109 199.910567 
L 151.08339 201.217054 
L 151.26681 202.940257 
L 151.327951 200.811593 
L 151.389091 202.118071 
L 151.511371 203.064149 
L 151.694792 202.613636 
L 151.755932 203.007831 
L 151.817072 205.429331 
L 151.878213 204.100322 
L 152.122773 203.908857 
L 152.183914 203.086671 
L 152.245054 204.764822 
L 152.367334 201.892819 
L 152.550755 203.683596 
L 152.795316 199.065859 
L 152.978737 198.840607 
L 153.223297 204.584623 
L 153.406718 206.454239 
L 153.467858 205.541956 
L 153.651279 208.357651 
L 153.89584 207.524208 
L 153.95698 207.603047 
L 154.07926 205.958683 
L 154.262681 207.400317 
L 154.323821 209.99075 
L 154.384961 208.132399 
L 154.446102 206.330347 
L 154.507242 207.512943 
L 154.751803 209.236146 
L 154.935223 214.552179 
L 155.179784 216.804734 
L 155.302065 213.98904 
L 155.363205 214.045357 
L 155.546626 212.130679 
L 155.791186 217.42419 
L 156.035747 219.733054 
L 156.158028 216.241595 
L 156.402589 217.649443 
L 156.463729 214.890065 
L 156.524869 215.002692 
L 156.586009 214.890065 
L 156.647149 213.842627 
L 156.83057 215.3631 
L 156.89171 214.383235 
L 156.952851 215.565831 
L 157.258552 210.328637 
L 157.503112 211.556275 
L 157.747673 210.047068 
L 157.808814 209.247411 
L 157.931094 211.545019 
L 158.175655 211.454915 
L 158.236795 210.576419 
L 158.297935 211.342289 
L 158.359076 209.371303 
L 158.664777 205.744686 
L 158.725917 203.908857 
L 158.787057 204.697248 
L 158.970478 205.035135 
L 159.031618 204.246735 
L 159.092758 205.260387 
L 159.153898 203.57097 
L 159.215039 205.046392 
L 159.398459 203.7737 
L 159.52074 205.035135 
L 159.64302 203.379505 
L 159.887581 205.823526 
L 160.009861 202.726262 
L 160.071002 204.134109 
L 160.315562 202.692475 
L 160.498983 199.144699 
L 160.682404 199.065859 
L 160.743544 197.601695 
L 160.865824 201.723876 
L 160.926965 201.464827 
L 161.110385 200.698959 
L 161.171525 201.036845 
L 161.232666 200.710224 
L 161.293806 202.455957 
L 161.354946 202.163123 
L 161.538367 203.289401 
L 161.599507 202.838887 
L 161.660647 202.906471 
L 161.782928 199.009542 
L 162.027488 198.457668 
L 162.210909 196.531734 
L 162.51661 193.997609 
L 162.57775 197.094873 
L 162.638891 195.405456 
L 162.822311 193.603414 
L 162.883451 191.024237 
L 163.005732 196.329004 
L 163.066872 192.826279 
L 163.372573 191.29454 
L 163.433713 192.477136 
L 163.494854 190.461098 
L 163.678274 190.010585 
L 163.739414 190.449832 
L 163.922835 194.560748 
L 164.106256 193.71604 
L 164.167396 192.36451 
L 164.350817 198.108525 
L 164.595378 195.349139 
L 164.656518 195.687026 
L 164.717658 191.486006 
L 164.778798 191.688736 
L 164.962219 191.801371 
L 165.145639 187.183625 
L 165.20678 187.29626 
L 165.3902 185.832095 
L 165.573621 180.200706 
L 165.634761 180.482276 
L 165.818182 179.637567 
L 165.940462 182.633471 
L 166.001602 182.284327 
L 166.062743 180.820162 
L 166.246163 179.840289 
L 166.429584 182.453262 
L 166.490724 178.060785 
L 166.674145 178.792859 
L 167.102126 175.357708 
L 167.224407 179.693884 
L 167.285547 179.637567 
L 167.346687 180.031771 
L 167.530108 179.355998 
L 167.591248 175.751912 
L 167.713529 181.270667 
L 167.774669 181.158049 
L 167.958089 179.750202 
L 168.01923 181.552236 
L 168.08037 178.984324 
L 168.20265 182.836192 
L 168.386071 183.241653 
L 168.447211 186.169982 
L 168.508351 184.311622 
L 168.630632 182.509579 
L 168.875193 181.664871 
L 169.058613 183.410596 
L 169.303174 183.917426 
L 169.364314 183.185344 
L 169.425455 184.705817 
L 169.486595 183.252918 
L 169.670015 181.890123 
L 169.914576 177.92562 
L 170.159137 179.074428 
L 170.220277 179.006854 
L 170.342558 176.990808 
L 170.525978 178.353612 
L 170.648259 176.089799 
L 170.709399 176.810616 
L 170.770539 171.269331 
L 171.07624 167.361146 
L 171.137381 166.381273 
L 171.198521 167.192194 
L 171.381941 165.998342 
L 171.443082 166.291169 
L 171.504222 168.825294 
L 171.565362 167.653973 
L 171.809923 169.332132 
L 172.054484 161.966266 
L 172.299045 162.675826 
L 172.360185 165.052273 
L 172.421325 162.619509 
L 172.482465 165.502778 
L 172.665886 163.520534 
L 172.788166 166.707903 
L 172.849307 165.480247 
L 172.910447 164.995956 
L 173.093867 161.572079 
L 173.338428 167.10209 
L 173.521849 167.192194 
L 173.70527 158.688794 
L 173.76641 159.646136 
L 174.010971 155.861842 
L 174.072111 159.589819 
L 174.194391 155.783011 
L 174.377812 155.276173 
L 174.561233 148.969027 
L 174.622373 149.791206 
L 174.866934 148.52978 
L 175.050354 144.114774 
L 175.233775 143.596678 
L 175.294915 143.033539 
L 175.417196 148.158106 
L 175.661757 146.130803 
L 175.906317 136.703863 
L 176.273159 142.639335 
L 176.334299 142.121256 
L 176.57886 149.115432 
L 176.64 146.975511 
L 176.70114 147.358441 
L 176.76228 146.693942 
L 177.067982 140.949918 
L 177.129122 141.47927 
L 177.190262 147.82022 
L 177.618243 159.589819 
L 177.801664 159.35331 
L 177.862804 159.871389 
L 177.923945 164.827021 
L 177.985085 163.081287 
L 178.046225 157.67515 
L 178.351926 156.210986 
L 178.413066 156.638977 
L 178.474206 151.480622 
L 178.657627 152.100079 
L 178.841048 159.02668 
L 178.902188 156.548872 
L 179.085609 157.337264 
L 179.207889 169.219498 
L 179.269029 168.487424 
L 179.330169 165.221208 
L 179.635871 162.439301 
L 179.697011 158.001763 
L 179.758151 160.096641 
L 180.002712 158.745111 
L 180.063852 160.592205 
L 180.124992 159.815071 
L 180.186133 155.197343 
L 180.491834 155.760481 
L 180.552974 155.095982 
L 180.614114 157.663893 
L 180.797535 158.519859 
L 180.858675 159.477202 
L 180.919815 159.139315 
L 181.042096 165.44646 
L 181.225516 168.825294 
L 181.286656 168.239642 
L 181.408937 161.39187 
L 181.470077 163.250222 
L 181.653498 165.221208 
L 181.836918 159.139315 
L 182.081479 155.873099 
L 182.142619 155.839312 
L 182.2649 159.082998 
L 182.32604 153.170039 
L 182.509461 155.287447 
L 182.631741 153.733178 
L 182.692881 158.238289 
L 182.754022 155.028391 
L 182.937442 154.881986 
L 182.998582 154.994604 
L 183.182003 152.663217 
L 183.365424 154.116108 
L 183.426564 152.764578 
L 183.487704 153.834539 
L 183.548844 153.676861 
L 183.609985 156.898016 
L 183.793405 159.646136 
L 183.854545 158.125655 
L 183.976826 160.975136 
L 184.037966 159.139315 
L 184.282527 157.95672 
L 184.465948 156.548872 
L 184.649368 158.519859 
L 184.893929 143.596678 
L 185.07735 144.137287 
L 185.19963 141.197701 
L 185.26077 137.965289 
L 185.321911 138.584745 
L 185.688752 136.33219 
L 185.749892 135.093277 
L 185.933313 136.827754 
L 186.116733 127.806259 
L 186.177874 130.284067 
L 186.361294 129.067701 
L 186.605855 122.524013 
L 186.850416 119.133923 
L 186.911556 119.302858 
L 187.033837 124.202173 
L 187.217257 123.627777 
L 187.461818 110.360226 
L 187.645239 114.876594 
L 187.767519 111.497761 
L 187.828659 118.807309 
L 187.8898 113.862951 
L 188.07322 115.237011 
L 188.134361 112.398786 
L 188.317781 117.737332 
L 188.623482 112.207322 
L 188.745763 105.888902 
L 188.929183 106.598446 
L 189.051464 101.361261 
L 189.173744 101.102221 
L 189.357165 99.840779 
L 189.418305 109.245205 
L 189.479445 103.625073 
L 189.601726 106.204259 
L 189.785146 106.260576 
L 189.968567 93.815203 
L 190.029707 101.090948 
L 190.213128 95.166733 
L 190.396549 102.262286 
L 190.457689 100.67423 
L 190.641109 100.798122 
L 190.82453 98.703244 
L 190.88567 102.374904 
L 191.130231 102.600173 
L 191.252512 98.737031 
L 191.313652 100.31383 
L 191.619353 100.685487 
L 191.680493 101.113479 
L 191.741633 103.129525 
L 191.925054 102.431221 
L 192.169615 89.08484 
L 192.414176 89.14114 
L 192.536456 85.874941 
L 192.597596 91.134656 
L 192.903297 86.145253 
L 192.964438 79.02717 
L 193.025578 84.962658 
L 193.208998 85.706006 
L 193.331279 92.013152 
L 193.392419 86.224085 
L 193.453559 88.972205 
L 193.75926 84.433307 
L 193.820401 87.744567 
L 193.881541 83.599855 
L 194.126102 87.868457 
L 194.248382 81.155835 
L 194.309522 83.385859 
L 194.615223 79.680413 
L 194.676364 77.709427 
L 194.737504 79.781774 
L 194.920924 81.099518 
L 195.104345 104.604946 
L 195.165485 103.388564 
L 195.348906 108.625749 
L 195.410046 108.231562 
L 195.593467 98.038745 
L 195.776888 101.361261 
L 195.838028 95.774915 
L 195.960308 101.361261 
L 196.021448 100.471509 
L 196.204869 99.874566 
L 196.327149 95.346942 
L 196.38829 88.183814 
L 196.44943 90.030908 
L 196.632851 87.83467 
L 196.877411 92.981752 
L 197.060832 92.722712 
L 197.121972 93.477316 
L 197.183112 90.717939 
L 197.244253 91.7879 
L 197.488814 91.709052 
L 197.549954 92.013152 
L 197.611094 91.562647 
L 197.672234 94.322025 
L 197.733374 92.407356 
L 197.916795 92.080726 
L 197.977935 84.298159 
L 198.039076 85.480737 
L 198.100216 84.084164 
L 198.161356 77.450388 
L 198.344777 77.709427 
L 198.528197 72.190673 
L 198.589337 74.274277 
L 198.772758 73.925133 
L 198.895039 81.088261 
L 199.20074 70.95176 
L 199.4453 74.431954 
L 199.628721 69.791695 
L 199.751002 72.539817 
L 200.056703 66.840853 
L 200.117843 67.809453 
L 200.178983 65.658258 
L 200.301263 71.165755 
L 200.606965 71.796469 
L 200.668105 65.083845 
L 200.729245 65.230267 
L 201.034946 70.084522 
L 201.096086 71.751426 
L 201.157227 78.72307 
L 201.462928 68.699205 
L 201.585208 70.580086 
L 201.829769 71.897829 
L 201.890909 67.854496 
L 201.952049 72.100568 
L 202.01319 71.514899 
L 202.25775 81.426147 
L 202.318891 85.593372 
L 202.380031 79.117274 
L 202.441171 79.342527 
L 202.624592 81.651399 
L 202.808012 74.003981 
L 202.869153 77.979739 
L 203.052573 75.434341 
L 203.174854 82.237068 
L 203.235994 80.558909 
L 203.297134 78.768131 
L 203.480555 76.729571 
L 203.541695 76.875976 
L 203.725116 88.78074 
L 203.908536 93.297107 
L 204.153097 107.364324 
L 204.336518 107.533259 
L 204.397658 102.99436 
L 204.458798 115.969085 
L 204.519938 113.581382 
L 204.764499 124.787842 
L 204.88678 110.32644 
L 205.00906 125.407298 
L 205.192481 118.24417 
L 205.375901 142.920904 
L 205.437042 126.004224 
L 205.620462 128.369398 
L 205.681602 132.3339 
L 205.803883 124.123343 
L 205.865023 127.524689 
L 206.048444 124.64142 
L 206.231864 135.194638 
L 206.293005 128.786132 
L 206.537565 128.189206 
L 206.598706 124.247233 
L 206.659846 125.576233 
L 206.720986 127.716154 
L 206.904407 123.323678 
L 206.965547 117.692289 
L 207.026687 120.350305 
L 207.087827 119.663275 
L 207.148968 116.059189 
L 207.393529 111.723013 
L 207.515809 89.039779 
L 207.576949 95.099158 
L 207.76037 88.983462 
L 207.82151 91.224761 
L 208.004931 83.611128 
L 208.188351 84.005315 
L 208.371772 70.332304 
L 208.432912 70.827869 
L 208.677473 70.050735 
L 208.799753 57.413897 
L 208.860894 66.818323 
L 209.044314 63.912524 
L 209.227735 73.316951 
L 209.288875 71.909103 
L 209.472296 82.755147 
L 209.533436 74.747311 
L 209.594576 75.727184 
L 209.655716 74.206702 
L 209.716857 64.351771 
L 209.900277 60.567478 
L 210.083698 52.31186 
L 210.144838 54.282846 
L 210.328259 78.835705 
L 210.389399 76.875976 
L 210.51168 85.965046 
L 210.57282 98.466719 
L 210.75624 89.08484 
L 210.878521 56.591719 
L 210.939661 67.449035 
L 211.245362 78.385201 
L 211.306502 86.257871 
L 211.428783 87.260258 
L 211.612203 84.861298 
L 211.673344 90.098483 
L 211.856764 64.588298 
L 212.162465 79.443887 
L 212.223606 85.030233 
L 212.284746 75.445614 
L 212.468166 79.747988 
L 212.529307 74.206702 
L 212.712727 91.517587 
L 212.957288 90.323735 
L 213.018428 98.342844 
L 213.079569 94.53602 
L 213.140709 94.772529 
L 213.50755 84.602242 
L 213.56869 85.08655 
L 213.752111 88.307706 
L 213.874391 84.692346 
L 213.996672 100.234983 
L 214.180092 101.102221 
L 214.302373 113.705273 
L 214.363513 113.356112 
L 214.424653 104.785137 
L 214.608074 101.169796 
L 214.669214 101.868082 
L 214.852635 110.180018 
L 215.097196 125.947907 
L 215.280616 99.660587 
L 215.464037 111.925752 
L 215.525177 104.695051 
L 215.586317 106.68855 
L 215.708598 102.318604 
L 215.892018 92.531247 
L 216.075439 117.388189 
L 216.136579 113.750316 
L 216.32 115.023016 
L 216.38114 116.926428 
L 216.564561 129.405571 
L 216.809122 123.537673 
L 216.870262 132.930826 
L 216.931402 125.576233 
L 216.992542 128.898749 
L 217.175963 129.124002 
L 217.237103 128.977597 
L 217.298243 133.077248 
L 217.359384 123.57146 
L 217.420524 130.205236 
L 217.603945 135.94926 
L 217.665085 142.346508 
L 217.726225 142.008622 
L 217.787365 143.089856 
L 217.848505 149.791206 
L 218.093066 144.272451 
L 218.154206 141.873474 
L 218.215347 145.916808 
L 218.276487 138.528428 
L 218.459908 166.651585 
L 218.582188 126.206947 
L 218.643328 139.316819 
L 218.887889 125.013094 
L 218.949029 126.691254 
L 219.010169 125.58749 
L 219.07131 127.704897 
L 219.13245 135.633886 
L 219.315871 141.715796 
L 219.438151 127.26565 
L 219.499291 129.754732 
L 219.560431 127.772472 
L 219.743852 125.508659 
L 219.927273 130.757118 
L 219.988413 137.40215 
L 220.232974 140.713409 
L 220.294114 139.485771 
L 220.355254 137.694977 
L 220.416394 127.36701 
L 220.722096 122.940748 
L 220.783236 123.503887 
L 220.844376 112.331212 
L 221.027797 109.819601 
L 221.088937 112.342469 
L 221.272357 97.54318 
L 221.516918 107.443154 
L 221.578059 104.064321 
L 221.700339 117.10662 
L 221.9449 111.295039 
L 222.00604 111.948265 
L 222.311741 117.500824 
L 222.556302 128.380671 
L 222.800863 133.167351 
L 222.984284 126.364624 
L 223.167704 127.26565 
L 223.289985 135.149594 
L 223.412265 129.439358 
L 223.595686 134.192252 
L 223.656826 142.188831 
L 223.717966 138.528428 
L 223.779106 142.763227 
L 224.084807 118.210384 
L 224.145948 127.64858 
L 224.268228 118.232898 
L 224.451649 118.705932 
L 224.512789 126.567363 
L 224.573929 120.384092 
L 224.69621 127.254393 
L 224.87963 128.887492 
L 224.94077 131.624339 
L 225.063051 123.54893 
L 225.307612 123.109683 
L 225.491032 137.954032 
L 225.552173 139.260502 
L 225.735593 137.492255 
L 225.796733 149.746163 
L 225.857874 145.049568 
L 225.980154 120.417879 
L 226.163575 119.201496 
L 226.224715 125.621276 
L 226.346995 114.324712 
L 226.408136 122.467712 
L 226.591556 125.080669 
L 226.652696 129.934923 
L 226.713837 119.381705 
L 226.774977 120.440409 
L 226.836117 118.255428 
L 227.264099 132.041073 
L 227.447519 127.963937 
L 227.63094 141.220231 
L 227.69208 138.077923 
L 228.058921 151.15401 
L 228.120062 146.42363 
L 228.303482 148.000429 
L 228.425763 152.370374 
L 228.792604 137.965289 
L 228.976025 148.923967 
L 229.159445 134.023317 
L 229.281726 146.525007 
L 229.342866 156.143411 
L 229.404006 152.742048 
L 229.587427 166.370016 
L 229.770847 207.231373 
L 229.831988 166.110977 
L 230.015408 177.069655 
L 230.076549 192.713653 
L 230.137689 181.957697 
L 230.198829 175.414025 
L 230.259969 177.396269 
L 230.44339 175.143713 
L 230.50453 183.703431 
L 230.56567 183.219131 
L 230.687951 177.002082 
L 230.871371 189.098303 
L 230.932512 183.005136 
L 231.115932 229.633037 
L 231.299353 215.194157 
L 231.360493 184.739604 
L 231.421633 197.714329 
L 231.482773 197.094873 
L 231.543914 202.455957 
L 231.788475 190.517415 
L 231.910755 198.243673 
L 231.971895 218.494151 
L 232.216456 217.379138 
L 232.277596 221.478789 
L 232.338737 212.682553 
L 232.399877 226.400618 
L 232.583297 222.999262 
L 232.644438 224.474684 
L 232.705578 222.120767 
L 232.827858 234.881496 
L 233.011279 237.899921 
L 233.072419 248.49819 
L 233.133559 245.536083 
L 233.1947 250.266446 
L 233.25584 250.198873 
L 233.561541 257.5422 
L 233.622681 265.797818 
L 233.683821 265.189627 
L 233.867242 263.398845 
L 233.928382 246.189317 
L 233.989522 248.1941 
L 234.111803 241.087281 
L 234.295223 241.244959 
L 234.417504 255.582479 
L 234.478644 249.815934 
L 234.539784 251.437776 
L 234.784345 241.67295 
L 234.906626 247.383179 
L 234.967766 252.620371 
L 235.151186 251.02105 
L 235.273467 241.774311 
L 235.334607 236.88627 
L 235.395747 237.224147 
L 235.579168 236.514596 
L 235.701448 241.537793 
L 235.823729 240.084894 
L 236.007149 240.535407 
L 236.06829 239.566807 
L 236.25171 231.986962 
L 236.435131 229.970924 
L 236.496271 225.1955 
L 236.557411 228.732012 
L 236.618552 232.550101 
L 236.679692 229.858289 
L 236.863112 232.730301 
L 236.924253 243.092053 
L 236.985393 241.154864 
L 237.046533 242.112197 
L 237.107673 241.042229 
L 237.352234 248.227887 
L 237.413374 255.222071 
L 237.474515 250.84085 
L 237.535655 250.176342 
L 237.902496 230.736794 
L 237.963636 232.471263 
L 238.147057 237.888656 
L 238.391618 220.442615 
L 238.575039 217.345351 
L 238.636179 217.60439 
L 238.697319 223.280832 
L 238.758459 222.267179 
L 238.819599 219.620429 
L 239.06416 222.706428 
L 239.247581 234.318357 
L 239.431002 229.182525 
L 239.492142 234.791392 
L 239.614422 222.661375 
L 239.675562 226.794822 
L 239.858983 227.662051 
L 239.920123 227.132699 
L 240.286965 243.53131 
L 240.470385 222.965475 
L 240.531525 216.478113 
L 240.714946 213.617366 
L 240.776086 222.278445 
L 240.837227 216.71463 
L 240.898367 208.751846 
L 240.959507 214.540914 
L 241.142928 211.173345 
L 241.265208 201.453571 
L 241.326348 200.473706 
L 241.632049 210.824201 
L 241.69319 209.371303 
L 241.75433 196.858356 
L 241.81547 199.572681 
L 241.998891 195.968595 
L 242.060031 198.221151 
L 242.182311 191.700001 
L 242.488012 187.228677 
L 242.549153 195.157674 
L 242.610293 187.98329 
L 242.671433 190.517415 
L 242.915994 198.491455 
L 243.099414 187.803081 
L 243.282835 192.206832 
L 243.343975 191.272019 
L 243.405116 189.188406 
L 243.466256 181.867593 
L 243.527396 182.565887 
L 243.710817 183.005136 
L 243.894237 167.83418 
L 243.955378 174.693209 
L 244.199938 172.282974 
L 244.322219 181.191836 
L 244.383359 175.673065 
L 244.56678 172.091509 
L 244.62792 166.020873 
L 244.68906 166.336229 
L 244.7502 175.639278 
L 244.811341 171.438266 
L 245.055901 175.008564 
L 245.239322 162.394256 
L 245.422743 162.405514 
L 245.545023 166.786733 
L 245.667304 156.492555 
L 245.850724 160.434527 
L 245.973005 157.753998 
L 246.095285 164.004826 
L 246.339846 164.500391 
L 246.400986 164.331457 
L 246.462126 168.982971 
L 246.523267 165.3451 
L 246.706687 166.831794 
L 246.767827 170.807554 
L 246.951248 163.880935 
L 247.195809 158.350924 
L 247.318089 162.337939 
L 247.56265 165.942025 
L 247.62379 161.909949 
L 247.746071 166.955685 
L 247.807211 166.291169 
L 248.112912 155.411338 
L 248.235193 151.063905 
L 248.418613 148.946497 
L 248.479753 146.536264 
L 248.540894 148.450933 
L 248.846595 141.11887 
L 248.968875 147.302124 
L 249.030015 145.162203 
L 249.274576 140.555731 
L 249.335716 143.044796 
L 249.457997 135.825368 
L 249.519137 137.064263 
L 249.824838 146.558794 
L 249.885978 140.510671 
L 249.947119 141.941048 
L 250.130539 147.178233 
L 250.19168 146.784046 
L 250.25282 147.414758 
L 250.31396 146.18712 
L 250.3751 142.177574 
L 250.558521 141.5018 
L 250.619661 142.661865 
L 250.803082 139.801127 
L 250.986502 143.089856 
L 251.047643 141.006236 
L 251.169923 146.502477 
L 251.597904 134.023317 
L 251.659045 127.490902 
L 251.842465 131.455404 
L 252.025886 124.021964 
L 252.087026 121.983405 
L 252.270447 121.983405 
L 252.392727 116.780006 
L 252.453867 118.345532 
L 252.515008 121.431539 
L 252.698428 123.729139 
L 252.820709 118.514467 
L 252.881849 119.370448 
L 252.942989 127.885106 
L 253.12641 123.019578 
L 253.309831 110.495375 
L 253.370971 114.054416 
L 253.554391 111.655439 
L 253.615532 116.667371 
L 253.676672 110.844517 
L 253.737812 114.178308 
L 253.798952 116.374546 
L 253.982373 118.424363 
L 254.043513 118.041433 
L 254.104653 118.030175 
L 254.165794 123.841773 
L 254.226934 119.347918 
L 254.532635 126.240733 
L 254.593775 130.002497 
L 254.654915 127.017868 
L 254.899476 136.298402 
L 254.960616 131.241409 
L 255.021757 134.045847 
L 255.388598 126.105585 
L 255.449738 124.224703 
L 255.510878 125.136986 
L 255.694299 126.150629 
L 255.87772 128.921279 
L 255.93886 133.572812 
L 256.244561 132.930826 
L 256.366841 141.603162 
L 256.550262 140.251632 
L 256.611402 133.741747 
L 256.672542 137.796354 
L 256.733683 137.458467 
L 256.978243 139.069037 
L 257.100524 144.013395 
L 257.222804 137.920246 
L 257.406225 139.114097 
L 257.650786 144.373812 
L 257.895347 140.217845 
L 257.956487 140.713409 
L 258.017627 141.907261 
L 258.262188 141.794627 
L 258.323328 141.344122 
L 258.384468 141.839687 
L 258.445609 138.201815 
L 258.690169 135.093277 
L 258.81245 129.090214 
L 258.87359 130.284067 
L 258.93473 128.020254 
L 259.118151 129.450631 
L 259.301572 137.40215 
L 259.362712 137.852654 
L 259.607273 140.769726 
L 259.668413 139.879958 
L 259.729553 135.94926 
L 259.790693 147.887794 
L 260.035254 152.145122 
L 260.096394 156.830442 
L 260.218675 152.674475 
L 260.402096 157.877872 
L 260.524376 148.755032 
L 260.585516 151.739662 
L 260.646656 156.751595 
L 260.830077 152.86594 
L 260.891217 154.634204 
L 260.952357 154.555356 
L 261.013498 152.719535 
L 261.074638 155.005878 
L 261.319199 151.705875 
L 261.380339 148.664928 
L 261.502619 152.595643 
L 261.68604 149.565954 
L 261.74718 150.005201 
L 261.80832 149.408276 
L 261.869461 150.658444 
L 261.930601 150.624657 
L 262.114022 150.343087 
L 262.236302 147.493607 
L 262.297442 148.383359 
L 262.358582 140.657092 
L 262.725424 133.572812 
L 262.786564 129.506948 
L 262.969985 130.700801 
L 263.031125 130.272809 
L 263.214545 126.252007 
L 263.397966 128.155402 
L 263.459106 128.110358 
L 263.520247 131.049944 
L 263.581387 129.247893 
L 263.642527 129.090214 
L 263.825948 130.790905 
L 263.887088 130.351657 
L 263.948228 135.149594 
L 264.009368 133.212396 
L 264.253929 134.383733 
L 264.49849 123.57146 
L 264.681911 124.607633 
L 264.743051 126.634937 
L 264.865331 117.647245 
L 264.926471 119.809697 
L 265.109892 151.367988 
L 265.171032 139.159141 
L 265.232173 144.531491 
L 265.293313 148.743775 
L 265.354453 146.198377 
L 265.537874 150.106562 
L 265.599014 157.393581 
L 265.721294 146.919194 
L 265.782435 155.535229 
L 265.965855 160.107915 
L 266.026995 158.767641 
L 266.088136 159.815071 
L 266.149276 160.513375 
L 266.210416 162.878548 
L 266.393837 158.700068 
L 266.454977 166.234868 
L 266.516117 164.162505 
L 266.577257 159.522245 
L 266.638398 165.097316 
L 266.821818 165.029743 
L 266.882958 164.781961 
L 266.944099 171.246801 
L 267.005239 170.965232 
L 267.066379 172.226657 
L 267.2498 166.685373 
L 267.31094 174.873417 
L 267.37208 164.106204 
L 267.43322 165.637942 
L 267.494361 163.959783 
L 267.738921 164.13999 
L 267.800062 166.685373 
L 267.861202 163.4079 
L 267.922342 166.493908 
L 268.105763 166.370016 
L 268.350324 176.450199 
L 268.533744 172.19287 
L 268.594884 174.986034 
L 268.656025 173.375465 
L 268.961726 169.332132 
L 269.084006 175.808229 
L 269.145146 175.537917 
L 269.389707 168.509937 
L 269.573128 178.297294 
L 269.878829 175.988422 
L 269.939969 177.452586 
L 270.001109 172.406866 
L 270.06225 174.163856 
L 270.429091 168.915398 
L 270.490231 156.019521 
L 270.673652 160.29938 
L 270.734792 166.48265 
L 270.795932 157.618833 
L 270.857072 158.936576 
L 270.918213 161.448188 
L 271.101633 160.614736 
L 271.162773 158.700068 
L 271.223914 161.053984 
L 271.285054 159.623606 
L 271.346194 156.154669 
L 271.529615 154.499039 
L 271.590755 155.287447 
L 271.713035 151.334201 
L 271.774176 152.561857 
L 271.957596 150.996331 
L 272.141017 160.141701 
L 272.202157 158.373437 
L 272.385578 160.40074 
L 272.446718 159.161845 
L 272.507858 159.319524 
L 272.568998 159.173102 
L 272.630139 160.558419 
L 272.813559 159.792558 
L 272.93584 165.77309 
L 272.99698 163.374114 
L 273.05812 167.665229 
L 273.241541 170.255671 
L 273.302681 173.16147 
L 273.486102 167.113364 
L 274.158644 153.688135 
L 274.219784 155.794269 
L 274.280924 155.107238 
L 274.342065 155.298703 
L 274.525485 156.571403 
L 274.586626 155.298703 
L 274.770046 161.898692 
L 274.953467 161.042727 
L 275.014607 161.605865 
L 275.075747 163.284009 
L 275.136888 163.02497 
L 275.198028 163.081287 
L 275.503729 157.95672 
L 275.564869 155.298703 
L 275.626009 156.379938 
L 275.80943 154.667991 
L 275.87057 156.210986 
L 275.93171 150.579597 
L 275.992851 152.911 
L 276.053991 154.645461 
L 276.237411 156.62772 
L 276.420832 146.885407 
L 276.481972 146.536264 
L 276.665393 147.133189 
L 276.726533 150.106562 
L 276.787673 149.577211 
L 276.909954 143.990882 
L 277.093374 144.418856 
L 277.154515 144.092242 
L 277.582496 134.811708 
L 277.704777 139.891232 
L 277.765917 139.215458 
L 278.071618 140.645836 
L 278.132758 140.003849 
L 278.193898 137.965289 
L 278.377319 141.569374 
L 278.499599 147.583693 
L 278.8053 149.239324 
L 278.988721 147.358441 
L 279.049861 144.936951 
L 279.233282 144.542747 
L 279.294422 141.321592 
L 279.355562 144.20486 
L 279.416703 138.528428 
L 279.477843 139.192927 
L 279.722404 135.521268 
L 279.905824 141.997366 
L 280.089245 142.200088 
L 280.272666 136.163238 
L 280.517227 138.764954 
L 280.578367 135.149594 
L 280.639507 135.825368 
L 280.761787 137.875184 
L 280.945208 134.530138 
L 281.128629 130.070087 
L 281.37319 135.149594 
L 281.43433 134.586456 
L 281.49547 135.836625 
L 281.55661 132.851996 
L 281.61775 133.809322 
L 281.862311 129.799775 
L 282.045732 139.789853 
L 282.229153 139.665963 
L 282.412573 145.139673 
L 282.473713 141.727052 
L 282.657134 144.858103 
L 282.779414 140.612049 
L 282.840555 140.792241 
L 282.901695 140.916131 
L 283.085116 141.01751 
L 283.207396 137.143111 
L 283.329676 140.657092 
L 283.513097 139.485771 
L 283.635378 136.771437 
L 283.696518 136.793968 
L 283.757658 138.483385 
L 284.002219 140.02638 
L 284.124499 143.934565 
L 284.185639 141.850944 
L 284.36906 140.184057 
L 284.491341 144.632851 
L 284.552481 143.360152 
L 284.613621 143.168687 
L 284.797042 144.824316 
L 284.858182 147.054359 
L 284.919322 144.328752 
L 284.980462 145.511347 
L 285.041602 146.581307 
L 285.225023 146.479947 
L 285.286163 150.849909 
L 285.347304 149.532166 
L 285.408444 150.996331 
L 285.469584 150.24171 
L 285.653005 144.587808 
L 285.714145 145.691556 
L 285.775285 146.389842 
L 285.836425 146.018168 
L 285.897565 145.837976 
L 286.142126 150.24171 
L 286.325547 146.671412 
L 286.508968 145.556407 
L 286.570108 148.146832 
L 286.631248 146.536264 
L 286.753529 142.481657 
L 286.998089 146.130803 
L 287.05923 143.596678 
L 287.18151 150.714761 
L 287.364931 153.113722 
L 287.426071 150.816123 
L 287.548351 154.194956 
L 287.792912 154.769351 
L 287.854052 155.546486 
L 287.915193 153.620543 
L 287.976333 154.803139 
L 288.037473 157.359794 
L 288.220894 155.197343 
L 288.282034 156.58266 
L 288.343174 155.141025 
L 288.404314 156.695294 
L 288.465455 156.019521 
L 288.710015 158.778898 
L 288.771156 157.67515 
L 288.893436 166.246125 
L 289.137997 168.645102 
L 289.260277 167.552611 
L 289.504838 176.101056 
L 289.565978 173.13894 
L 289.627119 173.814713 
L 289.749399 173.16147 
L 289.99396 168.014373 
L 290.0551 168.994245 
L 290.177381 176.844403 
L 290.360801 174.850887 
L 290.421941 175.267604 
L 290.544222 177.959408 
L 290.849923 170.965232 
L 290.972203 174.986034 
L 291.033344 171.381949 
L 291.277904 174.006178 
L 291.339045 173.904818 
L 291.461325 177.035868 
L 291.644746 179.355998 
L 291.705886 178.691498 
L 291.767026 180.504806 
L 291.889307 176.337581 
L 292.133867 173.555674 
L 292.317288 176.461456 
L 292.500709 177.103442 
L 292.622989 179.367255 
L 292.684129 178.286037 
L 292.74527 178.725284 
L 292.92869 180.673741 
L 292.989831 185.009909 
L 293.050971 182.453262 
L 293.173251 174.53553 
L 293.356672 175.50413 
L 293.478952 172.553288 
L 293.601233 175.58296 
L 293.784653 172.406866 
L 293.968074 179.254637 
L 294.273775 190.88908 
L 294.334915 191.936518 
L 294.396055 199.415003 
L 294.457196 191.666214 
L 294.762897 194.436856 
L 294.885177 200.620119 
L 295.068598 198.029686 
L 295.129738 207.208851 
L 295.190878 206.217721 
L 295.252018 197.646747 
L 295.313159 204.269266 
L 295.61886 196.64436 
L 295.68 196.475417 
L 295.74114 204.325574 
L 295.985701 209.855603 
L 296.107982 205.958683 
L 296.352542 213.099279 
L 296.597103 203.7737 
L 296.902804 210.824201 
L 297.025085 222.053193 
L 297.208505 218.280156 
L 297.269646 212.63751 
L 297.330786 214.011562 
L 297.636487 221.039541 
L 297.697627 227.143964 
L 297.881048 216.162756 
L 298.125609 220.115993 
L 298.186749 216.016343 
L 298.247889 216.388008 
L 298.49245 219.046025 
L 298.737011 212.029319 
L 298.981572 210.553889 
L 299.042712 211.84911 
L 299.164992 197.838221 
L 299.348413 199.583946 
L 299.409553 210.058333 
L 299.470693 206.724551 
L 299.531834 204.94503 
L 299.592974 206.859699 
L 299.776394 208.413968 
L 299.837535 206.769595 
L 300.020955 212.986654 
L 300.204376 213.403379 
L 300.448937 222.46991 
L 300.876918 227.436799 
L 301.060339 222.188341 
L 301.121479 224.857623 
L 301.48832 214.484604 
L 301.549461 214.394501 
L 301.610601 213.684948 
L 301.671741 209.844338 
L 301.732881 212.727605 
L 301.977442 214.901323 
L 302.160863 222.199606 
L 302.405424 225.454548 
L 302.588844 219.845681 
L 302.833405 221.309845 
L 303.016826 224.654892 
L 303.261387 221.906772 
L 303.322527 219.92452 
L 303.383667 220.803024 
L 303.628228 221.32111 
L 303.811649 213.358327 
L 303.872789 216.241595 
L 304.17849 215.115318 
L 304.30077 205.744686 
L 304.484191 204.426944 
L 304.606471 206.972326 
L 304.667612 204.291787 
L 304.728752 205.237865 
L 305.095593 197.838221 
L 305.156733 196.407842 
L 305.523575 194.628322 
L 305.584715 197.63549 
L 305.768136 196.126273 
L 305.951556 199.966885 
L 306.012696 196.576786 
L 306.318398 195.720813 
L 306.379538 197.522855 
L 306.440678 195.608186 
L 306.624099 197.63549 
L 306.746379 195.394191 
L 306.807519 196.002382 
L 306.868659 189.875428 
L 307.05208 191.913997 
L 307.174361 197.477803 
L 307.235501 194.020131 
L 307.296641 194.144022 
L 307.480062 194.053926 
L 307.541202 193.265526 
L 307.602342 186.372712 
L 307.663482 189.51502 
L 307.724622 187.972025 
L 307.908043 188.16349 
L 307.969183 187.532777 
L 308.030324 183.939948 
L 308.091464 186.068612 
L 308.397165 181.788762 
L 308.580586 186.181239 
L 308.764006 186.800695 
L 308.825146 186.597964 
L 308.947427 192.08294 
L 309.191988 195.901021 
L 309.253128 194.526961 
L 309.314268 195.551869 
L 309.375408 195.326617 
L 309.436549 191.474749 
L 309.619969 194.707161 
L 309.681109 192.173036 
L 309.86453 198.322511 
L 310.047951 202.140601 
L 310.109091 200.969271 
L 310.170231 196.970981 
L 310.231371 198.863129 
L 310.292512 197.962103 
L 310.475932 198.007156 
L 310.537072 197.275082 
L 310.659353 198.243673 
L 310.720493 201.847766 
L 311.026194 205.767209 
L 311.087334 204.348104 
L 311.148475 210.137172 
L 311.759877 219.845681 
L 311.943297 215.881186 
L 312.004438 217.88596 
L 312.248998 217.356608 
L 312.310139 217.728282 
L 312.432419 220.667867 
L 312.61584 222.143289 
L 312.67698 224.170592 
L 312.79926 217.773334 
L 312.860401 221.163433 
L 313.043821 218.482886 
L 313.104961 221.974345 
L 313.166102 221.512575 
L 313.227242 221.940559 
L 313.471803 219.350124 
L 313.532943 220.40882 
L 313.594083 217.356608 
L 313.655223 217.593125 
L 313.960924 223.573666 
L 314.022065 223.911545 
L 314.083205 222.897902 
L 314.144345 218.482886 
L 314.327766 217.863438 
L 314.511186 216.005078 
L 314.572327 220.02589 
L 314.816888 219.778107 
L 314.878028 220.881863 
L 314.939168 220.363777 
L 315.000308 219.710533 
L 315.244869 213.718735 
L 315.42829 220.217355 
L 315.61171 223.066837 
L 316.039692 212.693818 
L 316.100832 213.696205 
L 316.161972 212.55867 
L 316.223112 215.678456 
L 316.284253 214.721123 
L 316.712234 210.19348 
L 316.895655 211.117028 
L 316.956795 209.314985 
L 317.017935 210.216011 
L 317.079076 210.317372 
L 317.140216 210.103385 
L 317.323636 210.249798 
L 317.384777 207.580517 
L 317.445917 208.616698 
L 317.507057 208.819429 
L 317.568197 209.979493 
L 317.751618 208.222494 
L 317.812758 208.965842 
L 317.873898 207.95219 
L 317.935039 208.650485 
L 317.996179 207.895872 
L 318.24074 207.738195 
L 318.36302 202.039231 
L 318.42416 198.446403 
L 318.607581 195.901021 
L 318.668721 196.835826 
L 318.852142 190.044372 
L 319.096703 192.105462 
L 319.157843 191.046758 
L 319.218983 194.121501 
L 319.280123 193.310578 
L 319.463544 195.585665 
L 319.524684 194.695905 
L 319.585824 199.099646 
L 319.646965 198.513985 
L 319.891525 195.213991 
L 320.136086 190.528671 
L 320.319507 193.400683 
L 320.564068 189.638911 
L 320.747488 189.548815 
L 320.808629 186.699326 
L 320.869769 187.724242 
L 320.992049 186.440286 
L 321.420031 192.319457 
L 321.725732 191.767576 
L 321.848012 185.4379 
L 322.031433 187.870656 
L 322.092573 186.586699 
L 322.214854 192.353245 
L 322.275994 197.421495 
L 322.459414 195.078835 
L 322.520555 196.092487 
L 322.581695 195.236512 
L 322.642835 197.646747 
L 322.703975 196.497947 
L 323.131957 192.961436 
L 323.315378 192.409553 
L 323.376518 190.900345 
L 323.437658 194.560748 
L 323.498798 191.463484 
L 323.559938 193.761092 
L 323.743359 193.243005 
L 323.804499 193.580883 
L 323.865639 194.819795 
L 323.92678 194.594535 
L 323.98792 193.975087 
L 324.171341 195.281565 
L 324.293621 192.26314 
L 324.354761 193.930035 
L 324.599322 191.249489 
L 324.721602 181.698658 
L 324.782743 183.185344 
L 324.843883 183.996266 
L 325.149584 182.273053 
L 325.210724 182.960083 
L 325.271864 185.009909 
L 325.455285 185.359061 
L 325.638706 178.286037 
L 325.699846 179.153276 
L 325.883267 175.560447 
L 325.944407 176.022208 
L 326.005547 176.371368 
L 326.127827 172.294231 
L 326.311248 172.102767 
L 326.372388 173.949861 
L 326.555809 167.417446 
L 326.86151 162.428044 
L 326.92265 163.306539 
L 326.98379 164.230095 
L 327.167211 163.948525 
L 327.228351 164.320182 
L 327.411772 159.35331 
L 327.595193 159.646136 
L 327.656333 159.533502 
L 327.839753 156.796655 
L 328.023174 156.075838 
L 328.267735 150.466979 
L 328.512296 151.266627 
L 328.573436 148.417146 
L 328.695716 155.005878 
L 328.879137 151.829766 
L 329.001418 160.074128 
L 329.062558 156.154669 
L 329.123698 159.792558 
L 329.307119 157.663893 
L 329.490539 152.381648 
L 329.55168 151.041375 
L 329.857381 155.388807 
L 329.918521 155.118495 
L 329.979661 156.154669 
L 330.224222 154.735564 
L 330.407643 161.605865 
L 330.652203 159.601093 
L 330.713344 162.315409 
L 330.774484 159.792558 
L 331.019045 161.425658 
L 331.080185 163.00244 
L 331.141325 161.324296 
L 331.263606 168.250898 
L 331.569307 160.716097 
L 331.630447 158.283332 
L 331.691587 159.477202 
L 331.875008 159.082998 
L 331.936148 159.781284 
L 332.119569 169.715062 
L 332.302989 170.052949 
L 332.54755 163.869678 
L 332.730971 163.824635 
L 332.853251 162.371726 
L 332.914391 165.919512 
L 332.975532 162.957395 
L 333.158952 162.270366 
L 333.342373 157.562516 
L 333.403513 159.28572 
L 333.586934 160.29938 
L 334.014915 149.137962 
L 334.137196 145.725342 
L 334.259476 151.401775 
L 334.504037 145.376199 
L 334.565177 146.705199 
L 334.687458 141.963578 
L 334.870878 144.655381 
L 334.932018 142.515443 
L 335.054299 148.327041 
L 335.115439 145.319882 
L 335.29886 138.866315 
L 335.36 140.386779 
L 335.42114 140.803513 
L 335.48228 145.060842 
L 335.543421 139.947532 
L 335.726841 141.817157 
L 335.787982 141.738326 
L 335.849122 141.727052 
L 335.971402 149.791206 
L 336.154823 155.433852 
L 336.215963 154.915773 
L 336.277103 152.62943 
L 336.338243 154.26253 
L 336.399384 154.645461 
L 336.582804 154.544099 
L 336.705085 158.103141 
L 337.010786 152.516796 
L 337.071926 152.055018 
L 337.499908 141.997366 
L 337.561048 146.592581 
L 337.622188 144.632851 
L 337.683328 142.188831 
L 337.866749 141.963578 
L 337.989029 138.809997 
L 338.050169 141.591905 
L 338.11131 140.724666 
L 338.29473 141.197701 
L 338.417011 143.562891 
L 338.539291 138.719893 
L 338.722712 138.213071 
L 338.783852 137.323303 
L 338.967273 143.709312 
L 339.150693 144.463916 
L 339.211834 144.171074 
L 339.272974 142.076196 
L 339.395254 146.097016 
L 339.578675 146.220907 
L 339.762096 148.878923 
L 339.823236 146.874151 
L 340.006656 148.20315 
L 340.190077 155.005878 
L 340.251217 153.429079 
L 340.556918 152.314074 
L 340.679199 149.813736 
L 340.862619 149.329427 
L 340.9849 140.859831 
L 341.04604 140.961192 
L 341.10718 141.47927 
L 341.351741 138.314433 
L 341.412881 139.091567 
L 341.474022 135.498738 
L 341.535162 137.40215 
L 341.718582 137.199428 
L 341.963143 145.635238 
L 342.146564 148.980285 
L 342.207704 147.696328 
L 342.391125 149.701101 
L 342.696826 153.665604 
L 342.819106 148.113046 
L 343.002527 148.417146 
L 343.063667 146.626367 
L 343.124807 148.011685 
L 343.185948 150.376875 
L 343.247088 147.718859 
L 343.430508 147.910324 
L 343.491649 145.691556 
L 343.552789 148.642398 
L 343.613929 147.031829 
L 343.98077 143.529103 
L 344.103051 145.252307 
L 344.286471 143.686782 
L 344.347612 144.531491 
L 344.469892 141.862218 
L 344.531032 145.973125 
L 344.775593 142.920904 
L 344.836733 144.407599 
L 344.897874 142.414083 
L 344.959014 142.830817 
L 345.203575 139.801127 
L 345.264715 138.79874 
L 345.325855 140.499414 
L 345.386995 138.787467 
L 345.631556 135.870411 
L 345.692696 137.345833 
L 345.814977 137.526042 
L 345.998398 135.284742 
L 346.120678 138.179284 
L 346.242958 137.875184 
L 346.426379 137.40215 
L 346.487519 137.548572 
L 346.548659 135.701476 
L 346.6098 138.990206 
L 346.67094 136.737651 
L 346.854361 135.926728 
L 347.098921 129.901135 
L 347.343482 127.637324 
L 347.465763 127.716154 
L 347.526903 127.952681 
L 347.710324 127.828789 
L 347.771464 128.144145 
L 347.893744 127.321967 
L 347.954884 127.997724 
L 348.199445 123.064638 
L 348.382866 126.815146 
L 348.566287 125.801485 
L 348.627427 128.099101 
L 348.688567 127.26565 
L 348.749707 125.294664 
L 348.810847 129.506948 
L 349.055408 129.405571 
L 349.54453 141.941048 
L 349.60567 140.409309 
L 349.66681 142.132513 
L 349.850231 140.612049 
L 349.972512 145.747873 
L 350.033652 145.105886 
L 350.094792 143.281321 
L 350.278213 145.263565 
L 350.339353 145.049568 
L 350.400493 141.344122 
L 350.461633 143.540361 
L 350.522773 142.661865 
L 350.767334 141.862218 
L 350.828475 142.008622 
L 350.889615 142.481657 
L 350.950755 141.569374 
L 351.134176 141.817157 
L 351.195316 139.530814 
L 351.317596 143.416469 
L 351.378737 140.994978 
L 351.562157 141.659479 
L 351.806718 130.667013 
L 351.990139 131.094988 
L 352.051279 130.689527 
L 352.2347 138.641062 
L 352.41812 139.226714 
L 352.662681 135.498738 
L 352.968382 141.07381 
L 353.029522 144.385069 
L 353.090663 143.923291 
L 353.274083 142.785757 
L 353.457504 138.179284 
L 353.518644 138.517171 
L 353.702065 143.089856 
L 353.824345 149.667314 
L 353.885485 148.20315 
L 353.946626 152.663217 
L 354.191186 152.043761 
L 354.252327 150.534554 
L 354.313467 145.252307 
L 354.558028 149.228067 
L 354.619168 149.070389 
L 354.741448 145.241051 
L 354.986009 147.989155 
L 355.047149 149.757419 
L 355.23057 145.894277 
L 355.536271 151.581983 
L 355.597411 151.187796 
L 355.658552 149.14922 
L 355.841972 148.766288 
L 355.964253 146.18712 
L 356.086533 151.356731 
L 356.269954 150.635914 
L 356.514515 146.513733 
L 356.759076 145.150947 
L 356.820216 145.387455 
L 356.881356 145.128417 
L 356.942496 145.939338 
L 357.125917 146.660155 
L 357.187057 146.581307 
L 357.370478 143.146174 
L 357.553898 139.609662 
L 357.615039 139.812383 
L 357.676179 140.679623 
L 357.798459 139.463241 
L 357.98188 140.195314 
L 358.04302 140.060167 
L 358.226441 134.789178 
L 358.409861 134.946872 
L 358.532142 137.604872 
L 358.593282 138.528428 
L 358.654422 138.246858 
L 358.837843 138.67485 
L 358.898983 139.260502 
L 359.021263 137.593615 
L 359.265824 136.309659 
L 359.449245 143.912035 
L 359.510385 143.011009 
L 359.938367 134.687816 
L 360.121787 134.958129 
L 360.305208 127.490902 
L 360.366348 128.493288 
L 360.549769 129.518206 
L 360.610909 128.200463 
L 360.672049 128.436971 
L 360.97775 134.507608 
L 361.038891 133.68543 
L 361.100031 137.233215 
L 361.161171 134.811708 
L 361.222311 135.881668 
L 361.405732 132.052331 
L 361.466872 133.144821 
L 361.528012 132.446535 
L 361.650293 131.95097 
L 361.833713 131.489192 
L 361.894854 129.619566 
L 361.955994 131.466662 
L 362.017134 130.374171 
L 362.322835 125.61002 
L 362.383975 125.733911 
L 362.445116 127.209333 
L 362.506256 125.778955 
L 362.750817 124.720268 
L 362.811957 123.346208 
L 362.873097 123.965664 
L 362.934237 124.359851 
L 363.117658 124.359851 
L 363.178798 126.218219 
L 363.239938 125.767698 
L 363.301079 125.272134 
L 363.545639 120.609344 
L 363.7902 114.583768 
L 364.034761 118.739719 
L 364.095901 117.962601 
L 364.157042 115.484776 
L 364.218182 118.536997 
L 364.401602 120.384092 
L 364.462743 118.919927 
L 364.585023 123.211043 
L 364.646163 118.694675 
L 364.829584 113.671469 
L 365.074145 122.118553 
L 365.257565 122.760539 
L 365.379846 127.840046 
L 365.440986 132.874509 
L 365.502126 128.61718 
L 365.685547 128.144145 
L 365.807827 123.26736 
L 365.868968 125.238347 
L 366.235809 117.027789 
L 366.296949 117.714819 
L 366.358089 113.480004 
L 366.66379 110.844517 
L 366.724931 112.196047 
L 366.786071 111.216191 
L 366.969492 112.049643 
L 367.030632 110.585478 
L 367.214052 112.218578 
L 367.397473 113.164647 
L 367.458613 113.05203 
L 367.519753 112.950651 
L 367.580894 115.079316 
L 367.642034 110.912092 
L 368.070015 114.42609 
L 368.253436 114.876594 
L 368.681418 106.485828 
L 368.742558 108.468071 
L 368.803698 106.452041 
L 368.925978 110.698096 
L 369.109399 112.353726 
L 369.170539 119.426749 
L 369.23168 119.257814 
L 369.35396 110.078656 
L 369.598521 106.60972 
L 369.659661 105.179341 
L 370.026502 106.429511 
L 370.087643 105.134298 
L 370.393344 109.177631 
L 370.515624 116.171807 
L 370.637904 112.08343 
L 370.882465 116.475906 
L 371.065886 127.569749 
L 371.310447 126.623664 
L 371.371587 130.025027 
L 371.493867 122.276247 
L 371.738428 126.995338 
L 371.799569 126.443472 
L 371.860709 131.568039 
L 371.921849 130.498062 
L 372.10527 131.782018 
L 372.349831 121.577944 
L 372.533251 121.983405 
L 372.777812 112.77046 
L 373.022373 113.998099 
L 373.083513 113.142134 
L 373.144653 115.237011 
L 373.205794 114.48239 
L 373.389214 111.790587 
L 373.450354 112.590251 
L 373.511495 110.878305 
L 373.572635 112.049643 
L 373.633775 111.283766 
L 373.817196 112.624039 
L 373.878336 111.835648 
L 373.939476 112.229835 
L 374.000616 112.477617 
L 374.061757 115.349629 
L 374.245177 115.664985 
L 374.367458 120.170096 
L 374.489738 113.896738 
L 374.734299 111.531548 
L 374.795439 112.995713 
L 374.856579 110.641795 
L 374.91772 112.094687 
L 375.10114 108.941106 
L 375.223421 111.407656 
L 375.284561 116.543481 
L 375.345701 115.788877 
L 375.590262 112.241109 
L 375.651402 114.944169 
L 375.712542 110.675583 
L 375.957103 112.421317 
L 376.079384 109.200162 
L 376.140524 109.402883 
L 376.201664 107.386854 
L 376.385085 106.632233 
L 376.568505 98.320314 
L 376.629646 103.794025 
L 376.813066 102.408691 
L 376.874206 102.521326 
L 376.935347 103.715177 
L 376.996487 103.433607 
L 377.057627 102.487539 
L 377.241048 102.757851 
L 377.363328 106.102898 
L 377.485609 103.106995 
L 377.669029 103.32099 
L 377.730169 103.264672 
L 377.85245 105.573545 
L 377.91359 102.374904 
L 378.158151 100.820652 
L 378.219291 100.831909 
L 378.341572 98.489249 
L 378.524992 98.376631 
L 378.647273 95.538407 
L 378.708413 96.180376 
L 378.769553 96.112802 
L 379.014114 92.891647 
L 379.075254 93.601208 
L 379.197535 92.091999 
L 379.442096 93.646251 
L 379.564376 92.801543 
L 379.625516 89.310092 
L 379.808937 88.80327 
L 379.931217 90.413839 
L 380.053498 86.179041 
L 380.236918 89.096097 
L 380.481479 85.458224 
L 380.6649 84.399519 
L 380.72604 82.304643 
L 380.78718 83.115564 
L 381.154022 90.222375 
L 381.215162 88.262644 
L 381.276302 90.166057 
L 381.520863 93.803929 
L 381.582003 92.373568 
L 381.643143 94.265707 
L 381.704284 93.330894 
L 382.009985 90.087226 
L 382.071125 86.111467 
L 382.132265 88.532958 
L 382.193405 89.242517 
L 382.376826 87.080066 
L 382.499106 88.071179 
L 382.560247 85.976302 
L 382.804807 95.22305 
L 382.865948 93.319638 
L 382.927088 93.961608 
L 382.988228 94.569807 
L 383.049368 93.026812 
L 383.293929 95.718615 
L 383.355069 93.544891 
L 383.41621 94.603594 
L 383.47735 95.391985 
L 383.66077 96.19165 
L 383.721911 97.419288 
L 383.783051 101.473895 
L 383.844191 100.55034 
L 384.088752 100.223726 
L 384.149892 98.973557 
L 384.333313 108.501857 
L 384.516733 125.621276 
L 384.577874 117.253041 
L 384.639014 120.46294 
L 384.761294 115.338373 
L 384.944715 115.225738 
L 385.005855 119.111393 
L 385.066995 118.401849 
L 385.128136 118.255428 
L 385.189276 121.341434 
L 385.433837 119.483066 
L 385.494977 113.13086 
L 385.556117 117.748606 
L 385.617257 117.771136 
L 385.800678 117.579654 
L 385.861818 118.50321 
L 385.984099 114.369773 
L 386.045239 120.282731 
L 386.228659 120.170096 
L 386.41208 126.522302 
L 386.47322 124.787842 
L 386.656641 125.621276 
L 386.717781 131.759504 
L 386.778921 129.99124 
L 386.840062 130.193979 
L 386.901202 132.739361 
L 387.206903 121.859513 
L 387.268043 122.557817 
L 387.329183 122.805582 
L 387.512604 122.985791 
L 387.573744 124.371108 
L 387.634884 123.064638 
L 387.696025 127.569749 
L 387.757165 118.12028 
L 387.940586 119.967374 
L 388.062866 116.881368 
L 388.124006 123.627777 
L 388.185146 118.075219 
L 388.368567 115.890237 
L 388.429707 117.12915 
L 388.490847 116.329485 
L 388.551988 111.497761 
L 388.613128 112.894351 
L 388.796549 114.516177 
L 388.979969 109.763301 
L 389.041109 105.866372 
L 389.22453 102.442495 
L 389.28567 105.213129 
L 389.34681 103.287204 
L 389.652512 112.635296 
L 389.835932 108.32165 
L 390.080493 111.159874 
L 390.141633 114.854064 
L 390.202773 113.761574 
L 390.325054 113.570107 
L 390.569615 111.249979 
L 390.630755 108.907319 
L 390.753035 117.568397 
L 390.936456 112.624039 
L 391.119877 122.771796 
L 391.364438 127.637324 
L 391.547858 116.13802 
L 391.608998 122.535287 
L 391.792419 126.702511 
L 391.97584 121.330161 
L 392.220401 121.8933 
L 392.342681 120.192627 
L 392.648382 128.628454 
L 392.709522 127.592263 
L 392.831803 138.900102 
L 392.892943 138.809997 
L 393.076364 140.780983 
L 393.137504 138.65232 
L 393.198644 139.13661 
L 393.320924 150.129092 
L 393.565485 149.160492 
L 393.687766 153.203826 
L 393.932327 150.466979 
L 393.993467 156.413725 
L 394.054607 153.631818 
L 394.360308 145.950594 
L 394.543729 155.084708 
L 394.604869 149.14922 
L 394.78829 153.361504 
L 394.97171 165.097316 
L 395.032851 164.714386 
L 395.399692 156.267303 
L 395.460832 161.053984 
L 395.644253 158.576176 
L 395.705393 159.927706 
L 395.766533 165.46899 
L 395.827673 162.180261 
L 395.888814 157.990507 
L 396.072234 157.95672 
L 396.133374 156.60519 
L 396.316795 150.500766 
L 396.500216 150.917484 
L 396.683636 157.213372 
L 396.744777 153.98096 
L 396.928197 153.552969 
L 397.111618 157.235903 
L 397.172758 153.2714 
L 397.356179 149.520893 
L 397.539599 154.97209 
L 397.78416 154.138639 
L 397.8453 154.442739 
L 397.967581 150.714761 
L 398.028721 150.399388 
L 398.212142 146.44616 
L 398.456703 155.343747 
L 398.640123 156.34615 
L 398.762404 150.320557 
L 398.884684 145.027055 
L 399.068105 149.104175 
L 399.129245 148.946497 
L 399.251525 139.035249 
L 399.312666 139.891232 
L 399.496086 139.654706 
L 399.557227 140.352992 
L 399.618367 139.846171 
L 399.679507 140.386779 
L 399.740647 142.132513 
L 399.924068 140.690879 
L 400.168629 148.450933 
L 400.352049 148.439676 
L 400.41319 147.910324 
L 400.47433 144.880633 
L 400.53547 146.051956 
L 400.59661 148.800076 
L 400.841171 152.336588 
L 400.902311 152.257756 
L 400.963451 147.899067 
L 401.024592 151.187796 
L 401.208012 152.674475 
L 401.391433 145.105886 
L 401.452573 147.876537 
L 401.697134 145.961868 
L 401.758274 148.777562 
L 401.819414 146.254695 
L 401.880555 151.075161 
L 402.063975 150.635914 
L 402.125116 149.565954 
L 402.308536 156.154669 
L 402.614237 160.873775 
L 402.675378 163.306539 
L 402.736518 161.470701 
L 402.981079 159.364567 
L 403.042219 159.916449 
L 403.103359 157.044437 
L 403.164499 165.525308 
L 403.34792 168.859081 
L 403.592481 159.375824 
L 403.837042 161.36934 
L 403.898182 165.626669 
L 403.959322 162.180261 
L 404.020462 158.395967 
L 404.203883 155.996991 
L 404.448444 143.191217 
L 404.693005 144.137287 
L 404.754145 143.540361 
L 405.059846 146.817834 
L 405.182126 145.060842 
L 405.304407 146.964254 
L 405.487827 147.752645 
L 405.610108 150.410662 
L 405.915809 144.047182 
L 406.038089 142.526717 
L 406.09923 143.934565 
L 406.16037 143.405213 
L 406.404931 140.792241 
L 406.466071 139.72228 
L 406.527211 140.398053 
L 406.588351 140.375522 
L 406.771772 139.654706 
L 406.832912 138.528428 
L 406.955193 140.690879 
L 407.016333 138.79874 
L 407.199753 138.978932 
L 407.260894 139.406923 
L 407.383174 135.149594 
L 407.444314 136.816481 
L 407.750015 136.613759 
L 407.872296 134.214782 
L 408.055716 138.517171 
L 408.116857 136.793968 
L 408.239137 139.902488 
L 408.300277 137.571085 
L 408.483698 138.145498 
L 408.667119 136.895328 
L 408.728259 137.683719 
L 408.97282 145.601451 
L 409.03396 142.650609 
L 409.0951 142.605548 
L 409.15624 146.46869 
L 409.339661 145.849233 
L 409.461941 142.673122 
L 409.584222 137.965289 
L 409.767643 134.563926 
L 409.828783 135.329803 
L 409.951063 137.852654 
L 410.012203 133.347543 
L 410.195624 134.586456 
L 410.379045 130.644483 
L 410.440185 131.95097 
L 410.623606 128.955067 
L 410.684746 129.473162 
L 410.745886 129.754732 
L 410.868166 125.564976 
L 411.051587 126.499789 
L 411.112727 125.013094 
L 411.296148 128.020254 
L 411.540709 123.762925 
L 411.96869 93.972881 
L 412.029831 93.083112 
L 412.090971 94.310767 
L 412.152111 90.244905 
L 412.335532 88.454109 
L 412.396672 88.566744 
L 412.457812 88.409066 
L 412.580092 88.566744 
L 412.824653 90.10974 
L 413.008074 72.078038 
L 413.191495 72.618647 
L 413.436055 55.623119 
L 413.619476 55.74701 
L 413.741757 61.186934 
L 413.864037 53.156568 
L 414.047458 58.179775 
L 414.169738 53.787281 
L 414.230878 54.924832 
L 414.292018 56.828245 
L 414.536579 54.113911 
L 414.59772 52.154182 
L 414.72 57.988309 
L 414.72 57.988309 
" style="fill:none;stroke:#e24a33;stroke-linecap:square;stroke-width:1.5;"/>
   </g>
   <g id="patch_3">
    <path d="M 57.6 276.48 
L 57.6 41.472 
" style="fill:none;stroke:#ffffff;stroke-linecap:square;stroke-linejoin:miter;"/>
   </g>
   <g id="patch_4">
    <path d="M 414.72 276.48 
L 414.72 41.472 
" style="fill:none;stroke:#ffffff;stroke-linecap:square;stroke-linejoin:miter;"/>
   </g>
   <g id="patch_5">
    <path d="M 57.6 276.48 
L 414.72 276.48 
" style="fill:none;stroke:#ffffff;stroke-linecap:square;stroke-linejoin:miter;"/>
   </g>
   <g id="patch_6">
    <path d="M 57.6 41.472 
L 414.72 41.472 
" style="fill:none;stroke:#ffffff;stroke-linecap:square;stroke-linejoin:miter;"/>
   </g>
  </g>
 </g>
 <defs>
  <clipPath id="p6ae516721f">
   <rect height="235.008" width="357.12" x="57.6" y="41.472"/>
  </clipPath>
 </defs>
</svg>
