<?xml version="1.0" encoding="utf-8" standalone="no"?>
<!DOCTYPE svg PUBLIC "-//W3C//DTD SVG 1.1//EN"
  "http://www.w3.org/Graphics/SVG/1.1/DTD/svg11.dtd">
<!-- Created with matplotlib (http://matplotlib.org/) -->
<svg height="345pt" version="1.1" viewBox="0 0 460 345" width="460pt" xmlns="http://www.w3.org/2000/svg" xmlns:xlink="http://www.w3.org/1999/xlink">
 <defs>
  <style type="text/css">
*{stroke-linecap:butt;stroke-linejoin:round;}
  </style>
 </defs>
 <g id="figure_1">
  <g id="patch_1">
   <path d="M 0 345.6 
L 460.8 345.6 
L 460.8 0 
L 0 0 
z
" style="fill:#ffffff;"/>
  </g>
  <g id="axes_1">
   <g id="patch_2">
    <path d="M 57.6 276.48 
L 414.72 276.48 
L 414.72 41.472 
L 57.6 41.472 
z
" style="fill:#e5e5e5;"/>
   </g>
   <g id="matplotlib.axis_1">
    <g id="xtick_1">
     <g id="line2d_1">
      <path clip-path="url(#pad4fcb111e)" d="M 85.556364 276.48 
L 85.556364 41.472 
" style="fill:none;stroke:#ffffff;stroke-linecap:square;stroke-width:0.8;"/>
     </g>
     <g id="line2d_2">
      <defs>
       <path d="M 0 0 
L 0 3.5 
" id="m3180e7db56" style="stroke:#555555;stroke-width:0.8;"/>
      </defs>
      <g>
       <use style="fill:#555555;stroke:#555555;stroke-width:0.8;" x="85.556364" xlink:href="#m3180e7db56" y="276.48"/>
      </g>
     </g>
     <g id="text_1">
      <!-- 2011 -->
      <defs>
       <path d="M 19.1875 8.296875 
L 53.609375 8.296875 
L 53.609375 0 
L 7.328125 0 
L 7.328125 8.296875 
Q 12.9375 14.109375 22.625 23.890625 
Q 32.328125 33.6875 34.8125 36.53125 
Q 39.546875 41.84375 41.421875 45.53125 
Q 43.3125 49.21875 43.3125 52.78125 
Q 43.3125 58.59375 39.234375 62.25 
Q 35.15625 65.921875 28.609375 65.921875 
Q 23.96875 65.921875 18.8125 64.3125 
Q 13.671875 62.703125 7.8125 59.421875 
L 7.8125 69.390625 
Q 13.765625 71.78125 18.9375 73 
Q 24.125 74.21875 28.421875 74.21875 
Q 39.75 74.21875 46.484375 68.546875 
Q 53.21875 62.890625 53.21875 53.421875 
Q 53.21875 48.921875 51.53125 44.890625 
Q 49.859375 40.875 45.40625 35.40625 
Q 44.1875 33.984375 37.640625 27.21875 
Q 31.109375 20.453125 19.1875 8.296875 
z
" id="DejaVuSans-32"/>
       <path d="M 31.78125 66.40625 
Q 24.171875 66.40625 20.328125 58.90625 
Q 16.5 51.421875 16.5 36.375 
Q 16.5 21.390625 20.328125 13.890625 
Q 24.171875 6.390625 31.78125 6.390625 
Q 39.453125 6.390625 43.28125 13.890625 
Q 47.125 21.390625 47.125 36.375 
Q 47.125 51.421875 43.28125 58.90625 
Q 39.453125 66.40625 31.78125 66.40625 
z
M 31.78125 74.21875 
Q 44.046875 74.21875 50.515625 64.515625 
Q 56.984375 54.828125 56.984375 36.375 
Q 56.984375 17.96875 50.515625 8.265625 
Q 44.046875 -1.421875 31.78125 -1.421875 
Q 19.53125 -1.421875 13.0625 8.265625 
Q 6.59375 17.96875 6.59375 36.375 
Q 6.59375 54.828125 13.0625 64.515625 
Q 19.53125 74.21875 31.78125 74.21875 
z
" id="DejaVuSans-30"/>
       <path d="M 12.40625 8.296875 
L 28.515625 8.296875 
L 28.515625 63.921875 
L 10.984375 60.40625 
L 10.984375 69.390625 
L 28.421875 72.90625 
L 38.28125 72.90625 
L 38.28125 8.296875 
L 54.390625 8.296875 
L 54.390625 0 
L 12.40625 0 
z
" id="DejaVuSans-31"/>
      </defs>
      <g style="fill:#555555;" transform="translate(62.476173 302.78544)rotate(-30)scale(0.1 -0.1)">
       <use xlink:href="#DejaVuSans-32"/>
       <use x="63.623047" xlink:href="#DejaVuSans-30"/>
       <use x="127.246094" xlink:href="#DejaVuSans-31"/>
       <use x="190.869141" xlink:href="#DejaVuSans-31"/>
      </g>
     </g>
    </g>
    <g id="xtick_2">
     <g id="line2d_3">
      <path clip-path="url(#pad4fcb111e)" d="M 140.41697 276.48 
L 140.41697 41.472 
" style="fill:none;stroke:#ffffff;stroke-linecap:square;stroke-width:0.8;"/>
     </g>
     <g id="line2d_4">
      <g>
       <use style="fill:#555555;stroke:#555555;stroke-width:0.8;" x="140.41697" xlink:href="#m3180e7db56" y="276.48"/>
      </g>
     </g>
     <g id="text_2">
      <!-- 2012 -->
      <g style="fill:#555555;" transform="translate(117.336779 302.78544)rotate(-30)scale(0.1 -0.1)">
       <use xlink:href="#DejaVuSans-32"/>
       <use x="63.623047" xlink:href="#DejaVuSans-30"/>
       <use x="127.246094" xlink:href="#DejaVuSans-31"/>
       <use x="190.869141" xlink:href="#DejaVuSans-32"/>
      </g>
     </g>
    </g>
    <g id="xtick_3">
     <g id="line2d_5">
      <path clip-path="url(#pad4fcb111e)" d="M 195.427879 276.48 
L 195.427879 41.472 
" style="fill:none;stroke:#ffffff;stroke-linecap:square;stroke-width:0.8;"/>
     </g>
     <g id="line2d_6">
      <g>
       <use style="fill:#555555;stroke:#555555;stroke-width:0.8;" x="195.427879" xlink:href="#m3180e7db56" y="276.48"/>
      </g>
     </g>
     <g id="text_3">
      <!-- 2013 -->
      <defs>
       <path d="M 40.578125 39.3125 
Q 47.65625 37.796875 51.625 33 
Q 55.609375 28.21875 55.609375 21.1875 
Q 55.609375 10.40625 48.1875 4.484375 
Q 40.765625 -1.421875 27.09375 -1.421875 
Q 22.515625 -1.421875 17.65625 -0.515625 
Q 12.796875 0.390625 7.625 2.203125 
L 7.625 11.71875 
Q 11.71875 9.328125 16.59375 8.109375 
Q 21.484375 6.890625 26.8125 6.890625 
Q 36.078125 6.890625 40.9375 10.546875 
Q 45.796875 14.203125 45.796875 21.1875 
Q 45.796875 27.640625 41.28125 31.265625 
Q 36.765625 34.90625 28.71875 34.90625 
L 20.21875 34.90625 
L 20.21875 43.015625 
L 29.109375 43.015625 
Q 36.375 43.015625 40.234375 45.921875 
Q 44.09375 48.828125 44.09375 54.296875 
Q 44.09375 59.90625 40.109375 62.90625 
Q 36.140625 65.921875 28.71875 65.921875 
Q 24.65625 65.921875 20.015625 65.03125 
Q 15.375 64.15625 9.8125 62.3125 
L 9.8125 71.09375 
Q 15.4375 72.65625 20.34375 73.4375 
Q 25.25 74.21875 29.59375 74.21875 
Q 40.828125 74.21875 47.359375 69.109375 
Q 53.90625 64.015625 53.90625 55.328125 
Q 53.90625 49.265625 50.4375 45.09375 
Q 46.96875 40.921875 40.578125 39.3125 
z
" id="DejaVuSans-33"/>
      </defs>
      <g style="fill:#555555;" transform="translate(172.347689 302.78544)rotate(-30)scale(0.1 -0.1)">
       <use xlink:href="#DejaVuSans-32"/>
       <use x="63.623047" xlink:href="#DejaVuSans-30"/>
       <use x="127.246094" xlink:href="#DejaVuSans-31"/>
       <use x="190.869141" xlink:href="#DejaVuSans-33"/>
      </g>
     </g>
    </g>
    <g id="xtick_4">
     <g id="line2d_7">
      <path clip-path="url(#pad4fcb111e)" d="M 250.288485 276.48 
L 250.288485 41.472 
" style="fill:none;stroke:#ffffff;stroke-linecap:square;stroke-width:0.8;"/>
     </g>
     <g id="line2d_8">
      <g>
       <use style="fill:#555555;stroke:#555555;stroke-width:0.8;" x="250.288485" xlink:href="#m3180e7db56" y="276.48"/>
      </g>
     </g>
     <g id="text_4">
      <!-- 2014 -->
      <defs>
       <path d="M 37.796875 64.3125 
L 12.890625 25.390625 
L 37.796875 25.390625 
z
M 35.203125 72.90625 
L 47.609375 72.90625 
L 47.609375 25.390625 
L 58.015625 25.390625 
L 58.015625 17.1875 
L 47.609375 17.1875 
L 47.609375 0 
L 37.796875 0 
L 37.796875 17.1875 
L 4.890625 17.1875 
L 4.890625 26.703125 
z
" id="DejaVuSans-34"/>
      </defs>
      <g style="fill:#555555;" transform="translate(227.208295 302.78544)rotate(-30)scale(0.1 -0.1)">
       <use xlink:href="#DejaVuSans-32"/>
       <use x="63.623047" xlink:href="#DejaVuSans-30"/>
       <use x="127.246094" xlink:href="#DejaVuSans-31"/>
       <use x="190.869141" xlink:href="#DejaVuSans-34"/>
      </g>
     </g>
    </g>
    <g id="xtick_5">
     <g id="line2d_9">
      <path clip-path="url(#pad4fcb111e)" d="M 305.149091 276.48 
L 305.149091 41.472 
" style="fill:none;stroke:#ffffff;stroke-linecap:square;stroke-width:0.8;"/>
     </g>
     <g id="line2d_10">
      <g>
       <use style="fill:#555555;stroke:#555555;stroke-width:0.8;" x="305.149091" xlink:href="#m3180e7db56" y="276.48"/>
      </g>
     </g>
     <g id="text_5">
      <!-- 2015 -->
      <defs>
       <path d="M 10.796875 72.90625 
L 49.515625 72.90625 
L 49.515625 64.59375 
L 19.828125 64.59375 
L 19.828125 46.734375 
Q 21.96875 47.46875 24.109375 47.828125 
Q 26.265625 48.1875 28.421875 48.1875 
Q 40.625 48.1875 47.75 41.5 
Q 54.890625 34.8125 54.890625 23.390625 
Q 54.890625 11.625 47.5625 5.09375 
Q 40.234375 -1.421875 26.90625 -1.421875 
Q 22.3125 -1.421875 17.546875 -0.640625 
Q 12.796875 0.140625 7.71875 1.703125 
L 7.71875 11.625 
Q 12.109375 9.234375 16.796875 8.0625 
Q 21.484375 6.890625 26.703125 6.890625 
Q 35.15625 6.890625 40.078125 11.328125 
Q 45.015625 15.765625 45.015625 23.390625 
Q 45.015625 31 40.078125 35.4375 
Q 35.15625 39.890625 26.703125 39.890625 
Q 22.75 39.890625 18.8125 39.015625 
Q 14.890625 38.140625 10.796875 36.28125 
z
" id="DejaVuSans-35"/>
      </defs>
      <g style="fill:#555555;" transform="translate(282.068901 302.78544)rotate(-30)scale(0.1 -0.1)">
       <use xlink:href="#DejaVuSans-32"/>
       <use x="63.623047" xlink:href="#DejaVuSans-30"/>
       <use x="127.246094" xlink:href="#DejaVuSans-31"/>
       <use x="190.869141" xlink:href="#DejaVuSans-35"/>
      </g>
     </g>
    </g>
    <g id="xtick_6">
     <g id="line2d_11">
      <path clip-path="url(#pad4fcb111e)" d="M 360.009697 276.48 
L 360.009697 41.472 
" style="fill:none;stroke:#ffffff;stroke-linecap:square;stroke-width:0.8;"/>
     </g>
     <g id="line2d_12">
      <g>
       <use style="fill:#555555;stroke:#555555;stroke-width:0.8;" x="360.009697" xlink:href="#m3180e7db56" y="276.48"/>
      </g>
     </g>
     <g id="text_6">
      <!-- 2016 -->
      <defs>
       <path d="M 33.015625 40.375 
Q 26.375 40.375 22.484375 35.828125 
Q 18.609375 31.296875 18.609375 23.390625 
Q 18.609375 15.53125 22.484375 10.953125 
Q 26.375 6.390625 33.015625 6.390625 
Q 39.65625 6.390625 43.53125 10.953125 
Q 47.40625 15.53125 47.40625 23.390625 
Q 47.40625 31.296875 43.53125 35.828125 
Q 39.65625 40.375 33.015625 40.375 
z
M 52.59375 71.296875 
L 52.59375 62.3125 
Q 48.875 64.0625 45.09375 64.984375 
Q 41.3125 65.921875 37.59375 65.921875 
Q 27.828125 65.921875 22.671875 59.328125 
Q 17.53125 52.734375 16.796875 39.40625 
Q 19.671875 43.65625 24.015625 45.921875 
Q 28.375 48.1875 33.59375 48.1875 
Q 44.578125 48.1875 50.953125 41.515625 
Q 57.328125 34.859375 57.328125 23.390625 
Q 57.328125 12.15625 50.6875 5.359375 
Q 44.046875 -1.421875 33.015625 -1.421875 
Q 20.359375 -1.421875 13.671875 8.265625 
Q 6.984375 17.96875 6.984375 36.375 
Q 6.984375 53.65625 15.1875 63.9375 
Q 23.390625 74.21875 37.203125 74.21875 
Q 40.921875 74.21875 44.703125 73.484375 
Q 48.484375 72.75 52.59375 71.296875 
z
" id="DejaVuSans-36"/>
      </defs>
      <g style="fill:#555555;" transform="translate(336.929507 302.78544)rotate(-30)scale(0.1 -0.1)">
       <use xlink:href="#DejaVuSans-32"/>
       <use x="63.623047" xlink:href="#DejaVuSans-30"/>
       <use x="127.246094" xlink:href="#DejaVuSans-31"/>
       <use x="190.869141" xlink:href="#DejaVuSans-36"/>
      </g>
     </g>
    </g>
    <g id="text_7">
     <!-- Date -->
     <defs>
      <path d="M 19.671875 64.796875 
L 19.671875 8.109375 
L 31.59375 8.109375 
Q 46.6875 8.109375 53.6875 14.9375 
Q 60.6875 21.78125 60.6875 36.53125 
Q 60.6875 51.171875 53.6875 57.984375 
Q 46.6875 64.796875 31.59375 64.796875 
z
M 9.8125 72.90625 
L 30.078125 72.90625 
Q 51.265625 72.90625 61.171875 64.09375 
Q 71.09375 55.28125 71.09375 36.53125 
Q 71.09375 17.671875 61.125 8.828125 
Q 51.171875 0 30.078125 0 
L 9.8125 0 
z
" id="DejaVuSans-44"/>
      <path d="M 34.28125 27.484375 
Q 23.390625 27.484375 19.1875 25 
Q 14.984375 22.515625 14.984375 16.5 
Q 14.984375 11.71875 18.140625 8.90625 
Q 21.296875 6.109375 26.703125 6.109375 
Q 34.1875 6.109375 38.703125 11.40625 
Q 43.21875 16.703125 43.21875 25.484375 
L 43.21875 27.484375 
z
M 52.203125 31.203125 
L 52.203125 0 
L 43.21875 0 
L 43.21875 8.296875 
Q 40.140625 3.328125 35.546875 0.953125 
Q 30.953125 -1.421875 24.3125 -1.421875 
Q 15.921875 -1.421875 10.953125 3.296875 
Q 6 8.015625 6 15.921875 
Q 6 25.140625 12.171875 29.828125 
Q 18.359375 34.515625 30.609375 34.515625 
L 43.21875 34.515625 
L 43.21875 35.40625 
Q 43.21875 41.609375 39.140625 45 
Q 35.0625 48.390625 27.6875 48.390625 
Q 23 48.390625 18.546875 47.265625 
Q 14.109375 46.140625 10.015625 43.890625 
L 10.015625 52.203125 
Q 14.9375 54.109375 19.578125 55.046875 
Q 24.21875 56 28.609375 56 
Q 40.484375 56 46.34375 49.84375 
Q 52.203125 43.703125 52.203125 31.203125 
z
" id="DejaVuSans-61"/>
      <path d="M 18.3125 70.21875 
L 18.3125 54.6875 
L 36.8125 54.6875 
L 36.8125 47.703125 
L 18.3125 47.703125 
L 18.3125 18.015625 
Q 18.3125 11.328125 20.140625 9.421875 
Q 21.96875 7.515625 27.59375 7.515625 
L 36.8125 7.515625 
L 36.8125 0 
L 27.59375 0 
Q 17.1875 0 13.234375 3.875 
Q 9.28125 7.765625 9.28125 18.015625 
L 9.28125 47.703125 
L 2.6875 47.703125 
L 2.6875 54.6875 
L 9.28125 54.6875 
L 9.28125 70.21875 
z
" id="DejaVuSans-74"/>
      <path d="M 56.203125 29.59375 
L 56.203125 25.203125 
L 14.890625 25.203125 
Q 15.484375 15.921875 20.484375 11.0625 
Q 25.484375 6.203125 34.421875 6.203125 
Q 39.59375 6.203125 44.453125 7.46875 
Q 49.3125 8.734375 54.109375 11.28125 
L 54.109375 2.78125 
Q 49.265625 0.734375 44.1875 -0.34375 
Q 39.109375 -1.421875 33.890625 -1.421875 
Q 20.796875 -1.421875 13.15625 6.1875 
Q 5.515625 13.8125 5.515625 26.8125 
Q 5.515625 40.234375 12.765625 48.109375 
Q 20.015625 56 32.328125 56 
Q 43.359375 56 49.78125 48.890625 
Q 56.203125 41.796875 56.203125 29.59375 
z
M 47.21875 32.234375 
Q 47.125 39.59375 43.09375 43.984375 
Q 39.0625 48.390625 32.421875 48.390625 
Q 24.90625 48.390625 20.390625 44.140625 
Q 15.875 39.890625 15.1875 32.171875 
z
" id="DejaVuSans-65"/>
     </defs>
     <g style="fill:#555555;" transform="translate(221.819063 317.704627)scale(0.12 -0.12)">
      <use xlink:href="#DejaVuSans-44"/>
      <use x="77.001953" xlink:href="#DejaVuSans-61"/>
      <use x="138.28125" xlink:href="#DejaVuSans-74"/>
      <use x="177.490234" xlink:href="#DejaVuSans-65"/>
     </g>
    </g>
   </g>
   <g id="matplotlib.axis_2">
    <g id="ytick_1">
     <g id="line2d_13">
      <path clip-path="url(#pad4fcb111e)" d="M 57.6 239.156293 
L 414.72 239.156293 
" style="fill:none;stroke:#ffffff;stroke-linecap:square;stroke-width:0.8;"/>
     </g>
     <g id="line2d_14">
      <defs>
       <path d="M 0 0 
L -3.5 0 
" id="m7dd32fd89e" style="stroke:#555555;stroke-width:0.8;"/>
      </defs>
      <g>
       <use style="fill:#555555;stroke:#555555;stroke-width:0.8;" x="57.6" xlink:href="#m7dd32fd89e" y="239.156293"/>
      </g>
     </g>
     <g id="text_8">
      <!-- 50 -->
      <g style="fill:#555555;" transform="translate(37.875 242.955512)scale(0.1 -0.1)">
       <use xlink:href="#DejaVuSans-35"/>
       <use x="63.623047" xlink:href="#DejaVuSans-30"/>
      </g>
     </g>
    </g>
    <g id="ytick_2">
     <g id="line2d_15">
      <path clip-path="url(#pad4fcb111e)" d="M 57.6 199.815589 
L 414.72 199.815589 
" style="fill:none;stroke:#ffffff;stroke-linecap:square;stroke-width:0.8;"/>
     </g>
     <g id="line2d_16">
      <g>
       <use style="fill:#555555;stroke:#555555;stroke-width:0.8;" x="57.6" xlink:href="#m7dd32fd89e" y="199.815589"/>
      </g>
     </g>
     <g id="text_9">
      <!-- 100 -->
      <g style="fill:#555555;" transform="translate(31.5125 203.614808)scale(0.1 -0.1)">
       <use xlink:href="#DejaVuSans-31"/>
       <use x="63.623047" xlink:href="#DejaVuSans-30"/>
       <use x="127.246094" xlink:href="#DejaVuSans-30"/>
      </g>
     </g>
    </g>
    <g id="ytick_3">
     <g id="line2d_17">
      <path clip-path="url(#pad4fcb111e)" d="M 57.6 160.474886 
L 414.72 160.474886 
" style="fill:none;stroke:#ffffff;stroke-linecap:square;stroke-width:0.8;"/>
     </g>
     <g id="line2d_18">
      <g>
       <use style="fill:#555555;stroke:#555555;stroke-width:0.8;" x="57.6" xlink:href="#m7dd32fd89e" y="160.474886"/>
      </g>
     </g>
     <g id="text_10">
      <!-- 150 -->
      <g style="fill:#555555;" transform="translate(31.5125 164.274104)scale(0.1 -0.1)">
       <use xlink:href="#DejaVuSans-31"/>
       <use x="63.623047" xlink:href="#DejaVuSans-35"/>
       <use x="127.246094" xlink:href="#DejaVuSans-30"/>
      </g>
     </g>
    </g>
    <g id="ytick_4">
     <g id="line2d_19">
      <path clip-path="url(#pad4fcb111e)" d="M 57.6 121.134182 
L 414.72 121.134182 
" style="fill:none;stroke:#ffffff;stroke-linecap:square;stroke-width:0.8;"/>
     </g>
     <g id="line2d_20">
      <g>
       <use style="fill:#555555;stroke:#555555;stroke-width:0.8;" x="57.6" xlink:href="#m7dd32fd89e" y="121.134182"/>
      </g>
     </g>
     <g id="text_11">
      <!-- 200 -->
      <g style="fill:#555555;" transform="translate(31.5125 124.933401)scale(0.1 -0.1)">
       <use xlink:href="#DejaVuSans-32"/>
       <use x="63.623047" xlink:href="#DejaVuSans-30"/>
       <use x="127.246094" xlink:href="#DejaVuSans-30"/>
      </g>
     </g>
    </g>
    <g id="ytick_5">
     <g id="line2d_21">
      <path clip-path="url(#pad4fcb111e)" d="M 57.6 81.793478 
L 414.72 81.793478 
" style="fill:none;stroke:#ffffff;stroke-linecap:square;stroke-width:0.8;"/>
     </g>
     <g id="line2d_22">
      <g>
       <use style="fill:#555555;stroke:#555555;stroke-width:0.8;" x="57.6" xlink:href="#m7dd32fd89e" y="81.793478"/>
      </g>
     </g>
     <g id="text_12">
      <!-- 250 -->
      <g style="fill:#555555;" transform="translate(31.5125 85.592697)scale(0.1 -0.1)">
       <use xlink:href="#DejaVuSans-32"/>
       <use x="63.623047" xlink:href="#DejaVuSans-35"/>
       <use x="127.246094" xlink:href="#DejaVuSans-30"/>
      </g>
     </g>
    </g>
    <g id="ytick_6">
     <g id="line2d_23">
      <path clip-path="url(#pad4fcb111e)" d="M 57.6 42.452775 
L 414.72 42.452775 
" style="fill:none;stroke:#ffffff;stroke-linecap:square;stroke-width:0.8;"/>
     </g>
     <g id="line2d_24">
      <g>
       <use style="fill:#555555;stroke:#555555;stroke-width:0.8;" x="57.6" xlink:href="#m7dd32fd89e" y="42.452775"/>
      </g>
     </g>
     <g id="text_13">
      <!-- 300 -->
      <g style="fill:#555555;" transform="translate(31.5125 46.251993)scale(0.1 -0.1)">
       <use xlink:href="#DejaVuSans-33"/>
       <use x="63.623047" xlink:href="#DejaVuSans-30"/>
       <use x="127.246094" xlink:href="#DejaVuSans-30"/>
      </g>
     </g>
    </g>
   </g>
   <g id="line2d_25">
    <path clip-path="url(#pad4fcb111e)" d="M 57.6 263.547529 
L 57.750303 258.205061 
L 57.900606 258.826645 
L 58.050909 260.400273 
L 58.652121 262.760715 
L 58.802424 265.593246 
L 58.952727 265.797818 
L 59.10303 264.664805 
L 59.553939 264.373683 
L 59.704242 264.814301 
L 59.854545 264.381551 
L 60.155152 262.209944 
L 60.606061 261.682779 
L 60.756364 261.305109 
L 60.906667 262.241418 
L 61.05697 262.367308 
L 61.207273 261.824406 
L 61.658182 261.580494 
L 61.958788 262.327968 
L 62.109091 262.154868 
L 62.259394 262.603351 
L 62.710303 262.367308 
L 62.860606 261.973901 
L 63.010909 261.226427 
L 63.161212 261.549021 
L 63.311515 262.682034 
L 63.762424 262.839396 
L 63.912727 263.0361 
L 64.213333 264.491707 
L 64.363636 264.192717 
L 64.814545 263.980276 
L 65.115152 263.083309 
L 65.265455 263.909463 
L 66.167273 263.421639 
L 66.317576 262.847265 
L 66.467879 262.957419 
L 67.219394 263.059704 
L 67.52 262.076186 
L 68.271515 262.241418 
L 68.421818 261.973901 
L 68.572121 262.170605 
L 69.02303 262.060451 
L 69.173333 262.335835 
L 69.323636 261.989637 
L 69.473939 261.069065 
L 69.624242 261.958165 
L 70.075152 262.23355 
L 70.225455 262.060451 
L 70.375758 262.076186 
L 70.526061 262.847265 
L 70.676364 262.800055 
L 71.127273 262.445989 
L 71.578182 261.187087 
L 71.728485 262.217813 
L 72.179394 262.422385 
L 72.329697 261.855879 
L 72.48 261.926693 
L 72.780606 262.422385 
L 73.231515 262.414516 
L 73.381818 262.603351 
L 73.682424 261.973901 
L 74.283636 262.351572 
L 74.433939 262.603351 
L 74.584242 262.634825 
L 74.734545 262.280758 
L 75.335758 262.021109 
L 75.486061 262.131265 
L 75.786667 261.667044 
L 75.93697 261.863748 
L 76.387879 261.234295 
L 76.688485 261.753592 
L 76.989091 258.92893 
L 77.44 259.220052 
L 77.590303 258.826645 
L 77.740606 259.235788 
L 77.890909 255.994114 
L 78.041212 256.269499 
L 78.642424 254.10576 
L 78.792727 254.735211 
L 78.94303 254.365409 
L 79.093333 254.766684 
L 79.544242 253.657276 
L 79.844848 250.746064 
L 80.145455 250.486417 
L 80.596364 250.63591 
L 80.746667 251.949888 
L 80.89697 250.273977 
L 81.197576 253.31108 
L 81.648485 253.830375 
L 81.798788 254.507035 
L 81.949091 252.941275 
L 82.099394 252.917673 
L 82.249697 253.279606 
L 82.700606 253.6022 
L 83.001212 255.939037 
L 83.301818 253.838243 
L 83.90303 253.47631 
L 84.053333 253.122243 
L 84.955152 258.157853 
L 85.255758 256.702246 
L 85.406061 257.591347 
L 85.85697 257.378907 
L 86.157576 257.66216 
L 86.307879 257.386775 
L 86.458182 256.466202 
L 86.909091 256.332444 
L 87.059394 256.001982 
L 87.209697 257.245148 
L 87.36 257.28449 
L 87.510303 257.921809 
L 88.261818 258.614205 
L 88.562424 260.305854 
L 89.013333 259.983261 
L 89.163636 259.10203 
L 89.614545 258.921063 
L 90.065455 259.574119 
L 90.215758 259.369547 
L 90.366061 259.487569 
L 90.666667 260.054074 
L 91.117576 260.195701 
L 91.418182 259.511174 
L 91.568485 260.195701 
L 91.718788 260.203569 
L 92.169697 259.896713 
L 92.32 260.392405 
L 92.470303 260.321591 
L 92.620606 259.117767 
L 92.770909 260.140624 
L 93.372121 260.494691 
L 93.672727 261.360185 
L 93.82303 260.549768 
L 94.424242 259.574119 
L 94.574545 259.755085 
L 94.724848 259.235788 
L 94.875152 259.235788 
L 95.326061 258.881722 
L 95.476364 259.14137 
L 95.626667 259.094161 
L 95.77697 259.26726 
L 95.927273 259.731481 
L 96.378182 259.755085 
L 96.528485 261.029723 
L 96.829091 260.211437 
L 97.430303 260.360933 
L 97.580606 260.612713 
L 97.730909 261.100537 
L 97.881212 261.076934 
L 98.031515 260.848757 
L 98.482424 260.636316 
L 98.78303 259.526908 
L 99.083636 256.898949 
L 99.534545 257.386775 
L 99.684848 258.118512 
L 99.835152 257.260885 
L 99.985455 257.371039 
L 100.135758 256.796664 
L 100.586667 257.670029 
L 100.73697 258.7637 
L 100.887273 258.72436 
L 101.037576 258.92893 
L 101.187879 258.315216 
L 101.638788 258.72436 
L 101.789091 258.622073 
L 102.089697 258.157853 
L 102.690909 257.48906 
L 102.841212 257.520533 
L 103.292121 256.710114 
L 103.74303 256.780928 
L 103.893333 256.954028 
L 104.043636 257.426115 
L 104.193939 257.095653 
L 104.344242 257.331698 
L 104.795152 257.253017 
L 104.945455 256.277367 
L 105.095758 256.308839 
L 105.246061 257.19794 
L 105.396364 256.466202 
L 105.847273 256.474071 
L 106.147879 257.961149 
L 106.448485 256.261631 
L 106.899394 256.765191 
L 107.049697 257.23728 
L 107.2 257.331698 
L 107.500606 255.254508 
L 108.101818 255.136486 
L 108.252121 254.892574 
L 108.402424 256.057059 
L 108.552727 254.931914 
L 109.003636 254.813893 
L 109.454545 256.914687 
L 109.604848 256.843873 
L 110.055758 256.411125 
L 110.206061 256.041322 
L 110.356364 256.120004 
L 110.65697 257.355302 
L 111.258182 257.850995 
L 111.408485 256.961895 
L 111.558788 257.095653 
L 111.709091 256.749456 
L 112.310303 256.631433 
L 112.460606 256.072795 
L 112.610909 256.072795 
L 112.761212 255.624311 
L 113.512727 255.569235 
L 113.66303 255.569235 
L 113.813333 254.979125 
L 114.264242 256.151477 
L 114.564848 256.127872 
L 114.715152 256.04919 
L 114.865455 256.631433 
L 115.316364 256.9855 
L 115.61697 256.466202 
L 115.767273 255.750202 
L 115.917576 255.915432 
L 116.368485 255.67152 
L 116.518788 256.222291 
L 116.669091 256.072795 
L 116.819394 256.780928 
L 116.969697 256.623566 
L 117.420606 255.939037 
L 117.570909 255.9233 
L 118.021818 258.834513 
L 118.472727 260.321591 
L 118.773333 258.480446 
L 118.923636 259.581985 
L 119.073939 258.354556 
L 119.524848 257.552005 
L 119.675152 257.937546 
L 119.825455 257.732974 
L 120.126061 259.723612 
L 120.57697 260.313723 
L 120.727273 261.242164 
L 121.027879 259.715744 
L 121.178182 260.62845 
L 121.779394 259.220052 
L 121.929697 258.984008 
L 122.08 259.094161 
L 122.230303 259.880976 
L 122.831515 260.79368 
L 122.981818 260.093416 
L 123.132121 259.943921 
L 123.282424 260.109151 
L 123.733333 260.79368 
L 123.883636 260.392405 
L 124.184242 259.157107 
L 124.334545 258.999743 
L 124.785455 258.865985 
L 124.935758 258.055567 
L 125.086061 258.079171 
L 125.386667 258.441106 
L 125.837576 257.630687 
L 125.987879 258.039831 
L 126.138182 258.039831 
L 126.288485 258.260139 
L 126.438788 258.984008 
L 126.889697 258.865985 
L 127.04 260.172096 
L 127.190303 259.589854 
L 127.490909 257.268753 
L 128.092121 256.851741 
L 128.242424 257.056313 
L 128.54303 256.466202 
L 128.993939 256.576356 
L 129.144242 257.016973 
L 129.294545 256.450466 
L 129.444848 256.906818 
L 129.595152 256.938291 
L 130.046061 256.568488 
L 130.196364 256.285235 
L 130.346667 256.316707 
L 130.647273 256.072795 
L 131.098182 255.285981 
L 131.248485 256.159346 
L 131.549091 254.892574 
L 131.699394 253.743827 
L 132.150303 253.6022 
L 132.601212 254.152968 
L 132.751515 253.397628 
L 133.202424 252.532132 
L 133.352727 252.595079 
L 133.50303 252.154461 
L 133.653333 251.351911 
L 133.803636 252.028572 
L 134.555152 253.507782 
L 134.855758 253.673013 
L 135.306667 253.318946 
L 135.45697 252.933406 
L 135.757576 252.870462 
L 136.358788 252.115121 
L 136.659394 251.249624 
L 136.809697 254.231651 
L 136.96 254.467694 
L 137.410909 254.546375 
L 137.561212 254.44409 
L 137.861818 255.939037 
L 138.012121 255.844619 
L 138.613333 256.426863 
L 138.913939 256.780928 
L 139.064242 256.466202 
L 139.665455 256.733719 
L 139.815758 255.687257 
L 140.116364 256.080664 
L 140.717576 255.726596 
L 141.168485 257.095653 
L 141.619394 257.253017 
L 142.070303 256.088532 
L 142.220606 256.151477 
L 142.821818 257.552005 
L 142.972121 257.496928 
L 143.122424 257.103521 
L 143.272727 257.331698 
L 143.723636 257.402512 
L 143.873939 257.544139 
L 144.324848 256.072795 
L 144.926061 254.971256 
L 145.076364 255.624311 
L 145.37697 254.569981 
L 145.827879 254.027079 
L 145.978182 253.47631 
L 146.128485 253.633672 
L 146.429091 253.114376 
L 146.88 253.673013 
L 147.030303 253.523518 
L 147.330909 252.138725 
L 147.481212 251.753185 
L 148.082424 251.060791 
L 148.38303 251.753185 
L 148.533333 251.564351 
L 148.984242 252.209538 
L 149.284848 251.894812 
L 149.435152 252.130859 
L 149.585455 251.430591 
L 150.036364 251.469935 
L 150.186667 252.335429 
L 150.487273 252.445582 
L 150.637576 252.374769 
L 151.088485 251.202417 
L 151.238788 249.770416 
L 151.689697 251.037184 
L 152.140606 250.753934 
L 152.441212 251.005714 
L 152.591515 250.982108 
L 152.741818 251.540748 
L 153.192727 250.494284 
L 153.493333 248.771162 
L 153.643636 248.448568 
L 153.793939 248.975733 
L 154.244848 249.125226 
L 154.395152 249.620919 
L 154.545455 250.746064 
L 154.695758 250.879824 
L 155.29697 251.666638 
L 155.447273 252.414108 
L 155.597576 252.343295 
L 155.898182 251.792528 
L 156.349091 252.209538 
L 156.649697 253.248133 
L 156.950303 252.421979 
L 157.401212 252.642285 
L 157.551515 253.460573 
L 157.701818 253.263869 
L 158.002424 252.060045 
L 158.603636 252.429846 
L 158.904242 251.816131 
L 159.054545 253.067166 
L 159.505455 253.35042 
L 159.655758 252.925539 
L 159.806061 254.656531 
L 159.956364 252.555736 
L 160.106667 252.933406 
L 160.557576 253.381891 
L 160.858182 255.223036 
L 161.008485 255.443345 
L 161.158788 256.17508 
L 161.609697 256.796664 
L 161.76 254.813893 
L 162.060606 253.909057 
L 162.210909 254.766684 
L 162.812121 254.884706 
L 162.962424 254.042815 
L 163.26303 256.04919 
L 163.864242 256.592093 
L 164.014545 256.308839 
L 164.164848 255.04207 
L 164.315152 255.789542 
L 164.766061 254.648663 
L 164.916364 255.498421 
L 165.066667 255.246641 
L 165.21697 254.750948 
L 165.367273 255.372532 
L 165.818182 254.939782 
L 166.118788 252.138725 
L 166.269091 251.540748 
L 166.419394 252.846859 
L 166.870303 251.792528 
L 167.020606 253.279606 
L 167.321212 253.397628 
L 167.471515 252.689496 
L 168.072727 254.420486 
L 168.523636 254.113628 
L 168.974545 254.152968 
L 169.124848 253.68088 
L 169.275152 253.657276 
L 169.425455 253.877583 
L 169.575758 252.555736 
L 170.17697 250.958504 
L 170.327273 253.775298 
L 170.477576 252.752439 
L 170.627879 253.263869 
L 171.229091 254.373277 
L 171.379394 254.955519 
L 171.529697 254.971256 
L 171.68 255.907565 
L 172.130909 255.278113 
L 172.281212 256.828136 
L 172.431515 256.474071 
L 172.581818 257.378907 
L 172.732121 257.331698 
L 173.18303 256.82027 
L 173.483636 254.971256 
L 173.784242 255.435477 
L 174.235152 255.136486 
L 174.385455 254.302464 
L 174.535758 255.372532 
L 174.686061 255.262376 
L 174.836364 254.664397 
L 175.287273 254.774552 
L 175.587879 255.67152 
L 175.738182 254.892574 
L 175.888485 254.845366 
L 176.339394 255.230904 
L 176.489697 256.151477 
L 176.940606 255.986245 
L 177.541818 256.057059 
L 177.692121 256.458334 
L 177.842424 256.466202 
L 177.992727 256.033456 
L 178.443636 255.522025 
L 178.593939 256.655038 
L 178.744242 256.544884 
L 178.894545 256.017718 
L 179.044848 254.892574 
L 179.495758 253.043563 
L 179.646061 253.413365 
L 179.796364 254.10576 
L 179.946667 254.160837 
L 180.09697 254.027079 
L 180.698182 255.978377 
L 180.848485 256.733719 
L 180.998788 256.607829 
L 181.149091 255.891828 
L 181.6 255.285981 
L 181.750303 255.45908 
L 182.050909 254.892574 
L 182.652121 255.789542 
L 182.802424 255.58497 
L 182.952727 256.159346 
L 183.10303 255.726596 
L 183.253333 256.214422 
L 183.704242 256.450466 
L 183.854545 256.725851 
L 184.155152 255.687257 
L 184.305455 256.599961 
L 184.756364 256.474071 
L 184.906667 256.954028 
L 185.05697 256.057059 
L 185.357576 256.836004 
L 186.109091 256.702246 
L 186.259394 256.269499 
L 186.409697 255.466949 
L 186.860606 255.049938 
L 187.161212 254.10576 
L 187.311515 254.097892 
L 187.461818 254.420486 
L 187.912727 254.664397 
L 188.213333 253.35042 
L 188.363636 253.869717 
L 188.513939 253.987738 
L 188.964848 253.263869 
L 189.115152 252.689496 
L 189.265455 252.838989 
L 189.566061 252.846859 
L 190.01697 253.240266 
L 190.167273 253.21666 
L 190.317576 253.318946 
L 190.467879 252.185935 
L 190.618182 252.036438 
L 191.219394 251.682371 
L 191.369697 251.886945 
L 191.52 251.886945 
L 191.670303 251.509275 
L 192.271515 251.273231 
L 192.421818 250.793274 
L 192.572121 250.753934 
L 192.722424 251.918418 
L 193.173333 251.926285 
L 193.473939 251.155207 
L 193.624242 251.344044 
L 193.774545 251.792528 
L 194.225455 252.028572 
L 194.526061 251.776791 
L 194.826667 252.233142 
L 195.277576 252.532132 
L 195.578182 250.958504 
L 195.728485 250.816877 
L 195.878788 251.115868 
L 196.329697 251.115868 
L 196.780606 251.847605 
L 196.930909 251.713845 
L 197.381818 252.469185 
L 197.532121 252.445582 
L 197.832727 251.619428 
L 197.98303 251.163074 
L 198.584242 251.304701 
L 198.734545 250.942768 
L 199.035152 249.384876 
L 199.486061 249.495029 
L 199.636364 248.519382 
L 199.786667 248.716085 
L 199.93697 248.700348 
L 200.087273 248.464305 
L 200.538182 248.283335 
L 200.688485 248.598062 
L 200.838788 248.456435 
L 201.139394 247.457181 
L 201.590303 248.613798 
L 201.740606 248.243995 
L 201.890909 248.362018 
L 202.041212 248.094502 
L 202.191515 248.204655 
L 202.792727 249.101622 
L 202.94303 247.575204 
L 203.243636 250.391997 
L 203.694545 250.053666 
L 203.844848 251.383384 
L 203.995152 251.422724 
L 204.145455 250.25824 
L 204.295758 250.958504 
L 204.746667 251.139471 
L 205.197576 248.810502 
L 205.798788 247.913534 
L 206.249697 247.889928 
L 206.4 249.66813 
L 206.850909 250.722461 
L 207.151515 250.753934 
L 207.452121 250.014326 
L 207.90303 249.306196 
L 208.053333 248.613798 
L 208.203636 248.645271 
L 208.353939 248.417095 
L 209.105455 244.191905 
L 209.255758 244.585312 
L 209.406061 246.151069 
L 209.556364 245.450805 
L 210.007273 245.474409 
L 210.157576 245.608169 
L 210.307879 246.473663 
L 210.608485 244.467288 
L 211.059394 244.270584 
L 211.209697 243.727683 
L 211.660606 241.154801 
L 212.111515 240.257834 
L 212.261818 238.369479 
L 212.412121 238.448159 
L 212.562424 238.762886 
L 212.712727 236.693564 
L 213.163636 237.771502 
L 213.313939 234.435408 
L 213.464242 234.443275 
L 213.614545 236.12706 
L 213.764848 234.065605 
L 214.215758 234.128552 
L 214.366061 229.714524 
L 214.516364 233.255187 
L 214.666667 223.325591 
L 214.81697 223.695395 
L 215.267879 214.772926 
L 215.418182 204.363374 
L 215.568485 214.135603 
L 215.718788 203.985706 
L 215.869091 205.716695 
L 216.32 206.802496 
L 216.770909 211.767297 
L 216.921212 205.638015 
L 217.522424 198.596025 
L 217.672727 189.154256 
L 217.82303 197.880027 
L 217.973333 194.890132 
L 218.574545 205.519991 
L 218.724848 204.803987 
L 219.025455 201.389217 
L 219.476364 200.65748 
L 219.626667 201.247591 
L 219.77697 202.333392 
L 220.077576 199.815589 
L 220.528485 196.98306 
L 220.678788 198.438665 
L 220.829091 198.194754 
L 220.979394 196.156902 
L 221.129697 196.904379 
L 221.580606 202.569438 
L 221.730909 197.376467 
L 221.881212 196.825693 
L 222.181818 193.072593 
L 222.632727 192.451009 
L 222.78303 185.456232 
L 222.933333 185.652936 
L 223.233939 185.401155 
L 223.684848 183.00137 
L 223.835152 180.428491 
L 223.985455 181.569369 
L 224.286061 179.75183 
L 224.73697 173.827121 
L 224.887273 179.138116 
L 225.037576 194.685564 
L 225.187879 183.316097 
L 225.338182 185.259529 
L 225.789091 184.165858 
L 225.939394 180.932051 
L 226.089697 180.562248 
L 226.24 183.764581 
L 226.390303 177.674642 
L 226.841212 176.746195 
L 226.991515 172.434457 
L 227.141818 174.189049 
L 227.292121 172.277097 
L 227.442424 172.599694 
L 227.893333 168.335162 
L 228.043636 164.605659 
L 228.193939 166.855948 
L 228.344242 157.05224 
L 228.494545 158.586536 
L 228.945455 160.923375 
L 229.095758 160.868293 
L 229.396364 171.151958 
L 229.546667 167.060515 
L 229.997576 165.64426 
L 230.147879 161.537089 
L 230.298182 160.474886 
L 230.448485 161.0886 
L 230.598788 154.967187 
L 231.049697 148.554657 
L 231.2 150.79707 
L 231.350303 145.478211 
L 231.500606 149.286389 
L 232.252121 142.063441 
L 232.402424 144.919568 
L 232.552727 144.659918 
L 233.304242 151.465867 
L 233.454545 147.563263 
L 233.755152 150.427267 
L 234.206061 146.312232 
L 234.356364 148.609728 
L 234.506667 147.043964 
L 234.65697 144.10915 
L 234.807273 137.735964 
L 235.258182 133.345539 
L 235.408485 137.547124 
L 235.709091 131.598811 
L 235.859394 130.953618 
L 236.310303 129.789137 
L 236.460606 125.886533 
L 236.610909 130.111734 
L 236.761212 140.765191 
L 236.911515 139.702999 
L 237.512727 133.408486 
L 237.66303 141.016977 
L 237.813333 142.307352 
L 237.963636 142.574865 
L 238.414545 140.804534 
L 238.564848 132.716086 
L 238.715152 133.015079 
L 238.865455 134.085147 
L 239.015758 133.60519 
L 239.466667 134.289714 
L 239.61697 144.345197 
L 239.767273 145.596228 
L 239.917576 148.672674 
L 240.067879 141.426111 
L 240.518788 144.596983 
L 240.669091 150.435142 
L 240.819394 148.963792 
L 240.969697 156.013651 
L 241.12 150.246303 
L 241.570909 148.672674 
L 241.721212 136.870463 
L 242.021818 165.046274 
L 242.172121 171.112615 
L 242.62303 167.556212 
L 242.773333 164.652867 
L 243.073939 169.192787 
L 243.224242 170.821486 
L 243.675152 172.064654 
L 243.825455 184.527792 
L 243.975758 179.295477 
L 244.276364 182.83614 
L 244.727273 180.538644 
L 244.877576 184.567135 
L 245.027879 183.048583 
L 245.328485 176.392131 
L 245.779394 179.08304 
L 245.929697 174.102511 
L 246.08 164.943984 
L 246.230303 168.225009 
L 246.380606 167.154941 
L 246.831515 170.703468 
L 247.132121 166.863812 
L 247.282424 168.579073 
L 247.432727 162.009171 
L 247.883636 161.670846 
L 248.033939 162.378974 
L 248.184242 158.712418 
L 248.484848 167.099858 
L 248.935758 164.526973 
L 249.086061 160.474886 
L 249.386667 156.509348 
L 249.53697 156.304769 
L 249.987879 159.593658 
L 250.138182 158.649471 
L 250.438788 160.632246 
L 250.589091 160.474886 
L 251.04 160.474886 
L 251.190303 162.347507 
L 251.340606 161.379717 
L 251.490909 158.50785 
L 251.641212 161.686574 
L 252.092121 163.795242 
L 252.242424 167.949619 
L 252.392727 145.958168 
L 252.54303 150.63971 
L 252.693333 144.589108 
L 253.294545 143.762951 
L 253.444848 138.593588 
L 253.595152 139.049941 
L 253.745455 138.562109 
L 254.196364 140.67864 
L 254.346667 143.558383 
L 254.647273 138.444091 
L 254.797576 137.775295 
L 255.248485 134.596571 
L 255.699394 139.781673 
L 255.849697 136.075785 
L 256.300606 129.521623 
L 256.450909 121.9446 
L 256.751515 126.374367 
L 256.901818 122.629124 
L 257.50303 117.011272 
L 257.653333 118.222972 
L 257.803636 109.324107 
L 257.953939 111.975667 
L 258.404848 114.241695 
L 258.855758 72.94182 
L 259.006061 82.068868 
L 259.45697 91.817493 
L 259.607273 75.121286 
L 260.058182 79.480243 
L 260.509091 87.537223 
L 260.809697 96.349539 
L 260.96 86.679599 
L 261.110303 93.367519 
L 261.561212 93.635032 
L 261.711515 92.061404 
L 261.861818 88.567948 
L 262.012121 92.682982 
L 262.162424 92.793136 
L 262.613333 97.726463 
L 263.064242 111.401296 
L 263.214545 111.062959 
L 263.665455 108.15175 
L 263.815758 114.037116 
L 264.116364 97.293713 
L 264.266667 100.669152 
L 264.717576 116.562794 
L 265.168485 107.899964 
L 265.318788 120.654224 
L 265.769697 115.15439 
L 265.92 121.850186 
L 266.070303 123.494624 
L 266.220606 121.441039 
L 266.821818 123.431677 
L 267.122424 108.285506 
L 267.42303 119.560554 
L 267.873939 121.134182 
L 268.024242 122.542574 
L 268.324848 115.563537 
L 268.475152 114.367576 
L 268.926061 113.675188 
L 269.076364 108.073064 
L 269.226667 113.549295 
L 269.37697 135.296835 
L 269.527273 136.980617 
L 269.978182 133.825497 
L 270.128485 133.912046 
L 270.278788 129.82848 
L 270.429091 129.018062 
L 270.579394 129.82848 
L 271.030303 128.435816 
L 271.180606 123.541831 
L 271.330909 124.139817 
L 271.631515 117.569915 
L 272.533333 112.817552 
L 272.683636 113.029995 
L 273.134545 115.366833 
L 273.284848 118.388197 
L 273.435152 117.711536 
L 273.585455 117.617122 
L 273.735758 113.462745 
L 274.186667 114.879012 
L 274.487273 119.953961 
L 274.637576 117.121425 
L 274.787879 117.373211 
L 275.238788 115.815323 
L 275.539394 96.349539 
L 275.689697 98.410987 
L 275.84 98.694241 
L 276.290909 97.915302 
L 276.441212 90.472037 
L 276.591515 95.129974 
L 276.741818 91.888304 
L 276.892121 93.8396 
L 277.34303 90.015683 
L 277.493333 87.726051 
L 277.643636 89.142318 
L 277.793939 96.514775 
L 278.395152 99.496795 
L 278.545455 106.460104 
L 278.695758 104.398643 
L 278.846061 107.616722 
L 278.996364 104.917943 
L 279.447273 105.405765 
L 279.597576 100.102645 
L 279.898182 108.419263 
L 280.048485 108.5845 
L 280.499394 107.561639 
L 280.649697 103.674776 
L 280.8 105.390036 
L 280.950303 102.840755 
L 281.100606 103.257765 
L 281.551515 102.053941 
L 281.701818 100.197059 
L 281.852121 103.887219 
L 282.002424 98.112006 
L 282.152727 100.606206 
L 282.904242 90.527119 
L 283.054545 81.699064 
L 283.204848 80.880771 
L 283.655758 77.48174 
L 284.106667 71.966178 
L 284.25697 72.760844 
L 284.707879 71.368192 
L 285.008485 78.119058 
L 285.158788 76.663459 
L 285.309091 78.221348 
L 285.76 75.349469 
L 285.910303 70.006995 
L 286.210909 72.438247 
L 286.361212 67.080046 
L 286.962424 61.729719 
L 287.112727 52.154182 
L 287.413333 56.18269 
L 287.864242 60.061677 
L 288.014545 55.83649 
L 288.164848 58.582463 
L 288.315152 57.827129 
L 288.465455 57.795649 
L 288.916364 62.618823 
L 289.066667 77.74139 
L 289.21697 72.029112 
L 289.367273 71.281654 
L 289.517576 75.506842 
L 289.968485 77.859408 
L 290.118788 85.554449 
L 290.269091 80.91225 
L 290.419394 79.810704 
L 290.569697 83.170403 
L 291.020606 86.514363 
L 291.170909 84.216867 
L 291.321212 87.93063 
L 291.621818 79.385829 
L 292.072727 74.609862 
L 292.22303 75.081955 
L 292.523636 72.155006 
L 292.673939 86.010802 
L 293.124848 90.786758 
L 293.425455 105.3979 
L 293.575758 105.618208 
L 293.726061 94.870324 
L 294.17697 100.110509 
L 294.327273 94.17006 
L 294.477576 95.019821 
L 294.778182 92.596432 
L 295.229091 94.1858 
L 295.379394 97.844481 
L 295.529697 88.772515 
L 295.68 91.125094 
L 295.830303 87.68672 
L 296.281212 87.301177 
L 296.431515 89.276076 
L 296.581818 88.874805 
L 296.732121 93.996961 
L 296.882424 87.938495 
L 297.333333 90.361883 
L 297.483636 87.655241 
L 297.633939 82.013785 
L 297.784242 81.305657 
L 297.934545 81.793478 
L 298.385455 75.900249 
L 298.535758 77.182747 
L 298.836364 83.406449 
L 298.986667 80.054614 
L 299.437576 85.570188 
L 299.738182 83.099593 
L 300.489697 88.748911 
L 300.790303 100.480312 
L 300.940606 98.631295 
L 301.090909 98.576224 
L 301.541818 104.186212 
L 301.692121 113.785342 
L 301.842424 110.016495 
L 302.14303 117.341733 
L 302.593939 113.824685 
L 302.894545 126.594673 
L 303.195152 105.248404 
L 303.646061 105.3979 
L 303.796364 102.40014 
L 303.946667 105.578864 
L 304.247273 104.209815 
L 304.698182 99.968888 
L 304.998788 102.966648 
L 305.299394 103.139748 
L 305.900606 113.218834 
L 306.050909 110.630209 
L 306.201212 111.055095 
L 306.351515 114.115802 
L 306.802424 118.734397 
L 306.952727 118.521954 
L 307.10303 132.283336 
L 307.253333 125.469523 
L 307.403636 128.451555 
L 308.004848 125.957356 
L 308.155152 129.356387 
L 308.455758 120.906011 
L 308.906667 119.694311 
L 309.207273 116.326747 
L 309.357576 120.292285 
L 309.507879 118.018393 
L 309.958788 118.010529 
L 310.259394 106.743358 
L 310.56 103.824272 
L 311.010909 109.032977 
L 311.161212 107.325593 
L 311.311515 111.527177 
L 311.461818 126.193391 
L 311.612121 118.852426 
L 312.213333 116.649344 
L 312.363636 117.853169 
L 312.513939 117.200111 
L 312.664242 112.652327 
L 313.115152 108.81267 
L 313.415758 117.247319 
L 313.566061 117.986926 
L 313.716364 115.705169 
L 314.167273 119.009786 
L 314.317576 123.64412 
L 314.618182 118.891757 
L 314.768485 121.755759 
L 315.219394 125.54821 
L 315.369697 130.214011 
L 315.670303 126.05177 
L 315.820606 129.82848 
L 316.271515 127.428694 
L 316.421818 124.729928 
L 316.572121 125.099719 
L 316.722424 119.560554 
L 316.872727 123.14056 
L 317.323636 122.314403 
L 317.473939 119.891014 
L 317.774545 125.918013 
L 317.924848 129.734054 
L 318.375758 132.267596 
L 318.526061 126.22487 
L 318.676364 130.025183 
L 318.826667 128.821359 
L 319.427879 122.70781 
L 319.878788 114.501345 
L 320.029091 113.384059 
L 320.48 112.919841 
L 320.780606 115.264543 
L 320.930909 115.075716 
L 321.081212 117.207976 
L 321.532121 115.799583 
L 321.682424 116.570658 
L 321.98303 106.759086 
L 322.133333 105.004493 
L 322.584242 103.383658 
L 322.734545 93.792393 
L 322.884848 97.490417 
L 323.035152 97.222903 
L 323.185455 97.576967 
L 323.636364 98.961767 
L 323.786667 91.424086 
L 323.93697 94.303817 
L 324.087273 104.611086 
L 324.237576 92.816739 
L 324.688485 92.580705 
L 324.838788 89.575069 
L 324.989091 83.673963 
L 325.289697 86.569445 
L 325.890909 83.028782 
L 326.041212 84.051631 
L 326.191515 87.277573 
L 326.341818 85.428555 
L 327.093333 82.965835 
L 327.243636 84.130317 
L 327.393939 81.006664 
L 327.844848 80.684067 
L 328.145455 83.209746 
L 328.295758 83.760513 
L 328.446061 84.940734 
L 328.89697 81.124682 
L 329.047273 77.544687 
L 329.197576 80.298536 
L 329.347879 79.228468 
L 329.498182 81.628242 
L 329.949091 82.029525 
L 330.099394 81.691188 
L 330.249697 80.086093 
L 330.4 72.351709 
L 330.550303 72.036988 
L 331.001212 72.233692 
L 331.151515 73.673551 
L 331.301818 68.433367 
L 331.452121 68.850377 
L 331.602424 66.930549 
L 332.053333 72.391041 
L 332.203636 70.148639 
L 332.504242 58.031684 
L 333.105455 59.070284 
L 333.255758 62.123126 
L 333.406061 74.460366 
L 333.556364 74.649217 
L 333.706667 72.178609 
L 334.157576 72.155006 
L 334.307879 72.273023 
L 334.458182 68.622218 
L 334.608485 70.604981 
L 334.758788 64.090162 
L 335.209697 62.123126 
L 335.36 66.017865 
L 335.510303 72.926092 
L 335.660606 66.332586 
L 335.810909 68.118646 
L 336.261818 72.013385 
L 336.412121 77.269297 
L 336.562424 70.56565 
L 336.712727 71.808806 
L 336.86303 67.945546 
L 337.313939 68.97627 
L 337.464242 73.917461 
L 337.614545 71.108553 
L 337.915152 86.844823 
L 338.666667 93.595689 
L 338.967273 83.965081 
L 339.418182 77.418794 
L 339.568485 77.560415 
L 339.718788 73.665699 
L 339.869091 80.172643 
L 340.019394 92.808875 
L 340.470303 118.938976 
L 340.620606 97.120613 
L 340.770909 99.15847 
L 340.921212 96.742946 
L 341.071515 88.198144 
L 341.522424 85.239728 
L 341.672727 89.394105 
L 341.973333 80.172643 
L 342.123636 88.961355 
L 342.724848 85.688205 
L 342.875152 80.180507 
L 343.025455 83.972956 
L 343.175758 83.65036 
L 343.927273 79.401569 
L 344.077576 70.809561 
L 344.227879 75.530445 
L 344.678788 70.793809 
L 344.829091 74.688548 
L 344.979394 72.391041 
L 345.129697 74.295141 
L 345.28 68.724508 
L 345.730909 76.01039 
L 345.881212 81.431538 
L 346.031515 80.21985 
L 346.181818 83.752649 
L 346.332121 93.123596 
L 346.78303 82.706186 
L 347.083636 92.313178 
L 347.384242 104.666169 
L 347.835152 103.045322 
L 347.985455 110.685292 
L 348.135758 104.870737 
L 348.286061 108.206832 
L 348.436364 103.005991 
L 349.037576 99.323695 
L 349.187879 111.700277 
L 349.338182 112.038613 
L 349.488485 109.331971 
L 349.939394 112.180234 
L 350.089697 109.457864 
L 350.24 112.235316 
L 350.390303 111.889116 
L 350.540606 112.95132 
L 350.991515 114.115802 
L 351.141818 110.236802 
L 351.442424 97.073406 
L 351.592727 96.978992 
L 352.043636 95.177182 
L 352.344242 107.152493 
L 352.494545 107.089546 
L 352.644848 110.944942 
L 353.095758 116.342487 
L 353.246061 109.17461 
L 353.396364 109.725378 
L 353.69697 102.651915 
L 354.298182 109.040853 
L 354.749091 96.695738 
L 355.2 96.121368 
L 355.350303 96.695738 
L 355.500606 92.022061 
L 355.650909 93.218022 
L 355.801212 95.594192 
L 356.252121 99.339434 
L 356.402424 99.481055 
L 356.552727 100.126248 
L 356.70303 101.692001 
L 356.853333 101.274991 
L 357.304242 107.357071 
L 357.454545 103.965893 
L 357.604848 103.745586 
L 357.755152 94.429711 
L 357.905455 95.255868 
L 358.356364 96.200042 
L 358.506667 93.603553 
L 358.807273 97.089145 
L 359.408485 96.357403 
L 359.558788 97.482552 
L 359.859394 90.833976 
L 360.460606 96.963253 
L 360.761212 105.3979 
L 360.911515 109.969289 
L 361.061818 107.081682 
L 361.512727 110.110921 
L 361.66303 112.007134 
L 361.813333 111.684549 
L 362.113939 121.9446 
L 362.715152 114.281026 
L 362.865455 121.606275 
L 363.166061 117.357472 
L 363.61697 121.086975 
L 364.067879 128.380745 
L 364.218182 129.041666 
L 364.669091 129.977976 
L 364.819394 127.098234 
L 365.12 144.187837 
L 365.270303 143.715743 
L 365.721212 154.888501 
L 365.871515 166.517612 
L 366.021818 160.081478 
L 366.172121 158.901257 
L 366.322424 156.540815 
L 367.073939 153.393559 
L 367.224242 142.834516 
L 367.374545 149.727002 
L 367.825455 144.64419 
L 367.975758 139.891826 
L 368.126061 142.574865 
L 368.426667 130.025183 
L 369.027879 125.658363 
L 369.178182 133.93565 
L 369.328485 130.355644 
L 369.478788 122.70781 
L 369.929697 122.959596 
L 370.08 118.380333 
L 370.230303 117.577779 
L 370.380606 113.266041 
L 370.530909 114.894752 
L 371.132121 109.906342 
L 371.432727 104.241283 
L 371.58303 98.237888 
L 372.184242 91.856825 
L 372.334545 95.665014 
L 372.484848 108.718257 
L 373.086061 96.262988 
L 373.236364 97.61631 
L 373.386667 93.524879 
L 373.53697 98.04906 
L 373.687273 85.861305 
L 374.138182 82.485879 
L 374.288485 89.268212 
L 374.589091 68.850377 
L 374.739394 73.53193 
L 375.340606 82.186885 
L 375.490909 82.965835 
L 375.641212 79.433036 
L 375.791515 80.762753 
L 376.242424 80.038886 
L 376.392727 79.338622 
L 376.54303 84.736167 
L 376.693333 82.588156 
L 376.843636 82.666843 
L 377.294545 79.425172 
L 377.444848 80.180507 
L 377.595152 79.629739 
L 377.895758 83.256953 
L 378.346667 88.481398 
L 378.797576 98.741448 
L 378.947879 112.581517 
L 379.398788 108.765464 
L 379.549091 115.193733 
L 379.699394 115.162266 
L 379.849697 112.133027 
L 380 115.012769 
L 380.450909 114.721652 
L 380.601212 114.013512 
L 380.751515 113.934838 
L 381.052121 107.766207 
L 381.50303 105.50019 
L 381.653333 108.073064 
L 381.803636 107.042339 
L 382.104242 101.471694 
L 382.705455 103.005991 
L 383.006061 105.720497 
L 383.156364 105.3979 
L 383.607273 106.971529 
L 383.757576 103.635433 
L 383.907879 94.539864 
L 384.058182 93.611429 
L 384.208485 99.583345 
L 384.659394 105.791307 
L 384.809697 106.279128 
L 384.96 107.797686 
L 385.711515 105.791307 
L 385.861818 104.862872 
L 386.012121 121.551193 
L 386.312727 128.96298 
L 386.763636 128.325662 
L 387.064242 117.097822 
L 387.214545 110.929203 
L 387.364848 116.303144 
L 388.116364 113.266041 
L 388.41697 107.128889 
L 388.867879 105.429367 
L 389.168485 101.070423 
L 389.318788 102.943044 
L 389.469091 103.415126 
L 389.92 105.681154 
L 390.220606 100.307213 
L 390.370909 100.677016 
L 390.521212 103.832136 
L 390.972121 103.611829 
L 391.272727 98.04906 
L 391.42303 99.142731 
L 391.573333 96.978992 
L 392.024242 93.202282 
L 392.324848 99.599085 
L 392.475152 100.920927 
L 392.625455 97.52976 
L 393.076364 99.103388 
L 393.226667 100.031823 
L 393.37697 98.914548 
L 393.677576 101.141233 
L 394.128485 100.661277 
L 394.278788 101.078287 
L 394.579394 102.392265 
L 394.729697 102.612584 
L 395.330909 101.998858 
L 395.481212 99.850859 
L 395.631515 102.950908 
L 395.781818 103.714119 
L 396.232727 105.279883 
L 396.833939 119.300903 
L 397.435152 121.905257 
L 397.585455 116.806704 
L 397.735758 121.488246 
L 397.886061 121.850186 
L 398.33697 125.068252 
L 398.487273 123.447417 
L 398.637576 124.478142 
L 398.787879 123.895895 
L 398.938182 120.803722 
L 399.389091 115.626483 
L 399.539394 115.744501 
L 399.689697 116.12218 
L 399.84 116.098577 
L 399.990303 116.421162 
L 400.441212 116.01989 
L 400.591515 113.541431 
L 401.042424 119.395317 
L 401.493333 111.456366 
L 401.643636 110.826913 
L 401.793939 111.503574 
L 401.944242 119.198614 
L 402.094545 120.347368 
L 402.545455 120.071978 
L 402.695758 119.678571 
L 402.996364 120.740775 
L 403.146667 120.614881 
L 403.747879 124.289302 
L 404.048485 119.46614 
L 404.198788 122.235717 
L 404.649697 120.347368 
L 404.8 118.852426 
L 404.950303 120.347368 
L 405.100606 112.211713 
L 405.250909 117.986926 
L 405.701818 119.175011 
L 405.852121 122.676343 
L 406.002424 128.96298 
L 406.152727 129.789137 
L 406.30303 129.789137 
L 406.753939 126.177663 
L 406.904242 126.020303 
L 407.054545 131.457179 
L 407.204848 128.176165 
L 407.355152 133.534368 
L 407.806061 130.575951 
L 407.956364 134.683121 
L 408.106667 134.785411 
L 408.25697 134.124478 
L 408.407273 128.490898 
L 408.858182 132.904926 
L 409.008485 132.275472 
L 409.158788 128.522365 
L 409.459394 126.13832 
L 409.910303 124.690585 
L 410.060606 124.627638 
L 410.511515 134.604435 
L 410.962424 134.895564 
L 411.112727 132.527246 
L 411.26303 132.031561 
L 411.413333 127.389351 
L 411.563636 128.317798 
L 412.164848 126.500259 
L 412.315152 122.125564 
L 412.615758 122.644863 
L 413.21697 118.734397 
L 413.367273 114.485605 
L 413.667879 114.839669 
L 414.269091 109.426385 
L 414.419394 104.194076 
L 414.72 108.30911 
L 414.72 108.30911 
" style="fill:none;stroke:#e24a33;stroke-linecap:square;stroke-width:1.5;"/>
   </g>
   <g id="patch_3">
    <path d="M 57.6 276.48 
L 57.6 41.472 
" style="fill:none;stroke:#ffffff;stroke-linecap:square;stroke-linejoin:miter;"/>
   </g>
   <g id="patch_4">
    <path d="M 414.72 276.48 
L 414.72 41.472 
" style="fill:none;stroke:#ffffff;stroke-linecap:square;stroke-linejoin:miter;"/>
   </g>
   <g id="patch_5">
    <path d="M 57.6 276.48 
L 414.72 276.48 
" style="fill:none;stroke:#ffffff;stroke-linecap:square;stroke-linejoin:miter;"/>
   </g>
   <g id="patch_6">
    <path d="M 57.6 41.472 
L 414.72 41.472 
" style="fill:none;stroke:#ffffff;stroke-linecap:square;stroke-linejoin:miter;"/>
   </g>
  </g>
 </g>
 <defs>
  <clipPath id="pad4fcb111e">
   <rect height="235.008" width="357.12" x="57.6" y="41.472"/>
  </clipPath>
 </defs>
</svg>
